<?xml version="1.0" encoding="UTF-8"?>
<svg id="Layer_1" data-name="Layer 1" xmlns="http://www.w3.org/2000/svg" width="284.98" height="322.33" viewBox="0 0 284.98 322.33">
  <defs>
    <style>
      .cls-1 {
        fill: #f4c57a;
      }

      .cls-2 {
        fill: #f9e0ac;
      }

      .cls-3 {
        fill: #fff;
      }

      .cls-4 {
        fill: #3f3223;
      }

      .cls-5 {
        fill: #7ac1e5;
      }
    </style>
  </defs>
  <g>
    <polygon class="cls-5" points="185.49 87.55 62.07 86.88 -.27 185.24 60.81 284.26 184.23 284.93 246.57 186.58 185.49 87.55"/>
    <path class="cls-2" d="M16.6,219.13c6.91,21.17-10.98,70.29,13.67,65.1,42.51-8.95,17.68,33.93,42.02,37.62,19.45,2.95,30.72-37.81,49.45-24.12,18.01,13.17,43.99-7.28,28.28-17.73-16.87-11.22-23.23-8.64-38.7-5.09-36.93,8.47-65.1-6.86-66.74-26.37-1.92-22.92-33.06-44.98-27.98-29.41Z"/>
    <g>
      <path class="cls-3" d="M66.88,160.14c14.06,17.9,14.65,69.72,36.08,57.34,36.96-21.35,28.77,26.68,53.07,22.78,19.42-3.12,15.56-45.03,38.12-37.78,21.7,6.97,38.96-20.22,20.4-25.33-19.93-5.48-25.01-1.11-38.36,6.94-31.87,19.21-63.92,13.28-72.42-4.66-9.97-21.07-47.23-32.45-36.9-19.29Z"/>
      <g>
        <path class="cls-4" d="M112.72,55.45l-33.45-.18c-16.53-.09-29.85-12.54-29.75-27.8h0C49.61,12.21,63.09-.09,79.62,0l3.52,.02c16.53,.09,29.85,12.54,29.75,27.8l-.18,27.64Z"/>
        <path class="cls-4" d="M118,55.48l33.45,.18c16.53,.09,30.01-12.21,30.11-27.47h0c.1-15.26-13.22-27.71-29.75-27.8l-3.52-.02c-16.53-.09-30.01,12.21-30.11,27.47l-.18,27.64Z"/>
        <path class="cls-2" d="M284.77,132.8s-51.14,12.73-51.38,12.92c-10.43,33.14-58.62,58.01-116.33,57.7C51.91,203.06-.69,170.75-.44,131.25-.19,91.74,52.82,60.01,117.97,60.36c56.61,.31,103.75,24.75,114.97,57.06-.89,.45,51.83,15.37,51.83,15.37Z"/>
        <path class="cls-1" d="M233.38,145.72c-10.43,33.14-58.62,58.01-116.33,57.7-51.73-.28-95.55-20.71-111.28-48.89,120.34,48.51,227.61-8.81,227.61-8.81Z"/>
        <path class="cls-4" d="M185.25,73.53c24.01,10.3,41.43,25.87,47.69,43.89-.89,.45,51.83,15.37,51.83,15.37,0,0-51.14,12.73-51.38,12.92-5.95,18.91-24.19,35.12-49.47,45.5,0,0,21.33-11.71,23.56-58.84,2.15-45.48-22.22-58.85-22.22-58.85Z"/>
        <path class="cls-4" d="M127.29,60.63c7.69,.41,15.16,1.26,22.36,2.51,0,0,31.6,13.82,31.25,69.09-.31,48.77-32.13,68.74-32.13,68.74-7.56,1.23-15.42,2.02-23.5,2.31,0,0,25.22-2.94,25.66-71.22,.34-53.65-23.64-71.44-23.64-71.44Z"/>
      </g>
    </g>
  </g>
  <g>
    <g/>
    <g/>
  </g>
</svg>