<?xml version="1.0" encoding="utf-8"?>
<!-- Generator: Adobe Illustrator 26.2.1, SVG Export Plug-In . SVG Version: 6.00 Build 0)  -->
<svg version="1.1" id="Layer_1" xmlns="http://www.w3.org/2000/svg" xmlns:xlink="http://www.w3.org/1999/xlink" x="0px" y="0px"
	 viewBox="0 0 22.5 22.5" style="enable-background:new 0 0 22.5 22.5;" xml:space="preserve">
<style type="text/css">
	.st0{fill:url(#SVGID_1_);}
	.st1{fill:#FFFFFF;}
</style>
<g id="Layer_2_00000028297541033469402840000001300432649219931823_">
	<g id="圖層_1">
		
			<radialGradient id="SVGID_1_" cx="11.24" cy="12.76" r="11.24" gradientTransform="matrix(1 0 0 -1 0 24)" gradientUnits="userSpaceOnUse">
			<stop  offset="5.052174e-04" style="stop-color:#FFDDA9"/>
			<stop  offset="0.46" style="stop-color:#FFC369"/>
			<stop  offset="1" style="stop-color:#FF9800"/>
		</radialGradient>
		<circle class="st0" cx="11.2" cy="11.2" r="11.2"/>
		<path class="st1" d="M12.7,17.4c0,0.3-0.2,0.6-0.5,0.7c-0.1,0-0.1,0-0.2,0c-0.4,0-0.6-0.2-0.6-0.7V5.8L8.7,9.5
			C8.6,9.7,8.4,9.7,8.2,9.7C8,9.7,7.9,9.6,7.8,9.5C7.6,9.4,7.5,9.2,7.5,9.1c0-0.2,0.1-0.3,0.2-0.5l2.3-3.3c0.3-0.4,0.6-0.7,0.9-1.1
			c0.3-0.2,0.6-0.3,1-0.3c0.5,0,0.8,0.3,0.8,1.1L12.7,17.4z"/>
	</g>
</g>
</svg>
