<svg xmlns="http://www.w3.org/2000/svg" xmlns:xlink="http://www.w3.org/1999/xlink" viewBox="0 0 22.47 22.47"><defs><style>.cls-1{fill:url(#未命名漸層_91);}.cls-2{fill:#fff;}</style><radialGradient id="未命名漸層_91" cx="11.24" cy="11.24" r="11.24" gradientUnits="userSpaceOnUse"><stop offset="0" stop-color="#f19ec2"/><stop offset="0.03" stop-color="#f19bc0"/><stop offset="0.46" stop-color="#ec73aa"/><stop offset="0.79" stop-color="#e95b9d"/><stop offset="1" stop-color="#e85298"/></radialGradient></defs><g id="Layer_2" data-name="Layer 2"><g id="圖層_1" data-name="圖層 1"><circle class="cls-1" cx="11.24" cy="11.24" r="11.24"/><path class="cls-2" d="M12.71,17.36a.59.59,0,0,1-.66.67c-.43,0-.64-.22-.64-.67V5.77L8.68,9.51a.54.54,0,0,1-.47.2.63.63,0,0,1-.46-.2.59.59,0,0,1-.21-.46.82.82,0,0,1,.21-.48l2.31-3.29A7,7,0,0,1,11,4.21a1.48,1.48,0,0,1,1-.31c.53,0,.79.35.79,1.06Z"/></g></g></svg>