<svg xmlns="http://www.w3.org/2000/svg" viewBox="0 0 22.47 22.47"><defs><style>.cls-1{fill:#9fa0a0;}.cls-2{fill:#fff;}</style></defs><g id="Layer_2" data-name="Layer 2"><g id="圖層_1" data-name="圖層 1"><circle class="cls-1" cx="11.24" cy="11.24" r="11.24"/><path class="cls-2" d="M15.68,17.22c0,.41-.23.62-.68.62H9.63A5,5,0,0,1,8,17.66a1.19,1.19,0,0,1-.75-1.22,4.75,4.75,0,0,1,1.08-3.18,9.46,9.46,0,0,1,2.38-1.8,17,17,0,0,0,2.41-1.58,3.09,3.09,0,0,0,1.12-2.4,2.09,2.09,0,0,0-.73-1.65,2.86,2.86,0,0,0-1.92-.63,2.54,2.54,0,0,0-2.06.85,2.75,2.75,0,0,0-.66,1.88.58.58,0,0,1-.66.66c-.46,0-.68-.22-.68-.66a4.1,4.1,0,0,1,1-2.76A3.9,3.9,0,0,1,11.63,3.9a4.22,4.22,0,0,1,2.76.92,3.3,3.3,0,0,1,1.2,2.66,4.27,4.27,0,0,1-1.25,3.17,16.4,16.4,0,0,1-2.71,1.8,11,11,0,0,0-2.08,1.44,3.23,3.23,0,0,0-1,2.35q0,.3,1.05.3H15A.6.6,0,0,1,15.68,17.22Z"/></g></g></svg>