<svg xmlns="http://www.w3.org/2000/svg" viewBox="0 0 22.47 22.47"><defs><style>.cls-1{fill:#9fa0a0;}.cls-2{fill:#fff;}</style></defs><g id="Layer_2" data-name="Layer 2"><g id="圖層_1" data-name="圖層 1"><circle class="cls-1" cx="11.24" cy="11.24" r="11.24"/><path class="cls-2" d="M15.66,13.87A4,4,0,0,1,11.47,18a3.9,3.9,0,0,1-3.68-1.93,3.52,3.52,0,0,1-.48-1.71c0-.42.23-.63.7-.63s.57.2.6.61a2.41,2.41,0,0,0,.89,1.73,3.1,3.1,0,0,0,2,.6,2.79,2.79,0,0,0,2.09-.77,2.73,2.73,0,0,0,.78-2c0-1.66-.8-2.49-2.38-2.49H10.78c-.46,0-.69-.21-.69-.64a.61.61,0,0,1,.69-.7H12a1.7,1.7,0,0,0,1.31-.7A2.81,2.81,0,0,0,14,7.47a2.23,2.23,0,0,0-.64-1.62A2.41,2.41,0,0,0,11.5,5.2,2.14,2.14,0,0,0,9.06,7a.63.63,0,0,1-.67.55.7.7,0,0,1-.51-.2.58.58,0,0,1-.15-.55,3,3,0,0,1,1.2-2.12A4.17,4.17,0,0,1,11.5,3.9a3.84,3.84,0,0,1,2.8,1,3.48,3.48,0,0,1,1,2.53,3.93,3.93,0,0,1-.46,1.82,2.74,2.74,0,0,1-1.12,1.28,3,3,0,0,1,1.42,1.33A3.87,3.87,0,0,1,15.66,13.87Z"/></g></g></svg>