<?xml version="1.0" encoding="UTF-8"?><svg xmlns="http://www.w3.org/2000/svg" xmlns:xlink="http://www.w3.org/1999/xlink" viewBox="0 0 82 81"><defs><style>.g{fill:#fff;}.h{fill:url(#d);filter:url(#e);}</style><radialGradient id="d" cx="34.92" cy="37.41" fx="34.92" fy="37.41" r="36.02" gradientTransform="translate(5.76 2.63) scale(.95)" gradientUnits="userSpaceOnUse"><stop offset="0" stop-color="#f19ec2"/><stop offset=".54" stop-color="#e85298"/><stop offset=".69" stop-color="#e74f96"/><stop offset=".78" stop-color="#e74792"/><stop offset=".86" stop-color="#e7388b"/><stop offset=".92" stop-color="#e62480"/><stop offset=".98" stop-color="#e50a73"/><stop offset="1" stop-color="#e5006e"/></radialGradient><filter id="e" filterUnits="userSpaceOnUse"><feOffset dx="1.91" dy="1.91"/><feGaussianBlur result="f" stdDeviation="1.91"/><feFlood flood-color="#000" flood-opacity=".5"/><feComposite in2="f" operator="in"/><feComposite in="SourceGraphic"/></filter></defs><g id="a"/><g id="b"><g id="c"><g><circle class="h" cx="39.11" cy="38.35" r="34.39"/><g><g><path class="g" d="M43.71,30.05l-9.78,9.78c-.16,.16-.16,.42,0,.58,.16,.16,.42,.16,.58,0l9.78-9.78c.16-.16,.16-.42,0-.58-.16-.16-.42-.16-.58,0Z"/><path class="g" d="M42.47,36.4l-4.97,4.97c-.08,.08-.06,.23,.04,.34,.1,.1,.26,.12,.34,.04l4.97-4.97c.08-.08,.06-.23-.04-.34-.11-.1-.26-.12-.34-.04Z"/></g><path class="g" d="M25.2,17.71c-1.06,0-1.91,.86-1.91,1.91V57.09c0,1.06,.86,1.91,1.91,1.91h27.82c1.06,0,1.91-.86,1.91-1.91V19.62c0-1.06-.86-1.91-1.91-1.91H25.2Zm14.12,.91c.24,0,.44,.2,.44,.44s-.2,.44-.44,.44-.44-.2-.44-.44,.2-.44,.44-.44Zm-1.52,1.67h3.04c.21,0,.38,.18,.38,.4s-.17,.4-.38,.4h-3.04c-.21,0-.38-.18-.38-.4s.17-.4,.38-.4Zm-1.35,.05c.19,0,.35,.15,.35,.35s-.15,.35-.35,.35-.34-.15-.34-.35,.15-.35,.34-.35Zm2.66,37.19c-1.09,0-1.96-.88-1.96-1.96,0-1.09,.88-1.96,1.96-1.96s1.96,.88,1.96,1.96c0,1.08-.88,1.96-1.96,1.96Zm12.66-4.92H26.45V22.38h25.32v30.23Z"/></g></g></g></g></svg>