<?xml version="1.0" encoding="UTF-8"?><svg xmlns="http://www.w3.org/2000/svg" xmlns:xlink="http://www.w3.org/1999/xlink" viewBox="0 0 82 81"><defs><style>.g{fill:#fff;}.h{fill:url(#d);filter:url(#e);}</style><radialGradient id="d" cx="38.71" cy="37.41" fx="38.71" fy="37.41" r="36.02" gradientTransform="translate(1.75 2.63) scale(.95)" gradientUnits="userSpaceOnUse"><stop offset="0" stop-color="#f19ec2"/><stop offset=".54" stop-color="#e85298"/><stop offset=".69" stop-color="#e74f96"/><stop offset=".78" stop-color="#e74792"/><stop offset=".86" stop-color="#e7388b"/><stop offset=".92" stop-color="#e62480"/><stop offset=".98" stop-color="#e50a73"/><stop offset="1" stop-color="#e5006e"/></radialGradient><filter id="e" filterUnits="userSpaceOnUse"><feOffset dx="1.91" dy="1.91"/><feGaussianBlur result="f" stdDeviation="1.91"/><feFlood flood-color="#000" flood-opacity=".5"/><feComposite in2="f" operator="in"/><feComposite in="SourceGraphic"/></filter></defs><g id="a"/><g id="b"><g id="c"><g><circle class="h" cx="38.71" cy="38.35" r="34.39"/><g><path class="g" d="M57.49,31.22c-1.24-.28-2.48,.49-2.77,1.73l-2.67,11.61-20.11-.19-4.85-19.38c-.16-.62-.56-1.15-1.13-1.46l-4.4-2.42c-1.12-.61-2.52-.21-3.14,.91-.61,1.12-.21,2.52,.91,3.14l3.52,1.93,4.94,19.74-2.66,2.1c-.32,.25-.5,.63-.5,1.04v3.3c0,.72,.58,1.31,1.3,1.32l3.72,.05c-.52,.48-.85,1.16-.85,1.93,0,1.46,1.18,2.64,2.64,2.64s2.64-1.18,2.64-2.64c0-.73-.3-1.4-.78-1.87l17.42,.24c-.36,.45-.58,1.01-.58,1.63,0,1.46,1.18,2.64,2.64,2.64s2.64-1.18,2.64-2.64c0-.59-.2-1.13-.53-1.57l2.27,.03h.02c.72,0,1.31-.58,1.32-1.3,.01-.73-.57-1.33-1.3-1.34l-29.93-.42v-1.36l2.2-1.73c.2,.06,.42,.1,.64,.1l23.75,.22h.02c1.08,0,2.02-.74,2.26-1.79l3.08-13.42c.28-1.24-.49-2.48-1.73-2.77Z"/><path class="g" d="M47.49,32.15h-2.15v-6.21c0-.76-.62-1.38-1.38-1.38h-4.14c-.76,0-1.38,.62-1.38,1.38v6.21h-2.15c-.95,0-1.26,.62-.7,1.39l1.6,2.14c.57,.76,1.5,2.01,2.06,2.77l1.6,2.14c.57,.76,1.5,.76,2.06,0l1.6-2.14c.57-.76,1.5-2.01,2.06-2.77l1.6-2.14c.57-.76,.25-1.39-.7-1.39Z"/></g></g></g></g></svg>