<?xml version="1.0" encoding="UTF-8"?>
<svg id="Layer_1" xmlns="http://www.w3.org/2000/svg" xmlns:xlink="http://www.w3.org/1999/xlink" version="1.1" viewBox="0 0 350.8 41.6">
  <!-- Generator: Adobe Illustrator 29.6.1, SVG Export Plug-In . SVG Version: 2.1.1 Build 9)  -->
  <defs>
    <style>
      .st0 {
        isolation: isolate;
      }

      .st1 {
        stroke: #f9b653;
        stroke-miterlimit: 10;
        stroke-width: .5px;
      }

      .st1, .st2 {
        fill: #f9b653;
      }
    </style>
  </defs>
  <g id="b">
    <g id="c">
      <g>
        <image class="st0" width="387" height="114" transform="translate(-192.7 -93.2)" xlink:href="about-us-title-1.png"/>
        <g>
          <g>
            <path class="st2" d="M223.8,17.3c.4,0,.7,0,.8.2.2.2.2.5.1.8l-.2.8h7.3c.4,0,.6,0,.7.2.1.1.1.4,0,.8,0,.3-.2.6-.4.8-.2.2-.5.4-.9.4h-3.2l-1.2,1.9h1.9c1.1,0,1.5.7,1.1,2l-2.6,9.7c-.2.7-.5,1.1-.9,1.3-.5.3-1.1.4-1.9.4-1.3,0-2.3-.2-2.9-.4-.3-.2-.4-.5-.3-.8,0-.3.2-.5.3-.6h-5.4c-.7,0-.9-.3-.8-1l.9-3.3c.2-.7.6-1,1.3-1h5.9c.7,0,.9.3.7,1l-.9,3.3c0,.2-.1.4-.3.6.6.2,1.2.3,1.8.3.2,0,.4-.2.5-.4l1.5-5.6h-3.2c-1.2,0-1.7-.5-1.5-1.4l.6-2h-1.7c-.3.7-.6,1.2-.9,1.7-.7.9-1.8,1.7-3.1,2.4-.4.2-.6.2-.9.2s-.5-.1-.7-.4c-.1-.1-.1-.4-.1-.6,0-.3.2-.5.5-.7,1.2-.5,2.1-1,2.5-1.5.3-.3.6-.7.8-1.2h-2.8c-.3,0-.5.1-.5.3l-2.7,10.1c-.1.4-.3.6-.5.8-.2.1-.5.2-.9.2s-.7,0-.8-.2c-.1-.2-.1-.4,0-.8l2.8-10.5c.4-1.3,1-2,2-2h2.4l-.2-1.9h-3.4c-.3,0-.5,0-.7-.3-.1-.1-.1-.4,0-.8,0-.3.2-.6.4-.8.2-.1.5-.2.8-.2h7.2l.2-.8c0-.3.3-.6.6-.8.2-.2.5-.2,1-.2h0ZM221.1,33c.2,0,.3-.1.4-.3l.3-1.1c0-.2,0-.3-.2-.3h-3.3c-.2,0-.3.1-.4.3l-.3,1.1c0,.2,0,.3.2.3h3.3,0ZM220.2,23.2h4.3l1.2-1.9h-5.7l.2,1.9h0ZM224.6,25.2l-.3,1.1c0,.3,0,.4.4.4h2.5l.3-1.3c0-.2,0-.3-.2-.3h-2.7,0Z"/>
            <path class="st2" d="M236.8,22.4h.9l1-3.8c.1-.4.3-.7.5-.8.2-.2.5-.3.9-.3s.6,0,.8.3c.1.2.1.4,0,.8l-1,3.8h1c.4,0,.6,0,.7.2.1.1.2.4,0,.9-.1.4-.2.6-.4.8-.3.2-.6.4-1,.4h-1l-1.7,6.4c.5-.2,1-.4,1.5-.5.3,0,.5-.1.7-.1s0,0,.1,0c0-.2.2-.4.2-.6.3-.9.6-1.8.8-2.7l1.3-4.8c.3-1.1,1-1.7,2.1-1.7h4.9c.2-.8.4-1.7.6-2.5.1-.4.2-.6.4-.8.2-.1.5-.2.8-.2s.6,0,.7.2c.2.1.2.4.1.7-.2.9-.5,1.7-.7,2.6h3.3c.7,0,.9.3.7,1-.2.7-.6,1.1-1.3,1.1h-3.3c-.4,1.8-.7,3.4-.9,4.6,0,.4-.1.8-.2,1.2,1-1.2,1.9-2.5,2.9-4,.2-.2.5-.3.7-.3s.4,0,.6.2c.2.2.3.4.3.8-.1.4-.5,1-1,1.9-1.3,1.9-2.5,3.4-3.6,4.5,0,.5,0,.9,0,1.3,0,.3.1.5.2.6.1,0,.3-.1.4-.3.2-.3.4-.8.7-1.3.2-.4.5-.6.9-.6s.4,0,.6.2c.3.2.4.4.3.8-.7,1.4-1.4,2.5-2.2,3.4-.6.6-1.2.8-1.7.8s-1-.5-1.3-1.5c0-.4-.1-.8-.1-1.3-1.2,1-2.3,1.9-3.3,2.5-.6.3-1,.5-1.2.5s-.5,0-.6-.2c-.1-.2-.2-.5-.1-.8,0-.3.3-.5.6-.8,1.8-1.3,3.3-2.6,4.7-3.9,0-1,.2-2.3.4-3.6.3-1.5.6-3,.9-4.6h-4.1c-.3,0-.4.1-.5.4l-.5,1.8h1.8c.7,0,1.1.1,1.3.4.3.3.3.8,0,1.6-.4,1.4-.8,2.6-1.2,3.7-.3.9-.8,1.6-1.4,2.1-.5.4-1.1.6-1.8.6-.5,0-1,0-1.4-.2-.1,0-.2,0-.2,0-.4.8-.9,1.6-1.4,2.3-.2.3-.3.5-.5.7-.3.3-.6.4-1.1.5-.4,0-.7,0-.8-.3-.2-.2-.2-.5-.1-.8,0-.1.2-.4.6-.9.5-.7,1-1.3,1.4-2-1.4.7-3,1.3-4.6,1.9-.2,0-.5.2-.9.2s-.5-.1-.6-.4c0-.2,0-.5,0-.8,0-.3.3-.6.7-.8.6-.2,1.2-.5,1.8-.7l1.9-7.3h-.9c-.3,0-.6,0-.7-.2-.2-.2-.2-.5,0-.9.1-.4.3-.7.6-.9.2-.1.5-.2.8-.2h0ZM241.6,31.2c0,0,.2,0,.3,0,.4.1.7.2.9.2.3,0,.6-.3.8-1,.2-.5.5-1.5,1-3.1,0-.3,0-.4-.3-.4h-1.3c-.4,1.6-.9,2.9-1.4,4.2h0ZM254.1,17.3c.3,0,.5.1.7.3.1.2.3.5.5,1.1,0,.4.1.6,0,.9,0,.2-.2.4-.4.5-.2.2-.5.3-.9.3s-.4,0-.4-.1c0,0-.1-.2-.2-.3-.1-.3-.3-.9-.6-1.6,0,0,0-.1,0-.2,0-.1,0-.2.2-.4.1-.2.4-.3.6-.4.2,0,.4-.1.5-.1Z"/>
            <path class="st2" d="M258.5,32c.3,0,.5,0,.7.2.2.1.2.3.2.6,0,.2-.2.4-.4.7-.7.9-1.4,1.8-2.1,2.5-.3.3-.5.4-.8.4-.3,0-.5,0-.7-.2-.2-.2-.3-.4-.2-.7,0-.1.1-.3.3-.5,1-1.1,1.8-2,2.3-2.7.1-.1.2-.2.3-.3.1,0,.3,0,.4,0h0ZM261.7,18.2h3.6c.9,0,1.3.5,1.1,1.4l-2.8,10.5c-.2.9-.9,1.4-1.8,1.4h-3.6c-.9,0-1.3-.5-1-1.4l2.8-10.5c.3-1,.9-1.4,1.8-1.4ZM261.3,29.7c.3,0,.5-.1.6-.4l.4-1.6h-2.6l-.4,1.6c0,.3,0,.4.3.4h1.7ZM261,32.1c.3,0,.5.2.7.5.1.8.3,1.7.6,2.5,0,0,.1.2,0,.3,0,.2-.2.4-.5.6-.2.1-.5.2-.8.2s-.4,0-.5-.2c-.2-.7-.4-1.7-.6-2.7,0-.1,0-.3,0-.4,0-.2.2-.4.3-.5.3-.2.5-.3.8-.3h0ZM260.2,26h2.6l.5-1.9h-2.6l-.5,1.9ZM261.2,22.3h2.6l.5-1.7c0-.3,0-.4-.3-.4h-1.7c-.3,0-.4.1-.5.4l-.5,1.7ZM268.1,18.6h1.6v-.4c.1-.2.3-.4.5-.6.1-.1.4-.2.7-.2s.6,0,.7.2c.1.2.2.4.1.6v.4c0,0,2.2,0,2.2,0v-.4c.1-.2.3-.4.5-.6.1-.1.4-.2.7-.2s.6,0,.7.2c.1.2.2.4.1.6v.4c0,0,1.4,0,1.4,0,.3,0,.5,0,.6.2.1.1.1.3,0,.6,0,.3-.2.5-.3.6-.2.2-.4.2-.8.2h-1.5l-.2.9h1.3c.3,0,.5,0,.6.2.1.1.1.3,0,.6,0,.3-.2.5-.3.6-.2.2-.5.2-.8.2h-1.3l-.2.8h1.8c.3,0,.5,0,.6.2,0,.1,0,.3,0,.6,0,.3-.2.5-.3.6-.2.2-.4.3-.8.3h-3.9l-.2.8h2.6c.9,0,1.2.4,1,1.1l-1.1,4h.4c.3,0,.5,0,.6.2.1.1.1.3,0,.6,0,.3-.2.5-.3.6-.2.2-.5.3-.8.3h-.4l-.6,2.3c-.1.5-.3.8-.6,1-.3.2-.7.3-1.2.3h-.8c-.3,0-.5,0-.7,0-.3,0-.5-.2-.6-.3-.1-.2-.1-.4,0-.7,0-.2.1-.3.2-.5.1-.2.3-.3.6-.4.2,0,.5,0,.7,0h.6c.1,0,.2,0,.2-.2l.4-1.3h-6l-.8,2.8c-.1.5-.5.8-1.2.8s-.9-.2-.7-.8l.8-2.8h-.5c-.3,0-.5,0-.6-.2,0-.1,0-.4,0-.7,0-.3.2-.5.4-.7.2-.1.4-.2.7-.2h.5l1.1-4c.2-.7.7-1.1,1.5-1.1h2.7l.2-.8h-4c-.3,0-.4,0-.6-.2-.1-.1-.1-.4,0-.7,0-.3.2-.5.4-.6.2-.1.4-.2.7-.2h1.9l.2-.8h-1.2c-.3,0-.5,0-.6-.2-.1-.1-.1-.3,0-.6,0-.3.2-.5.4-.6.2-.1.4-.2.7-.2h1.2l.2-.9h-1.6c-.3,0-.5,0-.6-.2,0-.1-.1-.3,0-.6,0-.3.2-.5.4-.6.2-.1.4-.2.7-.2h0ZM266.4,31.3h2l.3-1h-2l-.3,1ZM267.1,28.8h2l.2-.9h-1.9c0,0-.1,0-.1.1l-.2.8h0ZM270.3,23.6h2.3l.2-.8h-2.3l-.2.8ZM270.7,30.3l-.3,1h2l.3-1h-2ZM273.3,21.2l.2-.9h-2.3l-.2.9h2.3ZM271.3,27.9l-.2.9h2l.2-.8s0,0-.1,0h-1.8Z"/>
            <path class="st2" d="M284.1,19c.3,0,.5,0,.7.2.2.1.2.4.1.8-.1.4-.3.9-.6,1.5h1.1l.8-3c0-.3.2-.5.5-.7.2-.2.5-.3.8-.3s.6.1.7.3c.2.2.2.4.1.7l-.8,3h1.1c.4,0,.6,0,.8.2,0,.1.1.3,0,.5.4-.5.8-1,1.1-1.4.7-1,1.2-1.8,1.5-2.5.2-.5.6-.8,1.1-.8s.6,0,.7.1c.3.2.4.5.3,1-.1.3-.3.8-.7,1.4,0,.1-.1.2-.2.3h5.7c1.4,0,1.9.8,1.5,2.4-1.6,5.8-2.6,9.4-3.3,10.9-.4,1-.9,1.8-1.5,2.2-.7.5-1.6.8-2.8.8-1.3,0-2.2-.2-2.8-.5-.4-.2-.5-.5-.3-1.2.1-.3.3-.5.6-.7.2-.2.4-.2.7-.2s.2,0,.3,0c.7.2,1.5.3,2.2.3.9,0,1.5-.5,1.8-1.4.4-1.1,1.1-3.3,2-6.5-1.1,1.5-2.2,2.8-3.2,3.8-2,2-3.9,3.6-5.7,4.7-.6.4-1.1.5-1.4.5s-.5,0-.6-.2c-.1-.2-.1-.5,0-.8,0-.3.3-.5.6-.8,2.4-1.7,4.4-3.4,6.2-5.1,1.8-1.7,3.4-3.8,4.9-6.2,0,0-.2,0-.3,0h-1.7c-.7,1.5-1.7,3-2.9,4.3-1.3,1.5-2.6,2.6-3.7,3.2-.4.3-.9.5-1.4.5s-.4,0-.6-.3c-.1-.2-.1-.4-.1-.6,0-.3.2-.5.4-.8,1.6-1.1,2.9-2.2,3.7-3.1,1-1,1.9-2.1,2.5-3.3h-2.1c-.8,1-1.4,1.8-2,2.2-.3.2-.6.4-1,.4s-.4,0-.6-.2c-.2-.1-.3-.4-.2-.7,0,0,0-.2.1-.3h-1.2l-.9,3.2c.2,0,.3-.2.5-.2.3-.1.4-.2.5-.2.4,0,.6.1.9.4.1.2.1.5,0,.8,0,.2-.3.4-.6.7-.6.3-1.2.6-2,1l-1.7,6.2c0,.2-.2.5-.4.6-.2.2-.6.4-1,.4s-.5-.1-.7-.3c-.1-.2-.1-.4,0-.6l1.4-5.2c-.4.1-.7.3-1.1.5-.8.4-1.4.5-1.7.5s-.5-.1-.6-.4c0-.3,0-.5,0-.8,0-.2.3-.5.6-.8.4-.2,1.6-.7,3.6-1.6l1.1-4.2h-1.6c-.4.9-.8,1.7-1.1,2.4-.2.3-.6.5-1,.5-.2,0-.5-.1-.6-.3,0-.2,0-.4,0-.6,0-.1.1-.3.2-.6.8-1.7,1.6-3.5,2.4-5.3.2-.4.6-.6,1-.6h0Z"/>
            <path class="st2" d="M307,18.7h16.4c.4,0,.7,0,.8.2.1.1.1.4,0,.9,0,.3-.2.6-.4.7-.2.2-.6.3-1,.3h-7.1l-2.1,7.7h7.4c.4,0,.6,0,.8.2.1.1.1.4,0,.9-.1.4-.2.6-.4.8-.3.2-.6.4-1,.4h-7.4l-1.3,4.7c-.1.4-.3.7-.5.9-.2.2-.5.3-1,.3s-.6,0-.8-.3c-.1-.2-.2-.5,0-.9l1.3-4.8h-7.2c-.4,0-.6,0-.7-.2-.1-.2-.2-.5,0-.9.1-.4.3-.7.5-.9.2-.1.5-.2.9-.2h7.2l2.1-7.7h-7c-.4,0-.6,0-.8-.2-.1-.1-.1-.4,0-.8.1-.4.3-.7.5-.9.2-.1.5-.2.9-.2h0ZM307.5,22.1c.3,0,.5.1.7.4.5,1.1.9,2.1,1.2,3.1,0,.2.1.5,0,.7-.1.4-.3.7-.6.8-.3.2-.6.3-1,.4-.4,0-.7-.2-.7-.7-.3-1.1-.6-2.1-1-3.2-.1-.2-.1-.4-.1-.6,0-.3.3-.5.6-.8.3-.2.6-.3.9-.3h0ZM320.6,21.7c.4,0,.6,0,.8.2.2.2.2.5.2.8,0,.3-.3.6-.6,1.1-1.1,1.6-1.9,2.6-2.5,3.2-.4.4-.7.6-1.1.6s-.5,0-.7-.3c-.2-.1-.3-.4-.2-.7,0-.2.2-.4.4-.7,1-1.1,1.9-2.3,2.8-3.6.1-.2.3-.3.4-.4s.3-.1.5-.1Z"/>
            <path class="st2" d="M329.5,27.6h12.5c1,0,1.4.5,1.1,1.5l-1.5,5.6c-.3,1-.9,1.5-1.9,1.5h-12.5c-1,0-1.4-.5-1.1-1.5l1.5-5.6c.3-1,.9-1.5,1.9-1.5ZM342.3,23.1c-.4-.9-.9-1.9-1.5-2.9-.1-.2-.2-.5-.1-.7,0-.2.3-.5.6-.7.2-.1.5-.2.9-.2s.5.1.9.3c1.1,1.3,2.1,3.1,2.8,5.3.2.5.2,1,.1,1.5-.1.4-.3.7-.6.9-.3.2-.6.2-1,.2-.4,0-.7-.2-.8-.5-.1-.5-.3-.9-.5-1.4-1.8.3-3.6.5-5.6.7-3.1.3-6.3.5-9.6.5s-.7,0-.9-.3c-.2-.2-.2-.5,0-1,0-.3.2-.6.4-.8.3-.3.7-.4,1.2-.4h1.2c1.1-1.6,2.5-3.6,4.1-5.9.3-.4.8-.6,1.4-.7.4,0,.6,0,.8.2.2.1.3.4.2.7-.3.7-1.6,2.5-3.8,5.6,3.6,0,6.8-.3,9.7-.6h0ZM338.8,33.9c.4,0,.6-.2.7-.5l.9-3.2c0-.3,0-.5-.4-.5h-9.5c-.3,0-.5.2-.6.5l-.9,3.2c0,.3,0,.5.4.5h9.5Z"/>
          </g>
          <g>
            <path class="st2" d="M13.3,24h-3.2l-3.2,11.9c-.2.5-.5.7-1.2.8-.6,0-.8-.3-.7-.8l4.6-17.2c.2-.7.6-1,1.2-1h5.7c.7,0,1,.3.8.9l-1.1,4.2c-.2.8-.7,1.2-1.4,1.2h-.7c.1.1.2.3.1.5,0,.1-.1.3-.3.5-.3.3-.6.6-1.1,1,.2.2.3.4.5.5.3-.3.6-.7.9-1,.3-.3.5-.4.8-.4s.4,0,.5.1c.2.1.3.3.2.5,0,.1-.1.2-.2.3-.8.8-1.7,1.7-3,2.7l1.5-.2c0-.1,0-.2,0-.3,0-.1,0-.3,0-.3,0-.2.2-.3.3-.4.2-.1.3-.2.5-.2s.3,0,.4.3c.1.4.2.8.3,1.2h.5c.5-.4.9-.8,1.4-1.1-.4-.5-.8-1-1.2-1.5-.1-.2-.2-.4-.1-.7,0-.2.2-.4.4-.5.2-.1.4-.2.6-.2.3,0,.5,0,.7.2,0,0,0,0,0,0,.3-.3.6-.5.8-.8.1-.1.2-.2.2-.2h-.1c-.7,0-.9-.4-.7-1.1l1.1-4c.2-.8.6-1.3,1.3-1.3h5.7c.8,0,1.1.4.9,1.3l-4.1,15.5c-.2.8-.4,1.3-.7,1.5-.4.4-.8.6-1.4.6-1,0-1.7-.1-2-.3-.3-.1-.4-.4-.3-.8.1-.4.3-.7.5-1,.2-.2.5-.3.9-.3,0,0,.2,0,.3,0,.2,0,.5,0,.6,0s.3-.1.4-.4l2.7-10h-4c.1.1.2.3.1.5,0,.1-.1.2-.3.4-.3.3-.7.6-1.2.9.1.2.3.4.4.6.4-.4.7-.7,1.1-1.1.2-.3.5-.4.8-.4s.3,0,.5.1c.2.1.3.3.2.5,0,.1-.1.2-.2.3-.8.8-1.8,1.7-3.1,2.7h1.7c0-.3,0-.4,0-.5,0-.2,0-.3,0-.4,0-.2.2-.3.3-.5.2,0,.3-.1.5-.1s.3,0,.4.2c.1.7.2,1.4.2,2,0,.1,0,.3,0,.4,0,.2-.2.4-.3.5-.1.1-.3.2-.5.2-.2,0-.4-.1-.5-.3,0-.2,0-.4,0-.5l-4.4.5c0,0-.1.1-.2.1-.1.1-.3.2-.5.2-.3,0-.4-.1-.5-.3,0-.1,0-.3,0-.4l-4.6.6c-.2,0-.4,0-.4-.2,0-.1,0-.3,0-.5,0-.2.1-.3.3-.5.1-.1.3-.2.5-.2h.5c.5-.4,1-.8,1.4-1.2-.4-.4-.8-.8-1.3-1.2-.2-.2-.2-.4-.2-.7,0-.2.2-.4.4-.5.2-.1.4-.2.5-.2s.4,0,.6,0c.3-.3.6-.6.9-1,0-.1.2-.2.2-.2h0ZM10.7,30.6c.5,0,.7.2.6.8l-.2.6c0,.2,0,.3.2.3h1.3c.1-.3.2-.7.4-1.1,0-.2.2-.5.4-.6.2-.1.4-.2.7-.2.3,0,.4,0,.5.2.1.1.1.3,0,.6-.1.4-.2.8-.4,1.2-.2.5-.4,1-.7,1.4-.5.8-1.1,1.5-1.9,2-.4.4-.9.5-1.4.6-.4,0-.6-.1-.7-.3,0-.2-.1-.3,0-.5,0-.2.2-.4.3-.6.8-.3,1.4-.7,1.8-1.1h-1.5c-.7,0-1-.4-.8-1.2l.3-1.2c.1-.5.5-.8,1-.8h0ZM10.5,22.5h3.7l.3-1h-3.7l-.3,1ZM11.1,20.2h3.7l.3-1.1h-3.7l-.3,1.1ZM16.7,30.5c.3,0,.5,0,.6.2.1.1.1.4,0,.7l-.3,1h1c0,0,.1,0,.2,0l.3-1c.1-.4.4-.6,1-.6s.8.2.6.6l-.4,1.7c-.2.6-.6.9-1.2.9h-1.8l-.4,1.6c0,.3-.2.5-.4.6-.2.1-.4.2-.7.2s-.5,0-.6-.2c0-.1,0-.3,0-.6l1.1-4c0-.3.2-.5.4-.6.1-.1.4-.2.8-.2ZM24.2,22.5l.3-1h-4l-.2.8c0,.1,0,.2.1.2h3.9,0ZM20.8,20.2h4l.2-.9c0-.1,0-.2-.2-.2h-3.6c-.1,0-.2,0-.2.2l-.2.9Z"/>
            <path class="st2" d="M36,17.3c.4,0,.7,0,.8.2.2.2.2.5.1.8l-.4,1.6h2.7c.3,0,.5,0,.7.2.1.1.2.4,0,.9,0,.4-.2.6-.4.8-.2.2-.5.3-.9.3h-4.2l-.7,2.5h3.1c.6,0,1,.1,1.2.4.2.2.2.7,0,1.4-.6,2.4-1.2,4.2-1.6,5.5-.6,1.9-1.3,3.1-2,3.7-.5.4-1.1.7-1.8.8-1.1,0-1.9-.2-2.2-.5-.2-.2-.3-.5-.1-1,0-.2.2-.4.5-.7.2-.2.4-.2.6-.2s.2,0,.4,0c.4.2.7.2,1.1.2.5,0,1-.5,1.3-1.4.4-1.2.9-3.2,1.7-6,0-.2,0-.2,0-.2h-2.7c-.3.8-.5,1.6-.8,2.4-1.3,3.1-2.7,5.4-4.1,7-.3.2-.6.4-1,.4-.3,0-.5,0-.6-.3-.1-.2-.1-.4,0-.7,0-.2.3-.5.6-.9,1.9-2.6,3.3-5.3,4.1-8l1.2-4.4h-1.4c-.3,0-.5,0-.6-.2-.1-.1-.1-.4,0-.8.1-.4.3-.7.5-.9.2-.1.4-.2.8-.2h2.6l.4-1.6c0-.3.3-.6.5-.8.2-.2.5-.2.9-.2h0ZM39.2,30.1c.3,0,.7.1,1,.4,1.6,1.3,2.6,2.3,3,3.1.2.2.3.5.3.8,0,.3-.2.6-.5.8-.3.3-.6.4-.9.5-.3,0-.6-.1-.8-.4-1-1.1-2-2.2-3.1-3.2-.3-.3-.4-.6-.3-.9,0-.4.3-.6.5-.8.2-.2.5-.2.8-.2h0ZM45.1,17.5c.5,0,.8.2,1.1.7.7,1.4,1.5,2.9,2.3,4.4.2.2.2.5,0,.9-.1.4-.3.6-.6.8s-.6.3-.9.3-.6-.2-.8-.5c-.4-.7-.9-1.9-1.4-3.4-.1-.5-.3-.8-.4-.8s-.4.2-.7.5c-1.7,1.8-2.9,3-3.5,3.5-.5.5-1,.7-1.3.7s-.6-.1-.8-.4c0-.3-.1-.5,0-.7,0-.3.2-.6.5-.8,1.7-1.5,3.3-3,4.9-4.6.5-.4,1-.6,1.5-.6h0ZM41.8,25c.2,0,.5,0,.8.3,1.3,1,2.2,1.7,2.5,2.2.3.2.3.5.3.8,0,.3-.2.6-.5.8-.3.3-.6.4-.9.5-.3,0-.5,0-.6-.3-.8-.9-1.7-1.6-2.6-2.4-.3-.3-.4-.5-.4-.8,0-.4.3-.6.5-.8.2-.2.5-.2.8-.2h0Z"/>
          </g>
          <g>
            <path class="st1" d="M73.4,12.8c.1-.4.3-.8.6-1,.3-.2.6-.4,1.1-.4s.7.1.8.4c.1.3.1.6,0,1l-7.3,22.3c-.1.4-.3.7-.6,1-.3.3-.7.4-1.1.4-.4,0-.7-.1-.8-.4-.1-.3-.1-.6,0-1l3.4-10.3h-11.8l-3.4,10.3c-.1.4-.3.7-.6,1-.3.3-.7.4-1.1.4-.4,0-.7-.1-.8-.4-.1-.3-.1-.6,0-1l7.3-22.3c.1-.4.3-.7.6-1,.3-.3.7-.4,1.1-.4s.7.1.8.4c.1.3.1.6,0,1l-3.2,9.6h11.8l3.2-9.6Z"/>
            <path class="st1" d="M89.7,11c1.6,0,2.9.3,3.9,1,1,.7,1.7,1.6,2.1,2.8.4,1.2.6,2.6.5,4.1-.1,1.6-.4,3.2-1,5-.6,1.8-1.3,3.4-2.2,5s-2,2.9-3.1,4.1c-1.2,1.2-2.5,2.1-3.9,2.8-1.4.7-3,1-4.6,1s-2.9-.3-3.9-1-1.7-1.6-2.1-2.8c-.4-1.2-.6-2.6-.5-4.1s.4-3.2,1-5,1.3-3.4,2.2-5,1.9-2.9,3.1-4.1c1.2-1.2,2.5-2.1,4-2.8,1.4-.7,3-1,4.6-1ZM82.1,34.3c1.2,0,2.3-.3,3.4-.8s2-1.2,2.9-2.1,1.7-2,2.4-3.2c.7-1.3,1.3-2.7,1.8-4.2s.7-2.7.9-4c.1-1.3,0-2.4-.2-3.4-.3-1-.8-1.8-1.5-2.3-.7-.6-1.7-.9-2.9-.9s-2.4.3-3.5.9-2.1,1.4-3,2.3c-.9,1-1.7,2.1-2.4,3.3-.7,1.2-1.3,2.6-1.7,3.9s-.7,2.6-.8,3.9c-.1,1.2,0,2.3.2,3.3s.7,1.8,1.5,2.3c.7.6,1.7.9,3,.9Z"/>
            <path class="st1" d="M97.2,35.1c-.1.4-.4.7-.7,1s-.7.4-1.1.4-.7-.1-.8-.4c-.1-.3-.1-.6,0-1l7.3-22.3c.1-.4.3-.7.6-1,.2-.3.6-.4,1-.4s.6.1.7.3.2.5.3.7l5.4,18.7,6-18.4c.1-.4.3-.7.6-1,.3-.3.6-.4,1.1-.4s.8.1.9.4,0,.6,0,1l-7.3,22.4c-.1.4-.3.7-.6,1-.2.3-.6.4-1,.4s-.5-.1-.7-.3c-.2-.2-.3-.5-.4-.8l-5.5-18.4-5.9,18.1Z"/>
            <path class="st1" d="M118.5,33.7h8.3c.3,0,.7,0,1,0,.3,0,.6,0,.8.1.2,0,.4.2.4.4s0,.4,0,.7c-.2.5-.4.8-.7,1-.3.2-.7.2-1.2.2h-10.4c-.5,0-.8-.1-1-.3-.2-.2-.2-.6,0-1.2l7-21.3c.2-.6.4-1,.7-1.2.3-.2.7-.3,1.3-.3h10.2c.5,0,.8,0,.9.3.2.2.2.5,0,1-.1.5-.4.8-.7.9-.3.2-.7.3-1.1.3h-9.1l-2.7,8.1h8.8c.5,0,.8,0,1,.3.2.2.1.5,0,1s-.4.8-.6.9-.6.2-1.1.2h-8.8l-2.9,8.9Z"/>
            <path class="st1" d="M139.5,35.1c-.1.5-.4.8-.6,1.1s-.6.4-1.1.4-.8-.1-.9-.4c0-.3,0-.6,0-1l3.2-9.8-2.1-11.6c0-.4,0-.8.1-1.2.2-.4.4-.6.7-.8.3-.2.7-.3,1-.2.3,0,.5.3.6.7l1.8,10.5,8.5-10.2c.2-.3.5-.5.7-.7.2-.2.4-.3.6-.3.2,0,.3,0,.5,0,.1,0,.2,0,.3.2.2.2.3.5.2.9s-.3.7-.7,1.2l-9.7,11.6-3.2,9.8Z"/>
            <path class="st1" d="M167,23.1c1.4.3,2.4.9,3.1,1.9.6,1,.6,2.4,0,4.3s-1.8,3.9-3.4,5.1c-1.5,1.2-3.4,1.8-5.4,1.8h-6.6c-.4,0-.7-.1-.9-.4s-.1-.6,0-1l7.1-21.6c.1-.4.4-.7.7-1,.3-.3.7-.4,1.1-.4h5.1c1.2,0,2.1.1,2.8.4.7.3,1.3.7,1.6,1.3.4.5.5,1.2.6,1.9,0,.7-.1,1.6-.4,2.5-.4,1.4-1.2,2.5-2.1,3.4-1,.9-2.1,1.5-3.3,1.8ZM160.6,21.9h3.9c1.3,0,2.5-.3,3.4-1,.9-.7,1.6-1.6,2-2.8s.3-2.1,0-2.8c-.4-.7-1.4-1.1-2.8-1.1h-3.9l-2.5,7.7ZM156.7,33.7h4.3c1.7,0,3.1-.4,4.2-1.1,1.1-.7,1.9-1.9,2.4-3.4s.5-2.9-.3-3.6-2.1-1.1-3.9-1.1h-3.6l-3,9.2Z"/>
            <path class="st1" d="M176.1,29.7l-2.7,4.1c-.2.3-.4.7-.6,1-.2.3-.4.6-.7.9s-.5.5-.7.6c-.2.2-.5.2-.7.2-.4,0-.7-.1-.8-.4-.1-.3,0-.9.5-1.7l13.9-21.8c.2-.4.5-.7.9-.9.3-.2.7-.3,1.2-.3s.8.1,1,.3c.2.2.3.5.3.9l-.4,21.9c0,.6-.2,1.1-.4,1.4-.3.4-.7.6-1.3.6-.4,0-.6,0-.8-.3s-.2-.6-.2-1v-5.5s-8.5,0-8.5,0ZM184.8,27.3l.3-12.2-7.7,12.2h7.3Z"/>
            <path class="st1" d="M197,35.1c-.1.5-.4.8-.6,1.1-.3.2-.6.4-1.1.4s-.8-.1-.9-.4c0-.3,0-.6,0-1l3.2-9.8-2.1-11.6c0-.4,0-.8.1-1.2.2-.4.4-.6.7-.8.3-.2.7-.3,1-.2.3,0,.5.3.6.7l1.8,10.5,8.5-10.2c.2-.3.5-.5.7-.7.2-.2.4-.3.6-.3.2,0,.3,0,.5,0,.1,0,.2,0,.3.2.2.2.3.5.2.9,0,.3-.3.7-.7,1.2l-9.7,11.6-3.2,9.8Z"/>
          </g>
        </g>
      </g>
    </g>
  </g>
</svg>