<?xml version="1.0" encoding="UTF-8"?><svg xmlns="http://www.w3.org/2000/svg" xmlns:xlink="http://www.w3.org/1999/xlink" viewBox="0 0 81 81"><defs><style>.g{fill:#fff;}.h{fill:url(#d);filter:url(#e);}</style><radialGradient id="d" cx="42.51" cy="37.41" fx="42.51" fy="37.41" r="36.02" gradientTransform="translate(-2.27 2.63) scale(.95)" gradientUnits="userSpaceOnUse"><stop offset="0" stop-color="#f19ec2"/><stop offset=".54" stop-color="#e85298"/><stop offset=".69" stop-color="#e74f96"/><stop offset=".78" stop-color="#e74792"/><stop offset=".86" stop-color="#e7388b"/><stop offset=".92" stop-color="#e62480"/><stop offset=".98" stop-color="#e50a73"/><stop offset="1" stop-color="#e5006e"/></radialGradient><filter id="e" filterUnits="userSpaceOnUse"><feOffset dx="1.91" dy="1.91"/><feGaussianBlur result="f" stdDeviation="1.91"/><feFlood flood-color="#000" flood-opacity=".5"/><feComposite in2="f" operator="in"/><feComposite in="SourceGraphic"/></filter></defs><g id="a"/><g id="b"><g id="c"><g><circle class="h" cx="38.32" cy="38.35" r="34.39"/><g><g><path class="g" d="M24.72,22.59c-4.33,0-7.86,3.53-7.86,7.86s3.53,7.86,7.86,7.86c2.82,0,5.29-1.5,6.68-3.74-1.09-1.77-2.49-4.96-.84-9.37-1.44-1.6-3.52-2.62-5.84-2.62Z"/><path class="g" d="M30.1,37.22c-.1,.08-.21,.16-.35,.26-.77,2.04-2.74,3.5-5.05,3.5s-4.31-1.48-5.07-3.55c-.24-.17-.43-.32-.54-.41-.04-.04-.08-.07-.12-.1l-.07,.06c-4.89,4.23-4.83,11.64-4.82,11.95v.26h12.46c.19-2.87,1.04-7.98,4.47-11.75-.25-.23-.46-.39-.59-.48-.07,.06-.14,.12-.21,.18-.03,.03-.07,.06-.1,.09Z"/></g><path class="g" d="M46.25,36.67c-.08,.07-.16,.14-.24,.21-.04,.03-.08,.07-.12,.1-.77,.61-2.54,1.76-4.87,2.13-.23,.03-.46,.07-.7,.08-.2,.01-.4,.02-.6,.02-.73,0-1.45-.09-2.13-.24-2.17-.55-3.83-1.83-4.3-2.23-.04-.04-.09-.08-.14-.12l-.08,.07c-5.6,4.85-5.53,13.32-5.52,13.68v.3h23.98v-.32c-.41-9.8-4.33-13.04-5.29-13.69Zm-3.33,6.64l-3.37-1.72-3.37,1.72v-4.17l3.37,1.8,3.37-1.8v4.17Z"/><path class="g" d="M30.77,29.13c0,4.96,4.04,9,9.01,9h0c2.4,0,4.66-.94,6.36-2.64,1.7-1.7,2.64-3.97,2.64-6.37,0-4.96-4.04-9-9.01-9-4.97,0-9.01,4.04-9.01,9.01Z"/><path class="g" d="M52.44,48.73h10.11v-.23c0-.28-.09-6.57-4.49-10.37l-.06-.05c-.14,.13-.29,.26-.44,.38l-3.13,6.09-.56-3.57,.89-1.44c-.57,.14-1.16,.21-1.77,.21-.16,0-.32,0-.47-.02-.29-.02-.57-.05-.84-.1-.11-.02-.22-.04-.32-.06l.88,1.41-.58,3.4c.47,1.66,.69,3.27,.79,4.37Z"/><path class="g" d="M53.31,38.77c3.89,0,7.06-3.17,7.07-7.06,0-3.9-3.17-7.06-7.06-7.07-1.59,0-3.05,.53-4.23,1.41,.37,1.01,.57,2.1,.57,3.24,0,2.36-.87,4.53-2.31,6.19,1.25,1.98,3.46,3.29,5.97,3.29Z"/></g></g></g></g></svg>