<?xml version="1.0" encoding="UTF-8"?><svg xmlns="http://www.w3.org/2000/svg" viewBox="0 0 20.53 23.53"><defs><style>.d{fill:none;stroke:#000;stroke-linecap:round;stroke-linejoin:round;stroke-width:1.03px;}</style></defs><g id="a"/><g id="b"><g id="c"><g><path d="M10.26,23.53C4.6,23.53,0,18.92,0,13.26S4.6,3,10.26,3s10.26,4.6,10.26,10.26-4.6,10.26-10.26,10.26Zm0-18.86C5.52,4.66,1.66,8.52,1.66,13.26s3.86,8.6,8.6,8.6,8.6-3.86,8.6-8.6S15,4.66,10.26,4.66Z"/><g><rect x="9.25" y="1.28" width="2.02" height="2.52"/><rect x="8.59" width="3.35" height="1.89" rx=".4" ry=".4"/></g><g><rect x="1.59" y="5.2" width="1.62" height="2.01" transform="translate(-3.69 3.52) rotate(-45)"/><rect x=".16" y="4.55" width="2.68" height="1.51" rx=".32" ry=".32" transform="translate(-3.31 2.61) rotate(-45)"/></g><g><rect x="17.28" y="5.2" width="1.62" height="2.01" transform="translate(9.69 -10.97) rotate(45)"/><rect x="17.65" y="4.55" width="2.68" height="1.51" rx=".32" ry=".32" transform="translate(9.31 -11.87) rotate(45)"/></g><line class="d" x1="10.26" y1="6.78" x2="10.26" y2="8.45"/><line class="d" x1="10.26" y1="18.07" x2="10.26" y2="19.74"/><line class="d" x1="16.74" y1="13.26" x2="15.07" y2="13.26"/><line class="d" x1="5.45" y1="13.26" x2="3.79" y2="13.26"/></g></g></g></svg>