<?xml version="1.0" encoding="UTF-8"?><svg xmlns="http://www.w3.org/2000/svg" viewBox="0 0 13 12.13"><defs><style>.d{fill:#fff;}</style></defs><g id="a"/><g id="b"><g id="c"><g><path class="d" d="M12.43,3.28c-.39-.09-.78,.16-.87,.55l-.84,3.67-6.36-.06L2.83,1.32c-.05-.2-.18-.36-.36-.46L1.08,.09C.73-.1,.28,.03,.09,.38-.1,.73,.03,1.18,.38,1.37l1.11,.61,1.56,6.24-.84,.66c-.1,.08-.16,.2-.16,.33v1.04c0,.23,.18,.41,.41,.42l1.18,.02c-.16,.15-.27,.37-.27,.61,0,.46,.37,.83,.83,.83s.83-.37,.83-.83c0-.23-.1-.44-.25-.59l5.51,.08c-.11,.14-.18,.32-.18,.52,0,.46,.37,.83,.83,.83s.83-.37,.83-.83c0-.19-.06-.36-.17-.5h.72c.23,0,.41-.17,.42-.4,0-.23-.18-.42-.41-.42l-9.46-.13v-.43l.69-.55c.06,.02,.13,.03,.2,.03l7.51,.07h0c.34,0,.64-.24,.71-.57l.97-4.24c.09-.39-.16-.78-.55-.87Z"/><path class="d" d="M9.27,3.58h-.68V1.61c0-.24-.2-.44-.44-.44h-1.31c-.24,0-.44,.2-.44,.44v1.96h-.68c-.3,0-.4,.2-.22,.44l.5,.68c.18,.24,.47,.63,.65,.88l.5,.68c.18,.24,.47,.24,.65,0l.5-.68c.18-.24,.47-.63,.65-.88l.5-.68c.18-.24,.08-.44-.22-.44Z"/></g></g></g></svg>