<?xml version="1.0" encoding="utf-8"?>
<!-- Generator: Adobe Illustrator 26.2.1, SVG Export Plug-In . SVG Version: 6.00 Build 0)  -->
<svg version="1.1" id="Layer_1" xmlns="http://www.w3.org/2000/svg" xmlns:xlink="http://www.w3.org/1999/xlink" x="0px" y="0px"
	 viewBox="0 0 16 16.6" style="enable-background:new 0 0 16 16.6;" xml:space="preserve">
<style type="text/css">
	.st0{fill-rule:evenodd;clip-rule:evenodd;fill:url(#SVGID_1_);}
</style>
<g id="Layer_1_00000102542906516106411400000009244999642413313935_">
</g>
<g id="Layer_2_00000087412498335420808050000009932555673643739813_">
	<g id="_層_1">
		
			<linearGradient id="SVGID_1_" gradientUnits="userSpaceOnUse" x1="7.9994" y1="1.43" x2="7.9994" y2="18" gradientTransform="matrix(1 0 0 -1 0 18)">
			<stop  offset="4.726487e-04" style="stop-color:#FF9800"/>
			<stop  offset="1" style="stop-color:#FFB033"/>
		</linearGradient>
		<path class="st0" d="M14.8,1.8C14.7,0.6,14,0,13.2,0H2.8C2,0,1.3,0.6,1.2,1.8C1.1,2.9,0.1,14.3,0,15.3c-0.1,0.9,0.6,1.3,1.6,1.3
			h12.7c1.1,0,1.8-0.5,1.7-1.3C15.9,14.3,14.9,2.9,14.8,1.8L14.8,1.8L14.8,1.8z M4.7,3.3c0,0.5-0.3,0.8-0.7,0.8
			c-0.5,0-0.8-0.3-0.8-0.8c0-0.4,0.3-0.7,0.8-0.7C4.4,2.6,4.7,2.9,4.7,3.3C4.7,3.3,4.7,3.3,4.7,3.3z M11.2,3.3
			c0,0.5,0.3,0.8,0.8,0.8c0.4,0,0.7-0.3,0.7-0.8c0-0.4-0.3-0.7-0.7-0.7C11.5,2.6,11.2,2.9,11.2,3.3C11.2,3.3,11.2,3.3,11.2,3.3z
			 M8,11.3H7.8c-1.1,0-2-0.4-2.6-1.1c-1.4-1.5-1.7-4-1.8-5.5c-0.6-0.2-1-0.8-1-1.4c0-0.8,0.7-1.5,1.6-1.5c0.8,0,1.5,0.7,1.5,1.5
			C5.5,4,5,4.6,4.4,4.8c0.1,1.4,0.3,3.6,1.5,4.8c0.5,0.6,1.2,0.9,2,0.9c0.8,0,1.4-0.3,2-0.9c1.2-1.2,1.4-3.4,1.5-4.8
			c-0.6-0.2-1-0.8-1-1.4c0-0.8,0.7-1.5,1.5-1.5s1.5,0.7,1.5,1.5c0,0.7-0.4,1.2-1.1,1.4c-0.1,1.5-0.3,4-1.8,5.5
			C10,10.9,9.1,11.3,8,11.3L8,11.3L8,11.3z"/>
	</g>
</g>
</svg>
