<?xml version="1.0" encoding="UTF-8"?>
<svg xmlns="http://www.w3.org/2000/svg" width="16" height="16.56" xmlns:xlink="http://www.w3.org/1999/xlink" viewBox="0 0 16 16.56">
  <defs>
    <style>
      .cls-1 {
        fill: url(#_增漸層色票);
        fill-rule: evenodd;
      }
    </style>
    <linearGradient id="_增漸層色票" data-name="新增漸層色票" x1="8" y1="16.56" x2="8" y2="0" gradientTransform="matrix(1, 0, 0, 1, 0, 0)" gradientUnits="userSpaceOnUse">
      <stop offset="0" stop-color="#b0124f"/>
      <stop offset="1" stop-color="#e83d80"/>
    </linearGradient>
  </defs>
  <g id="Layer_1" data-name="Layer 1"/>
  <g id="Layer_2" data-name="Layer 2">
    <g id="_層_1" data-name="圖層 1">
      <path class="cls-1" d="M14.75,1.76c-.06-1.18-.78-1.76-1.5-1.76H2.75c-.79,0-1.44,.59-1.57,1.76C1.11,2.94,.07,14.34,0,15.26c-.07,.85,.65,1.31,1.63,1.31H14.3c1.05,0,1.76-.46,1.7-1.31-.07-.92-1.11-12.32-1.24-13.49h0ZM4.71,3.32c0,.46-.33,.79-.72,.79-.46,0-.79-.33-.79-.79,0-.38,.33-.71,.79-.71,.39,0,.72,.33,.72,.71h0Zm6.46,0c0,.46,.33,.79,.79,.79,.39,0,.72-.33,.72-.79,0-.38-.33-.71-.72-.71-.46,0-.79,.33-.79,.71h0Zm-3.2,8.02h-.13c-1.05,0-1.96-.39-2.61-1.1-1.37-1.5-1.7-3.98-1.76-5.48-.59-.2-1.05-.78-1.05-1.44,0-.84,.72-1.5,1.57-1.5,.78,0,1.5,.66,1.5,1.5,0,.66-.46,1.24-1.05,1.44,.07,1.37,.33,3.59,1.5,4.76,.52,.58,1.18,.91,2.02,.91,.79,0,1.44-.33,1.96-.91,1.18-1.18,1.44-3.39,1.5-4.76-.59-.2-.98-.78-.98-1.44,0-.84,.66-1.5,1.5-1.5s1.5,.66,1.5,1.5c0,.66-.45,1.24-1.05,1.44-.06,1.5-.32,3.98-1.76,5.48-.66,.71-1.57,1.1-2.61,1.1h-.07Z"/>
    </g>
  </g>
</svg>