<?xml version="1.0" encoding="UTF-8"?>
<svg id="Layer_2" data-name="Layer 2" xmlns="http://www.w3.org/2000/svg" width="27" height="27" xmlns:xlink="http://www.w3.org/1999/xlink" viewBox="0 0 27 27">
  <defs>
    <style>
      .cls-1 {
        fill: #e6508c;
        filter: url(#drop-shadow-1);
      }

      .cls-2 {
        fill: #fff;
      }
    </style>
    <filter id="drop-shadow-1" x="0" y="0" width="27" height="27" filterUnits="userSpaceOnUse">
      <feOffset dx="0" dy="0"/>
      <feGaussianBlur result="blur" stdDeviation="1"/>
      <feFlood flood-color="#000" flood-opacity=".25"/>
      <feComposite in2="blur" operator="in"/>
      <feComposite in="SourceGraphic"/>
    </filter>
  </defs>
  <g id="_標註" data-name="標註">
    <g>
      <rect class="cls-1" x="3.45" y="3.05" width="20" height="20" rx="5" ry="5" transform="translate(26.9 26.1) rotate(-180)"/>
      <g>
        <g>
          <path class="cls-2" d="M9.83,11.06c-.48,0-.85.42-.79.89l.95,8.19c.01.07.07.11.14.11h6.48c.07,0,.13-.05.14-.11l.95-8.19c.06-.47-.32-.89-.79-.89h-7.08ZM14.62,12.87c0-.23.19-.42.42-.42s.42.19.42.42v5.57c0,.23-.19.42-.42.42s-.42-.19-.42-.42v-5.57ZM12.95,12.87c0-.23.19-.42.42-.42s.42.19.42.42v5.57c0,.23-.19.42-.42.42s-.42-.19-.42-.42v-5.57ZM11.28,12.87c0-.23.19-.42.42-.42s.42.19.42.42v5.57c0,.23-.19.42-.42.42s-.42-.19-.42-.42v-5.57Z"/>
          <path class="cls-2" d="M9.23,7.59l7.7,2.32,1.06.32s.07,0,.09,0c.02-.01.05-.03.06-.07l.07-.22.12-.4s0-.07,0-.09c-.01-.02-.03-.05-.07-.06l-3.4-1.02-1.96-.59s0,0,0,0c0,0,0,0,0,0l-3.39-1.02s-.03,0-.04,0c-.02,0-.04,0-.06.02-.02.01-.05.03-.06.07l-.19.62c-.02.07.02.13.08.15Z"/>
        </g>
        <path class="cls-2" d="M12.73,6.84l.8.24.09-.29c.02-.07.1-.12.17-.09l.9.27s.07.05.08.07c.01.02.03.06.01.11l-.09.29.8.24.09-.29c.07-.25.05-.51-.08-.74-.12-.23-.33-.4-.58-.47l-.9-.27c-.51-.15-1.06.14-1.21.65l-.09.29Z"/>
      </g>
    </g>
  </g>
</svg>