<?xml version="1.0" encoding="UTF-8"?>
<svg id="Layer_2" data-name="Layer 2" xmlns="http://www.w3.org/2000/svg" width="9.3" height="14.4" viewBox="0 0 9.3 14.4">
  <defs>
    <style>
      .cls-1 {
        fill: #fff;
      }
    </style>
  </defs>
  <g id="_圖層1" data-name="圖層1">
    <g>
      <g>
        <path class="cls-1" d="M.8,5.21c-.48,0-.85.42-.79.89l.95,8.19c.01.07.07.11.14.11h6.48c.07,0,.13-.05.14-.11l.95-8.19c.06-.47-.32-.89-.79-.89H.8ZM5.59,7.02c0-.23.19-.42.42-.42s.42.19.42.42v5.57c0,.23-.19.42-.42.42s-.42-.19-.42-.42v-5.57ZM3.92,7.02c0-.23.19-.42.42-.42s.42.19.42.42v5.57c0,.23-.19.42-.42.42s-.42-.19-.42-.42v-5.57ZM2.25,7.02c0-.23.19-.42.42-.42s.42.19.42.42v5.57c0,.23-.19.42-.42.42s-.42-.19-.42-.42v-5.57Z"/>
        <path class="cls-1" d="M.2,1.74l7.7,2.32,1.06.32s.07,0,.09,0c.02-.01.05-.03.06-.07l.07-.22.12-.4s0-.07,0-.09c-.01-.02-.03-.05-.07-.06l-3.4-1.02-1.96-.59s0,0,0,0c0,0,0,0,0,0L.46.89s-.03,0-.04,0c-.02,0-.04,0-.06.02-.02.01-.05.03-.06.07l-.19.62c-.02.07.02.13.08.15Z"/>
      </g>
      <path class="cls-1" d="M3.69.99l.8.24.09-.29c.02-.07.1-.12.17-.09l.9.27s.07.05.08.07c.01.02.03.06.01.11l-.09.29.8.24.09-.29c.07-.25.05-.51-.08-.74-.12-.23-.33-.4-.58-.47l-.9-.27c-.51-.15-1.06.14-1.21.65l-.09.29Z"/>
    </g>
  </g>
</svg>