<?xml version="1.0" encoding="UTF-8"?>
<svg xmlns="http://www.w3.org/2000/svg" width="11.63" height="18" viewBox="0 0 11.63 18">
  <defs>
    <style>
      .cls-1 {
        fill: #f0a0c3;
      }
    </style>
  </defs>
  <g id="Layer_1" data-name="Layer 1"/>
  <g id="Layer_2" data-name="Layer 2">
    <g id="_層_1" data-name="圖層 1">
      <g>
        <g>
          <path class="cls-1" d="M1,6.51c-.6,0-1.06,.52-.99,1.11l1.19,10.23c.01,.08,.09,.14,.17,.14H9.47c.08,0,.16-.06,.17-.14l1.19-10.23c.07-.59-.39-1.11-.99-1.11H1Zm5.99,2.26c0-.29,.23-.52,.52-.52s.52,.23,.52,.52v6.96c0,.29-.23,.52-.52,.52s-.52-.23-.52-.52v-6.96Zm-2.09,0c0-.29,.23-.52,.52-.52s.52,.23,.52,.52v6.96c0,.29-.23,.52-.52,.52s-.52-.23-.52-.52v-6.96Zm-2.09,0c0-.29,.23-.52,.52-.52s.52,.23,.52,.52v6.96c0,.29-.23,.52-.52,.52s-.52-.23-.52-.52v-6.96Z"/>
          <path class="cls-1" d="M.25,2.17l9.63,2.89,1.32,.4c.05,.02,.09,0,.12-.01,.03-.01,.06-.04,.07-.09l.08-.28,.15-.49c.02-.05,0-.09-.01-.12-.01-.03-.04-.06-.09-.07l-4.25-1.28-2.45-.74h-.01L.57,1.11s-.03,0-.05,0c-.03,0-.05,0-.07,.02-.03,.01-.06,.04-.07,.09l-.23,.77c-.02,.08,.02,.17,.1,.19Z"/>
        </g>
        <path class="cls-1" d="M4.62,1.23l1,.3,.11-.37c.03-.09,.12-.14,.22-.12l1.13,.34c.06,.02,.09,.06,.1,.08,.01,.02,.03,.07,.01,.13l-.11,.37,1,.3,.11-.37c.09-.31,.06-.64-.09-.93-.15-.29-.41-.5-.72-.59L6.24,.05c-.64-.19-1.32,.17-1.52,.82l-.11,.37Z"/>
      </g>
    </g>
  </g>
</svg>