<?xml version="1.0" encoding="UTF-8"?>
<svg id="Layer_1" xmlns="http://www.w3.org/2000/svg" version="1.1" viewBox="0 0 11.6 18">
  <!-- Generator: Adobe Illustrator 29.1.0, SVG Export Plug-In . SVG Version: 2.1.0 Build 142)  -->
  <defs>
    <style>
      .st0 {
        fill: #f4c57a;
      }
    </style>
  </defs>
  <g id="Layer_2">
    <g id="_層_1">
      <g>
        <g>
          <path class="st0" d="M1,6.5C.4,6.5,0,7,0,7.6l1.2,10.2c0,0,0,.1.2.1h8.1c0,0,.2,0,.2-.1l1.2-10.2c0-.6-.4-1.1-1-1.1,0,0-8.8,0-8.8,0ZM7,8.8c0-.3.2-.5.5-.5s.5.2.5.5v7c0,.3-.2.5-.5.5s-.5-.2-.5-.5c0,0,0-7,0-7ZM4.9,8.8c0-.3.2-.5.5-.5s.5.2.5.5v7c0,.3-.2.5-.5.5s-.5-.2-.5-.5c0,0,0-7,0-7ZM2.8,8.8c0-.3.2-.5.5-.5s.5.2.5.5v7c0,.3-.2.5-.5.5s-.5-.2-.5-.5c0,0,0-7,0-7Z"/>
          <path class="st0" d="M.2,2.2l9.6,2.9,1.3.4c0,0,0,0,.1,0s0,0,0,0v-.3c0,0,.2-.5.2-.5,0,0,0,0,0-.1,0,0,0,0,0,0l-4.2-1.3-2.4-.7h0L.6,1.1h0s0,0,0,0c0,0,0,0,0,0l-.2.8c0,0,0,.2.1.2H.2Z"/>
        </g>
        <path class="st0" d="M4.6,1.2l1,.3v-.4c.1,0,.2-.1.3-.1l1.1.3c0,0,0,0,0,0,0,0,0,0,0,.1v.4c-.1,0,.9.3.9.3v-.4c.2-.3.2-.6,0-.9-.2-.3-.4-.5-.7-.6L6.2,0c-.6-.2-1.3.2-1.5.8v.4c-.1,0,0,0,0,0Z"/>
      </g>
    </g>
  </g>
</svg>