<?xml version="1.0" encoding="UTF-8"?><svg xmlns="http://www.w3.org/2000/svg" viewBox="0 0 21.66 17.02"><defs><style>.d{fill:#e6508c;}.e{fill:#fff;}</style></defs><g id="a"/><g id="b"><g id="c"><g><path class="d" d="M2.82,0H18.84c1.56,0,2.82,1.26,2.82,2.81V10.99c0,1.55-1.26,2.81-2.82,2.81h-.44c-.4,0-.63,.38-.62,.57,.13,1.74,1.31,2.1,1.83,2.42,.22,.13,.02,.23-.14,.23-3.09,0-4.36-1.41-4.95-2.45-.43-.93-1.47-.77-1.47-.77H2.82c-1.56,0-2.82-1.26-2.82-2.81V2.81C0,1.26,1.26,0,2.82,0Z"/><g><rect class="e" x="9.75" y="2.71" width="2.16" height="8.68" rx=".8" ry=".8" transform="translate(-1.81 9.72) rotate(-45)"/><rect class="e" x="6.49" y="5.97" width="8.68" height="2.16" rx=".8" ry=".8" transform="translate(-1.81 9.72) rotate(-45)"/></g></g></g></g></svg>