<?xml version="1.0" encoding="UTF-8"?>
<svg id="Layer_1" xmlns="http://www.w3.org/2000/svg" xmlns:xlink="http://www.w3.org/1999/xlink" version="1.1" viewBox="0 0 143.1 38">
  <!-- Generator: Adobe Illustrator 29.1.0, SVG Export Plug-In . SVG Version: 2.1.0 Build 142)  -->
  <defs>
    <style>
      .st0, .st1 {
        fill: none;
      }

      .st2 {
        fill: url(#linear-gradient2);
      }

      .st3 {
        fill: url(#linear-gradient1);
      }

      .st4 {
        fill: url(#linear-gradient3);
      }

      .st5 {
        fill: #040403;
        opacity: .1;
      }

      .st5, .st6 {
        isolation: isolate;
      }

      .st1 {
        clip-path: url(#clippath);
      }

      .st7 {
        fill: url(#linear-gradient);
      }

      .st8 {
        mix-blend-mode: multiply;
      }

      .st9 {
        clip-path: url(#clippath-1);
      }

      .st10 {
        fill: #fff;
      }
    </style>
    <linearGradient id="linear-gradient" x1="2.4" y1="17.4" x2="110.4" y2="17.4" gradientUnits="userSpaceOnUse">
      <stop offset="0" stop-color="#f9e0ac"/>
      <stop offset="1" stop-color="#f9b653"/>
    </linearGradient>
    <linearGradient id="linear-gradient1" x1="99.6" x2="140" xlink:href="#linear-gradient"/>
    <linearGradient id="linear-gradient2" x1="0" y1="21.4" x2="108.1" y2="21.4" gradientTransform="translate(0 38.8) scale(1 -1)" gradientUnits="userSpaceOnUse">
      <stop offset="0" stop-color="#f9b653"/>
      <stop offset="1" stop-color="#f9e0ac"/>
    </linearGradient>
    <linearGradient id="linear-gradient3" x1="97.2" x2="137.6" xlink:href="#linear-gradient2"/>
    <clipPath id="clippath">
      <polygon class="st0" points="-17.6 -26.1 -17.3 -26.1 -17.6 -25.9 -17.6 -26.1"/>
    </clipPath>
    <clipPath id="clippath-1">
      <polygon class="st1" points="-18 -26.6 -18.3 -26.6 -18 -26.8 -18 -26.6"/>
    </clipPath>
  </defs>
  <g class="st6">
    <g id="b">
      <g id="c">
        <g>
          <g>
            <path class="st5" d="M124.9,3.2h-24.5c10,0,18.2,7.8,18.2,17.4s-8.2,17.4-18.2,17.4h24.5c10,0,18.2-7.8,18.2-17.4s-8.2-17.4-18.2-17.4Z"/>
            <path class="st5" d="M21.4,38h74c10,0,18.2-7.8,18.2-17.4S105.4,3.2,95.4,3.2H21.4C11.4,3.2,3.2,11,3.2,20.6s8.2,17.4,18.2,17.4h0Z"/>
            <g>
              <g>
                <path class="st7" d="M110.4,17.4c0,9.6-8.2,17.4-18.2,17.4H20.6c-10,0-18.2-7.8-18.2-17.4S10.6,0,20.6,0h71.6C102.2,0,110.4,7.8,110.4,17.4Z"/>
                <path class="st3" d="M121.8,0h-22.2C109.6,0,117.8,7.8,117.8,17.4s-8.2,17.4-18.2,17.4h22.2c10,0,18.2-7.8,18.2-17.4S131.8,0,121.8,0Z"/>
              </g>
              <g>
                <g>
                  <path class="st2" d="M108.1,17.4c0,9.6-8.2,17.4-18.2,17.4H18.2c-10,0-18.2-7.8-18.2-17.4S8.2,0,18.2,0h71.6C99.8,0,108,7.8,108.1,17.4Z"/>
                  <path class="st4" d="M119.4,0h-22.2C107.2,0,115.4,7.8,115.4,17.4s-8.2,17.4-18.2,17.4h22.2c10,0,18.2-7.8,18.2-17.4S129.4,0,119.4,0Z"/>
                </g>
                <path class="st10" d="M128.7,16.7c-2.4-2.4-4.8-4.8-7.2-7.3-.9-.9-2.3.5-1.4,1.4,2.2,2.2,4.3,4.4,6.5,6.6-2.2,2.2-4.3,4.4-6.5,6.6-.9.9.5,2.3,1.4,1.4,2.4-2.4,4.8-4.8,7.2-7.3.4-.4.4-1,0-1.4Z"/>
              </g>
            </g>
          </g>
          <g>
            <g class="st8">
              <g class="st9">
                <image class="st6" width="613" height="368" transform="translate(-91.4 -70.5) scale(.2)" xlink:href="blocked-title-1.png"/>
              </g>
            </g>
            <g>
              <path class="st10" d="M22.7,21.1c.4,0,.6.2.5.6,0,.2-.2.3-.4.5-1.1.8-2.6,1.5-4.4,2.2-.2,0-.4,0-.4,0-.5,0-.6-.2-.5-.8,0-.2.2-.4.5-.5,1.6-.5,3.1-1.2,4.3-2,.2,0,.3-.1.4-.1h0ZM25.8,20.3h-6.7c-.4,0-.5-.2-.4-.6.1-.4.3-.5.7-.5h14.4c.4,0,.5.2.4.5-.1.4-.3.6-.7.6h-6.5l-.9,3.3c-.2.8-.8,1.1-1.6,1.1s-1.2-.1-1.9-.4c-.3,0-.4-.2-.3-.5.1-.4.4-.6.7-.6.7.2,1.2.3,1.3.3.4,0,.6-.2.6-.5l.8-2.8h0ZM27.6,10.5c.4,0,.5.2.4.6-.1.4-.3.5-.7.5h-1.9l1.3,2.1c0,.1.1.2,0,.4-.1.4-.4.6-.8.6s-.4,0-.4-.2l-.7-1.6-.7,2.8c-.1.4-.4.6-.8.6s-.5-.2-.4-.6l.7-2.7c-.9.9-2.1,1.8-3.4,2.8-.2.2-.4.2-.5.2-.5,0-.6-.2-.5-.5,0-.1.1-.2.2-.4,1.2-.8,2.2-1.5,3-2.2.5-.4.9-.8,1.4-1.3h-2.5c-.4,0-.5-.2-.4-.5.1-.4.3-.6.7-.6h2.7l.3-1c.1-.4.3-.6.7-.6s.6.2.5.6l-.3,1h2.1ZM32.8,16.8c.3,0,.5.2.4.5-.1.4-.3.6-.7.6h-11c-.4,0-.5-.2-.4-.6.1-.4.3-.5.7-.5h11ZM36,10.5c.4,0,.5.2.4.6,0,.4-.3.5-.7.5h-3.3c.4.6.8,1.1,1.3,1.6.7.7,1.3,1.2,1.9,1.6.2.1.3.3.2.6,0,.1-.1.3-.2.4-.2.2-.3.2-.5.2s-.3,0-.4-.1c-.5-.4-1-.9-1.5-1.3-.4-.4-.8-.9-1.2-1.5l-.7,2.6c-.1.4-.4.6-.8.6s-.5-.2-.4-.6l.7-2.7c-1,.9-2.2,1.8-3.6,2.7-.3.1-.5.2-.5.2-.5,0-.6-.2-.5-.5,0,0,.1-.2.2-.4,1.3-.8,2.4-1.5,3.1-2.1.5-.4,1-.8,1.5-1.3h-1.9c-.4,0-.5-.2-.4-.5.1-.4.3-.6.7-.6h2.2l.2-.9c.1-.4.3-.6.7-.6s.6.2.5.6l-.2.9h3.4ZM29.5,21c.1,0,.3,0,.4.1.5.3,1,.5,1.4.8.6.4,1.2.8,1.7,1.3,0,.2.1.3.1.4-.1.4-.4.6-.8.6s-.4,0-.5-.2c-.7-.5-1.2-.9-1.7-1.2-.4-.2-.8-.5-1.3-.8,0-.1-.1-.3,0-.5.1-.4.4-.6.8-.6h0Z"/>
              <path class="st10" d="M39.6,19.8h10.9c.8,0,1.1.4,1,1.1l-.7,2.6c-.2.8-.7,1.1-1.5,1.1h-10.9c-.8,0-1-.4-.8-1.1l.7-2.6c.2-.7.7-1.1,1.4-1.1ZM49,23.5c.3,0,.5-.2.6-.6l.4-1.5c0-.3,0-.5-.3-.5h-9.8c-.3,0-.4.1-.5.5l-.4,1.5c0,.4,0,.6.2.6,0,0,9.8,0,9.8,0ZM51.7,17.3c.4,0,.5.2.4.5-.1.4-.3.6-.7.6h-12c-.4,0-.5-.2-.4-.6,0-.4.3-.5.7-.5h12ZM54.5,11.9c.4,0,.6.2.4.6-.1.4-.4.6-.8.6h-14.6c-.4,0-.6-.2-.5-.6.1-.4.4-.6.8-.6,0,0,14.6,0,14.6,0ZM52.5,14.7c.4,0,.5.2.4.5-.1.4-.3.6-.7.6h-11.9c-.4,0-.5-.2-.4-.6,0-.4.3-.5.7-.5h11.9ZM53.4,9.4c.3,0,.5.2.4.5-.1.4-.3.6-.7.6h-11.2c-.4,0-.5-.2-.4-.6,0-.4.3-.5.7-.5h11.2Z"/>
              <path class="st10" d="M63.1,13.2c.1,0,.2,0,.4.1.3.3.6.5.9.8.4.4.8.8,1.1,1.3,0,0,0,0,0,0,.4-.2.9-.4,1.3-.6,1.4-.8,2.8-1.7,4.2-2.9.4-.4.6-.6.6-.7,0,0,0,0-.2,0h-7.2c-.1,0-.2,0-.3,0-.4.4-.9.7-1.3,1-1,.7-2.2,1.3-3.6,1.8-.2,0-.3,0-.4,0-.4,0-.5-.2-.4-.7,0-.2.2-.4.5-.5,1.6-.6,2.8-1.2,3.7-1.8.7-.5,1.4-1.2,2.3-2.1.2-.2.4-.2.5-.2.4,0,.6.2.5.6,0,.1-.1.3-.2.4,0,.1-.2.2-.2.3h7.4c.7,0,.9.3.8,1,0,.3-.4.7-1,1.2-1.2,1.1-2.6,2.1-4,3-1.2.7-2.6,1.4-4.2,2-.6.2-1.2.5-1.7.6h8c.9,0,1.2.4,1,1.3l-1.1,3.9c-.2.9-.8,1.3-1.7,1.3h-9.2c-.9,0-1.2-.4-.9-1.3l1-3.9c0-.2.1-.4.2-.5-.4.1-.8.2-1.2.3-.7.2-1.2.2-1.4.2-.5,0-.7-.2-.6-.7,0-.3.3-.5.7-.5,1.9-.4,3.4-.8,4.5-1.1.8-.2,1.6-.5,2.3-.8-.4-.4-.7-.8-.9-1-.2-.2-.5-.5-.8-.7,0-.1-.1-.3,0-.5.1-.4.4-.6.8-.6h0ZM68.6,23.1c.4,0,.7-.2.8-.6l.8-2.9c.1-.4,0-.6-.4-.6h-8.2c-.3,0-.6.2-.7.6l-.8,2.9c-.1.4,0,.6.4.6,0,0,8.2,0,8.2,0Z"/>
              <path class="st10" d="M78.6,13.7h11.6c.8,0,1.1.4.9,1.1l-1,3.7c-.2.8-.7,1.2-1.5,1.2h-5.2l-.3,1.2h6.8c.4,0,.6.2.4.6-.1.4-.4.6-.8.6h-6.8l-.6,2c-.1.4-.4.6-.8.6s-.6-.2-.4-.6l.6-2h-6.6c-.4,0-.6-.2-.5-.6.1-.4.4-.6.8-.6h6.6l.3-1.2h-5.1c-.8,0-1.1-.4-.9-1.2l1-3.7c.2-.7.7-1.1,1.5-1.1h0ZM82.4,18.5l.4-1.4h-5l-.3,1c0,.3,0,.4.2.4,0,0,4.7,0,4.7,0ZM79.4,9.3h4.2c.8,0,1.1.4.9,1.1l-.4,1.4c-.2.7-.7,1.1-1.5,1.1h-4.2c-.8,0-1.1-.4-.9-1.1l.4-1.4c.2-.7.7-1.1,1.5-1.1ZM78,16.2h5l.3-1.3h-4.7c-.2,0-.4.1-.4.4l-.2.9ZM82.6,11.7c.2,0,.4-.1.4-.4v-.5c.2-.3.1-.4,0-.4h-3.4c-.2,0-.4.1-.4.4v.5c-.2.3-.1.4,0,.4h3.4,0ZM88.4,18.5c.2,0,.4-.1.5-.4l.3-1h-5.2l-.4,1.4s4.8,0,4.8,0ZM84.6,14.8l-.3,1.3h5.2l.2-.9c0-.2,0-.4-.3-.4h-4.8ZM87.4,9.3h4.3c.7,0,1,.4.8,1l-.4,1.4c-.2.7-.6,1-1.4,1h-4.3c-.7,0-1-.3-.8-1l.4-1.4c.2-.7.6-1,1.4-1ZM90.5,11.7c.2,0,.4-.1.4-.4v-.5c.2-.3.1-.4,0-.4h-3.3c-.2,0-.4.1-.4.4v.5c-.2.3-.1.4,0,.4h3.3,0Z"/>
            </g>
          </g>
        </g>
      </g>
    </g>
  </g>
</svg>