<?xml version="1.0" encoding="UTF-8"?>
<svg id="Layer_1" xmlns="http://www.w3.org/2000/svg" version="1.1" viewBox="0 0 21.7 17">
  <!-- Generator: Adobe Illustrator 29.1.0, SVG Export Plug-In . SVG Version: 2.1.0 Build 142)  -->
  <defs>
    <style>
      .st0 {
        fill: #fff;
      }

      .st1 {
        fill: #f9b653;
      }
    </style>
  </defs>
  <g id="b">
    <g id="c">
      <g>
        <path class="st1" d="M2.8,0h16C20.4,0,21.7,1.3,21.7,2.8v8.2c0,1.6-1.3,2.8-2.8,2.8h-.4c-.4,0-.6.4-.6.6.1,1.7,1.3,2.1,1.8,2.4.2.1,0,.2-.1.2-3.1,0-4.4-1.4-4.9-2.4-.4-.9-1.5-.8-1.5-.8H2.8c-1.6,0-2.8-1.3-2.8-2.8V2.8C0,1.3,1.3,0,2.8,0Z"/>
        <g>
          <rect class="st0" x="9.8" y="2.7" width="2.2" height="8.7" rx=".8" ry=".8" transform="translate(-1.8 9.7) rotate(-45)"/>
          <rect class="st0" x="6.5" y="6" width="8.7" height="2.2" rx=".8" ry=".8" transform="translate(-1.8 9.7) rotate(-45)"/>
        </g>
      </g>
    </g>
  </g>
</svg>