<?xml version="1.0" encoding="UTF-8"?><svg xmlns="http://www.w3.org/2000/svg" xmlns:xlink="http://www.w3.org/1999/xlink" viewBox="0 0 93.29 91.03"><defs><style>.e{fill:url(#d);}</style><linearGradient id="d" x1="0" y1="45.51" x2="93.29" y2="45.51" gradientTransform="matrix(1, 0, 0, 1, 0, 0)" gradientUnits="userSpaceOnUse"><stop offset="0" stop-color="#0082a5"/><stop offset=".25" stop-color="#007da1"/><stop offset=".52" stop-color="#007197"/><stop offset=".78" stop-color="#005c85"/><stop offset="1" stop-color="#004673"/></linearGradient></defs><g id="a"/><g id="b"><g id="c"><g><path class="e" d="M93.28,13.71s0-.01,0-.02c.02-.24-.14-.39-.34-.43-.02,0-.03-.03-.05-.03-7.03-.94-14.12-5.31-20.28-8.65-.01,0-.02,0-.04,0-3.5-1.28-6.98-2.61-10.48-3.89-.02-.01-.02-.03-.04-.04-.48-.18-.93-.24-1.43-.24h0c-.07,0-.13-.01-.2,0-.07,0-.11,.05-.16,.08-7.5,2.28-15.1,2.17-22.51-.45-.02,0-.04,0-.06,0-.02,0-.03-.02-.05-.02-.87,.05-1.7,.2-2.54,.44h0c-4.45,1.01-8.78,2.38-12.95,4.26h0s-.03,0-.05,0C14.57,7.28,7.24,10.3,.19,13.97c-.18,.1-.21,.26-.17,.41,0,.05-.01,.1,.02,.16,3.2,5.23,5.37,10.89,6.96,16.8,.01,.04,.05,.05,.07,.09,.02,.05,.05,.08,.09,.12,.05,.03,.09,.05,.14,.06,.04,.01,.06,.04,.1,.04,4.16-.02,8.26-.46,12.33-1.28-.46,19.54-1.24,39.07-2.34,58.59-.01,.26,.18,.39,.38,.4,.01,0,.02,.02,.04,.02,20.07,2.55,40.03,2.11,60-1.01,.24,.06,.52-.05,.49-.37-1.5-19.1-2.38-38.22-2.66-57.38,3.51,1.4,7.14,2.2,10.89,2.7,.22,.03,.32-.1,.36-.26,.01-.02,.03-.02,.04-.05,2.43-6.32,4.71-12.68,6.36-19.25,0-.02-.01-.03,0-.05Z"/><g><path d="M93.28,13.71s0-.01,0-.02c.02-.24-.14-.39-.34-.43-.02,0-.03-.03-.05-.03-7.03-.94-14.12-5.31-20.28-8.65-.01,0-.02,0-.04,0-3.5-1.28-6.98-2.61-10.48-3.89-.02-.01-.02-.03-.04-.04-.48-.18-.93-.24-1.43-.24h0c-.07,0-.13-.01-.2,0-.07,0-.11,.05-.16,.08-7.5,2.28-15.1,2.17-22.51-.45-.02,0-.04,0-.06,0-.02,0-.03-.02-.05-.02-.87,.05-1.7,.2-2.54,.44h0c-4.45,1.01-8.78,2.38-12.95,4.26h0s-.03,0-.05,0C14.57,7.28,7.24,10.3,.19,13.97c-.18,.1-.21,.26-.17,.41,0,.05-.01,.1,.02,.16,3.2,5.23,5.37,10.89,6.96,16.8,.01,.04,.05,.05,.07,.09,.02,.05,.05,.08,.09,.12,.05,.03,.09,.05,.14,.06,.04,.01,.06,.04,.1,.04,4.16-.02,8.26-.46,12.33-1.28-.46,19.54-1.24,39.07-2.34,58.59-.01,.26,.18,.39,.38,.4,.01,0,.02,.02,.04,.02,20.07,2.55,40.03,2.11,60-1.01,.24,.06,.52-.05,.49-.37-1.5-19.1-2.38-38.22-2.66-57.38,3.51,1.4,7.14,2.2,10.89,2.7,.22,.03,.32-.1,.36-.26,.01-.02,.03-.02,.04-.05,2.43-6.32,4.71-12.68,6.36-19.25,0-.02-.01-.03,0-.05ZM63.35,2.04s-.06,0-.09,.02c-.31,.21-.62,.41-.93,.62,.01-.33,.03-.67,.02-1.01,.33,.12,.67,.25,1,.37Zm-14.79,13.72c-8.79,.67-13.69-6.18-13.31-14.49,.02,0,.05-.01,.07-.02,.56-.16,1.11-.27,1.68-.34-.02,.04-.06,.06-.06,.11-.44,3.94-.56,7.77,2.58,10.62,2.41,2.18,5.35,2.93,8.51,2.52,3.17-.41,7.26-1.08,9.4-3.67,2.09-2.54,3.54-5.95,3.6-9.24,.16,.02,.32,.06,.48,.11,.33,8.03-5.12,13.79-12.95,14.39ZM37.76,.99s-.02-.07-.03-.1c.04,.01,.08,.02,.12,.04-.04,.02-.06,.04-.08,.07Zm.53,3.07c.28-.24,.56-.48,.84-.71,.06,.02,.12,.04,.18,.06-.25,.27-.5,.53-.74,.8-.11,.12,.07,.31,.19,.19,.26-.28,.52-.57,.79-.85,.02-.02,0-.04,0-.06,1.26,.38,2.52,.71,3.8,.94h0c-1.55,1.11-3.02,2.31-4.42,3.61-.08,.07-.02,.23,.09,.22l.3-.03c.14-.01,.14-.18,.04-.22,1.31-1.2,2.67-2.32,4.12-3.35,.08-.06,.06-.15,.01-.21,2.01,.36,4.04,.51,6.07,.49-2.26,1.5-4.45,3.1-6.53,4.85-.13,.11,.06,.29,.19,.19,2.17-1.83,4.45-3.5,6.82-5.05,.62-.02,1.23-.03,1.84-.08-2.27,1.68-4.54,3.35-6.81,5.03-.13,.1,0,.33,.13,.23,2.4-1.77,4.8-3.54,7.2-5.31,2.28-.22,4.55-.67,6.79-1.35l-.17,.1c-.08,.05-.07,.13-.02,.18-.34,.2-.69,.39-1.03,.59-.14,.08-.02,.27,.12,.22-.06,.04-.11,.08-.17,.12-.13,.07-.04,.22,.09,.21-.1,.06-.18,.12-.28,.18-.11,.06-.05,.16,.03,.2l-.17,.12c-.12,.09-.03,.27,.09,.23l-.17,.14c-.13,.11,.06,.29,.19,.19,.45-.38,.91-.75,1.36-1.13,.04-.04,.02-.08,0-.12l.02-.02s.07,.05,.12,.03c.01,0,.01-.02,.03-.02h0l.48-.38c-.03,.09-.04,.19-.07,.28-.14,.1-.27,.19-.41,.29-.14,.1,0,.32,.13,.23l.12-.08c-.03,.08-.06,.16-.09,.24,0-.1-.1-.19-.18-.09l-.12,.14c.02-.11-.08-.23-.18-.12-.43,.43-.9,.78-1.43,1.07-.15,.08-.02,.31,.13,.23,.47-.25,.87-.55,1.26-.91l-.1,.12s0,.02,0,.03c-.4,.28-.77,.58-1.11,.95-.1,.11,.03,.23,.14,.19-.13,.13-.27,.27-.4,.4-.12,.12,.06,.3,.18,.19-.34,.4-.7,.77-1.14,1.1-.08,.06-.06,.15-.01,.21-.09,.09-.19,.18-.28,.26-.12,.12,.06,.3,.19,.19,.17-.16,.35-.32,.52-.49,0,.02,0,.03,0,.04l-.18,.22-1.09,.8c-.08,.06-.06,.15-.02,.2l-.76,.53s-.02,.03-.03,.05c-.04-.05-.09-.09-.16-.05l-.13,.07c-.15,.08-.02,.3,.13,.23l.13-.07s.01-.05,.02-.07c.02,.07,.1,.13,.18,.07l.41-.28c.02,.08,.09,.14,.18,.09,.12-.08,.23-.17,.35-.26-.28,.37-.59,.68-1,.95-.24,.12-.48,.23-.71,.35-.06,.03-.05,.08-.04,.13-1.02,.48-2.16,.8-3.53,1.08-3.26,.67-6.13,.99-9.16-.77-3.49-2.03-3.98-5.59-3.77-9.12,.4,.15,.82,.26,1.22,.4-.25,.21-.49,.42-.74,.62-.13,.11,.06,.29,.19,.19Zm19.63-1.94s-.02,0-.03,.01c.05-.05,.06-.11,.02-.15,.32-.07,.64-.18,.96-.26-.28,.18-.55,.36-.83,.54,.01-.09-.02-.18-.13-.14Zm1.64,.05s0-.03,0-.04c.04,.05,.09,.09,.16,.05h0s-.04,.08-.03,.12l-.16,.12s-.02,.03-.03,.05c-.15,.05-.31,.09-.46,.14,.17-.15,.34-.29,.51-.44Zm.4,1.04c-.04,.22-.11,.43-.17,.64,.02-.09-.07-.18-.16-.15-.1,.04-.21,.08-.31,.12,.16-.09,.31-.18,.47-.27,.09-.05,.06-.14,0-.19h0s.03-.08,.03-.12c.04-.01,.09-.02,.13-.04Zm-.86,.82h0Zm-.01,.38s-.02-.02-.03-.03c.06-.06,.13-.11,.19-.17,.02-.02,0-.05,0-.07,.26-.12,.3-.11,.14,.03l-.3,.24Zm.89-2.08h0s.08-.06,.12-.08c0,.02,0,.03,0,.05-.04,.01-.08,.02-.12,.03Zm-.74-.66h0s-.07-.02-.11-.01c.08-.02,.16-.04,.24-.07l-.12,.08Zm-3.03,8.29c.24-.2,.46-.42,.67-.66,.07-.08,.02-.15-.05-.19l.39-.29c.08-.06,.06-.17,0-.22l.87-.81c-.11,.17-.2,.35-.31,.52-.55,.83-1.1,1.47-1.68,2.01,.05-.07,.11-.12,.16-.19,.05-.07,.01-.14-.05-.17Zm-.44-.04s0,0-.01-.01l.17-.12c-.05,.04-.1,.09-.16,.13Zm2.79-2.91c-.36,.34-.73,.68-1.09,1.02,.02-.05,.03-.1,0-.13,.16-.16,.29-.35,.43-.53,.2-.25,.45-.42,.75-.54-.03,.06-.06,.12-.09,.18Zm.63-1.31h-.01l.02-.02v.02Zm-.38,.8s-.01-.02-.03-.02c-.25,.09-.46,.2-.65,.33,.1-.1,.2-.2,.3-.3,.2-.16,.4-.32,.6-.48-.07,.16-.15,.31-.23,.47Zm.41-.91s.03-.07,0-.11l.07-.08c-.02,.06-.05,.13-.07,.19Zm-7.17-2.69s-.04-.03-.06-.02l-.3,.17c.03-.09-.03-.21-.15-.15-.23,.1-.45,.21-.68,.31,0-.08-.05-.15-.13-.14h.02c.06-.04,.06-.1,.04-.15,.44-.01,.88-.01,1.31-.04-.02,.01-.04,.02-.06,.03Zm-2.7,.05c-.21,.11-.41,.23-.62,.34-.15,.08-.02,.31,.13,.23,.24-.13,.48-.26,.72-.39,.08-.04,.07-.12,.03-.18,.09,0,.18,0,.27,0l-.28,.18c-.14,.09-.01,.32,.13,.23l.52-.33s.05-.05,.06-.08c.05,0,.09,0,.14,0l-.21,.11c-.15,.08-.02,.3,.13,.23l.25-.13c-.24,.18-.48,.36-.72,.54-.13,.1,0,.33,.13,.23l.63-.47c.02,.07,.08,.13,.17,.09l.27-.12-.15,.08c-.15,.08-.01,.31,.13,.23,.1-.06,.2-.12,.31-.17,.04,.06,.11,.1,.19,.04,.18-.18,.39-.32,.6-.45h0c-.11,.13,.07,.31,.19,.19,.2-.22,.42-.38,.66-.53,.21-.02,.42-.04,.63-.07-.38,.19-.75,.38-1.13,.58-.15,.08-.02,.3,.13,.23,.43-.22,.87-.44,1.3-.67,.08-.04,.08-.12,.04-.17,1.2-.15,2.4-.34,3.6-.6-.42,.25-.8,.52-1.17,.86-.12,.12,.06,.3,.19,.19,.02-.02,.05-.03,.07-.05,.04,.02,.09,.02,.13-.01,.25-.22,.54-.38,.84-.51l-.43,.28c-.14,.09,0,.32,.13,.23,.21-.14,.42-.27,.62-.41l-.11,.09c-.13,.11,.06,.29,.19,.19l.16-.13s.11,.06,.16,0l.07-.07s.03,.05,.07,.06c0,0,0,0,0,.01-1.75,.51-3.51,.87-5.28,1.09,.02,0,.05,0,.08-.02,.45-.34,.88-.57,1.4-.75-.19,.11-.37,.22-.56,.33-.15,.09-.01,.31,.13,.23l.57-.33c-.07,.1,.01,.26,.14,.18,.3-.17,.61-.35,.91-.52l-.13,.1c-.13,.1,0,.33,.13,.23,.39-.29,.78-.58,1.17-.87,.13-.1,0-.33-.13-.23l-.76,.57c.06-.1-.02-.24-.15-.17-.23,.13-.47,.27-.7,.4,.08-.1-.01-.27-.14-.19l-.34,.2c.11-.08,.06-.27-.08-.22-.59,.19-1.09,.45-1.59,.83-.1,.07-.05,.22,.03,.25-5.21,.64-10.48,.06-15.54-1.85,.02-.2,.04-.41,.06-.61,.04,0,.09,.02,.11-.03,.01,.11,.14,.19,.21,.07l.13-.26c.03-.06,0-.1-.04-.14,1.19,.4,2.39,.73,3.59,1l-.27,.23c-.01-.09-.13-.16-.22-.09l-.33,.26c-.1,.08-.02,.2,.09,.21h0c-.13,.11,.06,.3,.19,.19,.26-.22,.52-.44,.78-.66,.04-.03,0-.07,0-.1,.19,.04,.39,.09,.58,.13l-.69,.47c-.14,.1,0,.32,.13,.23l.14-.1-.1,.09c-.13,.11,.06,.29,.19,.19,.29-.25,.59-.5,.88-.75,.35,.07,.71,.11,1.07,.16-.25,.2-.5,.41-.75,.61-.13,.11,.06,.29,.19,.19,.29-.24,.57-.47,.86-.71,.02-.01,0-.03,0-.05,1.63,.24,3.26,.38,4.89,.4ZM.98,14.51c6.69-3.45,13.62-6.32,20.72-8.78,.91,4.01,1.34,7.54,1.21,10.98-.04,0-.07-.04-.11,0-.29,.31-.36,.58-.22,.99,.05,.16,.31,.09,.25-.07l.05-.27c-.15,2.4-.62,4.78-1.42,7.25-.02,0-.04-.02-.06,0-.87,.79-1.75,1.57-2.62,2.36-.13,.11,.06,.3,.19,.19,.78-.7,1.57-1.41,2.35-2.11-.33,.97-.71,1.96-1.15,2.96,.05-.12-.08-.26-.18-.15-.66,.73-1.41,1.27-2.32,1.64-.15,.06-.09,.32,.07,.25,.46-.19,.87-.42,1.26-.68-.21,.19-.39,.41-.61,.58-.04,.03-.05,.07-.04,.11-3.53,.65-7.07,1-10.66,1.04-1.56-5.72-3.67-11.2-6.73-16.29Zm19.15,13.64s-.04,0-.06,0c.03-.03,.07-.05,.1-.09l-.04,.09Zm-.53,1.24c-.03,.05,0,.1,0,.15-.28,.06-.56,.1-.84,.15,.44-.36,.84-.74,1.22-1.16-.13,.29-.23,.57-.37,.86Zm57.83,58.18c-11.2,1.74-22.37,2.6-33.56,2.59,.68-.62,1.3-1.28,1.85-2.03,.1-.14-.13-.27-.23-.13-.59,.8-1.25,1.51-2,2.16-8.4-.02-16.8-.53-25.25-1.58,1.11-19.76,1.9-39.52,2.35-59.31,0-.03-.02-.03-.02-.06,3.76-8.22,3.93-14.94,1.92-23.79,.03,0,.05,.01,.08,0,3.81-1.72,7.77-2.98,11.84-3.95-.31,8.59,4.93,16.05,14.15,15.12,7.6-.77,13.04-5.59,13.71-12.94,.04,0,.07,.04,.11,0,.39-.35,.78-.7,1.18-1.05,.13-.11-.06-.3-.19-.19-.36,.32-.71,.64-1.07,.95,0-.13,.01-.25,.02-.38,.36-.24,.71-.48,1.07-.71,.1-.07,.06-.21-.03-.24,2.82,1.04,5.64,2.1,8.46,3.14-2.48,4.03-2.86,8.92-1.92,13.61-2.79,2.65-5.73,5.11-8.86,7.35-.14,.1,0,.32,.13,.23,3.1-2.22,6.02-4.66,8.79-7.28,.84,4,2.63,7.85,4.91,10.87-.03,.06-.08,.1-.07,.18,.27,19.17,1.15,38.31,2.64,57.43Zm12.73-66.1c-.86,.34-1.71,.68-2.57,1.02-.15,.06-.09,.31,.07,.25,.8-.32,1.6-.63,2.4-.95-1.17,3.58-2.45,7.12-3.8,10.64-3.62-.5-7.12-1.31-10.51-2.67h0c-2.41-3.13-4.3-7.2-5.09-11.41,0-.02,0-.04-.01-.06-.82-4.42-.41-8.98,1.96-12.77,6.1,3.32,12.84,7.36,19.77,8.44-.65,2.53-1.41,5.03-2.21,7.51Z"/><path d="M38.56,1.51c.12-.12-.07-.3-.19-.19l-.2,.2c-.12,.12,.07,.3,.19,.19l.2-.2Z"/><path d="M38.89,1.31c-.17,.15-.35,.31-.52,.46-.13,.11,.06,.3,.19,.19,.17-.15,.35-.31,.52-.46,.13-.11-.06-.3-.19-.19Z"/><path d="M39.14,1.48l-.42,.47c-.14,.09-.01,.32,.13,.23,.25-.16,.38-.3,.51-.56,.07-.15-.15-.28-.23-.13Z"/><path d="M39.87,1.83c.11-.13-.08-.31-.19-.19-.13,.15-.26,.31-.39,.46-.11,.13,.08,.31,.19,.19,.13-.15,.26-.31,.39-.46Z"/><path d="M40.03,1.95c-.17,.13-.35,.26-.52,.39-.13,.1,0,.33,.13,.23,.17-.13,.35-.26,.52-.39,.13-.1,0-.33-.13-.23Z"/><path d="M40.34,2.05l-.33,.26c-.13,.1,.05,.29,.19,.19,.11-.09,.22-.17,.33-.26,.13-.1-.05-.29-.19-.19Z"/><path d="M41.13,2.13c.1-.13-.13-.27-.23-.13l-.2,.26c-.1,.13,.13,.27,.23,.13l.2-.26Z"/><path d="M43.41,2.43c-.2,.22-.39,.44-.59,.65-.11,.12,.07,.31,.19,.19,.2-.22,.39-.44,.59-.65,.11-.13-.07-.31-.19-.19Z"/><path d="M43.99,3.39c-.13,.11,.06,.3,.19,.19,.26-.24,.53-.48,.79-.71,.13-.11-.06-.3-.19-.19-.26,.24-.53,.48-.79,.71Z"/><path d="M44.91,3.47c.15-.17,.31-.35,.46-.52,.11-.13-.07-.31-.19-.19-.15,.17-.31,.35-.46,.52-.11,.13,.07,.31,.19,.19Z"/><path d="M45.42,3.59l.4-.32c.13-.11-.06-.29-.19-.19l-.4,.32c-.13,.11,.06,.29,.19,.19Z"/><path d="M46.18,3.54c.15-.11,.31-.22,.46-.33,.14-.1,0-.32-.13-.23l-.46,.33c-.14,.1,0,.32,.13,.23Z"/><path d="M46.87,3.6c.24-.14,.48-.29,.73-.43,.16-.05,.09-.3-.07-.25-.36,.11-.58,.23-.84,.5-.12,.12,.07,.3,.19,.19Z"/><path d="M48.37,3.2c.13-.11-.06-.29-.19-.19-.15,.13-.31,.26-.46,.39-.13,.11,.06,.29,.19,.19,.15-.13,.31-.26,.46-.39Z"/><path d="M38.4,5.45c.59-.4,1.08-.84,1.53-1.39,.11-.13-.08-.32-.19-.19-.44,.53-.91,.97-1.48,1.35-.14,.09,0,.32,.13,.23Z"/><path d="M38.53,6.25c.13,0,.13-.14,.05-.21,.64-.47,1.22-1,1.71-1.64,.1-.13-.08-.32-.19-.19-.55,.71-1.15,1.28-1.9,1.79-.1,.07-.07,.25,.07,.24,.08,0,.17,0,.25,0Z"/><path d="M39.59,6.92c.82-.78,1.63-1.55,2.45-2.33,.12-.12-.06-.3-.19-.19l-2.45,2.33c-.12,.12,.06,.3,.19,.19Z"/><path d="M44.49,4.87c.13-.1,0-.33-.13-.23-1.52,1.12-3,2.29-4.44,3.52-.13,.11,.06,.29,.19,.19,1.42-1.21,2.88-2.37,4.39-3.48Z"/><path d="M40.48,9.5c1.71-1.3,3.42-2.59,5.14-3.89,.13-.1,0-.33-.13-.23l-5.14,3.89c-.13,.1,0,.33,.13,.23Z"/><path d="M42.28,9.14c1.83-1.32,3.65-2.64,5.48-3.96,.14-.1,0-.32-.13-.23-1.83,1.32-3.65,2.64-5.48,3.96-.14,.1,0,.32,.13,.23Z"/><path d="M45.58,11.77c3.07-2.17,6.14-4.34,9.21-6.5,.14-.1,0-.32-.13-.23-3.07,2.17-6.14,4.34-9.21,6.5-.14,.1,0,.32,.13,.23Z"/><path d="M47.7,11.68c2.67-1.87,5.33-3.74,8-5.61,.14-.1,0-.32-.13-.23-2.67,1.87-5.33,3.74-8,5.61-.14,.1,0,.32,.13,.23Z"/><path d="M54.98,7.06c-1.65,1.54-3.42,2.91-5.33,4.11-.14,.09-.01,.32,.13,.23,1.93-1.21,3.72-2.6,5.38-4.16,.12-.12-.06-.3-.19-.19Z"/><path d="M51.55,11.61c-.12,.12,.07,.31,.19,.19,1.11-1.14,2.29-2.21,3.52-3.22,.13-.11-.06-.29-.19-.19-1.24,1.01-2.41,2.08-3.52,3.22Z"/><path d="M54.04,10.32c-.66,.54-1.32,1.07-1.99,1.61-.13,.11,.06,.29,.19,.19,.66-.54,1.32-1.07,1.99-1.61,.13-.11-.06-.29-.19-.19Z"/><path d="M18.78,28.4c.61-.64,1.21-1.28,1.82-1.91,.12-.12-.07-.31-.19-.19-.61,.64-1.21,1.28-1.82,1.91-.12,.12,.07,.31,.19,.19Z"/><path d="M19.66,25.67c.7-.72,1.39-1.44,2.09-2.17,.12-.12-.07-.31-.19-.19l-2.09,2.17c-.12,.12,.07,.31,.19,.19Z"/><path d="M21.64,22.68c.13-.11-.06-.3-.19-.19-.47,.42-.95,.84-1.42,1.26-.13,.11,.06,.3,.19,.19,.47-.42,.95-.84,1.42-1.26Z"/><path d="M22.24,20.92c.12-.11-.06-.3-.19-.19-.43,.4-.87,.79-1.3,1.19-.12,.11,.06,.3,.19,.19,.43-.4,.87-.79,1.3-1.19Z"/><path d="M21.36,20.7c.25-.26,.54-.45,.89-.56,.16-.06,.09-.31-.07-.25-.39,.15-.7,.34-1.01,.63-.12,.12,.06,.3,.19,.19Z"/><path d="M22,19.31c.2-.15,.39-.31,.59-.46,.13-.1-.05-.29-.19-.19-.2,.15-.39,.31-.59,.46-.13,.1,.05,.29,.19,.19Z"/><path d="M91.36,17.32c.13-.11-.06-.29-.19-.19-.69,.59-1.42,1.05-2.25,1.44-.15,.07-.02,.3,.13,.23,.84-.39,1.6-.88,2.3-1.48Z"/><path d="M90.24,18.61c.14-.09,.01-.32-.13-.23-.84,.53-1.7,.99-2.62,1.37-.15,.07-.02,.29,.13,.23,.91-.39,1.78-.84,2.62-1.37Z"/><path d="M88.87,19.93c-.26,.34-.61,.51-1.05,.52-.17,.01-.17,.27,0,.26,.52-.03,.89-.2,1.24-.59,.11-.13-.07-.31-.19-.19Z"/><path d="M89.32,20.54c-.55,.39-1.1,.78-1.64,1.17-.14,.1,0,.32,.13,.23,.55-.39,1.1-.78,1.64-1.17,.14-.1,0-.32-.13-.23Z"/><path d="M89.02,23.02c.14-.09,0-.32-.13-.23-1.05,.72-2.14,1.33-3.3,1.84-.15,.07-.02,.29,.13,.23,1.16-.51,2.26-1.12,3.3-1.84Z"/><path d="M87.62,24.82c.14-.09,.01-.32-.13-.23-.99,.62-2.02,1.14-3.11,1.56-.16,.06-.09,.31,.07,.25,1.11-.43,2.16-.95,3.17-1.59Z"/><path d="M84.81,27.44c.83-.39,1.66-.79,2.49-1.18,.15-.07,.02-.3-.13-.23-.83,.39-1.66,.79-2.49,1.18-.15,.07-.02,.3,.13,.23Z"/><path d="M87.47,27.31c.13-.1,0-.33-.13-.23-.97,.71-1.99,1.29-3.1,1.74-.15,.06-.09,.32,.07,.25,1.13-.46,2.18-1.04,3.16-1.77Z"/><path d="M87.08,28.13c.15-.07,.02-.3-.13-.23-1.3,.62-2.61,1.24-3.91,1.86-.15,.07-.02,.3,.13,.23,1.3-.62,2.61-1.24,3.91-1.86Z"/><path d="M85.66,29.13c-.83,.38-1.63,.81-2.4,1.3-.14,.09-.01,.32,.13,.23,.78-.48,1.57-.91,2.4-1.3,.15-.07,.02-.3-.13-.23Z"/><path d="M86.1,29.81c-.77,.4-1.54,.81-2.31,1.21-.15,.08-.02,.3,.13,.23,.77-.4,1.54-.81,2.31-1.21,.15-.08,.02-.3-.13-.23Z"/><path d="M85.99,30.76l-1.06,.71c-.14,.09,0,.32,.13,.23,.35-.24,.7-.47,1.06-.71,.14-.09,0-.32-.13-.23Z"/><path d="M86.11,31.54l-.33,.2c-.14,.09-.01,.31,.13,.23,.11-.07,.22-.13,.33-.2,.14-.09,.01-.31-.13-.23Z"/><path d="M86.11,31.85c-.17,0-.17,.26,0,.26h.07c.17,0,.17-.26,0-.26h-.07Z"/><path d="M62.74,4.2c.54-.37,1.09-.74,1.63-1.12,.14-.09,0-.32-.13-.23-.54,.37-1.09,.74-1.63,1.12-.14,.09,0,.32,.13,.23Z"/><path d="M62.75,4.8c.81-.55,1.61-1.09,2.42-1.64,.14-.09,0-.32-.13-.23-.81,.55-1.61,1.09-2.42,1.64-.14,.09,0,.32,.13,.23Z"/><path d="M62.91,5.5c.96-.82,1.99-1.51,3.11-2.08,.15-.08,.02-.3-.13-.23-1.15,.58-2.2,1.28-3.17,2.12-.13,.11,.06,.29,.19,.19Z"/><path d="M62.06,6.81c1.34-1.08,2.73-2.1,4.15-3.07,.14-.09,0-.32-.13-.23-1.45,.98-2.85,2.01-4.21,3.11-.13,.11,.06,.29,.19,.19Z"/><path d="M63.07,7.15c1.38-.99,2.76-1.99,4.15-2.98,.14-.1,0-.32-.13-.23-1.38,.99-2.76,1.99-4.15,2.98-.14,.1,0,.32,.13,.23Z"/><path d="M64.46,8.93c1.77-1.3,3.54-2.61,5.31-3.91,.13-.1,0-.33-.13-.23-1.77,1.3-3.54,2.61-5.31,3.91-.13,.1,0,.33,.13,.23Z"/><path d="M69.82,7.37c-2.46,1.93-4.78,4.01-6.98,6.23-.12,.12,.07,.31,.19,.19,2.2-2.22,4.52-4.3,6.98-6.23,.13-.1-.05-.29-.19-.19Z"/><path d="M59.29,17.14c-.13,.11,.05,.29,.19,.19,2.83-2.26,5.55-4.65,8.16-7.17,.12-.12-.06-.3-.19-.19-2.61,2.52-5.33,4.91-8.16,7.17Z"/><path d="M65.37,9.14c-2.74,2.3-5.59,4.46-8.56,6.47-.14,.09,0,.32,.13,.23,2.51-1.7,4.92-3.53,7.27-5.44,.03,.01,.07,.01,.1-.01,2.31-1.64,4.62-3.28,6.93-4.92,.14-.1,0-.32-.13-.23-1.85,1.32-3.71,2.63-5.56,3.95-.04-.06-.11-.1-.19-.04Z"/><path d="M54.05,18.3c3.23-3.59,6.6-7.05,10.1-10.38,.08-.07,.03-.14-.04-.18,1.52-.98,2.95-2.07,4.23-3.35,.12-.12-.07-.3-.19-.19-1.51,1.5-3.19,2.8-5.03,3.89-.15,.09-.01,.31,.13,.23,.13-.08,.25-.18,.38-.26-3.39,3.23-6.65,6.58-9.78,10.06-.11,.13,.07,.31,.19,.19Z"/><path d="M52.72,24.55c5.03-3.46,9.91-7.13,14.64-11,.13-.11-.06-.29-.19-.19-4.71,3.86-9.57,7.51-14.58,10.96-.14,.09,0,.32,.13,.23Z"/><path d="M62.66,19.15c-.93,.83-1.9,1.62-2.88,2.38-1.78,1.38-3.64,2.64-5.57,3.81-.14,.09-.01,.31,.13,.23,3.88-2.36,7.44-5.12,10.7-8.28,.07-.07,.02-.24-.09-.22-.15,.02-.29,.04-.44,.06-.16,.02-.17,.28,0,.26-.41,.06-1.5,1.46-1.85,1.77Z"/><path d="M56.13,26.22c-.14,.09-.01,.32,.13,.23,3.88-2.48,7.52-5.26,10.93-8.35,.13-.11-.06-.3-.19-.19-3.39,3.07-7.02,5.84-10.88,8.31Z"/><path d="M70.73,23.01c.13-.11-.06-.3-.19-.19-2.57,2.32-5.14,4.64-7.7,6.95-.13,.11,.06,.3,.19,.19,2.57-2.32,5.14-4.64,7.7-6.95Z"/><path d="M63.66,31.52l7.72-6.76c.13-.11-.06-.3-.19-.19-2.57,2.25-5.14,4.51-7.72,6.76-.13,.11,.06,.3,.19,.19Z"/><path d="M67.11,31.67c1.79-1.23,3.42-2.64,4.9-4.24,.11-.12-.07-.31-.19-.19-1.46,1.58-3.07,2.98-4.85,4.2-.14,.09,0,.32,.13,.23Z"/><path d="M67.45,32.95c-.11,.13,.07,.31,.19,.19,1.31-1.51,2.81-2.82,4.49-3.91,.14-.09,0-.32-.13-.23-1.7,1.11-3.21,2.42-4.54,3.95Z"/><path d="M69.87,33.34c1.12-1.07,2.33-2.02,3.62-2.87,.14-.09,0-.32-.13-.23-1.32,.86-2.54,1.83-3.67,2.91-.12,.12,.06,.3,.19,.19Z"/><path d="M73.22,31.52c-.76,.79-1.52,1.58-2.27,2.37-.12,.12,.07,.31,.19,.19,.76-.79,1.52-1.58,2.27-2.37,.12-.12-.07-.31-.19-.19Z"/><path d="M72.62,35.78c.5-.79,1-1.57,1.5-2.36,.09-.14-.14-.27-.23-.13-.5,.79-1,1.57-1.5,2.36-.09,.14,.14,.27,.23,.13Z"/><path d="M72.54,36.6c-.11,.13,.07,.31,.19,.19,.52-.61,1.05-1.22,1.57-1.83,.11-.13-.07-.31-.19-.19-.52,.61-1.05,1.22-1.57,1.83Z"/><path d="M74.18,36.23c.08-.15-.15-.28-.23-.13-.15,.28-.31,.57-.46,.85-.08,.15,.15,.28,.23,.13,.15-.28,.31-.57,.46-.85Z"/><path d="M73.74,38.13c-.01,.17,.25,.17,.26,0,.14-.32,.28-.63,.43-.95,.12-.12-.07-.31-.19-.19-.34,.36-.46,.65-.5,1.14Z"/><path d="M73.95,38.78c-.06,.15,.16,.29,.23,.13,.14-.32,.27-.65,.41-.97,.06-.15-.16-.29-.23-.13-.14,.32-.27,.65-.41,.97Z"/><path d="M73.46,41.6c.35-.65,.7-1.31,1.05-1.96,.08-.15-.15-.28-.23-.13-.35,.65-.7,1.31-1.05,1.96-.08,.15,.15,.28,.23,.13Z"/><path d="M73.37,42.92c.47-.48,.85-.99,1.19-1.56,.09-.15-.14-.28-.23-.13-.33,.55-.7,1.05-1.15,1.51-.12,.12,.07,.31,.19,.19Z"/><path d="M72.85,45.28c.62-.73,1.14-1.5,1.56-2.36,.07-.15-.15-.28-.23-.13-.41,.84-.9,1.6-1.52,2.31-.11,.13,.08,.31,.19,.19Z"/><path d="M74.3,44.38c-.55,.71-1.01,1.45-1.39,2.25-.07,.15,.15,.28,.23,.13,.37-.79,.81-1.51,1.35-2.2,.1-.13-.08-.32-.19-.19Z"/><path d="M74.33,46.45c.08-.15-.14-.28-.23-.13-.28,.48-.55,.97-.83,1.45-.08,.15,.14,.28,.23,.13,.28-.48,.55-.97,.83-1.45Z"/><path d="M73.32,49.06c.35-.57,.7-1.14,1.05-1.7,.09-.14-.14-.28-.23-.13-.35,.57-.7,1.14-1.05,1.7-.09,.14,.14,.28,.23,.13Z"/><path d="M73.24,50.39c.48-.53,.87-1.08,1.21-1.72,.08-.15-.15-.28-.23-.13-.32,.61-.7,1.15-1.17,1.67-.11,.12,.07,.31,.19,.19Z"/><path d="M73.32,51.73c.35-.5,.7-1,1.05-1.51,.1-.14-.13-.27-.23-.13-.35,.5-.7,1-1.05,1.51-.1,.14,.13,.27,.23,.13Z"/><path d="M73.4,53.32c.35-.48,.7-.96,1.05-1.44,.1-.14-.13-.27-.23-.13-.35,.48-.7,.96-1.05,1.44-.1,.14,.13,.27,.23,.13Z"/><path d="M73.05,55.04c.49-.5,.84-1.04,1.09-1.69,.06-.16-.19-.22-.25-.07-.24,.61-.56,1.1-1.03,1.57-.12,.12,.07,.31,.19,.19Z"/><path d="M73.04,56.67c.54-.59,1.01-1.22,1.44-1.9,.09-.14-.14-.27-.23-.13-.41,.66-.87,1.27-1.4,1.84-.11,.12,.07,.31,.19,.19Z"/><path d="M72.89,58.24c.35-.5,.71-1,1.06-1.49,.1-.14-.13-.27-.23-.13-.35,.5-.71,1-1.06,1.49-.1,.14,.13,.27,.23,.13Z"/><path d="M73.26,59.7c.29-.35,.57-.7,.86-1.04,.11-.13-.08-.32-.19-.19-.29,.35-.57,.7-.86,1.04-.11,.13,.08,.32,.19,.19Z"/><path d="M73.3,62.3c.43-.51,.86-1.01,1.29-1.52,.11-.13-.08-.31-.19-.19-.43,.51-.86,1.01-1.29,1.52-.11,.13,.08,.31,.19,.19Z"/><path d="M71.18,65.34c-.11,.12,.07,.31,.19,.19,1.18-1.29,2.35-2.58,3.53-3.87,.11-.12-.07-.31-.19-.19-1.18,1.29-2.35,2.58-3.53,3.87Z"/><path d="M56.62,82.53c6.04-6.49,12.07-12.98,18.11-19.47,.11-.12-.07-.31-.19-.19-6.04,6.49-12.07,12.98-18.11,19.47-.11,.12,.07,.31,.19,.19Z"/><path d="M73.21,68.1c-4.76,4.63-9.35,9.42-13.77,14.38-.11,.13,.07,.31,.19,.19,4.42-4.95,9.01-9.74,13.77-14.38,.12-.12-.06-.3-.19-.19Z"/><path d="M73.12,71.02c-3.8,4.18-7.71,8.26-11.72,12.24-.12,.12,.07,.3,.19,.19,4.01-3.98,7.92-8.06,11.72-12.24,.11-.12-.07-.31-.19-.19Z"/><path d="M71.93,75.33c-2.51,3.11-5.15,6.08-7.94,8.94-.12,.12,.07,.31,.19,.19,2.79-2.85,5.44-5.83,7.94-8.94,.1-.13-.08-.32-.19-.19Z"/><path d="M67.26,84.95c-.11,.13,.08,.31,.19,.19,1.76-2.13,3.72-4.06,5.88-5.79,.13-.11-.05-.29-.19-.19-2.16,1.73-4.12,3.66-5.88,5.79Z"/><path d="M73.85,81.11c-1.47,1.35-2.93,2.7-4.4,4.05-.12,.11,.06,.3,.19,.19,1.47-1.35,2.93-2.7,4.4-4.05,.12-.11-.06-.3-.19-.19Z"/><path d="M74.88,83.38c-1.13,1.2-2.27,2.4-3.4,3.6-.12,.12,.07,.31,.19,.19,1.13-1.2,2.27-2.4,3.4-3.6,.12-.12-.07-.31-.19-.19Z"/><path d="M75,84.99c-.46,.61-.92,1.22-1.38,1.83-.1,.13,.13,.26,.23,.13,.46-.61,.92-1.22,1.38-1.83,.1-.13-.13-.26-.23-.13Z"/><path d="M75.17,85.76c-.35,.39-.7,.78-1.05,1.18-.11,.13,.07,.31,.19,.19,.35-.39,.7-.78,1.05-1.18,.11-.13-.07-.31-.19-.19Z"/><path d="M40.58,88.13c-.2,.37-.39,.74-.59,1.11-.08,.15,.15,.28,.23,.13,.2-.37,.39-.74,.59-1.11,.08-.15-.15-.28-.23-.13Z"/><path d="M43.04,87.86c-.42,.52-.84,1.04-1.26,1.56-.1,.13,.08,.32,.19,.19,.42-.52,.84-1.04,1.26-1.56,.1-.13-.08-.32-.19-.19Z"/><path d="M49,86.53c-.78,1.12-1.6,2.21-2.46,3.27-.11,.13,.08,.32,.19,.19,.88-1.07,1.72-2.18,2.51-3.32,.1-.14-.13-.27-.23-.13Z"/><path d="M56.16,84.03c-1.54,1.66-3.09,3.33-4.63,4.99-.11,.12,.07,.31,.19,.19,1.54-1.66,3.09-3.33,4.63-4.99,.11-.12-.07-.31-.19-.19Z"/><path d="M59.01,83.48c-1.66,1.72-3.31,3.45-4.97,5.17-.12,.12,.07,.31,.19,.19,1.66-1.72,3.31-3.45,4.97-5.17,.12-.12-.07-.31-.19-.19Z"/><path d="M61.83,85.38c-1.03,1.07-2.05,2.14-3.08,3.21-.12,.12,.07,.31,.19,.19,1.03-1.07,2.05-2.14,3.08-3.21,.12-.12-.07-.31-.19-.19Z"/><path d="M64.97,85.45c-1.12,1.13-2.24,2.26-3.35,3.39-.12,.12,.07,.31,.19,.19,1.12-1.13,2.23-2.26,3.35-3.39,.12-.12-.07-.31-.19-.19Z"/><path d="M67.68,86.59c-.66,.63-1.31,1.26-1.97,1.89-.12,.12,.06,.3,.19,.19,.66-.63,1.31-1.26,1.97-1.89,.12-.12-.06-.3-.19-.19Z"/><path d="M68.84,87.02c-.23,.36-.46,.73-.69,1.09-.09,.14,.14,.27,.23,.13,.23-.36,.46-.73,.69-1.09,.09-.14-.14-.27-.23-.13Z"/><path d="M71.16,87.32c-.09,.11-.17,.22-.26,.33-.1,.13,.08,.32,.19,.19,.09-.11,.17-.22,.26-.33,.1-.13-.08-.32-.19-.19Z"/><path d="M72.65,73.39c.77-1.12,1.63-2.17,2.56-3.16,.12-.12-.07-.31-.19-.19-.95,1-1.82,2.07-2.61,3.21-.1,.14,.13,.27,.23,.13Z"/><path d="M74.17,72.73c-.24,.26-.48,.52-.72,.79-.11,.12,.07,.31,.19,.19,.24-.26,.48-.52,.72-.79,.11-.12-.07-.31-.19-.19Z"/><path d="M74.69,73.18c-.37,.42-.73,.84-1.1,1.25-.11,.13,.07,.31,.19,.19,.37-.42,.73-.84,1.1-1.25,.11-.13-.07-.31-.19-.19Z"/><path d="M74.1,75.66c.31-.28,.61-.57,.92-.85,.12-.11-.06-.3-.19-.19-.31,.28-.61,.57-.92,.85-.12,.11,.06,.3,.19,.19Z"/><path d="M74.56,77.56c.44-.48,.87-.96,1.31-1.44,.11-.12-.07-.31-.19-.19-.44,.48-.87,.96-1.31,1.44-.11,.12,.07,.31,.19,.19Z"/><path d="M75.59,77.4c-.28,.41-.57,.83-.85,1.24-.1,.14,.13,.27,.23,.13,.28-.41,.57-.83,.85-1.24,.1-.14-.13-.27-.23-.13Z"/><path d="M75.14,80.21c-.08,.15,.15,.28,.23,.13,.15-.28,.31-.57,.46-.85,.08-.15-.15-.28-.23-.13-.15,.28-.31,.57-.46,.85Z"/><path d="M75.66,81.33c-.15,.22-.31,.44-.46,.65-.1,.14,.13,.27,.23,.13,.15-.22,.31-.44,.46-.65,.1-.14-.13-.27-.23-.13Z"/><path d="M75.16,83.92c.33-.39,.66-.78,.99-1.17,.11-.13-.08-.31-.19-.19-.33,.39-.66,.78-.99,1.17-.11,.13,.08,.31,.19,.19Z"/></g></g></g></g></svg>