<?xml version="1.0" encoding="UTF-8"?><svg xmlns="http://www.w3.org/2000/svg" xmlns:xlink="http://www.w3.org/1999/xlink" viewBox="0 0 94.72 91.46"><defs><style>.aa{fill:url(#u);}.ab{fill:url(#t);}.ac{fill:url(#v);}.ad{fill:url(#e);}.ae{fill:url(#d);}.af{fill:url(#g);}.ag{fill:url(#f);}.ah{fill:url(#p);}.ai{fill:url(#o);}.aj{fill:url(#s);}.ak{fill:url(#q);}.al{fill:url(#r);}.am{fill:url(#i);}.an{fill:url(#h);}.ao{fill:url(#k);}.ap{fill:url(#j);}.aq{fill:url(#m);}.ar{fill:url(#l);}.as{fill:url(#n);}.at{fill:url(#x);}.au{fill:url(#w);}.av{fill:url(#y);}.aw{fill:url(#a`);}.ax{fill-rule:evenodd;}</style><linearGradient id="d" x1="24.21" y1="4.56" x2="30.41" y2="4.56" gradientTransform="matrix(1, 0, 0, 1, 0, 0)" gradientUnits="userSpaceOnUse"><stop offset="0" stop-color="#898989"/><stop offset=".16" stop-color="#a7a7a7"/><stop offset=".38" stop-color="#cdcece"/><stop offset=".5" stop-color="#dcdddd"/><stop offset="1" stop-color="#eae7e3"/><stop offset="1" stop-color="#efedea"/><stop offset="1" stop-color="#f8f7f6"/><stop offset="1" stop-color="#fdfdfd"/><stop offset="1" stop-color="#fff"/></linearGradient><linearGradient id="e" x1="14.06" y1="10.99" x2="20.1" y2="10.99" xlink:href="#d"/><linearGradient id="f" x1="5.16" y1="20.97" x2="11.14" y2="20.97" xlink:href="#d"/><linearGradient id="g" x1=".46" y1="33.66" x2="6.24" y2="33.66" xlink:href="#d"/><linearGradient id="h" x1=".23" y1="47.89" x2="6.09" y2="47.89" xlink:href="#d"/><linearGradient id="i" x1="4.85" y1="61.15" x2="10.84" y2="61.15" xlink:href="#d"/><linearGradient id="j" x1="13.67" y1="72.9" x2="20.83" y2="72.9" xlink:href="#d"/><linearGradient id="k" x1="26.09" y1="80.19" x2="32.05" y2="80.19" xlink:href="#d"/><linearGradient id="l" x1="60.52" y1="80.91" x2="67.47" y2="80.91" xlink:href="#d"/><linearGradient id="m" x1="73.63" y1="73.75" x2="79.68" y2="73.75" xlink:href="#d"/><linearGradient id="n" x1="85.85" y1="63.02" x2="85.87" y2="63.02" xlink:href="#d"/><linearGradient id="o" x1="82.99" y1="62.96" x2="88.7" y2="62.96" xlink:href="#d"/><linearGradient id="p" x1="87.6" y1="49.72" x2="94.22" y2="49.72" xlink:href="#d"/><linearGradient id="q" x1="88.33" y1="36.56" x2="94.28" y2="36.56" xlink:href="#d"/><linearGradient id="r" x1="84.79" y1="23.61" x2="90.88" y2="23.61" xlink:href="#d"/><linearGradient id="s" x1="76.93" y1="12.48" x2="82.87" y2="12.48" xlink:href="#d"/><linearGradient id="t" x1="63.9" y1="4.49" x2="69.95" y2="4.49" xlink:href="#d"/><linearGradient id="u" x1="43.16" y1="1.72" x2="50.75" y2="1.72" xlink:href="#d"/><linearGradient id="v" x1="35.73" y1="83.61" x2="40.54" y2="83.61" xlink:href="#d"/><linearGradient id="w" x1="37" y1="78.88" x2="49.47" y2="78.88" xlink:href="#d"/><linearGradient id="x" x1="36.25" y1="85.37" x2="52.76" y2="85.37" xlink:href="#d"/><linearGradient id="y" x1="45" y1="82.23" x2="58.11" y2="82.23" xlink:href="#d"/><radialGradient id="a`" cx="46.67" cy="83.54" fx="46.67" fy="83.54" r="6.78" gradientTransform="matrix(1, 0, 0, 1, 0, 0)" gradientUnits="userSpaceOnUse"><stop offset="0" stop-color="#f06478"/><stop offset=".36" stop-color="#ed6175"/><stop offset=".58" stop-color="#e5596d"/><stop offset=".76" stop-color="#d64a5e"/><stop offset=".91" stop-color="#c2364a"/><stop offset="1" stop-color="#b4283c"/></radialGradient></defs><g id="a"/><g id="b"><g id="c"><g><path class="ae" d="M29.35,2.41c-.08-.07-.2-.1-.29-.17,.01-.02-.04-.25-.11-.47-.07-.24-.21-.46-.21-.46,0,0-.12-.02-.29-.02-.17,0-.38,.02-.56,.08-.23,.06-.39,.14-.5,.21-.12-.02-.23-.07-.36-.08-.43-.13-.86,0-1.19,.2-.35,.19-.61,.44-.96,.64-.13,0-.41,.32-.55,.7-.14,.38-.13,.78-.09,.84,.27,.33-.15,.9,.12,1.27,.09,.09-.11,1.38,.84,1.97,2.37,1.47,3.56,.19,3.72,.14,.3-.09,.54-.49,.78-.62,.16,.03,.16-.46,.29-.44,.05-.42,.18-.72,.28-1.04-.06-.36,.11-.59,.16-.82,0-.68-.42-1.42-1.06-1.94Z"/><path class="ad" d="M20.08,10.45c-.04-.32-.14-.6-.13-.96,.06-.1-.06-.44-.27-.7-.2-.26-.48-.43-.54-.43l-.03,.27c-.34-.18-.41-.48-.79-.46-.41-.2-.5-.28-.58-.36-.05,.15-.12,.24-.22,.26-.03-.11-.29-.06-.29-.06-.18-.04-.08,.24-.33,.13-.51-.13-2.21,.72-2.21,.74,0,0-.24,.33-.4,.74-.17,.41-.23,.84-.23,.84,0,0,.18,.88,0,1.25,.34,1.05,1.11,1.62,1.72,2.16,.02,.15,.27,.18,.29,.31,.35-.11,.61-.07,.87-.05,.26-.14,.46-.02,.63,0,.47-.09,.94-.51,1.31-1.05,.37-.53,.7-1.06,1-1.68,.23-.28,.24-.64,.2-.95Z"/><path class="ag" d="M10.97,19.64c-.04-.14-.1-.28-.17-.42-.03-.06-.07-.13-.11-.22-.09-.21-.15-.3-.23-.39-.06-.07-.15-.16-.26-.23-.21-.15-.47-.26-.66-.32-.41-.1-.59-.06-.64-.04l.05,.23c-.15,.02-.26-.03-.37-.06,.01-.15,.02-.27,0-.31-.03-.2-.09-.4-.09-.4,0,0-.27,0-.53,.06-.26,.06-.49,.18-.49,.18,0,0-.2-.02-.42,0-.22,.01-.44,.09-.44,.09,0,0-.49,.34-.85,.89-.37,.54-.52,1.21-.52,1.21l.16,.23c-.22,.2-.26,.51-.22,.8,.02,.29,.1,.54,.02,.84,.21,.06,.11,.1,.09,.15,.18,.63,.55,1.09,.92,1.43,.38,.34,.75,.59,1.15,.83,.07,.15,.33,.13,.4,.26,.3-.19,.59-.2,.88-.26,.24-.2,.5-.14,.7-.18,.51-.25,.85-.73,1.08-1.25,.11-.26,.2-.53,.29-.81,.04-.12,.08-.25,.13-.42,.04-.13,.1-.32,.14-.37,.17-.15,.2-.42,.16-.81-.02-.2-.07-.43-.16-.7Zm-2.06,.66s.07-.1,.05-.06c-.06,.04-.05,.04-.05,.06Z"/><path class="af" d="M6.14,32.21c-.1-.2-.14-.27-.18-.35-.19-.24-.29-.36-.34-.4-.12-.11-.23-.17-.26-.17l-.03,.27c-.41-.26-.5-.54-.9-.53-.02-.1-.15,.32-.54-.36-.05,.15-.11,.24-.18,.25-.29-.15-.27,.14-.41-.02,.05,.2-.37-.15-.36-.05-.11-.07-.73-.03-.87,.11-.14,.13-.26,.3-.26,.3,0-.03-.65,.3-.65,.33-.14,.29-.19,.41-.24,.53-.1,.24-.2,.54-.2,.54l.16,.16c-.43,.11-.14,.57-.43,.85,.06,.57,.09,.76,.13,.85,.07,.24,.17,.46,.29,.68,.25,.43,.59,.84,1.07,1.2,.02,.08,.13,.14,.24,.19,.21,.1,.4,.09,.52,.07,.15-.01,.22-.04,.32-.05,.28-.05,.34-.06,.52-.08,.26-.2,.53-.16,.72-.19,.47-.23,.72-.59,.92-.92,.21-.34,.37-.63,.66-.99,.43-.3,.22-.91,.35-1.61,.04-.04,.04-.16,.01-.32-.02-.08-.04-.17-.08-.27Z"/><path class="an" d="M5.82,46.28c-.05-.36-.28-.57-.54-.72-.26-.16-.54-.27-.79-.48-.02-.11-.38-.24-.76-.28-.38-.06-.74-.02-.79,.02l.16,.22c-.43,.08-.7-.11-1.01,.16-.15,.18-.28,.18-.71,.1,.07,.14,.09,.25,.02,.32-.03-.02-.08,0-.12,.03l-.07-.02s-.03,.05-.05,.11c0,.01-.04,.03-.04,.04-.11,.07-.05,.15-.07,.23,0,.02-.01,.03-.02,.04-.02,.03-.05,.05-.11,.08,.04,0,.06,.02,.07,.03-.04,.11-.07,.2-.07,.2,0-.02-.52,.42-.52,.44,0,0-.11,.37-.16,.75-.05,.38-.03,.76-.03,.76l.21,.11c-.36,.3,.06,.71,.05,1.29,.24,.06,.14,.11,.13,.16,.18,.26,.28,.37,.36,.45,.14,.13,.3,.24,.42,.31,.23,.12,.47,.21,.71,.26,.49,.1,.97,.1,1.44,.1,.11,.1,.37-.07,.47,.02,.25-.35,.51-.53,.78-.73,.16-.32,.44-.41,.63-.57,.42-.53,.63-1.18,.66-1.75,.03-.58-.07-1.1-.26-1.66Z"/><path class="am" d="M10.42,59.63c-.3-.52-.64-.91-1.07-1.31-.17-.27-.47-.35-.77-.36-.31,0-.61,.06-.92,.02-.06-.08-.41,0-.72,.22-.24,.2-.44,.42-.46,.49l.19,.13s-.02,.02-.04,.04c-.05,.03-.11,.06-.17,.1-.07,.04-.12,.11-.19,.16-.06,.03-.12,.09-.17,.15,0,.01-.03,.02-.04,.03-.06,.07-.09,.12-.13,.19-.08,.1-.21,.15-.56,.19,.09,.11,.1,.22,.07,.3h0s-.07,.07-.11,.1c-.02,.02-.04,.02-.06,.05-.09,.09-.16,.16-.16,.16,0,0-.21,.5-.24,1.03-.02,.26,0,.52,.03,.72,.06,.29,.32,.45,.32,.45-.2,.58,.41,.79,.51,1.25,.23-.04,.15,.03,.15,.07,.44,.37,1.02,.56,1.58,.55,.57,0,1.12-.16,1.69-.38,.15,.05,.43-.23,.58-.21,.2-.47,.46-.81,.68-1.19,.05-.41,.31-.69,.41-.97,.15-.79-.08-1.48-.37-1.98Z"/><path class="ap" d="M20.42,71.32c-.43-.73-1-1.17-1.58-1.62-.21-.27-.56-.38-.9-.42-.35-.05-.7-.05-1.07-.16-.07-.09-.49-.09-.92,.04-.43,.12-.81,.38-.85,.46l.26,.11c-.45,.34-.82,.37-1.03,.85-.06-.04,0,.05-.03,.17-.04,.12-.18,.23-.63,.48,.13,.09,.19,.2,.16,.31-.11,0-.16,.27-.16,.27-.1,.16,.19,.17-.01,.37,.22-.05,.11,.13,.22,.11-.1,.18-.03,.43,.08,.48-.01-.02,.04,.42,0,.99-.02,.29,0,.63,.05,.91,.05,.28,.14,.49,.14,.49,.28,.34,.35,.53,.47,.71,.25,.26,.4,.38,.48,.43,.38,.22,.75,.29,1.03,.46,.2-.16,.18-.06,.22-.02,.77,.03,1.31-.23,1.77-.45,.48-.24,.92-.52,1.38-.8,.16,.02,.33-.27,.48-.26,.06-.42,.27-.74,.43-1.08,.01-.37,.24-.61,.34-.86,.13-.64-.01-1.36-.36-1.97Z"/><path class="ao" d="M31.71,78.67c0-.16-.06-.32-.16-.47-.05-.07-.11-.15-.18-.22-.41-.34-.57-.42-.74-.52-.17-.1-.34-.19-.51-.31-.04-.11-.47-.24-.9-.21-.43,.02-.84,.2-.89,.27l.23,.16c-.13,.06-.22,.1-.35,.15-.42,.17-.57,.25-.68,.45-.05-.05,0,.05-.04,.14-.05,.1-.17,.17-.61,.27,.11,.11,.16,.22,.13,.3h0c-.07,.04-.15,.09-.24,.16-.18,.13-.33,.28-.33,.28,0,.02-.16,.36-.26,.8-.05,.22-.08,.47-.09,.67,0,.2,0,.34,0,.34l.22,.14c-.34,.49,.3,1,.39,1.49,.24-.01,.15,.05,.15,.1,.44,.45,1.02,.69,1.6,.76,.16,.02,.27,.03,.47,.03,.02,0,.25,0,.39-.02,.27-.03,.53-.07,.78-.12,.14,.07,.38-.13,.5-.06,.17-.36,.4-.56,.63-.79,.1-.32,.36-.44,.51-.58,.32-.57,.33-1.11,.28-1.63-.07-.53-.16-.96-.31-1.57Zm-2.66,1.33h-.01s0,0,.01,0Z"/><path class="ar" d="M65.4,78.25c0-.11-.32-.35-.68-.46-.36-.12-.72-.12-.78-.08l.13,.24c-.44,.03-.68-.18-1.02,.06-.17,.17-.3,.16-.72,.02,.04,.13,.04,.22,0,.28-.12-.08-.23-.16-.24-.15-.02-.01-.52,.65-.49,.66,0-.02-.64,.34-.64,.37,0,0-.22,.38-.33,.83-.13,.45-.12,.94-.12,.94l.21,.14c-.37,.39,.17,.88,.12,1.31,.38,.55,.81,.89,1.25,1.12,.45,.23,.91,.35,1.36,.46,.08,.13,.37,.03,.44,.14,.64,.08,6.66-2.21,1.5-5.88Z"/><path class="aq" d="M79.19,72.09c-.05-.36-.32-.65-.64-.85-.32-.21-.66-.36-.99-.6-.02-.08-.25-.17-.54-.22-.02-.02-.05-.06-.05-.06,0,0-.12,0-.28,.03-.01,0-.03,0-.04,0-.43,0-.85,.12-.91,.18l.14,.12c-.15,.09-.26,.16-.24,.15-.2,.03-.32,.06-.44,.1-.22,.06-.44,.15-.44,.15,0,0-.16,.15-.34,.37-.09,.01-.17,.03-.32,.02,.09,.13,.11,.25,.06,.32-.09-.06-.22,.13-.22,.13-.14,.07,.11,.23-.13,.26,.09,.03,.1,.06,.1,.09-.16,.36-.23,.67-.23,.67l.16,.2c-.16,.12-.22,.28-.23,.47-.02,.34,.13,.67,.05,1.01,.22,.09,.11,.11,.09,.15,.41,1.2,1.61,1.98,2.85,2.22,.12,.13,.47,.04,.58,.14,.36-.28,.71-.4,1.07-.59,.25-.31,.59-.4,.82-.59,.28-.3,.45-.69,.53-1.06,.07-.36,.06-.69,.03-.98-.07-.57-.2-1.13-.47-1.82Z"/><g><path class="as" d="M85.86,63.03v-.02h0v.02Z"/><path class="ai" d="M88.27,61.14c-.03-.37-.92-.34-1.11-.59,0-.1-.29-.28-.64-.36-.07-.22-.23-.63-.25-.63,0,0-.24,.03-.45,.09-.22,.05-.42,.15-.42,.15,0,0-.19-.03-.39-.03-.2,0-.4,.03-.4,.03-.57,.4-.9,.89-1.1,1.45l.14,.22s-.02,.02-.03,.03c-.02,.01-.02,.03-.06,.03,.01,0,0,0,.01,.01-.32,.23-.14,.74-.4,1.05,.02,.66-.32,1.65-.09,2.07,.22,.39,.88,.93,1.38,1.32,.05,.17,1.33,.43,1.42,.41,.2-.03,4.11-.8,2.4-5.23Z"/></g><path class="ah" d="M91.64,46.46s-.32-.06-.62-.03c-.3,.02-.56,.1-.56,.1,0,0-.22-.05-.46-.05-.23-.01-.47,.02-.47,.02,0,0-.53,.27-.87,.65-.36,.38-.56,.78-.56,.78l.11,.23c-.25,.08-.34,.31-.39,.53-.05,.23-.07,.44-.23,.64,.17,.14,.06,.12,.02,.15-.11,1.13,.41,2.02,.92,2.77,.08,.2,.24,.29,.23,.4,.38,0,.65,.1,.93,.19,.32-.07,.51,.12,.71,.17,.57,.02,2.78-.47,3.09-.98,2.37-3.94-1.86-5.56-1.86-5.56Z"/><path class="ak" d="M94.26,35.87c.07-.09-.01-.65-.22-1.1-.21-.46-.52-.75-.59-.76,0,0-.49-.36-.91-.4-.23,.02-.34-.08-.65-.45-.03,.15-.1,.25-.18,.25-.39-.14-.32,.15-.51,0,.09,.2-.22,.09-.27,0-.11-.22-.25-.41-.25-.41,0,0-.16,.05-.36,.15-.2,.1-.38,.25-.38,.25,0,0-.21,.03-.42,.12-.21,.08-.41,.21-.41,.21,0,0-.08,.11-.18,.28-.1,.16-.21,.44-.27,.66-.12,.45-.14,.7-.14,.7-.02,.2-.04,.33-.06,.59-.01,.23,0,.45-.14,.68,.19,.1,.07,.11,.04,.14,.02,1.14,.64,1.91,1.15,2.65,0,.16,.24,.25,.24,.39,.35-.03,.62,.07,.89,.16,.3-.07,.5,.1,.68,.15,.54,.01,1.05-.25,1.46-.61,.42-.37,.74-.77,1.11-1.3,.25-.19,.34-.59,.35-1.01,.01-.43-.05-.87,0-1.35Z"/><path class="al" d="M90.78,22.74c-.08-.27-.67-.62-.7-.94,.03-.16-.14-.44-.38-.64-.23-.21-.52-.32-.58-.31l-.02,.25c-.39-.13-.48-.39-.88-.32-.02-.1-.14,.34-.58-.28,0,.03-.02,.02-.03,.05-.09-.14-.17-.26-.17-.26,0,0-.36,.06-.64,.21-.28,.14-.49,.32-.49,.32,0,0-.22,.06-.44,.15-.22,.09-.43,.24-.43,.24-.3,.49-.37,.69-.44,.91-.13,.44-.14,.78-.14,.78l.19,.12c-.39,.22,0,.53-.26,.82,.08,.49,.2,.96,.44,1.41,.06,.11,.12,.23,.19,.34,.15,.21,.2,.28,.26,.35,.18,.22,.38,.41,.59,.59,.03,.16,.37,.24,.43,.38,.44-.08,.87-.04,1.34-.13-.01,.02,.19-.07,.19-.07,.07-.01,.12-.06,.19-.1,.22-.07,.34-.08,.44-.12,.48-.3,1.2-.54,1.38-1.07,.18-.54,.38-.78,.55-1.35,.17-.28,.07-1.08,0-1.35Zm-3.26,0h0Z"/><path class="aj" d="M82.79,11.84c.07-.07,0-.41-.16-.74-.16-.32-.43-.63-.5-.65,0,0-1.98-1.81-2.01-1.81,0,0-.24-.03-.57,0-.16,.01-.35,.04-.5,.08-.15,.04-.26,.08-.26,.08,0,0-.09,0-.24,.04-.15,.03-.36,.11-.56,.23-.09,.06-.2,.14-.26,.19-.31,.32-.38,.4-.38,.4,0,0-.1,.22-.15,.4-.04,.17-.07,.32-.11,.51-.07,.36-.09,.72-.09,.72l.19,.13c-.4,.25,0,.65-.26,.97,.13,.99,.61,1.83,.96,2.65-.05,.14,.19,.32,.15,.46,.39,.09,.66,.32,1.03,.52,.42,.04,.77,.28,1.13,.32,.41-.03,.6-.08,.71-.13,.23-.09,.43-.22,.59-.35,.33-.28,.53-.58,.67-.86,.27-.54,.38-1.08,.56-1.55,.34-.44-.05-.99,.06-1.6Z"/><path class="ab" d="M69.49,2.61s-1.29-.56-1.3-.78c-.01-.24-.09-.48-.09-.48,0,0-.44-.16-.82-.13-.38,0-.72,.15-.72,.15,0,0-.28,0-.55,.06-.26,.05-.49,.14-.49,.14,0,0-.11,.09-.24,.22-.13,.13-.27,.3-.38,.45-.23,.31-.4,.65-.4,.65l.12,.2c-.47,.08-.26,.6-.6,.8-.05,.33-.12,.62-.11,.99,0,.14,.04,.38,.04,.38,.06,.22,.1,.35,.15,.47,.04,.09,.08,.17,.13,.26,.39,.65,.86,.93,1.19,1.24,.02,.15,.29,.19,.3,.32,.33-.1,.6-.03,.82,.03,.24-.08,.42,.1,.62,.18,.27,.04,.6,.01,.92-.09,.37-.12,.68-.3,.97-.56,.28-.24,.58-.68,.7-1.04,.17-.51,.16-.85,.18-1.19,.16-.69-.31-2.25-.43-2.25Zm-2.11,2.5s0-.02,0-.03c0,.03,.01,.05,0,.03Z"/><path class="aa" d="M48.97,3.32c.09-.32,.15-.1,.27-.27,0,.1,.02-.39,.2,.21,.15-.14,1.26-.92,1.31-.76-.02-.21-.51-1.67-.52-1.43,0,.13-1.65-.18-1.68-.3-.13-.07-.16-.22-.14-.32-.11,.16-.11,.16-.21,0-.09,.02-.16-.07-.19-.26-.02,.16-.04-.1-.05,.14-.13-.01-.14,.32-.16,.29l-.02-.24c-.13,.02-.14-.19-.12-.37-.02,.22-.01,.14-.04,.25-.04,.06-.05,.33-.05,.34-.24-.25-.28,0-.34,.03-.01-.25,0,.07-.02,0-.02,.05-.03-.2-.04-.27-.05,.09-.04-.1-.03-.2-.07-.08-.11,.18-.11,.18,.03-.11,.02,.15,.02,.15-.11,.07-.13,.16-.15,.08-.15-.11-.19-.41-.19-.14-.02-.14-.07,.1-.06-.2-.06-.02-.09,.27-.16,.12-.03-.25-.1-.17-.14-.2-.09,.11-.15,.2-.24,.28-.06-.35-.14,.12-.2-.08-.06-.08-.12,.19-.17-.03-.03,.15-.06,.22-.06,.05-.21,.46-.26-.15-.39,.24-.06-.41-.08-.06-.11,.02-.02-.27-.08,.25-.05,0-.12-.22-.27,0-.4-.1-.12-.09-.15,.22-.16,.23-.07-.08-.1,.19-.14,.07-.01-.24-.11,.24-.12-.04-.05-.17-.6,.35-.66,.18-.91,.28-.22,1.64-.22,1.64l1.01,.47,.22,.29,.54-.1c.14,.16,.28-.26,.39,0,.34-.09,.64-.33,.91-.1,.03,.12,.1,.05,.12,.17,.09-.22,.18-.22,.27-.19,.08-.12,.16,.03,.21,.1,.33,.05,.63-.28,.96-.03,.15,.29,.33-.11,.51,.13,.03,.18,.39,.04,.42-.04Z"/><path class="ac" d="M36.89,86.34c.43-.19,.3,.11,.61,.05-.06,.13,.36-.42,.1,.46,.36-.01,.56-.39,.51-.14,.12-.27,.12-.13,.19-.27,0,.13,.13,.1,.21-.03,0,0,.13-.63,.27-.92-.03-.15,.32-.81,.33-.82,0-.13,.13-.25,.21-.36,.02-.14,.53-.63,.27-.4-.15,.12-.34,.28-.44,.37,.15-.2-.39,.23-.39,.23,.11-.12,.36-.33,.18-.2,.54-.41,.01-.05,.12-.14,.31-.22,.38-.26,.51-.36,.07-.08,.26-.18,.38-.25-.04-.03,.08-.09,.32-.18-.22,.08,.13-.05-.19,.06,0-.02-.45,.12-.4,.09l.33-.1s.26-.09,.51-.15c-.31,.07-.2,.05-.35,.08-.08,.01-.47,.09-.48,.09,.3-.14-.15-.09-.06-.1-.07,0,.28-.03,.39-.05-.13,0,.14-.02,.29-.03,.11-.01-.25,0-.25,0,.16,0-.21,.01-.21,.01-.1-.03-.23-.03-.12-.04,.16-.05,.59-.04,.2-.06,.21,0-.14-.03,.28,0,.2-.04,.08-.07,.12-.08-.15-.05-.28-.09-.39-.15,.5,.07-.16-.09,.13-.07,.12,0-.26-.12,.06-.07-.2-.07-.31-.11-.06-.05-.61-.28,.24-.08-.27-.3,.57,.14,.09-.02,0-.07,.38,.11-.33-.16,0-.04,.32,.03,.05-.17,.22-.21,.15-.04-.26-.21-.27-.22,.12-.01-.22-.16-.06-.14,.33,.12-.29-.2,.08-.06,.12-.09-.97-.61-.97-.61l-1.24-.45-1.03-.31,.13,.3-.46,.04-.04,.54c-.26,.08,.28,.38-.11,.4,.02,.4,.3,.8-.06,1.09-.17,.02-.08,.13-.26,.14,.3,.14,.3,.25,.27,.37,.18,.12-.04,.22-.13,.32-.03,.52,.51,.82,.35,1.39-.3,.39,.35,.4,.19,.82-.2,.19,.35,.61,.49,.56Z"/><path class="au" d="M47.52,80.23l-.02-.32c.31-.08,.37,.25,.67,.07-.01,.14,.18-.54,.36,.39,.39-.11,.48-.53,.53-.27,.03-.3,.1-.16,.13-.31,.07,.13,.21,.08,.29-.05,0,0-.1-.67-.09-1-.02-.14,.03-.32,0-.38-.21,.22-.26-.57-.32-.59-.3-.18-.2-.33-.23-.48-.12-.26-.18-.57-.27-.27-.07-.17-.05-.29-.09-.32-.1,.36-.23-.39-.32-.06-.05,.18-.08,.43-.15,.56-.15-.1-.23-.26-.32-.31l-.03,.7c-.04-.17-.12-.52-.18-.3-.08-.7-.15-.07-.18-.21-.02-.39-.04-.47-.07-.65-.22,.19-.31,.37-.4,.08-.02-.09,.17-.15,.29-.14-.21-.09-.25-.32-.19-.45-.32,.19-.32,.2-.56-.06-.26,0-.41-.14-.5-.41-.07,.23-.1-.14-.14,.19-.37-.03-.39,.45-.45,.39l-.05-.35c-.11-.2-.13,.15-.29,.15-.08-.12-.12-.42-.07-.69-.07,.32-.03,.21-.12,.36-.11,.08-.12,.48-.14,.5-.7-.31-.79,.07-.95,.11-.08-.35,.02,.1-.06,.02-.05,.08-.12-.27-.17-.37-.13,.15-.13-.12-.14-.27-.23-.07-.29,.31-.29,.31,.05-.17,.1,.2,.1,.2-.29,.16-.33,.3-.41,.2-.46-.06-.68-.43-.57-.07-.11-.19-.15,.2-.24-.23-.19,.02-.15,.45-.42,.32-.2-.32-.36-.13-.51-.11-.2,.25-.31,.45-.51,.68-.39-.37-.29,.35-.59,.2-.22-.01-.16,.42-.48,.26,.04,.23,.03,.38-.12,.17-.15-.24-.06,.16-.24,.02,.16,.88-.56,.35-.44,1.02-.18-.25,.06,.16-.18-.06-.36-.22-.06,.19-.03,.32-.34-.21,.12,.42-.1,.13-.47,.07-.5,.63-.83,.89,.03,.12,.07,.29-.11,.27-.19-.01,.15,.28,.15,.31,.12,.16-.23,.06-.2,.03,0,.11,.3,.34,.11,.38-.34-.11,.18,.44-.18,.29-.29,.06,.1,.36-.19,.43-.05-.03,.21,.15,.47,.32,.27,.16,.53,.32,.53,.32l1.29,.31s.27,.04,.54,.07l.54,.1s-.05-.48-.05-.48c0-.01,.53-.1,.53-.1-.02,0,.34-.73,.36-.72,.3,0,.04-.58,.42-.4,.3-.4,.64-.95,1.2-.8,.1,.15,.19,0,.28,.17,.05-.34,.21-.38,.37-.39,.11-.21,.29,0,.4,.07,.57-.01,1.15-.51,1.79-.11,.26,.44,.67-.1,.98,.3,.02,.26,.77,.2,.87,.1Z"/><path class="at" d="M50.22,90.37l-.22-.27c.44-.25,.74,0,1.08-.35,.08,.12-.09-.55,.8,.07-.04-.22-.03-.38,.05-.43,.43,.05,.27-.34,.52-.17-.16-.26,.03-.2-.04-.33,.18,.05,.35-.1,.34-.26,0,0-.61-.44-.81-.71-.13-.1-.19-.28-.24-.31-.11,.32-.68-.29-.76-.27-.13-.16-.16,.1-.29,.03-.17,0-.14-.2-.25-.3-.12-.07,.07,.17,.03,.19-.31-.35-.54-.58-.49-.28-.17-.11-.2-.23-.26-.23,.05,.37-.45-.24-.39,.1,.02,.19,.1,.43,.07,.58-.23-.02-.39-.13-.52-.14l.26,.66c-.13-.14-.37-.42-.35-.2-.37-.62-.21,0-.31-.12-.16-.36-.21-.43-.31-.58-.2,.25-.26,.45-.45,.2-.05-.08,.15-.19,.3-.22-.28-.03-.38-.23-.34-.38-.31,.26-.32,.28-.64,.07-.29,.05-.48-.07-.61-.33-.05,.23-.12-.13-.13,.21-.41,0-.4,.48-.47,.43l-.07-.35c-.12-.2-.14,.15-.31,.15-.08-.13-.12-.42-.06-.69-.07,.32-.03,.21-.13,.36-.12,.08-.15,.47-.18,.49-.65-.39-.79-.04-.94-.03,.03-.36-.01,.1-.05,0-.06,.06-.02-.29-.02-.41-.13,.11-.04-.15,0-.3-.08-.13-.26,.19-.26,.19,.09-.14-.02,.22-.02,.22-.24,.02-.34,.12-.34,0-.23-.29-.1-.71-.29-.37,.07-.2-.21,.04,.03-.31-.1-.1-.4,.2-.43-.08,.16-.33-.06-.35-.14-.46-.29-.04-.52-.05-.82-.15,.2-.5-.47-.17-.41-.5-.04-.19-.43-.02-.3-.33-.2,.09-.33,.12-.14-.05-.43,.03-.44-.09-.4-.18,.03-.1,.08-.16-.21-.15,.53-.26,.04-.14-.08-.17,.38-.11-.39-.07-.03-.09,.27-.23-.05-.51,.15-.8-.08-.07-.19-.2,0-.22,.18-.02-.23-.19-.24-.23,.15-.14-.18-.33,.01-.38,.33,.09-.2-.42,.16-.27,.28-.02-.09-.36,.22-.38,.05,.03-.18-.18-.4-.41-.21-.24-.42-.47-.42-.47l-1.19-.59s-.29-.05-.57-.09c-.29-.03-.58-.06-.58-.06-.03,0-.32,1.23-.29,1.23-.01-.03-.7,.86-.69,.89,0,0-.11,.66-.08,1.38,.01,.71,.24,1.46,.24,1.46l.35,.13c-.33,.74,.59,1.24,.66,1.89,.32-.03,.19,.06,.19,.12,.53,.57,1.06,.86,1.46,1.14,.43,.3,.84,.64,1.2,1.09-.01,.2,.32,.31,.31,.51,.5-.06,.85,.14,1.23,.34,.44,0,.7,.32,.97,.48,1.67,.44,2.65-.16,3.92,.16,.61,.38,1.22-.26,1.91-.01,.16,.25,1.46-.19,1.54-.34Z"/><path class="av" d="M52.23,84.71l.27,.18c-.19,.33-.5,.16-.63,.54-.1-.11,.24,.52-.66,.05,.09,.2,.12,.36,.06,.42-.39,0-.16,.36-.42,.23,.19,.23,0,.19,.1,.32-.18-.03-.31,.13-.28,.29,0,0,.64,.37,.88,.59,.14,.08,.23,.24,.29,.27,.05-.33,.74,.15,.82,.11,.18,.13,.15-.14,.29-.11,.18-.05,.19,.15,.34,.21,.15,.02-.12-.14-.08-.18,.42,.23,.74,.35,.6,.08,.22,.03,.29,.13,.36,.1-.19-.31,.59-.02,.4-.31-.1-.17-.28-.33-.32-.49,.25-.11,.46-.12,.59-.19l-.58-.41c.19,.05,.57,.13,.43-.05,.71,.24,.2-.14,.36-.13,.37,.15,.47,.17,.66,.19-.12-.13-.15-.24-.08-.3,.11-.09,.02-.27,.36-.3,.11,0,0,.3-.12,.47,.15-.04,.16-.21,.22-.26,.05,0,.29,.02,.37,.16,.09-.56,.08-.55,.49-.87,.16-.43,.39-.67,.69-.81-.19-.16,.19-.18-.13-.29-.04-.25-.16-.32-.01-.4,.15-.21-.2-.05-.03-.26,.18-.06-.3-.11-.24-.22l.36-.09c.2-.21-.14-.26-.16-.56,.11-.15,.4-.27,.67-.18-.33-.12-.21-.05-.39-.22,.41-.21,.15-.1,.13-.23-.25,0-.65,.04-.67,.01-.22-.03-.3-.14-.22-.3,.15-1.02-.28-1.06-.45-1.28,.27-.24-.08,.06-.06-.09-.12-.06,.16-.27,.21-.4-.26-.13,0-.25,.13-.32-.34,0-.07-.21-.28-.22,.13-.14-.29-.07-.29-.07,.21,0-.09,.23-.09,.23-.3,.09-.09-.16-.23-.16-.05-.08,.06-.19,.06-.31-.26,.16-.43,.18-.42,.03-.05-.28-.34-.6-.34-.6-.09,.04,0-.42-.21-.1,.05-.22-.34-.05-.07-.39-.23-.19-.56,.1-.75-.23,.06-.38-.29-.42-.46-.53-.43-.02-.71,.03-1.11,.03-.07-.56-.58,.01-.73-.32-.19-.17-.5,.16-.64-.19-.16,.18-.3,.27-.24,.02,.08-.27-.18,.06-.2-.17-.65,.68-.7-.22-1.23,.26,.11-.29-.11,.14-.06-.18-.04-.43-.22,.06-.33,.15-.01-.4-.33,.32-.19-.02-.37-.37-.97-.12-1.46-.3-.11,.08-.28,.2-.37,.02-.09-.18-.23,.26-.26,.28-.11,.18-.2-.19-.15-.17-.12,.05-.23,.43-.39,.26-.06-.35-.43,.35-.44-.05-.22-.24-.39,.25-.62,.01,0-.06-.08,.25-.16,.56-.07,.31-.14,.62-.14,.62l.26,1.3s.1,.26,.2,.52c.09,.26,.19,.52,.19,.52,0,0,.19-.07,.37-.14l.39-.12,.62,.44s.39-.01,.8,0l.83,.04,.17-.28c.24,.57,.79,.05,1.08,.49,1.06,.07,2.01,0,2.42,.58-.03,.18,.17,.17,.1,.35,.31-.18,.47-.05,.57,.08,.24-.01,.18,.25,.16,.38,.12,.23,.3,.36,.4,.52,.1,.14,.12,.38-.13,.56-.44,.04-.08,.59-.59,.66-.12-.05-.23,.05-.36,.22-.12,.16-.26,.36-.25,.44Z"/><path class="aw" d="M54.78,83.28c-.24-.03,.12-.16-.22-.11-.08-.42-.55-.3-.51-.37l.31-.16c.15-.17-.18-.08-.24-.23,.09-.12,.35-.27,.61-.31-.33,.05-.21,.04-.39,.01-.12-.08-.49,.07-.51,.06-.02-.75-.38-.66-.49-.76,.27-.24-.08,.06-.04-.04-.09,0,.18-.23,.24-.33-.19-.03,.04-.17,.17-.26-.05-.23-.4-.08-.4-.08,.17-.05-.12,.19-.12,.19-.27-.14-.4-.09-.36-.21-.17-.38,.03-.76-.21-.47,.1-.19-.22,0,.07-.31-.11-.12-.42,.15-.44-.12,.16-.34-.06-.35-.15-.44-.28,0-.48,.05-.73,.05,.11-.52-.38,0-.39-.31-.08-.16-.36,.15-.36-.19-.14,.17-.25,.25-.16,.01-.26,.2-.38,.15-.47,.08,0-.01,0-.03,.02-.04l-.02,.04c-.13-.1-.2-.28-.43,0,.11-.28-.09,.14-.01-.18,.04-.42-.14,.06-.22,.15,.05-.39-.24,.32-.11-.01-.17-.36-.53-.1-.77-.29-.18-.13-.29,.13-.34,.23,0-.05,0-.07-.01-.1,0-.12,.03-.24,.05-.35-.05,.17-.06,.22-.07,.25-.04-.04-.08-.04-.12-.07-.14,.12-.24,.22-.36,.32,0,0,0,0,0-.01-.01-.06-.03-.07-.06-.07-.05-.18-.2,.22-.24-.03-.03-.05-.06-.02-.1,.02-.07,.05-.04-.15-.03-.29-.12-.12-.22,.24-.22,.24,.02-.04,.01,0,.02,.03-.25,.46-.31,.09-.42,.11-.1-.16-.14-.29-.15-.07,0-.01,0,0-.01-.01-.03-.09-.1,.12-.07-.26-.11-.04-.18,.38-.3,.16-.04-.37-.18-.25-.26-.29-.17,.15-.28,.29-.45,.42-.13-.5-.26,.19-.39-.09-.12-.11-.2,.29-.35,0-.04,.22-.09,.34-.12,.08-.27,.65-.54,.05-.68,.41-.02-.03-.18-.2-.35-.39-.19-.2-.39-.4-.39-.4-.02,0-.46,.6-.44,.6,0,0-.17,0-.35,.02-.18,.02-.35,.05-.35,.05,0,0-.23,.28-.42,.58-.19,.3-.34,.62-.34,.62-.28,.16-.17,.5-.24,.72l-.69-.42-.18,.58s-.64,.13-.64,.14c0,0-.17,.28-.34,.65-.18,.36-.32,.88-.32,.88-.1,.68-.09,.79-.09,.93,.02,.28,.09,.53-.05,.82,.27,.82,.68,1.37,1.13,1.76,.11,.1,.22,.19,.34,.28,.1,.08,.19,.14,.29,.22,.26,.19,.41,.31,.61,.49,.02,.2,.32,.2,.33,.39,.29-.15,.5-.15,.71-.12,.76,.26,1.44,.3,1.92,.65,.04,.18,.27,.12,.29,.3,.28-.27,.5-.25,.72-.2,.22-.16,.38,.07,.51,.17,.78,.11,1.46-.39,2.24-.09,.4,.39,.74-.23,1.19,.05,.12,.25,.91-.09,.95-.23l-.16-.29c.12-.09,.23-.08,.33-.08,.02,.1,.05,.22,.05,.29,.17-.27,.16-.28,.42-.1,.18-.08,.35,0,.52,.22-.04-.23,.13,.1,.03-.22,.29-.1,.09-.54,.16-.51l.19,.29c.17,.14,.03-.18,.14-.24,.11,.08,.28,.32,.37,.58-.1-.31-.08-.2-.08-.37,.04-.12-.15-.47-.14-.49,.58-.01,.53-.29,.57-.42,.09,.06,.19,.16,.28,.27-.2-.26-.13-.16-.21-.3,0,0-.03-.03-.03-.04,0,0,0-.01,0-.01,0-.09,.23,.17,.33,.23,0-.18,.17,.04,.26,.16,.21-.05,.03-.38,.03-.38,.07,.16-.19-.11-.19-.11,.05-.11,.05-.19,.06-.25,.02,.02,.04,.03,.06,.05,.06,0,.03-.05-.01-.1,.01-.01,.01-.04,.05-.03,.34-.17,.74-.01,.43-.23,.2,.08-.03-.21,.32,.04,.08-.09-.06-.26-.04-.36,.04-.01,.05-.03,.05-.05,.02-.01,.02-.03,.05-.04,.36,.11,.34-.12,.42-.22-.04-.29-.12-.45-.15-.75h.01s-.01-.02-.02-.03c0,0,0-.01,0-.02,.25-.09,.24-.13,.19-.17,.11-.1,.25-.15,.35-.1-.19-.35-.2-.34,.04-.63-.03-.28,.08-.48,.32-.65Zm-7.8-4.39s-.01-.02,0-.08c0,.04,0,.03,0,.08Z"/><g><path class="ax" d="M41.82,83.1c.77-.19,1.81,.71,2.89,1.23,1.58,.76,3.31,1.43,5.53,1.8v.53c-3.12-.37-6.48-1.62-8.43-3.56Z"/><path class="ax" d="M44.23,81.01c1.79,1.03,4.28,2.08,6.84,2.74,.03,.21-.13,.23-.14,.39-.12,.08-.24,.16-.26,0-1.29-.18-2.6-.63-3.69-1.11-1.04-.46-2.41-.89-2.75-2.02Z"/><path class="ax" d="M62,81.86c.55,.17,.81,.61,1.18,.94,1.94,.72,2.85-2.02,2.35-3.74,1.01,.3,.87,1.8,.51,2.68-.36,.91-1.46,1.77-2.42,1.81-.73-.38-1.52-.7-1.63-1.68Z"/><path class="ax" d="M51.75,82.71c-.08,.42,.24,.41,0,.66-1.06-.13-2.15-.58-3.03-.97-.82-.37-1.96-.71-2.23-1.62,1.86,.75,2.93,1.56,5.27,1.93Z"/><path class="ax" d="M26.66,81.08c.63,.25,.48,.84,1.09,1.12,1.36,.62,3.38-.38,3.34-1.79-.02-.67-.5-.68-.53-1.48,.77,.2,1.09,.8,1.08,1.58-.03,2.53-4.73,3.48-4.98,.57Z"/><path class="ax" d="M47.94,80.93c.96-.39,1.74,.53,2.5,.83,.58,.23,1.89,0,1.84,1.09-1.46-.63-3.08-1.1-4.34-1.91Z"/><path class="ax" d="M63.04,79.76c-.34,.59-.44,1.69,.25,1.94-1.09,.75-1.55-1.94-.25-1.94Z"/><path class="ax" d="M27.51,79.53c-.07-.62,.76-.92,1.02-.63-.14,.41-.53,.58-1.02,.63Z"/><path class="ax" d="M75.8,75.61c2.34,1.06,3.14-2.34,1.89-3.47-.52-.09-.7,.03-1.01-.29,1.37-1.05,2.4,.81,2.18,2.33-.22,1.49-1.87,3.06-3.06,1.43Z"/><path class="ax" d="M14.98,74.19c.49-.1,.69,.45,1.1,.57,1.54,.45,3-1.12,2.62-2.63,2.16,1.72-2.84,4.86-3.71,2.06Z"/><path class="ax" d="M75.37,73.67c.6,.18,.64,.89,1.18,1.12-.78,.39-1.38-.57-1.18-1.12Z"/><path class="ax" d="M15.93,72c-.05-.62,1.04-1.12,1.3-.53-.68-.08-.61,.62-1.3,.53Z"/><path class="ax" d="M5.85,62.09c.61,.06,.71,.63,1.28,.75,1.37,.3,2.97-.99,2.71-2.54,2.03,2.01-3.2,4.53-3.98,1.78Z"/><path class="ax" d="M84.8,64.23c.01,.2-.33,.04-.46,.09-.08-.24-.37-.59-.17-.83,.47,0,.38,.54,.63,.75Z"/><path class="ax" d="M6.89,60.18c.32-.42,.81-.73,1.39-.62-.49,.16-.87,.78-1.39,.62Z"/><path class="ax" d="M90.51,51.24c-.53-.03-.93-.46-.72-.93,.3,.01,.36,.73,.64,.47,.13,.11,.2,.35,.09,.46Z"/><path class="ax" d="M1.36,47.85c.55,0,.24,.48,.36,.74,1,1.44,3.09,.46,3.51-.96,1.17,2.01-4.38,3.49-3.87,.22Z"/><path class="ax" d="M2.94,46.86c.13-.73,1.11-.72,1.48-.26-.55-.01-1.03,.47-1.48,.26Z"/><path class="ax" d="M90.35,37.06c-.66-.07-.42-1.09-.25-1.48,.18,.36,.33,1.16,.25,1.48Z"/><path class="ax" d="M2.32,32.49c.13-.71,.83-.65,1.39-.72,.11,.23,.15,.52,.45,.56-.46-.03-1.24,.23-1.84,.16Z"/><path class="ax" d="M86.95,23.58c-.26,.07-.24-.13-.46-.1,.06-.49-.27-.87,.29-.92-.11,.5,.24,.55,.17,1.01Z"/><path class="ax" d="M7.56,19.77c.02-.58,1.87-.94,1.75,.03-.44-.12-1.45,.23-1.75-.03Z"/><path class="ax" d="M80,13.9c2.12-.3,1.36-3.14,.05-3.68,.04-.46,.67-.2,.74-.17,1.47,.61,1.53,4.66-.79,3.85Z"/><path class="ax" d="M79.11,11.59c-.41,0-.38-.42-.36-.83,.36,.08,.45,.57,.36,.83Z"/><path class="ax" d="M16.08,9.86c-.08-.04-.16-.08-.18-.19,.07-.6,1.85-.72,1.75,.12-.67-.06-1-.18-1.57,.07Z"/><path class="ax" d="M25.37,4.01c.41,.36-.05,.67-.01,.92,.21,1.61,1.91,1.52,3.3,1.15-1.14,2.04-4.89-.13-3.28-2.07Z"/><path class="ax" d="M66.13,5.61c-.8,.02-1.02-1.66-.25-1.84-.22,.89,.41,1.3,.25,1.84Z"/><path class="ax" d="M27.86,3.59c-.33-.46-1.01-.14-1.38-.2,.07-.08,.1-.21,.1-.37,.52-.24,1.34-.05,1.28,.57Z"/><path class="ax" d="M58.1,83.06c.43-.48,.66-2.36-.49-2.65-.41-.22-.38,.65-.53,.26-.29-.47,.06-1.43-.5-2.12-.51-.38-1.52-.95-2.11-.82h-.13c.65-.97-2.02-1.97-2.9-1.1-.38-.95-2.47-1.76-3.3-.71-.64-1.1-2.28-.89-3.44-.31-.04,.23,.41,.72-.14,.66-.4,.4-.16-.4-.39-.54-1.19-.66-1.93-.18-2.79,.49-.46,.54,.14,.96-.01,.93-.63-1.46-3.18-.51-3.71,.47-.25,.91,.21,.49,.25,.8-1.62,.16-1.99,1.98-1.77,3.29-.72-.61-1.28,2.12-.56,2.11,.42,2,1.18,4.64,3.77,4.95,.25,1.46,2.51,2.84,3.82,1.64,.74,1.1,3.18,1.53,4.1,.32,1.02,.71,3.17,1.27,3.84-.08,.79,.56,1.95,.09,2.78-.09,.47-1.99,3.82-1.7,3.11-4.46,1.04-.14,1.58-.8,1.49-2.1,.25-.07,.03-1.01-.38-.93Zm-22.5,.34c-.22-.17-.26-.53-.52-.67-.06-.51,.47-.41,.67-.65,.3,.27-.27,.79-.15,1.32Zm20.7-3.54c-.36-.43-.71-.88-1.17-1.21,.57-.29,1.17,.51,1.17,1.21Zm-2.48-2.42c-.27,.22-.95-.29-1.45-.29,.65-.31,.95,.02,1.45,.29Zm-6.6-1.28c-.42,.27-1.24-.19-1.99-.03,.28-.42,1.71-.35,1.99,.03Zm-3.57,.08c-.36,.3-1.21,.1-1.46,.51-.15-.45,.85-.72,1.46-.51Zm-5.31,1.38c.74-.22,1.54-.65,2.39-.36-.51,.45-1.53,1.09-2.28,1.69-.35,.04,.13-.74-.39-.53-.01-.55,.6-.24,.28-.79Zm-.69,1.71c.16,.48-.79,.98-.95,1.57-.22-.54,.47-1.3,.95-1.57Zm2.64,9.83c.89,.39,2.04,.54,2.9,.97-.85,.09-2.61-.07-2.9-.97Zm3.82,1.25c.6-.4,1.36,.15,2.12,.03-.61,.65-1.47,.33-2.12-.03Zm4.5,.2c.32-.3,1.19-.03,1.72-.11-.31,.35-1.26,.3-1.72,.11Zm3.05-.35c.68-.29,1.48-.44,2-.9,.26,.71-1.22,.81-2,.9Zm3.73-1.93c0-.23,.57-1.02,1.08-1.18-.11,.65-.63,.87-1.08,1.18Zm1.11-3.16c-.82,1.67-3.45,3.92-6.02,4.28-3.73,.52-9.81-.56-11.88-2.15-.64-.49-.98-1.45-1.56-2.01,.04-.69-.18-1.59-.24-1.99,.89-2.4,2.83-4.63,5.51-5.61,3.43-1.25,9.32-.51,11.63,1.09,1.42,.98,3.84,3.77,2.56,6.39Z"/><path class="ax" d="M91.87,46.48c.22-.84,.24-1.7,.41-2.76,.49-.14,1.21-.06,1.21-.72-.28-.31-.76-.41-1.19-.57,.06-.86,0-1.55,.04-2.58,3.16-.79,3.5-7.22-.91-6.92-.06-1.07-.22-1.58-.42-2.58,.44-.16,.9-.41,.84-.82-.44-.15-.45-.28-1.01-.2-.38-.93-.66-1.96-1.06-2.87,1.24-.78,2.08-3.21,.99-4.77-.9-.76-2.15-1.35-3.85-1.07-.34-1.03-.91-1.84-1.44-2.69,.27-.32,.63-.54,.57-1.19-.59-.08-.84,.19-1.29,.26-.72-.84-1.52-1.61-2.17-2.52,1.67-1.8,.12-4.59-1.39-5.64-1.69-.41-2.7,.38-3.61,1.05-.73-.65-1.7-1.07-2.37-1.78,.19-.08,.11-.64,.01-.74-.44-.24-1.17,.14-1.02,.26-1.26-.71-2.86-1.09-4.02-1.9,1.48-3.14-1.81-5.03-4.27-4.02-.88,.36-1.16,1.19-1.69,2-2.26-1.29-6-1.07-7.79-2.41-.32-.02-.39,.22-.65,.27-1.22-.35-2.52-.01-4.23-.24-.25,.12-.67,.06-.74,.36,.06-.39-.06-.61-.08-.92-2.48-.22-5.57-.46-7.73-.02-.2,.23-.21,.66-.38,.92-1.76-.15-3.35-.18-4.88,.3-.2-.17-.2-.53-.54-.56-.38,.11-.65,.33-.75,.73-.98,.06-1.64,.05-2.67,.24-.67,.12-3.2,1.26-3.52,1.15-.26-.09-.37-.73-.63-1.02-2.16-2.44-6.52-.41-5.48,3.79-.87,.2-1.56,.58-2.22,.98-.37-.19-.54-.56-1.1-.57-.05,.13-.15,.22-.28,.27-.12,.51,.26,.54,.26,.92-.49,.21-.91,.49-1.21,.9-2.53-3.31-8.39,1.21-5.22,4.34-.89,.49-1.34,1.43-2.15,2-.18-.22-.72-.28-1.01-.02-.08,.5,.26,.6,.36,.93-.65,.45-.96,1.25-1.5,1.82-1.16-.73-2.99-.26-3.97,.77-1.38,1.44-1.27,3.62,.11,5.06-.58,.74-.92,1.73-1.51,2.46-1.18-.44-1.21,1.01-.29,1.19-.5,.87-.69,1.84-.87,2.84-2.83,.28-4.46,5.18-1.38,6.33-.5,1.14-.47,2.77-.52,4.14-.21,.31-.72,.32-.75,.82,.1,.33,.53,.33,.73,.56-.01,1.23,.1,2.02,.23,2.95-2.85,.97-2.34,6.3,.92,6.46,.16,1.33,.63,2.63,.96,3.51-.26,.29-.77,.32-.75,.91,.25,.42,.81,.28,1.19,.39,.62,.82,.9,1.97,1.62,2.69-2.18,2.09-.58,6.85,3.23,5.57,.49,1.28,1.38,2.17,1.98,3.34-.21,.2-.39,.47-.2,.83,1.63,.26,2.15,1.6,3.28,2.35-2.16,3.75,2.73,7.61,5.55,4.68,.68,.57,1.32,1.16,2,1.5-.09,.22-.31,.58-.1,.83,1.64-.24,2.81,.76,4.03,1.44-1.15,4.14,4.98,6.42,6.68,2.86,.55,.49,3.21,1.46,3.39,1.34,.6,.27-.21-.44,.35-.43-.33-.1-2.95-1.03-3.54-1.54,.49-2.65-1.65-5.56-4.26-4.85-1.01,.28-1.68,1.21-2.42,1.81-.85-.35-1.61-.79-2.47-1.14,.01-.25,.12-.74-.07-1.2-.47,.02-.65,.33-1.02,.45-.85-.38-1.48-.98-2.19-1.5,1.09-2.17-.02-5.55-2.31-5.65-1.13-.05-1.98,.29-2.96,.78-.94-.39-1.5-1.14-2.19-1.78,.02-.35,.39-.34,.38-.73-.09-.52-.75-.48-1.37-.48-.62-1.09-1.36-2.07-1.98-3.16,1.08-.77,1.7-2.24,1.62-3.57-.13-2.11-2-2.92-3.74-2.63-.3,.05-.55,.34-.92,.26-.94-.18-1.1-1.67-1.63-2.14,.14-.29,.44-.41,.38-.91-.09-.31-.48-.32-.82-.38-.59-1.16-.88-1.95-1.05-3.51,2.28-.11,4.05-3.34,2.65-5.3-.71-.99-2.25-1.26-3.48-1.34-.22-.82-.29-1.77-.33-2.77,.38-.01,.84-.02,1.02-.44-.06-.46-.52-.53-1-.57,.03-1.89,.02-2.81,.52-4.32,.31,.03,.53,.16,.92,.11,1.32-.4,3.49-2.54,2.82-4.19-.41-1.02-.95-1.95-2.36-2.15,.19-1.05,.55-1.92,.78-2.93,.38,.05,.62-.04,.83-.17,0-.27-.1-.59-.36-.83,.3-.9,.79-1.61,1.23-2.38,3.46,1.17,6.19-2.86,3.94-5.47,.28-.95,.98-1.49,1.41-2.28,.27,.16,.64,.23,1.1,.2,.23-.32-.26-1.02-.17-1.2,.63-.56,1.22-1.17,1.78-1.81,2.67,1.77,6.25-.57,5.12-3.89,.43-.52,1.24-1.43,1.86-1.17,.44-.47,1.51-1.59,2.51-1.53,.86,.05,1.53,1.18,2.65,1.23,2.25,.11,4.21-1.46,3.46-3.72,1.7-1.19,3.89-1.31,6.29-1.75,.42,.3,1.33,.57,1.29-.26,1.08,.09,3.4-.38,4.97-.11,.27,.13,.32,.47,.54,.65,2.5,.31,5.12,.64,7.46-.17,0-.28,0-.55,.01-.83,1.46,.21,3.45,.12,4.6,.16,.28,.31,.62,.55,1.1,.66,.17,0,.07-.3,.28-.27,1.92,.42,5.02,.97,7.15,1.76,.02,1.48,1.01,3.4,2.99,3.54,1.12,.08,2.2-.42,2.78-1.34,1.56,.42,2.72,1.23,4.12,1.81-.14,.31-.6,.68-.2,1.01,.53-.02,.64-.46,1.11-.54,.73,.62,1.59,1.12,2.37,1.69-1.58,2.98,1.86,6.36,4.81,4.58,.9,.7,1.62,1.57,2.27,2.52-.11,.35-.5,.42-.56,.82,.29,.4,.87-.04,1.29-.07,.42,.83,.93,1.58,1.25,2.5-2.45,2.09-1.07,7.38,2.95,5.93,.35,.9,.56,1.94,.97,2.78-.09,.49-.69,.48-.66,1.09,.11,.39,.46,0,.83,.1,.22,.69,.29,1.53,.43,2.31-3.08,.61-2.98,6.14,.18,6.81,.42,0,.36-.07,.74,.01-.16,1.13,.25,2.47-.41,2.94,.51,1.22,.12,2.6-.15,3.77-3.41-.28-4.4,5.3-1.38,6.61-.37,1.05-.59,2.26-.97,3.3-.27,0-.6-.06-.74,.08,.02,.31,.17,.5,.36,.65-.35,.98-.72,1.94-1.33,2.65-3.82-.84-5.79,3.38-3.86,6.02-.53,.75-1,1.27-1.5,2.19-.56,.04-.71-.07-1.02,.17,.59,1.41-1.09,2-1.7,3.01-3.11-2.81-7.87,1.58-5.32,4.89-.89,.52-1.55,1.27-2.42,1.81-.28-.06-.26-.42-.73-.29-.27,.04-.37,.73-.29,.82-.84,.52-2.03,.81-2.87,1.06-1-3.52-8.39-2.1-6.94,2.57-.6,.28-1.11,.41-1.94,.52-.09-.3,.06-.83-.54-.84-.42,.04-.24,.69-.38,1.01-.86,.17-.72,.95-.01,.74,.28,.09,.24,.49,.64,.47,.39-1.01,1.68-.89,2.5-1.25,1.72,3.19,7.66,1.44,6.94-2.48,.88-.34,1.91-.52,2.68-.97,.29,.14,.39,.47,.82,.47,.26-.24,.39-.86,.29-1.19,1.06-.5,1.81-1.31,2.7-1.99,1.77,1.51,5.34,.61,6.01-1.48,.31-.99-.11-2.33-.6-3.42,.67-.59,1.13-1.39,1.78-2,.16,.17,.46,.22,.73,.29,.47-.36,.3-.83,.11-1.38,.51-.85,1.03-1.68,1.69-2.37,3.92,2.47,7.04-3.64,4.05-6.2,.44-.7,.74-1.55,1.14-2.28,.26,.14,.6,.26,.92,.1,.37-.65-.26-.9-.54-1.2,.47-.94,.64-2.5,.97-3.3,4.33,1.11,5.97-6.11,1.48-6.88Zm-63.22,31.04c1.79-.23,2.96,1.51,3.19,2.62,.8,3.89-5.9,4.76-5.61-.35,.7-.86,1.25-2.12,2.43-2.27Zm-13.62-6.45c.83-.62,2.72-1.06,3.69-.41,1.28,.86,1.65,5.09-.99,5.23-2.97,.85-4.3-3.63-2.69-4.83Zm-8.95-11.36c.29-.19,.64-.11,.74-.63,1.48-.63,3.23-.33,3.67,1.16-.03,1.58-.24,2.7-1.06,3.3-2.17,1.6-5.22-1.1-3.35-3.82Zm-3.66-14.23c1.11-.24,2.72,.42,3.11,1.06,.95,1.51-.3,3.62-1.81,4.12-.94,.34-1.69-.29-2.29-.59-1.33-1.1-.76-4.22,.99-4.59Zm3.58-12.38c-.18,.4-.32,.85-.48,1.28-.31-.2,.2-.63-.08-.83-.64,.52-1.26,1.34-2.32,1.16-.71-.12-.64-.66-1.28-.94-.17,.01-.06,.31-.19,.37,.39,.3,.65,.96,1.36,1.12,1.01,.23,1.72-.32,2.4-.79-.61,.97-1.55,1.68-2.78,1.52-.59-.56-1.37-.72-1.54-1.59-.27-1.37,1.23-3.54,2.9-3.36,1.15,.12,1.59,1.03,1.99,2.05Zm4.48-10.89c-.31,.03-.09-.45-.55-.28-.45-.12-.39,.41-.74,.54-1.07,.39-2.69-.41-2.37-1.87-1.57,1.53,1.93,3.39,3.19,1.98-.24,.46-2.04,1.48-3.23,.78-.48-1.07-1.39-1.99-.87-3.33,.53-1.38,2.54-2.1,3.8-1.6,.26,.92,1.73,2.24,.77,3.79Zm8.05-9.46c-.35,.02,.44-.64,.1-.92-.51,.07-.65,.51-1.02,.72-1.34,.13-2.46-.6-2.46-1.88-.63,.4-.1,1.21,.07,1.47,.63,.97,2.06,1.1,3.12,.69-2.43,1.91-5.33-1.16-3.54-3.46,.9-1.15,3.41-1.41,4.42-.03,.08,1.32,.2,2.85-.69,3.4Zm7.99-5.41c-3.54-.63-1.28-7.12,2.37-4.66,1.76,2.24,.87,5.23-2.37,4.66ZM49.04,2.69c0-.47,.31-1.18-.07-1.47-.67,.23-.19,1-.39,1.47-.45,.02-.41,.12-.83-.01,.11-.39,.33-1.06,.11-1.47-.63,.07-.34,1.08-.57,1.56-.34-.18-.51,.05-.83-.1-.07-.54,.31-1.07-.07-1.38-.3,.09-.5,.79-.29,1.1-.28,.4-.62,.29-1.2,.26-.1-.65,.2-1.12-.26-1.38-.3,.32-.28,.88-.2,1.38-.34-.07-.24-.05-.64-.1-.08-.53,.09-.79-.07-1.29,1.76-.28,3.96-.17,5.89,0-.22,.46,.1,1.48-.57,1.46Zm.83-.08c.08-.26,.11-.57,.19-.83,.12,.15-.02,.47,.27,.65-.08,.14-.23,.2-.46,.18Zm18.35,4.31c-.12-.42,.73-.89,.85-1.74,.22-1.58-.86-3.78-2.17-2.42,.19,.28,.52-.08,.83,.01,1.11,.61,1.16,3.03,.04,3.68-.03,.2-.96,.19-.47,.55-2.42,.29-3.19-3.41-1.31-4.62,.44,.16,.77,.01,1.11-.17,3.33-.75,3.27,4.16,1.13,4.71Zm9.32,4.46c.16-.48,1.62-2.41,3.34-1.79,.99,.99,2.05,1.96,1.7,3.43-.82,3.5-5.98,1.3-5.04-1.64Zm8.69,10.43c.55-.05,1.39-.86,2.4-.43-.19,.15-.54,.13-.65,.36,.11,.49,.56,.1,.92,.29,1.24,1.32-.34,4.76-1.88,2.92-.13,.46,.39,.99,1,1.03-1.92,.77-2.99-2.56-1.78-4.17Zm1.87,4.35c1.51-.68,2.44-3.11,1.17-4.4,2.06,.24,1.5,4.67-1.17,4.4Zm-23.65,57.47c-1.85,.45-4.31-1.57-3.17-3.91,1.15-2.34,5.91-1.83,5.69,1.37-.09,1.3-1.35,2.26-2.52,2.54Zm14.85-8.53c-.31,.7-1.26,1.25-2.23,1.44-1.92,.38-3.35-.99-3.37-2.53-.02-1.84,1.71-3.26,3.54-2.9,1.4,.28,2.73,2.5,2.06,3.99Zm5.93-9.31c3.57,.39,3.6-5.97,.16-4.78-.04,.52,.65,.33,1.1,.38,.35,.46,.91,.75,.99,1.3,.24,1.66-1.5,3.12-3.08,2.63-.02,.23,.14,.29,.27,.37-2.68-.84-1.46-5.73,1.82-5.31,.35,.18,.57,.48,1.1,.48,1.8,1.73,.19,5.95-2.37,4.94Zm4.4-31.23c.77-1.06,2.64-1.16,3.6-.41,1.3,1.02,.94,3.39-.25,4.41,.15-.57,.82-1.13,.86-2.01,.06-1.33-.95-2.72-2.08-2.42,.53,.66,1.48,.97,1.53,2.14,.04,.88-.35,1.7-1.04,2.19-.71,.12-1-.25-1.47-.11,.03,.61,1.09,.7,1.56,.58-1.83,1.06-4.22-2.27-2.7-4.36Zm3.06,17.63c-.04-.14,.36-.62,.66-.73-.15,.31-.43,.5-.66,.73Zm-1.51-4.26c.03,.19,.25,.19,.27,.37,2.41-.24,1.98,3.34,.31,3.87-.54,0-.73-.32-1.28-.29-.24,.57,1.14,.7,.64,.65-3.68,.56-2.69-6.44,.07-4.88,1.17-.69,2.63,.39,2.55,1.79-.38-.89-1.2-2.16-2.56-1.51Z"/><path class="ax" d="M47.04,88.33c-2.19,0-5.7-.63-7.12-1.95-1.08-1-1.23-3.11-.46-4.64,.45-.91,1.79-2.12,2.68-2.48,4.91-1.99,14.64,.42,12.09,6-.15,.33-.26,.98-.41,1.19-1.18,1.62-3.59,1.89-6.78,1.89Zm5.59-2.17c.66-.63,1.3-2.23,1.1-3.16-.32-1.53-3.3-3.18-5.51-3.39-2.3-.21-4.68,.44-6.37,.97-1.04,1.41-2.94,3.69-.87,5.02-.16-.52,.37-.34,.54-.52,.69,1.63,2.44,2.02,4.33,2.31-.82-.55-2.03-.94-3.02-1.5-.9-.5-2.31-1.09-2.22-2.15,1.75,1.04,4.01,2.71,6.84,3.14,.18,.3-.35,.49,0,.53,1.66-.38,3.92-.04,5.18-1.25Z"/></g></g></g></g></svg>