<?xml version="1.0" encoding="UTF-8"?><svg xmlns="http://www.w3.org/2000/svg" xmlns:xlink="http://www.w3.org/1999/xlink" viewBox="0 0 97.28 78.89"><defs><style>.i{fill:url(#e);}.j{fill:url(#d);}.k{fill:url(#g);}.l{fill:url(#f);}.m{fill:url(#h);}.n{fill:#a08cc8;}</style><linearGradient id="d" x1="24.4" y1="71.96" x2="72.75" y2="-11.79" gradientTransform="matrix(1, 0, 0, 1, 0, 0)" gradientUnits="userSpaceOnUse"><stop offset="0" stop-color="#898989"/><stop offset=".16" stop-color="#a7a7a7"/><stop offset=".38" stop-color="#cdcece"/><stop offset=".5" stop-color="#dcdddd"/><stop offset="1" stop-color="#eae7e3"/><stop offset="1" stop-color="#efedea"/><stop offset="1" stop-color="#f8f7f6"/><stop offset="1" stop-color="#fdfdfd"/><stop offset="1" stop-color="#fff"/></linearGradient><linearGradient id="e" x1="26.51" y1="60.55" x2="68.85" y2="60.55" xlink:href="#d"/><linearGradient id="f" x1="43.33" y1="67.49" x2="51.5" y2="67.49" xlink:href="#d"/><linearGradient id="g" x1="19.78" y1="71.96" x2="74.5" y2="71.96" xlink:href="#d"/><linearGradient id="h" x1="19.75" y1="76.61" x2="74.65" y2="76.61" xlink:href="#d"/></defs><g id="a"/><g id="b"><g id="c"><g><polygon class="j" points="1.11 .84 1.15 28.93 0 57.87 46.49 57.3 96.35 58.78 96.63 2 51.03 .42 1.11 .84"/><polygon class="n" points="3.41 3.12 3.44 27.03 2.75 55.56 53.2 55.06 93.68 56.62 94.3 38.76 94.3 4.2 49.89 2.54 3.41 3.12"/><path d="M1.03,2.98C1.07,21.31,.73,39.56,0,57.87c-.02,.49,.73,.49,.76,0C1.86,39.65,1.98,21.23,1.12,2.98c0-.06-.09-.06-.09,0h0Z"/><path d="M96.62,3.89c.04,18.32-.3,36.58-1.03,54.89-.02,.49,.73,.49,.76,0,1.1-18.23,1.22-36.65,.36-54.9,0-.06-.09-.06-.09,0h0Z"/><path d="M1.74,1.05c15.77,.06,31.54-.53,47.32-.34,15.78,.19,31.55,.74,47.3,1.61,.35,.02,.36-.53,0-.54C80.61,.91,64.85,.36,49.07,.17,33.34-.02,17.44-.27,1.74,.77c-.18,.01-.19,.28,0,.28h0Z"/><path d="M3.35,5.03c.02,16.9-.3,33.73-.98,50.61-.02,.49,.73,.49,.76,0,1.04-16.81,1.15-33.8,.31-50.62,0-.06-.09-.06-.09,0h0Z"/><path d="M94.28,5.89c.02,16.9-.3,33.73-.98,50.61-.02,.49,.73,.49,.76,0,1.04-16.81,1.15-33.8,.31-50.62,0-.06-.09-.06-.09,0h0Z"/><path d="M4.03,3.26c15,.09,30-.47,45.01-.29,15.01,.18,30.01,.69,44.99,1.5,.35,.02,.36-.53,0-.54C64.24,2.32,33.84,1.03,4.03,2.98c-.18,.01-.19,.28,0,.28h0Z"/><path d="M3.53,55.67c15,.09,30-.47,45.01-.29,15.01,.18,30.01,.69,44.99,1.5,.35,.02,.36-.53,0-.54-29.8-1.6-60.19-2.9-90.01-.95-.18,.01-.19,.28,0,.28h0Z"/><path d="M40.25,33.16c4.53-2.13,8.94-4.54,13.39-6.83,.29-.15,.04-.6-.25-.45-4.41,2.35-8.91,4.6-13.23,7.11-.11,.06-.02,.21,.09,.16h0Z"/><path d="M33.05,39.49c13.31-6.84,26.34-13.34,40.62-18.03,.51-.17,.31-.99-.21-.82-13.96,4.62-28.22,10.5-40.49,18.71-.09,.06-.02,.19,.08,.14h0Z"/><path class="i" d="M26.51,57.06l1.99,3.73s16.92,6.98,38.04,.44l2.3-3.52-42.33-.65Z"/><path d="M26.3,57.22c.6,.89,1.19,1.79,1.81,2.66,.19,.26,.55,0,.36-.26-.64-.86-1.3-1.71-1.96-2.55-.09-.12-.29,.03-.21,.15h0Z"/><path d="M66.63,61.54c.94-1.35,1.87-2.71,2.73-4.1,.21-.33-.3-.64-.52-.32-.92,1.36-1.78,2.76-2.63,4.17-.16,.27,.24,.51,.41,.25h0Z"/><path d="M42.43,59.57c-.03,.43-.06,.86-.08,1.29-.01,.22,.35,.22,.34,0-.01-.43-.03-.86-.05-1.29,0-.14-.2-.14-.21,0h0Z"/><path d="M42.81,61.3c3.1,.57,6.25,.66,9.39,.52,.32-.01,.32-.51,0-.49-3.14,.16-6.23,0-9.36-.24-.12,0-.16,.19-.03,.22h0Z"/><path d="M42.85,60.03c3.12-.25,6.24-.32,9.37-.1,.3,.02,.31-.45,0-.47-3.15-.21-6.28-.14-9.4,.3-.15,.02-.12,.28,.03,.27h0Z"/><path d="M52.65,59.87c-.39,.65-.48,1.37-.32,2.11,.06,.28,.5,.17,.43-.11-.15-.62-.09-1.25,.17-1.83,.08-.19-.17-.36-.28-.17h0Z"/><path class="l" d="M43.42,63.86l-.09,5.82s2.48,3.08,7.97,.23l.2-5.85-8.08-.19Z"/><path d="M43.28,64.43c-.11,1.61-.08,3.23-.11,4.84,0,.31,.48,.32,.49,0,0-1.61,.06-3.23-.02-4.85-.01-.23-.34-.23-.36,0h0Z"/><path d="M51.37,64.82c-.05,1.29-.08,2.58-.11,3.87,0,.3,.47,.31,.47,0,0-1.29-.01-2.58-.04-3.88,0-.21-.32-.21-.32,0h0Z"/><polygon class="k" points="28.41 68.55 19.78 75.06 74.5 75.38 70.52 69.53 28.41 68.55"/><path d="M26.94,69.19c5.44,.14,10.89-.02,16.33-.08,.36,0,.37-.57,0-.56-5.44,.11-10.9,.13-16.34,.44-.12,0-.13,.19,0,.2h0Z"/><path d="M51.37,69.11c6.36,.36,12.74,.41,19.11,.57,.36,0,.37-.56,0-.56-6.37-.1-12.74-.3-19.11-.2-.13,0-.13,.19,0,.2h0Z"/><polygon class="m" points="19.78 75.06 19.75 77.97 74.6 78.16 74.65 75.12 19.78 75.06"/><path d="M19.75,78.16c18.19,.23,36.39,.22,54.58,.29,.36,0,.37-.56,0-.56-18.2,0-36.39-.08-54.59,.08-.13,0-.13,.19,0,.2h0Z"/><path d="M20.81,74.33c2.65-1.72,5.29-3.48,7.88-5.29,.3-.21,.03-.7-.28-.5-2.64,1.76-5.23,3.58-7.81,5.42-.21,.15-.03,.51,.2,.36h0Z"/><path d="M70.43,69.6c1.16,2.08,2.65,3.97,4.05,5.89,.24,.33,.69,0,.45-.33-1.41-1.91-2.77-3.9-4.41-5.63-.05-.05-.13,.01-.1,.07h0Z"/><path d="M19.73,74.93c-.08,.75-.12,1.5-.13,2.26,0,.31,.48,.32,.49,0,0-.76-.03-1.51-.09-2.26-.01-.17-.25-.17-.26,0h0Z"/><path d="M74.5,75.38c-.13,1.07-.12,2.15-.14,3.23,0,.37,.58,.38,.58,0,0-1.08,.03-2.16-.08-3.23-.02-.23-.34-.24-.37,0h0Z"/><path d="M43.11,69.7c1.83,2.44,5.81,1.7,8.16,.57,.36-.17,.06-.71-.3-.54-2.24,1.09-5.64,1.68-7.55-.34-.2-.21-.49,.08-.32,.31h0Z"/><path d="M51.47,69.98c.22-.29,.32-.54,.28-.91-.04-.38-.61-.28-.5,.06,.07,.24,.11,.53,.05,.78-.03,.11,.11,.16,.17,.07h0Z"/><path d="M48.7,64.21c.07,2.15,.19,4.24-.02,6.39-.03,.33,.48,.33,.51,0,.17-2.12,.22-4.34-.18-6.44-.03-.17-.32-.14-.31,.04h0Z"/><path d="M49.47,64.36c-.17,2.02-.17,4.07-.24,6.11-.01,.37,.58,.37,.57,0-.04-2.03,0-4.08-.13-6.11,0-.13-.18-.13-.2,0h0Z"/><path d="M50.01,64.36c-.05,1.85-.12,3.69-.21,5.54-.02,.36,.57,.37,.56,0-.05-1.85-.09-3.69-.1-5.54,0-.16-.25-.17-.26,0h0Z"/><path d="M50.59,64.62c-.27,.76-.18,1.65-.2,2.45-.03,.94-.04,1.89-.06,2.83,0,.42,.66,.43,.66,0,0-.94,0-1.89,0-2.83,0-.81,.1-1.69-.16-2.46-.04-.11-.18-.11-.22,0h0Z"/><path d="M54.8,57.42c-.5,1.61-.85,3.27-1.26,4.9-.09,.37,.49,.53,.56,.16,.33-1.67,.74-3.34,.97-5.02,.02-.16-.23-.19-.28-.04h0Z"/><path d="M55.56,57.55c-.54,1.55-.98,3.18-1.34,4.78-.09,.4,.5,.57,.61,.18,.45-1.58,.84-3.22,1.11-4.84,.04-.25-.3-.36-.38-.11h0Z"/><path d="M56.31,57.56c-.49,1.49-.95,3.01-1.49,4.48-.11,.31,.41,.46,.49,.14,.4-1.52,.9-3.02,1.35-4.52,.07-.23-.28-.32-.35-.1h0Z"/><path d="M57.07,57.55c-.42,1.35-.95,2.71-1.23,4.09-.08,.37,.43,.52,.56,.16,.49-1.32,.77-2.76,1.13-4.12,.08-.3-.37-.42-.46-.13h0Z"/><path d="M58.06,57.55c-.43,1.26-.87,2.52-1.3,3.79-.15,.44,.57,.66,.7,.2,.36-1.28,.73-2.57,1.09-3.85,.09-.32-.38-.45-.49-.14h0Z"/><path d="M59.3,57.7c-.41,1.21-.91,2.43-1.21,3.67-.1,.4,.47,.56,.61,.18,.45-1.19,.74-2.48,1.09-3.71,.09-.32-.39-.45-.49-.14h0Z"/><path d="M60.76,57.58c-.47,1.27-.93,2.53-1.39,3.8-.14,.4,.51,.59,.64,.18,.4-1.29,.8-2.57,1.18-3.86,.08-.28-.33-.39-.43-.12h0Z"/><path d="M61.52,57.74c-.45,1.21-.94,2.41-1.33,3.64-.13,.41,.5,.58,.64,.18,.43-1.21,.75-2.46,1.12-3.69,.08-.28-.33-.39-.43-.12h0Z"/><path d="M63.01,58.02c-.38,.92-.85,1.84-1.12,2.8-.09,.33,.42,.59,.58,.25,.45-.92,.73-1.94,1.07-2.9,.12-.34-.4-.48-.53-.15h0Z"/><path d="M63.98,57.74c-.37,.93-.72,1.88-1.12,2.8-.18,.41,.55,.65,.69,.2,.29-.96,.62-1.9,.94-2.85,.11-.33-.38-.46-.51-.15h0Z"/><path d="M65.42,58.1c-.39,.64-.79,1.41-.9,2.16-.07,.46,.56,.67,.71,.2,.23-.7,.38-1.38,.72-2.05,.18-.35-.32-.66-.52-.32h0Z"/><path d="M66.85,57.98c-.42,.65-.74,1.38-1.1,2.07-.26,.5,.48,.84,.71,.31,.31-.71,.67-1.42,.92-2.15,.11-.32-.36-.51-.53-.23h0Z"/><path d="M31.53,60.32c11.19,4.12,23.99,3.98,35.31,.47,.56-.17,.34-1.05-.22-.88-11.79,3.5-23.18,3.24-35.02,.19-.14-.04-.2,.17-.06,.22h0Z"/><path d="M20.83,75.45c-.1,.72-.15,1.55-.07,2.27,.04,.35,.5,.36,.54,0,.09-.72,.05-1.55-.03-2.27-.03-.28-.4-.29-.44,0h0Z"/><path d="M21.69,75.32c-.07,.78-.12,1.56-.24,2.34-.06,.4,.54,.47,.54,.08,0-.81,.06-1.61,.11-2.41,.02-.27-.39-.27-.42,0h0Z"/><path d="M22.41,75.12c-.19,.8-.33,1.64-.28,2.47,.03,.41,.65,.43,.65,0,0-.81-.03-1.6,.08-2.41,.03-.25-.38-.31-.44-.06h0Z"/><path d="M23.1,75.47c0,.73-.16,1.41-.25,2.13-.05,.36,.52,.42,.62,.09,.2-.69,.16-1.5,.09-2.21-.03-.28-.45-.3-.45,0h0Z"/><path d="M23.9,75.48c-.02,.81-.18,1.61-.2,2.41,0,.35,.5,.42,.6,.09,.24-.79,.21-1.68,.15-2.49-.02-.35-.55-.37-.55,0h0Z"/><path d="M24.66,75.49c-.02,.71-.07,1.42-.06,2.13,0,.34,.53,.35,.54,0,.02-.71-.01-1.42-.02-2.13,0-.29-.44-.3-.45,0h0Z"/><path d="M25.42,75.35c-.09,.76-.2,1.51-.27,2.27-.04,.37,.56,.38,.58,0,.04-.76,.06-1.51,.08-2.27,0-.26-.36-.25-.39,0h0Z"/><path d="M26.07,75.36c-.1,.8-.25,1.61-.27,2.41-.01,.41,.58,.4,.62,0,.09-.79,.07-1.61,.09-2.41,0-.29-.41-.28-.44,0h0Z"/><path d="M26.63,75.65l-.07,1.85c-.02,.39,.61,.4,.6,0l-.04-1.85c0-.32-.48-.32-.49,0h0Z"/><path d="M27.41,75.23c-.02,.85-.05,1.7-.1,2.56-.02,.33,.52,.34,.51,0-.03-.85-.05-1.7-.05-2.56,0-.23-.35-.23-.36,0h0Z"/><path d="M27.99,75.66c-.06,.76,0,1.51,.02,2.27,0,.39,.63,.3,.52-.06-.22-.71-.24-1.47-.22-2.21,0-.21-.31-.21-.32,0h0Z"/><path d="M28.92,75.1c-.09,.85-.15,1.71-.27,2.55-.06,.38,.62,.41,.61,0,0-.85,.05-1.71,.08-2.56,0-.27-.39-.27-.42,0h0Z"/><path d="M29.62,75.25l-.24,2.41c-.04,.4,.61,.42,.63,0,.03-.8,.06-1.61,.09-2.41,.01-.32-.45-.31-.49,0h0Z"/><path d="M30.19,75.54l-.1,1.99c-.02,.41,.65,.42,.64,0-.02-.66-.04-1.33-.06-1.99,0-.31-.46-.31-.48,0h0Z"/><path d="M30.91,75.55c-.07,.7-.13,1.43-.11,2.13,.02,.39,.59,.4,.61,0,.04-.7,0-1.43-.06-2.13-.02-.28-.41-.29-.44,0h0Z"/><path d="M31.62,75.7c-.06,.61-.17,1.23-.2,1.85-.02,.39,.55,.38,.6,0,.07-.61,.07-1.23,.1-1.85,.02-.33-.47-.32-.5,0h0Z"/><path d="M32.19,75.42c-.05,.85-.13,1.71-.12,2.56,0,.41,.62,.42,.64,0,.03-.85-.04-1.71-.07-2.56-.01-.29-.43-.3-.45,0h0Z"/><path d="M32.96,75.23c-.14,.87-.11,1.74-.06,2.61,.02,.4,.63,.34,.55-.07-.16-.83-.15-1.65-.14-2.49,0-.2-.32-.26-.36-.05h0Z"/><path d="M33.78,76.14c-.01,.67-.04,1.32-.09,1.99-.02,.33,.54,.34,.52,0-.04-.66-.05-1.32-.05-1.99,0-.24-.37-.25-.37,0h0Z"/><path d="M34.34,75.29l-.1,1.65c-.02,.38-.15,.84,.12,1.15,.07,.08,.21,.12,.31,.09,.17-.06,.25-.13,.3-.3,.05-.14-.03-.27-.14-.35l-.04-.03c-.28-.22-.64,.24-.39,.48l.03,.03-.07-.3-.03,.06,.23-.22-.06,.02,.31,.09c-.06-.07,0-.41,0-.52l-.02-.64c-.01-.4-.03-.8-.04-1.19,0-.27-.4-.27-.42,0h0Z"/><path d="M35.03,75.44c-.03,.71-.1,1.42-.1,2.13,0,.39,.6,.4,.61,0,.01-.71-.04-1.42-.06-2.13,0-.29-.44-.3-.45,0h0Z"/><path d="M35.6,75.45c0,.75-.11,1.46-.23,2.19-.06,.37,.49,.55,.58,.17,.19-.79,.18-1.61,.09-2.41-.03-.25-.43-.19-.44,.05h0Z"/><path d="M36.14,75.17l-.11,2.56c-.02,.43,.68,.44,.67,0-.02-.85-.04-1.71-.06-2.56,0-.32-.49-.33-.5,0h0Z"/><path d="M36.89,75.46c-.03,.71-.11,1.42-.1,2.13,0,.37,.57,.38,.58,0,.03-.71-.04-1.42-.06-2.13,0-.27-.41-.28-.43,0h0Z"/><path d="M37.59,75.47c0,.69-.09,1.37-.25,2.04-.1,.42,.56,.59,.63,.18,.12-.74,.15-1.47,.07-2.22-.03-.28-.45-.3-.45,0h0Z"/><path d="M38.28,75.33c-.09,.95-.18,1.89-.26,2.84-.04,.42,.64,.43,.66,0,.03-.95,.07-1.89,.1-2.84,.01-.32-.46-.32-.49,0h0Z"/><path d="M38.9,75.34c-.05,.85-.06,1.7-.08,2.56,0,.32,.5,.33,.5,0,0-.85,0-1.71-.04-2.56,0-.25-.37-.25-.38,0h0Z"/><path d="M39.59,75.34c-.03,.85-.09,1.7-.1,2.56,0,.37,.56,.37,.57,0,.01-.85-.03-1.71-.05-2.56,0-.27-.41-.28-.43,0h0Z"/><path d="M40.29,75.21c.02,.84-.05,1.66-.22,2.48-.08,.37,.5,.52,.56,.16,.14-.88,.18-1.75,.11-2.63-.02-.28-.46-.3-.45,0h0Z"/><path d="M41.58,75.59c-.12,.76-.11,1.51,0,2.28,.06,.4,.72,.25,.62-.16-.16-.68-.22-1.36-.17-2.05,.02-.25-.41-.32-.45-.07h0Z"/><path d="M42.54,75.37c-.03,.8-.14,1.62-.09,2.41,.02,.4,.59,.41,.62,0,.06-.79-.02-1.62-.04-2.42,0-.32-.48-.32-.49,0h0Z"/><path d="M43.11,76.09c-.01,.57-.02,1.14-.06,1.7-.02,.36,.58,.37,.56,0-.02-.57-.03-1.14-.03-1.71,0-.31-.47-.31-.48,0h0Z"/><path d="M43.75,75.24c.07,.95,.1,1.89,0,2.85-.03,.35,.52,.36,.54,0,.06-.97,.04-1.95-.15-2.9-.04-.22-.42-.18-.4,.05h0Z"/><path d="M44.59,75.25c-.02,.76-.02,1.52-.08,2.27-.02,.31,.49,.31,.48,0-.04-.76-.03-1.52-.03-2.27,0-.24-.36-.24-.37,0h0Z"/><path d="M45.26,75.26c-.07,.79-.15,1.62-.11,2.41,.02,.4,.59,.41,.62,0,.05-.79-.01-1.62-.07-2.42-.02-.28-.42-.29-.44,0h0Z"/><path d="M45.98,75.55c-.04,.75-.1,1.52-.1,2.27,0,.37,.57,.38,.58,0,.02-.76-.03-1.52-.06-2.27,0-.27-.41-.28-.43,0h0Z"/><path d="M46.81,75.21c-.18,.78-.15,1.68-.14,2.48,0,.45,.68,.46,.7,0,.03-.79,.07-1.7-.09-2.48-.05-.23-.42-.24-.47,0h0Z"/><path d="M48.06,75.28c-.04,.76-.07,1.51-.11,2.27-.02,.45,.72,.46,.71,0l-.07-2.27c-.01-.34-.51-.35-.53,0h0Z"/><path d="M48.86,75.29c-.04,.85-.12,1.71-.09,2.56,0,.31,.47,.32,.49,0,.04-.85-.02-1.71-.04-2.56,0-.22-.34-.23-.35,0h0Z"/><path d="M49.58,75.44c-.04,.8-.07,1.61-.15,2.41-.03,.38,.61,.39,.59,0-.06-.8-.07-1.61-.1-2.42,0-.22-.33-.22-.34,0h0Z"/><path d="M50.07,75.44c-.02,.8-.05,1.61-.07,2.41-.01,.38,.59,.39,.59,0l-.03-2.42c0-.31-.48-.32-.49,0h0Z"/><path d="M50.78,75.45c-.09,.68-.21,1.55,0,2.22,.1,.33,.56,.27,.59-.07,.03-.35-.05-.72-.06-1.07-.02-.36-.02-.71,0-1.07,.01-.34-.48-.33-.52,0h0Z"/><path d="M51.47,75.6c-.04,.71-.09,1.42-.13,2.13-.03,.48,.76,.49,.74,0-.03-.71-.06-1.42-.09-2.13-.01-.33-.5-.34-.52,0h0Z"/><path d="M52.09,75.74c.07,.71,.04,1.43-.06,2.14-.07,.46,.72,.5,.75,0,.05-.75-.02-1.48-.18-2.21-.06-.28-.54-.24-.51,.06h0Z"/><path d="M52.96,75.33c-.04,.85-.11,1.71-.1,2.56,0,.34,.52,.35,.54,0,.03-.85-.02-1.71-.05-2.56,0-.25-.38-.26-.39,0h0Z"/><path d="M53.79,75.62c-.04,.71-.07,1.42-.11,2.13-.02,.39,.62,.4,.6,0-.02-.71-.04-1.42-.06-2.13,0-.28-.42-.28-.43,0h0Z"/><path d="M54.47,75.34c-.04,.8-.12,1.61-.11,2.41,0,.43,.66,.44,.67,0,.02-.8-.04-1.61-.07-2.42-.01-.32-.48-.32-.49,0h0Z"/><path d="M55.19,75.35c-.06,.8-.1,1.61-.14,2.41-.02,.45,.71,.46,.7,0-.02-.81-.04-1.61-.09-2.42-.02-.3-.44-.31-.47,0h0Z"/><path d="M55.9,75.36c-.05,.7-.14,1.43-.11,2.13,.02,.42,.63,.43,.66,0,.04-.7-.03-1.43-.07-2.13-.02-.3-.44-.31-.47,0h0Z"/><path d="M57.12,75.79c-.02,.71-.05,1.42-.08,2.13-.02,.44,.7,.45,.69,0-.02-.71-.03-1.42-.04-2.13,0-.37-.57-.38-.58,0h0Z"/><path d="M57.77,75.23c.06,.81,.1,1.6,.04,2.41-.03,.37,.58,.39,.59,0,.01-.83-.04-1.66-.22-2.47-.05-.23-.43-.19-.41,.05h0Z"/><path d="M58.66,75.38c-.1,.76-.2,1.51-.29,2.27-.05,.38,.59,.4,.6,0,.03-.76,.06-1.51,.07-2.27,0-.26-.36-.25-.39,0h0Z"/><path d="M59.38,75.1c-.06,.94-.15,1.89-.15,2.84,0,.38,.58,.39,.59,0,.01-.95-.06-1.9-.1-2.84,0-.22-.33-.22-.34,0h0Z"/><path d="M60.04,75.25c-.07,.84-.19,1.71-.15,2.56,.02,.44,.66,.45,.69,0,.06-.85-.05-1.71-.1-2.56-.02-.28-.42-.29-.44,0h0Z"/><path d="M60.71,75.54c0,.85,0,1.7,.01,2.56,0,.49,.8,.49,.76,0-.08-.85-.17-1.71-.25-2.56-.03-.32-.52-.35-.52,0h0Z"/><path d="M61.64,75.13c-.06,.92-.23,1.93-.13,2.84,.04,.37,.52,.37,.57,0,.12-.91-.04-1.92-.08-2.84,0-.23-.34-.23-.36,0h0Z"/><path d="M62.28,75.56c-.03,.76-.09,1.51-.09,2.27,0,.41,.63,.42,.64,0,0-.76-.03-1.52-.05-2.27,0-.32-.48-.32-.49,0h0Z"/><path d="M63.14,75.42c-.04,.8-.08,1.61-.12,2.41-.02,.43,.69,.44,.67,0-.02-.81-.05-1.61-.08-2.42,0-.31-.46-.31-.48,0h0Z"/><path d="M63.87,75.57l-.13,2.41c-.02,.43,.68,.44,.66,0-.03-.81-.06-1.61-.08-2.42,0-.29-.44-.3-.45,0h0Z"/><path d="M64.52,75.3c-.05,.8-.15,1.62-.12,2.41,.02,.5,.76,.51,.78,0,.04-.8-.05-1.62-.08-2.42-.01-.37-.56-.38-.58,0h0Z"/><path d="M65.79,75.31l-.12,2.27c-.03,.5,.79,.51,.77,0-.02-.76-.05-1.52-.07-2.27-.01-.38-.57-.39-.59,0h0Z"/><path d="M67.27,75.32c-.1,.84-.09,1.71-.13,2.56-.02,.43,.67,.44,.66,0-.02-.85,.01-1.71-.08-2.56-.03-.29-.42-.3-.46,0h0Z"/><path d="M68.71,75.48c-.07,.79-.22,1.62-.19,2.41,.02,.49,.74,.5,.77,0,.04-.79-.09-1.62-.14-2.42-.02-.28-.41-.28-.43,0h0Z"/><path d="M69.38,75.63c-.05,.79-.16,1.62-.13,2.41,.02,.46,.69,.47,.71,0,.05-.79-.05-1.62-.08-2.42-.01-.32-.48-.33-.5,0h0Z"/><path d="M70.12,75.49c-.04,.85-.09,1.7-.15,2.56-.03,.44,.71,.45,.69,0-.05-.85-.07-1.7-.1-2.56,0-.28-.43-.29-.44,0h0Z"/><path d="M71.61,75.5c-.05,.85-.1,1.7-.15,2.56-.03,.54,.85,.55,.83,0-.03-.85-.07-1.71-.1-2.56-.01-.38-.57-.39-.59,0h0Z"/><path d="M.98,57.3c.47-.47,.9-1,1.33-1.51,.34-.39-.23-.86-.56-.45-.42,.52-.86,1.03-1.24,1.59-.19,.28,.22,.61,.46,.37H.98Z"/><path d="M1.46,57.5c.72-.61,1.41-1.24,2.06-1.92,.24-.25-.12-.63-.38-.39-.69,.63-1.35,1.31-1.97,2.01-.18,.2,.08,.48,.29,.3h0Z"/><path d="M93.21,56.43c.12,.46,.45,.92,.69,1.33,.28,.47,.56,.93,.86,1.38,.26,.39,.89,.05,.64-.35-.3-.49-.63-.96-.96-1.43-.28-.39-.55-.86-.92-1.15-.15-.12-.35,.07-.31,.23h0Z"/><path d="M93.44,55.96c.46,.82,1.02,1.57,1.68,2.25,.31,.32,.82-.17,.5-.48-.65-.61-1.22-1.29-1.69-2.04-.19-.3-.66-.04-.48,.27h0Z"/><path d="M94.12,4.79c.59-.55,1.17-1.1,1.75-1.66,.35-.33-.18-.88-.52-.54-.57,.57-1.12,1.15-1.68,1.73-.29,.3,.14,.75,.45,.47h0Z"/><path d="M94.15,5.68c.91-.98,1.79-1.87,2.83-2.71,.3-.24-.08-.78-.4-.55-1.07,.75-2.14,1.83-2.77,2.99-.11,.21,.16,.47,.34,.28h0Z"/><path d="M1.07,1.8c.6,.84,1.19,1.7,1.82,2.52,.2,.26,.67-.07,.48-.35-.6-.84-1.25-1.65-1.89-2.47-.18-.23-.58,.06-.41,.3h0Z"/><path d="M1.16,1.23c.75,.92,1.65,1.78,2.51,2.6,.36,.34,.91-.19,.55-.53-.88-.84-1.8-1.7-2.78-2.43-.22-.16-.44,.17-.29,.35h0Z"/><path d="M1.2,57.89c15.77,.06,31.54-.53,47.32-.34,15.78,.19,31.55,.74,47.3,1.61,.35,.02,.36-.53,0-.54-15.75-.87-31.52-1.41-47.3-1.6-15.72-.19-31.63-.44-47.33,.59-.18,.01-.19,.28,0,.28h0Z"/><path d="M28.5,60.79c11.88,5.1,25.91,4.71,38.03,.73,.37-.12,.22-.72-.15-.59-12.7,4.17-25.15,3.37-37.82-.35-.14-.04-.19,.16-.06,.21h0Z"/><path d="M19.78,75.26c18.19,.23,36.39,.22,54.58,.29,.36,0,.37-.56,0-.56-18.19,0-36.39-.08-54.59,.08-.13,0-.13,.19,0,.2h0Z"/></g></g></g></svg>