<?xml version="1.0" encoding="UTF-8"?><svg xmlns="http://www.w3.org/2000/svg" viewBox="0 0 168.96 168.96"><defs><style>.d,.e{fill:#fff;}.e{fill-rule:evenodd;}</style></defs><g id="a"/><g id="b"><g id="c"><g><g><polygon class="d" points="29.66 16.68 29.66 16.68 29.66 16.68 29.66 16.68"/><path class="d" d="M146.53,34.34s.01,.02,.02,.02h0l-.02-.02Z"/><path class="d" d="M19.84,22.94c-2.45,3.14-5.2,6.06-6.84,9.61-1.92,4.15-3.41,8.53-4.79,12.9-1.45,4.61-2.33,9.4-3.87,13.98-1.22,3.61-1.52,7.35-2.31,11.02-.44,1.99-.49,4.09-1.07,6.03C.04,79.55-.1,82.68,.06,85.85c.27,5.41,1.03,10.78,2.06,16.12,.11,.59,.45,1.18,.78,1.71,1.01,1.57,1.95,3.12,1.57,5.09-.12,.6-.02,1.34,.24,1.9,.75,1.61,1.63,3.15,2.46,4.73,.31,.58,.65,1.15,.91,1.75,.71,1.6,1.21,3.33,2.15,4.79,.66,1.05,.85,2.51,2.33,3.07,.24,.1,.37,.8,.37,1.22-.02,1.98,.61,3.7,1.73,5.38,1.16,1.73,2.91,3.11,3.44,5.23,.08,.31,.59,.54,1.16,1.03-.04-.92,.06-1.51-.13-1.99-.26-.67-.81-1.24-1.11-1.9-.66-1.45-1.72-2.82-1.37-4.81,.96,1.39,1.65,2.66,2.6,3.71,1.09,1.19,.63,2.85,1.72,3.92-1.67,1.49-1.73,2.42-.25,3.96,.33,.34,.95,.68,1.35,.61,.59-.1,1.11-.56,1.65-.87,.57,1.5,2.9,1.71,2.98,3.71-1.31,.83-2.17-1.14-3.94-.5,1.75,.77,2.35,2.06,2.93,3.37,.06,.14,.33,.2,.58,.35,.9-.6,1.44-2.7,3.08-.76,.18,.74-.05,2.15,1.04,1.93,1.21-.23,1.58,.96,2.47,.83,.3-.04,.78-.55,.73-.75-.28-1.16,.56-1.75,1.36-2.54-.61-.55-1.16-1-1.66-1.5-1.21-1.22-1.47-1.17-2.22,.74-.3-.65-.49-1.1-.71-1.53-.48-.91-.78-2.01-1.49-2.69-2.36-2.26-3.93-5.05-5.77-7.65-.32-.45-.47-1.01-.72-1.55,2.16-.41,2.07-.34,3.15,1.1,1.95,2.59,3.98,5.13,6.03,7.64,1.4,1.72,2.88,3.38,4.35,5.05,.34,.38,.75,.72,1.16,1.03,.9,.68,1.84,1.31,2.74,1.99,1.32,1.01,2.59,2.07,3.91,3.08,.96,.73,1.69,1.54,1.49,2.8-.13,.83,.19,1.38,1.11,1.71,.38-.36,.77-.73,1.27-1.21,.67,.63,1.31,1.13,1.8,1.73,.25,.31,.12,1.1,.37,1.21,1.08,.49,2.21,.91,3.37,1.18,1.1,.26,1.25-.89,1.75-1.45,.69,.43,1.3,.81,1.92,1.2-.7,.33-1.86,0-1.81,1.35,.9,.24,1.67,.38,2.44-.29,.76-.65,1.7-.51,2.76-.18-1.01,.83-1.91,1.58-2.84,2.35-1.69-.45-1.79-.38-1.51,1.28,.64-.05,1.28-.11,1.79-.15,.67,.65,1.14,1.46,1.82,1.68,1.36,.46,2.68,1.33,4.26,.92,.27-.07,.62,.13,.92,.24,.68,.24,1.34,.56,2.04,.74,1.47,.38,2.96,.75,4.45,1.01,1.28,.22,2.67,.54,3.41-1.36,.13,1.97,.43,2.31,1.99,2.34,1.78,.03,3.57,0,5.35-.06,2.32-.08,4.65,.12,6.96-.47,1.31-.33,2.77-.11,4.13-.3,1.37-.19,2.7-.6,4.05-.89,.77-.17,1.57-.26,2.33-.46,1.72-.47,3.44-.96,5.14-1.5,1.63-.52,3.16-1.31,4.92-1.48,.31-.03,.59-.26,.89-.39,1.82-.73,3.66-1.43,5.45-2.22,.94-.41,2.1-.79,2.62-1.54,.65-.93,1.68-.97,2.4-1.57,.71-.59,1.2-1.5,1.98-1.95,3.3-1.87,6.68-3.63,10.03-5.43,.87-.47,1.76-.89,2.59-1.41,1.75-1.11,3.53-2.2,5.17-3.44,1.1-.83,2.62-1.25,3.24-2.7-1.94-.39-2.8-.15-3.89,1.13-1.06,1.25-2.43,1.95-4.07,2.25,.18-.36,.43-.6,.71-.81,.57-.43,1.23-.77,1.71-1.28,1.52-1.6,3-3.23,4.43-4.92,1.13-1.33,2.24-2.7,3.21-4.15,1.13-1.69,2.34-3.3,3.79-4.76,.36-.36,.63-.81,.9-1.24,1.36-2.07,2.25-4.43,3.97-6.29,.21-.23,.44-.54,.45-.83,.04-1.08,.83-1.71,1.4-2.47,.27-.36,.59-.69,.81-1.07,.88-1.58,1.69-3.2,2.6-4.76,.33-.56,.58-1.21,1.56-1.26,.48-.03,1.16-.89,1.27-1.47,.34-1.79,.74-3.64,.57-5.44-.25-2.7,1.05-5.05,1.16-7.66,.11-2.5,.62-4.97,.97-7.51,1.23-.33,1.58-.89,1.14-2.14-.23-.67-.85-1.4-.72-1.97,.42-1.76-.17-3.26-.9-4.79-.16-.33-.18-.72-.28-1.19,.83-.01,1.37,.08,1.15,.95-.23,.96,.34,1.25,1.11,1.3-.02,.53-.14,1.01,0,1.41,.09,.28,.55,.45,.85,.66,.2-.29,.51-.55,.56-.87,.07-.42-.13-.88-.09-1.31,.21-2.15,.41-4.3,.74-6.43,.14-.92-.04-1.61-.71-2.23-.63,.14-1.27,.44-1.87,.38-.61-.07-1.19-.51-1.9-.84-1.2,1.6-.21,3.32-.35,4.96-.73-.44-1.17-.77-1.21-1.76-.07-1.52-.53-3.06-1.03-4.54-1.67-4.96-3.43-9.9-5.15-14.85-.32-.92-.5-1.85-1.25-2.63-.43-.45-.99-1.41-.8-1.7,.69-1.05-.29-1.91-.16-2.86,.05-.37-.26-.9-.58-1.17-.3-.26-.75-.28-.34-.8,.08-.1-.16-.63-.25-.63-2.18-.05-1.43-1.54-1.42-2.65-1.15,.04-.68-1.33-1.58-1.64-.24-.09-.11-1.25-.16-1.92-1.78,.4-1.3-1.95-2.76-2.01,.68-1.92,.69-3.6-.85-4.99-.18-.09-.35-.18-.53-.28,.28-.34,.48-.81,.84-1.01,.79-.42,.7-1.14,.51-1.7-.23-.67-.77-1.24-1.13-1.78-.34,.16-.75,.41-.79,.37-.24-.28-.47-.62-.54-.97-.02-.1,.51-.48,.71-.42,1.27,.35,2.63,.46,3.65,1.49,.19,.19,.69,.1,1.27,.17-.71-.91-1.18-1.52-1.66-2.13-1.56-2.03-2.96-4.21-5.14-5.68-1.34-.9-2.42-2.1-3.83-2.91-.61-.35-.97-1.13-1.55-1.57-1.32-1-2.73-1.88-4.07-2.84-1.51-1.08-2.95-2.25-4.49-3.27-1.54-1.02-3.16-1.94-4.78-2.83-1.99-1.09-3.94-2.33-6.06-3.07-2.75-.97-5.65-1.53-8.49-2.25-1.02-.26-2.11-.33-3.06-.74-3.76-1.63-7.69-1.71-11.64-1.7-.39,0-.8,.06-1.18,.02-2.82-.35-5.64-.78-8.47-1.07-1.29-.13-2.59,.01-4.15,.03,1.22,1.35,2.65,.63,3.8,1.21-.68,.3-1.36,.45-2.05,.51-1.33,.12-2.6,.28-3.41,1.52-.24,.37-.77,.55-1.15,.82,.04,.36,.07,.72,.11,1.07-1.04,.04-2.1,.41-2.81,.06-2.24-1.08-4.47,.42-6.65-.36-.05-.02-.17,.14-.25,.23-.88,.98-2.14,.27-3.18,.57-.05,.02-.24-.39-.34-.56,1.03-1.04,3.33,.22,3.6-1.97-1-.68-1.89-.21-2.78-.08-.97,.15-1.95,.47-2.91,.38-1.43-.12-2.64-.09-3.98,.63-1.67,.9-3.62,1.37-5.47,1.94-2.03,.62-4.09,1.15-6.14,1.72-.05-.12-.09-.24-.14-.36,2.34-1.18,5.09-1.45,7.75-2.84-1.14-.11-1.91-.94-2.74,.06-.12,.14-.51,.11-.76,.08-1.39-.17-2.51,.37-3.58,1.13-.28,.2-.78,.38-1.05,.26-1.13-.47-2.07,.1-3.02,.39-1.45,.44-2.88,.98-4.22,1.65-.81,.4-1.91,.6-2.2,1.76,1.34,.92,2.39-.11,3.56-.23-1.94,1.13-3.53,2.8-5.96,3.08,.12-1.07,1.93-.87,1.56-2.44-2.65,.28-4.58,1.48-6.07,3.95,1.11-.34,1.86-1.2,2.86-.68-.88,.76-1.64,1.54-2.52,2.13-.61,.41-1.4,.56-2.1,.83-1.08,.94-2.26,1.73-2.77,3.23-.22,.64-1.2,1.16-1.97,1.42-1.16,.4-2.18,.88-2.85,1.92-.09,.14-.29,.22-.37,.27-.64-.2-1.2-.37-1.87-.58Zm31.29,134.08c.1-.18,.2-.36,.3-.54,.31,.15,.63,.3,.94,.45-.09,.18-.19,.36-.29,.53-.31-.15-.63-.3-.94-.45Zm12.84,9.15q1.78-1.08,3.02,.02c-.96,0-1.94-.01-3.02-.02Zm15.74-7.03c-.16,.02-.41-.07-.5-.2-.07-.1,.03-.32,.08-.66,.3,.21,.51,.32,.66,.48,.03,.03-.14,.36-.25,.38Zm16.93,5.37c1.09-1.84,2.57-1.22,3.82-1.36-.94,.93-2.18,1.08-3.82,1.36Zm5.25-1.5c-.03-.09-.05-.18-.08-.27,1.11-.38,2.22-.75,3.34-1.13,.03,.16,.06,.31,.09,.47-1.12,.31-2.23,.62-3.35,.93Zm42.86-40.56c.12,.99-.4,1.48-1.37,1.6,.46-.53,.92-1.07,1.37-1.6Zm8.56-15.35c.1,.46,.19,.93,.29,1.39-.18,.03-.52,.08-.52,.07-.11-.46-.19-.92-.27-1.38,.16-.03,.33-.06,.5-.09Zm11.96-23.34c-.43,.46-.77,.86-.94-.17,.3,.05,.58,.11,.94,.17Zm-12.38,2.42c.1,.32,.2,.64,.44,1.38-.52-.41-.79-.53-.9-.74-.09-.16,.03-.43,.06-.64,.13,0,.27,0,.4,0Zm1.07-3.13c-.08,.33-.16,.66-.24,.99-.09-.01-.17-.03-.26-.05,.05-.36,.1-.72,.15-1.09,.12,.05,.23,.1,.35,.14Zm-13.51,12.86c.13-.45,.23-.78,.37-1.23,.82,.77,.6,1.05-.37,1.23Zm11.19-27.82c1.11,2.31,2.16,4.7,2.23,7.68-1.14-.93-2.22-1.53-2.85-2.42-.41-.58-.34-1.61-.22-2.4,.3-1.91-.68-3.23-2-4.42-.1-.09-.37-.01-.79,0,.21,.4,.36,.69,.51,.98h.02s0,.03,0,.04c.04,.4,.08,.8,.13,1.19-.15,0-.29-.02-.44-.03,.1-.39,.21-.78,.31-1.17,0-.01,0-.02,0-.03h0c-1.16-.28-1.36-1.29-1.23-2.1,.17-1.08,.74-2.1,1.05-2.89,1.06,1.76,2.35,3.59,3.31,5.57Zm-11.04,25.5c-1.52,1.57-3.85,.67-5.48,2.02-1.15-3.18-1.15-3.24,1.82-2.93,1.19,.12,2.35,.57,3.66,.91Zm-68.91,61.09c.15-.04,.18-.43,.3-.72-1.09-.33-2.22-.47-2.85-1.49,.4-.82,1.44-.85,1.72-.63,1.43,1.11,3,.23,4.45,.58,1.07,.25,2.17,.59,3.17-.21,.08-.07,.33-.09,.37-.04,1.12,1.34,2.49,.11,3.75,.38,1.19,.26,2.49,.06,3.74,0,2.35-.14,4.75-.1,7.04-.55,3.35-.66,6.61-1.71,9.92-2.56,5.52-1.42,10.64-3.83,15.95-5.77,1.47-.54,2.88-1.26,4.36-1.78,1.47-.51,3-.88,4.85-1.4,.69-.94,1.92-1.6,4.92-2.39-.08,.53-.14,.99-.21,1.44q-1.01,.15-1.45,1.35c-.34-.27-.68-.54-1.17-.93-.63,1.19-2.22,1.7-1.46,3.8-.63-.63-.88-.89-1.29-1.3-.17,.67-.31,1.2-.46,1.8-.81-1.02-1.46-.16-2.17,.09-.4,.65,1,1.45-.15,2.05-.99,.51-.91-.74-1.23-.8-2.81,1.02-5.38,1.95-8.03,2.91,.12,.71,.21,1.24,.33,1.91-.24-.12-.45-.15-.51-.26-.2-.39-.34-.8-.53-1.27-.62,.23-1.16,.42-1.82,.66,.1,.46,.21,.93,.42,1.85-.62-.69-.97-1.07-1.29-1.43-1.35,.44-.16,1.43-.68,2.16-.32-.5-.6-.94-.97-1.53-1.58,.57-3.17,1.15-4.75,1.72-.24,.72,.66,1.87-.96,2.04-.21-.51-.43-1.06-.69-1.72-.86,.25-1.6,.46-2.41,.7-.21,.73,.54,1.91-.95,2.2-.24-.6-.47-1.17-.73-1.8-1.65,.09-.18,1.58-1.22,2.17-.22-.07-.69-.22-1.17-.37-.35,.86-.41,.88-2.18,1.04-.26-.85-.53-1.73-.81-2.68-1.31,.83-.89,1.8-.38,2.89-1.87,.1-1.01-1.36-1.5-1.95-1.15-.17-.91,.62-.84,1.23,.09,.72-.03,1.18-1.04,.93-.08-.65-.17-1.33-.25-2-.8-.07-.95,.27-.65,.8,.36,.66,.23,1.11-.64,1.55-.27-.58-.52-1.13-.83-1.81-.11,.63-.02,1.42-.35,1.64-.45,.31-1.22,.2-1.8,.26-.23-.87-.44-1.63-.65-2.39,0,0-.24,.04-.53,.09,.03,.7,.07,1.43,.11,2.16q-1.91,.09-2.05,1.72c-.45,.16-.91,.33-1.7,.61,.43-.77,.71-1.27,1.1-1.97-.95-.12-1.55-.81-2.53-.18-.32,.2-1.17-.37-1.82-.61,.44-.6,.81-1.1,1.34-1.82-1.08-.23-1.82-.38-2.75-.58,.09,.9,.16,1.62,.23,2.45-.69-.04-1.26-.09-1.84-.12,.01-.78,.02-1.53,.04-2.39-1.08,.02-1.97,.04-2.92,.07,.42,.61,.77,1.12,1.14,1.66-1.35,.82-2.46,.21-3.52,.01-1.03-.2-2.04-.67-2.99-1.14-.34-.17-.51-.69-.62-1.23,1.67,.95,3.33,1.43,5.13,.91Zm-3.79-3.3c.02,.13,.04,.25,.06,.37-.44,.23-.88,.47-1.41,.75-.23-.38-.42-.68-.89-1.44,1.06,.16,1.65,.24,2.23,.32Zm-7.84,.05c.53,.34,1.02,.73,1.57,1.13,1.1-1.17-.04-1.42-.39-1.91,.8-.98,1.53-.15,2.3,.06-1.59,2.2,1.22,2.51,1.73,3.98-2.05-.61-4.1-1.21-6.14-1.84-.52-.16-.78-.52-.53-1.05,.32-.68,.85-.75,1.46-.37Zm-3.74-.54c1.36-.76,.28-1.64,.5-2.5,.27,.11,.71,.19,.73,.32,.18,1.12,.28,2.24,.45,3.72-1.64-.6-2.87-1.05-4.34-1.59,.63-.87,1.17-1.61,1.81-2.5,.31,.94,.56,1.68,.85,2.55ZM144.12,26.74q-1.19-.21-1.82-1.48c.54,.44,1.09,.88,1.82,1.48ZM42.43,141.34c.32,.39,.62,.83,1.02,1.13,2.46,1.86,5.02,3.58,7.81,4.94,.4,.2,.68,.64,1.08,.84,.36,.18,.81,.19,1.36,.31,.04,.55,.07,1.1,.12,1.96-.7-.27-1.18-.41-1.62-.64-3.52-1.84-6.44-4.45-9.36-7.04-.76-.68-1.44-1.37-2.57-1-.07-1.94-1.68-2.88-2.83-4.09,.18-.12,.25-.2,.29-.19,.29,.11,4.54,3.58,4.7,3.78Zm36.39-58.93c-.67,.07-1.08,.11-1.59,.16,.37-.8,.77-.89,1.59-.16Zm-70.07,.04c.53-1.06,.04-2.1-.08-3.16-.31-2.78-.64-5.58-.57-8.36,.03-1.32,.95-2.61,1.43-3.92,.47-1.3,1.49-2.45,1-4.07,.63-.42,1.11-.74,1.79-1.19-.03,1.2,0,2.2-.1,3.19-.22,2.04-.44,4.09-.82,6.1-.31,1.7-.94,3.35-1.25,5.06-.26,1.46-.22,2.97-.38,4.44-.08,.73-.32,1.45-.5,2.24-.33-.2-.52-.3-.51-.32ZM47.34,32c-.73,.59-1.45,1.17-2.34,1.9-.54-.27-1.29-.23-2,.49-1.1,1.11-2.54,1.08-4.33,.89,2.47-2.63,5.69-2.73,8.68-3.28Zm10.73-17.46c.33,.13,.66,.26,.99,.39-.01,.07-.02,.13-.04,.2-.37-.04-.74-.08-1.11-.13,.05-.16,.1-.31,.15-.46Zm-21.66,24.53c-.83,1.02-1.24,1.69-1.81,2.18-.53,.46-1.23,.75-2.05,1.22-.29-.6-.52-1.09-.76-1.59-.3,.06-.68,.14-1.36,.28,1.09-1.3,2.01-2.4,3.13-3.73,.27,1.46,1.23,1.73,2.85,1.64Zm18.33-12.56c.4-.49,.61-.44,1.66,.23-.79,.33-1.53,.63-2.26,.94v.02h-.02c-.95,.16-1.9,.32-2.97,.51,1.4-1.07,1.83-1.13,2.97-.51h.02c.19-.4,.33-.84,.61-1.17ZM27.81,62.42c.15,.1,.3,.19,.46,.29-1.09,1.37-2.18,2.75-3.28,4.13-.48-2.48,2.02-2.85,2.82-4.41ZM6.83,93.89c-.15-.18-.35-.34-.43-.54-.03-.08,.18-.25,.4-.53,.17,.31,.35,.5,.37,.7,.02,.12-.21,.25-.34,.38Zm3.09,15.78c1.05,.46,1.2,1.32,1.54,2.05-.77-.42-1.52-.84-1.54-2.05Zm7.64,11.24c-.88-1.46-1.73-2.96-2.45-4.5-.24-.51-.07-1.19-.08-1.79,0,0,0-.02-.01-.03h0c-1.13-.36-1.1-1.43-1.37-2.25-.41-1.22-.79-2.37-2.39-2.43-.49-2.1-.95-4.13-2.43-5.73-1.05,.4-.43,1.13-.47,1.71-1.66-1.77-1.66-1.97-.64-4.17,.22-.47,.17-1.12,.09-1.67-.21-1.26-.54-2.51-.77-3.77-.06-.33,.09-.69,.47-1.06,.2,.52,.49,1.03,.57,1.56,.26,1.72,.6,3.39,1.75,4.82,.16,.2,.26,.49,.26,.73,0,1.55,.37,2.87,1.69,3.98,.41,.34,.25,1.33,.35,2.1,.64,.44,.93-1.28,1.79-.27,.08,.59-1.31,.83-.51,1.69,.21-.13,.42-.26,.83-.52-.02,.65-.03,1.17-.05,1.69,.39,.17,.8,.35,1.14,.5-.11,1.1-.2,2.08-.29,3.06h.01s0,.03,0,.04c.19,.33,.32,.83,.6,.94,.83,.32,.94,1,1.22,1.66,.46,1.07,1.02,2.11,1.53,3.17,.31,.64,.6,1.28,.61,2.15-.48-.54-1.05-1.03-1.41-1.63ZM84.67,15.86c-.13,.02-.3-.15-.45-.24,.11-.13,.2-.33,.34-.38,.12-.04,.31,.09,.56,.18-.2,.21-.3,.41-.45,.44Zm-41.75,55.92c.18,.02,.35,.06,.74,.13-.59,.13-.99,.21-1.39,.3,0-.17-.01-.33-.02-.5,.22,.02,.44,.04,.66,.07ZM87.9,18.22c.2-.02,.42,.09,.63,.14-.09,.14-.15,.33-.28,.4-.12,.06-.32,0-.57-.02,.09-.24,.14-.52,.22-.53Zm-6.52,9.45c.15-.11,.28-.27,.45-.31,.12-.03,.3,.09,.41,.19,.04,.04-.03,.28-.1,.31-.14,.06-.32,.03-.48,.04-.09-.08-.19-.15-.28-.22Zm6.76-11.15c-.05-.19-.1-.39-.14-.58,.37-.16,.73-.45,1.11-.46,.76-.02,1.53,.11,2.29,.22,.08,.01,.12,.33,.18,.51-1.19,.1-2.31,.2-3.43,.3ZM16.06,102.22c-1.26-.74-1.18-1.83-1.61-2.64-.47-.86-.77-1.81-1.19-2.83-.38,.17-.7,.31-.95,.42,.05-1.24,.1-2.49,.16-3.75,.64,1.12,1.48,1.98,2.26,2.92,1.34,1.62,1.56,3.6,1.33,5.87Zm17.32-15.54c.65-.47,1.14-.82,2-1.44-.12,.98-.16,1.47-.24,1.96-.02,.11-.15,.19-.39,.48-.4-.29-.82-.59-1.38-.99ZM95.54,17.01c.04-.15,.09-.3,.13-.45,.38,.1,.77,.19,1.15,.29-.02,.13-.05,.27-.07,.4-.4-.08-.81-.15-1.21-.24ZM37.17,86.27c-.07-1.62,1-1.67,2.12-1.78,.05,1.5-1.31,1.2-2.12,1.78ZM108.14,18.8c-.03,.15-.06,.31-.09,.46-1-.25-2-.5-3-.75,.01-.12,.02-.23,.03-.35,1.02,.21,2.04,.42,3.06,.64Zm6.62-9.69c.1,.04,.21,.07,.31,.11-.05,.25-.1,.5-.15,.75-.19-.15-.97,.34-.53-.47,.08-.15,.24-.26,.37-.39Zm-50.74,61.65c-1.28,.2-2.55,.4-3.94,.61-.53-.64-.05-1.23,.13-1.87,1.46-.28,2.61,.3,3.81,1.25Zm30.06-35.55c.61-.32,.97-.68,1.51,.4-.7-.19-.99-.26-1.51-.4Zm8.23-17.31c.02-.1,.04-.2,.06-.3,.56,.1,1.12,.18,1.67,.28-.04,.16-.07,.33-.11,.49-.54-.16-1.09-.31-1.63-.46ZM14.93,128.09c-.17-.31-.34-.63-.51-.94,.09-.05,.19-.11,.28-.17,.22,.28,.43,.55,.65,.83-.14,.1-.28,.19-.42,.28Zm3.9-3.16c1.16-.06,1.77,.39,1.68,1.82-.7-.76-1.19-1.29-1.68-1.82ZM94.74,33.19c.47-.3,.68-.56,.92-.56,1.24-.02,2.48-.02,3.72,.06,.74,.04,1.09,.44,.62,1.29-1.71-.25-3.32-.5-5.26-.79Zm14.49-14.16c.64,.18,1.28,.36,1.92,.53-.02,.13-.05,.25-.07,.38-.65-.1-1.31-.2-1.96-.31,.04-.2,.07-.41,.11-.61ZM35.96,118.47c-.48-.44-.59-.86,.41-1.36,.03,.61,.05,1.02,.08,1.45-.26-.05-.41-.03-.49-.1Zm33.63-36.78c-.02-.15,.1-.33,.16-.49,.15,.06,.33,.1,.34,.15,.01,.18-.04,.35-.07,.53-.15-.06-.42-.11-.43-.18Zm4.46-.38s.29-.17,.45-.25c.91-.39,1.42-.06,1.71,1.1-1.75,.16-3.4,.3-5.15,.46-.13-.68-.42-1.1,.66-1.3,.82-.16,1.48-.98,2.33-.01ZM116.56,6.7c2.29,1.2,4.71,2.19,6.91,3.52,2.13,1.29,4.68,2.01,6.05,4.49-.54-.22-1.12-.4-1.63-.68-1.81-.98-3.65-1.9-5.37-3.01-2.28-1.49-4.82-2.31-7.4-2.83-2.31-.46-4.05-1.76-5.95-2.97,2.51,.3,5.04,.26,7.38,1.48Zm-29.22-3.58c1.33-.04,2.7,.12,3.98-.14,1.92-.39,3.67-.73,5.64,.28,1.09,.56,2.61,.3,3.94,.42,.46,.04,.96,.03,1.38,.2,2.79,1.12,5.57,2.27,8.34,3.44,.26,.11,.44,.41,.98,.96-2.07-.34-4.02-.15-5.27-.97-2.6-1.7-5.46-1.27-8.17-1.85-2.73-.59-5.51-.95-8.27-1.37-.6-.09-1.22,0-2.13,0-.14-.15-.41-.44-.67-.72,.09-.1,.17-.26,.25-.26Zm-9.69,13.49c-1.4,1.21-1.49,1.19-2.21-.67,.9,.28,1.47,.45,2.21,.67Zm-7.39-3.79c-.76,.33-1.04,.46-1.45,.63-.14-.43-.26-.81-.48-1.5,.7,.32,1.11,.51,1.93,.87Zm-.7-2.59c.09,.08,.18,.16,.28,.25-.22,.24-.45,.49-.67,.73-.09-.08-.19-.17-.28-.25,.22-.24,.45-.49,.68-.73Zm-5.13-4.43c-.92-.02-1.68-.04-2.43-.06,.01-.16,.02-.32,.03-.48,.75,.17,1.68-.94,2.4,.54Zm-17.67,2.23c-1.44,1.17-1.91,1.34-4.37,1.22,1.42-.4,2.84-.79,4.37-1.22ZM22.61,29.06c.68-1.08,1.71-1.93,2.53-2.93,.34-.41,.51-.96,.8-1.43,.18-.28,.39-.59,.67-.77,2.7-1.78,5.4-3.55,8.12-5.31,2.38-1.53,4.93-2.75,7.56-3.83,1.76-.73,3.57-1.34,5.37-1.98,.36-.13,.8-.3,1.15-.21,1.24,.3,2.24-.28,3.17-.81,.54-.31,.97-.54,1.61-.47,.45,.05,1.08,.07,1.35-.18,1.14-1.08,2.15-.48,2.89-.02,1.21-.29,2.14-.61,3.1-.72,1.27-.16,1.64,.98,2.24,1.93,.4-.91,.55-1.84,1.1-2.31,.68-.58-1.12-1.57,.6-1.81-.07,.67-.11,1.27-.2,1.86-.27,1.83,.13,2.27,2.09,2.3,.13,0,.26,.03,.44,.06,.31,.37,.63,.76,.93,1.12-.11,.43-4.87,1.09-6.26,.93l.07,.03c-.61,.08-1.23,.16-1.96,.26-.07-.84-.13-1.47-.21-2.35-.64,.07-1.27,.11-1.88,.22-2.26,.41-2.35,.68-.88,2.58-.2,.22-.4,.44-.63,.68-.46-.62-.77-1.19-1.23-1.61-.29-.26-.81-.45-1.19-.41-.76,.08-1.51,.3-2.24,.55-1.13,.38-2.35,.48-3.31,1.33-.55,.48-1.38,.7-2.13,.91-1.64,.47-1.74,.61-1.17,2.26,.08,.21,.1,.44,.18,.77q-2.24-1.17-3.53-.58c.14,.62,.29,1.26,.44,1.91-.1,.04-.19,.07-.29,.11-.15-.22-.33-.44-.46-.67-.16-.28-.28-.57-.42-.85q-2.31,.87-1.94,2.97c-.63,.47-1.03,.36-1.33-.42-.08-.2-.49-.27-.76-.4-.1,.31-.26,.61-.27,.92-.02,.4,.1,.8-.13,1.29-.27-.41-.53-.82-.78-1.2-.62-.22-2.04,.33-2.32,1.17-.22,.66-.5,.55-1.02,.67-1.35,.3-1.85,1.07-1.93,2.52-.39-.05-.77-.1-1.18-.15-.73,.87-1.42,1.79-2.21,2.61-.73,.76-1.6,1.38-2.33,2.13-.75,.78-1.39,1.66-2.11,2.47-1.36,1.54-2.77,3.04-4.1,4.6-1.1,1.3-2.12,2.67-3.28,4.14-.1-.3-.27-.55-.21-.72,1.12-3.06,2.1-6.17,3.64-9.06,.09-.17,.15-.41,.29-.49,1.21-.69,1.57-1.89,1.85-3.13,.72,.14,1.24,.27,1.73-.5Z"/><path class="d" d="M93.98,154.59h0s.02-.04,.03-.07l-.04,.07Z"/></g><path class="e" d="M146.55,34.36c.4-.29,.8-.59,1.34-.99,1.27,.93,2.58,1.76,3.61,3.21,.71,1,1.74,1.89,2.31,3.05,1.54,3.16,3.04,6.35,4.55,9.52,.11,.23,.19,.57,.38,.66,1.24,.58,.03,1.96,.99,2.61-.43,.93,.21,1.54,.65,2.29,.63,1.07,1.07,2.25,1.5,3.42,.49,1.32,.8,2.74,2.64,3.09-.32-1.63-.65-3.28-1.02-5.19,.59,.03,1.17,.05,1.93,.08-.26,.91-.53,1.61-.65,2.34-.24,1.45,.13,1.87,1.73,2.13,1.07,1.91,.6,3.62-.65,5.31-.64-1.33-1.27-2.63-2.09-4.32-.64,1.83,.55,3.15,.37,4.63-.57-.07-1.08-.11-1.58-.2-.98-.2-1.47-.68-1.45-1.77,.03-1.43-.14-2.89-2.18-3.45,.98-.93,.23-1.83-.09-2.73-.64-1.8-1.31-3.6-2.06-5.37-.58-1.37-1.27-2.69-1.93-4.02-.46-.95-.86-1.94-1.44-2.81-.96-1.44-1.83-2.89-2.17-4.6-.12-.6-.48-1.33-.97-1.67-1.77-1.25-1.48-3.03-1.63-4.76-.68-.15-1.39-.32-2.11-.49,0,0,.01,.02,.01,.02Z"/><path class="e" d="M153.6,36.11q.89,1.24,1.92,.95c.85,1.03,1.65,2,2.46,2.97,1.97,2.37,3.64,4.89,4.03,7.97,.08,.63,.33,1.39-.55,1.88-.31,.17-.28,.89-.57,1.42-.52-1.71-2.16-2.8-2.33-4.77-.15-1.72-.75-3.43-1.28-5.1-.23-.7-.51-1.32-1.52-1.77-1.02-.46-2.25-1.57-2.16-3.56Z"/><path class="e" d="M46.56,158.87c-1.12,1.25-1.86,1.47-2.79,.38-1.02-1.19-2.4-1.8-3.59-2.64-1.63-1.16-2.76-2.39-2.93-4.43,.66-.36,1.28-.08,1.8,.31,.84,.64,1.79,1.27,2.37,2.11,.91,1.33,2.09,2.21,3.48,2.95,.62,.33,1.11,.87,1.67,1.31Z"/><path class="e" d="M150.01,135.87c.09-1.69,1.2-2.43,2.51-3.03,.22-1.63,.8-3.08,2.53-4.13,.27,.52,.79,1.06,.7,1.46-.2,.85-.5,1.94-1.16,2.36-1.22,.79-1.8,1.94-2.54,3.02-.54,.79-1.12,1.05-2.05,.31Z"/><path class="e" d="M168.53,71.72c-.67-.32-1.26-.6-2.03-.98,.02-.98,.04-2.02,.06-3.23,.69,.16,1.25,.13,1.4,.35,.78,1.15,.74,2.44,.57,3.86Z"/><path class="e" d="M151.71,31.77c2.24-.2,2.53,1.52,3.33,2.89-.54,.28-1.09,.56-2.04,1.05,.25-.77,.35-1.07,.46-1.39-.63-.44-1.34-.81-1.86-1.35-.19-.21,.07-.82,.11-1.2Z"/><path class="e" d="M75.96,4.95c-.5-1.93-.48-1.96,1.05-2.01,.55-.02,1.11,.05,1.66,.08,.04,.15,.07,.3,.11,.45-.92,.48-1.84,.96-2.82,1.48Z"/><path class="e" d="M145.75,139.78q2.07-1.83,3.16-2.04c-.03,.52,.08,1.02-.1,1.37-.61,1.17-1.71,.48-3.06,.67Z"/><path class="e" d="M34.4,151.46c.49-.7,.78-1.12,1.07-1.53,.38,.31,1.76,.26,1.08,1.49-.57,1.04-1.32,.26-2.15,.04Z"/><path class="e" d="M38.2,149.49c.71,.16,1.54,.17,1.42,1.15-.03,.26-.76,.7-1.02,.6-.88-.31-.89-.97-.4-1.75Z"/><path class="e" d="M29.66,16.68c-.36-.31-.72-.61-1.1-.93,.21-.74,.64-1,1.16-.27,.19,.26-.03,.79-.06,1.2h0Z"/><path class="e" d="M67.91,.87c-.49,.75-.74,1.3-1.87,.66,.7-.25,1.14-.41,1.87-.66Z"/><path class="e" d="M80.6,1.23c-.34-.38-.68-.77-1.1-1.23,.52,.17,.99,.32,1.46,.46-.12,.26-.24,.51-.36,.77Z"/><path class="e" d="M163.29,72.34c.2,.18,.4,.36,.6,.54-.09,.08-.23,.23-.25,.22-.21-.16-.4-.35-.6-.53,.08-.08,.17-.16,.25-.24Z"/><path class="e" d="M162.11,53.04c.25,.11,.42,.18,.59,.26-.1,.2-.19,.39-.29,.59-.16-.1-.38-.17-.44-.31-.05-.12,.08-.32,.14-.53Z"/><path class="e" d="M71.96,.63c-.33,.03-.67,.06-1,.09-.02-.09-.04-.19-.06-.29,.31-.07,.63-.13,.95-.2,.03,.13,.07,.26,.1,.39Z"/><path class="e" d="M78.38,152.85c1.52,.49,.84,1.19,.79,2.13-.95-.69-1.07-1.25-.79-2.13Z"/><path class="e" d="M94.01,154.52q-1.15,.64-1.7-.89c1.3-.93,1.27,.39,1.66,.96l.04-.07Z"/><path class="e" d="M76.71,153.77c-.04-.78-.07-1.19-.09-1.59,.44,.38,1.16,.69,.09,1.59Z"/><path class="e" d="M61.94,14.5c-.3-.62-.65-1.23-.89-1.87-.11-.29-.02-.64-.02-1.23,1.22,1.04,1.53,1.95,.85,3.06l.07,.03Z"/></g></g></g></svg>