<?xml version="1.0" encoding="UTF-8"?>
<svg xmlns="http://www.w3.org/2000/svg" xmlns:xlink="http://www.w3.org/1999/xlink" version="1.1" viewBox="0 0 158.7 94.1">
  <!-- Generator: Adobe Illustrator 29.1.0, SVG Export Plug-In . SVG Version: 2.1.0 Build 142)  -->
  <defs>
    <style>
      .st0 {
        fill: url(#linear-gradient1);
      }

      .st1 {
        fill: #ff8d8d;
      }

      .st1, .st2 {
        mix-blend-mode: soft-light;
      }

      .st3 {
        fill: url(#linear-gradient);
      }

      .st4 {
        mix-blend-mode: hue;
      }

      .st4, .st2 {
        fill: #f9e1ac;
      }

      .st5 {
        isolation: isolate;
      }

      .st6 {
        fill: #f9b653;
      }
    </style>
    <linearGradient id="linear-gradient" x1="14.5" y1="42.5" x2="27.7" y2="34.9" gradientUnits="userSpaceOnUse">
      <stop offset="0" stop-color="#f5a344"/>
      <stop offset=".7" stop-color="#f59038"/>
      <stop offset=".7" stop-color="#f69331"/>
      <stop offset="1" stop-color="#ffa415"/>
    </linearGradient>
    <linearGradient id="linear-gradient1" x1="132.4" y1="42.8" x2="145.6" y2="35.2" gradientTransform="translate(274.4) rotate(-180) scale(1 -1)" xlink:href="#linear-gradient"/>
  </defs>
  <g class="st5">
    <g id="Layer_1">
      <image width="561" height="332" transform="translate(-8.8 -1.9) scale(.3 .3)" xlink:href="cal3.png"/>
      <path class="st3" d="M14.9,43.3h15.2l-6.3-14.4h1.2s-.5-.2-.8-.2c-2.7,0-4.7,0-7,5.1-2.1,4.8-2.2,9.5-2.2,9.5Z"/>
      <path class="st4" d="M81.2,28.9H23.5s10.6,24,13.4,29.2,4.1,6.6,14.3,6.6h54.2c6.2,0,9.6.7,14.5-8.9s14-26.8,14-26.8h-52.7Z"/>
      <path class="st2" d="M81.2,28.9H23.5s10.6,24,13.4,29.2,4.1,6.6,14.3,6.6h54.2c6.2,0,9.6.7,14.5-8.9s14-26.8,14-26.8h-52.7Z"/>
      <path class="st1" d="M81.2,28.9H23.5s10.6,24,13.4,29.2,4.1,6.6,14.3,6.6h54.2c6.2,0,9.6.7,14.5-8.9s14-26.8,14-26.8h-52.7Z"/>
      <path class="st0" d="M141.5,43.5h-15.2s6.3-14.4,6.3-14.4h-1.2s.5-.2.8-.2c2.7,0,4.7,0,7,5.1,2.1,4.8,2.2,9.5,2.2,9.5Z"/>
      <path class="st6" d="M935.6,2.5c7.3,0,13.2,5.9,13.2,13.2h0"/>
    </g>
  </g>
</svg>