<?xml version="1.0" encoding="UTF-8"?>
<svg id="Layer_1" xmlns="http://www.w3.org/2000/svg" version="1.1" viewBox="0 0 19 19">
  <!-- Generator: Adobe Illustrator 29.1.0, SVG Export Plug-In . SVG Version: 2.1.0 Build 142)  -->
  <defs>
    <style>
      .st0 {
        fill: #f9b653;
      }
    </style>
  </defs>
  <g id="b">
    <g id="c">
      <path class="st0" d="M17.4,0H1.6C.7,0,0,.7,0,1.6v15.9c0,.9.7,1.6,1.6,1.6h15.9c.9,0,1.6-.7,1.6-1.6V1.6C19,.7,18.3,0,17.4,0h0ZM13,1.8h4.7v.3h-4.7v-.3ZM13,2.3h4.7v.3h-4.7v-.3ZM13,2.8h4.7v.3h-4.7v-.3ZM13,3.3h4.7v.3h-4.7v-.3ZM13,3.8h4.7v.3h-4.7v-.3ZM3,1.7c.6,0,1,.5,1,1s-.5,1-1,1-1-.5-1-1,.5-1,1-1ZM.4,13.8V5.2h6.8c-1.5.8-2.6,2.5-2.6,4.3s1.1,3.5,2.6,4.3H.4ZM9.5,12.4c-1.6,0-2.9-1.3-2.9-2.9s1.3-2.9,2.9-2.9,2.9,1.3,2.9,2.9-1.3,2.9-2.9,2.9ZM18.6,13.8h-6.8c1.5-.8,2.6-2.5,2.6-4.3s-1.1-3.5-2.6-4.3h6.8v8.7Z"/>
    </g>
  </g>
</svg>