<?xml version="1.0" encoding="UTF-8"?><svg xmlns="http://www.w3.org/2000/svg" viewBox="0 0 19 19"><defs><style>.d{fill:#e6508c;}</style></defs><g id="a"/><g id="b"><g id="c"><path class="d" d="M17.44,0H1.56C.7,0,0,.7,0,1.56v15.87c0,.86,.7,1.56,1.56,1.56h15.87c.86,0,1.56-.7,1.56-1.56V1.56c0-.86-.7-1.56-1.56-1.56Zm-4.44,1.76h4.68v.31h-4.68v-.31Zm0,.52h4.68v.31h-4.68v-.31Zm0,.52h4.68v.31h-4.68v-.31Zm0,.52h4.68v.31h-4.68v-.31Zm0,.52h4.68v.31h-4.68v-.31ZM2.96,1.75c.58,0,1.04,.47,1.04,1.04s-.47,1.04-1.04,1.04-1.04-.47-1.04-1.04,.47-1.04,1.04-1.04ZM.39,13.83V5.17H7.18c-1.54,.83-2.59,2.46-2.59,4.33s1.05,3.5,2.59,4.33H.39Zm9.11-1.38c-1.63,0-2.95-1.32-2.95-2.95s1.32-2.95,2.95-2.95,2.95,1.32,2.95,2.95-1.32,2.95-2.95,2.95Zm9.11,1.38h-6.79c1.54-.83,2.59-2.46,2.59-4.33s-1.05-3.5-2.59-4.33h6.79V13.83Z"/></g></g></svg>