<?xml version="1.0" encoding="UTF-8"?>
<svg id="Layer_2" data-name="Layer 2" xmlns="http://www.w3.org/2000/svg" width="45.61" height="45.35" viewBox="0 0 45.61 45.35">
  <defs>
    <style>
      .cls-1 {
        fill: #fff;
      }

      .cls-2 {
        fill: none;
        stroke: #fff;
        stroke-linecap: round;
        stroke-linejoin: round;
        stroke-width: 4px;
      }
    </style>
  </defs>
  <g id="_圖層1" data-name="圖層1">
    <g>
      <path class="cls-1" d="M38.26,18.14c-1.21-.28-2.41.48-2.69,1.69l-2.59,11.29-19.56-.18-4.71-18.85c-.15-.61-.55-1.12-1.1-1.42l-4.28-2.35c-1.09-.6-2.45-.2-3.05.89-.6,1.09-.2,2.45.89,3.05l3.42,1.88,4.8,19.2-2.59,2.04c-.31.24-.49.61-.49,1.01v3.21c0,.7.56,1.27,1.27,1.28l3.62.05c-.5.47-.82,1.13-.82,1.87,0,1.42,1.15,2.57,2.57,2.57s2.57-1.15,2.57-2.57c0-.71-.29-1.36-.76-1.82l16.94.24c-.35.44-.56.98-.56,1.59,0,1.42,1.15,2.57,2.57,2.57s2.57-1.15,2.57-2.57c0-.57-.2-1.1-.52-1.53l2.21.03h.02c.7,0,1.27-.56,1.28-1.26.01-.71-.56-1.29-1.27-1.3l-29.11-.41v-1.32l2.14-1.69c.2.06.41.1.62.1l23.1.21h.02c1.05,0,1.95-.72,2.19-1.74l3-13.05c.28-1.21-.48-2.41-1.69-2.69Z"/>
      <g>
        <path class="cls-2" d="M23.36,24.13s-3.77-18.82,13.76-18.15"/>
        <polygon class="cls-1" points="34.48 11.83 45.61 7.46 36.25 0 34.48 11.83"/>
      </g>
    </g>
  </g>
</svg>