<svg xmlns="http://www.w3.org/2000/svg" viewBox="0 0 77.68 26.46"><defs><style>.cls-1{fill:#e9528e;}.cls-2{fill:#fff;}</style></defs><g id="Layer_2" data-name="Layer 2"><g id="圖層_1" data-name="圖層 1"><rect class="cls-1" width="77.68" height="26.46" rx="13.23"/><path class="cls-2" d="M17.07,6.42h2.3c.59,0,.89.25.89.75v8.3a.71.71,0,0,1-.58.79.74.74,0,0,1,.14.22,16.69,16.69,0,0,0,.63,3.13.7.7,0,0,1,.11.37.44.44,0,0,1-.08.31.47.47,0,0,1-.42.19.72.72,0,0,1-.49-.26A16.05,16.05,0,0,1,19,17.78a9.94,9.94,0,0,1-.13-1.17.58.58,0,0,1,.08-.32H17.81a.33.33,0,0,1,.06.19,1.25,1.25,0,0,1-.05.3,24.39,24.39,0,0,1-1.08,3.37.44.44,0,0,1-.36.21c-.38,0-.57-.15-.57-.44a.36.36,0,0,1,.06-.25A31.59,31.59,0,0,0,17,16.36l0-.07c-.48,0-.72-.3-.72-.82V7.17Q16.26,6.42,17.07,6.42Zm.24,2.86h1.87V7.73q0-.39-.36-.39H17.63c-.22,0-.32.13-.32.39Zm0,2.94h1.87v-2H17.31Zm1.51,3.12q.36,0,.36-.42V13.17H17.31v1.75c0,.28.1.42.32.42ZM30,7c.3,0,.46.14.46.42s-.16.52-.46.52H27.93v.8H29.7q.42,0,.42.45c0,.29-.14.44-.42.44H27.93v1h2.33c.28,0,.42.15.42.46s-.14.5-.42.5H26.12v1h2.62q1.08,0,1.08,1V17h.5a.44.44,0,0,1,.5.49.45.45,0,0,1-.5.51h-.5v1c0,1-.59,1.5-1.76,1.5a6.83,6.83,0,0,1-1.68-.26.51.51,0,0,1-.39-.49c0-.42.15-.62.46-.62a1.61,1.61,0,0,1,.34,0,4.64,4.64,0,0,0,1.14.21c.54,0,.81-.22.81-.64V18H22.56V20c0,.34-.19.5-.57.5s-.48-.16-.48-.5V18H21a.44.44,0,0,1-.5-.51c0-.33.16-.49.5-.49h.56V13.67a.92.92,0,0,1,1-1h2.51v-1H21.13c-.3,0-.45-.17-.45-.5a.4.4,0,0,1,.45-.46h2v-1H21.57a.39.39,0,0,1-.44-.44.39.39,0,0,1,.44-.45h1.56v-.8H21.18c-.29,0-.44-.17-.44-.52s.15-.42.44-.42h1.95V6.36a.44.44,0,0,1,.5-.5c.38,0,.57.16.57.5V7h2.62V6.42a.49.49,0,0,1,.55-.56.49.49,0,0,1,.56.56V7Zm-7.43,7.8h2.51V13.61H22.74c-.12,0-.18.12-.18.37Zm0,2.2h2.51V15.67H22.56Zm4.26-8.26v-.8H24.2v.8Zm0,1.93v-1H24.2v1Zm-.7,3v1.17h2.62V14c0-.25-.08-.37-.23-.37Zm0,2.06V17h2.62V15.67Z"/><path class="cls-2" d="M34.16,6.65c.37,0,.55.21.55.63,0,.65,0,1.29-.08,1.89H35.9V6.48a.51.51,0,0,1,.56-.58.51.51,0,0,1,.58.58V9.17h1a.44.44,0,0,1,.5.5c0,.36-.16.55-.5.55H37v3.65c.27-.16.56-.36.86-.58l.26-.06c.37,0,.55.21.55.63a.74.74,0,0,1-.27.48,10.5,10.5,0,0,1-1.4,1v4.61a.5.5,0,0,1-.58.56.5.5,0,0,1-.56-.56v-4a13.3,13.3,0,0,1-1.89.8,1.07,1.07,0,0,1-.35.08q-.57,0-.57-.63a.6.6,0,0,1,.45-.62,13.37,13.37,0,0,0,2.09-.85l.27-.14V10.22H34.52A16.66,16.66,0,0,1,34,12.84c-.06.33-.29.5-.69.5a.37.37,0,0,1-.42-.42,1.56,1.56,0,0,1,.06-.44,20.08,20.08,0,0,0,.75-5.31C33.67,6.83,33.84,6.65,34.16,6.65Zm6.19-.79c.38,0,.56.16.56.5,0,.6-.1,1.16-.18,1.67h5.62c.79,0,1.19.34,1.19,1a66.83,66.83,0,0,1-.38,8,4.82,4.82,0,0,1-.9,2.64,2.64,2.64,0,0,1-2,.7A6.06,6.06,0,0,1,42.52,20a.61.61,0,0,1-.42-.64c0-.41.18-.62.55-.62a7,7,0,0,0,1.64.39,1.43,1.43,0,0,0,1.22-.53,5.69,5.69,0,0,0,.53-2,53.31,53.31,0,0,0,.31-7.14q0-.42-.45-.42h-.5c0,.23,0,.45-.06.67a17.86,17.86,0,0,1-1,4.15,14.37,14.37,0,0,1-1.65,3.15,16.46,16.46,0,0,1-2.59,2.84.74.74,0,0,1-.44.12.57.57,0,0,1-.4-.18.68.68,0,0,1-.16-.46.57.57,0,0,1,.17-.42,16.73,16.73,0,0,0,2.5-2.61,11.73,11.73,0,0,0,1.53-2.94,17.26,17.26,0,0,0,1-4.32H43a1.54,1.54,0,0,1-.05.17,15.76,15.76,0,0,1-1,3.22,14.71,14.71,0,0,1-1.37,2.65A9.2,9.2,0,0,1,39,17a.63.63,0,0,1-.39.13.56.56,0,0,1-.4-.19.7.7,0,0,1-.17-.44.51.51,0,0,1,.21-.39,9.18,9.18,0,0,0,1.46-1.72,15.93,15.93,0,0,0,1.3-2.5,14.51,14.51,0,0,0,.86-2.76H40.52l-.09.37a9,9,0,0,1-1.33,2.67.82.82,0,0,1-.58.33c-.46,0-.68-.21-.68-.62a.67.67,0,0,1,.18-.33A6.72,6.72,0,0,0,39.3,9.14a12.69,12.69,0,0,0,.49-2.78C39.79,6,40,5.86,40.35,5.86Z"/><path class="cls-2" d="M64.32,7.11a.44.44,0,0,1,.5.5c0,.36-.17.54-.5.54h-6V9.47h4.56c.74,0,1.11.33,1.11,1v4.3a1,1,0,0,1-1.11,1.08H58.32v1.43h6.23a.57.57,0,1,1,0,1.13H58.32v1.67c0,.39-.21.58-.63.58a.51.51,0,0,1-.57-.58V18.42H51a.57.57,0,1,1,0-1.13h6.11V15.86H52.49a.94.94,0,0,1-1.05-1.08v-4.3c0-.68.35-1,1.05-1h4.63V8.15H51.05c-.33,0-.5-.18-.5-.54a.44.44,0,0,1,.5-.5h6.07V6.29a.5.5,0,0,1,.57-.56c.42,0,.63.19.63.56v.82ZM52.62,12h4.5V10.54H53c-.26,0-.39.15-.39.44Zm4.5,2.75V13h-4.5v1.25c0,.33.13.49.39.49Zm1.2-4.24V12h4.5V11a.39.39,0,0,0-.44-.44Zm4.06,4.24c.29,0,.44-.16.44-.49V13h-4.5v1.74Z"/></g></g></svg>