<?xml version="1.0" encoding="UTF-8"?>
<svg xmlns="http://www.w3.org/2000/svg" width="24" height="22.39" viewBox="0 0 24 22.39">
  <defs>
    <style>
      .cls-1 {
        fill: #fff;
      }
    </style>
  </defs>
  <g id="Layer_1" data-name="Layer 1"/>
  <g id="Layer_2" data-name="Layer 2">
    <g id="_層1" data-name="圖層1">
      <g>
        <path class="cls-1" d="M22.95,6.07c-.73-.17-1.45,.29-1.62,1.01l-1.56,6.77-11.73-.11L5.22,2.43c-.09-.36-.33-.67-.66-.85L2,.17C1.34-.19,.53,.05,.17,.7c-.36,.65-.12,1.47,.53,1.83l2.05,1.13,2.88,11.52-1.55,1.22c-.19,.15-.29,.37-.29,.6v1.92c0,.42,.34,.76,.76,.77l2.17,.03c-.3,.28-.49,.68-.49,1.12,0,.85,.69,1.54,1.54,1.54s1.54-.69,1.54-1.54c0-.43-.18-.81-.46-1.09l10.16,.14c-.21,.26-.34,.59-.34,.95,0,.85,.69,1.54,1.54,1.54s1.54-.69,1.54-1.54c0-.34-.12-.66-.31-.92l1.33,.02h.01c.42,0,.76-.34,.77-.76,0-.43-.33-.77-.76-.78l-17.47-.25v-.79l1.28-1.01c.12,.04,.24,.06,.37,.06l13.86,.13h.01c.63,0,1.17-.43,1.31-1.05l1.8-7.83c.17-.73-.29-1.45-1.01-1.61Z"/>
        <path class="cls-1" d="M17.12,6.61h-1.25V2.99c0-.44-.36-.8-.8-.8h-2.41c-.44,0-.8,.36-.8,.8v3.62h-1.25c-.55,0-.74,.36-.41,.81l.93,1.25c.33,.44,.87,1.17,1.2,1.62l.93,1.25c.33,.44,.87,.44,1.2,0l.93-1.25c.33-.44,.87-1.17,1.2-1.62l.93-1.25c.33-.45,.15-.81-.41-.81Z"/>
      </g>
    </g>
  </g>
</svg>