<?xml version="1.0" encoding="UTF-8"?>
<svg id="Layer_2" data-name="Layer 2" xmlns="http://www.w3.org/2000/svg" width="77.68" height="26.46" viewBox="0 0 77.68 26.46">
  <defs>
    <style>
      .cls-1 {
        fill: #fff;
      }

      .cls-2 {
        fill: #f9b653;
      }
    </style>
  </defs>
  <g id="_圖層_1" data-name="圖層 1">
    <g>
      <rect class="cls-2" x="0" y="0" width="77.68" height="26.46" rx="13.23" ry="13.23"/>
      <g>
        <path class="cls-1" d="M17.07,6.42h2.3c.59,0,.89.25.89.75v8.3c0,.45-.19.71-.58.8.06.06.11.14.14.22.11,1.08.32,2.12.62,3.12.07.11.11.24.11.38,0,.16-.03.26-.08.31-.08.12-.22.19-.42.19-.16,0-.32-.09-.48-.27-.25-.72-.46-1.53-.62-2.44-.08-.59-.12-.98-.12-1.17,0-.14.03-.24.08-.31h-1.09c.04.05.06.11.06.19,0,.08-.02.18-.05.3-.32,1.28-.68,2.41-1.08,3.38-.1.14-.22.2-.36.2-.39,0-.58-.15-.58-.44,0-.12.02-.21.06-.25.35-.86.71-1.97,1.08-3.31l.03-.06c-.48-.03-.72-.31-.72-.83V7.17c0-.5.27-.75.81-.75ZM17.31,9.28h1.88v-1.55c0-.26-.12-.39-.36-.39h-1.19c-.22,0-.33.13-.33.39v1.55ZM17.31,12.22h1.88v-2h-1.88v2ZM18.82,15.34c.24,0,.36-.14.36-.42v-1.75h-1.88v1.75c0,.28.11.42.33.42h1.19ZM30,6.98c.3,0,.45.14.45.42,0,.34-.15.52-.45.52h-2.06v.8h1.77c.28,0,.42.15.42.45s-.14.44-.42.44h-1.77v1.05h2.33c.28,0,.42.15.42.45,0,.33-.14.5-.42.5h-4.14v1.05h2.62c.72,0,1.08.34,1.08,1.02v3.31h.5c.33,0,.5.16.5.48,0,.34-.17.52-.5.52h-.5v1c0,1-.59,1.5-1.77,1.5-.47,0-1.03-.09-1.67-.27-.26-.09-.39-.26-.39-.48,0-.42.15-.62.45-.62.09,0,.21.02.34.05.5.14.88.2,1.14.2.54,0,.81-.21.81-.64v-.73h-6.19v2.06c0,.33-.19.5-.56.5-.32,0-.48-.17-.48-.5v-2.06h-.56c-.33,0-.5-.17-.5-.52,0-.32.17-.48.5-.48h.56v-3.31c0-.68.35-1.02,1.05-1.02h2.52v-1.05h-3.94c-.3,0-.45-.17-.45-.5,0-.3.15-.45.45-.45h2v-1.05h-1.56c-.29,0-.44-.15-.44-.44s.15-.45.44-.45h1.56v-.8h-1.95c-.29,0-.44-.17-.44-.52,0-.28.15-.42.44-.42h1.95v-.62c0-.33.17-.5.5-.5.38,0,.56.17.56.5v.62h2.62v-.56c0-.38.18-.56.55-.56s.56.19.56.56v.56h2.06ZM22.56,14.78h2.52v-1.17h-2.33c-.12,0-.19.12-.19.38v.8ZM22.56,16.98h2.52v-1.31h-2.52v1.31ZM26.82,8.72v-.8h-2.62v.8h2.62ZM26.82,10.65v-1.05h-2.62v1.05h2.62ZM26.12,13.61v1.17h2.62v-.8c0-.25-.08-.38-.23-.38h-2.39ZM26.12,15.67v1.31h2.62v-1.31h-2.62Z"/>
        <path class="cls-1" d="M34.17,6.65c.36,0,.55.21.55.62,0,.66-.03,1.29-.08,1.89h1.27v-2.69c0-.39.19-.58.56-.58s.58.19.58.58v2.69h.98c.33,0,.5.17.5.5,0,.36-.17.55-.5.55h-.98v3.66c.27-.17.56-.36.86-.58l.27-.06c.36,0,.55.21.55.62,0,.15-.09.31-.27.48-.38.31-.84.64-1.41.97v4.61c0,.38-.19.56-.58.56s-.56-.19-.56-.56v-4.02c-.66.33-1.29.6-1.89.8-.14.05-.25.08-.34.08-.39,0-.58-.21-.58-.62,0-.31.15-.52.45-.62.85-.28,1.55-.56,2.09-.84.08-.04.17-.09.27-.14v-4.33h-1.38c-.12.92-.31,1.79-.56,2.62-.06.33-.29.5-.69.5-.28,0-.42-.14-.42-.42,0-.16.02-.3.06-.44.44-1.42.69-3.19.75-5.31.01-.34.18-.52.5-.52ZM40.35,5.86c.38,0,.56.17.56.5-.04.6-.1,1.16-.19,1.67h5.62c.79,0,1.19.34,1.19,1.02,0,3.4-.12,6.07-.38,8.03-.16,1.28-.46,2.16-.91,2.64-.45.47-1.1.7-1.97.7-.43,0-1.02-.12-1.77-.38-.28-.1-.42-.32-.42-.64,0-.42.18-.62.55-.62.82.26,1.37.39,1.64.39.55,0,.96-.18,1.22-.53.25-.45.43-1.1.53-1.97.21-1.3.31-3.68.31-7.14,0-.28-.15-.42-.45-.42h-.5c-.01.23-.03.45-.06.67-.15,1.34-.48,2.73-1,4.16-.41,1.09-.95,2.14-1.64,3.14-.69.98-1.55,1.93-2.59,2.84-.11.08-.26.12-.44.12-.15,0-.28-.06-.41-.19-.1-.12-.16-.28-.16-.45s.06-.32.17-.42c1.09-.96,1.93-1.83,2.5-2.61.64-.9,1.15-1.88,1.53-2.94.48-1.21.82-2.65,1.02-4.33h-1.36c-.01.05-.03.11-.05.17-.27,1.27-.6,2.34-1,3.22-.39.96-.84,1.84-1.38,2.66-.45.69-.97,1.3-1.56,1.83-.11.08-.24.12-.39.12s-.28-.06-.39-.19c-.11-.14-.17-.28-.17-.44,0-.15.07-.28.2-.39.56-.52,1.05-1.09,1.47-1.72.49-.77.92-1.6,1.3-2.5.34-.79.63-1.71.86-2.77h-1.33l-.09.38c-.34,1.06-.79,1.95-1.33,2.67-.2.22-.39.33-.58.33-.46,0-.69-.21-.69-.62,0-.06.06-.17.19-.33.61-.76,1.04-1.56,1.28-2.39.24-.75.4-1.68.48-2.78,0-.33.19-.5.56-.5Z"/>
        <path class="cls-1" d="M64.32,7.11c.33,0,.5.17.5.5,0,.36-.17.55-.5.55h-6v1.31h4.56c.74,0,1.11.34,1.11,1.02v4.3c0,.72-.37,1.08-1.11,1.08h-4.56v1.44h6.23c.39,0,.58.19.58.56s-.19.56-.58.56h-6.23v1.67c0,.39-.21.58-.62.58-.39,0-.58-.19-.58-.58v-1.67h-6.11c-.39,0-.58-.19-.58-.56s.19-.56.58-.56h6.11v-1.44h-4.62c-.7,0-1.05-.36-1.05-1.08v-4.3c0-.68.35-1.02,1.05-1.02h4.62v-1.31h-6.06c-.33,0-.5-.18-.5-.55,0-.33.17-.5.5-.5h6.06v-.81c0-.38.19-.56.58-.56.42,0,.62.19.62.56v.81h6ZM52.62,12.03h4.5v-1.48h-4.11c-.26,0-.39.15-.39.44v1.05ZM57.12,14.78v-1.73h-4.5v1.25c0,.32.13.48.39.48h4.11ZM58.32,10.54v1.48h4.5v-1.05c0-.29-.15-.44-.44-.44h-4.06ZM62.38,14.78c.29,0,.44-.16.44-.48v-1.25h-4.5v1.73h4.06Z"/>
      </g>
    </g>
  </g>
</svg>