<?xml version="1.0" encoding="UTF-8"?><svg xmlns="http://www.w3.org/2000/svg" viewBox="0 0 40 37.32"><defs><style>.d{fill:#e9528e;}</style></defs><g id="a"/><g id="b"><g id="c"><g><path class="d" d="M38.26,10.11c-1.21-.28-2.41,.48-2.69,1.69l-2.59,11.29-19.56-.18L8.7,4.05c-.15-.61-.55-1.12-1.1-1.42L3.33,.28C2.24-.32,.88,.08,.28,1.16c-.6,1.09-.2,2.45,.89,3.05l3.42,1.88,4.8,19.2-2.59,2.04c-.31,.24-.49,.61-.49,1.01v3.21c0,.7,.56,1.27,1.27,1.28l3.62,.05c-.5,.47-.82,1.13-.82,1.87,0,1.42,1.15,2.57,2.57,2.57s2.57-1.15,2.57-2.57c0-.71-.29-1.36-.76-1.82l16.94,.24c-.35,.44-.56,.98-.56,1.59,0,1.42,1.15,2.57,2.57,2.57s2.57-1.15,2.57-2.57c0-.57-.2-1.1-.52-1.53l2.21,.03h.02c.7,0,1.27-.56,1.28-1.26,.01-.71-.56-1.29-1.27-1.3l-29.11-.41v-1.32l2.14-1.69c.2,.06,.41,.1,.62,.1l23.1,.21h.02c1.05,0,1.95-.72,2.19-1.74l3-13.05c.28-1.21-.48-2.41-1.69-2.69Z"/><path class="d" d="M28.54,11.02h-2.09V4.98c0-.74-.6-1.34-1.34-1.34h-4.02c-.74,0-1.34,.6-1.34,1.34v6.04h-2.09c-.92,0-1.23,.61-.68,1.35l1.55,2.08c.55,.74,1.45,1.95,2.01,2.69l1.55,2.09c.55,.74,1.46,.74,2.01,0l1.55-2.09c.55-.74,1.46-1.95,2.01-2.69l1.55-2.08c.55-.74,.25-1.35-.68-1.35Z"/></g></g></g></svg>