<svg xmlns="http://www.w3.org/2000/svg" viewBox="0 0 25.3 23.6"><defs><style>.cls-1{fill:#e9528e;}</style></defs><g id="Layer_2" data-name="Layer 2"><g id="圖層_1" data-name="圖層 1"><path class="cls-1" d="M24.19,6.39a1.42,1.42,0,0,0-1.7,1.07L20.85,14.6,8.48,14.48,5.5,2.56a1.39,1.39,0,0,0-.69-.9L2.11.18A1.42,1.42,0,0,0,.74,2.67L2.9,3.85,5.93,16,4.3,17.28a.81.81,0,0,0-.31.64v2a.81.81,0,0,0,.8.81l2.29,0A1.58,1.58,0,0,0,6.56,22a1.63,1.63,0,0,0,3.25,0,1.6,1.6,0,0,0-.49-1.15L20,21a1.59,1.59,0,0,0-.36,1,1.63,1.63,0,0,0,3.25,0,1.58,1.58,0,0,0-.33-1L24,21h0a.8.8,0,0,0,.81-.8.81.81,0,0,0-.8-.82L5.61,19.15v-.83L7,17.25a1.34,1.34,0,0,0,.4.06L22,17.45h0a1.43,1.43,0,0,0,1.39-1.1L25.26,8.1A1.42,1.42,0,0,0,24.19,6.39Z"/><path class="cls-1" d="M18.05,7H16.73V3.15a.85.85,0,0,0-.85-.85H13.33a.85.85,0,0,0-.84.85V7H11.17c-.59,0-.78.38-.43.85l1,1.32L13,10.84l1,1.32a.75.75,0,0,0,1.27,0l1-1.32,1.27-1.7,1-1.32C18.82,7.35,18.63,7,18.05,7Z"/></g></g></svg>