<?xml version="1.0" encoding="UTF-8"?>
<svg id="Layer_2" data-name="Layer 2" xmlns="http://www.w3.org/2000/svg" width="30" height="41.01" viewBox="0 0 30 41.01">
  <defs>
    <style>
      .cls-1 {
        fill: #fff;
      }
    </style>
  </defs>
  <g id="_圖層1" data-name="圖層1">
    <g>
      <rect class="cls-1" x="6.5" y="0" width="17" height="6.46" rx=".75" ry=".75"/>
      <path class="cls-1" d="M29.21,2.94h-3.66v3.1c0,1.31-1.07,2.37-2.37,2.37H6.82c-1.31,0-2.37-1.06-2.37-2.37v-3.1H.79c-.44,0-.79.35-.79.79v36.49c0,.44.35.79.79.79h28.42c.44,0,.79-.35.79-.79V3.73c0-.44-.35-.79-.79-.79ZM23.5,35.57H6.5c-.83,0-1.5-.67-1.5-1.5s.67-1.5,1.5-1.5h17c.83,0,1.5.67,1.5,1.5s-.67,1.5-1.5,1.5ZM23.5,28.26H6.5c-.83,0-1.5-.67-1.5-1.5s.67-1.5,1.5-1.5h17c.83,0,1.5.67,1.5,1.5s-.67,1.5-1.5,1.5ZM23.5,16.44h-10.15c-.23,0-.45-.06-.65-.15l-3.33,5.04c-.58.88-1.85.93-2.5.12l-3.4-4.24c-.53-.67-.43-1.64.24-2.18.67-.54,1.64-.43,2.18.24l2.07,2.58,4.42-6.7c.47-.71,1.43-.91,2.14-.44.71.47.91,1.43.44,2.14l-.39.59h8.93c.83,0,1.5.67,1.5,1.5s-.67,1.5-1.5,1.5Z"/>
    </g>
  </g>
</svg>