<svg xmlns="http://www.w3.org/2000/svg" viewBox="0 0 7 7"><defs><style>.cls-1{fill:#fff;}</style></defs><g id="Layer_2" data-name="Layer 2"><g id="圖層_1" data-name="圖層 1"><path class="cls-1" d="M0,3.5A3.5,3.5,0,1,0,3.5,0,3.5,3.5,0,0,0,0,3.5Zm6.2,0A2.7,2.7,0,1,1,3.5.8,2.7,2.7,0,0,1,6.2,3.5Z"/><path class="cls-1" d="M3.38,1.44V3.49a.1.1,0,0,0,.1.11.11.11,0,0,0,.11-.11V1.44a.11.11,0,0,0-.11-.11A.1.1,0,0,0,3.38,1.44Z"/><path class="cls-1" d="M1.58,4.28c-.06,0-.1,0-.09.06l.1,0,1.9-.79s.09,0,.09-.06-.05,0-.11,0Z"/><path class="cls-1" d="M3.54,3.34a.16.16,0,0,0,0,.32H4.88a.16.16,0,0,0,0-.32Z"/><path class="cls-1" d="M3.25,3.48a.27.27,0,1,0,.27-.27A.27.27,0,0,0,3.25,3.48Z"/></g></g></svg>