<?xml version="1.0" encoding="UTF-8"?><svg xmlns="http://www.w3.org/2000/svg" xmlns:xlink="http://www.w3.org/1999/xlink" viewBox="0 0 132.58 66.46"><defs><style>.t{fill:url(#e);}.u{fill:url(#d);}.v{fill:url(#g);}.w{fill:url(#f);}.x{fill:url(#p);}.y{fill:url(#o);}.a`{fill:url(#s);}.aa{fill:url(#q);}.ab{fill:url(#r);}.ac{fill:url(#i);}.ad{fill:url(#h);}.ae{fill:url(#k);}.af{fill:url(#j);}.ag{fill:url(#m);}.ah{fill:url(#l);}.ai{fill:url(#n);}.aj{fill:#fff;}</style><linearGradient id="d" x1="50.12" y1="9.52" x2="74.25" y2="9.52" gradientTransform="matrix(1, 0, 0, 1, 0, 0)" gradientUnits="userSpaceOnUse"><stop offset="0" stop-color="#ebeced"/><stop offset=".25" stop-color="#fffeea"/><stop offset=".43" stop-color="#f0ecdd"/><stop offset=".6" stop-color="#e0dacf"/><stop offset=".79" stop-color="#f4f4f4"/><stop offset="1" stop-color="#e1dec6"/></linearGradient><linearGradient id="e" x1="42.62" y1="26.56" x2="46.95" y2="26.56" xlink:href="#d"/><linearGradient id="f" x1="42.62" y1="39.64" x2="46.95" y2="39.64" xlink:href="#d"/><linearGradient id="g" x1="39.98" y1="50.7" x2="49.6" y2="50.7" xlink:href="#d"/><linearGradient id="h" x1="77.55" y1="26.56" x2="81.88" y2="26.56" xlink:href="#d"/><linearGradient id="i" x1="77.55" y1="39.64" x2="81.88" y2="39.64" xlink:href="#d"/><linearGradient id="j" x1="74.91" y1="50.7" x2="84.53" y2="50.7" xlink:href="#d"/><linearGradient id="k" x1="47.75" y1="30.99" x2="76.63" y2="30.99" xlink:href="#d"/><linearGradient id="l" x1="53.4" y1="48.98" x2="60.55" y2="48.98" xlink:href="#d"/><linearGradient id="m" x1="53.4" y1="58.36" x2="60.55" y2="58.36" xlink:href="#d"/><linearGradient id="n" x1="49.49" y1="64.09" x2="61.7" y2="64.09" xlink:href="#d"/><linearGradient id="o" x1="63.96" y1="48.98" x2="71.11" y2="48.98" xlink:href="#d"/><linearGradient id="p" x1="63.96" y1="58.36" x2="71.11" y2="58.36" xlink:href="#d"/><linearGradient id="q" x1="62.81" y1="64.09" x2="75.01" y2="64.09" xlink:href="#d"/><linearGradient id="r" x1="-2166.31" y1="1294.26" x2="-2151.49" y2="1294.26" gradientTransform="translate(2633.33 -8.18) rotate(30)" xlink:href="#d"/><linearGradient id="s" x1="-2262.82" y1="1305.64" x2="-2253.9" y2="1305.64" gradientTransform="translate(2622.83 31.01) rotate(30)" xlink:href="#d"/></defs><g id="a"/><g id="b"><g id="c"><g><g><g><g><path class="aj" d="M56.59,0V2.62h-5.33c-.63,0-1.14,.51-1.14,1.13v14.16c0,.62,.51,1.13,1.14,1.13h21.86c.63,0,1.14-.51,1.14-1.13V3.76c0-.63-.51-1.13-1.14-1.13h-5.33V0h-1.16V2.62h-8.88V0h-1.16Zm12.61,16.14h-14.02v-1.51h14.02v1.51Zm-1.42-9.98c1.16,0,2.09,.94,2.09,2.09s-.93,2.08-2.09,2.08-2.08-.93-2.08-2.08,.93-2.09,2.08-2.09Zm-9.12,2.09c0,1.15-.93,2.08-2.08,2.08s-2.08-.93-2.08-2.08,.93-2.09,2.08-2.09,2.08,.94,2.08,2.09Z"/><g><rect class="aj" x="42.62" y="20.46" width="4.33" height="12.2"/><rect class="aj" x="42.62" y="33.54" width="4.33" height="12.2"/><path class="aj" d="M46.29,53.75v1.64c1.92-.63,3.31-2.44,3.31-4.57,0-2.66-2.16-4.81-4.81-4.81s-4.81,2.15-4.81,4.81c0,2.13,1.39,3.94,3.3,4.57v-1.64c-1.06-.55-1.8-1.65-1.8-2.93,0-1.83,1.48-3.31,3.3-3.31s3.3,1.48,3.3,3.31c0,1.28-.73,2.38-1.8,2.93Z"/></g><g><rect class="aj" x="77.55" y="20.46" width="4.33" height="12.2"/><rect class="aj" x="77.55" y="33.54" width="4.33" height="12.2"/><path class="aj" d="M81.23,53.75v1.64c1.92-.63,3.3-2.44,3.3-4.57,0-2.66-2.16-4.81-4.81-4.81s-4.81,2.15-4.81,4.81c0,2.13,1.39,3.94,3.3,4.57v-1.64c-1.06-.55-1.8-1.65-1.8-2.93,0-1.83,1.48-3.31,3.31-3.31s3.3,1.48,3.3,3.31c0,1.28-.73,2.38-1.8,2.93Z"/></g><path class="aj" d="M48.88,19.8c-.63,0-1.13,.51-1.13,1.13v20.11c0,.62,.51,1.13,1.13,1.13h26.62c.63,0,1.13-.51,1.13-1.13V20.94c0-.63-.51-1.13-1.13-1.13h-26.62Zm22.36,15.64c0,.93-.76,1.68-1.68,1.68h-5.28l3.58-3.58c.41-.41,.41-1.08,0-1.49-.41-.41-1.08-.41-1.49,0l-5.07,5.07h-6.48c-.93,0-1.68-.76-1.68-1.68v-5.89c0-.93,.75-1.69,1.68-1.69h14.73c.93,0,1.68,.76,1.68,1.69v5.89Z"/></g><g><rect class="aj" x="53.4" y="43.41" width="7.15" height="11.15"/><rect class="aj" x="53.4" y="55.72" width="7.15" height="5.29"/><path class="aj" d="M51.55,61.73c-1.13,0-2.05,1.06-2.05,2.37s.92,2.37,2.05,2.37h8.1c1.14,0,2.05-1.06,2.05-2.37s-.92-2.37-2.05-2.37h-8.1Z"/><rect class="aj" x="63.96" y="43.41" width="7.15" height="11.15"/><rect class="aj" x="63.96" y="55.72" width="7.15" height="5.29"/><path class="aj" d="M64.86,61.73c-1.13,0-2.05,1.06-2.05,2.37s.92,2.37,2.05,2.37h8.1c1.13,0,2.05-1.06,2.05-2.37s-.92-2.37-2.05-2.37h-8.1Z"/></g></g><path class="aj" d="M131.54,22.06c1.24-2.09,1.33-4.54,.46-6.62-.13-.31-.55-.33-.72-.05l-2.57,4.46-4.52,.12-2.15-3.97,2.57-4.46c.17-.29-.07-.64-.4-.6-2.18,.28-4.21,1.52-5.42,3.56-1.57,2.65-1.31,5.87,.42,8.2l-10.46,18.12c-2.81-.32-5.68,.98-7.22,3.57-1.24,2.09-1.33,4.54-.46,6.62,.13,.31,.55,.33,.72,.05l2.57-4.46,4.52-.12,2.15,3.97-2.57,4.46c-.17,.29,.07,.64,.4,.6,2.18-.28,4.21-1.52,5.42-3.56,1.57-2.65,1.3-5.87-.42-8.2l10.46-18.12c2.81,.32,5.68-.98,7.22-3.57Z"/><path class="aj" d="M18.55,32.79l-2.07-1.2,7.11-12.31,1.73-.91,2.06-6.09-2.19-1.26-4.25,4.83,.08,1.96-7.11,12.31-2.07-1.2c-.28-.16-.66-.03-.84,.29l-.57,.99c-.18,.32-.11,.71,.17,.87l.11,.07c-.78,.45-1.48,1.12-1.98,1.99L.73,46.98c-1.35,2.34-.78,5.21,1.27,6.39l.28,.16c2.06,1.19,4.82,.25,6.18-2.09l8-13.85c.5-.87,.74-1.81,.73-2.71l.11,.07c.28,.16,.66,.03,.84-.29l.57-.99c.19-.32,.11-.71-.17-.87ZM1.76,49.42l-.83-.48,8.79-15.23,.83,.48L1.76,49.42Zm2.41,1.39l-.83-.48,8.79-15.23,.83,.48-8.79,15.23Zm2.41,1.39l-.83-.48,8.79-15.23,.83,.48-8.79,15.23Z"/></g><g><g><g><path class="u" d="M56.59,0V2.62h-5.33c-.63,0-1.14,.51-1.14,1.13v14.16c0,.62,.51,1.13,1.14,1.13h21.86c.63,0,1.14-.51,1.14-1.13V3.76c0-.63-.51-1.13-1.14-1.13h-5.33V0h-1.16V2.62h-8.88V0h-1.16Zm12.61,16.14h-14.02v-1.51h14.02v1.51Zm-1.42-9.98c1.16,0,2.09,.94,2.09,2.09s-.93,2.08-2.09,2.08-2.08-.93-2.08-2.08,.93-2.09,2.08-2.09Zm-9.12,2.09c0,1.15-.93,2.08-2.08,2.08s-2.08-.93-2.08-2.08,.93-2.09,2.08-2.09,2.08,.94,2.08,2.09Z"/><g><rect class="t" x="42.62" y="20.46" width="4.33" height="12.2"/><rect class="w" x="42.62" y="33.54" width="4.33" height="12.2"/><path class="v" d="M46.29,53.75v1.64c1.92-.63,3.31-2.44,3.31-4.57,0-2.66-2.16-4.81-4.81-4.81s-4.81,2.15-4.81,4.81c0,2.13,1.39,3.94,3.3,4.57v-1.64c-1.06-.55-1.8-1.65-1.8-2.93,0-1.83,1.48-3.31,3.3-3.31s3.3,1.48,3.3,3.31c0,1.28-.73,2.38-1.8,2.93Z"/></g><g><rect class="ad" x="77.55" y="20.46" width="4.33" height="12.2"/><rect class="ac" x="77.55" y="33.54" width="4.33" height="12.2"/><path class="af" d="M81.23,53.75v1.64c1.92-.63,3.3-2.44,3.3-4.57,0-2.66-2.16-4.81-4.81-4.81s-4.81,2.15-4.81,4.81c0,2.13,1.39,3.94,3.3,4.57v-1.64c-1.06-.55-1.8-1.65-1.8-2.93,0-1.83,1.48-3.31,3.31-3.31s3.3,1.48,3.3,3.31c0,1.28-.73,2.38-1.8,2.93Z"/></g><path class="ae" d="M48.88,19.8c-.63,0-1.13,.51-1.13,1.13v20.11c0,.62,.51,1.13,1.13,1.13h26.62c.63,0,1.13-.51,1.13-1.13V20.94c0-.63-.51-1.13-1.13-1.13h-26.62Zm22.36,15.64c0,.93-.76,1.68-1.68,1.68h-5.28l3.58-3.58c.41-.41,.41-1.08,0-1.49-.41-.41-1.08-.41-1.49,0l-5.07,5.07h-6.48c-.93,0-1.68-.76-1.68-1.68v-5.89c0-.93,.75-1.69,1.68-1.69h14.73c.93,0,1.68,.76,1.68,1.69v5.89Z"/></g><g><rect class="ah" x="53.4" y="43.41" width="7.15" height="11.15"/><rect class="ag" x="53.4" y="55.72" width="7.15" height="5.29"/><path class="ai" d="M51.55,61.73c-1.13,0-2.05,1.06-2.05,2.37s.92,2.37,2.05,2.37h8.1c1.14,0,2.05-1.06,2.05-2.37s-.92-2.37-2.05-2.37h-8.1Z"/><rect class="y" x="63.96" y="43.41" width="7.15" height="11.15"/><rect class="x" x="63.96" y="55.72" width="7.15" height="5.29"/><path class="aa" d="M64.86,61.73c-1.13,0-2.05,1.06-2.05,2.37s.92,2.37,2.05,2.37h8.1c1.13,0,2.05-1.06,2.05-2.37s-.92-2.37-2.05-2.37h-8.1Z"/></g></g><path class="ab" d="M131.54,22.06c1.24-2.09,1.33-4.54,.46-6.62-.13-.31-.55-.33-.72-.05l-2.57,4.46-4.52,.12-2.15-3.97,2.57-4.46c.17-.29-.07-.64-.4-.6-2.18,.28-4.21,1.52-5.42,3.56-1.57,2.65-1.31,5.87,.42,8.2l-10.46,18.12c-2.81-.32-5.68,.98-7.22,3.57-1.24,2.09-1.33,4.54-.46,6.62,.13,.31,.55,.33,.72,.05l2.57-4.46,4.52-.12,2.15,3.97-2.57,4.46c-.17,.29,.07,.64,.4,.6,2.18-.28,4.21-1.52,5.42-3.56,1.57-2.65,1.3-5.87-.42-8.2l10.46-18.12c2.81,.32,5.68-.98,7.22-3.57Z"/><path class="a`" d="M18.55,32.79l-2.07-1.2,7.11-12.31,1.73-.91,2.06-6.09-2.19-1.26-4.25,4.83,.08,1.96-7.11,12.31-2.07-1.2c-.28-.16-.66-.03-.84,.29l-.57,.99c-.18,.32-.11,.71,.17,.87l.11,.07c-.78,.45-1.48,1.12-1.98,1.99L.73,46.98c-1.35,2.34-.78,5.21,1.27,6.39l.28,.16c2.06,1.19,4.82,.25,6.18-2.09l8-13.85c.5-.87,.74-1.81,.73-2.71l.11,.07c.28,.16,.66,.03,.84-.29l.57-.99c.19-.32,.11-.71-.17-.87ZM1.76,49.42l-.83-.48,8.79-15.23,.83,.48L1.76,49.42Zm2.41,1.39l-.83-.48,8.79-15.23,.83,.48-8.79,15.23Zm2.41,1.39l-.83-.48,8.79-15.23,.83,.48-8.79,15.23Z"/></g></g></g></g></svg>