<?xml version="1.0" encoding="UTF-8"?>
<svg id="Layer_1" xmlns="http://www.w3.org/2000/svg" xmlns:xlink="http://www.w3.org/1999/xlink" version="1.1" viewBox="0 0 200 45.7">
  <!-- Generator: Adobe Illustrator 29.1.0, SVG Export Plug-In . SVG Version: 2.1.0 Build 142)  -->
  <defs>
    <style>
      .st0 {
        fill: url(#linear-gradient2);
      }

      .st1 {
        fill: url(#linear-gradient1);
      }

      .st2 {
        fill: url(#linear-gradient3);
      }

      .st3 {
        fill: url(#linear-gradient6);
      }

      .st4 {
        fill: url(#linear-gradient7);
      }

      .st5 {
        fill: url(#linear-gradient5);
      }

      .st6 {
        fill: url(#linear-gradient4);
      }

      .st7 {
        fill: #040403;
        opacity: .1;
      }

      .st7, .st8 {
        isolation: isolate;
      }

      .st9 {
        fill: url(#linear-gradient);
      }

      .st10 {
        fill: #fff;
      }
    </style>
    <linearGradient id="linear-gradient" x1="2.9" y1="21" x2="160.6" y2="21" gradientUnits="userSpaceOnUse">
      <stop offset="0" stop-color="#f9e0ac"/>
      <stop offset="1" stop-color="#f9b653"/>
    </linearGradient>
    <linearGradient id="linear-gradient1" x1="147.6" x2="196.2" xlink:href="#linear-gradient"/>
    <linearGradient id="linear-gradient2" x1="0" y1="25.8" x2="157.8" y2="25.8" gradientTransform="translate(0 46.8) scale(1 -1)" gradientUnits="userSpaceOnUse">
      <stop offset="0" stop-color="#f9b653"/>
      <stop offset="1" stop-color="#f9e0ac"/>
    </linearGradient>
    <linearGradient id="linear-gradient3" x1="144.7" x2="193.3" xlink:href="#linear-gradient2"/>
    <linearGradient id="linear-gradient4" x1="10.8" y1="-157.7" x2="184.5" y2="-157.7" xlink:href="#linear-gradient"/>
    <linearGradient id="linear-gradient5" x1="167.1" y1="-157.7" x2="231.9" y2="-157.7" xlink:href="#linear-gradient"/>
    <linearGradient id="linear-gradient6" x1="7" y1="204.5" x2="180.7" y2="204.5" xlink:href="#linear-gradient2"/>
    <linearGradient id="linear-gradient7" x1="163.3" y1="204.5" x2="228.1" y2="204.5" xlink:href="#linear-gradient2"/>
  </defs>
  <g class="st8">
    <g id="b">
      <g id="c">
        <g>
          <g>
            <path class="st7" d="M178.1,3.8h-29.5c12.1,0,21.9,9.4,21.9,21s-9.9,21-21.9,21h29.5c12.1,0,21.9-9.4,21.9-21s-9.9-21-21.9-21Z"/>
            <path class="st7" d="M25.7,45.7h116.8c12.1,0,21.9-9.4,21.9-21s-9.9-21-21.9-21H25.7c-12,0-21.9,9.4-21.9,21s9.9,21,21.9,21Z"/>
            <g>
              <g>
                <path class="st9" d="M160.6,21c0,11.5-9.9,21-21.9,21H24.8c-12.1,0-21.9-9.4-21.9-21S12.7,0,24.8,0h113.9C150.8,0,160.6,9.4,160.6,21h0Z"/>
                <path class="st1" d="M174.3,0h-26.7C159.7,0,169.5,9.4,169.5,21s-9.9,21-21.9,21h26.7c12.1,0,21.9-9.4,21.9-21S186.3,0,174.3,0Z"/>
              </g>
              <g>
                <g>
                  <path class="st0" d="M157.8,21c0,11.5-9.9,21-21.9,21H21.9C9.9,41.9,0,32.5,0,21S9.9,0,21.9,0h113.9C147.9,0,157.8,9.4,157.8,21h0Z"/>
                  <path class="st2" d="M171.4,0h-26.7C156.8,0,166.6,9.4,166.6,21s-9.9,21-21.9,21h26.7c12.1,0,21.9-9.4,21.9-21S183.5,0,171.4,0Z"/>
                </g>
                <path class="st10" d="M182.6,20.1c-2.9-2.9-5.7-5.8-8.6-8.7-1.1-1.1-2.8.6-1.7,1.7,2.6,2.6,5.2,5.3,7.8,7.9-2.6,2.6-5.2,5.3-7.8,7.9-1.1,1.1.6,2.8,1.7,1.7,2.9-2.9,5.7-5.8,8.6-8.7.5-.5.5-1.2,0-1.7Z"/>
              </g>
            </g>
          </g>
          <g>
            <path class="st10" d="M34.1,24.9c.4,0,.7,0,.9.2.2.2.3.5.2.8,0,.2-.2.5-.5.9-.9,1.3-1.6,2.1-2.1,2.6-.4.5-.9.7-1.3.7s-.6-.1-.8-.3c-.2-.2-.3-.5-.2-.9,0-.1.2-.3.5-.6.9-.9,1.8-1.9,2.6-3,.1-.2.3-.3.4-.4.1,0,.3-.1.5-.2h0ZM34.3,19h3l.2-.8c0-.2.2-.5.5-.7.2-.1.5-.2.8-.2s.6,0,.7.2c.2.2.2.4.1.7l-.2.8h3.1c.3,0,.5,0,.6.2.1.1.1.3,0,.7,0,.3-.2.5-.3.6-.2.2-.5.3-.8.3h-3.1l-.3,1.1c1.2,0,2.5-.1,3.7-.2.2,0,.4,0,.5.2,0,.1,0,.4,0,.7,0,.3-.2.5-.4.7-.1.1-.4.2-.7.2-3.3.4-6.4.5-9.3.6-.3,0-.5,0-.6-.2-.1-.2-.1-.4,0-.8,0-.3.2-.5.4-.6.2-.2.6-.3.9-.3,1.1,0,2.2-.1,3.3-.2l.3-1.3h-3c-.3,0-.4,0-.5-.2-.1-.1-.1-.4,0-.7,0-.3.2-.5.4-.7.1-.1.3-.2.6-.2h0ZM36.4,10.6h3.2v-.5c.2-.2.4-.5.6-.7.2-.1.5-.2.8-.2s.7,0,.8.2c.2.2.2.4.1.7v.5c-.1,0,2.8,0,2.8,0,.3,0,.5,0,.6.2.1.1.1.3,0,.7,0,.3-.2.5-.3.6-.2.2-.4.3-.8.3h-2.9l-.3,1.2h3.3c.3,0,.5,0,.6.2.1.1.2.4,0,.7,0,.3-.2.5-.3.7-.2.2-.5.3-.8.3h-1.8l-.2.6c0,.3,0,.4.2.4h1.5c.3,0,.5.2.3.7-.2.5-.4.8-.7.8h-2.5c-.8,0-1.1-.4-.9-1.2l.3-1.3h-1.4c-.4.4-.8.8-1.3,1.2-1,.9-1.7,1.5-2.3,1.8-.3.2-.6.3-1.1.3-.2,0-.4-.1-.6-.3-.2-.2-.2-.4-.2-.7,0-.3.3-.5.8-.8.9-.5,1.6-.9,2.3-1.4h-1.5c-.3,0-.5,0-.6-.2-.1-.1-.2-.4,0-.8,0-.4.2-.6.5-.8.2-.1.4-.2.7-.2h3.5l.3-1.2h-3.2c-.3,0-.4,0-.5-.2-.1-.1-.1-.4,0-.7s.2-.6.4-.7c.1-.1.3-.2.6-.2h0ZM38,25c.3,0,.5.2.6.4.3.3.7,1,1,2.1.2.7.2,1.2.1,1.7,0,.3-.2.5-.4.6-.2.2-.5.3-.9.3s-.4,0-.5-.1c0,0-.2-.2-.2-.3-.2-.7-.5-1.8-1.1-3.3,0-.1,0-.3,0-.4,0-.1,0-.2.2-.4.1-.2.3-.3.6-.4.2,0,.3-.1.5-.1ZM43.6,24.9c.2,0,.5.2.6.4.3.3.7,1,1,2.1.2.6.3,1.2.1,1.7,0,.3-.2.5-.4.6-.2.2-.6.3-.9.3s-.4,0-.5-.1c0,0-.2-.2-.2-.3-.2-.7-.6-1.8-1.1-3.3,0-.1,0-.3,0-.4,0,0,0-.2.2-.4.2-.2.3-.3.6-.4.2,0,.4-.1.6-.1h0ZM49.8,9.1c.3,0,.6,0,.7.2.2.2.2.4.1.7l-.3,1.2h2.3c.9,0,1.3.4,1.1,1.1l-2.1,7.7c-.3,1.2-.4,1.8-.2,1.8s.3-.3.6-.9c0-.3.2-.5.3-.8.2-.3.5-.4.9-.4s.8.2.7.6c-.3,1-.8,2-1.5,2.8-.6.6-1.2,1-1.8,1-.5,0-.8-.5-1.1-1.2-.2-.6-.1-1.6.2-2.9l1.8-6.6c0,0,0-.1-.2-.1h-1.5l-.3,1.3c-.3,1.1-.6,2-.9,2.9-.2.5-.4,1-.6,1.4.4.6.8,1.3,1,2.1.2.3.2.5.2.8,0,.3-.2.6-.5.8-.3.2-.6.3-.9.3s-.5-.1-.6-.4c-.2-.4-.4-.8-.6-1.1-.8,1.3-1.7,2.3-2.5,3.1-.3.2-.7.3-1,.3s-.3-.1-.5-.3c-.1-.2-.2-.5-.1-.7,0-.2.1-.3.2-.5,0-.1.3-.4.6-.8.8-1,1.6-2,2.2-3.1-.3-.5-.6-.9-.9-1.3,0-.1-.1-.2-.2-.3,0-.1,0-.3,0-.6,0-.3.2-.5.5-.7.2-.2.5-.3.9-.3.2,0,.3.1.5.3.1.1.3.3.4.4.3-.7.5-1.5.7-2.3l.3-1.3h-1.1c-.4,0-.6,0-.7-.3-.1-.2-.1-.4,0-.8,0-.4.3-.6.5-.8.2-.1.4-.2.8-.2h1.1l.3-1.2c0-.2.2-.4.4-.6.2-.2.5-.3.9-.3h0ZM48.9,24.9c.2,0,.4,0,.5.2.3.2.6.6.9,1.2.6,1.3.9,2.2.7,2.9,0,.3-.2.5-.5.7-.3.2-.6.3-1,.3-.3,0-.5-.2-.7-.5-.3-1-.7-2.1-1.2-3-.2-.3-.2-.5-.2-.8,0-.3.3-.6.7-.8.2-.1.5-.2.8-.2h0Z"/>
            <path class="st10" d="M68.5,10c.8,0,1.1.4.9,1.1l-1.8,6.7c-.2,1-.8,1.4-1.6,1.4h-5.1l-2.7,10.2c-.2.6-.7.9-1.4.9-.7,0-1-.3-.9-.9l4.9-18.2c.2-.8.7-1.1,1.5-1.1h6.3,0ZM61.5,17.2h3.9l.4-1.6h-3.9l-.4,1.6ZM62.4,13.8h3.9l.5-1.8h-3.9s-.5,1.8-.5,1.8ZM78.9,10c1,0,1.3.4,1.1,1.1l-4.6,17c-.4,1.4-1.3,2.1-2.6,2.1-1.1,0-1.9,0-2.4-.2-.7-.2-1-.6-.9-1.1,0-.4.2-.7.4-.9.3-.3.6-.5,1-.5s.4,0,.7.1c.5.2,1,.2,1.3.2s.3-.1.4-.3l2.3-8.5h-5.3c-.7,0-.9-.4-.7-1.2l1.8-6.9c.2-.8.7-1.1,1.5-1.1h6ZM76.1,17.2l.4-1.7h-3.9l-.4,1.7h3.9ZM73.1,13.7h3.9l.5-1.7h-3.9l-.5,1.7Z"/>
            <path class="st10" d="M84.8,18.5h6.4c.7,0,1,.4.8,1.1l-.9,3.2c-.2.7-.7,1.1-1.4,1.1h-.7l-.9,3.2c.7-.3,1.3-.5,2-.8.2,0,.4,0,.5,0s.2,0,.3.1c0,.1,0,.2,0,.4-.1.5-.4.9-.7,1.3-1.4.7-2.9,1.4-4.6,2-.2,0-.4.1-.8.1s-.4-.1-.5-.4c0-.2,0-.5,0-.8,0-.3.3-.5.6-.7.3-.1.6-.2.8-.3l1.1-4h-1.2c-.4,1-.8,1.9-1.2,2.6-.8,1.3-1.8,2.3-3.1,3.2-.3.2-.6.4-.8.4-.3,0-.6-.1-.8-.4-.1-.2-.2-.4-.1-.7,0-.3.2-.5.5-.7,1.2-.8,2-1.5,2.4-2.2.4-.5.7-1.2,1.1-2.2h-.4c-.7,0-1-.4-.8-1.1l.9-3.2c.2-.7.7-1.1,1.3-1.1h0ZM90.4,9c.5,0,.8,0,.9.2.2.2.3.5.2.8l-.2.8h2.4c.4,0,.6,0,.7.2,0,.1,0,.4,0,.8,0,.3-.2.5-.3.7-.2.2-.5.3-.9.3h-.3l-1.2,2.2h1.2c.4,0,.6,0,.7.2,0,.1,0,.4,0,.8,0,.4-.2.6-.4.8-.2.2-.5.3-.9.3h-8.1c-.3,0-.6,0-.7-.2-.1-.1-.1-.4,0-.8,0-.3.2-.6.4-.8.2-.1.5-.2.8-.2h1.2v-2.1c0,0-.3,0-.3,0-.3,0-.6,0-.7-.2-.1-.1-.1-.4,0-.8,0-.4.2-.6.5-.8.2-.1.5-.2.8-.2h2.6l.2-.8c0-.3.3-.6.6-.8.2-.1.5-.2,1-.2h0ZM88.7,22.3c.3,0,.4-.1.5-.4l.3-1.2c0-.2,0-.4-.3-.4h-3.4c-.3,0-.4.1-.5.4l-.3,1.2c0,.3,0,.4.3.4h3.4ZM87.9,15.1h1.6l1.2-2.1h-2.8v2.1c0,0,0,0,0,0ZM95.1,18.5h6.8c.7,0,1,.4.8,1.1l-.9,3.2c-.2.7-.7,1.1-1.4,1.1h-1.3l-1,3.8c0,.4,0,.6.4.6h.2c.4,0,.7-.2.8-.6.2-.3.3-.8.6-1.5,0-.2.2-.4.4-.5.3,0,.5-.1.6-.1.3,0,.5,0,.7,0,.3.1.4.4.3.8-.3,1.1-.6,1.9-1,2.5-.4.6-1.1,1-1.8,1.1h-2.5c-.8,0-1-.6-.8-1.6l1.2-4.5h-.8c-.4,1-.8,1.9-1.2,2.6-.8,1.3-1.9,2.3-3.3,3.2-.3.2-.7.4-.9.4s-.6-.1-.8-.4c-.1-.2-.2-.4-.2-.7,0-.3.3-.5.6-.7,1.2-.8,2.1-1.5,2.6-2.2.4-.5.8-1.2,1.1-2.2h-.6c-.7,0-1-.4-.8-1.1l.9-3.2c.2-.7.7-1.1,1.4-1.1h0ZM100.9,9c.4,0,.8,0,.9.2.2.2.3.5.2.8l-.2.8h2.7c.4,0,.6,0,.7.2,0,.1,0,.4,0,.8,0,.3-.2.5-.3.7-.2.2-.6.3-.9.3h-.5l-1.2,2.2h1.7c.3,0,.6,0,.7.2.1.1.1.4,0,.8,0,.4-.2.6-.4.8-.3.2-.6.3-.9.3h-9.1c-.3,0-.6,0-.7-.2-.1-.1-.1-.4,0-.8,0-.3.2-.6.4-.8.2-.1.5-.2.8-.2h1.4l.2-2.1h-.5c-.3,0-.6,0-.7-.2-.1-.1-.1-.4,0-.8,0-.4.2-.6.4-.8.2-.1.5-.2.8-.2h2.7l.2-.8c0-.3.3-.6.6-.8.2-.1.5-.2,1-.2h0ZM99.3,22.3c.3,0,.5-.2.6-.5l.3-1.1c0-.3,0-.5-.3-.5h-3.6c-.3,0-.5.1-.6.5l-.3,1.1c0,.3,0,.5.3.5h3.6ZM98.4,15.1h1.8l1.2-2.1h-2.8l-.2,2.1h0Z"/>
            <path class="st10" d="M110.7,13.8c-.3,0-.6-.1-.7-.2-.2-.2-.2-.4,0-.8l.2-.9c.3-1,.9-1.5,2-1.5h6.9c0-.4.3-.7.7-1,.2-.2.6-.3,1.1-.3s.8,0,1,.3c.2.3.3.6.2,1h7c1.1,0,1.5.5,1.2,1.5l-.3,1c-.1.4-.3.6-.5.8-.2.2-.5.3-.9.3v.2c-.1.3-.2.4-.3.6-.2.2-.4.3-.8.3h-3.5l-.2.7h4.1c.3,0,.4,0,.5.2,0,0,0,.3,0,.5,0,.3-.2.4-.3.6-.2.2-.4.2-.7.2h-4.1l-.2.8h4.9c.3,0,.5,0,.6.2.1.1.1.3,0,.7,0,.2-.2.4-.3.5-.2.2-.5.3-.8.3h-3.9c.2.2.4.4.7.5.8.5,2,.9,3.4,1.1.3.2.5.4.3.8-.1.4-.3.6-.5.8-.2.2-.6.3-.9.3s-.7,0-1-.2c-.2,0-.4-.1-.6-.2l-.9,3.4c-.3,1.1-1,1.7-2.2,1.7h-1.2c1,.3,2.1.5,3.2.7.6,0,1,.1,1.3.2.3.1.4.3.4.5,0,.4-.3.7-.6.9-.3.1-.6.2-.9.2-.7,0-1.3-.1-2-.2-1.2-.2-2.4-.6-3.5-1-.3-.1-.7-.3-1-.5,0,0,0-.1,0-.2,0-.1.2-.3.3-.5h-3.4c0,0,0,.2,0,.3,0,.2-.2.4-.3.5-.6.2-1.2.4-1.9.5-1.7.4-3.3.8-4.7,1-.5,0-.9.1-1.3.2-.3,0-.5,0-.7-.2,0-.2,0-.4,0-.6,0-.3.3-.5.6-.8,2.2-.3,4-.7,5.4-1h-1.3c-1.2,0-1.6-.6-1.3-1.7l1-3.6c-.3.1-.6.2-.9.3-.3,0-.6.1-.9.2-.4,0-.7-.1-1-.3-.2-.2-.2-.4-.2-.6,0-.3.3-.5.6-.7,2.2-.6,3.8-1.2,4.9-1.8h-3.8c-.3,0-.4,0-.5-.2-.1-.1-.1-.4,0-.6,0-.3.2-.5.4-.7.2-.1.4-.2.6-.2h5l.2-.8h-4.4c-.3,0-.4,0-.5-.2,0-.1,0-.3,0-.6,0-.2.2-.4.3-.5.2-.1.3-.2.6-.2h4.4l.2-.7h-3.7c-.3,0-.5,0-.6-.2,0-.1,0-.3,0-.6,0,0,0-.2,0-.2h0ZM121.2,26.3c.3,0,.5-.2.6-.5v-.2c0,0-10.4,0-10.4,0v.2c-.1.3,0,.5.2.5h9.6ZM111.7,24.4h10.5l.2-.7h-10.5l-.2.7ZM127.6,13.2c0-.1,0-.3,0-.4l.2-.6c0-.1,0-.2-.3-.2h-14.8c-.2,0-.3,0-.3.2v.5c-.2.2-.3.4-.3.5h3.2c0-.3.2-.5.4-.6.2-.2.5-.3,1-.3s.8.1.9.3c.1.1.2.3.1.6h4.3c0-.3.2-.5.4-.6.2-.2.5-.3,1-.3s.8.1.9.3c.1.1.2.3.1.6h3.1,0ZM112.2,22.4h10.5v-.2c.1-.3,0-.5-.3-.5h-9.6c-.3,0-.5.2-.6.5v.2ZM113.8,20.4h8.2c-.1-.2-.3-.4-.4-.7,0,0,0-.1-.1-.2h-6.4c-.4.3-.8.6-1.2.9ZM116.5,17.8h4.2l.2-.8h-4.2l-.2.8ZM121.4,15.6l.2-.7h-4.2l-.2.7h4.2Z"/>
          </g>
        </g>
      </g>
    </g>
  </g>
  <g class="st8">
    <g id="Layer_2">
      <g id="_圖層_1" data-name="圖層_1">
        <path class="st7" d="M207.8-180.6h-39.4c16.1,0,29.2,12.6,29.2,28s-13.1,28-29.2,28h39.4c16.1,0,29.2-12.6,29.2-28s-13.2-28-29.2-28Z"/>
        <path class="st7" d="M41.3-124.7h119c16.1,0,29.2-12.6,29.2-28s-13.1-28-29.2-28H41.3c-16.1,0-29.2,12.6-29.2,28s13.2,28,29.2,28Z"/>
        <path class="st6" d="M184.5-157.7c0,15.4-13.2,28-29.2,28H40.1c-16,0-29.2-12.7-29.2-28s13.2-28,29.2-28h115.2c16.1,0,29.2,12.6,29.2,28Z"/>
        <path class="st5" d="M202.7-185.7h-35.6c16.1,0,29.2,12.6,29.2,28s-13.1,28-29.2,28h35.6c16.1,0,29.2-12.6,29.2-28s-13.2-28-29.2-28Z"/>
        <path class="st3" d="M180.7-157.7c0,15.4-13.2,28-29.2,28H36.3c-16.1,0-29.2-12.7-29.2-28s13.2-28,29.2-28h115.2c16.1,0,29.2,12.6,29.2,28Z"/>
        <path class="st4" d="M198.9-185.7h-35.6c16.1,0,29.2,12.6,29.2,28s-13.2,28-29.2,28h35.6c16.1,0,29.2-12.6,29.2-28s-13.1-28-29.2-28Z"/>
        <path class="st10" d="M213.8-158.8c-3.8-3.9-7.7-7.8-11.5-11.6-1.4-1.5-3.7.8-2.2,2.2l10.4,10.6-10.4,10.5c-1.4,1.5.8,3.7,2.2,2.2,3.8-3.9,7.7-7.8,11.5-11.6.6-.6.6-1.6,0-2.3Z"/>
        <path class="st10" d="M54-167.4h2.1l1.3-4.9c.2-.8,1-1.4,1.9-1.3,1,0,1.4.4,1.2,1.3l-1.3,4.9h1.3c.4,0,.7,0,1,.3.2.2.2.5,0,1.1,0,.4-.3.8-.5,1.1-.4.3-.9.5-1.4.5h-1.3l-1.5,5.5c.2,0,.5-.2.7-.3.2-.2.5-.3.8-.3.4,0,.8,0,1,.4.2.4.3.8.1,1.2-.2.4-.4.8-.8,1-.9.6-1.8,1.1-2.8,1.6l-2,7.5c-.1.7-.5,1.3-1,1.8-.6.4-1.3.7-2,.8h-1.8c-.5,0-1-.2-1.3-.6-.1-.3-.2-.6,0-.9,0-.4.3-.8.6-1.2.4-.3.8-.5,1.3-.5h.8c.3,0,.5-.1.6-.3l1.3-5c-.6.2-1.3.3-1.9.4-1.1,0-1.5-.6-1.3-1.6.2-.7.8-1.3,1.5-1.5.9-.2,1.8-.5,2.6-.8l1.9-7h-2.1c-.3,0-.7,0-.9-.3-.2-.2-.3-.6,0-1.2,0-.5.3-.9.7-1.2.3-.2.7-.3,1.1-.2ZM70-173.4c.4,0,.8,0,1.1.3.3.2.3.6.2.9l-3.8,14c-.3,1.2-.7,2.4-1.2,3.5-.6,1.4-1.3,2.8-2.1,4-1.2,1.7-2.7,3.3-4.4,4.6-.4.3-.9.5-1.5.5-.3,0-.6-.2-.8-.5-.2-.3-.3-.7-.2-1.1,0-.3.2-.5.4-.7.3-.4.6-.7.9-.9,1.3-1.1,2.5-2.4,3.5-3.8l-1,.3c-.9.3-1.9.5-2.8.6-1,0-1.4-.6-1.1-1.8.3-.8,1.1-1.3,1.9-1.3,1.6-.2,3.1-.5,4.6-1,.3-.7.5-1.5.7-2.3l.2-.9h-2.9c-.4,0-.7,0-1-.4-.2-.4-.2-.8,0-1.2.1-.4.4-.8.7-1.1.3-.2.7-.3,1.1-.2h2.9l1.1-4h-3.3c-.5,0-.8-.1-1-.4-.2-.4-.2-.8,0-1.2,0-.5.3-.9.7-1.2.3-.2.7-.3,1.1-.3h3.3l.8-3.2c.1-.3.3-.6.6-.8.3-.3.8-.4,1.2-.4h0ZM75.6-173.4c.4,0,.8.1,1,.4.2.3.3.7.2,1l-.8,2.9h3.4c.5,0,.9.1,1,.3s.2.6,0,1.1c0,.4-.3.8-.6,1.1-.3.4-.8.5-1.3.5h-3.4l-1.1,4h3c.6,0,.9.1,1,.3s.2.5,0,1.1c0,.4-.2.8-.5,1.1-.4.4-.9.5-1.4.5h-3l-1.1,4.1h3.5c.5,0,.8.1,1,.3s.2.6,0,1.1c0,.4-.3.7-.5,1-.4.4-.8.6-1.3.5h-3.5l-1.3,5c0,.3-.3.7-.5.9-.4.4-.9.6-1.4.5-.4,0-.8-.2-1-.5-.2-.3-.2-.6,0-.9l6.7-25c.1-.4.4-.8.7-1,.3-.3.7-.5,1.2-.5h0Z"/>
        <path class="st10" d="M94.3-166.8c.4,0,.8.2,1.1.4.3.3.4.7.3,1,0,.3-.2.6-.4.9-1.1,1.3-2.3,2.5-3.6,3.5l-3.7,14c-.1.5-.4.9-.8,1.2-.4.3-.8.4-1.3.4-.5,0-.9-.1-1-.4-.3-.2-.3-.6-.2-1.2l2.8-10.3c-.6.5-1.2.9-1.8,1.3-.3.2-.8.4-1.2.4-.4,0-.7-.3-.9-.6-.3-.3-.3-.7-.2-1.1,0-.3.3-.6.5-.8.3-.4,2-1.8,4.9-4.3,2.7-2.2,4.3-3.5,4.8-3.9.2-.3.5-.4.8-.4ZM94.9-173.3c.4,0,.8.2,1.1.5.3.3.5.8.3,1.3,0,.2-.2.4-.4.6-1,1.2-2.2,2.2-3.5,3.1-1.4,1.3-3,2.5-4.7,3.5-.3.2-.8.4-1.2.4-.4,0-.7-.2-.9-.5-.3-.3-.3-.8-.2-1.2.1-.3.3-.6.5-.9.3-.3,1.7-1.4,4.2-3.3,2.2-1.7,3.6-2.7,4.1-3.1.2-.2.4-.4.7-.4ZM97.1-163.5h14.6c.4,0,.8,0,1.2.3.2.2.2.6,0,1.2,0,.4-.3.8-.6,1.1-.4.3-.9.5-1.4.5h-3.6l-3.2,12.2c-.2.7-.6,1.3-1.2,1.8-.6.4-1.4.7-2.2.8-1.3,0-2.6-.1-3.9-.5-1.1-.2-2.1-.6-2.9-1.3-.4-.2-.5-.7-.4-1.5.1-.9.8-1.6,1.7-1.8.3,0,.7.2,1,.3,1.3.8,2.8,1.2,4.3,1.3.3,0,.6-.2.6-.5l3-11h-7.8c-.4,0-.8-.1-1.1-.4-.2-.4-.2-.9,0-1.3.1-1,1-1.7,2-1.6h0ZM101-172.3h12.3c.4,0,.8,0,1.1.4.2.2.2.6,0,1.2,0,.4-.3.8-.6,1.1-.4.3-.9.5-1.4.5h-12.2c-.4,0-.8,0-1.1-.4-.2-.2-.2-.6,0-1.2.1-.5.3-.9.7-1.2.4-.2.8-.4,1.2-.4Z"/>
        <path class="st10" d="M124-158.1l-3,11.3c0,.4-.3.7-.6.9-.4.4-.9.6-1.4.5-.4,0-.8-.1-1-.5-.2-.3-.2-.7-.1-1l2.8-10.5c-.9,1.8-2,3.4-3.3,4.9-.4.3-.8.4-1.3.4-.3,0-.6-.1-.8-.4-.2-.3-.2-.7,0-1,.2-.6.4-1.2.8-1.7,2.4-3.2,4.6-6.5,6.6-10h-2.2c-.4,0-.7-.1-.9-.4-.2-.2-.3-.6,0-1.2,0-.5.3-.9.7-1.1.3-.2.7-.3,1.1-.3h2.4l1.1-4.2c.1-.4.4-.8.7-1.1.3-.2.7-.4,1.1-.4.4,0,.7.1,1,.4.2.3.3.7.2,1.1l-1.1,4.2h1.9c.4,0,.7,0,1,.3.2.2.2.5,0,1.1,0,.4-.3.8-.5,1.1-.4.4-.9.5-1.4.5h-1.9l-.3,1.2c.2,0,.4,0,.5.1.3.8.5,1.6.6,2.4.3,1.8.3,3.7,0,5.5,0,.3-.3.6-.5.9-.4.3-.8.4-1.2.4-.4,0-.7-.3-.8-.6v-2.8ZM136.6-162.1c.4,0,.9,0,1.2.3.3.3.4.7.2,1.1l-.4,1.3h5.9c.3,0,.7,0,.9.3.1.2.2.5,0,1.1,0,.3-.3.7-.5.9-.3.3-.7.4-1.2.4h-9c-.3.8-.6,1.6-1,2.4h7.9c.5,0,1.1.1,1.5.5.3.4.4,1,.2,1.5-.4,1.9-1.2,3.7-2.2,5.4-.9,1.1-2.3,1.7-3.7,1.6-2,0-3.3-.4-3.8-1-.3-.2-.4-.6-.4-1,.1-.4.3-.8.7-1,.3-.3.6-.4,1-.4.2,0,.4,0,.5.1.7.3,1.4.5,2.1.5.6,0,1.2-.3,1.5-.8.4-.7.7-1.5.9-2.4,0-.3,0-.5-.4-.5h-7.1s0,0,0,.1c-1.5,2.3-3.4,4.2-5.7,5.5-.5.3-1,.6-1.6.6-.5,0-.9-.2-1.2-.6-.2-.3-.3-.7-.2-1.1.1-.4.4-.8.7-1.1,1.9-1,3.5-2.3,4.9-3.9,1-1.4,1.8-2.9,2.3-4.6h-2.5c-.3,0-.7,0-.9-.3-.2-.2-.2-.5,0-1,.1-.4.3-.8.7-1.1.3-.2.6-.3,1-.3h5.1l.4-1.4c.1-.5.4-.9.8-1.1.4-.2.8-.3,1.3-.3h0ZM139.9-173.6c.4,0,.8,0,1.1.3.2.3.3.7.2,1.1l-.3,1h6.1c.3,0,.6,0,.8.3.2.1.2.5,0,1.1,0,.3-.2.6-.4.9-.3.3-.7.4-1.1.4h-2.3l-1.6,2.9h2.3c1.4,0,2,.7,1.6,2.2l-.6,2.2c0,.4-.3.8-.7,1-.4.3-.8.4-1.3.4-.6,0-1-.1-1.2-.5-.1-.3-.1-.7,0-1l.4-1.5c0-.2,0-.4-.4-.4h-10.8c-.2,0-.4.1-.5.4l-.4,1.5c0,.4-.3.7-.6,1-.4.3-.9.4-1.4.4-.4,0-.8,0-1.1-.3-.2-.3-.2-.8,0-1.1l.6-2.2c.2-1.3,1.4-2.3,2.8-2.2h2.1v-2.9h-2.2c-.3,0-.6,0-.8-.3-.2-.2-.2-.5,0-1,0-.4.3-.8.6-1.1.3-.2.7-.3,1-.2h5.7l.3-1c.1-.4.4-.8.8-1.1.4-.2.8-.3,1.3-.3h0ZM136.4-165.6h3l1.6-2.9h-4.8l.2,2.9Z"/>
      </g>
    </g>
  </g>
</svg>