<?xml version="1.0" encoding="UTF-8"?><svg xmlns="http://www.w3.org/2000/svg" xmlns:xlink="http://www.w3.org/1999/xlink" viewBox="0 0 827.68 50"><defs><style>.e{fill:url(#d);}.f{fill:#a91d6d;}.g{fill:#c81e6e;}</style><linearGradient id="d" x1="413.84" y1="44.58" x2="413.84" y2="-2.28" gradientTransform="matrix(1, 0, 0, 1, 0, 0)" gradientUnits="userSpaceOnUse"><stop offset="0" stop-color="#e6006e"/><stop offset=".46" stop-color="#e65096"/><stop offset=".58" stop-color="#e65498"/><stop offset=".7" stop-color="#e8609f"/><stop offset=".82" stop-color="#ea75aa"/><stop offset=".95" stop-color="#ee92bb"/><stop offset="1" stop-color="#f0a0c3"/></linearGradient></defs><g id="a"/><g id="b"><g id="c"><g><path class="g" d="M0,8H25.53S20.41,1.97,12.97,2.45C5.53,2.94,0,8,0,8Z"/><path class="g" d="M827.68,8h-25.53s5.12-6.03,12.56-5.55c7.44,.48,12.97,5.55,12.97,5.55Z"/><path class="e" d="M809.54,0H118.12s5.72,0-38.82,0H18.14C7.39,0,0,8,0,8,30.43-12.38,34.11,50,55.96,50H771.71c21.86,0,25.53-62.38,55.96-42,0,0-7.39-8-18.14-8Z"/><path class="f" d="M55.96,50H771.71c18.77,0,24.13-45.99,44.53-46.09-1.42-.02-2.84,.13-4.22,.57-1.77,.59-3.48,1.48-5.04,2.67-3.09,2.41-5.66,5.63-7.93,9.03-4.57,6.81-8.16,14.4-12.58,21.14-2.19,3.36-4.6,6.56-7.52,8.8-1.44,1.14-3.05,1.9-4.69,2.32-.82,.24-1.67,.26-2.51,.32l-2.74-.03-648.13-.28c-29.26-.36,11.78-.42-17.48-.46-29.26,.05-11.38,.1-40.65,.47l-4.13,.27-2.74,.03c-.84-.06-1.69-.07-2.51-.32-1.64-.42-3.25-1.17-4.69-2.32-2.91-2.24-5.33-5.44-7.52-8.8-4.42-6.74-8.01-14.33-12.57-21.14-2.27-3.4-4.83-6.62-7.93-9.03-1.55-1.19-3.26-2.08-5.04-2.67-1.38-.44-2.8-.59-4.22-.57,20.4,.1,25.77,46.09,44.53,46.09Z"/></g></g></g></svg>