<?xml version="1.0" encoding="UTF-8"?>
<svg id="Layer_2" data-name="Layer 2" xmlns="http://www.w3.org/2000/svg" width="51.03" height="19.73" viewBox="0 0 51.03 19.73">
  <defs>
    <style>
      .cls-1 {
        fill: #fff;
      }
    </style>
  </defs>
  <g id="_圖層_1" data-name="圖層 1">
    <g>
      <g>
        <path class="cls-1" d="M21.28,6.25h3.28c.02-.1.07-.23.15-.4.1-.33.18-.65.26-.95h-6.02c-.39,0-.58-.19-.58-.58s.19-.6.58-.6h6.32c.09-.37.16-.71.23-1.02.11-.27.27-.4.5-.4.47,0,.71.2.71.6,0,.12-.04.24-.13.37-.02.16-.05.31-.08.45h5.98c.39,0,.58.2.58.6s-.19.58-.58.58h-6.23c-.11.43-.23.88-.37,1.36h4.2c.74,0,1.11.34,1.11,1.02v8.4h1.66c.39,0,.58.19.58.58s-.19.6-.58.6h-14.2c-.39,0-.58-.2-.58-.6s.19-.58.58-.58h1.6V7.27c0-.68.35-1.02,1.05-1.02ZM21.47,8.75h8.45v-.95c0-.27-.12-.4-.37-.4h-7.77c-.2,0-.31.13-.31.4v.95ZM21.47,11.03h8.45v-1.29h-8.45v1.29ZM21.47,13.29h8.45v-1.29h-8.45v1.29ZM21.47,15.66h8.45v-1.42h-8.45v1.42Z"/>
        <path class="cls-1" d="M39.78,5.2c.38,0,.57.19.57.58s-.19.6-.57.6h-.86v2.79c.24-.17.5-.38.78-.61l.21-.05c.39,0,.58.22.58.65,0,.13-.08.27-.23.44-.32.31-.77.65-1.34,1v5.28c0,.95-.53,1.42-1.6,1.42-.19,0-.45-.07-.78-.21-.31-.1-.47-.29-.47-.57.02-.37.18-.56.47-.58.02,0,.06,0,.11.02.33.12.55.18.66.18.3,0,.45-.18.45-.53v-4.34c-.31.15-.61.29-.9.42-.1.04-.18.06-.26.06-.4,0-.6-.19-.6-.58,0-.34.16-.56.47-.65.51-.19.94-.39,1.29-.6v-3.54h-1.05c-.39,0-.58-.2-.58-.6s.19-.58.58-.58h1.05v-2.25c0-.4.19-.6.57-.6s.58.2.58.6v2.25h.86ZM49.6,2.55c.34,0,.52.22.52.65,0,.28-.22.45-.65.52-.81.11-1.84.21-3.1.31v2.23h.74c.12-.16.24-.32.36-.47.26-.37.5-.75.71-1.16.12-.16.29-.24.5-.24.15,0,.27.05.37.15.1.1.15.22.15.37,0,.13-.04.25-.11.37-.15.28-.32.54-.52.79-.05.06-.1.13-.15.19h1.76c.33,0,.5.17.5.5s-.17.52-.5.52h-3.5c.45.36.93.67,1.44.95.95.53,1.78.92,2.5,1.18.27.13.4.32.4.58,0,.13-.05.26-.15.39-.11.14-.25.21-.44.21-.15,0-.3-.04-.45-.11-.68-.34-1.33-.71-1.95-1.1-.57-.34-1.13-.74-1.66-1.2v1.7c0,.39-.2.58-.6.58s-.58-.19-.58-.58v-1.78c-.39.38-.8.72-1.23,1.02-.62.47-1.51.98-2.66,1.52-.17.04-.27.06-.31.06-.33,0-.5-.22-.5-.65,0-.24.12-.4.37-.5,1.21-.51,2.15-1,2.83-1.47.38-.25.73-.52,1.05-.81h-3.75c-.33,0-.5-.17-.5-.52s.17-.5.5-.5h1.99c-.11-.14-.21-.25-.31-.34-.16-.14-.33-.29-.5-.44-.13-.14-.19-.27-.19-.4,0-.34.17-.52.5-.52.11,0,.24.02.4.06.19.18.38.35.57.5.25.24.49.5.73.79.09.15.13.26.13.34h.89v-2.16c-1.74.11-2.97.16-3.68.16-.43,0-.65-.19-.65-.58,0-.36.18-.53.53-.53,1.42-.01,2.75-.05,3.97-.13,1.51-.09,2.92-.24,4.23-.45ZM42.48,10.58h6.41c.65,0,.97.3.97.89v4.67c0,.59-.32.89-.97.89h-6.41c-.65,0-.97-.3-.97-.89v-4.67c0-.59.32-.89.97-.89ZM42.69,13.23h2.49l.02-1.62h-2.13c-.25,0-.37.15-.37.44v1.18ZM45.15,16l.02-1.83h-2.47v1.36c0,.31.12.47.37.47h2.08ZM48.31,16c.25,0,.37-.16.37-.47v-1.36h-2.36l-.02,1.83h2ZM46.36,11.61l-.02,1.62h2.34v-1.18c0-.29-.12-.44-.37-.44h-1.95Z"/>
      </g>
      <g>
        <path class="cls-1" d="M9.36,9.31c-.35,0-.62.28-.62.62,0,1.03-.42,1.97-1.1,2.65-.68.68-1.61,1.1-2.65,1.1s-1.97-.42-2.65-1.1c-.68-.68-1.1-1.61-1.1-2.65,0-.34-.28-.62-.62-.62S0,9.58,0,9.93c0,2.54,1.91,4.64,4.37,4.95v3.17h-2.3c-.47,0-.84.38-.84.84,0,.47.38.84.84.84h2.93s2.93,0,2.93,0c.47,0,.84-.38.84-.84s-.38-.84-.84-.84h-2.3v-3.17c2.3-.29,4.12-2.15,4.35-4.47l-.19-.02.19.02c.02-.16.02-.32.02-.48,0-.35-.28-.62-.62-.62Z"/>
        <g>
          <rect class="cls-1" x="2.12" y="4.1" width="5.75" height=".93"/>
          <path class="cls-1" d="M4.99,0c-1.59,0-2.87,1.29-2.87,2.88v.29h5.75v-.29c0-1.59-1.29-2.88-2.88-2.88Z"/>
          <path class="cls-1" d="M2.12,9.56c0,1.59,1.29,2.87,2.87,2.87,1.59,0,2.88-1.29,2.88-2.87v-1.73H2.12v1.73Z"/>
          <rect class="cls-1" x="2.12" y="5.96" width="5.75" height=".93"/>
        </g>
      </g>
    </g>
  </g>
</svg>