<svg xmlns="http://www.w3.org/2000/svg" viewBox="0 0 86 32"><defs><style>.cls-1{fill:#f19ec2;}.cls-2{fill:#fff;}</style></defs><g id="Layer_2" data-name="Layer 2"><g id="圖層_1" data-name="圖層 1"><rect class="cls-1" width="86" height="32" rx="16"/><path class="cls-2" d="M37.9,12.06h3.57a2.78,2.78,0,0,1,.16-.44c.1-.36.2-.7.28-1H35.35a.56.56,0,0,1-.63-.64.57.57,0,0,1,.63-.65h6.88c.09-.39.17-.76.24-1.1A.58.58,0,0,1,43,7.76c.51,0,.77.21.77.65a.75.75,0,0,1-.14.4,3.3,3.3,0,0,1-.09.49h6.5a.57.57,0,0,1,.64.65.56.56,0,0,1-.64.64H43.28c-.12.47-.25,1-.4,1.47h4.57c.8,0,1.21.37,1.21,1.11v9.14h1.81a.56.56,0,0,1,.63.63c0,.44-.21.65-.63.65H35c-.42,0-.63-.21-.63-.65a.56.56,0,0,1,.63-.63h1.74V13.17A1,1,0,0,1,37.9,12.06Zm.21,2.73h9.2v-1c0-.29-.14-.44-.41-.44H38.45c-.22,0-.34.15-.34.44Zm0,2.48h9.2V15.86h-9.2Zm0,2.46h9.2V18.32h-9.2Zm0,2.58h9.2V20.76h-9.2Z"/><path class="cls-2" d="M58,10.92a.55.55,0,0,1,.62.63c0,.44-.21.65-.62.65h-.93v3c.26-.18.54-.41.84-.66l.23-.06c.42,0,.64.24.64.71a.75.75,0,0,1-.25.47,9,9,0,0,1-1.46,1.09v5.75c0,1-.58,1.54-1.74,1.54a2.26,2.26,0,0,1-.84-.22.62.62,0,0,1-.51-.62q0-.6.51-.63a.35.35,0,0,1,.12,0,3.15,3.15,0,0,0,.72.19c.33,0,.49-.19.49-.58V17.51c-.34.17-.67.32-1,.46a.67.67,0,0,1-.28.07c-.44,0-.65-.21-.65-.63a.66.66,0,0,1,.51-.71,8.82,8.82,0,0,0,1.4-.65V12.2H54.72c-.42,0-.63-.21-.63-.65a.56.56,0,0,1,.63-.63h1.14V8.48c0-.44.21-.65.62-.65s.63.21.63.65v2.44ZM68.73,8c.37,0,.56.23.56.7,0,.31-.24.49-.7.56-.88.12-2,.23-3.38.34v2.42H66l.39-.51a10.59,10.59,0,0,0,.77-1.26.63.63,0,0,1,.55-.27.58.58,0,0,1,.4.16.58.58,0,0,1,.16.41.68.68,0,0,1-.13.4,5.52,5.52,0,0,1-.56.86l-.16.21h1.92a.48.48,0,0,1,.54.55.49.49,0,0,1-.54.56H65.55a11.75,11.75,0,0,0,1.56,1,19.2,19.2,0,0,0,2.72,1.28.66.66,0,0,1,.44.63.72.72,0,0,1-.15.42.56.56,0,0,1-.48.23,1.11,1.11,0,0,1-.49-.12c-.74-.37-1.45-.77-2.13-1.19a14.51,14.51,0,0,1-1.81-1.31V16c0,.42-.21.63-.65.63a.56.56,0,0,1-.63-.63V14.07a9.91,9.91,0,0,1-1.34,1.1,16.17,16.17,0,0,1-2.9,1.66l-.33.07c-.36,0-.54-.24-.54-.71a.55.55,0,0,1,.4-.54,17,17,0,0,0,3.07-1.6,9.19,9.19,0,0,0,1.15-.88H59.36a.49.49,0,0,1-.54-.56.48.48,0,0,1,.54-.55h2.16a4.44,4.44,0,0,0-.33-.37l-.55-.47a.67.67,0,0,1-.21-.44.49.49,0,0,1,.55-.56,1.7,1.7,0,0,1,.44.07c.21.2.41.38.61.54a11,11,0,0,1,.79.86.82.82,0,0,1,.14.37h1V9.71c-1.9.12-3.23.17-4,.17-.47,0-.7-.21-.7-.63a.51.51,0,0,1,.58-.58c1.55,0,3-.06,4.32-.14A44.37,44.37,0,0,0,68.73,8ZM61,16.77h7c.71,0,1.06.33,1.06,1v5.08c0,.64-.35,1-1.06,1H61c-.71,0-1.06-.33-1.06-1V17.74C59.92,17.1,60.27,16.77,61,16.77Zm.23,2.89h2.7l0-1.76H61.61c-.27,0-.4.16-.4.47Zm2.67,3v-2H61.21v1.48c0,.34.13.51.4.51Zm3.44,0c.27,0,.41-.17.41-.51V20.69H65.16l0,2ZM65.19,17.9v1.76h2.55V18.37c0-.31-.14-.47-.41-.47Z"/><path class="cls-2" d="M25,15.39a.67.67,0,0,0-.68.68,4.08,4.08,0,1,1-8.15,0,.68.68,0,1,0-1.36,0,5.43,5.43,0,0,0,4.75,5.39V24.9H17a.92.92,0,1,0,0,1.83h6.37a.92.92,0,0,0,0-1.83H20.87V21.46a5.44,5.44,0,0,0,4.73-4.87l-.2,0,.2,0a4.43,4.43,0,0,0,0-.52A.67.67,0,0,0,25,15.39Z"/><rect class="cls-2" x="17.06" y="9.73" width="6.26" height="1.01"/><path class="cls-2" d="M20.19,5.27a3.13,3.13,0,0,0-3.13,3.12v.32h6.26V8.39A3.13,3.13,0,0,0,20.19,5.27Z"/><path class="cls-2" d="M17.06,15.67a3.13,3.13,0,1,0,6.26,0V13.79H17.06Z"/><rect class="cls-2" x="17.06" y="11.76" width="6.26" height="1.01"/></g></g></svg>