<?xml version="1.0" encoding="UTF-8"?>
<svg id="Layer_2" data-name="Layer 2" xmlns="http://www.w3.org/2000/svg" width="54.09" height="17.85" viewBox="0 0 54.09 17.85">
  <defs>
    <style>
      .cls-1 {
        fill: #fff;
      }
    </style>
  </defs>
  <g id="_圖層_1" data-name="圖層 1">
    <g>
      <g>
        <path class="cls-1" d="M7.81,0s0,0-.01,0h0c-.43.04-1.55.35-2.94.89-1.4.54-2.77.74-3.92,1.03C-.19,2.22.02,3.58.02,3.58.02,3.58.44,9.1.62,10.01c.83,4.35,7.11,7.84,7.11,7.84h0s6.39-3.39,7.25-7.82c.18-.93.63-6.58.63-6.58,0,0,.22-1.4-.97-1.68-1.19-.28-2.61-.44-4.04-.95C9.19.31,8.25.03,7.83,0h0s0,0-.01,0ZM10.08,2.03c1.1.39,2.16.6,3.1.78,0,0,.85.21.99.24,0,0,.04,0,.03.23,0,.04,0,.04,0,.08-.17,2.16-.48,5.81-.6,6.43-.37,1.91-2.09,3.67-3.47,4.81-.91.75-1.8,1.34-2.39,1.71-.58-.37-1.44-.96-2.33-1.71-1.37-1.15-3.06-2.92-3.43-4.81-.12-.62-.42-4.2-.59-6.31,0-.04,0-.05,0-.08,0-.08,0-.19.01-.26.3-.07.63-.15.97-.22.91-.2,1.95-.42,3.02-.84,1.21-.46,2.08-.7,2.43-.77.23.05.82.2,2.27.72Z"/>
        <path class="cls-1" d="M12.23,3.85c-.77-.19-1.69-.31-2.63-.67-.92-.35-1.53-.55-1.81-.57h0s0,0,0,0c0,0,0,0,0,0h0c-.28.03-1.01.24-1.92.61-.92.37-1.82.51-2.57.71-.75.2-.61,1.15-.61,1.15,0,0,.28,3.83.4,4.47.55,3.02,4.65,5.42,4.65,5.42h0s4.17-2.36,4.73-5.42c.12-.64.41-4.54.41-4.54,0,0,.14-.97-.63-1.16ZM8.81,11.84c-.12.15-.29.23-.51.23-.22,0-.39-.08-.51-.23-.11-.13-.17-.29-.17-.47v-4.92c-.29.3-.61.55-.95.75-.33.19-.58.28-.76.28-.12,0-.24-.05-.35-.14-.1-.1-.16-.23-.16-.39,0-.26.18-.47.55-.65.65-.32,1.17-.78,1.58-1.39.17-.24.29-.4.37-.48.14-.13.29-.2.44-.2.42,0,.64.29.64.88v6.24c0,.19-.05.34-.15.47Z"/>
      </g>
      <g>
        <path class="cls-1" d="M24.66,1.23c.43,0,.65.22.65.65v.45s1.94,0,1.94,0c.36,0,.53.17.53.5,0,.36-.18.53-.53.53h-.31s-.45,1.94-.45,1.94h1.1c.39,0,.58.19.58.58,0,.39-.19.58-.58.58h-6.01c-.4,0-.6-.19-.6-.58s.2-.58.6-.58h1.28s-.45-1.94-.45-1.94h-.52c-.33,0-.5-.18-.5-.53,0-.33.17-.5.5-.5h2.15s0-.45,0-.45c0-.43.21-.65.63-.65ZM22.4,7.43h4.2c.66,0,.99.29.99.89v2.2c0,.61-.33.92-.98.92h-.58s0,2.83,0,2.83c.44-.09.83-.19,1.16-.32.11-.04.19-.06.26-.06.33.02.51.18.52.47,0,.24-.12.43-.37.58-.37.17-.85.33-1.44.49-.45.13-1.01.25-1.68.36-.32-.03-.5-.25-.52-.65,0-.34.15-.54.45-.6.23-.02.43-.04.6-.06v-3.02s-.97,0-.97,0c0,.79-.1,1.53-.31,2.25-.3.89-.84,1.69-1.63,2.39-.14.18-.3.27-.47.27-.43,0-.65-.22-.65-.65,0-.04.04-.16.13-.34.78-.6,1.31-1.29,1.6-2.07.18-.58.28-1.2.29-1.86h-.6c-.64,0-.95-.31-.95-.92v-2.2c0-.59.32-.89.95-.89ZM26.02,10.39c.27,0,.4-.15.4-.44v-1.03c0-.31-.14-.47-.4-.47h-3.02c-.27,0-.4.16-.4.47v1.03c0,.29.14.44.4.44h3.02ZM23.95,5.3h1.45s.44-1.94.44-1.94h-2.34s.45,1.94.45,1.94ZM32.45,11.43h-1.13s.02.04.02.07c0,.8-.13,1.55-.39,2.25-.4.89-1.11,1.7-2.15,2.41-.15.17-.32.26-.5.26-.43,0-.65-.22-.65-.65,0-.04.04-.18.13-.4.97-.59,1.64-1.27,2-2.02.25-.6.37-1.24.37-1.91h-.31c-.65,0-.97-.31-.97-.92v-2.2c0-.59.32-.89.97-.89h4.65c.65,0,.97.29.97.89v2.2c0,.61-.32.92-.97.92h-1c.01.05.02.12.02.19v2.65c0,.26.04.44.11.55.1.11.3.16.6.16.31,0,.5-.05.55-.15.06-.12.1-.25.1-.4v-.94c.02-.41.2-.62.53-.65.37.02.56.28.58.78,0,.98-.04,1.56-.13,1.73-.05.2-.19.37-.4.48-.19.11-.6.16-1.23.16-.75,0-1.25-.11-1.49-.34-.2-.22-.31-.61-.31-1.2v-2.84c0-.08,0-.14.02-.19ZM32.16,1.23c.43,0,.65.22.65.65v.45s2.41,0,2.41,0c.33,0,.5.17.5.5,0,.36-.17.53-.5.53h-.78s-.5,1.94-.5,1.94h1.28c.39,0,.58.19.58.58,0,.39-.19.58-.58.58h-6.2c-.39,0-.58-.19-.58-.58,0-.39.19-.58.58-.58h1.29s-.47-1.94-.47-1.94h-.63c-.36,0-.53-.18-.53-.53,0-.33.18-.5.53-.5h2.31s0-.45,0-.45c0-.43.22-.65.65-.65ZM33.92,10.38c.25,0,.37-.15.37-.44v-1.03c0-.31-.12-.47-.37-.47h-3.49c-.27,0-.4.16-.4.47v1.03c0,.29.14.44.4.44h3.49ZM31.38,5.3h1.45s.48-1.94.48-1.94h-2.37s.44,1.94.44,1.94Z"/>
        <path class="cls-1" d="M46.35,1.03c.43,0,.65.22.65.65v.31s5.62,0,5.62,0c.44,0,.78.15,1.02.45.18.23.27.57.28,1.03,0,.32-.04.69-.13,1.11-.1.29-.33.44-.71.44-.39,0-.58-.19-.58-.57.13-.48.19-.79.19-.92,0-.39-.18-.58-.53-.58h-2.84s0,.79,0,.79h2.6c.26,0,.39.12.39.37,0,.27-.13.4-.39.4h-2.6s0,.71,0,.71h2.2c.23,0,.34.1.34.31,0,.27-.11.4-.34.4h-2.2s0,.65,0,.65h3.89c.25,0,.37.12.37.37,0,.31-.12.47-.37.47h-3.04c.12.08.24.15.37.21.43.18.89.32,1.37.42.48.09.98.15,1.49.19.46.09.69.31.69.66,0,.39-.22.58-.65.58-.6-.09-1.16-.2-1.66-.34v4.13c0,.57-.33.86-.98.86h-1.11c1.21.47,2.4.83,3.59,1.08.26.13.39.31.39.53,0,.43-.22.65-.65.65-.2,0-.94-.2-2.2-.6-.68-.22-1.32-.47-1.94-.76-.18-.2-.27-.38-.27-.53,0-.16.04-.29.11-.37h-4.64c.09.08.13.18.15.32,0,.25-.13.44-.4.58-.48.27-1.12.52-1.91.74-.61.2-1.36.39-2.23.55-.32-.02-.49-.24-.5-.65,0-.33.15-.53.44-.58.79-.11,1.4-.23,1.84-.36.7-.19,1.31-.4,1.84-.61h-1.08c-.65,0-.97-.28-.97-.86v-4.05c0-.09,0-.16.01-.21-.56.17-1.11.31-1.65.4-.15.04-.27.06-.37.06-.15,0-.27-.06-.37-.18-.1-.13-.15-.26-.15-.4,0-.29.12-.47.37-.53.81-.11,1.58-.26,2.33-.45.45-.14.83-.3,1.15-.47.02-.01.04-.02.05-.03h-3.13c-.26,0-.39-.15-.39-.47,0-.25.13-.37.39-.37h4.02s0-.65,0-.65h-2.26c-.23,0-.34-.13-.34-.4,0-.2.11-.31.34-.31h2.26s0-.71,0-.71h-2.71c-.27,0-.4-.13-.4-.4,0-.25.13-.37.4-.37h2.71s0-.79,0-.79h-2.91c-.27,0-.4.14-.4.41v1.1c0,.38-.19.57-.58.57-.39,0-.58-.19-.58-.57v-1.57c0-.6.31-.9.92-.9h5.75s0-.31,0-.31c0-.43.22-.65.65-.65ZM42.4,10.2h8.21s0-.58,0-.58c0-.22-.06-.32-.18-.32h-7.82c-.14,0-.21.11-.21.33v.58ZM42.4,11.62h8.21s0-.84,0-.84h-8.21s0,.84,0,.84ZM50.43,13.28c.12,0,.18-.12.18-.37v-.65s-8.21,0-8.21,0v.65c0,.25.07.37.21.37h7.82ZM42.75,8.44h7.22c-.16-.09-.31-.19-.44-.29-.29-.19-.53-.44-.73-.73h-4.85c-.2.28-.43.51-.66.68-.17.12-.36.23-.55.34ZM48.23,3.74v-.79s-3.63,0-3.63,0v.79s3.63,0,3.63,0ZM48.23,5.23v-.71s-3.63,0-3.63,0v.71s3.63,0,3.63,0ZM44.6,6.58h3.63s0-.65,0-.65h-3.63s0,.65,0,.65Z"/>
      </g>
    </g>
  </g>
</svg>