<?xml version="1.0" encoding="UTF-8"?>
<svg id="Layer_2" data-name="Layer 2" xmlns="http://www.w3.org/2000/svg" width="53.37" height="15.01" viewBox="0 0 53.37 15.01">
  <defs>
    <style>
      .cls-1 {
        fill: #fff;
      }
    </style>
  </defs>
  <g id="_圖層_1" data-name="圖層 1">
    <g>
      <g>
        <path class="cls-1" d="M14.39,4.37c-.45-.1-.91.18-1.01.63l-.97,4.25-7.36-.07-1.78-7.09c-.06-.23-.21-.42-.41-.54l-1.61-.88c-.41-.22-.92-.08-1.15.33-.22.41-.07.92.33,1.15l1.29.71,1.81,7.22-.97.77c-.12.09-.18.23-.18.38v1.21c0,.26.21.48.48.48l1.36.02c-.19.18-.31.43-.31.7,0,.53.43.97.97.96.53,0,.97-.43.96-.97,0-.27-.11-.51-.29-.69l6.37.09c-.13.16-.21.37-.21.6,0,.53.43.97.97.96.53,0,.97-.43.97-.97,0-.22-.07-.41-.19-.57h.83s0,.01,0,.01c.26,0,.48-.21.48-.48,0-.27-.21-.49-.48-.49l-10.95-.15v-.5s.8-.63.8-.63c.07.02.15.04.23.04l8.69.08h0c.39,0,.73-.27.82-.66l1.13-4.91c.1-.45-.18-.91-.63-1.01Z"/>
        <path class="cls-1" d="M10.73,4.71h-.79s0-2.27,0-2.27c0-.28-.23-.5-.5-.5h-1.51c-.28,0-.5.23-.5.51v2.27s-.78,0-.78,0c-.35,0-.46.23-.25.51l.58.78c.21.28.55.73.76,1.01l.58.78c.21.28.55.28.75,0l.58-.78c.21-.28.55-.73.75-1.01l.58-.78c.21-.28.09-.51-.25-.51Z"/>
      </g>
      <g>
        <path class="cls-1" d="M28.27,0c.43,0,.65.22.65.65v.9s6.07,0,6.07,0c.34,0,.52.17.52.52,0,.4-.17.6-.52.6h-3.18s-.69,1.94-.69,1.94h2.58c.78,0,1.16.38,1.16,1.15v7.56c0,1.13-.54,1.7-1.63,1.7-.65,0-1.42-.09-2.31-.27-.27-.1-.4-.26-.4-.5,0-.43.16-.65.47-.65.14,0,.31.02.52.05.69.14,1.23.21,1.62.21.39,0,.58-.22.58-.66v-6.91c0-.34-.16-.52-.47-.52h-3.02s0,1.16,0,1.16c0,.31.12.47.37.47h2.15c.33,0,.5.17.5.52,0,.33-.17.5-.5.5h-2.34c-.86,0-1.29-.43-1.29-1.29v-1.36s-2.02,0-2.02,0c-.06.66-.18,1.16-.34,1.5-.22.48-.55.87-1,1.15-.52.32-1.16.52-1.92.58h-.21c-.32-.01-.49-.23-.5-.65.02-.28.17-.45.44-.52.57-.04,1.05-.17,1.44-.39.34-.19.59-.44.74-.74.13-.23.22-.54.27-.94h-2.83c-.3,0-.45.17-.45.52v8.16c0,.39-.2.58-.59.58-.39,0-.58-.19-.58-.58V5.75c0-.76.41-1.15,1.22-1.15h2.54s-.65-1.94-.65-1.94h-3.18c-.34,0-.52-.2-.52-.6,0-.34.17-.52.52-.52h6.14s0-.91,0-.91C27.6.22,27.83,0,28.27,0ZM25.36,9.18h5.62c.55,0,.82.26.82.79v2.33c0,.52-.27.78-.82.78h-5.62c-.52,0-.78-.26-.78-.77v-2.33c0-.53.26-.79.77-.79ZM30.34,12.03c.26,0,.39-.13.39-.39v-1.05c0-.25-.13-.37-.39-.37h-4.33c-.23,0-.34.13-.34.37v1.05c0,.26.11.39.34.39h4.33ZM26.52,4.6h3.36s.68-1.94.68-1.94h-4.68s.65,1.94.65,1.94Z"/>
        <path class="cls-1" d="M39.8,7.18h4.51c.66,0,.99.3.99.9v5.62c0,.64-.33.95-.98.95h-4.51c-.66,0-.99-.32-.99-.95v-5.62c0-.6.33-.9.98-.9ZM43.68,13.58c.29,0,.44-.17.44-.52v-4.33c0-.3-.15-.45-.44-.45h-3.23c-.31,0-.47.15-.47.45v4.33c0,.34.16.52.47.52h3.23ZM41.67.4h8.77c.74,0,1.11.34,1.11,1.01v3.49c0,.74-.37,1.11-1.11,1.11h-8.77c-.73,0-1.1-.37-1.1-1.11V1.42c0-.68.36-1.02,1.1-1.02ZM49.8,4.9c.39,0,.58-.22.58-.65v-2.2c0-.39-.19-.58-.58-.58h-7.48c-.39,0-.58.2-.58.58v2.2c0,.43.2.65.58.65h7.48ZM47.88,7.18h4.52c.65,0,.97.3.97.9v5.62c0,.64-.32.95-.97.95h-4.52c-.66,0-.99-.32-.99-.95v-5.62c0-.6.33-.9.98-.9ZM51.74,13.57c.31,0,.47-.17.47-.52v-4.33c0-.3-.16-.45-.47-.45h-3.21c-.3,0-.45.15-.45.45v4.33c0,.34.15.52.45.52h3.21Z"/>
      </g>
    </g>
  </g>
</svg>