<svg xmlns="http://www.w3.org/2000/svg" viewBox="0 0 86 32.25"><defs><style>.cls-1{fill:#f19ec2;}.cls-2{fill:#fff;}.cls-3{fill:none;}</style></defs><g id="Layer_2" data-name="Layer 2"><g id="圖層_1" data-name="圖層 1"><rect class="cls-1" y="0.12" width="86" height="32" rx="16" transform="translate(0.07 -0.2) rotate(0.26)"/><path class="cls-2" d="M39.65,10.9a.57.57,0,0,1,.63.65.56.56,0,0,1-.63.63H38.22v.68L40,16a1.19,1.19,0,0,1,.17.53.56.56,0,0,1-.64.62.52.52,0,0,1-.42-.34l-.92-2.1,0,8.91a.64.64,0,0,1-1.27,0l0-8.4,0,.21c-.27,1.16-.5,2.07-.72,2.74a12.31,12.31,0,0,1-.66,2,.67.67,0,0,1-.56.37c-.42,0-.63-.19-.63-.57a1.34,1.34,0,0,1,.12-.51A31.45,31.45,0,0,0,36,15.14a24.07,24.07,0,0,0,.64-3H34.94a.55.55,0,0,1-.63-.64.56.56,0,0,1,.63-.64h2V8.44a.64.64,0,1,1,1.27,0v2.44ZM45.4,14c.47,0,.7.22.7.65v1.27l4.27,0c.38,0,.58.18.57.54a.5.5,0,0,1-.58.56l-6.75,0v.07c0,.44,0,.86-.06,1.29l5.33,0c.81,0,1.21.45,1.21,1.34a15.84,15.84,0,0,1-.23,2.71,1.84,1.84,0,0,1-.92,1.42,5,5,0,0,1-2.11.36,12.67,12.67,0,0,1-3.25-.51.64.64,0,0,1-.4-.58c0-.52.22-.78.64-.77a11,11,0,0,0,3,.59,2.77,2.77,0,0,0,1.32-.22,1.26,1.26,0,0,0,.56-.84,8.21,8.21,0,0,0,.15-1.69c0-.47-.18-.7-.56-.71l-4.87,0q-.09.47-.21.9a8.09,8.09,0,0,1-2.53,3.45.64.64,0,0,1-.55.29.62.62,0,0,1-.7-.7,1.75,1.75,0,0,1,.15-.42,7.43,7.43,0,0,0,2.38-3.09A9.36,9.36,0,0,0,42.37,17H41a.5.5,0,0,1-.58-.56c0-.37.2-.55.58-.55l3.73,0V14.67C44.77,14.23,45,14,45.4,14Zm0-6.24c.47,0,.7.21.7.64v.77l4.64,0a.49.49,0,0,1,.56.55c0,.42-.19.63-.57.63h-2l-.64,1.91h1.34a1.16,1.16,0,0,1,1,.48,1.77,1.77,0,0,1,.3,1.14,7,7,0,0,1-.15,1.19.67.67,0,0,1-.71.48.57.57,0,0,1-.63-.64,4.72,4.72,0,0,0,.22-1q0-.57-.51-.57l-7.15,0a.39.39,0,0,0-.44.44v1.26q0,.55-.63.54a.48.48,0,0,1-.55-.54V13.22a.87.87,0,0,1,1-1H42.6l-.41-1.92H40.36c-.39,0-.58-.21-.58-.64s.2-.54.58-.54l4.43,0V8.41A.56.56,0,0,1,45.43,7.78Zm-1.55,4.49,2.95,0,.63-1.92-4,0Z"/><path class="cls-2" d="M56.13,12.89,68.08,13c.79,0,1.19.37,1.19,1.11l0,3.86a1.07,1.07,0,0,1-1.2,1.21l-5.41,0v1.26l7,0c.42,0,.63.21.63.62a.56.56,0,0,1-.64.63l-7,0v2.13a.56.56,0,0,1-.63.63.57.57,0,0,1-.63-.64V21.61l-6.82,0a.57.57,0,0,1-.65-.63c0-.41.22-.62.66-.61l6.81,0V19.1l-5.27,0a1.08,1.08,0,0,1-1.21-1.22l0-3.87C54.91,13.25,55.32,12.89,56.13,12.89ZM55.8,8.3l4.34,0c.8,0,1.21.39,1.2,1.15v1.41c0,.73-.41,1.1-1.22,1.1l-4.34,0c-.8,0-1.19-.38-1.19-1.11V9.44Q54.6,8.3,55.8,8.3Zm3.92,2.57c.22,0,.34-.15.34-.44V9.89c0-.29-.11-.43-.33-.43H56.19q-.33,0-.33.42v.54c0,.29.11.44.33.44Zm1.66,7V16.48l-5.22,0v1c0,.27.12.4.37.41Zm-5.21-2.47,5.22,0V14.09l-4.85,0a.33.33,0,0,0-.37.37Zm11.44,2.5c.25,0,.37-.14.38-.41v-1l-5.34,0v1.4Zm-5-3.82v1.35l5.34,0v-1a.33.33,0,0,0-.37-.37ZM64,8.34l4.41,0q1.14,0,1.14,1.08v1.47c0,.7-.38,1-1.14,1l-4.42,0c-.75,0-1.12-.35-1.12-1V9.41C62.89,8.69,63.27,8.34,64,8.34ZM68,10.84c.22,0,.33-.15.33-.44V9.92c0-.28-.11-.42-.33-.42l-3.46,0c-.22,0-.33.14-.34.42v.48c0,.29.11.44.33.44Z"/><path class="cls-3" d="M15.18,10.87,15,8.93c-.54-.12-1.39-.15-1.69.17s-.21.78,0,1.53a3.3,3.3,0,0,0,2.24,1.9A5.08,5.08,0,0,1,15.18,10.87Z"/><path class="cls-3" d="M25.42,9l-.17,1.94a5,5,0,0,1-.45,1.65,3.3,3.3,0,0,0,2.26-1.88c.25-.75.27-1.29.05-1.53S26,8.86,25.42,9Z"/><path class="cls-2" d="M28.12,8.22a3,3,0,0,0-2.57-.66l.12-1.3-10.86,0,.1,1.3a3,3,0,0,0-2.58.64c-.61.64-.7,1.62-.28,2.91.77,2.32,3.49,3,4.82,3.18a5,5,0,0,0,6.66,0c1.33-.17,4.06-.82,4.84-3.14A2.77,2.77,0,0,0,28.12,8.22ZM13.37,10.63c-.25-.75-.26-1.29,0-1.53s1.15-.29,1.69-.17l.16,1.94a5.08,5.08,0,0,0,.43,1.66A3.3,3.3,0,0,1,13.37,10.63Zm8.75,2.73-3.41,0v-.81h1.21l0-3.57-1.13.68v-.9l1.55-.92h.58l0,4.72h1.2Zm4.94-2.67a3.3,3.3,0,0,1-2.26,1.88,5,5,0,0,0,.45-1.65L25.42,9c.54-.12,1.39-.14,1.69.18S27.31,9.94,27.06,10.69Z"/><path class="cls-2" d="M20.19,16.12a8.43,8.43,0,0,1-1-.06l0,4.15h2l0-4.15C20.87,16.1,20.53,16.12,20.19,16.12Z"/><path class="cls-2" d="M23.27,20.87l-6.43,0a.72.72,0,0,0-.72.59l-.81,4.34,9.44,0L24,21.47A.74.74,0,0,0,23.27,20.87Z"/><polygon class="cls-1" points="20.94 7.82 20.36 7.82 18.81 8.74 18.81 9.64 19.94 8.96 19.92 12.53 18.71 12.53 18.71 13.34 22.12 13.36 22.12 12.54 20.92 12.54 20.94 7.82"/></g></g></svg>