<?xml version="1.0" encoding="UTF-8"?>
<svg id="Layer_2" data-name="Layer 2" xmlns="http://www.w3.org/2000/svg" width="53.76" height="18.03" viewBox="0 0 53.76 18.03">
  <defs>
    <style>
      .cls-1 {
        fill: none;
      }

      .cls-2 {
        fill: #fff;
      }
    </style>
  </defs>
  <g id="_圖層_1" data-name="圖層 1">
    <g>
      <g>
        <path class="cls-2" d="M25.61,4.31c.39,0,.58.2.58.6,0,.39-.2.58-.58.58h-1.31s0,.62,0,.62l1.65,2.9c.11.18.16.35.16.49,0,.38-.2.56-.58.56-.16,0-.29-.1-.39-.31l-.85-1.93-.04,8.19c0,.39-.2.58-.58.58-.39,0-.58-.2-.58-.58l.04-7.72c-.01.06-.02.13-.03.19-.24,1.06-.46,1.9-.66,2.52-.23.86-.43,1.47-.61,1.82-.14.23-.31.34-.52.34-.39,0-.58-.17-.58-.52,0-.14.04-.3.12-.47.66-1.59,1.13-2.91,1.39-3.97.23-.77.43-1.68.59-2.73h-1.55c-.39,0-.58-.2-.58-.59,0-.4.2-.6.58-.59h1.86s.01-2.24.01-2.24c0-.39.2-.58.58-.58.39,0,.58.2.58.58v2.25s1.3,0,1.3,0ZM30.89,7.18c.43,0,.65.2.64.6v1.16s3.92.02,3.92.02c.36,0,.53.17.53.5,0,.34-.18.52-.54.51l-6.2-.03s0,.04,0,.06c0,.4-.02.79-.05,1.18l4.89.02c.74,0,1.11.41,1.11,1.23,0,.92-.07,1.74-.21,2.49-.14.68-.43,1.11-.85,1.3-.45.22-1.1.33-1.94.33-.9,0-1.9-.16-2.99-.47-.25-.13-.37-.31-.37-.53,0-.47.2-.71.58-.71,1.17.36,2.08.54,2.71.55.58,0,.99-.07,1.21-.2.26-.15.43-.41.52-.77.09-.43.13-.95.14-1.55,0-.43-.17-.65-.51-.65l-4.47-.02c-.06.28-.12.55-.2.82-.43,1.18-1.2,2.24-2.32,3.17-.14.18-.31.27-.5.27-.43,0-.65-.22-.64-.65,0-.04.04-.17.13-.39,1.05-.84,1.78-1.78,2.19-2.83.27-.83.41-1.72.42-2.66h-1.23c-.36,0-.53-.18-.53-.52,0-.33.18-.5.54-.5l3.42.02v-1.16c0-.4.2-.6.59-.59ZM30.92,1.44c.43,0,.65.2.64.58v.71s4.26.02,4.26.02c.34,0,.52.17.51.5,0,.39-.18.58-.52.58h-1.87s-.59,1.75-.59,1.75h1.23c.43,0,.75.15.95.45.18.23.27.58.27,1.05,0,.32-.05.69-.13,1.1-.1.29-.31.43-.65.43-.39,0-.58-.2-.58-.58.13-.47.2-.77.2-.9,0-.34-.15-.52-.47-.52l-6.57-.03c-.27,0-.4.13-.41.4v1.16c0,.33-.2.5-.59.5-.33,0-.5-.17-.5-.5v-1.7c.01-.59.31-.89.92-.88h1.29s-.38-1.76-.38-1.76h-1.68c-.36,0-.53-.2-.53-.59,0-.33.18-.5.54-.5l4.07.02v-.71c0-.39.2-.58.59-.58ZM29.49,5.57h2.71s.57-1.75.57-1.75l-3.68-.02.4,1.76Z"/>
        <path class="cls-2" d="M40.75,6.14l10.98.05c.73,0,1.1.34,1.09,1.02l-.02,3.55c0,.74-.37,1.11-1.1,1.11l-4.97-.02v1.16s6.46.03,6.46.03c.39,0,.58.19.58.57,0,.39-.2.58-.58.58l-6.46-.03v1.95c-.01.39-.21.58-.59.58-.39,0-.58-.2-.58-.58v-1.95s-6.26-.03-6.26-.03c-.4,0-.6-.2-.59-.58,0-.38.2-.56.6-.56l6.27.03v-1.16s-4.84-.02-4.84-.02c-.74,0-1.11-.38-1.11-1.12l.02-3.55c0-.68.38-1.02,1.12-1.01ZM40.44,1.92l3.99.02c.74,0,1.11.36,1.11,1.05v1.29c0,.68-.38,1.02-1.13,1.01l-3.99-.02c-.73,0-1.1-.34-1.09-1.02v-1.29c0-.7.38-1.05,1.11-1.04ZM44.05,4.28c.2,0,.31-.13.31-.4v-.5c0-.26-.1-.39-.3-.39h-3.25c-.2-.02-.31.11-.31.37v.5c0,.27.1.4.3.41h3.25ZM45.57,10.73v-1.29s-4.79-.02-4.79-.02v.92c0,.25.11.37.33.37l4.46.02ZM40.79,8.47l4.8.02v-1.24s-4.45-.02-4.45-.02c-.23,0-.34.11-.34.34v.9ZM51.31,10.76c.23,0,.34-.12.34-.37v-.92s-4.91-.02-4.91-.02v1.29s4.56.02,4.56.02ZM46.75,7.25v1.24s4.9.02,4.9.02v-.9c0-.23-.11-.34-.33-.34l-4.57-.02ZM48,1.96l4.05.02c.7,0,1.05.33,1.05.99v1.36c0,.64-.36.95-1.06.95l-4.05-.02c-.69,0-1.03-.32-1.03-.96v-1.36c0-.66.36-.98,1.04-.98ZM51.61,4.25c.2,0,.31-.13.31-.4v-.44c0-.26-.1-.39-.3-.39h-3.18c-.2-.02-.31.11-.31.37v.44c0,.27.1.4.3.41h3.18Z"/>
      </g>
      <g>
        <path class="cls-1" d="M3.11,4.28l-.14-1.78c-.5-.11-1.28-.14-1.55.15-.21.22-.2.72.03,1.4.31.93,1.2,1.46,2.06,1.75-.21-.47-.35-.98-.4-1.53Z"/>
        <path class="cls-1" d="M12.52,2.55l-.16,1.78c-.05.54-.19,1.05-.41,1.52.86-.29,1.76-.8,2.08-1.73.23-.68.25-1.18.04-1.4-.27-.29-1.05-.27-1.55-.17Z"/>
        <path class="cls-2" d="M15.01,1.85c-.65-.7-1.72-.69-2.36-.61l.11-1.19-9.98-.05.1,1.19c-.64-.09-1.71-.11-2.37.59C-.06,2.37-.15,3.27.24,4.45c.7,2.14,3.2,2.75,4.43,2.93.82.72,1.89,1.16,3.05,1.17s2.24-.43,3.06-1.14c1.22-.16,3.73-.76,4.45-2.89.4-1.18.32-2.08-.23-2.67ZM1.45,4.06c-.23-.69-.24-1.18-.03-1.4.27-.29,1.06-.26,1.55-.15l.14,1.78c.04.54.18,1.06.4,1.53-.86-.3-1.76-.82-2.06-1.75ZM9.49,6.57h-3.14s0-.76,0-.76h1.11s.02-3.27.02-3.27l-1.04.62v-.82s1.42-.85,1.42-.85h.54s-.02,4.34-.02,4.34h1.11s0,.76,0,.76ZM14.03,4.12c-.31.93-1.21,1.44-2.08,1.73.22-.47.36-.98.41-1.52l.16-1.78c.5-.11,1.28-.13,1.55.17.2.22.19.72-.04,1.4Z"/>
        <path class="cls-2" d="M7.72,9.11c-.32,0-.63-.02-.93-.05l-.02,3.81h1.86s.02-3.8.02-3.8c-.3.03-.61.05-.93.05Z"/>
        <path class="cls-2" d="M10.55,13.48l-5.91-.03c-.32,0-.6.23-.66.54l-.74,3.99,8.67.04-.71-4c-.06-.32-.33-.55-.65-.55Z"/>
      </g>
    </g>
  </g>
</svg>