<?xml version="1.0" encoding="UTF-8"?>
<svg id="Layer_2" data-name="Layer 2" xmlns="http://www.w3.org/2000/svg" width="53.38" height="15.26" viewBox="0 0 53.38 15.26">
  <defs>
    <style>
      .cls-1 {
        fill: #fff;
      }
    </style>
  </defs>
  <g id="_圖層_1" data-name="圖層 1">
    <g>
      <g>
        <path class="cls-1" d="M23.36,0c.16,0,.31.04.45.13.13.12.19.27.19.45,0,.08-.02.18-.05.31-.24,1.22-.53,2.3-.85,3.26l-.05,10.45c0,.39-.2.58-.58.58-.4,0-.6-.2-.59-.58l.04-7.72c-.14.28-.29.55-.46.81-.16.16-.29.24-.37.24-.43,0-.65-.17-.64-.5,0-.15.04-.29.11-.4.5-.85.94-1.79,1.34-2.82.41-1.09.75-2.36,1.02-3.82C22.98.12,23.13,0,23.36,0ZM27.95,2.61c.34,0,.52.17.51.5,0,.39-.18.58-.52.58l-3.55-.02c-.34,0-.52-.2-.51-.58,0-.33.17-.5.52-.5l3.55.02ZM27.81,4.87c.33,0,.5.17.5.52,0,.33-.17.5-.5.5l-3.29-.02c-.36,0-.53-.17-.53-.5,0-.34.18-.52.54-.51l3.29.02ZM27.8,6.93c.33,0,.5.17.5.52,0,.33-.17.5-.5.5h-3.23c-.36-.02-.53-.18-.53-.52,0-.34.18-.52.54-.51h3.23ZM25.01,8.99h2.33c.64.01.95.31.95.9l-.02,4.02c0,.59-.32.89-.96.88h-2.33c-.61-.01-.92-.31-.92-.9l.02-4.02c0-.59.31-.89.92-.88ZM27.68.54c.34,0,.52.17.51.5,0,.34-.17.52-.52.51h-2.57c-.34-.01-.52-.19-.51-.53,0-.33.17-.5.52-.5h2.57ZM26.78,13.78c.27,0,.4-.13.41-.4v-2.96c.01-.27-.12-.4-.39-.41h-1.29c-.2,0-.31.13-.31.4v2.96c-.01.27.09.4.29.41h1.29ZM33.38,1.65c.14,0,.25.03.32.08.11-.28.22-.59.33-.92.08-.2.24-.31.5-.3.15,0,.27.04.37.11.11.08.16.18.16.32,0,.09-.02.2-.07.34-.39,1.26-.87,2.33-1.42,3.21h1.47c.34,0,.52.18.51.53,0,.36-.17.53-.52.53h-2.13c-.42.6-.89,1.18-1.41,1.71-.1.12-.19.23-.29.34h2.65c.66.02.98.31.98.91l-.03,5.51c0,.59-.33.89-.99.88l-3.42-.02c-.6,0-.9-.3-.9-.89l.02-5.06c-.1.08-.2.14-.31.19-.13.09-.26.13-.39.13-.14,0-.26-.05-.37-.16-.11-.12-.16-.26-.16-.42,0-.15.07-.27.21-.37.83-.55,1.56-1.14,2.19-1.78.29-.32.57-.65.84-.98h-2.37c-.34-.01-.52-.19-.51-.55,0-.34.17-.52.52-.51h1.86s0-1.78,0-1.78h-1.53c-.36,0-.53-.18-.53-.53,0-.36.18-.53.54-.53h1.53s0-1.08,0-1.08c0-.34.18-.52.54-.51.39,0,.58.18.58.52v1.08s1.22,0,1.22,0ZM33.32,13.87c.25,0,.37-.13.37-.4v-1.79s-3.08-.01-3.08-.01v1.79c0,.27.09.4.3.41h2.41ZM30.63,10.61h3.08s0-1.58,0-1.58c0-.27-.12-.4-.37-.41h-2.41c-.2-.01-.31.12-.31.39v1.6ZM32.29,4.48c.12-.17.24-.35.36-.53.24-.39.46-.81.67-1.26h-1.16s0,1.79,0,1.79h.15Z"/>
        <path class="cls-1" d="M41.49.2c.16,0,.3.05.42.15.14.13.21.28.21.45,0,.08-.02.18-.07.31-.24,1.2-.55,2.28-.92,3.23l-.05,10.35c0,.39-.2.58-.58.58-.39,0-.58-.2-.58-.58l.04-7.82c-.18.34-.37.66-.57.95-.21.18-.36.27-.45.27-.43,0-.65-.2-.64-.58,0-.13.04-.24.11-.34.55-.84,1.04-1.77,1.47-2.79.47-1.09.86-2.34,1.16-3.77.06-.27.21-.4.45-.4ZM52.45,1.8c.36,0,.53.17.53.52,0,.4-.18.6-.54.6l-4.26-.02v1.16s2.77.01,2.77.01c.74,0,1.11.34,1.11,1.02l-.04,8.67h.84c.34,0,.52.17.51.51,0,.39-.17.58-.52.58l-10.6-.05c-.34,0-.52-.2-.51-.58,0-.33.17-.5.52-.5h.78s.04-8.67.04-8.67c0-.68.37-1.02,1.09-1.01h2.78s0-1.15,0-1.15l-3.99-.02c-.34,0-.52-.2-.51-.6,0-.34.17-.52.52-.51l3.99.02V.75c0-.36.2-.53.59-.53.43,0,.65.18.64.54v1.02s4.26.02,4.26.02ZM44.21,13.73l6.64.03v-1.49s-6.63-.03-6.63-.03v1.49ZM44.22,11.21l6.64.03v-1.42s-6.63-.03-6.63-.03v1.42ZM44.23,8.74l6.64.03v-1.34s-6.63-.03-6.63-.03v1.34ZM44.24,6.36l6.64.03v-.84c0-.27-.12-.4-.37-.41l-5.9-.03c-.25,0-.37.13-.37.4v.84Z"/>
      </g>
      <g>
        <polygon class="cls-1" points=".03 5.08 .68 5.89 7.15 13.96 4.5 5.1 .03 5.08"/>
        <polygon class="cls-1" points="7.63 13.95 14.15 5.95 14.81 5.15 10.6 5.13 7.63 13.95"/>
        <polygon class="cls-1" points="12.3 .85 7.62 .83 10.48 4.68 12.3 .85"/>
        <polygon class="cls-1" points="2.34 .94 0 4.75 4.35 4.77 2.34 .94"/>
        <polygon class="cls-1" points="14.84 4.82 12.54 .99 10.74 4.8 14.84 4.82"/>
        <polygon class="cls-1" points="7.26 .82 2.59 .8 4.61 4.65 7.26 .82"/>
        <polygon class="cls-1" points="10.2 4.79 7.44 1.08 4.89 4.77 10.2 4.79"/>
        <polygon class="cls-1" points="4.79 5.1 7.38 14.25 10.3 5.13 4.79 5.1"/>
      </g>
    </g>
  </g>
</svg>