<?xml version="1.0" encoding="UTF-8"?>
<svg id="Layer_2" data-name="Layer 2" xmlns="http://www.w3.org/2000/svg" width="88.65" height="15.53" viewBox="0 0 88.65 15.53">
  <defs>
    <style>
      .cls-1 {
        fill: #fff;
      }
    </style>
  </defs>
  <g id="_圖層_1" data-name="圖層 1">
    <g>
      <g>
        <path class="cls-1" d="M23.97,3.54c.39,0,.58.2.58.58,0,.38-.2.56-.58.56h-.84s-.01,2.92-.01,2.92c.24-.16.5-.33.78-.51.12-.04.18-.06.19-.06.39,0,.58.22.58.65,0,.12-.08.24-.23.37-.34.29-.78.59-1.33.91l-.02,5.1c0,.86-.51,1.29-1.51,1.29-.24,0-.55-.07-.95-.2-.31-.11-.47-.3-.47-.58.01-.37.17-.56.47-.58.03,0,.08,0,.15.02.39.12.63.18.74.18.27,0,.4-.15.41-.45l.02-4.22c-.33.16-.66.29-.97.4-.1.04-.19.06-.27.06-.39,0-.58-.2-.58-.6,0-.32.16-.54.47-.64.53-.17.98-.34,1.36-.51l.02-3.55h-1.11c-.39,0-.58-.2-.58-.57,0-.39.2-.58.58-.58h1.11s.01-2.58.01-2.58c0-.4.2-.6.58-.59.39,0,.58.2.58.6v2.58s.83,0,.83,0ZM29.61.2c.39,0,.58.2.58.58l-.04,7.99h2.78c.72.02,1.08.3,1.08.87,0,.18-.14.46-.42.84-.63.76-1.34,1.44-2.13,2.04-.14.1-.28.19-.42.29.28.13.56.27.85.41.63.25,1.51.52,2.63.82.34.06.52.25.51.58,0,.47-.24.71-.71.71-.98-.25-1.81-.53-2.5-.82-.76-.32-1.43-.64-2.01-.96-.24.14-.49.27-.76.38-1.19.53-2.31.93-3.37,1.18-.44.12-.73.17-.86.17-.47,0-.71-.22-.71-.65,0-.29.17-.46.52-.51,1.1-.23,1.97-.46,2.6-.7.53-.18,1.02-.37,1.47-.57-.01-.01-.03-.02-.05-.03-1.14-.8-2.09-1.66-2.86-2.58-.14-.17-.22-.32-.24-.44-.36,0-.53-.17-.53-.52,0-.36.17-.53.52-.53l3.44.02.04-7.99c0-.39.2-.58.58-.58ZM27.91.63c.34,0,.52.2.51.58,0,.25-.13.42-.37.52-.32.13-.8.28-1.42.46-.23.04-.34.19-.34.43v1.11s1.69,0,1.69,0c.29,0,.44.15.43.45,0,.33-.15.5-.44.5h-1.7s0,1.04,0,1.04c0,.43.22.65.66.65h1.1c.38,0,.56.18.56.52,0,.38-.19.56-.57.56h-1.87c-.7-.01-1.05-.37-1.04-1.1l.02-3.96c0-.42.09-.69.28-.82.14-.16.44-.27.89-.34.57-.16,1.05-.33,1.42-.53.1-.07.16-.11.19-.11ZM26.93,9.82c.62.66,1.29,1.25,2.01,1.77.31.23.64.44.98.65.01-.01.03-.02.05-.03.77-.46,1.49-1.05,2.16-1.77.18-.23.28-.36.28-.4,0-.13-.06-.19-.19-.19l-5.28-.02ZM31.15,1.1h2.07c.73.01,1.1.36,1.09,1.06l-.02,4.26c0,.72-.37,1.08-1.1,1.08h-2.07c-.4-.01-.6-.2-.59-.58,0-.34.2-.52.6-.51h1.6c.31,0,.47-.15.47-.46v-1.23s-2.06,0-2.06,0c-.31,0-.47-.17-.47-.5,0-.3.16-.45.47-.45h2.07s0-1.17,0-1.17c0-.25-.15-.37-.47-.37h-1.6c-.4,0-.6-.2-.59-.59,0-.36.2-.53.6-.53Z"/>
        <path class="cls-1" d="M48.91,9.98h-1.89c-.59-.01-.89-.31-.88-.92v-2.07c.01-.57.31-.85.9-.85l4.47.02c.65,0,.97.29.97.86v2.07c-.01.6-.34.9-.98.9h-1.42s0,.88,0,.88h2.5c.36.01.53.19.53.55,0,.34-.18.52-.54.51h-2.5s-.01,2.25-.01,2.25c0,.82-.5,1.23-1.49,1.22-.73,0-1.57-.14-2.52-.4-.31-.09-.47-.27-.47-.54.02-.4.2-.61.54-.63,1.36.26,2.15.4,2.37.4.27,0,.4-.04.4-.13v-2.2s-10.52-.05-10.52-.05c-.36,0-.53-.17-.53-.52,0-.36.18-.53.54-.53l10.53.05v-.89ZM44.66,6.2c.3,0,.45.15.45.45,0,.36-.15.53-.45.53h-2.2s0,1.44,0,1.44c.76-.1,1.45-.22,2.07-.36.1-.04.18-.06.26-.06.28.01.43.17.45.47,0,.18-.11.33-.34.45-.72.2-1.69.4-2.91.6-.92.15-2.04.28-3.36.39-.32-.01-.49-.21-.51-.58,0-.29.15-.46.45-.5,1.18-.08,2.11-.17,2.78-.26v-1.6s-2.43-.01-2.43-.01c-.3,0-.45-.18-.45-.54,0-.3.15-.45.45-.45l5.75.03ZM40.08.9l9.9.05c.65,0,.97.28.97.84v.82s1.35,0,1.35,0c.3,0,.45.16.45.47,0,.34-.15.52-.45.51h-1.36s0,.77,0,.77c0,.6-.33.9-.97.9l-9.9-.05c-.39,0-.58-.18-.58-.54,0-.29.2-.44.58-.43l9.32.04c.29,0,.44-.17.44-.51v-.19s-11.24-.05-11.24-.05c-.3,0-.45-.17-.45-.52,0-.31.15-.47.45-.47l11.24.05v-.24c0-.31-.14-.47-.43-.47l-9.32-.04c-.39,0-.58-.17-.58-.52,0-.29.2-.44.58-.43ZM41.45,12.26c.1,0,.21.07.34.21.49.41.97.89,1.41,1.43.09.15.13.28.13.39,0,.34-.2.52-.6.51-.1,0-.2-.04-.31-.13-.46-.51-.95-1.01-1.48-1.49-.1-.16-.14-.27-.14-.32,0-.4.22-.6.65-.59ZM50.98,9.01c.26,0,.39-.14.39-.43v-1.05c0-.25-.12-.37-.38-.37l-3.42-.02c-.22,0-.32.12-.32.37v1.05c0,.29.1.44.32.44l3.42.02Z"/>
        <path class="cls-1" d="M69.69,3.28c.4,0,.6.2.59.6,0,.39-.2.58-.6.58l-5.73-.03-.02,3.86,4.91.02c.39,0,.58.2.58.58,0,.4-.2.6-.58.59l-4.91-.02-.02,4.46,6.2.03c.39,0,.58.19.58.57,0,.4-.2.6-.58.59l-13.65-.06c-.39,0-.58-.2-.58-.6,0-.38.2-.56.58-.56l6.15.03.02-4.46-4.97-.02c-.39,0-.58-.2-.58-.6,0-.39.2-.58.58-.58l4.97.02.02-3.86-5.81-.03c-.39,0-.58-.2-.58-.58,0-.4.2-.6.58-.59l6.36.03c-.37-.59-.78-1.17-1.2-1.73-.07-.19-.11-.32-.11-.39,0-.44.24-.66.71-.66.11,0,.24.07.39.2.42.55.82,1.18,1.2,1.9.09.14.13.27.13.39,0,.13-.02.23-.07.31l5.43.02Z"/>
        <path class="cls-1" d="M77.43,3.44c.38,0,.56.2.56.58,0,.4-.19.6-.57.6h-.86s-.01,2.79-.01,2.79c.24-.17.5-.37.78-.61l.21-.05c.39,0,.58.22.58.65,0,.13-.08.27-.23.44-.32.31-.77.64-1.35,1l-.02,5.28c0,.95-.54,1.42-1.61,1.41-.19,0-.45-.07-.77-.21-.31-.1-.47-.29-.47-.57.02-.37.18-.56.47-.58.02,0,.06,0,.11.02.33.12.55.18.66.18.3,0,.45-.18.45-.53l.02-4.34c-.31.15-.62.29-.91.42-.1.04-.18.06-.26.06-.4,0-.6-.2-.59-.58,0-.34.16-.56.47-.64.51-.19.94-.39,1.29-.59l.02-3.54h-1.05c-.39,0-.58-.21-.58-.61,0-.39.2-.58.58-.58h1.05s.01-2.24.01-2.24c0-.4.19-.6.57-.6.39,0,.58.2.58.6v2.25s.85,0,.85,0ZM87.26.84c.34,0,.52.22.51.65,0,.28-.22.45-.65.51-.81.1-1.84.2-3.1.29v2.23s.73,0,.73,0c.12-.16.24-.32.36-.47.26-.36.5-.75.72-1.16.12-.16.29-.24.5-.24.15,0,.27.05.37.15.1.1.14.22.14.37,0,.13-.04.25-.11.37-.15.28-.33.54-.52.79-.05.06-.1.13-.15.19h1.76c.33,0,.5.18.5.51,0,.34-.17.52-.5.51l-3.5-.02c.45.36.93.68,1.43.96.95.53,1.78.93,2.5,1.19.27.13.4.32.4.58,0,.13-.05.26-.15.39-.11.14-.25.21-.44.21-.15,0-.3-.04-.45-.12-.68-.35-1.33-.72-1.95-1.11-.57-.35-1.12-.75-1.66-1.2v1.7c0,.39-.21.58-.61.58-.39,0-.58-.2-.58-.58v-1.78c-.38.38-.79.71-1.22,1.01-.63.47-1.52.97-2.67,1.51-.17.04-.27.06-.31.06-.33,0-.5-.22-.5-.65,0-.24.13-.4.37-.5,1.21-.5,2.15-.99,2.83-1.46.38-.25.73-.51,1.05-.8l-3.75-.02c-.33,0-.5-.17-.5-.52,0-.33.17-.5.5-.5h1.99c-.11-.13-.21-.24-.31-.33-.16-.14-.33-.29-.5-.44-.13-.14-.19-.28-.19-.4,0-.34.17-.52.5-.51.11,0,.24.02.4.07.19.18.38.35.56.5.25.24.49.5.72.79.09.15.13.26.13.34h.89s.01-2.16.01-2.16c-1.74.1-2.97.15-3.68.14-.43,0-.65-.2-.64-.58,0-.36.18-.53.54-.53,1.42,0,2.75-.04,3.97-.11,1.51-.08,2.92-.22,4.23-.43ZM80.1,8.83l6.41.03c.65,0,.97.3.96.89l-.02,4.67c0,.59-.33.89-.97.88l-6.41-.03c-.65,0-.97-.3-.96-.89l.02-4.67c0-.59.33-.89.97-.88ZM82.74,14.27l.02-1.83h-2.47s0,1.35,0,1.35c0,.31.12.47.37.47h2.08ZM80.3,11.48h2.49s.02-1.6.02-1.6h-2.13c-.25-.01-.37.13-.37.42v1.18ZM85.91,14.29c.25,0,.37-.15.37-.47v-1.36s-2.35-.01-2.35-.01l-.02,1.83h2ZM83.97,9.88l-.02,1.62h2.34s0-1.17,0-1.17c0-.29-.12-.44-.37-.44h-1.95Z"/>
      </g>
      <g>
        <g>
          <path class="cls-1" d="M15.01,15.01c-.43.43-1,.56-1.27.29l-.5-.5,1.56-1.58.51.52c.26.27.13.83-.31,1.26Z"/>
          <path class="cls-1" d="M14.37,12.73l-3.2-3.23c.65-.96,1.03-2.12,1.04-3.37C12.22,2.76,9.5.02,6.13,0,2.76-.02-.04,2.7,0,6.07c.04,3.43,2.74,6.16,6.07,6.13,1.32-.01,2.54-.41,3.54-1.12l3.19,3.22,1.55-1.58ZM10.39,6.21c-.01,2.37-1.94,4.28-4.31,4.27-2.37-.01-4.28-1.94-4.27-4.31.01-2.37,1.94-4.28,4.31-4.27,2.37.01,4.28,1.94,4.27,4.31Z"/>
        </g>
        <path class="cls-1" d="M6.11,10.15c-2.19-.01-3.96-1.8-3.95-3.99.01-2.19,1.8-3.96,3.99-3.95,2.19.01,3.96,1.8,3.95,3.99-.01,2.19-1.8,3.96-3.99,3.95ZM6.15,2.42c-2.07,0-3.76,1.67-3.77,3.73s1.67,3.76,3.73,3.77c2.07,0,3.76-1.67,3.77-3.73,0-2.07-1.67-3.76-3.73-3.77Z"/>
      </g>
    </g>
  </g>
</svg>