<svg width="124" height="33" viewBox="0 0 124 33" fill="none" xmlns="http://www.w3.org/2000/svg">
<g clip-path="url(#clip0_102_256)">
<path d="M108.078 0.410009L16.0789 -0.00747268C7.24242 -0.0475716 0.0465416 7.08329 0.00644272 15.9198C-0.0336562 24.7562 7.09721 31.9521 15.9337 31.9922L107.933 32.4097C116.769 32.4498 123.965 25.3189 124.005 16.4824C124.045 7.64598 116.914 0.450108 108.078 0.410009Z" fill="#F19EC2"/>
<path d="M38.23 11.4899C38.3164 11.4779 38.4044 11.4864 38.487 11.5145C38.5695 11.5426 38.6444 11.5896 38.7056 11.6518C38.7668 11.7139 38.8126 11.7895 38.8394 11.8725C38.8662 11.9555 38.8733 12.0436 38.86 12.1299C38.86 12.5399 38.65 12.7399 38.23 12.7399H37.31V15.9299L38.15 15.3699L38.36 15.2999C38.79 15.2999 39 15.5299 38.99 15.9999C38.9812 16.0813 38.9553 16.1599 38.9139 16.2306C38.8725 16.3012 38.8167 16.3623 38.75 16.4099C38.2954 16.783 37.8103 17.1175 37.3 17.4099V22.9599C37.3 23.8999 36.75 24.3699 35.66 24.3599C35.3183 24.338 34.9816 24.2673 34.66 24.1499C34.5145 24.1178 34.3845 24.0367 34.2916 23.9202C34.1988 23.8037 34.1488 23.6588 34.15 23.5099C34.15 23.1099 34.34 22.8999 34.66 22.8799H34.82C35.0821 22.9751 35.3537 23.0421 35.63 23.0799C35.92 23.0799 36.07 22.9199 36.07 22.5899L36 17.9999C35.6594 18.1651 35.3087 18.3088 34.95 18.4299C34.8562 18.4746 34.7539 18.4984 34.65 18.4999C34.5626 18.5122 34.4736 18.5037 34.3901 18.475C34.3066 18.4464 34.2311 18.3985 34.1697 18.3351C34.1083 18.2717 34.0627 18.1947 34.0367 18.1104C34.0107 18.0261 34.0049 17.9368 34.02 17.8499C34.0123 17.6925 34.0587 17.5372 34.1515 17.4099C34.2443 17.2825 34.3778 17.1908 34.53 17.1499C35.0312 16.994 35.5221 16.807 36 16.5899V12.7299H34.83C34.7451 12.7432 34.6583 12.7365 34.5764 12.7102C34.4946 12.6839 34.4201 12.6388 34.3588 12.5785C34.2976 12.5183 34.2513 12.4445 34.2237 12.3631C34.1961 12.2817 34.188 12.195 34.2 12.1099C34.1898 12.0242 34.1995 11.9374 34.2284 11.8561C34.2572 11.7748 34.3045 11.7013 34.3664 11.6413C34.4284 11.5813 34.5033 11.5364 34.5855 11.5101C34.6676 11.4839 34.7547 11.4769 34.84 11.4899H36.05V8.66986C36.0351 8.58027 36.0414 8.48844 36.0685 8.40174C36.0955 8.31505 36.1426 8.23593 36.2058 8.17075C36.2691 8.10556 36.3467 8.05614 36.4326 8.02646C36.5184 7.99677 36.61 7.98766 36.7 7.99986C36.7869 7.98969 36.8751 7.99969 36.9575 8.02907C37.04 8.05845 37.1146 8.10644 37.1755 8.1693C37.2364 8.23216 37.2821 8.3082 37.3088 8.39154C37.3356 8.47488 37.3429 8.56327 37.33 8.64986V11.4699L38.23 11.4899ZM44.36 7.85986C44.79 7.85986 45 8.07986 44.99 8.49986V17.1999H47.99C48.77 17.1999 49.16 17.5199 49.16 18.1399C49.091 18.4789 48.9321 18.7932 48.7 19.0499C48.0158 19.8743 47.2409 20.619 46.39 21.2699L45.93 21.5899L46.86 22.0299C47.796 22.3796 48.7508 22.6767 49.72 22.9199C49.7993 22.9236 49.8771 22.9433 49.9486 22.9778C50.0201 23.0123 50.0839 23.0609 50.1362 23.1207C50.1885 23.1804 50.2282 23.2501 50.2529 23.3256C50.2776 23.4011 50.2868 23.4807 50.28 23.5599C50.2933 23.665 50.2822 23.7718 50.2476 23.872C50.2129 23.9722 50.1556 24.0631 50.0802 24.1375C50.0048 24.212 49.9132 24.2681 49.8126 24.3015C49.7119 24.3348 49.605 24.3445 49.5 24.3299C48.573 24.0993 47.664 23.8019 46.78 23.4399C46.0318 23.1292 45.3007 22.7787 44.59 22.3899C44.3206 22.5438 44.0436 22.684 43.76 22.8099C42.5818 23.3477 41.3566 23.7762 40.1 24.0899C39.7973 24.1846 39.4856 24.2483 39.17 24.2799C38.65 24.2799 38.39 24.0399 38.4 23.5699C38.4 23.2599 38.59 23.0699 38.96 23.0099C39.9207 22.8265 40.8666 22.5725 41.79 22.2499C42.37 22.0599 42.9 21.8499 43.4 21.6299C43.4 21.6299 43.4 21.6299 43.34 21.6299C42.1875 20.83 41.1423 19.8856 40.23 18.8199C40.1048 18.6878 40.0153 18.5261 39.97 18.3499C39.8921 18.3613 39.8125 18.3546 39.7376 18.3301C39.6627 18.3057 39.5945 18.2643 39.5383 18.209C39.4821 18.1538 39.4395 18.0863 39.4138 18.0119C39.388 17.9374 39.3799 17.858 39.39 17.7799C39.39 17.3999 39.58 17.1999 39.95 17.2099H43.7V8.50986C43.6836 8.42 43.6894 8.32748 43.7169 8.24038C43.7444 8.15328 43.7928 8.07423 43.8579 8.01013C43.923 7.94603 44.0028 7.89883 44.0903 7.87263C44.1778 7.84644 44.2704 7.84206 44.36 7.85986ZM42.52 8.32986C42.89 8.32986 43.08 8.53986 43.08 8.96986C43.0796 9.09455 43.0397 9.21591 42.966 9.31652C42.8924 9.41713 42.7887 9.49182 42.67 9.52986C42.32 9.65986 41.8 9.82986 41.12 10.0299C41.0647 10.036 41.0112 10.0532 40.9625 10.0802C40.9139 10.1073 40.8711 10.1437 40.8367 10.1875C40.8022 10.2312 40.7769 10.2813 40.762 10.335C40.7471 10.3886 40.743 10.4446 40.75 10.4999V11.7099H42.6C42.91 11.7099 43.07 11.8799 43.07 12.2099C43.07 12.5399 42.91 12.7499 42.59 12.7499H40.74V13.8899C40.7264 13.9872 40.7357 14.0863 40.7672 14.1794C40.7987 14.2724 40.8516 14.3568 40.9216 14.4258C40.9915 14.4948 41.0766 14.5465 41.1701 14.5767C41.2636 14.6069 41.3629 14.6148 41.46 14.5999H42.66C43.07 14.5999 43.27 14.7899 43.27 15.1699C43.282 15.2536 43.2742 15.3391 43.2471 15.4193C43.2201 15.4995 43.1745 15.5722 43.1142 15.6316C43.0539 15.691 42.9804 15.7353 42.8998 15.7611C42.8191 15.7868 42.7336 15.7933 42.65 15.7799H40.65C40.4909 15.8054 40.328 15.7922 40.1752 15.7413C40.0223 15.6903 39.884 15.6032 39.7721 15.4873C39.6601 15.3715 39.5778 15.2303 39.5322 15.0757C39.4866 14.9212 39.4789 14.758 39.51 14.5999V10.2899C39.4903 10.1277 39.508 9.96316 39.5617 9.80889C39.6155 9.65462 39.7038 9.5147 39.82 9.39986C40.0995 9.1629 40.4536 9.03191 40.82 9.02986C41.3513 8.89245 41.8673 8.70147 42.36 8.45986C42.4043 8.40647 42.4587 8.3623 42.52 8.32986ZM41.45 18.3299C42.1194 19.0389 42.8525 19.6849 43.64 20.2599C43.98 20.5099 44.33 20.7399 44.71 20.9699C45.5991 20.43 46.4072 19.7667 47.11 18.9999C47.2372 18.8737 47.3391 18.7244 47.41 18.5599C47.4132 18.5315 47.4099 18.5028 47.4005 18.4759C47.3911 18.449 47.3757 18.4245 47.3555 18.4043C47.3354 18.3841 47.3109 18.3688 47.284 18.3593C47.2571 18.3499 47.2283 18.3467 47.2 18.3499L41.45 18.3299ZM46.05 8.84986H48.3C48.4598 8.81644 48.6253 8.82263 48.7821 8.8679C48.9389 8.91318 49.0823 8.99615 49.1997 9.10958C49.3171 9.22301 49.4049 9.36345 49.4555 9.51864C49.5061 9.67382 49.5179 9.83904 49.49 9.99986V14.6399C49.5223 14.8031 49.5134 14.9719 49.464 15.1309C49.4146 15.2898 49.3263 15.4339 49.2072 15.5501C49.088 15.6663 48.9417 15.751 48.7815 15.7963C48.6214 15.8417 48.4524 15.8463 48.29 15.8099H46C45.57 15.8099 45.35 15.5999 45.36 15.1899C45.37 14.7799 45.58 14.6299 46.01 14.6299H47.75C47.8193 14.6399 47.89 14.6337 47.9565 14.6116C48.0229 14.5895 48.0833 14.5523 48.1329 14.5027C48.1824 14.4532 48.2197 14.3928 48.2417 14.3263C48.2638 14.2599 48.2701 14.1892 48.26 14.1199V12.7899H46.01C45.67 12.7899 45.5 12.6099 45.5 12.2499C45.5 11.9199 45.67 11.7599 46.01 11.7599H48.26V10.4699C48.26 10.1999 48.09 10.0599 47.75 10.0599H46C45.9125 10.0731 45.8231 10.0657 45.7389 10.0384C45.6547 10.0111 45.578 9.96452 45.5149 9.90242C45.4519 9.84031 45.4041 9.76437 45.3755 9.68061C45.3469 9.59685 45.3381 9.50758 45.35 9.41986C45.4 8.99986 45.61 8.83986 46.05 8.83986V8.84986Z" fill="white"/>
<path d="M65.37 18.4999H63.31C63.1736 18.5224 63.0338 18.512 62.9022 18.4698C62.7706 18.4275 62.651 18.3544 62.5532 18.2567C62.4555 18.1589 62.3824 18.0393 62.3401 17.9077C62.2978 17.7761 62.2875 17.6363 62.31 17.4999V15.2599C62.31 14.6399 62.64 14.3299 63.31 14.3299H68.18C68.88 14.3299 69.18 14.6499 69.18 15.2699V17.5199C69.18 18.1699 68.82 18.5199 68.12 18.5199H66.63V19.5199H69.35C69.4289 19.508 69.5095 19.5149 69.5852 19.5398C69.661 19.5648 69.7299 19.6072 69.7863 19.6636C69.8427 19.72 69.8851 19.7889 69.91 19.8646C69.935 19.9404 69.9418 20.021 69.93 20.0999C69.93 20.4799 69.73 20.6599 69.35 20.6599H66.62V23.1199C66.62 24.0099 66.08 24.4499 65 24.4499C64.0676 24.4206 63.1431 24.2693 62.25 23.9999C62.1086 23.9827 61.9785 23.9141 61.8844 23.8071C61.7904 23.7001 61.739 23.5623 61.74 23.4199C61.74 22.9899 61.96 22.7599 62.33 22.7399C63.1813 22.9315 64.0426 23.075 64.91 23.1699C65.2 23.1699 65.35 23.1699 65.35 23.0299V20.6099L53.9 20.5599C53.8226 20.5731 53.7432 20.568 53.6682 20.5449C53.5932 20.5218 53.5246 20.4813 53.4682 20.4268C53.4117 20.3722 53.3688 20.3052 53.3431 20.231C53.3174 20.1569 53.3095 20.0777 53.32 19.9999C53.3082 19.921 53.315 19.8404 53.34 19.7646C53.3649 19.6889 53.4073 19.62 53.4637 19.5636C53.5201 19.5072 53.589 19.4648 53.6648 19.4398C53.7405 19.4149 53.8211 19.408 53.9 19.4199H65.36L65.37 18.4999ZM60.75 14.3899C60.8163 14.3818 60.8835 14.3889 60.9467 14.4107C61.0098 14.4324 61.0671 14.4683 61.1144 14.5155C61.1616 14.5627 61.1974 14.6201 61.2192 14.6832C61.241 14.7463 61.2481 14.8136 61.24 14.8799C61.24 15.2699 61.07 15.4599 60.74 15.4599H58.35V16.9999C59.19 16.8899 59.94 16.7599 60.61 16.6099C60.6968 16.5655 60.7926 16.5416 60.89 16.5399C60.9569 16.5368 61.0237 16.548 61.0859 16.5728C61.1481 16.5976 61.2043 16.6355 61.2507 16.6837C61.2971 16.732 61.3326 16.7897 61.3549 16.8528C61.3772 16.916 61.3858 16.9832 61.38 17.0499C61.3704 17.158 61.3306 17.2612 61.2652 17.3478C61.1998 17.4345 61.1113 17.501 61.01 17.5399C59.966 17.8142 58.9077 18.0312 57.84 18.1899C56.84 18.3499 55.62 18.4899 54.18 18.6199C53.83 18.6199 53.64 18.3899 53.62 17.9799C53.6145 17.9109 53.6233 17.8416 53.6459 17.7762C53.6686 17.7109 53.7045 17.6509 53.7515 17.6002C53.7985 17.5494 53.8555 17.509 53.9189 17.4814C53.9824 17.4538 54.0508 17.4397 54.12 17.4399C55.41 17.3499 56.41 17.2599 57.12 17.1499V15.4399H54.49C54.16 15.4399 53.99 15.2499 54 14.8599C53.9898 14.7932 53.9955 14.725 54.0165 14.6609C54.0375 14.5968 54.0733 14.5386 54.121 14.4909C54.1687 14.4432 54.227 14.4074 54.2911 14.3864C54.3552 14.3653 54.4233 14.3597 54.49 14.3699L60.75 14.3899ZM55.75 8.61987L66.53 8.66987C67.23 8.66987 67.53 8.97987 67.53 9.58987V10.4799H69.01C69.34 10.4799 69.5 10.6499 69.5 10.9899C69.5 11.3299 69.33 11.5499 69.01 11.5499H67.58V12.3899C67.58 13.0499 67.22 13.3899 66.52 13.3899L55.74 13.3399C55.32 13.3399 55.11 13.1399 55.11 12.7599C55.11 12.3799 55.33 12.2799 55.75 12.2799L65.89 12.3299C66.2 12.3299 66.36 12.1499 66.37 11.7699V11.5599L54.13 11.4999C53.81 11.4999 53.64 11.3099 53.65 10.9399C53.66 10.5699 53.81 10.4299 54.14 10.4299L66.37 10.4899V10.2199C66.37 9.87987 66.22 9.70987 65.9 9.70987H55.76C55.34 9.70987 55.13 9.51987 55.13 9.13987C55.13 8.75987 55.34 8.61987 55.76 8.61987H55.75ZM57.25 20.9999C57.3989 21.0245 57.532 21.1072 57.62 21.2299C58.1775 21.7007 58.6927 22.2194 59.16 22.7799C59.2389 22.9106 59.2868 23.0577 59.3 23.2099C59.3 23.5799 59.08 23.7699 58.65 23.7699C58.5225 23.7617 58.402 23.7085 58.31 23.6199C57.81 23.0699 57.31 22.5299 56.7 21.9999C56.628 21.8939 56.5771 21.7751 56.55 21.6499C56.55 21.1899 56.79 20.9999 57.25 20.9999ZM67.62 17.4599C67.9 17.4599 68.04 17.3099 68.05 16.9899V15.8299C68.0567 15.7735 68.0504 15.7164 68.0315 15.6629C68.0126 15.6094 67.9817 15.561 67.9411 15.5214C67.9005 15.4817 67.8513 15.452 67.7974 15.4344C67.7434 15.4168 67.6862 15.4118 67.63 15.4199H63.91C63.67 15.4199 63.55 15.5499 63.55 15.8199V16.9999C63.55 17.3199 63.66 17.4799 63.9 17.4799L67.62 17.4599Z" fill="white"/>
<path d="M28.48 24C28.01 24.46 27.39 24.61 27.11 24.32L26.57 23.77L28.26 22L28.82 22.56C29.11 22.89 29 23.51 28.48 24Z" fill="white"/>
<path d="M27.79 21.4998L24.31 17.9998C25.1343 16.7715 25.5248 15.303 25.4195 13.8274C25.3143 12.3519 24.7193 10.9537 23.729 9.85482C22.7387 8.7559 21.4097 8.01914 19.9531 7.76145C18.4964 7.50375 16.9953 7.73987 15.6881 8.43234C14.3809 9.12481 13.3424 10.234 12.7373 11.5839C12.1322 12.9338 11.9952 14.4471 12.348 15.8837C12.7008 17.3203 13.5233 18.5979 14.6849 19.5139C15.8465 20.4299 17.2807 20.9317 18.76 20.9398C20.1403 20.9419 21.4879 20.5194 22.62 19.7298L26.09 23.2298L27.79 21.4998ZM23.46 14.3998C23.456 15.3234 23.1783 16.2252 22.6618 16.9909C22.1454 17.7567 21.4135 18.3521 20.5587 18.7019C19.7038 19.0517 18.7645 19.1402 17.8594 18.9561C16.9543 18.772 16.1241 18.3237 15.4737 17.6678C14.8234 17.0119 14.3822 16.1779 14.2059 15.2712C14.0296 14.3646 14.1261 13.426 14.4832 12.5742C14.8403 11.7224 15.442 10.9956 16.2122 10.4858C16.9823 9.9759 17.8864 9.70587 18.81 9.70982C19.424 9.7098 20.032 9.83139 20.5988 10.0676C21.1656 10.3038 21.68 10.6498 22.1123 11.0859C22.5446 11.5219 22.8863 12.0393 23.1176 12.6081C23.3489 13.1768 23.4653 13.7858 23.46 14.3998Z" fill="white"/>
<path d="M18.81 18.69C17.9556 18.686 17.1216 18.4288 16.4134 17.9508C15.7051 17.4729 15.1546 16.7956 14.8313 16.0047C14.508 15.2138 14.4264 14.3449 14.597 13.5076C14.7676 12.6704 15.1826 11.9026 15.7895 11.3012C16.3965 10.6999 17.1681 10.292 18.0069 10.1292C18.8456 9.9664 19.7138 10.056 20.5017 10.3866C21.2895 10.7172 21.9617 11.274 22.4331 11.9866C22.9044 12.6992 23.1539 13.5356 23.15 14.39C23.1421 15.5349 22.681 16.6301 21.8677 17.4359C21.0543 18.2418 19.9549 18.6927 18.81 18.69ZM18.81 10.28C18.0007 10.276 17.2083 10.5123 16.5333 10.9589C15.8583 11.4054 15.331 12.0422 15.0181 12.7886C14.7052 13.535 14.6207 14.3575 14.7755 15.1519C14.9302 15.9463 15.3172 16.677 15.8873 17.2514C16.4575 17.8258 17.1853 18.2181 17.9786 18.3787C18.7719 18.5392 19.5949 18.4608 20.3436 18.1534C21.0923 17.846 21.7329 17.3233 22.1844 16.6516C22.6359 15.9799 22.878 15.1894 22.88 14.38C22.8827 13.3021 22.4598 12.2668 21.7033 11.499C20.9468 10.7313 19.9178 10.2932 18.84 10.28H18.81Z" fill="white"/>
<path d="M81.9659 8.01195C82.061 7.99864 82.1578 8.00758 82.2488 8.03805C82.3398 8.06852 82.4225 8.1197 82.4903 8.18756C82.5582 8.25541 82.6093 8.33809 82.6398 8.42909C82.6703 8.52009 82.6792 8.61692 82.6659 8.71195V9.71195H89.2759C89.3527 9.70179 89.4309 9.70963 89.5041 9.73484C89.5774 9.76005 89.6438 9.80195 89.6981 9.85723C89.7524 9.9125 89.7932 9.97965 89.8171 10.0534C89.841 10.1271 89.8474 10.2053 89.8359 10.282C89.8359 10.712 89.6459 10.932 89.2759 10.932H85.8159L85.0559 13.042H87.8659C88.0333 13.0167 88.2042 13.03 88.3657 13.081C88.5271 13.1319 88.6747 13.2191 88.7973 13.3359C88.9199 13.4526 89.0141 13.5959 89.0728 13.7547C89.1315 13.9134 89.1531 14.0835 89.1359 14.252V22.482C89.1359 23.712 88.5459 24.322 87.3659 24.322C86.5217 24.3094 85.6808 24.2123 84.8559 24.032C84.7307 24.0045 84.6187 23.9349 84.5386 23.8348C84.4585 23.7347 84.4152 23.6101 84.4159 23.482C84.4159 23.012 84.5859 22.782 84.9259 22.782C85.1135 22.7867 85.3005 22.8034 85.4859 22.832C86.0642 22.9628 86.6534 23.0397 87.2459 23.062C87.6659 23.062 87.8759 22.822 87.8759 22.342V14.832C87.8759 14.452 87.7059 14.262 87.3659 14.262H84.0759V15.522C84.0759 15.862 84.2059 16.032 84.4759 16.032H86.8159C86.9503 16.05 87.0735 16.1163 87.1628 16.2183C87.2521 16.3204 87.3013 16.4514 87.3013 16.587C87.3013 16.7225 87.2521 16.8535 87.1628 16.9556C87.0735 17.0577 86.9503 17.1239 86.8159 17.142H84.2659C84.0749 17.1689 83.8802 17.151 83.6973 17.0895C83.5145 17.028 83.3485 16.9247 83.2125 16.7878C83.0766 16.6509 82.9745 16.4842 82.9143 16.3009C82.8541 16.1176 82.8376 15.9228 82.8659 15.732V14.252H80.6659C80.6349 14.8122 80.5098 15.3632 80.2959 15.882C80.0783 16.4083 79.7004 16.8526 79.2159 17.152C78.5793 17.5252 77.8628 17.7411 77.1259 17.782H76.8959C76.5459 17.782 76.3659 17.542 76.3559 17.082C76.3562 16.9483 76.4034 16.819 76.4893 16.7167C76.5752 16.6143 76.6944 16.5454 76.8259 16.522C77.3725 16.4909 77.9068 16.3479 78.3959 16.102C78.7509 15.9107 79.0376 15.6136 79.2159 15.252C79.3736 14.9387 79.4751 14.6003 79.5159 14.252H76.4159C76.0859 14.252 75.9159 14.442 75.9259 14.812V23.692C75.9361 23.7789 75.9261 23.867 75.8967 23.9495C75.8673 24.0319 75.8193 24.1065 75.7565 24.1675C75.6936 24.2284 75.6176 24.274 75.5342 24.3008C75.4509 24.3276 75.3625 24.3348 75.2759 24.322C75.1905 24.3335 75.1035 24.3252 75.0218 24.2976C74.9401 24.27 74.8659 24.224 74.8049 24.163C74.7439 24.102 74.6978 24.0278 74.6703 23.9461C74.6427 23.8644 74.6344 23.7774 74.6459 23.692V14.252C74.6459 13.422 75.0959 13.002 75.9859 13.002H78.7459L78.0359 10.892H74.5659C74.1959 10.892 74.0059 10.682 74.0059 10.242C73.994 10.1657 74.0002 10.0877 74.0241 10.0143C74.048 9.94086 74.0889 9.87414 74.1435 9.81956C74.1981 9.76497 74.2648 9.72405 74.3382 9.70014C74.4116 9.67622 74.4896 9.66999 74.5659 9.68195H81.2159V8.68195C81.2079 8.58481 81.2225 8.48712 81.2586 8.39658C81.2947 8.30604 81.3514 8.22511 81.4241 8.16017C81.4968 8.09523 81.5835 8.04804 81.6776 8.02232C81.7716 7.9966 81.8703 7.99306 81.9659 8.01195ZM78.8059 18.012H84.9159C85.5159 18.012 85.8159 18.302 85.8159 18.872V21.402C85.8159 21.962 85.5159 22.252 84.9259 22.252H78.8059C78.6917 22.2688 78.5752 22.2587 78.4656 22.2224C78.356 22.1861 78.2564 22.1248 78.1747 22.0431C78.0931 21.9615 78.0317 21.8619 77.9955 21.7523C77.9592 21.6427 77.9491 21.5262 77.9659 21.412V18.852C77.9478 18.7366 77.9568 18.6187 77.9923 18.5075C78.0277 18.3962 78.0887 18.2948 78.1703 18.2113C78.2518 18.1278 78.3518 18.0645 78.4621 18.0264C78.5725 17.9883 78.6902 17.9765 78.8059 17.992V18.012ZM84.2159 21.102C84.273 21.1104 84.3313 21.1053 84.3861 21.0872C84.4409 21.0691 84.4907 21.0384 84.5315 20.9975C84.5723 20.9567 84.603 20.9069 84.6211 20.8521C84.6393 20.7973 84.6443 20.7391 84.6359 20.682V19.542C84.6426 19.4856 84.6363 19.4285 84.6174 19.375C84.5985 19.3215 84.5676 19.2731 84.527 19.2334C84.4864 19.1938 84.4372 19.164 84.3833 19.1464C84.3293 19.1288 84.2721 19.1239 84.2159 19.132H79.5059C79.2659 19.132 79.1359 19.262 79.1359 19.532V20.672C79.1359 20.952 79.2659 21.092 79.5059 21.092L84.2159 21.102ZM80.0659 13.022H83.7259L84.4559 10.912H79.3659L80.0659 13.022Z" fill="white"/>
<path d="M94.5159 15.8319H99.4159C100.136 15.8319 100.486 16.1619 100.486 16.8319V22.9419C100.497 23.083 100.475 23.2247 100.424 23.3564C100.372 23.4881 100.291 23.6064 100.187 23.7025C100.083 23.7987 99.9592 23.8701 99.8239 23.9116C99.6887 23.953 99.5458 23.9634 99.4059 23.9419H94.5159C93.8059 23.9419 93.4459 23.6019 93.4459 22.9419V16.8119C93.4459 16.1519 93.7959 15.8319 94.5159 15.8319ZM98.7359 22.8319C99.0459 22.8319 99.2059 22.6519 99.2059 22.2719V17.5119C99.2059 17.1819 99.0459 17.0219 98.7359 17.0219H95.2159C94.8759 17.0219 94.7059 17.1819 94.7059 17.5119V22.2519C94.7059 22.6319 94.8759 22.8119 95.2159 22.8119L98.7359 22.8319ZM96.5459 8.44189H106.096C106.896 8.44189 107.306 8.8119 107.306 9.5519V13.3419C107.331 13.507 107.317 13.6757 107.265 13.8345C107.214 13.9932 107.125 14.1377 107.008 14.2563C106.89 14.3748 106.746 14.4642 106.588 14.5173C106.43 14.5704 106.261 14.5856 106.096 14.5619H96.5559C96.3919 14.5857 96.2246 14.5707 96.0675 14.5182C95.9103 14.4656 95.7677 14.377 95.651 14.2593C95.5343 14.1416 95.4468 13.9983 95.3956 13.8407C95.3443 13.6831 95.3307 13.5157 95.3559 13.3519V9.5519C95.3559 8.8119 95.7559 8.44189 96.5459 8.44189ZM105.386 13.3419C105.816 13.3419 106.026 13.1119 106.026 12.6419V10.2519C106.038 10.1655 106.029 10.0775 106.001 9.99491C105.973 9.91234 105.926 9.83747 105.864 9.77628C105.802 9.71509 105.726 9.66927 105.643 9.64246C105.56 9.61566 105.472 9.60862 105.386 9.62189H97.2159C97.1297 9.60862 97.0416 9.61566 96.9586 9.64246C96.8756 9.66927 96.8 9.71509 96.7378 9.77628C96.6756 9.83747 96.6286 9.91234 96.6005 9.99491C96.5724 10.0775 96.564 10.1655 96.5759 10.2519V12.6419C96.5759 13.1119 96.7959 13.3519 97.2159 13.3519L105.386 13.3419ZM103.296 15.8219H108.216C108.916 15.8219 109.216 16.1519 109.216 16.8219V22.9419C109.226 23.0759 109.208 23.2106 109.161 23.3367C109.115 23.4628 109.041 23.5773 108.946 23.6724C108.851 23.7674 108.737 23.8407 108.611 23.8873C108.485 23.9338 108.35 23.9524 108.216 23.9419H103.306C103.166 23.9637 103.024 23.9534 102.889 23.912C102.754 23.8705 102.63 23.7989 102.527 23.7025C102.424 23.6061 102.344 23.4876 102.294 23.3558C102.243 23.224 102.224 23.0825 102.236 22.9419V16.8119C102.216 16.1519 102.586 15.8219 103.296 15.8219ZM107.506 22.8219C107.846 22.8219 108.016 22.6319 108.016 22.2619V17.5119C108.024 17.4447 108.017 17.3764 107.995 17.3124C107.972 17.2484 107.936 17.1905 107.887 17.1431C107.839 17.0956 107.78 17.06 107.716 17.039C107.651 17.018 107.583 17.0121 107.516 17.0219H104.016C103.949 17.0117 103.881 17.0174 103.817 17.0384C103.753 17.0594 103.695 17.0952 103.647 17.1429C103.599 17.1906 103.563 17.2489 103.542 17.313C103.521 17.3771 103.516 17.4452 103.526 17.5119V22.2519C103.526 22.6219 103.686 22.8119 104.016 22.8119L107.506 22.8219Z" fill="white"/>
</g>
<defs>
<clipPath id="clip0_102_256">
<rect width="124" height="32.42" fill="white"/>
</clipPath>
</defs>
</svg>
