<?xml version="1.0" encoding="UTF-8"?>
<svg id="Layer_2" data-name="Layer 2" xmlns="http://www.w3.org/2000/svg" width="88.45" height="15.56" viewBox="0 0 88.45 15.56">
  <defs>
    <style>
      .cls-1 {
        fill: #fff;
      }
    </style>
  </defs>
  <g id="_圖層_1" data-name="圖層 1">
    <g>
      <g>
        <path class="cls-1" d="M23.97,3.53c.39,0,.58.2.58.58,0,.38-.2.56-.58.56h-.84s-.01,2.92-.01,2.92c.24-.16.5-.33.78-.51.12-.04.18-.06.19-.06.39,0,.58.22.58.65,0,.12-.08.24-.23.37-.34.29-.78.59-1.33.91l-.02,5.1c0,.86-.51,1.29-1.51,1.29-.24,0-.55-.07-.95-.2-.31-.11-.47-.3-.47-.58.01-.37.17-.56.47-.58.03,0,.08,0,.15.02.39.12.63.18.74.18.27,0,.4-.15.41-.45l.02-4.22c-.33.16-.66.29-.97.4-.1.04-.19.06-.27.06-.39,0-.58-.2-.58-.6,0-.32.16-.54.47-.64.53-.17.98-.34,1.36-.51l.02-3.55h-1.11c-.39,0-.58-.2-.58-.57,0-.39.2-.58.58-.58h1.11s.01-2.58.01-2.58c0-.4.2-.6.58-.59.39,0,.58.2.58.6v2.58s.83,0,.83,0ZM29.61.2c.39,0,.58.2.58.58l-.04,7.99h2.78c.72.02,1.08.3,1.08.87,0,.18-.14.46-.42.84-.63.76-1.34,1.44-2.13,2.04-.14.1-.28.19-.42.29.28.13.56.27.85.41.63.25,1.51.52,2.63.82.34.06.52.25.51.58,0,.47-.24.71-.71.71-.98-.25-1.81-.53-2.5-.82-.76-.32-1.43-.64-2.01-.96-.24.14-.49.27-.76.38-1.19.53-2.31.93-3.36,1.18-.44.12-.73.17-.86.17-.47,0-.71-.22-.71-.65,0-.29.17-.46.52-.51,1.1-.23,1.97-.46,2.6-.7.53-.18,1.02-.37,1.47-.57-.01-.01-.03-.02-.05-.03-1.14-.8-2.09-1.66-2.86-2.58-.14-.17-.22-.32-.24-.44-.36,0-.53-.17-.53-.52,0-.36.17-.53.52-.53l3.44.02.04-7.99c0-.39.2-.58.58-.58ZM27.91.63c.34,0,.52.2.51.58,0,.25-.13.42-.37.52-.32.13-.8.28-1.42.46-.23.04-.34.19-.34.43v1.11s1.69,0,1.69,0c.29,0,.44.15.43.45,0,.33-.15.5-.44.5h-1.7s0,1.04,0,1.04c0,.43.22.65.66.65h1.1c.38,0,.56.18.56.52,0,.38-.19.56-.57.56h-1.87c-.7-.01-1.05-.37-1.04-1.1l.02-3.96c0-.42.09-.69.28-.82.14-.16.44-.27.89-.34.57-.16,1.05-.33,1.42-.53.1-.07.16-.11.19-.11ZM26.93,9.82c.62.66,1.29,1.25,2.01,1.77.31.23.64.44.98.65.01-.01.03-.02.05-.03.77-.46,1.49-1.05,2.16-1.77.18-.23.28-.36.28-.4,0-.13-.06-.19-.19-.19l-5.28-.02ZM31.15,1.1h2.07c.73.01,1.1.36,1.09,1.06l-.02,4.26c0,.72-.37,1.08-1.1,1.08h-2.07c-.4-.01-.6-.2-.59-.58,0-.34.2-.52.6-.51h1.6c.31,0,.47-.15.47-.46v-1.23s-2.06,0-2.06,0c-.31,0-.47-.17-.47-.5,0-.3.16-.45.47-.45h2.07s0-1.17,0-1.17c0-.25-.15-.37-.47-.37h-1.6c-.4,0-.6-.2-.59-.59,0-.36.2-.53.6-.53Z"/>
        <path class="cls-1" d="M48.91,9.98h-1.89c-.59-.01-.89-.31-.88-.92v-2.07c.01-.57.31-.85.9-.85l4.47.02c.65,0,.97.29.97.86v2.07c-.01.6-.34.9-.98.9h-1.42s0,.88,0,.88h2.5c.36.01.53.19.53.55,0,.34-.18.52-.54.51h-2.5s-.01,2.25-.01,2.25c0,.82-.5,1.23-1.49,1.22-.73,0-1.57-.14-2.52-.4-.31-.09-.47-.27-.47-.54.02-.4.2-.61.54-.63,1.36.26,2.15.4,2.37.4.27,0,.4-.04.4-.13v-2.2s-10.52-.05-10.52-.05c-.36,0-.53-.17-.53-.52,0-.36.18-.53.54-.53l10.53.05v-.89ZM44.66,6.2c.3,0,.45.15.45.45,0,.36-.15.53-.45.53h-2.2s0,1.44,0,1.44c.76-.1,1.45-.22,2.07-.36.1-.04.18-.06.26-.06.28.01.43.17.45.47,0,.18-.11.33-.34.45-.72.2-1.69.4-2.91.6-.92.15-2.04.28-3.36.39-.32-.01-.49-.21-.51-.58,0-.29.15-.46.45-.5,1.18-.08,2.11-.17,2.78-.26v-1.6s-2.43-.01-2.43-.01c-.3,0-.45-.18-.45-.54,0-.3.15-.45.45-.45l5.75.03ZM40.09.9l9.9.05c.65,0,.97.28.97.84v.82s1.35,0,1.35,0c.3,0,.45.16.45.47,0,.34-.15.52-.45.51h-1.36s0,.77,0,.77c0,.6-.33.9-.97.9l-9.9-.05c-.39,0-.58-.18-.58-.54,0-.29.2-.44.58-.43l9.32.04c.29,0,.44-.17.44-.51v-.19s-11.24-.05-11.24-.05c-.3,0-.45-.17-.45-.52,0-.31.15-.47.45-.47l11.24.05v-.24c0-.31-.14-.47-.43-.47l-9.32-.04c-.39,0-.58-.17-.58-.52,0-.29.2-.44.58-.43ZM41.45,12.26c.1,0,.21.07.34.21.49.41.96.89,1.41,1.43.09.15.13.28.13.39,0,.34-.2.52-.6.51-.1,0-.2-.04-.31-.13-.46-.51-.95-1.01-1.48-1.49-.1-.16-.14-.27-.14-.32,0-.4.22-.6.65-.59ZM50.98,9.01c.26,0,.39-.14.39-.43v-1.05c0-.25-.12-.37-.38-.37l-3.42-.02c-.22,0-.32.12-.32.37v1.05c0,.29.1.44.32.44l3.42.02Z"/>
        <path class="cls-1" d="M63.39.53c.43,0,.65.22.64.65v.9s6.07.03,6.07.03c.34,0,.52.17.51.52,0,.4-.18.6-.52.6h-3.18s-.7,1.92-.7,1.92h2.58c.78.02,1.16.4,1.16,1.16l-.03,7.56c0,1.13-.55,1.69-1.64,1.69-.65,0-1.42-.1-2.31-.29-.27-.1-.4-.27-.4-.5,0-.43.16-.65.47-.64.14,0,.31.02.52.05.69.14,1.23.22,1.61.22.39,0,.58-.22.58-.66l.03-6.91c0-.34-.15-.52-.47-.52h-3.02s0,1.15,0,1.15c0,.31.12.47.37.47h2.15c.33.01.5.18.5.53,0,.33-.17.5-.5.5h-2.34c-.86-.01-1.29-.45-1.29-1.31v-1.36s-2.01,0-2.01,0c-.07.66-.18,1.16-.35,1.5-.22.48-.55.86-1.01,1.14-.52.32-1.16.51-1.92.57h-.21c-.32-.01-.49-.23-.5-.65.02-.28.17-.45.44-.51.57-.04,1.05-.17,1.44-.38.35-.19.59-.44.75-.74.13-.23.22-.54.28-.94h-2.83c-.3-.01-.45.16-.45.5l-.04,8.16c0,.39-.2.58-.6.58-.39,0-.58-.2-.58-.58l.04-8.67c0-.76.41-1.14,1.23-1.14h2.54s-.64-1.93-.64-1.93h-3.18c-.34-.02-.52-.22-.51-.61,0-.34.17-.52.52-.51l6.14.03v-.9c0-.43.23-.64.67-.64ZM60.44,9.7l5.62.03c.55,0,.82.27.82.8v2.33c-.01.52-.29.77-.84.77l-5.62-.03c-.52,0-.77-.26-.77-.78v-2.33c.01-.53.27-.79.79-.79ZM65.4,12.58c.26,0,.39-.13.39-.39v-1.05c0-.25-.12-.37-.38-.37l-4.33-.02c-.23,0-.34.12-.34.37v1.05c0,.26.11.39.33.39l4.33.02ZM61.63,5.13l3.36.02.69-1.94-4.68-.02.64,1.94Z"/>
        <path class="cls-1" d="M74.89,7.78l4.51.02c.66,0,.98.31.98.91l-.03,5.62c0,.64-.33.95-.99.95l-4.51-.02c-.66,0-.98-.32-.98-.96l.03-5.62c0-.6.33-.9.99-.9ZM78.74,14.19c.29,0,.44-.17.44-.51l.02-4.33c0-.3-.14-.45-.43-.45h-3.23c-.31-.02-.47.13-.47.44l-.02,4.33c0,.34.15.52.47.52h3.23ZM76.79,1l8.77.04c.74,0,1.11.34,1.11,1.02l-.02,3.49c0,.74-.38,1.11-1.12,1.11l-8.77-.04c-.73,0-1.1-.38-1.09-1.12l.02-3.49c0-.68.37-1.02,1.1-1.01ZM84.9,5.54c.39,0,.58-.21.58-.64v-2.2c.01-.39-.18-.58-.57-.58l-7.48-.03c-.39,0-.58.19-.58.58v2.2c-.01.43.18.65.57.65l7.48.03ZM82.97,7.81l4.52.02c.65,0,.97.31.96.91l-.03,5.62c0,.64-.33.95-.97.95l-4.52-.02c-.66,0-.98-.32-.98-.96l.03-5.62c0-.6.33-.9.99-.9ZM86.8,14.23c.31,0,.47-.17.47-.51l.02-4.33c0-.3-.15-.45-.47-.45h-3.21c-.3-.02-.45.13-.45.44l-.02,4.33c0,.34.15.52.45.52h3.21Z"/>
      </g>
      <g>
        <g>
          <path class="cls-1" d="M15.01,15.01c-.43.43-1,.56-1.27.29l-.5-.5,1.56-1.58.51.52c.26.27.13.83-.31,1.26Z"/>
          <path class="cls-1" d="M14.37,12.73l-3.2-3.23c.65-.96,1.03-2.12,1.04-3.37C12.22,2.76,9.5.02,6.13,0,2.76-.02-.04,2.7,0,6.07c.04,3.43,2.74,6.16,6.07,6.13,1.32-.01,2.54-.41,3.54-1.12l3.19,3.22,1.55-1.58ZM10.39,6.21c-.01,2.37-1.94,4.28-4.31,4.27-2.37-.01-4.28-1.94-4.27-4.31.01-2.37,1.94-4.28,4.31-4.27,2.37.01,4.28,1.94,4.27,4.31Z"/>
        </g>
        <path class="cls-1" d="M6.11,10.15c-2.19-.01-3.96-1.8-3.95-3.99.01-2.19,1.8-3.96,3.99-3.95,2.19.01,3.96,1.8,3.95,3.99s-1.8,3.96-3.99,3.95ZM6.15,2.42c-2.07,0-3.76,1.67-3.77,3.73s1.67,3.76,3.73,3.77c2.07,0,3.76-1.67,3.77-3.73,0-2.07-1.67-3.76-3.73-3.77Z"/>
      </g>
    </g>
  </g>
</svg>