<?xml version="1.0" encoding="UTF-8"?>
<svg id="Layer_1" xmlns="http://www.w3.org/2000/svg" version="1.1" viewBox="0 0 43 38.4">
  <!-- Generator: Adobe Illustrator 29.1.0, SVG Export Plug-In . SVG Version: 2.1.0 Build 142)  -->
  <defs>
    <style>
      .st0 {
        fill: #fff;
      }

      .st1 {
        fill: #f9b653;
      }
    </style>
  </defs>
  <g id="b">
    <g id="c">
      <g>
        <polygon class="st1" points=".4 12.3 2.2 14.6 20.8 37.6 13.1 12.3 .4 12.3"/>
        <polygon class="st1" points="35.8 0 35.8 0 35.8 0 35.8 0"/>
        <polygon class="st1" points="22.2 37.5 40.8 14.6 42.6 12.3 30.6 12.3 22.2 37.5"/>
        <polygon class="st1" points="43 11.8 43 11.8 43 11.8 43 11.8"/>
        <polygon class="st1" points="35.4 0 22 0 30.2 11 35.4 0"/>
        <polygon class="st1" points="6.9 .4 .3 11.3 12.7 11.3 6.9 .4"/>
        <polygon class="st1" points="42.7 11.3 36.1 .4 31 11.3 42.7 11.3"/>
        <polygon class="st1" points="43 11.8 43 11.8 43 11.8 43 11.8"/>
        <polygon class="st1" points="21 0 7.6 0 13.5 11 21 0"/>
        <polygon class="st1" points="21.5 .7 14.3 11.3 29.4 11.3 21.5 .7"/>
        <path class="st0" d="M43,11.8h0l-.3-.5h-11.7L36.1.4,35.8,0h-.5l-5.1,11L22,0h-1l-7.5,11L7.6,0h-.5l-.2.4,5.8,10.9H.3l-.3.5.4.5h12.8l7.7,25.3.7.8.7-.9,8.4-25.2h12l.4-.5h-.1ZM21.5.7l7.9,10.6h-15.2L21.5.7ZM21.5,37.1l-7.5-24.8h15.8l-8.2,24.8h0Z"/>
        <polygon class="st1" points="21.5 38.4 29.7 12.3 14 12.3 21.5 38.4"/>
      </g>
    </g>
  </g>
</svg>