<?xml version="1.0" encoding="UTF-8"?><svg xmlns="http://www.w3.org/2000/svg" xmlns:xlink="http://www.w3.org/1999/xlink" viewBox="0 0 51.64 38.68"><defs><style>.gj{fill:url(#e);}.gk{fill:url(#d);}.gl{fill:url(#f);}.gm{fill:url(#aa);}.gn{fill:url(#ab);}.go{fill:url(#a`);}.gp{fill:url(#ax);}.gq{fill:url(#aw);}.gr{fill:url(#av);}.gs{fill:url(#cs);}.gt{fill:url(#ct);}.gu{fill:url(#cu);}.gv{fill:url(#by);}.gw{fill:url(#bw);}.gx{fill:url(#bx);}.gy{fill:url(#fq);}.h`{fill:url(#fs);}.ha{fill:url(#fr);}.hb{fill:url(#fi);}.hc{fill:url(#fk);}.hd{fill:url(#fj);}.he{fill:url(#fl);}.hf{fill:url(#fo);}.hg{fill:url(#fn);}.hh{fill:url(#eg);}.hi{fill:url(#ei);}.hj{fill:url(#eh);}.hk{fill:none;}.hl{fill:#fefefe;}.hm,.hn{fill:#fcc571;}.ho{fill:#afc1db;}.hp,.hq{fill:#d99b21;}.hr{fill:#dceff8;}.hq,.hs,.ht,.hu,.hv,.hw,.hx,.hy,.i`,.ia,.ib,.ic,.id,.ie,.if,.ig,.ih,.ii,.ij,.ik,.il,.im,.in,.io,.ip,.iq,.ir,.is,.it,.iu,.iv,.iw,.ix,.iy,.j`,.ja,.jb,.jc,.jd,.je,.jf,.jg,.jh,.ji,.jj,.jk,.jl,.jm,.jn,.jo,.jp,.jq,.jr,.js,.jt,.ju,.jv,.jw,.jx,.jy,.k`,.ka,.kb,.kc,.kd,.ke,.kf,.kg,.kh,.ki,.kj,.kk,.kl,.km,.kn,.ko,.kp,.kq,.kr,.ks,.kt,.ku,.kv,.kw,.kx,.ky,.l`,.la,.lb,.lc,.ld,.le,.lf,.lg,.lh,.li,.lj,.lk,.ll,.lm,.ln,.lo,.lp,.lq,.lr,.ls,.lt,.lu,.lv,.lw,.lx,.ly,.m`,.ma,.mb,.mc,.md,.me,.mf,.mg,.mh,.mi,.mj,.mk,.ml,.mm,.mn,.mo,.mp,.mq,.mr{mix-blend-mode:multiply;}.ht{fill:url(#c`);}.hu{fill:url(#cg);}.hv{fill:url(#ci);}.hw{fill:url(#cf);}.hx{fill:url(#ce);}.hy{fill:url(#ca);}.i`{fill:url(#ck);}.ia{fill:url(#cj);}.ib{fill:url(#cd);}.ic{fill:url(#au);}.id{fill:url(#ak);}.ie{fill:url(#cb);}.if{fill:url(#cc);}.ig{fill:url(#ac);}.ih{fill:url(#am);}.ii{fill:url(#at);}.ij{fill:url(#ay);}.ik{fill:url(#an);}.il{fill:url(#ar);}.im{fill:url(#al);}.in{fill:url(#aq);}.io{fill:url(#as);}.ip{fill:url(#dl);}.iq{fill:url(#di);}.ir{fill:url(#dm);}.is{fill:url(#dv);}.it{fill:url(#dt);}.iu{fill:url(#dw);}.iv{fill:url(#du);}.iw{fill:url(#dx);}.ix{fill:url(#dy);}.iy{fill:url(#da);}.j`{fill:url(#bp);}.ja{fill:url(#bi);}.jb{fill:url(#bj);}.jc{fill:url(#bk);}.jd{fill:url(#bl);}.je{fill:url(#bq);}.jf{fill:url(#db);}.jg{fill:url(#dc);}.jh{fill:url(#d`);}.ji{fill:url(#dd);}.jj{fill:url(#df);}.jk{fill:url(#dg);}.jl{fill:url(#dn);}.jm{fill:url(#dk);}.jn{fill:url(#de);}.jo{fill:url(#dh);}.jp{fill:url(#dj);}.jq{fill:url(#b`);}.jr{fill:url(#ch);}.js{fill:url(#co);}.jt{fill:url(#cn);}.ju{fill:url(#cm);}.jv{fill:url(#cl);}.jw{fill:url(#cr);}.jx{fill:url(#cq);}.jy{fill:url(#cp);}.k`{fill:url(#cw);}.ka{fill:url(#cv);}.kb{fill:url(#cy);}.kc{fill:url(#cx);}.kd{fill:url(#bf);}.ke{fill:url(#bg);}.kf{fill:url(#be);}.kg{fill:url(#bm);}.kh{fill:url(#bn);}.ki{fill:url(#bo);}.kj{fill:url(#bd);}.kk{fill:url(#bb);}.kl{fill:url(#bc);}.km{fill:url(#bh);}.kn{fill:url(#ba);}.ko{fill:url(#ae);}.kp{fill:url(#ap);}.kq{fill:url(#af);}.kr{fill:url(#ah);}.ks{fill:url(#ai);}.kt{fill:url(#ad);}.ku{fill:url(#ao);}.kv{fill:url(#aj);}.kw{fill:url(#ag);}.kx{fill:url(#ec);}.ky{fill:url(#e`);}.l`{fill:url(#ea);}.la{fill:url(#em);}.lb{fill:url(#el);}.lc{fill:url(#eo);}.ld{fill:url(#en);}.le{fill:url(#eb);}.lf{fill:url(#et);}.lg{fill:url(#er);}.lh{fill:url(#ew);}.li{fill:url(#ev);}.lj{fill:url(#ek);}.lk{fill:url(#ej);}.ll{fill:url(#es);}.lm{fill:url(#ep);}.ln{fill:url(#eq);}.lo{fill:url(#ee);}.lp{fill:url(#ed);}.lq{fill:url(#ef);}.lr{fill:url(#eu);}.ls{fill:url(#ey);}.lt{fill:url(#ex);}.lu{fill:url(#fm);}.lv{fill:url(#fa);}.lw{fill:url(#f`);}.lx{fill:url(#fb);}.ly{fill:url(#fp);}.m`{fill:url(#u);}.ma{fill:url(#v);}.mb{fill:url(#t);}.mc{fill:url(#q);}.md{fill:url(#s);}.me{fill:url(#r);}.mf{fill:url(#p);}.mg{fill:url(#o);}.mh{fill:url(#g);}.mi{fill:url(#j);}.mj{fill:url(#k);}.mk{fill:url(#l);}.ml{fill:url(#n);}.mm{fill:url(#m);}.mn{fill:url(#h);}.mo{fill:url(#i);}.mp{fill:url(#x);}.mq{fill:url(#y);}.mr{fill:url(#w);}.hn,.ms,.mt,.mu,.mv,.mw,.mx,.my,.n`,.na,.nb,.nc,.nd,.ne,.nf,.ng,.nh,.ni,.nj,.nk,.nl,.nm,.nn,.no,.np,.nq,.nr,.ns,.nt,.nu{mix-blend-mode:screen;}.nv{clip-path:url(#do);}.nw{clip-path:url(#br);}.nx{clip-path:url(#fc);}.ny{clip-path:url(#fh);}.mt{fill:url(#dq);}.mu{fill:url(#dr);}.mv{fill:url(#dp);}.mw{fill:url(#ds);}.mx{fill:url(#bs);}.my{fill:url(#bt);}.n`{fill:url(#bv);}.na{fill:url(#bu);}.nb{fill:url(#gb);}.nc{fill:url(#ga);}.nd{fill:url(#g`);}.ne{fill:url(#ft);}.nf{fill:url(#fu);}.ng{fill:url(#fv);}.nh{fill:url(#fw);}.ni{fill:url(#ge);}.nj{fill:url(#gh);}.nk{fill:url(#gd);}.nl{fill:url(#gc);}.nm{fill:url(#gf);}.nn{fill:url(#gi);}.no{fill:url(#gg);}.np{fill:url(#fe);}.nq{fill:url(#fd);}.nr{fill:url(#fg);}.ns{fill:url(#ff);}.nt{fill:url(#fx);}.nu{fill:url(#fy);}.o`{isolation:isolate;}</style><linearGradient id="d" x1="24.99" y1="9.39" x2="24.42" y2="18.14" gradientTransform="matrix(1, 0, 0, 1, 0, 0)" gradientUnits="userSpaceOnUse"><stop offset="0" stop-color="#a86a18"/><stop offset=".12" stop-color="#f5ce5b"/><stop offset=".23" stop-color="#f1d99c"/><stop offset=".33" stop-color="#f5f7bb"/><stop offset=".58" stop-color="#dbb054"/><stop offset=".74" stop-color="#f3c954"/><stop offset=".84" stop-color="#f1cf65"/><stop offset=".96" stop-color="#a86a18"/></linearGradient><linearGradient id="e" x1="24.62" y1="8.57" x2="24.62" y2="21.4" xlink:href="#d"/><linearGradient id="f" x1="13.85" y1="17.22" x2="35.52" y2="17.22" xlink:href="#d"/><linearGradient id="g" x1="20.52" y1="20.2" x2="20.52" y2="18.45" gradientTransform="matrix(1, 0, 0, 1, 0, 0)" gradientUnits="userSpaceOnUse"><stop offset="0" stop-color="#fff"/><stop offset=".96" stop-color="#d6b27c"/></linearGradient><linearGradient id="h" x1="16.97" y1="19.36" x2="16.97" y2="17.54" xlink:href="#g"/><linearGradient id="i" x1="19.3" y1="20" x2="19.3" y2="18.22" xlink:href="#g"/><linearGradient id="j" x1="23.03" y1="20.41" x2="23.03" y2="18.73" xlink:href="#g"/><linearGradient id="k" x1="21.76" y1="20.33" x2="21.76" y2="18.62" xlink:href="#g"/><linearGradient id="l" x1="35.24" y1="17.8" x2="35.24" y2="15.29" xlink:href="#g"/><linearGradient id="m" x1="34.26" y1="18.53" x2="34.26" y2="16.57" xlink:href="#g"/><linearGradient id="n" x1="18.09" y1="19.73" x2="18.09" y2="17.9" xlink:href="#g"/><linearGradient id="o" x1="32.15" y1="19.49" x2="32.15" y2="17.63" xlink:href="#g"/><linearGradient id="p" x1="33.26" y1="19.03" x2="33.26" y2="17.17" xlink:href="#g"/><linearGradient id="q" x1="14.05" y1="17.55" x2="14.05" y2="15.21" xlink:href="#g"/><linearGradient id="r" x1="14.97" y1="18.43" x2="14.97" y2="16.44" xlink:href="#g"/><linearGradient id="s" x1="15.97" y1="18.97" x2="15.97" y2="17.09" xlink:href="#g"/><linearGradient id="t" x1="30.93" y1="19.82" x2="30.93" y2="18.01" xlink:href="#g"/><linearGradient id="u" x1="25.82" y1="20.44" x2="25.82" y2="18.76" xlink:href="#g"/><linearGradient id="v" x1="27.2" y1="20.37" x2="27.2" y2="18.67" xlink:href="#g"/><linearGradient id="w" x1="24.37" y1="20.44" x2="24.37" y2="18.79" xlink:href="#g"/><linearGradient id="x" x1="28.47" y1="20.26" x2="28.47" y2="18.52" xlink:href="#g"/><linearGradient id="y" x1="29.71" y1="20.07" x2="29.71" y2="18.3" xlink:href="#g"/><linearGradient id="a`" x1="26.61" y1="7.02" x2="26.04" y2="15.78" xlink:href="#d"/><linearGradient id="aa" x1="26.24" y1="6.2" x2="26.24" y2="19.04" xlink:href="#d"/><linearGradient id="ab" x1="15.47" y1="14.85" x2="37.14" y2="14.85" xlink:href="#d"/><linearGradient id="ac" x1="22.14" y1="17.83" x2="22.14" y2="16.09" xlink:href="#g"/><linearGradient id="ad" x1="18.6" y1="16.99" x2="18.6" y2="15.17" xlink:href="#g"/><linearGradient id="ae" x1="20.92" y1="17.64" x2="20.92" y2="15.86" xlink:href="#g"/><linearGradient id="af" x1="24.65" y1="18.05" x2="24.65" y2="16.37" xlink:href="#g"/><linearGradient id="ag" x1="23.38" y1="17.97" x2="23.38" y2="16.25" xlink:href="#g"/><linearGradient id="ah" x1="36.87" y1="15.43" x2="36.87" y2="12.92" xlink:href="#g"/><linearGradient id="ai" x1="35.88" y1="16.17" x2="35.88" y2="14.2" xlink:href="#g"/><linearGradient id="aj" x1="19.71" y1="17.36" x2="19.71" y2="15.54" xlink:href="#g"/><linearGradient id="ak" x1="33.77" y1="17.12" x2="33.77" y2="15.26" xlink:href="#g"/><linearGradient id="al" x1="34.88" y1="16.67" x2="34.88" y2="14.81" xlink:href="#g"/><linearGradient id="am" x1="15.68" y1="15.18" x2="15.68" y2="12.85" xlink:href="#g"/><linearGradient id="an" x1="16.59" y1="16.06" x2="16.59" y2="14.07" xlink:href="#g"/><linearGradient id="ao" x1="17.59" y1="16.6" x2="17.59" y2="14.73" xlink:href="#g"/><linearGradient id="ap" x1="32.55" y1="17.45" x2="32.55" y2="15.65" xlink:href="#g"/><linearGradient id="aq" x1="27.45" y1="18.07" x2="27.45" y2="16.39" xlink:href="#g"/><linearGradient id="ar" x1="28.83" y1="18.01" x2="28.83" y2="16.3" xlink:href="#g"/><linearGradient id="as" x1="25.99" y1="18.08" x2="25.99" y2="16.42" xlink:href="#g"/><linearGradient id="at" x1="30.09" y1="17.89" x2="30.09" y2="16.15" xlink:href="#g"/><linearGradient id="au" x1="31.33" y1="17.7" x2="31.33" y2="15.94" xlink:href="#g"/><linearGradient id="av" x1="24.67" y1="4.5" x2="24.1" y2="13.26" xlink:href="#d"/><linearGradient id="aw" x1="24.3" y1="3.68" x2="24.3" y2="16.52" xlink:href="#d"/><linearGradient id="ax" x1="13.53" y1="12.33" x2="35.2" y2="12.33" xlink:href="#d"/><linearGradient id="ay" x1="20.2" y1="15.31" x2="20.2" y2="13.57" xlink:href="#g"/><linearGradient id="b`" x1="16.66" y1="14.47" x2="16.66" y2="12.65" xlink:href="#g"/><linearGradient id="ba" x1="18.98" y1="15.12" x2="18.98" y2="13.33" xlink:href="#g"/><linearGradient id="bb" x1="22.71" y1="15.53" x2="22.71" y2="13.85" xlink:href="#g"/><linearGradient id="bc" x1="21.44" y1="15.45" x2="21.44" y2="13.73" xlink:href="#g"/><linearGradient id="bd" x1="34.92" y1="12.91" x2="34.92" y2="10.4" xlink:href="#g"/><linearGradient id="be" x1="33.94" y1="13.65" x2="33.94" y2="11.68" xlink:href="#g"/><linearGradient id="bf" x1="17.77" y1="14.84" x2="17.77" y2="13.02" xlink:href="#g"/><linearGradient id="bg" x1="31.83" y1="14.6" x2="31.83" y2="12.74" xlink:href="#g"/><linearGradient id="bh" x1="32.94" y1="14.15" x2="32.94" y2="12.29" xlink:href="#g"/><linearGradient id="bi" x1="13.74" y1="12.66" x2="13.74" y2="10.33" xlink:href="#g"/><linearGradient id="bj" x1="14.65" y1="13.54" x2="14.65" y2="11.55" xlink:href="#g"/><linearGradient id="bk" x1="15.65" y1="14.08" x2="15.65" y2="12.21" xlink:href="#g"/><linearGradient id="bl" x1="30.61" y1="14.93" x2="30.61" y2="13.12" xlink:href="#g"/><linearGradient id="bm" x1="25.5" y1="15.55" x2="25.5" y2="13.87" xlink:href="#g"/><linearGradient id="bn" x1="26.89" y1="15.49" x2="26.89" y2="13.78" xlink:href="#g"/><linearGradient id="bo" x1="24.05" y1="15.56" x2="24.05" y2="13.9" xlink:href="#g"/><linearGradient id="bp" x1="28.15" y1="15.37" x2="28.15" y2="13.63" xlink:href="#g"/><linearGradient id="bq" x1="29.39" y1="15.18" x2="29.39" y2="13.42" xlink:href="#g"/><clipPath id="br"><path class="hk" d="M35.2,11.2v-1.87c.12-1.15-1.07-2.3-3.5-3.14-4.22-1.45-10.7-1.41-14.75,0-2.38,.83-3.55,2-3.4,3.16,0-.01,0-.03,0-.04h0v2c.04,.86,.81,1.79,2.39,2.52,3.9,1.8,11.12,2.06,15.83,.43,2.41-.84,3.53-1.96,3.45-3.06h0Z"/></clipPath><radialGradient id="bs" cx="499.95" cy="-2401.54" fx="499.95" fy="-2401.54" r="4.92" gradientTransform="translate(701.56 2368.37) rotate(-27.94)" gradientUnits="userSpaceOnUse"><stop offset="0" stop-color="#fff"/><stop offset=".05" stop-color="#efb44c"/><stop offset=".09" stop-color="#ba872a"/><stop offset=".14" stop-color="#9a6c16"/><stop offset=".22" stop-color="#7a5002"/><stop offset=".35" stop-color="#5f4003"/><stop offset=".51" stop-color="#2f2204"/><stop offset=".62" stop-color="#160f02"/><stop offset=".72" stop-color="#0c0801"/><stop offset=".88" stop-color="#030200"/><stop offset="1" stop-color="#000"/></radialGradient><radialGradient id="bt" cx="9433.77" cy="37441.85" fx="9433.77" fy="37441.85" r="2.98" gradientTransform="translate(9618.85 -2385.12) rotate(148.4) scale(1 .08)" gradientUnits="userSpaceOnUse"><stop offset="0" stop-color="#fff"/><stop offset=".06" stop-color="#fa0"/><stop offset=".26" stop-color="#8e5f00"/><stop offset=".39" stop-color="#704b00"/><stop offset=".53" stop-color="#503600"/><stop offset=".62" stop-color="#3d2900"/><stop offset=".74" stop-color="#231700"/><stop offset=".85" stop-color="#120c00"/><stop offset="1" stop-color="#000"/></radialGradient><radialGradient id="bu" cx="8790.34" cy="-11206.88" fx="8790.34" fy="-11206.88" r="2.97" gradientTransform="translate(12371.03 2009.76) rotate(-166.6) scale(1.42 .08)" xlink:href="#bt"/><radialGradient id="bv" cx="7319.43" cy="-37972.67" fx="7319.43" fy="-37972.67" r="2.55" gradientTransform="translate(9051.22 6658.14) rotate(-121.6) scale(1.42 .11)" xlink:href="#bt"/><linearGradient id="bw" x1="25.56" y1="2.16" x2="24.98" y2="10.92" xlink:href="#d"/><linearGradient id="bx" x1="25.18" y1="1.34" x2="25.18" y2="14.18" xlink:href="#d"/><linearGradient id="by" x1="14.41" y1="9.99" x2="36.09" y2="9.99" xlink:href="#d"/><linearGradient id="c`" x1="21.08" y1="12.97" x2="21.08" y2="11.23" xlink:href="#g"/><linearGradient id="ca" x1="17.54" y1="12.13" x2="17.54" y2="10.31" xlink:href="#g"/><linearGradient id="cb" x1="19.87" y1="12.78" x2="19.87" y2="11" xlink:href="#g"/><linearGradient id="cc" x1="23.59" y1="13.19" x2="23.59" y2="11.51" xlink:href="#g"/><linearGradient id="cd" x1="22.32" y1="13.11" x2="22.32" y2="11.39" xlink:href="#g"/><linearGradient id="ce" x1="35.81" y1="10.57" x2="35.81" y2="8.06" xlink:href="#g"/><linearGradient id="cf" x1="34.82" y1="11.31" x2="34.82" y2="9.34" xlink:href="#g"/><linearGradient id="cg" x1="18.65" y1="12.5" x2="18.65" y2="10.68" xlink:href="#g"/><linearGradient id="ch" x1="32.71" y1="12.26" x2="32.71" y2="10.4" xlink:href="#g"/><linearGradient id="ci" x1="33.82" y1="11.81" x2="33.82" y2="9.95" xlink:href="#g"/><linearGradient id="cj" x1="14.62" y1="10.32" x2="14.62" y2="7.99" xlink:href="#g"/><linearGradient id="ck" x1="15.53" y1="11.2" x2="15.53" y2="9.21" xlink:href="#g"/><linearGradient id="cl" x1="16.53" y1="11.74" x2="16.53" y2="9.87" xlink:href="#g"/><linearGradient id="cm" x1="31.49" y1="12.59" x2="31.49" y2="10.79" xlink:href="#g"/><linearGradient id="cn" x1="26.39" y1="13.21" x2="26.39" y2="11.53" xlink:href="#g"/><linearGradient id="co" x1="27.77" y1="13.15" x2="27.77" y2="11.44" xlink:href="#g"/><linearGradient id="cp" x1="24.93" y1="13.22" x2="24.93" y2="11.56" xlink:href="#g"/><linearGradient id="cq" x1="29.03" y1="13.03" x2="29.03" y2="11.29" xlink:href="#g"/><linearGradient id="cr" x1="30.27" y1="12.85" x2="30.27" y2="11.08" xlink:href="#g"/><linearGradient id="cs" x1="23.67" y1="-.61" x2="23.09" y2="8.14" xlink:href="#d"/><linearGradient id="ct" x1="23.29" y1="-1.43" x2="23.29" y2="11.4" xlink:href="#d"/><linearGradient id="cu" x1="12.52" y1="7.21" x2="34.2" y2="7.21" xlink:href="#d"/><linearGradient id="cv" x1="19.19" y1="10.19" x2="19.19" y2="8.45" xlink:href="#g"/><linearGradient id="cw" x1="15.65" y1="9.36" x2="15.65" y2="7.54" xlink:href="#g"/><linearGradient id="cx" x1="17.98" y1="10" x2="17.98" y2="8.22" xlink:href="#g"/><linearGradient id="cy" x1="21.7" y1="10.41" x2="21.7" y2="8.73" xlink:href="#g"/><linearGradient id="d`" x1="20.43" y1="10.33" x2="20.43" y2="8.62" xlink:href="#g"/><linearGradient id="da" x1="33.92" y1="7.79" x2="33.92" y2="5.29" xlink:href="#g"/><linearGradient id="db" x1="32.93" y1="8.53" x2="32.93" y2="6.57" xlink:href="#g"/><linearGradient id="dc" x1="16.76" y1="9.73" x2="16.76" y2="7.9" xlink:href="#g"/><linearGradient id="dd" x1="30.82" y1="9.48" x2="30.82" y2="7.62" xlink:href="#g"/><linearGradient id="de" x1="31.93" y1="9.03" x2="31.93" y2="7.17" xlink:href="#g"/><linearGradient id="df" x1="12.73" y1="7.55" x2="12.73" y2="5.21" xlink:href="#g"/><linearGradient id="dg" x1="13.64" y1="8.43" x2="13.64" y2="6.44" xlink:href="#g"/><linearGradient id="dh" x1="14.65" y1="8.97" x2="14.65" y2="7.09" xlink:href="#g"/><linearGradient id="di" x1="29.6" y1="9.82" x2="29.6" y2="8.01" xlink:href="#g"/><linearGradient id="dj" x1="24.5" y1="10.43" x2="24.5" y2="8.76" xlink:href="#g"/><linearGradient id="dk" x1="25.88" y1="10.37" x2="25.88" y2="8.67" xlink:href="#g"/><linearGradient id="dl" x1="23.04" y1="10.44" x2="23.04" y2="8.79" xlink:href="#g"/><linearGradient id="dm" x1="27.14" y1="10.25" x2="27.14" y2="8.52" xlink:href="#g"/><linearGradient id="dn" x1="28.39" y1="10.07" x2="28.39" y2="8.3" xlink:href="#g"/><clipPath id="do"><path class="hk" d="M34.19,6.08v-1.87c.13-1.15-1.07-2.3-3.5-3.14-4.22-1.45-10.7-1.41-14.75,0-2.38,.83-3.55,2-3.4,3.16,0-.01,0-.03,0-.04h0v2c.04,.86,.81,1.79,2.39,2.52,3.9,1.8,11.12,2.06,15.83,.43,2.41-.84,3.53-1.95,3.45-3.06h0Z"/></clipPath><radialGradient id="dp" cx="501.46" cy="-2406.54" fx="501.46" fy="-2406.54" r="4.92" xlink:href="#bs"/><radialGradient id="dq" cx="9431.95" cy="37503.05" fx="9431.95" fy="37503.05" r="2.98" xlink:href="#bt"/><radialGradient id="dr" cx="8791.86" cy="-11149.12" fx="8791.86" fy="-11149.12" r="2.97" gradientTransform="translate(12371.03 2009.76) rotate(-166.6) scale(1.42 .08)" xlink:href="#bt"/><radialGradient id="ds" cx="7322.87" cy="-37956.25" fx="7322.87" fy="-37956.25" r="2.55" gradientTransform="translate(9051.22 6658.14) rotate(-121.6) scale(1.42 .11)" xlink:href="#bt"/><linearGradient id="dt" x1="37.15" y1="11.78" x2="37.11" y2="11.82" gradientTransform="matrix(1, 0, 0, 1, 0, 0)" gradientUnits="userSpaceOnUse"><stop offset="0" stop-color="#ffdf9e"/><stop offset="1" stop-color="#a1a1a1"/></linearGradient><linearGradient id="du" x1="37.16" y1="11.74" x2="37.12" y2="11.78" xlink:href="#dt"/><linearGradient id="dv" x1="24.83" y1="13.01" x2="18.83" y2="18.61" gradientTransform="matrix(1, 0, 0, 1, 0, 0)" gradientUnits="userSpaceOnUse"><stop offset="0" stop-color="#fff"/><stop offset="1" stop-color="#7a3300"/></linearGradient><linearGradient id="dw" x1="37.14" y1="11.83" x2="37.12" y2="11.85" xlink:href="#dt"/><linearGradient id="dx" x1="13.87" y1="14.21" x2="13.84" y2="14.24" xlink:href="#dt"/><linearGradient id="dy" x1="37.17" y1="11.69" x2="37.12" y2="11.73" xlink:href="#dt"/><linearGradient id="e`" x1="37.14" y1="11.82" x2="37.13" y2="11.83" xlink:href="#dt"/><linearGradient id="ea" x1="37.17" y1="11.64" x2="37.12" y2="11.69" xlink:href="#dt"/><linearGradient id="eb" x1="12.55" y1="4.21" x2="12.52" y2="4.24" xlink:href="#dt"/><linearGradient id="ec" x1="13.55" y1="9.33" x2="13.53" y2="9.36" xlink:href="#dt"/><linearGradient id="ed" x1="37.17" y1="11.54" x2="37.16" y2="11.55" xlink:href="#dt"/><linearGradient id="ee" x1="37.18" y1="11.58" x2="37.13" y2="11.63" xlink:href="#dt"/><linearGradient id="ef" x1="37.18" y1="11.55" x2="37.15" y2="11.57" xlink:href="#dt"/><linearGradient id="eg" x1="11.69" y1="11.51" x2="11.11" y2="20.27" xlink:href="#d"/><linearGradient id="eh" x1="11.31" y1="10.69" x2="11.31" y2="23.53" xlink:href="#d"/><linearGradient id="ei" x1=".54" y1="19.34" x2="22.22" y2="19.34" xlink:href="#d"/><linearGradient id="ej" x1="7.22" y1="22.32" x2="7.22" y2="20.58" xlink:href="#g"/><linearGradient id="ek" x1="3.67" y1="21.48" x2="3.67" y2="19.66" xlink:href="#g"/><linearGradient id="el" x1="6" y1="22.13" x2="6" y2="20.35" xlink:href="#g"/><linearGradient id="em" x1="9.72" y1="22.54" x2="9.72" y2="20.86" xlink:href="#g"/><linearGradient id="en" x1="8.46" y1="22.46" x2="8.46" y2="20.74" xlink:href="#g"/><linearGradient id="eo" x1="21.94" y1="19.92" x2="21.94" y2="17.41" xlink:href="#g"/><linearGradient id="ep" x1="20.96" y1="20.66" x2="20.96" y2="18.69" xlink:href="#g"/><linearGradient id="eq" x1="4.78" y1="21.85" x2="4.78" y2="20.03" xlink:href="#g"/><linearGradient id="er" x1="18.84" y1="21.61" x2="18.84" y2="19.75" xlink:href="#g"/><linearGradient id="es" x1="19.95" y1="21.16" x2="19.95" y2="19.3" xlink:href="#g"/><linearGradient id="et" x1=".75" y1="19.67" x2=".75" y2="17.34" xlink:href="#g"/><linearGradient id="eu" x1="1.67" y1="20.55" x2="1.67" y2="18.56" xlink:href="#g"/><linearGradient id="ev" x1="2.67" y1="21.09" x2="2.67" y2="19.22" xlink:href="#g"/><linearGradient id="ew" x1="17.63" y1="21.95" x2="17.63" y2="20.14" xlink:href="#g"/><linearGradient id="ex" x1="12.52" y1="22.56" x2="12.52" y2="20.88" xlink:href="#g"/><linearGradient id="ey" x1="13.9" y1="22.5" x2="13.9" y2="20.79" xlink:href="#g"/><linearGradient id="f`" x1="11.06" y1="22.57" x2="11.06" y2="20.91" xlink:href="#g"/><linearGradient id="fa" x1="15.17" y1="22.38" x2="15.17" y2="20.64" xlink:href="#g"/><linearGradient id="fb" x1="16.41" y1="22.2" x2="16.41" y2="20.43" xlink:href="#g"/><clipPath id="fc"><path class="hk" d="M22.21,18.21v-1.87c.12-1.15-1.07-2.3-3.5-3.14-4.22-1.45-10.7-1.41-14.75,0-2.38,.83-3.55,2-3.4,3.16,0-.01,0-.03,0-.04h0v1.99c.04,.86,.81,1.79,2.39,2.52,3.9,1.8,11.12,2.06,15.83,.43,2.41-.84,3.54-1.95,3.45-3.06h0Z"/></clipPath><radialGradient id="fd" cx="485.2" cy="-2401.43" fx="485.2" fy="-2401.43" r="4.92" xlink:href="#bs"/><radialGradient id="fe" cx="9448.5" cy="37452.27" fx="9448.5" fy="37452.27" r="2.98" xlink:href="#bt"/><radialGradient id="ff" cx="8798.1" cy="-11326.61" fx="8798.1" fy="-11326.61" r="2.97" gradientTransform="translate(12371.03 2009.76) rotate(-166.6) scale(1.42 .08)" xlink:href="#bt"/><radialGradient id="fg" cx="7320.01" cy="-38105.48" fx="7320.01" fy="-38105.48" r="2.55" gradientTransform="translate(9051.22 6658.14) rotate(-121.6) scale(1.42 .11)" xlink:href="#bt"/><clipPath id="fh"><polygon class="hk" points="36.94 10.69 17.51 10.69 11.42 16.76 27.34 32.62 43.2 16.76 36.94 10.69"/></clipPath><linearGradient id="fi" x1="11.42" y1="21.66" x2="43.2" y2="21.66" gradientTransform="matrix(1, 0, 0, 1, 0, 0)" gradientUnits="userSpaceOnUse"><stop offset="0" stop-color="#899596"/><stop offset="1" stop-color="#fff"/></linearGradient><linearGradient id="fj" x1="27.34" y1="24.69" x2="43.2" y2="24.69" gradientTransform="matrix(1, 0, 0, 1, 0, 0)" gradientUnits="userSpaceOnUse"><stop offset="0" stop-color="#182d2e"/><stop offset="1" stop-color="#5d7089"/></linearGradient><linearGradient id="fk" x1="34.14" y1="11.06" x2="34.24" y2="16.78" gradientTransform="matrix(1, 0, 0, 1, 0, 0)" gradientUnits="userSpaceOnUse"><stop offset="0" stop-color="#abb4bd"/><stop offset="1" stop-color="#fff"/></linearGradient><linearGradient id="fl" x1="26.28" y1="23.54" x2="32.86" y2="25.05" gradientTransform="matrix(1, 0, 0, 1, 0, 0)" gradientUnits="userSpaceOnUse"><stop offset="0" stop-color="#485d6f"/><stop offset=".14" stop-color="#687e8d"/><stop offset=".3" stop-color="#8096a3"/><stop offset=".7" stop-color="#a3bac3"/><stop offset="1" stop-color="#b1c9d0"/></linearGradient><linearGradient id="fm" x1="31.28" y1="16.66" x2="26.86" y2="31.55" gradientTransform="matrix(1, 0, 0, 1, 0, 0)" gradientUnits="userSpaceOnUse"><stop offset="0" stop-color="#a8acbe"/><stop offset=".25" stop-color="#b9bccc"/><stop offset=".38" stop-color="#cccddb"/><stop offset="1" stop-color="#faf7ff"/></linearGradient><linearGradient id="fn" x1="27.29" y1="32.11" x2="15.1" y2="16.39" gradientTransform="matrix(1, 0, 0, 1, 0, 0)" gradientUnits="userSpaceOnUse"><stop offset="0" stop-color="#c2ebed"/><stop offset=".28" stop-color="#b7dce0"/><stop offset=".55" stop-color="#abccd2"/><stop offset=".8" stop-color="#9ab5bd"/><stop offset="1" stop-color="#7a8996"/></linearGradient><linearGradient id="fo" x1="28.03" y1="24.64" x2="20.92" y2="24.53" gradientTransform="matrix(1, 0, 0, 1, 0, 0)" gradientUnits="userSpaceOnUse"><stop offset="0" stop-color="#c2ebed"/><stop offset="1" stop-color="#7a8996"/></linearGradient><linearGradient id="fp" x1="24.69" y1="30.59" x2="23.29" y2="16.4" gradientTransform="matrix(1, 0, 0, 1, 0, 0)" gradientUnits="userSpaceOnUse"><stop offset="0" stop-color="#faf7ff"/><stop offset=".31" stop-color="#eeecf5"/><stop offset=".65" stop-color="#d5d7e0"/><stop offset=".77" stop-color="#c9ccd6"/><stop offset="1" stop-color="#a7b0ba"/></linearGradient><linearGradient id="fq" x1="20.35" y1="13.16" x2="27.05" y2="17.39" gradientTransform="matrix(1, 0, 0, 1, 0, 0)" gradientUnits="userSpaceOnUse"><stop offset="0" stop-color="#fff"/><stop offset="1" stop-color="#d9dde1"/></linearGradient><linearGradient id="fr" x1="20.37" y1="9.15" x2="20.47" y2="15.85" gradientTransform="matrix(1, 0, 0, 1, 0, 0)" gradientUnits="userSpaceOnUse"><stop offset="0" stop-color="#fff"/><stop offset="1" stop-color="#899596"/></linearGradient><linearGradient id="fs" y1="13.73" x2="19.36" y2="13.73" xlink:href="#fi"/><radialGradient id="ft" cx="5006.82" cy="2111.09" fx="5006.82" fy="2111.09" r="6.57" gradientTransform="translate(5373.85 -2042.59) rotate(89.43) scale(.4 2.54)" gradientUnits="userSpaceOnUse"><stop offset="0" stop-color="#fff"/><stop offset=".06" stop-color="#a1c2e3"/><stop offset=".15" stop-color="#5c697a"/><stop offset=".23" stop-color="#49505c"/><stop offset=".37" stop-color="#363840"/><stop offset=".56" stop-color="#131312"/><stop offset=".65" stop-color="#0d0c09"/><stop offset=".8" stop-color="#060503"/><stop offset="1" stop-color="#000"/></radialGradient><radialGradient id="fu" cx="4583.56" cy="-5082.41" fx="4583.56" fy="-5082.41" r="10.85" gradientTransform="translate(4548.11 5156.15) rotate(-83.38)" gradientUnits="userSpaceOnUse"><stop offset="0" stop-color="#fff"/><stop offset=".06" stop-color="#bfb496"/><stop offset=".16" stop-color="#81775d"/><stop offset=".24" stop-color="#665c44"/><stop offset=".37" stop-color="#3f3621"/><stop offset=".52" stop-color="#1e190f"/><stop offset=".66" stop-color="#100d08"/><stop offset=".8" stop-color="#070603"/><stop offset=".92" stop-color="#000"/></radialGradient><radialGradient id="fv" cx="125.2" cy="1428.9" fx="125.2" fy="1428.9" r="5.99" gradientTransform="translate(311.82 -1389.26) rotate(16.43)" gradientUnits="userSpaceOnUse"><stop offset="0" stop-color="#fff"/><stop offset=".1" stop-color="#8caaa3"/><stop offset=".24" stop-color="#4f605c"/><stop offset=".36" stop-color="#27302e"/><stop offset=".48" stop-color="#101313"/><stop offset=".66" stop-color="#070808"/><stop offset=".81" stop-color="#060707"/><stop offset="1" stop-color="#000"/></radialGradient><radialGradient id="fw" cx="5192.4" cy="67697.37" fx="5192.4" fy="67697.37" r="6.57" gradientTransform="translate(5691.55 -4885.09) rotate(92.96) scale(1 .08)" gradientUnits="userSpaceOnUse"><stop offset="0" stop-color="#fff"/><stop offset=".06" stop-color="#8caaa3"/><stop offset=".26" stop-color="#4f605c"/><stop offset=".43" stop-color="#27302e"/><stop offset=".6" stop-color="#101313"/><stop offset=".75" stop-color="#070808"/><stop offset=".81" stop-color="#060707"/><stop offset="1" stop-color="#000"/></radialGradient><radialGradient id="fx" cx="7875.36" cy="46190.76" fx="7875.36" fy="46190.76" r="6.57" gradientTransform="translate(10872.87 -4658.27) rotate(137.96) scale(1.42 .08)" xlink:href="#fw"/><radialGradient id="fy" cx="9020.42" cy="313.89" fx="9020.42" fy="313.89" r="5.62" gradientTransform="translate(12816.69 712.75) rotate(-177.04) scale(1.42 .11)" xlink:href="#fw"/><radialGradient id="g`" cx="551.88" cy="1085.92" fx="551.88" fy="1085.92" r="6.57" gradientTransform="translate(2261.23 -2836) rotate(44.56) scale(.76 3.31)" gradientUnits="userSpaceOnUse"><stop offset="0" stop-color="#fff"/><stop offset=".06" stop-color="#a1c2e3"/><stop offset=".15" stop-color="#5c697a"/><stop offset=".21" stop-color="#3d444d"/><stop offset=".29" stop-color="#2a2d31"/><stop offset=".45" stop-color="#161617"/><stop offset=".54" stop-color="#101010"/><stop offset=".65" stop-color="#0a0a09"/><stop offset=".79" stop-color="#040403"/><stop offset="1" stop-color="#000"/></radialGradient><radialGradient id="ga" cx="8821.41" cy="433.44" fx="8821.41" fy="433.44" r="1.75" gradientTransform="translate(10379.66 -4609) rotate(134.86) scale(1.2 9.41) skewX(-.06)" xlink:href="#g`"/><radialGradient id="gb" cx="7250.03" cy="673.62" fx="7250.03" fy="673.62" r="2.02" gradientTransform="translate(14002.12 -10148.54) rotate(129.56) scale(2.31 6.37)" gradientUnits="userSpaceOnUse"><stop offset="0" stop-color="#fff"/><stop offset=".06" stop-color="#a1c2e3"/><stop offset=".15" stop-color="#5e6a7c"/><stop offset=".27" stop-color="#474d59"/><stop offset=".39" stop-color="#363840"/><stop offset=".85" stop-color="#120c00"/><stop offset="1" stop-color="#000"/></radialGradient><radialGradient id="gc" cx="4629.63" cy="2113.24" fx="4629.63" fy="2113.24" r="6.57" gradientTransform="translate(5381.38 -1289.73) rotate(89.43) scale(.27 2.54)" xlink:href="#ft"/><radialGradient id="gd" cx="8040.21" cy="-236.87" fx="8040.21" fy="-236.87" r="1.09" gradientTransform="translate(17801.67 5720.16) rotate(-155.97) scale(2.31 8.6) skewX(-.02)" xlink:href="#g`"/><radialGradient id="ge" cx="10265.1" cy="-618.83" fx="10265.1" fy="-618.83" r="4.24" gradientTransform="translate(10169.25 1638.07) rotate(-167.48)" xlink:href="#fu"/><radialGradient id="gf" cx="3555.2" cy="-4931" fx="3555.2" fy="-4931" r="2.34" gradientTransform="translate(3223.74 5178.56) rotate(-67.67)" xlink:href="#fw"/><radialGradient id="gg" cx="-198.66" cy="7354.93" fx="-198.66" fy="7354.93" r="2.57" gradientTransform="translate(299.8 -532.17) rotate(8.86) scale(1 .08)" xlink:href="#fw"/><radialGradient id="gh" cx="2793.86" cy="51026.53" fx="2793.86" fy="51026.53" r="2.57" gradientTransform="translate(1056.94 -5661.78) rotate(53.86) scale(1.42 .08)" xlink:href="#fw"/><radialGradient id="gi" cx="5628.66" cy="48869.05" fx="5628.66" fy="48869.05" r="2.2" gradientTransform="translate(6600.27 -7043.94) rotate(98.86) scale(1.42 .11)" xlink:href="#fw"/></defs><g class="o`"><g id="a"/><g id="b"><g id="c"><g><g><g><g><path class="gk" d="M32.02,11.07c4.58,1.58,4.76,4.29,.05,5.92-4.7,1.63-11.93,1.38-15.83-.43-3.6-1.67-3.03-4.07,1.02-5.48,4.06-1.41,10.54-1.46,14.75,0Zm-.48,5.71c4.38-1.52,4.24-4.06-.01-5.54-3.94-1.37-10.05-1.33-13.86,0-3.81,1.33-4.33,3.59-.93,5.15,3.66,1.68,10.42,1.91,14.8,.39Z"/><path class="gj" d="M31.52,11.25c4.25,1.48,4.4,4.01,.01,5.54-4.38,1.52-11.14,1.29-14.8-.39-3.39-1.56-2.88-3.82,.93-5.15,3.81-1.33,9.92-1.37,13.86,0Z"/><path class="hq" d="M30.05,15.63l-.39,.13-.84-.33c-.07,.03-.15,.06-.23,.09-.2,.07-.42,.14-.64,.19l.86,.35-.39,.13-.89-.36c-.87,.22-1.68,.36-1.93,.44-.19,.07-.15,.15,0,.29l-.18,.06-3.04-1.19,.21-.07c1.29,.21,3.02,.38,4.41,.27l-2.86-1.16c-1.67,.28-3.22,.32-4.79-.34-1.07-.45-1.35-1.13-.23-1.7l-.92-.37,.35-.12,.88,.35c.09-.03,.18-.07,.28-.11,.18-.06,.35-.11,.52-.16l-.91-.36,.35-.12,.95,.38c.66-.15,1.19-.22,1.46-.31,.19-.07,.17-.12,.1-.2l.13-.04,2.42,.86-.2,.07c-1.14-.14-2.4-.26-3.46-.19l2.41,.95c1.53-.26,3.26-.43,5.03,.24,1.63,.62,1.85,1.38,.63,2l.88,.35Zm-1.16-.46c.44-.26,.56-.61-.19-.89-.64-.25-1.41-.27-2.47-.15l2.66,1.04Zm-.44,.19l.11-.04-2.84-1.13c-.33,.05-.69,.11-1.08,.18h-.01l2.93,1.19c.33-.04,.62-.11,.88-.2Zm-5.54-2.2l.13-.03-2.47-.98c-.28,.04-.54,.09-.77,.17-.05,.02-.1,.04-.13,.05l2.35,.95c.27-.05,.57-.1,.89-.17Zm-1.38,.24l-2.17-.88c-.42,.26-.41,.55,.11,.77,.56,.23,1.22,.23,2.06,.11Z"/><path class="hn" d="M29.67,15.65l-.39,.13-.84-.33c-.07,.04-.15,.06-.23,.09-.2,.07-.42,.14-.64,.19l.86,.35-.39,.13-.89-.36c-.87,.22-1.68,.36-1.93,.44-.19,.07-.15,.15,0,.29l-.18,.06-3.04-1.19,.21-.07c1.29,.21,3.02,.38,4.41,.27l-2.86-1.16c-1.67,.28-3.22,.32-4.79-.34-1.07-.45-1.35-1.13-.23-1.7l-.92-.37,.35-.12,.88,.35c.09-.03,.18-.07,.28-.1,.18-.06,.35-.11,.52-.16l-.91-.36,.35-.12,.95,.38c.66-.15,1.19-.22,1.46-.31,.19-.07,.17-.12,.1-.2l.13-.04,2.42,.86-.2,.07c-1.14-.14-2.4-.26-3.46-.19l2.41,.95c1.53-.26,3.26-.43,5.03,.24,1.63,.62,1.85,1.38,.63,2l.88,.35Zm-1.16-.46c.44-.26,.56-.61-.19-.89-.64-.25-1.41-.27-2.47-.15l2.66,1.04Zm-.44,.19l.11-.04-2.84-1.13c-.33,.05-.69,.11-1.08,.18h-.01l2.93,1.19c.33-.04,.62-.11,.88-.2Zm-5.54-2.2l.13-.03-2.47-.98c-.28,.04-.54,.09-.77,.17-.05,.02-.1,.04-.13,.05l2.35,.95c.27-.05,.57-.1,.89-.17Zm-1.38,.24l-2.17-.88c-.42,.26-.41,.55,.11,.77,.56,.23,1.22,.23,2.06,.11Z"/><g class="hs"><path class="hp" d="M24.64,17.91c-3.09,0-5.99-.52-7.96-1.42-1.54-.71-2.37-1.62-2.32-2.56,.05-1.09,1.21-2.08,3.27-2.8,1.88-.66,4.36-1.02,6.97-1.02s5.07,.36,6.97,1.02c2.14,.74,3.32,1.77,3.32,2.88,0,1.1-1.17,2.12-3.31,2.86-1.9,.66-4.36,1.02-6.93,1.02Zm-.05-7.57c-2.59,0-5.03,.36-6.89,1-1.94,.67-3.07,1.62-3.12,2.6-.04,.84,.74,1.68,2.2,2.35,1.93,.89,4.8,1.4,7.86,1.4,2.54,0,4.98-.36,6.86-1.01,2.01-.7,3.16-1.66,3.16-2.65,0-1-1.16-1.97-3.17-2.67-1.87-.65-4.32-1.01-6.89-1.01Z"/></g><g class="ms"><path class="hm" d="M24.45,17.94c-3.09,0-6-.52-7.96-1.42-1.54-.71-2.37-1.62-2.32-2.56,.05-1.09,1.21-2.08,3.27-2.8,1.88-.66,4.36-1.02,6.97-1.02s5.07,.36,6.96,1.02c2.14,.74,3.32,1.77,3.32,2.88s-1.17,2.12-3.31,2.86c-1.9,.66-4.36,1.02-6.93,1.02Zm-.05-7.57c-2.59,0-5.04,.36-6.89,1-1.94,.67-3.07,1.62-3.12,2.6-.04,.84,.74,1.68,2.2,2.35,1.93,.89,4.8,1.4,7.87,1.4,2.54,0,4.98-.36,6.86-1.01,2.01-.7,3.16-1.67,3.16-2.65s-1.16-1.97-3.17-2.67c-1.87-.65-4.32-1.01-6.89-1.01Z"/></g><path class="gl" d="M35.51,16.08h0c.09,1.11-1.04,2.22-3.45,3.06-4.71,1.63-11.93,1.37-15.83-.43-1.58-.73-2.35-1.66-2.39-2.52v-1.99h0c.09,.83,.87,1.67,2.38,2.37,3.9,1.8,11.12,2.06,15.83,.43,2.22-.77,3.35-1.78,3.45-2.8v1.89Z"/><g><path class="mh" d="M20.92,17.82c-.27-.04-.54-.08-.81-.13v2.15c.27,.05,.53,.09,.81,.13v-2.15Z"/><path class="mn" d="M16.68,18.9c.19,.08,.39,.15,.6,.23v-2.15c-.21-.07-.4-.15-.6-.23v2.15Z"/><path class="mo" d="M19.71,17.62c-.28-.05-.54-.11-.81-.18v2.15c.27,.06,.53,.12,.81,.18v-2.15Z"/><path class="mi" d="M23.46,18.05c-.29-.01-.57-.03-.86-.05v2.15c.28,.02,.57,.04,.86,.05v-2.15Z"/><path class="mj" d="M22.19,17.97c-.29-.03-.58-.06-.86-.09v2.15c.28,.03,.57,.06,.86,.09v-2.15Z"/><path class="mk" d="M34.96,15.33v2.15c.41-.45,.59-.92,.55-1.39h0v-1.89c-.04,.38-.22,.76-.55,1.13Z"/><path class="mm" d="M34.56,15.71c-.17,.14-.37,.28-.6,.42v2.15c.22-.14,.42-.28,.6-.42v-2.15Z"/><path class="ml" d="M18.49,17.34c-.28-.07-.55-.15-.81-.23v2.15c.26,.08,.53,.16,.81,.23v-2.15Z"/><path class="mg" d="M32.55,16.82c-.16,.06-.31,.12-.48,.18-.11,.04-.22,.07-.33,.1v2.15c.11-.03,.22-.07,.33-.1,.17-.06,.33-.12,.48-.18v-2.15Z"/><path class="mf" d="M32.96,18.8c.21-.09,.41-.19,.6-.29v-2.15c-.18,.1-.38,.19-.6,.28v2.15Z"/><path class="mc" d="M14.26,15.14c-.24-.31-.37-.63-.41-.95h0v1.99c.02,.35,.16,.71,.42,1.06v-2.11Z"/><path class="me" d="M15.27,16.03c-.23-.15-.42-.3-.6-.46v2.13c.17,.16,.37,.32,.6,.47v-2.14Z"/><path class="md" d="M16.27,16.58s-.02,0-.03-.01c-.2-.09-.39-.19-.56-.29v2.15c.18,.1,.36,.2,.56,.29,0,0,.02,0,.03,.01v-2.15Z"/><path class="mb" d="M31.33,17.23c-.26,.08-.53,.15-.81,.21v2.15c.28-.07,.55-.14,.81-.21v-2.15Z"/><path class="m`" d="M26.37,18.03c-.36,.02-.73,.04-1.09,.04v2.15c.36,0,.73-.02,1.09-.04v-2.15Z"/><path class="ma" d="M27.63,17.93c-.28,.03-.57,.06-.86,.08v2.15c.29-.02,.57-.05,.86-.08v-2.15Z"/><path class="mr" d="M24.87,18.08c-.34,0-.67,0-1.01-.01v2.15c.33,0,.67,.01,1.01,.01v-2.15Z"/><path class="mp" d="M28.9,17.76c-.28,.04-.57,.09-.86,.12v2.15c.29-.03,.57-.08,.86-.12v-2.15Z"/><path class="mq" d="M30.12,17.54c-.27,.06-.54,.11-.81,.16v2.15c.27-.05,.54-.1,.81-.16v-2.15Z"/></g></g><g><path class="go" d="M33.64,8.71c4.58,1.58,4.76,4.29,.05,5.92-4.7,1.63-11.93,1.38-15.83-.43-3.6-1.67-3.03-4.07,1.02-5.48,4.06-1.41,10.54-1.46,14.75,0Zm-.48,5.71c4.38-1.52,4.24-4.06-.01-5.54-3.94-1.37-10.05-1.33-13.86,0-3.81,1.33-4.33,3.59-.93,5.15,3.66,1.68,10.42,1.91,14.8,.39Z"/><path class="gm" d="M33.14,8.88c4.25,1.48,4.39,4.01,.01,5.54-4.38,1.52-11.14,1.29-14.8-.39-3.39-1.56-2.88-3.82,.93-5.15,3.81-1.33,9.92-1.37,13.86,0Z"/><path class="hq" d="M31.67,13.26l-.39,.13-.84-.33c-.07,.03-.15,.06-.23,.09-.2,.07-.42,.14-.64,.19l.86,.35-.39,.13-.89-.36c-.87,.22-1.68,.36-1.93,.44-.19,.07-.14,.15,0,.29l-.18,.06-3.04-1.19,.21-.07c1.29,.21,3.02,.38,4.41,.27l-2.86-1.16c-1.67,.28-3.22,.32-4.79-.34-1.07-.45-1.35-1.13-.23-1.7l-.92-.37,.35-.12,.87,.35c.09-.03,.18-.07,.28-.11,.18-.06,.35-.11,.52-.16l-.91-.36,.35-.12,.95,.38c.66-.15,1.18-.22,1.46-.31,.19-.07,.17-.12,.1-.2l.13-.04,2.42,.86-.19,.07c-1.14-.14-2.4-.26-3.46-.19l2.41,.95c1.53-.26,3.26-.43,5.03,.24,1.63,.62,1.85,1.38,.63,2l.88,.35Zm-1.16-.46c.44-.26,.56-.61-.19-.89-.64-.25-1.41-.27-2.47-.15l2.66,1.05Zm-.44,.19l.11-.04-2.84-1.13c-.33,.05-.69,.11-1.08,.18h-.01l2.93,1.19c.33-.04,.62-.11,.88-.2Zm-5.54-2.2l.13-.03-2.47-.98c-.28,.04-.54,.09-.77,.17-.05,.02-.1,.04-.13,.05l2.35,.95c.27-.05,.57-.1,.89-.17Zm-1.38,.24l-2.17-.88c-.42,.26-.41,.55,.11,.77,.56,.23,1.22,.23,2.06,.11Z"/><path class="hn" d="M31.29,13.29l-.39,.13-.84-.33c-.07,.04-.15,.06-.23,.09-.2,.07-.42,.14-.64,.19l.86,.35-.39,.13-.89-.36c-.87,.22-1.68,.36-1.93,.44-.19,.07-.14,.15,0,.29l-.18,.06-3.04-1.19,.21-.07c1.29,.21,3.02,.38,4.41,.27l-2.86-1.16c-1.67,.28-3.22,.32-4.79-.34-1.07-.46-1.35-1.13-.23-1.7l-.92-.37,.35-.12,.87,.35c.09-.03,.18-.07,.28-.11,.18-.06,.35-.11,.52-.16l-.91-.36,.35-.12,.95,.38c.66-.15,1.18-.22,1.46-.31,.19-.07,.17-.12,.1-.2l.13-.04,2.42,.86-.19,.07c-1.14-.14-2.4-.26-3.46-.19l2.41,.95c1.53-.26,3.26-.43,5.03,.24,1.64,.62,1.85,1.38,.63,2l.88,.35Zm-1.16-.46c.44-.26,.56-.61-.19-.89-.64-.25-1.41-.27-2.47-.15l2.66,1.04Zm-.44,.19l.11-.04-2.84-1.13c-.33,.05-.69,.11-1.08,.18h-.01l2.93,1.19c.33-.04,.62-.11,.88-.2Zm-5.54-2.2l.13-.03-2.47-.98c-.28,.04-.54,.09-.77,.17-.05,.02-.1,.04-.13,.05l2.35,.95c.27-.05,.57-.1,.89-.17Zm-1.38,.24l-2.17-.88c-.42,.26-.41,.55,.11,.77,.56,.23,1.22,.23,2.06,.11Z"/><g class="hs"><path class="hp" d="M26.26,15.54c-3.09,0-5.99-.52-7.96-1.42-1.54-.71-2.37-1.62-2.33-2.56,.05-1.09,1.21-2.08,3.27-2.8,1.88-.66,4.36-1.02,6.97-1.02s5.07,.36,6.96,1.02c2.14,.74,3.32,1.77,3.32,2.88,0,1.1-1.17,2.12-3.31,2.86-1.9,.66-4.36,1.02-6.93,1.02Zm-.05-7.57c-2.59,0-5.03,.36-6.89,1-1.94,.67-3.07,1.62-3.12,2.6-.04,.84,.74,1.68,2.2,2.35,1.93,.89,4.8,1.4,7.86,1.4,2.54,0,4.98-.36,6.86-1.01,2.01-.7,3.16-1.66,3.16-2.65,0-1-1.16-1.97-3.17-2.67-1.87-.65-4.32-1.01-6.89-1.01Z"/></g><g class="ms"><path class="hm" d="M26.07,15.57c-3.09,0-6-.52-7.96-1.42-1.54-.71-2.37-1.62-2.33-2.56,.05-1.09,1.21-2.08,3.27-2.8,1.88-.66,4.36-1.02,6.97-1.02s5.07,.36,6.96,1.02c2.14,.74,3.32,1.77,3.32,2.88s-1.17,2.12-3.31,2.86c-1.9,.66-4.36,1.02-6.93,1.02Zm-.05-7.57c-2.59,0-5.03,.36-6.89,1-1.94,.68-3.07,1.62-3.12,2.6-.04,.84,.74,1.68,2.2,2.35,1.93,.89,4.8,1.4,7.87,1.4,2.54,0,4.98-.36,6.86-1.01,2.01-.7,3.16-1.67,3.16-2.65s-1.16-1.97-3.17-2.67c-1.87-.65-4.32-1.01-6.89-1.01Z"/></g><path class="gn" d="M37.14,13.72h0c.09,1.11-1.04,2.22-3.45,3.06-4.71,1.63-11.93,1.37-15.83-.43-1.58-.73-2.35-1.66-2.39-2.52v-1.99h0c.09,.83,.87,1.67,2.38,2.37,3.9,1.8,11.12,2.06,15.83,.43,2.22-.77,3.35-1.78,3.45-2.8v1.89Z"/><g><path class="ig" d="M22.55,15.46c-.27-.04-.54-.08-.81-.13v2.15c.27,.05,.54,.09,.81,.13v-2.15Z"/><path class="kt" d="M18.3,16.53c.19,.08,.39,.16,.6,.23v-2.15c-.21-.07-.4-.15-.6-.23v2.15Z"/><path class="ko" d="M21.33,15.26c-.28-.05-.54-.11-.81-.18v2.15c.27,.06,.53,.12,.81,.18v-2.15Z"/><path class="kq" d="M25.08,15.68c-.29-.01-.57-.03-.86-.05v2.15c.28,.02,.57,.04,.86,.05v-2.15Z"/><path class="kw" d="M23.81,15.6c-.29-.03-.57-.06-.86-.09v2.15c.28,.03,.57,.06,.86,.09v-2.15Z"/><path class="kr" d="M36.59,12.96v2.15c.41-.45,.59-.92,.55-1.39h0v-1.89c-.04,.38-.22,.76-.55,1.13Z"/><path class="ks" d="M36.18,13.35c-.17,.14-.37,.28-.6,.42v2.15c.22-.14,.42-.28,.6-.42v-2.15Z"/><path class="kv" d="M20.11,14.98c-.28-.07-.55-.15-.81-.23v2.15c.26,.08,.53,.16,.81,.23v-2.15Z"/><path class="id" d="M34.17,14.45c-.15,.06-.31,.12-.48,.18-.11,.04-.22,.07-.33,.1v2.15c.11-.03,.22-.07,.33-.1,.17-.06,.33-.12,.48-.18v-2.15Z"/><path class="im" d="M34.58,16.43c.21-.09,.41-.19,.6-.29v-2.15c-.18,.1-.38,.19-.6,.28v2.15Z"/><path class="ih" d="M15.88,12.78c-.24-.31-.37-.63-.41-.95h0v1.99c.02,.35,.16,.71,.42,1.06v-2.11Z"/><path class="ik" d="M16.89,13.67c-.23-.15-.42-.3-.6-.46v2.13c.17,.16,.37,.32,.6,.47v-2.14Z"/><path class="ku" d="M17.89,14.21h-.03c-.2-.11-.39-.2-.56-.3v2.15c.18,.1,.36,.2,.56,.29h.03v-2.14Z"/><path class="kp" d="M32.96,14.86c-.26,.08-.53,.15-.81,.21v2.15c.28-.07,.55-.14,.81-.21v-2.15Z"/><path class="in" d="M27.99,15.66c-.36,.02-.73,.04-1.09,.04v2.15c.36,0,.73-.02,1.09-.04v-2.15Z"/><path class="il" d="M29.26,15.56c-.28,.03-.57,.06-.86,.08v2.15c.29-.02,.57-.05,.86-.08v-2.15Z"/><path class="io" d="M26.49,15.72c-.34,0-.67,0-1.01-.01v2.15c.33,0,.67,.01,1.01,.01v-2.15Z"/><path class="ii" d="M30.52,15.4c-.28,.04-.57,.09-.86,.12v2.15c.29-.04,.57-.08,.86-.12v-2.15Z"/><path class="ic" d="M31.74,15.17c-.27,.06-.54,.11-.81,.16v2.15c.27-.05,.54-.1,.81-.16v-2.15Z"/></g></g><g><path class="gr" d="M31.7,6.19c4.58,1.58,4.76,4.28,.05,5.92-4.7,1.63-11.93,1.38-15.83-.43-3.6-1.67-3.03-4.07,1.02-5.48,4.06-1.41,10.54-1.46,14.75,0Zm-.48,5.71c4.38-1.52,4.24-4.06-.01-5.54-3.94-1.37-10.04-1.33-13.86,0-3.81,1.33-4.33,3.59-.93,5.15,3.66,1.68,10.42,1.91,14.8,.39Z"/><path class="gq" d="M31.2,6.36c4.25,1.48,4.4,4.01,.01,5.54-4.38,1.52-11.14,1.29-14.8-.39-3.39-1.56-2.88-3.82,.93-5.15,3.81-1.33,9.92-1.37,13.86,0Z"/><path class="hq" d="M29.73,10.74l-.39,.13-.84-.33c-.07,.03-.15,.06-.23,.09-.2,.07-.42,.14-.64,.19l.86,.35-.39,.13-.89-.36c-.87,.22-1.68,.36-1.93,.44-.19,.07-.15,.15,0,.29l-.18,.06-3.04-1.19,.21-.07c1.29,.22,3.02,.38,4.41,.27l-2.86-1.16c-1.67,.28-3.22,.32-4.79-.34-1.07-.46-1.35-1.13-.23-1.7l-.92-.37,.35-.12,.88,.35c.09-.03,.18-.07,.28-.11,.18-.06,.35-.11,.52-.16l-.91-.36,.35-.12,.95,.38c.66-.15,1.18-.22,1.46-.31,.19-.07,.17-.12,.1-.2l.13-.04,2.42,.86-.19,.07c-1.14-.14-2.4-.26-3.46-.19l2.41,.95c1.53-.26,3.26-.43,5.03,.24,1.63,.62,1.85,1.38,.63,2l.88,.35Zm-1.16-.46c.44-.26,.56-.61-.19-.89-.64-.25-1.41-.27-2.47-.15l2.66,1.05Zm-.44,.19l.11-.04-2.84-1.13c-.33,.05-.69,.11-1.08,.18h-.01l2.93,1.19c.33-.04,.62-.11,.88-.2Zm-5.54-2.2l.13-.03-2.47-.98c-.28,.04-.54,.09-.77,.17-.05,.02-.1,.04-.13,.05l2.35,.95c.27-.05,.57-.1,.89-.17Zm-1.38,.24l-2.17-.88c-.42,.26-.41,.55,.11,.77,.56,.23,1.22,.23,2.06,.11Z"/><path class="hn" d="M29.35,10.77l-.39,.13-.84-.33c-.07,.03-.15,.06-.23,.09-.2,.07-.42,.14-.64,.19l.86,.35-.39,.13-.89-.36c-.87,.22-1.68,.36-1.93,.44-.19,.07-.15,.15,0,.29l-.18,.06-3.04-1.19,.21-.07c1.29,.21,3.02,.38,4.41,.27l-2.86-1.16c-1.67,.28-3.22,.32-4.79-.34-1.07-.45-1.35-1.13-.23-1.7l-.92-.37,.35-.12,.88,.35c.09-.03,.18-.07,.28-.11,.18-.06,.35-.11,.52-.16l-.91-.36,.35-.12,.95,.38c.66-.15,1.18-.22,1.46-.31,.19-.07,.17-.12,.1-.2l.13-.04,2.42,.86-.19,.07c-1.14-.14-2.4-.26-3.46-.19l2.41,.95c1.53-.26,3.26-.43,5.03,.24,1.63,.62,1.85,1.38,.63,2l.88,.35Zm-1.16-.46c.44-.26,.56-.61-.19-.89-.64-.25-1.41-.27-2.47-.15l2.66,1.04Zm-.44,.19l.11-.04-2.84-1.13c-.33,.05-.69,.11-1.08,.18h-.01l2.93,1.19c.33-.04,.62-.11,.88-.2Zm-5.54-2.2l.13-.03-2.47-.98c-.28,.04-.54,.09-.77,.17-.05,.02-.1,.04-.13,.05l2.35,.95c.27-.05,.57-.1,.89-.17Zm-1.38,.24l-2.17-.88c-.42,.26-.41,.55,.11,.77,.56,.23,1.22,.23,2.06,.11Z"/><g class="hs"><path class="hp" d="M24.32,13.02c-3.09,0-6-.52-7.96-1.42-1.54-.71-2.37-1.62-2.32-2.56,.05-1.09,1.21-2.08,3.27-2.8,1.88-.66,4.36-1.02,6.97-1.02s5.07,.36,6.96,1.02c2.14,.74,3.32,1.77,3.32,2.88s-1.17,2.12-3.31,2.86c-1.9,.66-4.36,1.02-6.93,1.02Zm-.05-7.57c-2.59,0-5.03,.36-6.89,1-1.94,.67-3.07,1.62-3.12,2.6-.04,.84,.74,1.68,2.2,2.35,1.93,.89,4.8,1.4,7.87,1.4,2.54,0,4.98-.36,6.86-1.01,2.01-.7,3.16-1.67,3.16-2.65s-1.16-1.97-3.17-2.67c-1.87-.65-4.32-1.01-6.89-1.01Z"/></g><g class="ms"><path class="hm" d="M24.13,13.05c-3.09,0-5.99-.52-7.96-1.42-1.54-.71-2.37-1.62-2.32-2.56,.05-1.09,1.21-2.08,3.27-2.8,1.88-.66,4.36-1.02,6.97-1.02s5.07,.36,6.96,1.02c2.14,.74,3.32,1.77,3.32,2.88,0,1.1-1.17,2.12-3.31,2.86-1.9,.66-4.36,1.02-6.93,1.02Zm-.05-7.57c-2.59,0-5.03,.36-6.89,1-1.94,.67-3.07,1.62-3.12,2.6-.04,.84,.74,1.68,2.2,2.35,1.93,.89,4.8,1.4,7.86,1.4,2.54,0,4.98-.36,6.86-1.01,2.01-.7,3.16-1.66,3.16-2.65,0-1-1.16-1.97-3.17-2.67-1.87-.65-4.32-1.01-6.89-1.01Z"/></g><path class="gp" d="M35.2,11.2h0c.09,1.11-1.04,2.22-3.45,3.06-4.71,1.63-11.93,1.37-15.83-.43-1.58-.73-2.35-1.66-2.39-2.52v-2h0c.09,.83,.87,1.67,2.38,2.37,3.9,1.8,11.12,2.06,15.83,.43,2.22-.77,3.35-1.78,3.45-2.8v1.89Z"/><g><path class="ij" d="M20.61,12.94c-.27-.04-.54-.08-.81-.13v2.15c.27,.05,.54,.09,.81,.13v-2.15Z"/><path class="jq" d="M16.36,14.01c.19,.08,.39,.15,.6,.23v-2.15c-.21-.07-.4-.15-.6-.23v2.15Z"/><path class="kn" d="M19.39,12.74c-.28-.05-.54-.11-.81-.18v2.15c.27,.06,.53,.12,.81,.18v-2.15Z"/><path class="kk" d="M23.14,13.16c-.29-.01-.57-.03-.86-.05v2.15c.28,.02,.57,.04,.86,.05v-2.15Z"/><path class="kl" d="M21.87,13.08c-.29-.03-.58-.06-.86-.09v2.15c.28,.03,.57,.06,.86,.09v-2.15Z"/><path class="kj" d="M34.65,10.44v2.14c.41-.45,.59-.92,.55-1.39h0v-1.89c-.04,.38-.22,.76-.55,1.13Z"/><path class="kf" d="M34.24,10.83c-.17,.14-.37,.28-.6,.42v2.15c.22-.14,.42-.28,.6-.42v-2.15Z"/><path class="kd" d="M18.17,12.46c-.28-.07-.55-.15-.81-.23v2.15c.26,.08,.53,.16,.81,.23v-2.15Z"/><path class="ke" d="M32.23,11.93c-.16,.06-.31,.12-.48,.18-.11,.04-.22,.07-.33,.1v2.15c.11-.03,.22-.06,.33-.1,.17-.06,.33-.12,.48-.18v-2.15Z"/><path class="km" d="M32.64,13.91c.21-.09,.41-.19,.6-.29v-2.15c-.18,.1-.38,.19-.6,.28v2.15Z"/><path class="ja" d="M13.94,10.26c-.24-.31-.37-.63-.41-.95h0v2c.02,.35,.16,.71,.42,1.06v-2.11Z"/><path class="jb" d="M14.95,11.15c-.23-.15-.42-.3-.6-.46v2.13c.17,.16,.37,.32,.6,.47v-2.14Z"/><path class="jc" d="M15.95,11.69s-.02,0-.03-.01c-.2-.09-.39-.19-.56-.29v2.15c.17,.1,.36,.2,.56,.29,0,0,.02,0,.03,.01v-2.15Z"/><path class="jd" d="M31.01,12.34c-.26,.08-.53,.15-.81,.21v2.15c.28-.07,.55-.14,.81-.21v-2.15Z"/><path class="kg" d="M26.05,13.14c-.36,.02-.73,.04-1.09,.04v2.15c.36,0,.73-.02,1.09-.04v-2.15Z"/><path class="kh" d="M27.31,13.04c-.28,.03-.57,.06-.86,.08v2.15c.29-.02,.57-.05,.86-.08v-2.15Z"/><path class="ki" d="M24.55,13.19c-.34,0-.67,0-1.01-.01v2.15c.33,.01,.67,.01,1.01,.01v-2.15Z"/><path class="j`" d="M28.58,12.87c-.28,.05-.57,.09-.86,.12v2.15c.29-.04,.57-.08,.86-.12v-2.15Z"/><path class="je" d="M29.8,12.65c-.27,.06-.54,.11-.81,.16v2.15c.27-.05,.54-.1,.81-.16v-2.15Z"/></g><g class="nw"><g><path class="mx" d="M22.25,10.02c1.27,2.4,.36,5.38-2.04,6.65-2.4,1.27-5.38,.36-6.65-2.04-1.27-2.4-.36-5.38,2.04-6.65,2.4-1.27,5.38-.36,6.65,2.04Z"/><g><path class="my" d="M15.57,13.69c-.07-.11,1.01-.9,2.41-1.76,1.4-.86,2.59-1.47,2.66-1.36,.07,.11-1.01,.9-2.41,1.76-1.4,.86-2.59,1.47-2.66,1.36Z"/><path class="na" d="M13.9,11.32c.03-.13,1.9,.2,4.17,.74,2.27,.54,4.08,1.09,4.05,1.22-.03,.13-1.9-.2-4.17-.74-2.27-.54-4.08-1.09-4.05-1.22Z"/><path class="n`" d="M15.98,9.15c.13-.08,1.09,1.23,2.14,2.93,1.05,1.7,1.79,3.15,1.65,3.23-.13,.08-1.09-1.23-2.14-2.93-1.05-1.7-1.79-3.15-1.65-3.23Z"/></g></g></g></g><g><path class="gw" d="M32.58,3.85c4.58,1.58,4.76,4.28,.05,5.92-4.7,1.63-11.93,1.38-15.83-.43-3.6-1.67-3.03-4.07,1.02-5.48,4.06-1.41,10.54-1.46,14.75,0Zm-.48,5.71c4.38-1.52,4.24-4.06-.01-5.54-3.94-1.37-10.05-1.33-13.86,0-3.81,1.33-4.33,3.59-.93,5.15,3.66,1.68,10.42,1.91,14.8,.39Z"/><path class="gx" d="M32.08,4.02c4.25,1.48,4.39,4.01,.01,5.54-4.38,1.52-11.14,1.29-14.8-.39-3.39-1.56-2.88-3.82,.93-5.15,3.81-1.33,9.92-1.37,13.86,0Z"/><path class="hq" d="M30.61,8.4l-.39,.13-.84-.33c-.07,.03-.15,.06-.23,.09-.2,.07-.42,.14-.64,.19l.86,.35-.39,.13-.89-.36c-.87,.22-1.68,.36-1.93,.44-.19,.07-.14,.15,0,.29l-.18,.06-3.04-1.19,.21-.07c1.29,.21,3.02,.38,4.41,.27l-2.86-1.16c-1.67,.28-3.22,.32-4.79-.34-1.07-.45-1.35-1.13-.23-1.7l-.92-.37,.35-.12,.87,.35c.09-.03,.18-.07,.28-.11,.18-.06,.35-.11,.52-.16l-.91-.36,.35-.12,.95,.38c.66-.15,1.18-.22,1.46-.31,.19-.07,.17-.12,.1-.2l.13-.04,2.42,.86-.19,.07c-1.14-.14-2.4-.26-3.46-.19l2.41,.95c1.53-.26,3.26-.43,5.03,.24,1.64,.62,1.85,1.38,.63,2l.88,.35Zm-1.16-.46c.44-.26,.56-.61-.19-.89-.64-.25-1.41-.27-2.47-.15l2.66,1.05Zm-.44,.19l.11-.04-2.84-1.13c-.33,.05-.69,.11-1.08,.18h-.01l2.93,1.19c.33-.04,.62-.11,.88-.2Zm-5.54-2.2l.13-.03-2.47-.98c-.28,.04-.54,.09-.77,.17-.05,.02-.1,.04-.13,.05l2.35,.95c.27-.05,.57-.1,.89-.17Zm-1.38,.24l-2.17-.88c-.42,.26-.41,.55,.11,.77,.56,.23,1.22,.23,2.06,.11Z"/><path class="hn" d="M30.23,8.43l-.39,.13-.84-.33c-.07,.03-.15,.06-.23,.09-.2,.07-.42,.14-.64,.19l.86,.35-.39,.13-.89-.36c-.87,.22-1.68,.36-1.93,.44-.19,.07-.14,.15,0,.29l-.18,.06-3.04-1.19,.21-.07c1.29,.21,3.02,.38,4.41,.27l-2.86-1.16c-1.67,.28-3.22,.32-4.79-.34-1.07-.45-1.35-1.13-.23-1.7l-.92-.37,.35-.12,.88,.35c.09-.03,.18-.07,.28-.11,.18-.06,.35-.11,.52-.16l-.91-.36,.35-.12,.95,.38c.66-.15,1.18-.22,1.46-.31,.19-.07,.17-.12,.1-.2l.13-.04,2.42,.86-.19,.07c-1.14-.14-2.4-.26-3.46-.19l2.41,.95c1.53-.26,3.26-.43,5.03,.24,1.63,.62,1.85,1.38,.63,2l.88,.35Zm-1.16-.46c.44-.26,.56-.61-.19-.89-.64-.25-1.41-.27-2.47-.15l2.66,1.05Zm-.44,.19l.11-.04-2.84-1.13c-.33,.05-.69,.11-1.08,.18h-.01l2.93,1.19c.33-.04,.62-.11,.88-.2Zm-5.54-2.2l.13-.03-2.47-.98c-.28,.04-.54,.09-.77,.17-.05,.02-.1,.04-.13,.05l2.35,.95c.27-.05,.57-.1,.89-.17Zm-1.38,.24l-2.17-.88c-.42,.26-.41,.55,.11,.77,.56,.23,1.22,.23,2.06,.11Z"/><g class="hs"><path class="hp" d="M25.2,10.68c-3.09,0-5.99-.52-7.96-1.42-1.54-.71-2.37-1.62-2.33-2.56,.05-1.09,1.21-2.08,3.27-2.8,1.88-.66,4.36-1.02,6.97-1.02s5.07,.36,6.96,1.02c2.14,.74,3.32,1.77,3.32,2.88,0,1.1-1.17,2.12-3.31,2.86-1.9,.66-4.36,1.02-6.93,1.02Zm-.05-7.57c-2.59,0-5.03,.36-6.89,1-1.94,.67-3.07,1.62-3.12,2.6-.04,.84,.74,1.68,2.2,2.35,1.93,.89,4.8,1.4,7.87,1.4,2.54,0,4.98-.36,6.86-1.01,2.01-.7,3.16-1.66,3.16-2.65,0-1-1.16-1.97-3.17-2.67-1.87-.65-4.32-1.01-6.89-1.01Z"/></g><g class="ms"><path class="hm" d="M25.01,10.71c-3.09,0-5.99-.52-7.96-1.42-1.54-.71-2.37-1.62-2.32-2.56,.05-1.09,1.21-2.08,3.27-2.8,1.88-.66,4.36-1.02,6.97-1.02s5.07,.36,6.96,1.02c2.14,.74,3.32,1.77,3.32,2.88,0,1.1-1.17,2.12-3.31,2.86-1.9,.66-4.36,1.02-6.93,1.02Zm-.05-7.57c-2.59,0-5.03,.36-6.89,1-1.94,.67-3.07,1.62-3.12,2.6-.04,.84,.74,1.68,2.2,2.35,1.93,.89,4.8,1.4,7.87,1.4,2.54,0,4.98-.36,6.86-1.01,2.01-.7,3.16-1.66,3.16-2.65,0-1-1.16-1.97-3.17-2.67-1.87-.65-4.32-1.01-6.89-1.01Z"/></g><path class="gv" d="M36.08,8.86h0c.09,1.11-1.04,2.22-3.45,3.06-4.71,1.63-11.93,1.37-15.83-.43-1.58-.73-2.35-1.66-2.39-2.52v-2h0c.09,.83,.87,1.67,2.38,2.37,3.9,1.8,11.12,2.06,15.83,.43,2.22-.77,3.35-1.78,3.45-2.8v1.89Z"/><g><path class="ht" d="M21.49,10.6c-.27-.04-.54-.08-.81-.13v2.15c.27,.05,.54,.09,.81,.13v-2.15Z"/><path class="hy" d="M17.24,11.67c.19,.08,.39,.16,.6,.23v-2.15c-.21-.07-.4-.15-.6-.23v2.15Z"/><path class="ie" d="M20.27,10.4c-.28-.05-.54-.11-.81-.18v2.15c.27,.06,.53,.12,.81,.18v-2.15Z"/><path class="if" d="M24.02,10.82c-.29-.01-.57-.03-.86-.05v2.15c.28,.02,.57,.04,.86,.05v-2.15Z"/><path class="ib" d="M22.75,10.74c-.29-.03-.57-.06-.86-.09v2.15c.28,.04,.57,.07,.86,.09v-2.15Z"/><path class="hx" d="M35.53,8.11v2.15c.41-.45,.59-.92,.55-1.39h0v-1.89c-.04,.38-.22,.76-.55,1.13Z"/><path class="hw" d="M35.12,8.49c-.17,.14-.37,.28-.6,.42v2.15c.22-.14,.42-.28,.6-.42v-2.15Z"/><path class="hu" d="M19.05,10.12c-.28-.07-.55-.15-.81-.23v2.15c.26,.08,.53,.16,.81,.23v-2.15Z"/><path class="jr" d="M33.11,9.59c-.15,.06-.31,.12-.48,.18-.11,.04-.22,.07-.33,.1v2.15c.11-.03,.22-.07,.33-.1,.17-.06,.33-.12,.48-.18v-2.15Z"/><path class="hv" d="M33.52,11.57c.21-.09,.41-.19,.6-.29v-2.15c-.18,.1-.38,.19-.6,.28v2.15Z"/><path class="ia" d="M14.83,7.92c-.24-.31-.37-.63-.41-.95h0v2c.02,.35,.16,.71,.42,1.06v-2.11Z"/><path class="i`" d="M15.83,8.81c-.23-.15-.42-.3-.6-.46v2.13c.17,.16,.37,.32,.6,.47v-2.14Z"/><path class="jv" d="M16.83,9.35h-.03c-.2-.11-.39-.2-.56-.3v2.15c.18,.1,.36,.2,.56,.29,.01,0,.02,0,.03,.01v-2.15Z"/><path class="ju" d="M31.9,10c-.26,.08-.53,.15-.81,.21v2.15c.28-.07,.55-.14,.81-.21v-2.15Z"/><path class="jt" d="M26.93,10.8c-.36,.02-.73,.04-1.09,.04v2.15c.36,0,.73-.02,1.09-.04v-2.15Z"/><path class="js" d="M28.2,10.7c-.28,.03-.57,.06-.86,.08v2.15c.29-.02,.57-.05,.86-.08v-2.15Z"/><path class="jy" d="M25.43,10.86c-.34,0-.67,0-1.01-.01v2.15c.33,0,.67,.01,1.01,.01v-2.15Z"/><path class="jx" d="M29.46,10.54c-.28,.04-.57,.09-.86,.12v2.15c.29-.04,.57-.08,.86-.12v-2.15Z"/><path class="jw" d="M30.68,10.31c-.27,.06-.54,.11-.81,.16v2.15c.27-.05,.54-.1,.81-.16v-2.15Z"/></g></g><g><path class="gs" d="M30.69,1.07c4.58,1.58,4.76,4.28,.05,5.92-4.7,1.63-11.93,1.38-15.83-.43-3.6-1.67-3.03-4.07,1.02-5.48,4.06-1.41,10.54-1.46,14.75,0Zm-.48,5.71c4.38-1.52,4.24-4.06-.01-5.54-3.94-1.37-10.05-1.33-13.86,0-3.81,1.33-4.33,3.59-.93,5.15,3.66,1.68,10.42,1.91,14.8,.39Z"/><path class="gt" d="M30.19,1.24c4.25,1.48,4.39,4.01,.01,5.54-4.38,1.52-11.14,1.29-14.8-.39-3.39-1.56-2.88-3.82,.93-5.15,3.81-1.33,9.92-1.37,13.86,0Z"/><path class="hq" d="M28.72,5.63l-.39,.13-.84-.33c-.07,.03-.15,.06-.23,.09-.2,.07-.42,.14-.64,.19l.86,.35-.39,.13-.89-.36c-.87,.22-1.68,.36-1.93,.44-.19,.07-.14,.15,0,.29l-.18,.06-3.04-1.19,.21-.07c1.29,.21,3.02,.38,4.41,.27l-2.86-1.16c-1.67,.28-3.22,.32-4.79-.34-1.07-.45-1.35-1.13-.23-1.7l-.92-.37,.35-.12,.87,.35c.09-.03,.18-.07,.28-.11,.18-.06,.35-.11,.52-.16l-.91-.36,.35-.12,.95,.38c.66-.15,1.18-.22,1.46-.31,.19-.07,.17-.12,.1-.2l.13-.04,2.42,.86-.19,.07c-1.14-.14-2.4-.26-3.46-.19l2.41,.95c1.53-.26,3.26-.43,5.03,.24,1.63,.62,1.85,1.38,.63,2l.88,.35Zm-1.16-.46c.44-.26,.56-.61-.19-.89-.64-.25-1.41-.27-2.47-.15l2.66,1.05Zm-.44,.19l.11-.04-2.84-1.13c-.33,.05-.69,.11-1.08,.18h-.01l2.93,1.19c.33-.04,.62-.11,.88-.2Zm-5.54-2.2l.13-.03-2.47-.98c-.28,.04-.54,.09-.77,.17-.05,.02-.1,.04-.13,.05l2.35,.95c.27-.05,.57-.1,.89-.17Zm-1.38,.24l-2.17-.88c-.42,.26-.41,.55,.11,.77,.56,.23,1.22,.23,2.06,.11Z"/><path class="hn" d="M28.34,5.65l-.39,.13-.84-.33c-.07,.03-.15,.06-.23,.09-.2,.07-.42,.14-.64,.19l.86,.35-.39,.13-.89-.36c-.87,.22-1.68,.36-1.93,.44-.19,.07-.14,.15,0,.29l-.18,.06-3.04-1.19,.21-.07c1.29,.21,3.02,.38,4.41,.27l-2.86-1.16c-1.67,.28-3.22,.32-4.79-.34-1.07-.46-1.35-1.13-.23-1.7l-.92-.37,.35-.12,.87,.35c.09-.03,.18-.07,.28-.11,.18-.06,.35-.11,.52-.16l-.91-.36,.35-.12,.95,.38c.66-.15,1.18-.22,1.46-.31,.19-.07,.17-.12,.1-.2l.13-.04,2.42,.86-.19,.07c-1.14-.14-2.4-.26-3.46-.19l2.41,.95c1.53-.26,3.26-.43,5.03,.24,1.64,.62,1.85,1.38,.63,2l.88,.35Zm-1.16-.46c.44-.26,.56-.61-.19-.89-.64-.25-1.41-.27-2.47-.15l2.66,1.05Zm-.44,.19l.11-.04-2.84-1.13c-.33,.05-.69,.11-1.08,.18h-.01l2.93,1.19c.33-.04,.62-.11,.88-.2Zm-5.54-2.2l.13-.03-2.47-.98c-.28,.04-.54,.09-.77,.17-.05,.02-.1,.04-.13,.05l2.35,.95c.27-.05,.57-.1,.89-.17Zm-1.38,.24l-2.17-.88c-.42,.26-.41,.55,.11,.77,.56,.23,1.22,.23,2.06,.11Z"/><g class="hs"><path class="hp" d="M23.31,7.91c-3.09,0-5.99-.52-7.96-1.42-1.54-.71-2.37-1.62-2.33-2.56,.05-1.09,1.21-2.08,3.27-2.8C18.18,.48,20.66,.12,23.27,.12s5.07,.36,6.96,1.02c2.14,.74,3.32,1.77,3.32,2.88,0,1.1-1.17,2.12-3.31,2.86-1.9,.66-4.36,1.02-6.93,1.02Zm-.05-7.57c-2.59,0-5.03,.36-6.89,1-1.94,.67-3.07,1.62-3.12,2.6-.04,.84,.74,1.68,2.2,2.35,1.93,.89,4.8,1.4,7.87,1.4,2.54,0,4.98-.36,6.86-1.01,2.01-.7,3.16-1.66,3.16-2.65,0-1-1.16-1.97-3.17-2.67-1.87-.65-4.32-1.01-6.89-1.01Z"/></g><g class="ms"><path class="hm" d="M23.12,7.93c-3.09,0-5.99-.52-7.96-1.42-1.54-.71-2.37-1.62-2.33-2.56,.05-1.09,1.21-2.08,3.27-2.8,1.88-.66,4.36-1.02,6.97-1.02s5.07,.36,6.96,1.02c2.14,.74,3.32,1.77,3.32,2.88s-1.17,2.12-3.31,2.86c-1.9,.66-4.36,1.02-6.93,1.02Zm-.05-7.57c-2.59,0-5.03,.36-6.89,1-1.94,.67-3.07,1.62-3.12,2.6-.04,.84,.74,1.68,2.2,2.35,1.93,.89,4.8,1.4,7.87,1.4,2.54,0,4.98-.36,6.86-1.01,2.01-.7,3.16-1.66,3.16-2.65s-1.16-1.97-3.17-2.67c-1.87-.65-4.32-1.01-6.89-1.01Z"/></g><path class="gu" d="M34.19,6.08h0c.09,1.11-1.04,2.22-3.45,3.06-4.71,1.63-11.93,1.37-15.83-.43-1.58-.73-2.35-1.66-2.39-2.52v-2h0c.09,.83,.87,1.67,2.38,2.37,3.9,1.8,11.12,2.06,15.83,.43,2.22-.77,3.35-1.78,3.45-2.8v1.89Z"/><g><path class="ka" d="M19.6,7.82c-.27-.04-.54-.08-.81-.13v2.15c.27,.05,.54,.09,.81,.13v-2.15Z"/><path class="k`" d="M15.35,8.9c.19,.08,.39,.16,.6,.23v-2.15c-.21-.07-.4-.15-.6-.23v2.15Z"/><path class="kc" d="M18.38,7.62c-.28-.05-.54-.11-.81-.18v2.15c.27,.06,.53,.12,.81,.18v-2.15Z"/><path class="kb" d="M22.13,8.05c-.29-.01-.57-.03-.86-.05v2.15c.28,.02,.57,.04,.86,.05v-2.15Z"/><path class="jh" d="M20.86,7.96c-.29-.03-.57-.06-.86-.09v2.15c.28,.03,.57,.06,.86,.09v-2.15Z"/><path class="iy" d="M33.64,5.33v2.14c.41-.45,.59-.92,.55-1.39h0v-1.89c-.04,.38-.22,.76-.55,1.13Z"/><path class="jf" d="M33.23,5.71c-.17,.14-.37,.28-.6,.42v2.15c.22-.14,.42-.28,.6-.42v-2.15Z"/><path class="jg" d="M17.16,7.34c-.28-.07-.55-.15-.81-.23v2.15c.26,.08,.53,.16,.81,.23v-2.15Z"/><path class="ji" d="M31.22,6.82c-.16,.06-.31,.12-.48,.18-.11,.04-.22,.07-.33,.1v2.15c.11-.03,.22-.07,.33-.1,.17-.06,.33-.12,.48-.18v-2.15Z"/><path class="jn" d="M31.63,8.8c.21-.09,.41-.19,.6-.29v-2.15c-.18,.1-.38,.19-.6,.28v2.15Z"/><path class="jj" d="M12.94,5.14c-.24-.31-.37-.63-.41-.95h0v2c.02,.35,.16,.71,.42,1.06v-2.11Z"/><path class="jk" d="M13.94,6.03c-.23-.15-.42-.3-.6-.46v2.13c.17,.16,.37,.32,.6,.47v-2.14Z"/><path class="jo" d="M14.94,6.58s-.02,0-.03-.01c-.2-.09-.39-.19-.56-.29v2.15c.18,.1,.36,.2,.56,.29,0,0,.02,0,.03,.01v-2.15Z"/><path class="iq" d="M30.01,7.22c-.26,.08-.53,.15-.81,.21v2.15c.28-.07,.55-.14,.81-.21v-2.15Z"/><path class="jp" d="M25.04,8.03c-.36,.02-.73,.04-1.09,.04v2.15c.36,0,.73-.02,1.09-.04v-2.15Z"/><path class="jm" d="M26.31,7.92c-.28,.03-.57,.06-.86,.08v2.15c.29-.02,.57-.05,.86-.08v-2.15Z"/><path class="ip" d="M23.54,8.08c-.34,0-.67,0-1.01-.01v2.15c.33,.01,.67,.01,1.01,.01v-2.15Z"/><path class="ir" d="M27.57,7.76c-.28,.04-.57,.09-.86,.12v2.15c.29-.04,.57-.08,.86-.12v-2.15Z"/><path class="jl" d="M28.79,7.53c-.27,.06-.54,.11-.81,.16v2.15c.27-.05,.54-.1,.81-.16v-2.15Z"/></g><g class="nv"><g><path class="mv" d="M21.24,4.91c1.27,2.4,.36,5.38-2.04,6.65-2.4,1.27-5.38,.36-6.65-2.04-1.27-2.4-.36-5.38,2.04-6.65,2.4-1.27,5.38-.36,6.65,2.04Z"/><g><path class="mt" d="M14.56,8.58c-.07-.11,1.01-.9,2.41-1.76,1.4-.86,2.59-1.47,2.66-1.36,.07,.11-1.01,.9-2.41,1.76-1.4,.86-2.59,1.47-2.66,1.36Z"/><path class="mu" d="M12.89,6.2c.03-.13,1.9,.2,4.17,.74,2.27,.54,4.08,1.09,4.05,1.22-.03,.13-1.9-.2-4.17-.74-2.27-.54-4.08-1.09-4.05-1.22Z"/><path class="mw" d="M14.97,4.03c.13-.08,1.09,1.23,2.14,2.93,1.05,1.7,1.79,3.15,1.65,3.23-.13,.08-1.09-1.23-2.13-2.93-1.05-1.7-1.79-3.15-1.66-3.23Z"/></g></g></g></g></g><path class="it" d="M37.14,11.81v0Z"/><path class="iv" d="M37.14,11.77v0Z"/><path class="is" d="M14.01,12.46c.1,.13,.22,.25,.33,.36-.12,.14-.23,.3-.31,.47-.14,.29-.21,.61-.17,.93,0,0,0,.02,0,.04,0-.01,0-.02,0-.04,0,0,0,0-.02,0v1.5c0,.76,.18,1.37,.75,1.93,1.41,1.39,3.68,1.91,5.56,2.23,2.3,.39,4.66,.47,6.98,.27,1.22-.1,2.46-.28,3.66-.59-4.8-4.57-11.03-7.64-17.25-8.1,.05,.37,.22,.72,.46,1.02Z"/><path class="iu" d="M37.14,11.85v0Z"/><path class="iw" d="M13.86,14.21s0,.02,0,.04c0-.02,0-.03,0-.04Z"/><path class="ix" d="M37.15,11.73v0Z"/><path class="ky" d="M37.14,11.83h0Z"/><path class="l`" d="M37.15,11.68v0Z"/><path class="le" d="M12.54,4.2s0,.02,0,.03c0-.02,0-.03,0-.03Z"/><path class="kx" d="M13.54,9.32s0,.02,0,.03c0-.02,0-.03,0-.03Z"/><path class="lp" d="M37.17,11.54s0,0,0,0h0Z"/><path class="lo" d="M37.16,11.62v0Z"/><path class="lq" d="M37.17,11.57v0Z"/><g><path class="hh" d="M18.71,13.2c4.58,1.58,4.76,4.29,.05,5.92-4.7,1.63-11.93,1.38-15.83-.43C-.66,17.02-.1,14.62,3.96,13.21c4.06-1.41,10.54-1.46,14.75,0Zm-.48,5.71c4.38-1.52,4.24-4.06-.01-5.54-3.94-1.37-10.05-1.33-13.86,0-3.81,1.33-4.33,3.59-.93,5.15,3.66,1.68,10.42,1.91,14.8,.39Z"/><path class="hj" d="M18.22,13.37c4.25,1.48,4.4,4.01,.01,5.54-4.38,1.52-11.14,1.29-14.8-.39-3.39-1.56-2.88-3.82,.93-5.15,3.81-1.33,9.92-1.37,13.86,0Z"/><path class="hq" d="M16.74,17.75l-.39,.13-.84-.33c-.07,.03-.15,.06-.23,.09-.2,.07-.42,.14-.64,.19l.86,.34-.39,.13-.89-.36c-.87,.22-1.68,.36-1.93,.44-.19,.07-.14,.15,0,.29l-.18,.06-3.04-1.19,.21-.07c1.29,.21,3.02,.38,4.41,.27l-2.86-1.16c-1.67,.28-3.22,.32-4.79-.34-1.07-.45-1.35-1.13-.23-1.7l-.92-.37,.35-.12,.88,.35c.09-.03,.18-.07,.28-.11,.18-.06,.35-.11,.52-.16l-.91-.36,.35-.12,.95,.38c.66-.15,1.18-.22,1.46-.31,.19-.07,.17-.12,.1-.2l.13-.04,2.42,.85-.19,.07c-1.14-.14-2.4-.26-3.46-.19l2.41,.95c1.53-.26,3.26-.43,5.03,.24,1.64,.62,1.85,1.38,.63,2l.88,.35Zm-1.16-.46c.44-.26,.56-.61-.19-.89-.64-.25-1.41-.27-2.47-.15l2.66,1.05Zm-.44,.19l.11-.04-2.84-1.13c-.33,.05-.69,.11-1.08,.18h-.01l2.93,1.19c.33-.04,.62-.11,.88-.2Zm-5.54-2.2l.13-.03-2.47-.98c-.28,.04-.54,.09-.77,.17-.05,.02-.1,.04-.13,.05l2.35,.95c.27-.05,.57-.1,.89-.17Zm-1.38,.24l-2.17-.88c-.42,.26-.41,.55,.11,.77,.56,.23,1.22,.23,2.06,.11Z"/><path class="hn" d="M16.36,17.78l-.39,.13-.84-.33c-.07,.03-.15,.06-.23,.09-.2,.07-.42,.14-.64,.19l.86,.35-.39,.13-.89-.36c-.87,.22-1.68,.36-1.93,.44-.19,.07-.15,.15,0,.29l-.18,.06-3.04-1.19,.21-.07c1.29,.22,3.02,.38,4.41,.27l-2.86-1.16c-1.67,.28-3.22,.32-4.79-.34-1.07-.45-1.35-1.13-.23-1.7l-.92-.37,.35-.12,.87,.35c.09-.03,.18-.07,.28-.1,.18-.06,.35-.11,.52-.16l-.91-.36,.35-.12,.95,.38c.66-.15,1.18-.22,1.46-.31,.19-.07,.17-.12,.1-.2l.13-.04,2.42,.86-.2,.07c-1.14-.14-2.4-.26-3.46-.19l2.41,.95c1.53-.26,3.26-.43,5.03,.24,1.63,.62,1.85,1.38,.63,2l.88,.35Zm-1.16-.46c.44-.26,.56-.61-.19-.89-.64-.25-1.41-.27-2.47-.15l2.66,1.05Zm-.44,.19l.11-.04-2.84-1.13c-.33,.05-.69,.11-1.08,.18h-.01l2.93,1.19c.33-.04,.62-.11,.88-.2Zm-5.54-2.2l.13-.03-2.47-.98c-.28,.04-.54,.09-.77,.17-.05,.02-.1,.04-.13,.05l2.35,.95c.27-.05,.57-.1,.89-.17Zm-1.38,.24l-2.17-.88c-.42,.26-.41,.55,.11,.77,.56,.23,1.22,.23,2.06,.11Z"/><g class="hs"><path class="hp" d="M11.34,20.03c-3.09,0-5.99-.52-7.96-1.42-1.54-.71-2.37-1.62-2.32-2.56,.05-1.09,1.21-2.08,3.27-2.8,1.88-.65,4.36-1.02,6.97-1.02s5.07,.36,6.96,1.02c2.14,.74,3.32,1.77,3.32,2.88,0,1.1-1.17,2.12-3.31,2.86-1.9,.66-4.36,1.02-6.93,1.02Zm-.05-7.57c-2.59,0-5.03,.36-6.89,1-1.94,.67-3.07,1.62-3.12,2.6-.04,.84,.74,1.68,2.2,2.35,1.93,.89,4.8,1.4,7.86,1.4,2.54,0,4.98-.36,6.86-1.01,2.01-.7,3.16-1.66,3.16-2.65,0-1-1.16-1.97-3.17-2.67-1.87-.65-4.32-1.01-6.89-1.01Z"/></g><g class="ms"><path class="hm" d="M11.15,20.06c-3.1,0-6-.52-7.96-1.42-1.54-.71-2.37-1.62-2.33-2.56,.05-1.09,1.21-2.08,3.27-2.8,1.88-.66,4.36-1.02,6.97-1.02s5.07,.36,6.97,1.02c2.14,.74,3.32,1.77,3.32,2.88s-1.17,2.12-3.31,2.86c-1.9,.66-4.36,1.02-6.93,1.02Zm-.05-7.57c-2.59,0-5.03,.36-6.89,1-1.94,.67-3.07,1.62-3.12,2.6-.04,.84,.74,1.68,2.2,2.34,1.93,.89,4.8,1.4,7.87,1.4,2.54,0,4.98-.36,6.85-1.01,2.01-.7,3.16-1.67,3.16-2.65s-1.16-1.97-3.17-2.67c-1.87-.65-4.32-1.01-6.89-1.01Z"/></g><path class="hi" d="M22.21,18.21h0c.09,1.11-1.04,2.22-3.45,3.06-4.71,1.63-11.93,1.37-15.83-.43-1.58-.73-2.35-1.66-2.39-2.52v-1.99h0c.09,.83,.87,1.67,2.38,2.37,3.9,1.8,11.12,2.06,15.83,.43,2.22-.77,3.35-1.78,3.45-2.8v1.89Z"/><g><path class="lk" d="M7.62,19.95c-.27-.04-.54-.08-.81-.13v2.15c.27,.05,.54,.09,.81,.13v-2.15Z"/><path class="lj" d="M3.37,21.02c.19,.08,.39,.16,.6,.23v-2.15c-.21-.07-.4-.15-.6-.23v2.15Z"/><path class="lb" d="M6.4,19.75c-.28-.05-.54-.11-.81-.18v2.15c.27,.06,.53,.12,.81,.18v-2.15Z"/><path class="la" d="M10.15,20.18c-.29-.01-.57-.03-.86-.05v2.15c.28,.02,.57,.04,.86,.05v-2.15Z"/><path class="ld" d="M8.89,20.09c-.29-.03-.57-.06-.86-.09v2.15c.28,.04,.57,.07,.86,.09v-2.15Z"/><path class="lc" d="M21.66,17.46v2.15c.41-.45,.59-.92,.55-1.39h0v-1.89c-.04,.38-.22,.76-.55,1.13Z"/><path class="lm" d="M21.25,17.84c-.17,.14-.37,.28-.6,.42v2.15c.22-.14,.42-.28,.6-.42v-2.15Z"/><path class="ln" d="M5.19,19.47c-.28-.07-.55-.15-.81-.23v2.15c.26,.08,.53,.16,.81,.23v-2.15Z"/><path class="lg" d="M19.25,18.94c-.15,.06-.31,.12-.48,.18-.11,.04-.22,.07-.33,.1v2.15c.11-.04,.22-.07,.33-.1,.17-.06,.33-.12,.48-.18v-2.15Z"/><path class="ll" d="M19.65,20.92c.21-.09,.41-.19,.6-.29v-2.15c-.18,.1-.38,.19-.6,.28v2.15Z"/><path class="lf" d="M.96,17.27c-.24-.31-.37-.63-.41-.95h0v1.99c.02,.35,.16,.71,.42,1.06v-2.11Z"/><path class="lr" d="M1.96,18.16c-.23-.15-.42-.3-.6-.46v2.13c.17,.16,.37,.32,.6,.47v-2.14Z"/><path class="li" d="M2.97,18.7h-.03c-.2-.11-.39-.2-.56-.3v2.15c.18,.1,.36,.2,.56,.29,0,0,.02,0,.03,.01v-2.15Z"/><path class="lh" d="M18.03,19.35c-.26,.08-.53,.15-.81,.21v2.15c.28-.07,.55-.14,.81-.21v-2.15Z"/><path class="lt" d="M13.07,20.16c-.36,.02-.73,.03-1.09,.04v2.15c.36,0,.73-.02,1.09-.04v-2.15Z"/><path class="ls" d="M14.33,20.05c-.28,.03-.57,.06-.86,.08v2.15c.29-.02,.57-.05,.86-.08v-2.15Z"/><path class="lw" d="M11.57,20.21c-.34,0-.67,0-1.01-.01v2.15c.33,0,.67,.01,1.01,.01v-2.15Z"/><path class="lv" d="M15.6,19.89c-.28,.04-.57,.09-.86,.12v2.15c.29-.04,.57-.08,.86-.12v-2.15Z"/><path class="lx" d="M16.81,19.66c-.27,.06-.54,.11-.81,.16v2.15c.27-.05,.54-.1,.81-.16v-2.15Z"/></g><g class="nx"><g><path class="nq" d="M9.27,17.03c1.27,2.4,.36,5.38-2.04,6.65-2.4,1.27-5.38,.36-6.65-2.04-1.27-2.4-.36-5.38,2.04-6.65,2.4-1.27,5.38-.36,6.65,2.04Z"/><g><path class="np" d="M2.58,20.7c-.07-.11,1.01-.9,2.41-1.76,1.4-.86,2.59-1.47,2.66-1.36,.07,.11-1.01,.9-2.41,1.76-1.4,.86-2.59,1.47-2.66,1.36Z"/><path class="ns" d="M.92,18.33c.03-.13,1.9,.2,4.17,.74,2.27,.54,4.08,1.09,4.05,1.22-.03,.13-1.9-.2-4.17-.74-2.27-.54-4.08-1.08-4.05-1.22Z"/><path class="nr" d="M2.99,16.16c.13-.08,1.09,1.23,2.14,2.93,1.05,1.7,1.79,3.15,1.65,3.23-.13,.08-1.09-1.23-2.13-2.93-1.05-1.7-1.79-3.15-1.65-3.23Z"/></g></g></g></g></g><g class="ny"><g><polygon class="hb" points="36.94 10.69 17.51 10.69 11.42 16.76 27.28 32.62 27.28 32.5 27.34 32.62 43.2 16.76 36.94 10.69"/><polygon class="hd" points="43.2 16.76 27.34 32.62 35.23 16.76 43.2 16.76"/><polygon class="ho" points="43.2 16.76 35.23 16.76 36.94 10.69 43.2 16.76"/><polygon class="hc" points="36.94 10.69 35.23 16.76 31.34 10.75 31.4 10.69 36.94 10.69"/><polygon class="hr" points="31.34 10.75 35.23 16.76 27.31 16.76 27.28 16.76 31.34 10.75"/><polygon class="he" points="35.23 16.76 27.34 32.62 27.28 32.5 27.28 16.76 27.31 16.76 35.23 16.76"/><polygon class="lu" points="35.23 16.76 27.34 32.62 27.28 32.5 27.28 16.76 27.31 16.76 35.23 16.76"/><polygon class="hl" points="31.34 10.75 27.28 16.76 23.27 10.77 23.35 10.69 31.28 10.69 31.34 10.75"/><polygon class="hg" points="27.28 32.5 27.28 32.62 11.42 16.76 19.36 16.76 27.28 32.5"/><polygon class="hf" points="27.28 16.76 27.28 32.5 19.36 16.76 27.28 16.76"/><polygon class="ly" points="27.28 16.76 27.28 32.5 19.36 16.76 27.28 16.76"/><polygon class="gy" points="23.27 10.77 27.28 16.76 19.36 16.76 23.27 10.77"/><polygon class="ha" points="23.19 10.69 23.27 10.77 19.36 16.76 17.51 10.69 23.19 10.69"/><polygon class="h`" points="17.51 10.69 19.36 16.76 11.42 16.76 17.51 10.69"/><path class="ne" d="M27.3,19.39c-9.22,.09-16.7-1.01-16.71-2.46-.01-1.45,7.45-2.71,16.67-2.8,9.22-.09,16.69,1.01,16.71,2.46,.01,1.45-7.45,2.7-16.67,2.8Z"/><g><path class="nf" d="M28.99,6.06c5.95,.69,10.22,6.08,9.53,12.03-.69,5.95-6.08,10.22-12.03,9.53-5.95-.69-10.22-6.08-9.53-12.03,.69-5.95,6.08-10.22,12.03-9.53Z"/><g><path class="ng" d="M33.56,18.3c-.94,3.17-4.27,4.99-7.44,4.05-3.17-.94-4.99-4.27-4.05-7.44,.94-3.17,4.27-4.99,7.44-4.05,3.17,.94,4.99,4.27,4.05,7.44Z"/><path class="nh" d="M27.29,22.79c-.29-.02-.37-2.96-.18-6.58,.19-3.62,.58-6.54,.86-6.53,.29,.01,.37,2.96,.18,6.58-.19,3.62-.57,6.54-.86,6.53Z"/><path class="nt" d="M20.89,22.84c-.2-.22,2.74-3.19,6.56-6.64,3.82-3.45,7.09-6.06,7.29-5.84,.2,.22-2.74,3.19-6.56,6.64-3.82,3.45-7.08,6.06-7.28,5.84Z"/><path class="nu" d="M19.55,16.36c.02-.34,3.6-.44,8-.21,4.4,.23,7.95,.69,7.93,1.04-.02,.34-3.6,.44-8,.21-4.4-.23-7.95-.69-7.93-1.03Z"/></g></g><g><path class="nd" d="M39.53,26.29c-8.43,8.56-16.86,13.93-18.82,11.99-1.96-1.94,3.27-10.45,11.7-19.01,8.43-8.56,16.85-13.92,18.82-11.99,1.96,1.94-3.27,10.45-11.7,19.01Z"/><path class="nc" d="M15.4,22.49c-6.44-6.41-10.99-12.27-10.17-13.09,.82-.82,6.7,3.71,13.14,10.11,6.44,6.41,10.99,12.26,10.17,13.09-.82,.82-6.7-3.71-13.13-10.12Z"/><path class="nb" d="M36.93,17.72c-5.49-4.53-8.6-9.82-6.96-11.8,1.64-1.98,7.42,.08,12.91,4.61,5.48,4.53,8.6,9.81,6.96,11.8-1.64,1.99-7.42-.08-12.91-4.61Z"/><path class="nl" d="M21.83,18.5c-9.22,.09-16.7-.63-16.71-1.61,0-.98,7.45-1.85,16.67-1.94,9.22-.09,16.69,.63,16.7,1.61,0,.98-7.45,1.85-16.67,1.94Z"/><path class="nk" d="M26.82,26.36c2.12-4.75,4.86-8.13,6.14-7.56,1.27,.57,.59,4.88-1.52,9.62-2.12,4.74-4.86,8.13-6.14,7.56-1.27-.57-.59-4.88,1.53-9.62Z"/></g><g><path class="ni" d="M9.13,15.84c.51-2.29,2.77-3.73,5.06-3.22,2.29,.51,3.73,2.77,3.22,5.06-.51,2.29-2.77,3.73-5.06,3.22-2.29-.51-3.73-2.77-3.22-5.06Z"/><g><path class="nm" d="M14.07,14.56c1.2,.49,1.77,1.86,1.28,3.06-.49,1.2-1.86,1.77-3.05,1.28-1.2-.49-1.77-1.86-1.28-3.06,.49-1.2,1.86-1.77,3.06-1.28Z"/><path class="no" d="M15.57,17.17c-.02,.11-1.17,.03-2.57-.19-1.4-.22-2.52-.49-2.5-.6,.02-.11,1.17-.03,2.57,.19,1.4,.22,2.52,.49,2.5,.6Z"/><path class="nj" d="M15.33,19.66c-.09,.07-1.13-1.19-2.32-2.82-1.19-1.63-2.07-3-1.98-3.07,.09-.07,1.13,1.19,2.32,2.82,1.19,1.62,2.07,3,1.98,3.07Z"/><path class="nn" d="M12.76,19.92c-.13-.02-.03-1.42,.24-3.12,.27-1.7,.59-3.06,.72-3.04,.13,.02,.03,1.42-.24,3.12-.26,1.7-.59,3.06-.72,3.04Z"/></g></g></g></g></g></g></g></g></svg>