<?xml version="1.0" encoding="UTF-8"?><svg xmlns="http://www.w3.org/2000/svg" viewBox="0 0 43 38.38"><defs><style>.d{fill:#e9528e;}.e{fill:#fff;}</style></defs><g id="a"/><g id="b"><g id="c"><g><polygon class="d" points=".38 12.26 2.25 14.57 20.83 37.56 13.15 12.26 .38 12.26"/><polygon class="d" points="35.83 0 35.83 0 35.83 0 35.83 0"/><polygon class="d" points="22.22 37.5 40.75 14.57 42.62 12.26 30.58 12.26 22.22 37.5"/><polygon class="d" points="43 11.78 43 11.78 43 11.78 43 11.78"/><polygon class="d" points="35.38 0 22.03 0 30.24 10.98 35.38 0"/><polygon class="d" points="6.92 .41 .29 11.31 12.71 11.31 6.92 .41"/><polygon class="d" points="42.71 11.31 36.08 .42 30.99 11.31 42.71 11.31"/><polygon class="d" points="43 11.78 43 11.78 43 11.78 43 11.78"/><polygon class="d" points="20.99 0 7.64 0 13.46 10.98 20.99 0"/><polygon class="d" points="21.51 .72 14.26 11.31 29.44 11.31 21.51 .72"/><path class="e" d="M43,11.78h0l-.29-.47h-11.72L36.08,.42,35.83,0h-.45l-5.14,10.98L22.03,0h-1.04l-7.53,10.98L7.64,0h-.47l-.25,.41,5.78,10.9H.29l-.29,.47,.38,.47H13.15l7.68,25.3,.67,.83,.72-.89L30.58,12.26h12.03l.38-.47h0ZM21.51,.72l7.92,10.59H14.26L21.51,.72Zm0,36.34L13.98,12.26h15.75l-8.22,24.8Z"/><polygon class="d" points="21.52 38.38 29.74 12.26 13.98 12.26 21.52 38.38"/></g></g></g></svg>