<?xml version="1.0" encoding="UTF-8"?>
<svg xmlns="http://www.w3.org/2000/svg" xmlns:xlink="http://www.w3.org/1999/xlink" version="1.1" viewBox="0 0 86 36">
  <!-- Generator: Adobe Illustrator 29.1.0, SVG Export Plug-In . SVG Version: 2.1.0 Build 142)  -->
  <defs>
    <style>
      .st0 {
        display: none;
        mix-blend-mode: saturation;
      }

      .st1 {
        stroke-width: .8px;
      }

      .st1, .st2 {
        fill: none;
        stroke: #f9b653;
        stroke-miterlimit: 10;
      }

      .st3 {
        font-family: HiraMaruProN-W4-83pv-RKSJ-H, 'Hiragino Maru Gothic ProN';
        font-size: 13.7px;
        letter-spacing: 0em;
      }

      .st3, .st4 {
        fill: #f9b653;
      }

      .st5 {
        isolation: isolate;
      }

      .st2 {
        filter: url(#drop-shadow-1);
        stroke-width: .5px;
      }
    </style>
    <filter id="drop-shadow-1" x="2.7" y="1.7" width="82" height="33" filterUnits="userSpaceOnUse">
      <feOffset dx="0" dy="0"/>
      <feGaussianBlur result="blur" stdDeviation="1.4"/>
      <feFlood flood-color="#ffc373" flood-opacity="1"/>
      <feComposite in2="blur" operator="in"/>
      <feComposite in="SourceGraphic"/>
    </filter>
  </defs>
  <g class="st5">
    <g id="Layer_1">
      <g id="Layer_2">
        <g id="_層1">
          <g>
            <g>
              <path class="st1" d="M18.9,6.5h49c6.4,0,11.5,5.1,11.5,11.5h0c0,6.4-5.1,11.5-11.5,11.5H18.9c-6.4,0-11.5-5.1-11.5-11.5h0c0-6.4,5.1-11.5,11.5-11.5Z"/>
              <g class="st0">
                <path class="st4" d="M21.8,12.6h3c.2,0,.4,0,.4.2.1-.2.3-.2.5-.2s.2,0,.2.1c.2.4.5.8.8,1.2.7-.4,1.3-.9,1.7-1.3.1-.1.2-.2.3-.2.3,0,.4.1.4.4,0,.1-.1.3-.3.4-.5.4-1,.8-1.7,1.1.2.2.4.4.7.5.6-.4,1.2-.8,1.6-1.2.1-.1.3-.2.4-.2.3,0,.4.1.3.4,0,.1-.1.3-.3.4-.4.3-.9.7-1.4,1,0,0,.1,0,.2.1.4.2.9.4,1.5.6.2,0,.3.2.3.4-.1.4-.3.5-.7.5-.6-.2-1.1-.4-1.5-.6-.1,0-.2-.1-.3-.2h0c0,.1-.4,1.4-.4,1.4,0,0,0,.1,0,.2,0,0,.1,0,.3,0s.4,0,.4,0c0,0,.1,0,.2-.1v-.3c.2-.2.3-.3.5-.3.3,0,.4.2.3.4,0,.3-.2.6-.3.8-.1.1-.3.2-.5.3-.2,0-.4.1-.7.1h-.6c-.6,0-.8-.3-.6-.9l.3-1.2c0,0,0-.1-.3-.1h-.9c-.2,0-.3,0-.3.1l-.2.6c-.1.4-.3.7-.5.9-.3.3-.6.5-1,.7-.2.1-.4.2-.6.2-.3,0-.4-.1-.3-.4,0-.1.1-.2.2-.3.5-.2.8-.4.9-.5.2-.2.3-.4.4-.7l.2-.7c.1-.4.4-.6.8-.6h1.5c-.2-.1-.4-.3-.5-.4-.6-.5-1-1.1-1.4-1.8,0,0,0-.1,0-.2-.1.2-.3.4-.5.6-.5.5-1.3,1-2.2,1.6-.2.1-.4.2-.5.3h1.2c.5,0,.7.2.5.7l-.3,1.3c-.1.5-.4.7-.9.7h-2c-.2,0-.4.4-.6,1.1,0,.1,0,.1.2.1h2.2c.4,0,.5.3.4.8,0,.3-.2.8-.5,1.3-.3.7-.6,1.2-.8,1.5-.3.3-.7.5-1.3.5s-1.3,0-2.3-.3c-.2,0-.3-.2-.2-.4,0-.3.3-.4.6-.4.8.2,1.6.2,2.2.2s.6-.2.7-.6c.3-.6.5-1.1.6-1.5,0-.2,0-.3-.2-.3h-2.1c-.4,0-.6-.2-.5-.7.1-.5.3-.9.5-1.4.2-.5.5-.8.8-.8h2.1c.2,0,.3-.1.4-.3v-.4c.2-.2.1-.4-.1-.4h-1.9c0,0-.1,0-.2,0-.3.1-.6.2-.9.4-.2.1-.4.1-.5.1-.3,0-.5-.1-.4-.5,0-.2.2-.3.4-.4,1-.4,1.8-.7,2.3-.9-.3-.2-.5-.4-.7-.6-.2-.1-.4-.2-.6-.3,0-.1,0-.2,0-.4,0-.3.2-.4.5-.4s.2,0,.2.1c.2.1.4.3.6.4.3.2.5.4.8.7,0,0,0,0,0,0,.5-.2.9-.5,1.3-.8.5-.3.7-.5.8-.6,0,0,0,0-.1,0h-2.4c-.3,0-.4-.1-.3-.4,0-.3.2-.4.5-.4h0ZM23.6,19.1h4.3c.3,0,.4.2.4.5,0,.3-.3.7-.6,1-.3.4-.8.8-1.5,1.3.1,0,.2.1.3.2.4.2.9.5,1.7.7.1.1.2.2.1.3-.1.4-.3.5-.6.5s-.2,0-.4,0c-.6-.2-1.2-.5-1.6-.8-.2-.1-.3-.2-.5-.3-.6.3-1.3.6-2,.9-.5.2-.9.3-1,.3-.3,0-.5-.2-.4-.5,0-.2.2-.4.5-.4.9-.2,1.6-.5,2.2-.8l-.2-.3c-.3-.4-.5-1-.6-1.8h-.3c-.3,0-.4-.1-.3-.4,0-.3.2-.4.5-.4h0ZM24.6,19.9c.1.5.3,1,.6,1.3,0,0,.1.2.2.2.6-.4,1.1-.7,1.5-1.1.2-.2.3-.3.3-.4,0,0,0,0,0,0h-2.5Z"/>
                <path class="st4" d="M36.8,12.8c.3,0,.4.1.3.4s-.3.4-.6.4h-1.1l-.8,3.1h1c.3,0,.4.1.3.4,0,.3-.3.5-.5.5h-1l-.9,3.4c.4-.2.9-.4,1.5-.8h.2c.3,0,.4.1.3.4,0,.1-.1.2-.3.4-.4.3-1,.6-1.7.9-.9.4-1.7.7-2.4.9-.1,0-.2,0-.3,0-.3,0-.4-.2-.3-.5,0-.2.2-.4.5-.5.6-.2,1.1-.3,1.6-.5l1-3.8h-1c-.3,0-.4-.1-.3-.5,0-.3.3-.4.6-.4h1l.8-3.1h-1.1c-.3,0-.4-.1-.3-.4,0-.3.3-.4.6-.4h3.1ZM39.5,19.5h-1.3c0,.2-.2.5-.4.9-.2.5-.4.9-.7,1.3-.4.5-.8.9-1.2,1.2-.5.3-1,.6-1.6.9,0,0-.2,0-.2,0-.4,0-.5-.2-.4-.5,0-.2.2-.3.4-.4.6-.2,1-.5,1.4-.8.4-.3.7-.6,1-1,.3-.4.6-1,.8-1.7h-.7c-.5,0-.7-.3-.6-.8l1.4-5.2c.1-.5.5-.7,1-.7h4.7c.5,0,.7.2.6.7l-1.4,5.2c-.1.5-.5.8-1,.8h-1l-.7,2.7c0,.2,0,.4,0,.5,0,0,.3.1.8.1s.5,0,.6-.1c0-.1.2-.2.2-.3l.2-.8c0-.3.3-.5.6-.5.3,0,.4.2.3.6-.2.9-.4,1.3-.5,1.5,0,.2-.2.3-.5.4-.2,0-.6.1-1.1.1-.8,0-1.2-.1-1.4-.3-.2-.2-.2-.5,0-1l.8-2.8h0ZM41.2,18.6c.2,0,.4-.1.5-.4l.2-.8h-4.5l-.2.8c0,.3,0,.4.2.4h3.8ZM37.5,16.6h4.5l.3-1.2h-4.5l-.3,1.2ZM38.1,14.7h4.5l.2-.8c0-.2,0-.4-.2-.4h-3.8c-.2,0-.4.1-.5.4,0,0-.2.8-.2.8Z"/>
                <path class="st4" d="M57.8,12.8c.3,0,.4.1.3.4,0,.3-.2.4-.5.4h-4.7l-.3,1.1h3.4c.5,0,.7.2.6.7l-.9,3.4c-.1.5-.5.8-1,.8h-3.5c-.4,1.1-.9,2-1.6,2.6.6.2,1.2.3,2,.4.6,0,1.8.1,3.6.2.3,0,.4.2.3.4-.1.4-.3.5-.7.5-.6,0-1.3,0-2.1-.1-.9,0-1.7-.2-2.5-.3-.6-.1-1.2-.3-1.7-.4-1,.5-2.4.8-4.2,1-.3,0-.5-.1-.4-.4,0-.2.2-.4.5-.4,1.2-.1,2.2-.4,3-.6-.7-.4-1.3-.9-1.7-1.4,0-.1,0-.2,0-.4,0-.3.3-.4.6-.4s.2,0,.2.2c.5.7,1.2,1.2,2,1.5h0c0,0,.2-.1.3-.2.5-.5,1-1.1,1.3-2h-3.6c-.5,0-.7-.2-.5-.8l.9-3.4c.1-.5.4-.7.9-.7h3.7l.3-1.1h-4.8c-.3,0-.3-.1-.3-.4,0-.3.2-.4.5-.4h10.5,0ZM50.6,18.7l.3-1.2h-3.5l-.2.8c0,.2,0,.4.1.4h3.2,0ZM47.7,16.7h3.5l.3-1.1h-3.2c-.2,0-.3.1-.3.3l-.2.8h0ZM54.5,18.7c.2,0,.3-.1.4-.4l.2-.8h-3.3l-.3,1.2s3,0,3,0ZM52.4,15.5l-.3,1.1h3.3l.2-.8c0-.2,0-.3-.2-.3h-3Z"/>
                <path class="st4" d="M65,18.9c-.3.2-.7.4-1.1.6-.9.4-2,.8-3.4,1.1-.2,0-.3,0-.4,0-.3,0-.4-.2-.3-.5,0-.1.1-.2.3-.4,1.5-.4,2.7-.8,3.5-1.1.7-.3,1.3-.7,2.1-1.3.1-.1.3-.2.4-.2.3,0,.4.1.4.5,0,0,0,.2-.2.3,0,0-.2.1-.2.2h3c.6,0,.8.2.7.7-.1.4-.4.9-.8,1.4-.5.7-1.2,1.2-2,1.7-.9.5-1.9.9-3,1.2-1.3.3-2.9.6-4.6.6-.4,0-.6-.2-.5-.5,0-.3.3-.4.6-.4,1.4,0,2.5-.1,3.3-.3.7-.1,1.3-.2,1.9-.4-.2-.3-.4-.6-.6-.8-.2-.2-.3-.4-.6-.6,0-.1,0-.2,0-.4,0-.2.2-.4.5-.4s.2,0,.3.1c.2.2.4.4.6.6.3.3.5.6.7,1,0,0,0,0,0,0,1-.4,1.8-.9,2.4-1.5.5-.4.8-.8.9-1.1,0-.1,0-.2-.1-.2h-3.7ZM64.5,14.1c-.3.2-.5.3-.8.4-.7.4-1.6.7-2.7,1-.1,0-.2,0-.3,0-.3,0-.4-.2-.3-.5,0-.1.2-.2.3-.3,1.2-.3,2.1-.6,2.8-1,.5-.2,1.1-.6,1.7-1.1.1-.1.3-.2.4-.2.3,0,.4.1.4.4,0,0,0,.2-.2.3s-.1.1-.2.1h4.2c.4,0,.5.2.4.5,0,.3-.5.7-1.2,1.2-.9.7-2,1.3-3.3,1.9-1.2.5-2.5.9-4,1.2-1,.2-1.8.4-2.5.4s-.5-.2-.4-.5c0-.3.2-.4.5-.4,1.1,0,2-.2,2.5-.3.8-.2,1.5-.4,2.1-.6-.2-.3-.3-.5-.5-.7-.1-.1-.3-.3-.4-.5,0-.1,0-.2,0-.3,0-.3.2-.4.5-.4s.2,0,.3,0c.2.2.3.4.5.5.2.2.4.5.6.8,0,0,0,0,0,.1.2,0,.4-.1.6-.2.8-.4,1.6-.8,2.4-1.3.6-.4.9-.6,1-.7,0-.1,0-.2-.2-.2h-4.2Z"/>
              </g>
            </g>
            <path class="st2" d="M18.9,6.5h49c6.4,0,11.5,5.1,11.5,11.5h0c0,6.4-5.1,11.5-11.5,11.5H18.9c-6.4,0-11.5-5.1-11.5-11.5h0c0-6.4,5.1-11.5,11.5-11.5Z"/>
          </g>
        </g>
      </g>
      <text class="st3" transform="translate(16.8 22.6) scale(.9 1) skewX(-14.7)"><tspan x="0" y="0">觀看更多</tspan></text>
    </g>
  </g>
</svg>