<?xml version="1.0" encoding="utf-8"?>
<!-- Generator: Adobe Illustrator 26.2.1, SVG Export Plug-In . SVG Version: 6.00 Build 0)  -->
<svg version="1.1" id="Layer_1" xmlns="http://www.w3.org/2000/svg" xmlns:xlink="http://www.w3.org/1999/xlink" x="0px" y="0px"
	 viewBox="0 0 14.6 8.4" style="enable-background:new 0 0 14.6 8.4;" xml:space="preserve">
<style type="text/css">
	.st0{fill:#A27100;}
</style>
<g id="a">
</g>
<g id="b">
	<g id="c">
		<g>
			<path class="st0" d="M0,4.2c1.7-1.9,3.5-3.5,6-4C7-0.1,8,0,8.9,0.2c2.3,0.7,4,2.2,5.6,4c-0.7,0.6-1.3,1.3-2,1.9
				c-1,0.8-2.1,1.5-3.3,1.9C8.1,8.5,6.8,8.5,5.6,8.1C3.3,7.5,1.6,6,0,4.2z M7.3,1C5.5,1,4.1,2.4,4.1,4.2c0,1.8,1.4,3.2,3.2,3.2
				c1.8,0,3.2-1.4,3.2-3.2C10.5,2.5,9.1,1,7.3,1z"/>
			<path class="st0" d="M7.3,2C6,2,5,3,5,4.2c0,1.2,1,2.2,2.2,2.2c1.2,0,2.3-1,2.3-2.2C9.5,3,8.5,1.9,7.3,2z M8,4.9
				c-0.4,0.4-1,0.4-1.4,0c-0.4-0.4-0.4-1,0-1.4s1-0.4,1.4,0C8.4,3.9,8.4,4.5,8,4.9z"/>
		</g>
	</g>
</g>
</svg>
