<?xml version="1.0" encoding="UTF-8"?><svg xmlns="http://www.w3.org/2000/svg" viewBox="0 0 17.94 10.32"><defs><style>.d{fill:#fff;}</style></defs><g id="a"/><g id="b"><g id="c"><g><path class="d" d="M0,5.16C2.09,2.85,4.34,.9,7.41,.18c1.21-.28,2.42-.23,3.61,.12,2.82,.84,4.94,2.67,6.93,4.9-.82,.78-1.6,1.57-2.43,2.29-1.2,1.03-2.53,1.85-4.04,2.37-1.51,.52-3.05,.6-4.58,.14-2.82-.84-4.94-2.67-6.9-4.86ZM8.95,1.24c-2.15,0-3.92,1.76-3.91,3.91,0,2.16,1.74,3.92,3.9,3.92,2.16,0,3.93-1.74,3.94-3.89,.01-2.18-1.74-3.94-3.92-3.95Z"/><path class="d" d="M8.93,1.89c-1.79,.01-3.25,1.5-3.25,3.29,0,1.78,1.5,3.26,3.28,3.26,1.78,0,3.27-1.49,3.27-3.27,0-1.81-1.5-3.3-3.3-3.28Zm.92,4.15c-.49,.49-1.27,.49-1.76,0-.49-.49-.49-1.27,0-1.76s1.27-.49,1.76,0c.49,.49,.49,1.27,0,1.76Z"/></g></g></g></svg>