<?xml version="1.0" encoding="UTF-8"?><svg xmlns="http://www.w3.org/2000/svg" viewBox="0 0 36 36"><defs><style>.d{fill:#0080ff;}.e{fill:#fff;}</style></defs><g id="a"/><g id="b"><g id="c"><g><path class="d" d="M26.89,36h-6.1l-2.78-.92-2.76,.92h-6.13c-5.03,0-9.11-4.08-9.11-9.11V9.11C0,4.08,4.08,0,9.11,0H26.89c5.03,0,9.11,4.08,9.11,9.11V26.89c0,5.03-4.08,9.11-9.11,9.11Z"/><path class="e" d="M15.22,14.08v3.92h-4.51v5.14h4.51v12.86h5.56v-12.86h4.14l.79-5.14h-4.93v-3.34c0-1.41,.69-2.78,2.9-2.78h2.24V7.51s-2.03-.35-3.98-.35c-4.06,0-6.72,2.46-6.72,6.92Z"/></g></g></g></svg>