<?xml version="1.0" encoding="UTF-8"?><svg xmlns="http://www.w3.org/2000/svg" viewBox="0 0 22 22"><defs><style>.d{fill:#fff;opacity:.7;}</style></defs><g id="a"/><g id="b"><g id="c"><path class="d" d="M11,0C4.92,0,0,4.92,0,11s4.92,11,11,11,11-4.92,11-11S17.08,0,11,0Zm4.7,5.27c1.08,0,1.95,1.41,1.95,3.15s-.87,3.15-1.95,3.15-1.95-1.41-1.95-3.15,.87-3.15,1.95-3.15Zm-9.4,0c1.08,0,1.95,1.41,1.95,3.15s-.87,3.15-1.95,3.15-1.95-1.41-1.95-3.15,.87-3.15,1.95-3.15Zm4.7,15.22c-3.76,0-6.8-2.65-6.8-5.91,0-1.32,13.61-1.49,13.61,0,0,3.26-3.05,5.91-6.8,5.91Z"/></g></g></svg>