<?xml version="1.0" encoding="UTF-8"?><svg xmlns="http://www.w3.org/2000/svg" width="10.73" height="15.61" xmlns:xlink="http://www.w3.org/1999/xlink" viewBox="0 0 10.73 15.61"><defs><style>.cls-1{fill:url(#linear-gradient-2);}.cls-1,.cls-2,.cls-3,.cls-4{mix-blend-mode:multiply;}.cls-1,.cls-3{opacity:.42;}.cls-2{fill:url(#linear-gradient-6);opacity:.31;}.cls-5{isolation:isolate;}.cls-6{filter:url(#drop-shadow-1);}.cls-7{fill:url(#linear-gradient-5);}.cls-8{fill:url(#linear-gradient-7);}.cls-9{fill:url(#linear-gradient-3);}.cls-3{fill:url(#linear-gradient-8);}.cls-10{fill:url(#linear-gradient);}.cls-4{fill:url(#linear-gradient-4);opacity:.09;}</style><filter id="drop-shadow-1" filterUnits="userSpaceOnUse"><feOffset dx="0" dy="0"/><feGaussianBlur result="blur" stdDeviation=".87"/><feFlood flood-color="#000" flood-opacity=".5"/><feComposite in2="blur" operator="in"/><feComposite in="SourceGraphic"/></filter><linearGradient id="linear-gradient" x1="5.36" y1="0" x2="5.36" y2="15.61" gradientUnits="userSpaceOnUse"><stop offset="0" stop-color="#6a0052"/><stop offset="1" stop-color="#ff0069"/></linearGradient><linearGradient id="linear-gradient-2" x1="5.36" y1="0" x2="5.36" y2="15.61" gradientUnits="userSpaceOnUse"><stop offset="0" stop-color="#ff14ff"/><stop offset=".02" stop-color="#ff20ff"/><stop offset=".08" stop-color="#ff4eff"/><stop offset=".15" stop-color="#ff78ff"/><stop offset=".22" stop-color="#ff9dff"/><stop offset=".3" stop-color="#fbf"/><stop offset=".38" stop-color="#ffd4ff"/><stop offset=".48" stop-color="#ffe7ff"/><stop offset=".59" stop-color="#fff4ff"/><stop offset=".73" stop-color="#fffcff"/><stop offset="1" stop-color="#fff"/></linearGradient><linearGradient id="linear-gradient-3" x1="5.5" y1="2.22" x2="5.5" y2="15.61" gradientUnits="userSpaceOnUse"><stop offset="0" stop-color="#b300b0"/><stop offset="1" stop-color="#ff4e52"/></linearGradient><linearGradient id="linear-gradient-4" x1="5.5" y1="2.22" x2="5.5" y2="15.61" gradientUnits="userSpaceOnUse"><stop offset="0" stop-color="#8e24aa"/><stop offset=".06" stop-color="#a450bb"/><stop offset=".13" stop-color="#b979cb"/><stop offset=".2" stop-color="#cc9dd9"/><stop offset=".28" stop-color="#dcbbe4"/><stop offset=".37" stop-color="#e9d4ee"/><stop offset=".47" stop-color="#f2e7f5"/><stop offset=".58" stop-color="#f9f4fb"/><stop offset=".72" stop-color="#fdfcfe"/><stop offset="1" stop-color="#fff"/></linearGradient><linearGradient id="linear-gradient-5" x1="5.19" y1="5.87" x2="5.19" y2="15.61" gradientUnits="userSpaceOnUse"><stop offset="0" stop-color="#ff34da"/><stop offset="1" stop-color="#ff528a"/></linearGradient><linearGradient id="linear-gradient-6" x1="5.19" y1="5.87" x2="5.19" y2="15.61" gradientUnits="userSpaceOnUse"><stop offset="0" stop-color="#ab47bc"/><stop offset=".12" stop-color="#bd70cb"/><stop offset=".26" stop-color="#d19bda"/><stop offset=".41" stop-color="#e1bfe7"/><stop offset=".56" stop-color="#eedbf1"/><stop offset=".7" stop-color="#f7eff9"/><stop offset=".85" stop-color="#fdfbfd"/><stop offset="1" stop-color="#fff"/></linearGradient><linearGradient id="linear-gradient-7" x1="5.15" y1="9.04" x2="5.15" y2="15.61" gradientUnits="userSpaceOnUse"><stop offset="0" stop-color="#ffbee7"/><stop offset="1" stop-color="#fffeff"/></linearGradient><linearGradient id="linear-gradient-8" x1="5.15" y1="9.04" x2="5.15" y2="15.61" gradientUnits="userSpaceOnUse"><stop offset="0" stop-color="#ce93d8"/><stop offset=".03" stop-color="#d29ddb"/><stop offset=".13" stop-color="#e0bbe6"/><stop offset=".23" stop-color="#ebd4ef"/><stop offset=".35" stop-color="#f4e7f6"/><stop offset=".49" stop-color="#faf4fb"/><stop offset=".66" stop-color="#fdfcfe"/><stop offset="1" stop-color="#fff"/></linearGradient></defs><g class="cls-5"><g id="Layer_2"><g id="links"><g class="cls-6"><g><path class="cls-10" d="M3.93,15.52c-1.19-.18-2.43-1.12-2.92-2-.66-1.2-.65-2.48-.45-3.8,.54-3.46,0-3.9-.57-4.59,.97,.42,1.87,.76,2.46,1.5,.73-2.24,.93-3.94,3.77-6.62-.1,.63-.27,1.26-.28,1.9-.03,2,1.57,3.83,1.91,4.28,.92,1.22,1.41,2.56,1.38,4.03v.21c.47-.41,.78-1.13,.87-2.04,.6,.75,.76,2.12,.5,3.06-.63,2.31-1.99,3.51-4.16,4.05-.63,.16-1.84,.12-2.52,.01Z"/><path class="cls-1" d="M3.93,15.52c-1.19-.18-2.43-1.12-2.92-2-.66-1.2-.65-2.48-.45-3.8,.54-3.46,0-3.9-.57-4.59,.97,.42,1.87,.76,2.46,1.5,.73-2.24,.93-3.94,3.77-6.62-.1,.63-.27,1.26-.28,1.9-.03,2,1.57,3.83,1.91,4.28,.92,1.22,1.41,2.56,1.38,4.03v.21c.47-.41,.78-1.13,.87-2.04,.6,.75,.76,2.12,.5,3.06-.63,2.31-1.99,3.51-4.16,4.05-.63,.16-1.84,.12-2.52,.01Z"/><path class="cls-9" d="M3.92,15.53c-.87-.16-1.77-.96-2.12-1.72-.48-1.03-.47-2.13-.32-3.26,.4-2.96,0-3.34-.41-3.93,.7,.36,1.36,.65,1.79,1.28,.53-1.92,.67-3.38,2.74-5.68-.07,.54-.2,1.08-.2,1.63-.02,1.71,1.17,2.92,1.42,3.3,.67,1.05,1.57,2.01,1.58,3.04,0,.96-.64,2.09-.64,1.9,.57-.15,1.8-.89,2.11-1.68,.28,1.36-.3,2.4-.68,2.98-.63,.97-1.43,1.66-2.72,2.11-.45,.15-2.04,.11-2.53,.03Z"/><path class="cls-4" d="M3.92,15.53c-.87-.16-1.77-.96-2.12-1.72-.48-1.03-.47-2.13-.32-3.26,.4-2.96,0-3.34-.41-3.93,.7,.36,1.36,.65,1.79,1.28,.53-1.92,.67-3.38,2.74-5.68-.07,.54-.2,1.08-.2,1.63-.02,1.71,1.17,2.92,1.42,3.3,.67,1.05,1.57,2.01,1.58,3.04,0,.96-.64,2.09-.64,1.9,.57-.15,1.8-.89,2.11-1.68,.28,1.36-.3,2.4-.68,2.98-.63,.97-1.43,1.66-2.72,2.11-.45,.15-2.04,.11-2.53,.03Z"/><path class="cls-7" d="M4.33,15.52c-.57-.12-1.15-.48-1.54-1.02-.35-.47-.49-1.26-.35-2.02,.22-1.2,.27-2.82,0-3.29,.46,.28,.9,.52,1.18,1.02,.35-1.52,.25-2.52,1.61-4.34-.05,.43-.13,.86-.13,1.29-.02,1.36,.75,2,1.13,2.45,.74,.88,1.18,1.8,1.18,2.63,0,.76-.31,.98-.68,1.35,.54-.14,.91-.29,1.25-.69,.13,1.09-1.25,2.4-2.29,2.64-.5,.12-1.05,.04-1.37-.03Z"/><path class="cls-2" d="M4.33,15.52c-.57-.12-1.15-.48-1.54-1.02-.35-.47-.49-1.26-.35-2.02,.22-1.2,.27-2.82,0-3.29,.46,.28,.9,.52,1.18,1.02,.35-1.52,.25-2.52,1.61-4.34-.05,.43-.13,.86-.13,1.29-.02,1.36,.75,2,1.13,2.45,.74,.88,1.18,1.8,1.18,2.63,0,.76-.31,.98-.68,1.35,.54-.14,.91-.29,1.25-.69,.13,1.09-1.25,2.4-2.29,2.64-.5,.12-1.05,.04-1.37-.03Z"/><path class="cls-8" d="M4.55,15.54c-.36-.08-.77-.31-1.02-.67-.22-.32-.3-.92-.18-1.42,.23-.93,.17-1.88,0-2.2,.3,.19,.57,.35,.75,.68,.22-1.02,.16-1.68,1.03-2.9-.03,.29-.08,.57-.09,.86-.01,.91,.48,1.34,.72,1.64,.47,.59,.62,1.2,.62,1.75,0,.51-.2,.79-.43,1.03,.39-.02,.82-.25,1.04-.52,.08,.73-.84,1.6-1.49,1.76-.32,.08-.75,.02-.95-.03Z"/><path class="cls-3" d="M4.55,15.54c-.36-.08-.77-.31-1.02-.67-.22-.32-.3-.92-.18-1.42,.23-.93,.17-1.88,0-2.2,.3,.19,.57,.35,.75,.68,.22-1.02,.16-1.68,1.03-2.9-.03,.29-.08,.57-.09,.86-.01,.91,.48,1.34,.72,1.64,.47,.59,.62,1.2,.62,1.75,0,.51-.2,.79-.43,1.03,.39-.02,.82-.25,1.04-.52,.08,.73-.84,1.6-1.49,1.76-.32,.08-.75,.02-.95-.03Z"/></g></g></g></g></g></svg>