<?xml version="1.0" encoding="UTF-8"?>
<svg id="Layer_1" xmlns="http://www.w3.org/2000/svg" xmlns:xlink="http://www.w3.org/1999/xlink" version="1.1" viewBox="0 0 10.7 15.6">
  <!-- Generator: Adobe Illustrator 29.1.0, SVG Export Plug-In . SVG Version: 2.1.0 Build 142)  -->
  <defs>
    <style>
      .st0 {
        fill: url(#linear-gradient2);
      }

      .st1 {
        fill: url(#linear-gradient1);
        opacity: .6;
      }

      .st2 {
        fill: #f4c57a;
      }

      .st3 {
        fill: url(#linear-gradient);
      }
    </style>
    <linearGradient id="linear-gradient" x1="5.4" y1="16.8" x2="5.4" y2="1.2" gradientTransform="translate(0 16.8) scale(1 -1)" gradientUnits="userSpaceOnUse">
      <stop offset="0" stop-color="#f92e37"/>
      <stop offset=".9" stop-color="#f48044"/>
      <stop offset="1" stop-color="#f48645"/>
    </linearGradient>
    <linearGradient id="linear-gradient1" x1="5.2" y1="13.3" x2="5.2" y2="1.2" gradientTransform="translate(0 16.8) scale(1 -1)" gradientUnits="userSpaceOnUse">
      <stop offset="0" stop-color="#f98064"/>
      <stop offset="1" stop-color="#f4c57a"/>
    </linearGradient>
    <linearGradient id="linear-gradient2" x1="5.1" y1="7.4" x2="5.1" y2="15.6" gradientUnits="userSpaceOnUse">
      <stop offset="0" stop-color="#f4cd8a" stop-opacity=".6"/>
      <stop offset=".5" stop-color="#f9e6c6" stop-opacity=".8"/>
      <stop offset="1" stop-color="#fff"/>
    </linearGradient>
  </defs>
  <path class="st3" d="M3.9,15.5c-1.2-.2-2.4-1.1-2.9-2-.7-1.2-.6-2.5-.4-3.8C1.1,6.3.6,5.8,0,5.1c1,.4,1.9.8,2.5,1.5C3.2,4.4,3.4,2.7,6.2,0c0,.6-.3,1.3-.3,1.9,0,2,1.6,3.8,1.9,4.3.9,1.2,1.4,2.6,1.4,4v.2c.5-.4.8-1.1.9-2,.6.8.8,2.1.5,3.1-.6,2.3-2,3.5-4.2,4.1-.6.2-1.8.1-2.5,0h0Z"/>
  <path class="st2" d="M4.1,15.5c-.7-.1-1.4-.6-1.9-1.3-.4-.6-.6-1.6-.4-2.5.3-1.5.3-3.5,0-4.1.6.3,1.1.6,1.5,1.3.4-1.9.3-3.1,2-5.4,0,.5-.2,1.1-.2,1.6,0,1.7.9,2.5,1.4,3,.9,1.1,1.5,2.2,1.5,3.3s-.4,1.2-.8,1.7c.7-.2,1.1-.4,1.6-.9.2,1.4-1.6,3-2.8,3.3-.6.1-1.3,0-1.7,0h0Z"/>
  <path class="st1" d="M4.1,15.5c-.7-.1-1.4-.6-1.9-1.3-.4-.6-.6-1.6-.4-2.5.3-1.5.3-3.5,0-4.1.6.3,1.1.6,1.5,1.3.4-1.9.3-3.1,2-5.4,0,.5-.2,1.1-.2,1.6,0,1.7.9,2.5,1.4,3,.9,1.1,1.5,2.2,1.5,3.3s-.4,1.2-.8,1.7c.7-.2,1.1-.4,1.6-.9.2,1.4-1.6,3-2.8,3.3-.6.1-1.3,0-1.7,0h0Z"/>
  <path class="st0" d="M4.4,15.5c-.4,0-1-.4-1.3-.8-.3-.4-.4-1.1-.2-1.8.3-1.2.2-2.3,0-2.7.4.2.7.4.9.8.3-1.3.2-2.1,1.3-3.6,0,.4,0,.7-.1,1.1,0,1.1.6,1.7.9,2,.6.7.8,1.5.8,2.2s-.2,1-.5,1.3c.5,0,1-.3,1.3-.6,0,.9-1,2-1.8,2.2-.4,0-.9,0-1.2,0h0Z"/>
</svg>