<?xml version="1.0" encoding="UTF-8"?><svg xmlns="http://www.w3.org/2000/svg" xmlns:xlink="http://www.w3.org/1999/xlink" viewBox="0 0 46.92 46.92"><defs><style>.g{fill:url(#d);}.h{fill:#e9528e;}.i{fill:#ffd7f5;}.j{fill:#fff;stroke:#fff;stroke-miterlimit:10;stroke-width:.77px;}.k{filter:url(#e);}</style><linearGradient id="d" x1="14977.22" y1="5489.4" x2="15009.64" y2="5489.4" gradientTransform="translate(5061.27 15174.06) rotate(-128.5)" gradientUnits="userSpaceOnUse"><stop offset="0" stop-color="#ebebeb"/><stop offset="1" stop-color="#fafafa"/></linearGradient><filter id="e" filterUnits="userSpaceOnUse"><feOffset dx="1.44" dy="1.44"/><feGaussianBlur result="f" stdDeviation="1.44"/><feFlood flood-color="#000" flood-opacity=".5"/><feComposite in2="f" operator="in"/><feComposite in="SourceGraphic"/></filter></defs><g id="a"/><g id="b"><g id="c"><g><g><path class="j" d="M44.76,14.18c-1.14-2.69-2.77-5.11-4.84-7.18-2.07-2.07-4.49-3.7-7.18-4.84-2.79-1.18-5.74-1.78-8.79-1.78-4.04,0-8,1.08-11.46,3.12-3.32,1.96-6.1,4.74-8.05,8.07l.33,.19C8.75,4.98,16.08,.77,23.94,.77c12.25,0,22.21,9.96,22.21,22.21s-9.89,22.14-22.08,22.21v.39c3-.02,5.92-.61,8.67-1.78,2.69-1.14,5.11-2.77,7.18-4.84,2.07-2.07,3.7-4.49,4.84-7.18,1.18-2.79,1.78-5.74,1.78-8.79s-.6-6.01-1.78-8.79Z"/><path class="j" d="M2.7,22.98c0-3.58,.9-7.11,2.62-10.23l-2-1.16c-.91,1.64-1.62,3.38-2.11,5.19-.55,2.01-.82,4.1-.82,6.2,0,3.18,.62,6.27,1.85,9.17,1.19,2.81,2.89,5.32,5.05,7.49,2.16,2.16,4.68,3.86,7.49,5.05,2.77,1.17,5.7,1.79,8.72,1.85v-2.32c-11.51-.24-20.79-9.67-20.79-21.24Z"/></g><g><circle class="g" cx="23.87" cy="23.06" r="16.21"/><circle class="i" cx="23.87" cy="23.06" r="15.68"/></g><g class="k"><circle class="h" cx="24.5" cy="16.57" r="5.99" transform="translate(3.41 37.31) rotate(-78.58)"/><path class="h" d="M24.5,24.18c-1.75,0-3.38-.52-4.76-1.4-1.67,2.42-2.76,6.09-2.82,10.22h15.14c-.06-4.13-1.14-7.8-2.81-10.22-1.37,.88-3,1.4-4.76,1.4Z"/></g></g></g></g></svg>