<?xml version="1.0" encoding="utf-8"?>
<!-- Generator: Adobe Illustrator 26.2.1, SVG Export Plug-In . SVG Version: 6.00 Build 0)  -->
<svg version="1.1" id="Layer_1" xmlns="http://www.w3.org/2000/svg" xmlns:xlink="http://www.w3.org/1999/xlink" x="0px" y="0px"
	 viewBox="0 0 19.7 20.5" style="enable-background:new 0 0 19.7 20.5;" xml:space="preserve">
<style type="text/css">
	.st0{fill:#FFFFFF;}
	.st1{fill:#FFA255;stroke:#FFFFFF;stroke-width:0.51;stroke-miterlimit:10;}
</style>
<g id="Layer_1_00000117666682506789718940000006896560435268269489_">
</g>
<g id="Layer_2_00000053516082896528277840000016604240562329184191_">
	<g id="_層_1">
		<g>
			<g>
				<path class="st0" d="M16.3,11.5c0,0.1-0.1,0.1-0.1,0.1c0,0,0,0-0.1,0.1c-0.5,0.4-1.6,1.1-3.1,1.4c-0.1,0-0.3,0-0.4,0.1
					c-0.1,0-0.3,0-0.4,0c-0.5,0-0.9-0.1-1.4-0.2c-1.4-0.4-2.5-1.2-2.8-1.4c0,0-0.1-0.1-0.1-0.1l-0.1,0c-3.6,3.1-3.5,8.6-3.5,8.8v0.2
					h15.4v-0.2C19.4,14,16.9,11.9,16.3,11.5L16.3,11.5z"/>
				<path class="st0" d="M6.3,5.8c0,3.2,2.6,5.8,5.8,5.8l0,0c1.5,0,3-0.6,4.1-1.7c1.1-1.1,1.7-2.6,1.7-4.1c0-3.2-2.6-5.8-5.8-5.8
					C8.9,0,6.3,2.6,6.3,5.8z"/>
			</g>
			<path class="st1" d="M12,8.6c-0.1-2-1.7-2.4-1.7-2.4c-2-0.6-3.4,1.1-3.4,1.1S5.4,5.6,3.4,6.2c0,0-1.6,0.4-1.7,2.4
				c-0.1,2.2,3.8,5.9,5.1,6.8C8.2,14.5,12.1,10.8,12,8.6z"/>
		</g>
	</g>
</g>
</svg>
