<?xml version="1.0" encoding="UTF-8"?><svg xmlns="http://www.w3.org/2000/svg" xmlns:xlink="http://www.w3.org/1999/xlink" viewBox="0 0 46.92 46.92"><defs><style>.h{fill:url(#e);}.i{fill:url(#d);}.j{fill:#fff;}.k{fill:#d6226d;stroke:#d6226d;stroke-miterlimit:10;stroke-width:.77px;}.l{filter:url(#f);}</style><linearGradient id="d" x1="5363.41" y1="8440.72" x2="5395.83" y2="8440.72" gradientTransform="translate(-3233.03 9487.5) rotate(-128.5)" gradientUnits="userSpaceOnUse"><stop offset="0" stop-color="#ebebeb"/><stop offset="1" stop-color="#fafafa"/></linearGradient><radialGradient id="e" cx="23.87" cy="23.06" fx="23.87" fy="23.06" r="15.68" gradientTransform="matrix(1, 0, 0, 1, 0, 0)" gradientUnits="userSpaceOnUse"><stop offset="0" stop-color="#f19ec2"/><stop offset=".54" stop-color="#e85298"/><stop offset=".64" stop-color="#e74d95"/><stop offset=".74" stop-color="#e7418f"/><stop offset=".85" stop-color="#e62c84"/><stop offset=".95" stop-color="#e50f76"/><stop offset="1" stop-color="#e5006e"/></radialGradient><filter id="f" filterUnits="userSpaceOnUse"><feOffset dx="1.44" dy="1.44"/><feGaussianBlur result="g" stdDeviation="1.44"/><feFlood flood-color="#000" flood-opacity=".5"/><feComposite in2="g" operator="in"/><feComposite in="SourceGraphic"/></filter></defs><g id="a"/><g id="b"><g id="c"><g><g><path class="k" d="M44.76,14.18c-1.14-2.69-2.77-5.11-4.84-7.18-2.07-2.07-4.49-3.7-7.18-4.84-2.79-1.18-5.74-1.78-8.79-1.78-4.04,0-8,1.08-11.46,3.12-3.32,1.96-6.1,4.74-8.05,8.07l.33,.19C8.75,4.98,16.08,.77,23.94,.77c12.25,0,22.21,9.96,22.21,22.21s-9.89,22.14-22.08,22.21v.39c3-.02,5.92-.61,8.67-1.78,2.69-1.14,5.11-2.77,7.18-4.84,2.07-2.07,3.7-4.49,4.84-7.18,1.18-2.79,1.78-5.74,1.78-8.79s-.6-6.01-1.78-8.79Z"/><path class="k" d="M2.7,22.98c0-3.58,.9-7.11,2.62-10.23l-2-1.16c-.91,1.64-1.62,3.38-2.11,5.19-.55,2.01-.82,4.1-.82,6.2,0,3.18,.62,6.27,1.85,9.17,1.19,2.81,2.89,5.32,5.05,7.49,2.16,2.16,4.68,3.86,7.49,5.05,2.77,1.17,5.7,1.79,8.72,1.85v-2.32c-11.51-.24-20.79-9.67-20.79-21.24Z"/></g><g><circle class="i" cx="23.87" cy="23.06" r="16.21"/><circle class="h" cx="23.87" cy="23.06" r="15.68"/></g><g class="l"><circle class="j" cx="24.5" cy="16.57" r="5.99" transform="translate(3.41 37.31) rotate(-78.58)"/><path class="j" d="M24.5,24.18c-1.75,0-3.38-.52-4.76-1.4-1.67,2.42-2.76,6.09-2.82,10.22h15.14c-.06-4.13-1.14-7.8-2.81-10.22-1.37,.88-3,1.4-4.76,1.4Z"/></g></g></g></g></svg>