<?xml version="1.0" encoding="UTF-8"?>
<svg id="Layer_1" xmlns="http://www.w3.org/2000/svg" xmlns:xlink="http://www.w3.org/1999/xlink" version="1.1" viewBox="0 0 200 45.7">
  <!-- Generator: Adobe Illustrator 29.1.0, SVG Export Plug-In . SVG Version: 2.1.0 Build 142)  -->
  <defs>
    <style>
      .st0 {
        fill: url(#linear-gradient2);
      }

      .st1 {
        fill: url(#linear-gradient1);
      }

      .st2 {
        fill: url(#linear-gradient3);
      }

      .st3 {
        fill: #040403;
        opacity: .1;
      }

      .st3, .st4 {
        isolation: isolate;
      }

      .st5 {
        fill: url(#linear-gradient);
      }

      .st6 {
        fill: #fff;
      }
    </style>
    <linearGradient id="linear-gradient" x1="2.9" y1="21" x2="160.6" y2="21" gradientUnits="userSpaceOnUse">
      <stop offset="0" stop-color="#f9e0ac"/>
      <stop offset="1" stop-color="#f9b653"/>
    </linearGradient>
    <linearGradient id="linear-gradient1" x1="147.6" x2="196.2" xlink:href="#linear-gradient"/>
    <linearGradient id="linear-gradient2" x1="0" y1="25.8" x2="157.8" y2="25.8" gradientTransform="translate(0 46.8) scale(1 -1)" gradientUnits="userSpaceOnUse">
      <stop offset="0" stop-color="#f9b653"/>
      <stop offset="1" stop-color="#f9e0ac"/>
    </linearGradient>
    <linearGradient id="linear-gradient3" x1="144.7" x2="193.3" xlink:href="#linear-gradient2"/>
  </defs>
  <g class="st4">
    <g id="b">
      <g id="c">
        <g>
          <g>
            <path class="st3" d="M178.1,3.8h-29.5c12.1,0,21.9,9.4,21.9,21s-9.9,21-21.9,21h29.5c12.1,0,21.9-9.4,21.9-21s-9.9-21-21.9-21Z"/>
            <path class="st3" d="M25.7,45.7h116.8c12.1,0,21.9-9.4,21.9-21s-9.9-21-21.9-21H25.7c-12,0-21.9,9.4-21.9,21s9.9,21,21.9,21Z"/>
            <g>
              <g>
                <path class="st5" d="M160.6,21c0,11.5-9.9,21-21.9,21H24.8c-12.1,0-21.9-9.4-21.9-21S12.7,0,24.8,0h113.9C150.8,0,160.6,9.4,160.6,21h0Z"/>
                <path class="st1" d="M174.3,0h-26.7C159.7,0,169.5,9.4,169.5,21s-9.9,21-21.9,21h26.7c12.1,0,21.9-9.4,21.9-21S186.3,0,174.3,0Z"/>
              </g>
              <g>
                <g>
                  <path class="st0" d="M157.8,21c0,11.5-9.9,21-21.9,21H21.9C9.9,41.9,0,32.5,0,21S9.9,0,21.9,0h113.9C147.9,0,157.8,9.4,157.8,21h0Z"/>
                  <path class="st2" d="M171.4,0h-26.7C156.8,0,166.6,9.4,166.6,21s-9.9,21-21.9,21h26.7c12.1,0,21.9-9.4,21.9-21S183.5,0,171.4,0Z"/>
                </g>
                <path class="st6" d="M182.6,20.1c-2.9-2.9-5.7-5.8-8.6-8.7-1.1-1.1-2.8.6-1.7,1.7,2.6,2.6,5.2,5.3,7.8,7.9-2.6,2.6-5.2,5.3-7.8,7.9-1.1,1.1.6,2.8,1.7,1.7,2.9-2.9,5.7-5.8,8.6-8.7.5-.5.5-1.2,0-1.7Z"/>
              </g>
            </g>
          </g>
          <g>
            <path class="st6" d="M33.7,19.2h2.5c1,0,1.4.5,1.2,1.4l-1.5,5.7c0,.5.3.8.8,1,.9.3,2.5.5,4.6.5s4,0,5.7,0c1.5,0,2.9,0,3.9,0s.6,0,.7.2c.2.2.2.5,0,.9-.1.5-.3.9-.6,1-.2.2-.6.3-1,.3h-8.9c-3.4,0-5.6-.5-6.5-1.4-.2-.1-.3-.2-.5-.2s-.2,0-.2,0c-.5.4-1.1.8-1.8,1.1-.3.2-.6.3-.7.3-.3,0-.5,0-.6-.2-.2-.2-.4-.5-.5-1,0-.2,0-.3,0-.4.1-.4.4-.6.8-.8.6-.3,1.3-.7,2.1-1.1.2-.1.3-.2.3-.4l1.2-4.6c0-.1,0-.2-.1-.2h-1.6c-.4,0-.7-.1-.8-.3-.1-.1-.1-.4,0-.8,0-.4.3-.6.5-.8.2-.2.5-.3.9-.3h0ZM35.5,13.8c.2,0,.4,0,.6.2,1,.7,1.8,1.4,2.4,2.1.2.4.2.6.2.8,0,.3-.2.5-.5.8-.2.3-.5.4-.9.5-.2,0-.4,0-.6-.1-.2,0-.3-.2-.5-.4-.5-.6-1.2-1.2-1.9-1.7,0,0-.1-.2-.2-.2-.2-.2-.2-.5-.2-.8,0-.3.3-.6.6-.8.3-.2.6-.3.9-.3h0ZM37.5,9.5c.2,0,.4,0,.6.2,1,.6,1.8,1.3,2.5,1.9.2.3.2.6.2.8,0,.3-.2.5-.5.8-.2.3-.5.4-1,.5-.2,0-.4,0-.5-.1-.2-.1-.3-.2-.5-.3-.6-.6-1.2-1.1-1.9-1.6,0,0-.1-.2-.2-.2-.2-.2-.2-.4-.2-.7,0-.3.3-.6.6-.8.3-.2.6-.4.9-.4ZM48.2,9c.4,0,.7,0,.9.2.2.2.3.4.2.8,0,.2-.3.7-.7,1.4h4.3c.8,0,1.2.4,1,1.1l-1.1,4.3c-.2.8-.7,1.2-1.4,1.2h-8.9l-.4,1.5h9.4c.8,0,1.2.3,1,1l-1.1,4.2c-.2.9-.8,1.4-1.6,1.4h-10.6c-.9,0-1.2-.5-.9-1.6l3.1-11.6c.2-.9.8-1.4,1.7-1.4h2.9c.2-.5.5-1.1.8-1.7.3-.5.8-.7,1.5-.7h0ZM49,24l.6-2.3h-8.1l-.6,2.1c0,.1,0,.2.3.2h7.8ZM51.2,13.6h-7.2c-.2,0-.4,0-.4.3l-.6,2.2h7.5s.7-2.4.7-2.4Z"/>
            <path class="st6" d="M71.3,9.9c.2,0,.4,0,.6.2.2.2.3.4.2.7,0,.1-.1.3-.2.4-.3.4-1,1.2-2.1,2.3-1.4,1.4-2.3,2.3-2.8,2.6-.1.1-.4.2-.7.2-.2,0-.3-.1-.5-.3h0s-.2.9-.2.9c-.3,1-.9,1.5-1.9,1.5h-.2l-.8,2.8h1.3s0,0,0,0c.2-.3,1-1.3,2.5-3,1.3-1.5,2.1-2.4,2.4-2.8.1-.1.3-.2.5-.2s.4,0,.6.2c.2.2.2.4.2.6,0,.2-.1.3-.2.5-.2.4-.7,1.1-1.6,2.1l-2.8,10.6c0,.4-.3.7-.5.8-.2.2-.5.2-.9.2s-.6,0-.7-.2c-.2-.2-.2-.5,0-.8l1.9-7s0,0-.1,0c-.1,0-.3.1-.6.2,0,.1-.1.2-.2.3-.2.2-.5.4-.9.4h-1.2l-1,3.5c.5,0,1-.1,1.5-.2.3,0,.5.1.5.3,0,.2,0,.4,0,.7,0,.3-.2.5-.4.7-.2.1-.4.2-.8.3-2.3.6-4.5.9-6.5,1-.4,0-.7-.1-.8-.2-.1-.2-.1-.5,0-.8,0-.3.2-.6.4-.8.2-.1.4-.2.7-.3l1.9-6.9c0-.4.2-.6.4-.8.2-.1.5-.2.8-.2s.6,0,.7.2c.1.1.1.4,0,.8l-1.8,6.7c.3,0,.7,0,1-.1l2.3-8.7h-1.3c-1,0-1.3-.5-1-1.5l1.4-5.1c.3-1,.9-1.5,1.8-1.5h3.6c1,0,1.3.5,1.1,1.5l-.8,2.8c.4-.4,1.1-1.2,2.2-2.2,1.3-1.3,2.2-2,2.4-2.3.1-.1.3-.2.4-.2h0ZM63.2,16.4c.2,0,.4-.1.5-.4l.9-3.3c0-.3,0-.4-.3-.4h-1.6c-.2,0-.4.1-.4.4l-.9,3.3c0,.3,0,.4.2.4h1.6,0ZM74.9,18.4c.4,0,.7,0,.8.2.1.2.1.5,0,.8l-.5,1.8h2.1c.4,0,.6,0,.7.2.1.1.1.4,0,.8,0,.3-.2.5-.3.6-.2.2-.5.4-.9.4h-2.1l-1.1,4.2c.3,0,.7,0,1.1,0,.6,0,.9,0,1.1,0,.3,0,.6,0,.7.3.1.2.2.4,0,.7-.1.4-.3.7-.5.9-.3.2-.7.4-1.2.4h-2.5c-1,0-1.6,0-2-.2-.5-.1-.9-.6-1.3-1.3h0c-.3.6-.6,1.1-.9,1.5-.3.2-.6.3-1,.3s-.4,0-.6-.2c-.2-.1-.3-.4-.2-.8,0-.1.1-.3.3-.5.7-1.3,1.4-2.6,2-3.9.7-1.5,1.2-2.7,1.5-3.7.2-.6.6-.8,1-.8s.5,0,.7.1c.3.2.4.5.3.9-.1.5-.4,1.1-.7,2-.4.9-.7,1.8-1.1,2.5.1.7.3,1.1.6,1.5.1.2.3.4.6.5l2.1-7.9c.1-.4.3-.7.5-.8.2-.2.5-.2.9-.2h0ZM74.7,9.4c.3,0,.6,0,.8.2.2.1.3.4.2.7-.1.4-.2.7-.3.9-.2.6-.5,1.1-.7,1.6.2.5.4,1,.7,1.5,0,0,0,.2,0,.3.2-.4.5-.7.7-1.1.7-1.2,1.3-2.4,1.8-3.7.2-.3.5-.5.8-.6.3,0,.6,0,.8.2.2.1.3.4.2.7-.1.4-.2.7-.3.9-.3.8-.7,1.6-1.1,2.3.4.8.8,1.6,1.3,2.3.1.3.1.6,0,.9,0,.3-.2.6-.4.8-.2.3-.5.4-.8.4s-.5-.1-.7-.4c-.3-.6-.6-1.2-.8-1.8-.6.9-1.1,1.6-1.6,2.2-.2.2-.5.3-.8.3-.3,0-.6-.1-.7-.3-.2-.1-.2-.4-.1-.7,0-.2.2-.5.4-.7-.1,0-.2-.1-.3-.3-.2-.3-.3-.6-.5-1-.6,1.1-1.2,2-1.8,2.7-.2.2-.5.3-.8.4-.3,0-.6-.1-.7-.3-.2-.2-.2-.4-.1-.7,0-.2.2-.5.3-.7.6-.9,1.2-1.8,1.9-2.9.6-1.2,1.2-2.4,1.7-3.7.2-.3.5-.5.8-.6h0Z"/>
            <path class="st6" d="M84,17.7h19.3c.3,0,.6,0,.7.2.1.1.1.4,0,.8,0,.3-.2.5-.4.7-.2.2-.6.3-.9.3h-9.8l-2.6,9.6c-.1.4-.3.7-.5.8-.2.2-.5.3-.9.3s-.6,0-.7-.3c-.1-.2-.2-.4,0-.8l.2-.9c-2.7.5-5.2.8-7.6.8-.4,0-.6,0-.7-.2,0-.2,0-.5,0-.9,0-.3.2-.5.4-.7.3-.2.6-.3,1-.3.3,0,.5,0,.8,0l2-7.4h-.9c-.3,0-.6,0-.7-.2-.1-.1-.1-.4,0-.8,0-.4.2-.6.4-.8.2-.1.5-.2.8-.2h0ZM89,26.5l.2-.9h-4.3l-.3,1.3c1.5-.1,2.9-.2,4.4-.4h0ZM85.4,23.8h4.3l.3-1.1h-4.3l-.3,1.1ZM89.2,9.5h13.5c1.1,0,1.5.5,1.2,1.6l-1.1,4.1c-.3,1.1-1,1.6-2.1,1.6h-13.5c-1.1,0-1.5-.5-1.2-1.6l1.1-4.1c.3-1.1,1-1.6,2.1-1.6ZM90.5,20.9l.3-1.1h-4.3l-.3,1.1h4.3ZM100,15c.3,0,.5-.1.6-.4l.2-.6h-12l-.2.6c0,.3,0,.4.3.4h11.2ZM89.2,12.2h12v-.4c.2-.3.1-.5-.2-.5h-11.2c-.3,0-.5.2-.6.5,0,0-.1.4-.1.4ZM94.2,20.8h6.8c.5,0,.8,0,1.1.3.3.2.4.6.3,1-.2.8-.8,1.7-1.9,2.8-.7.7-1.5,1.4-2.3,2,.9.6,1.8,1.1,2.9,1.5.3.2.4.4.3.8,0,.4-.3.6-.6.9-.2.1-.5.2-.8.2-.7,0-1.6-.4-2.7-1.1-.4-.3-.8-.5-1.2-.8-.9.6-1.8,1.1-2.8,1.6-.3.2-.7.3-1.2.3-.4,0-.7-.1-.8-.4,0-.2,0-.4,0-.7,0-.3.3-.6.6-.8.9-.5,1.8-1,2.6-1.4-.4-.5-.8-.9-1.2-1.4-.2-.2-.3-.5-.4-.8,0-.3,0-.5,0-.8,0-.2.2-.4.4-.6.2-.1.4-.2.6-.2.2,0,.4.1.7.3.6.8,1.3,1.5,2,2.1.3-.2.6-.4.9-.7,1.1-.8,1.7-1.5,2-2.1,0-.1,0-.2-.2-.2h-5.6c-.6,0-.8-.3-.6-1,.2-.6.6-1,1.2-1Z"/>
            <path class="st6" d="M115.4,16.9c.8,0,1.1.3.9,1l-.4,1.6c0,.3,0,.4.3.4h4.1c.3,0,.6-.2.7-.4.2-.2.3-.6.5-1.2.2-.5.6-.7,1.2-.7.4,0,.6.1.8.2.2.2.3.5.2.8-.2.7-.5,1.4-1,2-.4.6-1.2.9-2.2,1h-4.5c0,.3-.3.6-.6.9h8.1c.6,0,1.1.1,1.3.4.2.3.3.6.2,1-.2.7-.8,1.4-1.9,2.1-.9.6-2.1,1.2-3.6,1.7.2,0,.5,0,.7.1,1.3.2,3,.3,5.1.3.6,0,.8.4.7.9,0,.4-.2.6-.4.8-.2.2-.5.4-1,.4-1.4,0-2.6,0-3.6-.2-1.8-.1-3.5-.5-5.1-1.1-1.8.5-3.8.9-5.8,1.2-1.6.2-2.8.3-3.8.3-.4,0-.6-.1-.7-.3,0-.2-.1-.4,0-.7.1-.5.5-.9,1.1-1.1,2.5-.3,4.7-.6,6.6-1-.7-.6-1.4-1.2-2-1.9-.3.2-.6.4-.9.5-.6.3-1.2.6-1.9.9-.4.2-.8.3-1.2.3-.3,0-.6-.1-.7-.4-.1-.2-.1-.4,0-.7,0-.2.3-.5.6-.6,1.2-.5,2.6-1.2,4.1-2.1,1-.7,1.9-1.2,2.5-1.7-.1,0-.2-.2-.3-.3-.1-.2,0-.6,0-1.1l.6-2.1c.2-.7.7-1,1.4-1h0ZM112.5,17.7c.2,0,.4.1.6.3.2.2.2.5.2.8,0,.3-.3.6-.7,1-.8.8-1.7,1.5-2.5,2.1-.3.3-.7.5-1,.7-.2.1-.4.2-.6.2-.4,0-.6-.1-.8-.4-.1-.2-.2-.5,0-.8.1-.3.3-.5.6-.8.6-.3,1.2-.8,2-1.4.8-.6,1.3-1.2,1.7-1.6.2-.2.5-.2.7-.2h0ZM129.9,9.2c.3,0,.5,0,.6.3.1.2.1.4,0,.6-.1.4-.4.7-.9.9-1.6.2-4.5.4-8.7.7-.3,0-.6,0-.9,0,.2.3.5.6.8,1.1.4.7.5,1.1.5,1.4h2c0-.1.1-.2.3-.4,0,0,.2-.2.4-.3.6-.4,1.1-.8,1.5-1.1.5-.4.8-.7.9-.8.3-.3.6-.4.8-.4s.5,0,.8.2c.2.2.3.4.2.8,0,.2-.2.4-.3.6-.4.4-.9.9-1.5,1.4,0,0,0,0,0,0h1.9c1.1,0,1.5.5,1.2,1.6l-.5,1.8c-.1.4-.3.7-.5.8-.3.2-.6.3-1,.3s-.8-.1-.9-.3c0-.2,0-.4,0-.8l.3-1.3c0-.2,0-.3-.3-.3h-7.2c.7.5,1.3.9,1.8,1.4.1.3.2.5.1.7,0,.2-.2.4-.4.6-.2.2-.5.4-.8.5-.2,0-.4,0-.5,0-.1,0-.3-.2-.4-.3-.5-.5-1.1-.9-1.7-1.4,0,0-.2-.1-.2-.2-.1-.2-.1-.4,0-.6,0-.2.2-.5.4-.7h-5.7c-.2,0-.3.1-.3.3l-.3,1.3c-.1.4-.3.7-.4.8-.2.2-.6.3-1,.3s-.7,0-.8-.2c-.2-.1-.2-.4,0-.8l.5-1.8c.3-1,.9-1.6,2-1.6h2.2c-.3-.6-.7-1.1-1.1-1.7,0-.1-.1-.2,0-.3,0-.1,0-.2.1-.3-.3,0-.7,0-1,0-.6,0-.8-.5-.6-1.2.1-.4.5-.7,1.1-.8,6.1,0,11.8-.4,17.1-.9.4,0,.8,0,.9,0h0ZM113.4,24.3c.5.5,1.1,1,1.6,1.4.4.3.8.6,1.3.8,1.9-.5,3.4-1,4.5-1.5.5-.3.7-.5.8-.6,0-.1,0-.2-.1-.2h-8ZM115.5,14.4h3.5c-.3-.6-.7-1.2-1.1-1.8,0-.1-.1-.3,0-.4,0-.1,0-.2.2-.3-1.2,0-2.4,0-3.7.1.2.2.5.6.8,1,.4.6.6,1,.5,1.3h0c0,0,0,0,0,0ZM125,18.4c.1,0,.3,0,.5.2,1.4,1.1,2.2,1.9,2.5,2.3,0,.2,0,.4,0,.6,0,.2-.2.5-.5.7-.3.3-.6.4-.9.4s-.4,0-.5-.2c-.8-1-1.6-1.8-2.3-2.5,0,0-.1-.1-.2-.2,0-.1,0-.3,0-.5,0-.2.2-.4.5-.6.2-.1.5-.2.7-.2Z"/>
          </g>
        </g>
      </g>
    </g>
  </g>
</svg>