<?xml version="1.0" encoding="utf-8"?>
<!-- Generator: Adobe Illustrator 26.2.1, SVG Export Plug-In . SVG Version: 6.00 Build 0)  -->
<svg version="1.1" id="Layer_1" xmlns="http://www.w3.org/2000/svg" xmlns:xlink="http://www.w3.org/1999/xlink" x="0px" y="0px"
	 viewBox="0 0 46.9 46.9" style="enable-background:new 0 0 46.9 46.9;" xml:space="preserve">
<style type="text/css">
	.st0{fill:#FF932C;stroke:#FF932C;stroke-width:0.77;stroke-miterlimit:10;}
	.st1{fill:#FF932C;}
	.st2{fill:url(#SVGID_1_);}
	.st3{fill:url(#SVGID_00000069386172604992109650000014826344899092650938_);}
	.st4{fill:#FFFFFF;}
</style>
<g id="a">
</g>
<g id="b">
	<g id="c">
		<g>
			<g>
				<path class="st0" d="M44.8,14.2C43.6,11.5,42,9.1,39.9,7s-4.5-3.7-7.2-4.8C29.9,1,27,0.4,23.9,0.4c-4,0-8,1.1-11.5,3.1
					c-3.3,2-6.1,4.7-8.1,8.1l0.3,0.2c4-6.8,11.3-11,19.2-11c12.3,0,22.2,10,22.2,22.2s-9.9,22.1-22.1,22.2v0.4c3,0,5.9-0.6,8.7-1.8
					c2.7-1.1,5.1-2.8,7.2-4.8s3.7-4.5,4.8-7.2c1.2-2.8,1.8-5.7,1.8-8.8S45.9,17,44.8,14.2L44.8,14.2z"/>
				<path class="st1" d="M2.7,23c0-3.6,0.9-7.1,2.6-10.2l-2-1.2c-0.9,1.6-1.6,3.4-2.1,5.2c-0.6,2-0.8,4.1-0.8,6.2
					c0,3.2,0.6,6.3,1.8,9.2c1.2,2.8,2.9,5.3,5.1,7.5c2.2,2.2,4.7,3.9,7.5,5c2.8,1.2,5.7,1.8,8.7,1.8v-2.3C12,44,2.7,34.5,2.7,23
					L2.7,23z"/>
			</g>
			<g>
				
					<linearGradient id="SVGID_1_" gradientUnits="userSpaceOnUse" x1="4012.4341" y1="-8324.2627" x2="4044.8552" y2="-8324.2627" gradientTransform="matrix(-0.6225 -0.7826 -0.7826 0.6225 -3982.9631 8357.7754)">
					<stop  offset="0" style="stop-color:#EBEBEB"/>
					<stop  offset="1" style="stop-color:#FAFAFA"/>
				</linearGradient>
				<circle class="st2" cx="23.9" cy="23.1" r="16.2"/>
				
					<radialGradient id="SVGID_00000018953322003806647440000004720083728410394500_" cx="23.87" cy="24.94" r="15.68" gradientTransform="matrix(1 0 0 -1 0 48)" gradientUnits="userSpaceOnUse">
					<stop  offset="5.052174e-04" style="stop-color:#FFDDA9"/>
					<stop  offset="0.46" style="stop-color:#FFC369"/>
					<stop  offset="1" style="stop-color:#FF9800"/>
				</radialGradient>
				<circle style="fill:url(#SVGID_00000018953322003806647440000004720083728410394500_);" cx="23.9" cy="23.1" r="15.7"/>
			</g>
			<g>
				<circle class="st4" cx="24.5" cy="16.6" r="6"/>
				<path class="st4" d="M24.5,24.2c-1.8,0-3.4-0.5-4.8-1.4c-1.7,2.4-2.8,6.1-2.8,10.2h15.1c-0.1-4.1-1.1-7.8-2.8-10.2
					C27.9,23.7,26.3,24.2,24.5,24.2L24.5,24.2z"/>
			</g>
		</g>
	</g>
</g>
<g id="Layer_2_00000028297541033469402840000001300432649219931823_">
	<g id="圖層_1">
		<path class="st4" d="M58.5-36c0,0.3-0.2,0.6-0.5,0.7c-0.1,0-0.1,0-0.2,0c-0.4,0-0.6-0.2-0.6-0.7v-11.6l-2.7,3.7
			c-0.1,0.2-0.3,0.2-0.5,0.2s-0.3-0.1-0.4-0.2c-0.2-0.1-0.3-0.3-0.3-0.4c0-0.2,0.1-0.3,0.2-0.5l2.3-3.3c0.3-0.4,0.6-0.7,0.9-1.1
			c0.3-0.2,0.6-0.3,1-0.3c0.5,0,0.8,0.3,0.8,1.1V-36z"/>
	</g>
</g>
</svg>
