<?xml version="1.0" encoding="utf-8"?>
<!-- Generator: Adobe Illustrator 26.2.1, SVG Export Plug-In . SVG Version: 6.00 Build 0)  -->
<svg version="1.1" id="Layer_1" xmlns="http://www.w3.org/2000/svg" xmlns:xlink="http://www.w3.org/1999/xlink" x="0px" y="0px"
	 viewBox="0 0 20.1 20.5" style="enable-background:new 0 0 20.1 20.5;" xml:space="preserve">
<style type="text/css">
	.st0{fill:#F9B653;}
</style>
<g id="Layer_1_00000020390440045072453580000007162898649904981916_">
</g>
<path class="st0" d="M16.7,11.5c0,0.1-0.1,0.1-0.1,0.1s0,0-0.1,0.1c-0.5,0.4-1.6,1.1-3.1,1.4c-0.1,0-0.3,0-0.4,0.1
	c-0.1,0-0.3,0-0.4,0c-0.5,0-0.9-0.1-1.4-0.2c-0.2-0.1-0.5-0.2-0.7-0.2c0.4-0.4,0.7-0.8,1-1.3c0.3,0.1,0.7,0.1,1.1,0.1
	c1.5,0,3-0.6,4.1-1.7c1.1-1.1,1.7-2.6,1.7-4.1c0-3.2-2.6-5.8-5.8-5.8C9.4,0,6.8,2.6,6.8,5.8c0,0.3,0,0.5,0.1,0.8
	c-0.6-0.5-1.7-1-3-0.6c0,0-1.8,0.5-1.9,2.6c-0.1,1.9,2.3,4.5,4,6c-1.3,2.7-1.3,5.6-1.3,5.7v0.2H20v-0.2C19.9,14,17.4,11.9,16.7,11.5
	z M2.5,8.6C2.5,6.8,3.9,6.5,4,6.4c0.3-0.1,0.5-0.1,0.8-0.1c1.4,0,2.3,1.1,2.3,1.1l0.2,0.2l0.2-0.2c0.1-0.1,1.3-1.6,3.1-1
	c0.1,0,1.4,0.4,1.5,2.2l0,0c0.2,2-3.5,5.4-4.8,6.5C5.7,13.9,2.4,10.5,2.5,8.6z"/>
</svg>
