<?xml version="1.0" encoding="UTF-8"?>
<svg xmlns="http://www.w3.org/2000/svg" width="30" height="41.01" viewBox="0 0 30 41.01">
  <defs>
    <style>
      .cls-1 {
        fill: #fff;
      }
    </style>
  </defs>
  <g id="Layer_1" data-name="Layer 1"/>
  <g id="Layer_2" data-name="Layer 2">
    <g id="_層1" data-name="圖層1">
      <g>
        <rect class="cls-1" x="6.5" y="0" width="17" height="6.46" rx=".75" ry=".75"/>
        <path class="cls-1" d="M29.21,2.94h-3.66v3.1c0,1.31-1.07,2.37-2.37,2.37H6.82c-1.31,0-2.37-1.06-2.37-2.37V2.94H.79c-.44,0-.79,.35-.79,.79V40.22c0,.44,.35,.79,.79,.79H29.21c.44,0,.79-.35,.79-.79V3.73c0-.44-.35-.79-.79-.79Zm-5.71,32.63H6.5c-.83,0-1.5-.67-1.5-1.5s.67-1.5,1.5-1.5H23.5c.83,0,1.5,.67,1.5,1.5s-.67,1.5-1.5,1.5Zm0-7.31H6.5c-.83,0-1.5-.67-1.5-1.5s.67-1.5,1.5-1.5H23.5c.83,0,1.5,.67,1.5,1.5s-.67,1.5-1.5,1.5Zm0-11.81H13.35c-.23,0-.45-.06-.65-.15l-3.33,5.04c-.58,.88-1.85,.93-2.5,.12l-3.4-4.24c-.53-.67-.43-1.64,.24-2.18,.67-.54,1.64-.43,2.18,.24l2.07,2.58,4.42-6.7c.47-.71,1.43-.91,2.14-.44,.71,.47,.91,1.43,.44,2.14l-.39,.59h8.93c.83,0,1.5,.67,1.5,1.5s-.67,1.5-1.5,1.5Z"/>
      </g>
    </g>
  </g>
</svg>