<?xml version="1.0" encoding="UTF-8"?><svg xmlns="http://www.w3.org/2000/svg" xmlns:xlink="http://www.w3.org/1999/xlink" viewBox="0 0 100 99.91"><defs><style>.i{fill:url(#f);}.j{fill:#fff;}.k{filter:url(#d);}.l{filter:url(#g);}.m{opacity:.13;}</style><filter id="d" filterUnits="userSpaceOnUse"><feOffset dx="4.16" dy="4.16"/><feGaussianBlur result="e" stdDeviation="2.77"/><feFlood flood-color="#000" flood-opacity=".5"/><feComposite in2="e" operator="in"/><feComposite in="SourceGraphic"/></filter><radialGradient id="f" cx="50.07" cy="49.97" fx="50.07" fy="49.97" r="49.94" gradientTransform="matrix(1, 0, 0, 1, 0, 0)" gradientUnits="userSpaceOnUse"><stop offset="0" stop-color="#f19ec2"/><stop offset=".54" stop-color="#e85298"/><stop offset=".64" stop-color="#e74d95"/><stop offset=".74" stop-color="#e7418f"/><stop offset=".85" stop-color="#e62c84"/><stop offset=".95" stop-color="#e50f76"/><stop offset="1" stop-color="#e5006e"/></radialGradient><filter id="g" filterUnits="userSpaceOnUse"><feOffset dx="3.17" dy="3.17"/><feGaussianBlur result="h" stdDeviation="3.17"/><feFlood flood-color="#000" flood-opacity=".5"/><feComposite in2="h" operator="in"/><feComposite in="SourceGraphic"/></filter></defs><g id="a"/><g id="b"><g id="c"><g class="k"><circle class="i" cx="50.07" cy="49.97" r="49.94"/><path class="m" d="M79.33,9.56C7.85,6.5,5.5,72.24,5.49,72.72,1.98,65.88,0,58.14,0,49.94,0,22.36,22.36,0,49.94,0c10.99,0,21.15,3.55,29.39,9.56Z"/><g class="l"><rect class="j" x="29.53" y="55.02" width="20.27" height="20.27"/><polygon class="j" points="49.79 44.4 49.79 51.65 26.15 51.65 26.15 38.14 46.42 38.14 49.79 38.14 49.79 44.4"/><path class="j" d="M50.69,35.65c-1.37,0-2.49-1.11-2.49-2.49v-.16c0-.56,.19-1.07,.49-1.48-1.15-1.16-7.11-6.91-9.67-3.31-2.83,3.99,6.4,7.66,6.4,7.66-15.42-.16-11.85-9.7-8.49-12.74,3.36-3.04,4.88-.42,4.88-.42l7.46,8.26c.4-.28,.89-.44,1.41-.44h2.1c.53,0,1.01,.16,1.41,.44l7.46-8.26s1.52-2.62,4.88,.42c3.36,3.04,6.92,12.58-8.49,12.74,0,0,9.23-3.67,6.4-7.66-2.55-3.59-8.52,2.15-9.66,3.31,.31,.41,.49,.93,.49,1.48v.16c0,1.37-1.11,2.49-2.49,2.49h-2.1Z"/><rect class="j" x="53.17" y="55.2" width="20.27" height="20.27"/><polygon class="j" points="76.81 51.65 53.17 51.65 53.17 44.4 53.17 38.14 56.55 38.14 76.81 38.14 76.81 51.65"/></g></g></g></g></svg>