<?xml version="1.0" encoding="UTF-8"?><svg xmlns="http://www.w3.org/2000/svg" xmlns:xlink="http://www.w3.org/1999/xlink" viewBox="0 0 120 120"><defs><style>.m{fill:url(#d);filter:url(#e);mix-blend-mode:soft-light;}.n{fill:#d6226d;}.o{filter:url(#j);}.p{isolation:isolate;}.q{fill:url(#l);opacity:.13;}.r{fill:url(#g);filter:url(#h);mix-blend-mode:hard-light;}</style><radialGradient id="d" cx="55.56" cy="55.1" fx="55.56" fy="55.1" r="49.94" gradientTransform="matrix(1, 0, 0, 1, 0, 0)" gradientUnits="userSpaceOnUse"><stop offset="0" stop-color="#f0eeeb"/><stop offset="0" stop-color="#eae7e3"/><stop offset=".52" stop-color="#f9f9f9"/><stop offset=".61" stop-color="#eaeaea"/><stop offset=".78" stop-color="#c6c3c4"/><stop offset="1" stop-color="#8e888b"/></radialGradient><filter id="e" filterUnits="userSpaceOnUse"><feOffset dx="4.64" dy="4.64"/><feGaussianBlur result="f" stdDeviation="3.1"/><feFlood flood-color="#000" flood-opacity=".5"/><feComposite in2="f" operator="in"/><feComposite in="SourceGraphic"/></filter><linearGradient id="g" x1="55.56" y1="105.04" x2="55.56" y2="5.17" gradientTransform="matrix(1, 0, 0, 1, 0, 0)" gradientUnits="userSpaceOnUse"><stop offset="0" stop-color="#8e888b"/><stop offset=".02" stop-color="#979194"/><stop offset=".12" stop-color="#bab6b8"/><stop offset=".22" stop-color="#d5d3d4"/><stop offset=".31" stop-color="#e9e8e8"/><stop offset=".41" stop-color="#f5f4f4"/><stop offset=".5" stop-color="#f9f9f9"/><stop offset="1" stop-color="#eae7e3"/><stop offset="1" stop-color="#f0eeeb"/></linearGradient><filter id="h" filterUnits="userSpaceOnUse"><feOffset dx="4.64" dy="4.64"/><feGaussianBlur result="i" stdDeviation="3.1"/><feFlood flood-color="#000" flood-opacity=".5"/><feComposite in2="i" operator="in"/><feComposite in="SourceGraphic"/></filter><filter id="j" filterUnits="userSpaceOnUse"><feOffset dx="3.17" dy="3.17"/><feGaussianBlur result="k" stdDeviation="3.17"/><feFlood flood-color="#000" flood-opacity=".5"/><feComposite in2="k" operator="in"/><feComposite in="SourceGraphic"/></filter><radialGradient id="l" cx="45.16" cy="41.49" fx="45.16" fy="41.49" r="38.05" gradientTransform="matrix(1, 0, 0, 1, 0, 0)" gradientUnits="userSpaceOnUse"><stop offset="0" stop-color="#f0eeeb"/><stop offset="0" stop-color="#fbfaf9"/><stop offset="0" stop-color="#fff"/><stop offset=".15" stop-color="#f0f0f0"/><stop offset=".44" stop-color="#c9caca"/><stop offset=".52" stop-color="#bdbebe"/><stop offset=".6" stop-color="#b3b4b4"/><stop offset=".72" stop-color="#999b9c"/><stop offset=".88" stop-color="#6e7375"/><stop offset="1" stop-color="#4c5355"/></radialGradient></defs><g class="p"><g id="a"/><g id="b"><g id="c"><g><circle class="m" cx="55.56" cy="55.1" r="49.94"/><circle class="r" cx="55.56" cy="55.1" r="49.94"/><g class="o"><rect class="n" x="35.03" y="60.15" width="20.27" height="20.27"/><polygon class="n" points="55.29 49.53 55.29 56.77 31.65 56.77 31.65 43.26 51.92 43.26 55.29 43.26 55.29 49.53"/><path class="n" d="M56.19,40.78c-1.37,0-2.49-1.11-2.49-2.49v-.16c0-.56,.19-1.07,.49-1.48-1.15-1.16-7.11-6.91-9.67-3.31-2.83,3.99,6.4,7.66,6.4,7.66-15.42-.16-11.85-9.7-8.49-12.74,3.36-3.04,4.88-.42,4.88-.42l7.46,8.26c.4-.28,.89-.44,1.41-.44h2.1c.53,0,1.01,.16,1.41,.44l7.46-8.26s1.52-2.62,4.88,.42c3.36,3.04,6.92,12.58-8.49,12.74,0,0,9.23-3.67,6.4-7.66-2.55-3.59-8.52,2.15-9.66,3.31,.31,.41,.49,.93,.49,1.48v.16c0,1.37-1.11,2.49-2.49,2.49h-2.1Z"/><rect class="n" x="58.67" y="60.33" width="20.27" height="20.27"/><polygon class="n" points="82.31 56.77 58.67 56.77 58.67 49.53 58.67 43.26 62.05 43.26 82.31 43.26 82.31 56.77"/></g><path class="q" d="M84.83,14.69C13.35,11.62,11,77.37,10.99,77.84c-3.51-6.83-5.49-14.57-5.49-22.78C5.5,27.48,27.86,5.13,55.43,5.13c10.99,0,21.15,3.55,29.39,9.56Z"/></g></g></g></g></svg>