<?xml version="1.0" encoding="utf-8"?>
<!-- Generator: Adobe Illustrator 26.2.1, SVG Export Plug-In . SVG Version: 6.00 Build 0)  -->
<svg version="1.1" id="Layer_1" xmlns="http://www.w3.org/2000/svg" xmlns:xlink="http://www.w3.org/1999/xlink" x="0px" y="0px"
	 viewBox="0 0 16 17" style="enable-background:new 0 0 16 17;" xml:space="preserve">
<style type="text/css">
	.st0{fill:#A27100;}
</style>
<g id="a">
</g>
<g id="b">
	<g id="c">
		<g>
			<rect x="1.1" y="10.5" class="st0" width="6.4" height="6.4"/>
			<polygon class="st0" points="7.5,7.2 7.5,9.5 0,9.5 0,5.2 6.4,5.2 7.5,5.2 			"/>
			<path class="st0" d="M7.8,4.4C7.3,4.4,7,4.1,7,3.6v0C7,3.4,7,3.2,7.1,3.1c-0.4-0.4-2.2-2.2-3.1-1c-0.9,1.3,2,2.4,2,2.4
				c-4.9,0-3.7-3.1-2.7-4s1.5-0.1,1.5-0.1l2.4,2.6c0.1-0.1,0.3-0.1,0.4-0.1h0.7c0.2,0,0.3,0,0.4,0.1l2.4-2.6c0,0,0.5-0.8,1.5,0.1
				s2.2,4-2.7,4c0,0,2.9-1.2,2-2.4c-0.8-1.1-2.7,0.7-3.1,1c0.1,0.1,0.2,0.3,0.2,0.5v0c0,0.4-0.4,0.8-0.8,0.8H7.8L7.8,4.4z"/>
			<rect x="8.5" y="10.6" class="st0" width="6.4" height="6.4"/>
			<polygon class="st0" points="16,9.5 8.5,9.5 8.5,7.2 8.5,5.2 9.6,5.2 16,5.2 			"/>
		</g>
	</g>
</g>
</svg>
