<?xml version="1.0" encoding="utf-8"?>
<!-- Generator: Adobe Illustrator 26.2.1, SVG Export Plug-In . SVG Version: 6.00 Build 0)  -->
<svg version="1.1" id="Layer_1" xmlns="http://www.w3.org/2000/svg" xmlns:xlink="http://www.w3.org/1999/xlink" x="0px" y="0px"
	 viewBox="0 0 17 18.1" style="enable-background:new 0 0 17 18.1;" xml:space="preserve">
<style type="text/css">
	.st0{fill:url(#SVGID_1_);}
	.st1{fill:url(#SVGID_00000091715738084711983400000005580872214864976574_);}
	.st2{fill:url(#SVGID_00000098929142000676678050000017955969386521020058_);}
	.st3{fill:url(#SVGID_00000111154491582580285160000001854063753537467013_);}
	.st4{fill:url(#SVGID_00000088847890217062284570000013016127522278479765_);}
</style>
<g id="Layer_1_00000093866754983309201800000012001396574485764737_">
</g>
<g id="Layer_2_00000041287339781695626200000010754444882381700509_">
	<g id="_層_1">
		<g>
			<linearGradient id="SVGID_1_" gradientUnits="userSpaceOnUse" x1="1.13" y1="14.6" x2="7.93" y2="14.6">
				<stop  offset="4.726487e-04" style="stop-color:#FF9800"/>
				<stop  offset="1" style="stop-color:#FFB033"/>
			</linearGradient>
			<rect x="1.1" y="11.2" class="st0" width="6.8" height="6.8"/>
			
				<linearGradient id="SVGID_00000061459542651345166290000012791034984657474962_" gradientUnits="userSpaceOnUse" x1="0" y1="7.8" x2="7.93" y2="7.8">
				<stop  offset="4.726487e-04" style="stop-color:#FF9800"/>
				<stop  offset="1" style="stop-color:#FFB033"/>
			</linearGradient>
			<polygon style="fill:url(#SVGID_00000061459542651345166290000012791034984657474962_);" points="7.9,7.6 7.9,10.1 0,10.1 0,5.5 
				6.8,5.5 7.9,5.5 			"/>
			
				<linearGradient id="SVGID_00000147182855853941124670000013375510971891308471_" gradientUnits="userSpaceOnUse" x1="2.6402" y1="2.3886" x2="14.5406" y2="2.3886">
				<stop  offset="4.726487e-04" style="stop-color:#FF9800"/>
				<stop  offset="1" style="stop-color:#FFB033"/>
			</linearGradient>
			<path style="fill:url(#SVGID_00000147182855853941124670000013375510971891308471_);" d="M8.2,4.7c-0.5,0-0.8-0.4-0.8-0.8v0
				c0-0.2,0.1-0.4,0.2-0.5C7.2,2.9,5.2,1,4.3,2.2c-1,1.3,2.2,2.6,2.2,2.6c-5.2-0.1-4-3.3-2.9-4.3s1.6-0.1,1.6-0.1l2.5,2.8
				C7.9,3,8.1,3,8.2,3h0.7C9.1,3,9.3,3,9.4,3.1l2.5-2.8c0,0,0.5-0.9,1.6,0.1s2.3,4.2-2.8,4.3c0,0,3.1-1.2,2.1-2.6
				C12,1,10,2.9,9.6,3.3c0.1,0.1,0.2,0.3,0.2,0.5v0c0,0.5-0.4,0.8-0.8,0.8L8.2,4.7L8.2,4.7z"/>
			
				<linearGradient id="SVGID_00000127017126153201481740000006049666286119659685_" gradientUnits="userSpaceOnUse" x1="9.07" y1="14.66" x2="15.87" y2="14.66">
				<stop  offset="4.726487e-04" style="stop-color:#FF9800"/>
				<stop  offset="1" style="stop-color:#FFB033"/>
			</linearGradient>
			
				<rect x="9.1" y="11.3" style="fill:url(#SVGID_00000127017126153201481740000006049666286119659685_);" width="6.8" height="6.8"/>
			
				<linearGradient id="SVGID_00000170239064647923104690000014537439454371547522_" gradientUnits="userSpaceOnUse" x1="9.07" y1="7.8" x2="17" y2="7.8">
				<stop  offset="4.726487e-04" style="stop-color:#FF9800"/>
				<stop  offset="1" style="stop-color:#FFB033"/>
			</linearGradient>
			<polygon style="fill:url(#SVGID_00000170239064647923104690000014537439454371547522_);" points="17,10.1 9.1,10.1 9.1,7.6 
				9.1,5.5 10.2,5.5 17,5.5 			"/>
		</g>
	</g>
</g>
</svg>
