<?xml version="1.0" encoding="utf-8"?>
<!-- Generator: Adobe Illustrator 26.2.1, SVG Export Plug-In . SVG Version: 6.00 Build 0)  -->
<svg version="1.1" id="Layer_1" xmlns="http://www.w3.org/2000/svg" xmlns:xlink="http://www.w3.org/1999/xlink" x="0px" y="0px"
	 viewBox="0 0 100 99.9" style="enable-background:new 0 0 100 99.9;" xml:space="preserve">
<style type="text/css">
	.st0{fill:url(#SVGID_1_);}
	.st1{opacity:0.13;fill:#2D0F03;enable-background:new    ;}
	.st2{fill:#FFFFFF;}
</style>
<g id="a">
</g>
<g id="b">
	<g id="c">
		<g>
			
				<radialGradient id="SVGID_1_" cx="50.07" cy="52.03" r="49.94" gradientTransform="matrix(1 0 0 -1 0 102)" gradientUnits="userSpaceOnUse">
				<stop  offset="4.726487e-04" style="stop-color:#FF9800"/>
				<stop  offset="1" style="stop-color:#FFB033"/>
			</radialGradient>
			<circle class="st0" cx="50.1" cy="50" r="49.9"/>
			<path class="st1" d="M79.3,9.6C7.8,6.5,5.5,72.2,5.5,72.7C2,65.9,0,58.1,0,49.9C0,22.4,22.4,0,49.9,0C60.9,0,71.1,3.5,79.3,9.6z"
				/>
			<g>
				<rect x="29.5" y="55" class="st2" width="20.3" height="20.3"/>
				<polygon class="st2" points="49.8,44.4 49.8,51.7 26.1,51.7 26.1,38.1 46.4,38.1 49.8,38.1 				"/>
				<path class="st2" d="M50.7,35.7c-1.4,0-2.5-1.1-2.5-2.5V33c0-0.6,0.2-1.1,0.5-1.5c-1.2-1.2-7.1-6.9-9.7-3.3
					c-2.8,4,6.4,7.7,6.4,7.7c-15.4-0.2-11.8-9.7-8.5-12.7s4.9-0.4,4.9-0.4l7.5,8.3c0.4-0.3,0.9-0.4,1.4-0.4h2.1c0.5,0,1,0.2,1.4,0.4
					l7.5-8.3c0,0,1.5-2.6,4.9,0.4s6.9,12.6-8.5,12.7c0,0,9.2-3.7,6.4-7.7c-2.5-3.6-8.5,2.1-9.7,3.3c0.3,0.4,0.5,0.9,0.5,1.5v0.2
					c0,1.4-1.1,2.5-2.5,2.5L50.7,35.7L50.7,35.7z"/>
				<rect x="53.2" y="55.2" class="st2" width="20.3" height="20.3"/>
				<polygon class="st2" points="76.8,51.7 53.2,51.7 53.2,44.4 53.2,38.1 56.5,38.1 76.8,38.1 				"/>
			</g>
		</g>
	</g>
</g>
</svg>
