<?xml version="1.0" encoding="UTF-8"?><svg xmlns="http://www.w3.org/2000/svg" xmlns:xlink="http://www.w3.org/1999/xlink" viewBox="0 0 59 59"><defs><style>.i{fill:#e9528e;}.j{filter:url(#g);}.k{fill:#ffd7f5;filter:url(#e);stroke:url(#d);stroke-miterlimit:10;stroke-width:2.16px;}</style><linearGradient id="d" x1="5.75" y1="27.29" x2="48.29" y2="27.29" gradientTransform="matrix(1, 0, 0, 1, 0, 0)" gradientUnits="userSpaceOnUse"><stop offset="0" stop-color="#fff"/><stop offset=".04" stop-color="#fbe5ef"/><stop offset=".13" stop-color="#f4b7d4"/><stop offset=".21" stop-color="#ef92bd"/><stop offset=".3" stop-color="#eb75ac"/><stop offset=".38" stop-color="#e8609f"/><stop offset=".46" stop-color="#e65498"/><stop offset=".54" stop-color="#e65096"/><stop offset="1" stop-color="#e6006e"/></linearGradient><filter id="e" filterUnits="userSpaceOnUse"><feOffset dx="2.02" dy="2.02"/><feGaussianBlur result="f" stdDeviation="2.02"/><feFlood flood-color="#000" flood-opacity=".5"/><feComposite in2="f" operator="in"/><feComposite in="SourceGraphic"/></filter><filter id="g" filterUnits="userSpaceOnUse"><feOffset dx="1.47" dy="1.47"/><feGaussianBlur result="h" stdDeviation="1.47"/><feFlood flood-color="#000" flood-opacity=".5"/><feComposite in2="h" operator="in"/><feComposite in="SourceGraphic"/></filter></defs><g id="a"/><g id="b"><g id="c"><g><circle class="k" cx="27.02" cy="27.29" r="20.19"/><g class="j"><rect class="i" x="16.81" y="29.45" width="9.42" height="9.42"/><polygon class="i" points="26.24 24.51 26.24 27.88 15.24 27.88 15.24 21.6 24.67 21.6 26.24 21.6 26.24 24.51"/><path class="i" d="M26.65,20.45c-.64,0-1.16-.52-1.16-1.16v-.08c0-.26,.09-.5,.23-.69-.53-.54-3.31-3.21-4.49-1.54-1.32,1.85,2.97,3.56,2.97,3.56-7.17-.07-5.51-4.51-3.95-5.92,1.56-1.41,2.27-.19,2.27-.19l3.47,3.84c.19-.13,.41-.21,.66-.21h.98c.24,0,.47,.08,.66,.21l3.47-3.84s.71-1.22,2.27,.19c1.56,1.41,3.22,5.85-3.95,5.92,0,0,4.29-1.71,2.97-3.56-1.19-1.67-3.96,1-4.49,1.54,.14,.19,.23,.43,.23,.69v.08c0,.64-.52,1.16-1.16,1.16h-.98Z"/><rect class="i" x="27.81" y="29.54" width="9.42" height="9.42"/><polygon class="i" points="38.8 27.88 27.81 27.88 27.81 24.51 27.81 21.6 29.38 21.6 38.8 21.6 38.8 27.88"/></g></g></g></g></svg>