<?xml version="1.0" encoding="utf-8"?>
<!-- Generator: Adobe Illustrator 26.2.1, SVG Export Plug-In . SVG Version: 6.00 Build 0)  -->
<svg version="1.1" id="Layer_1" xmlns="http://www.w3.org/2000/svg" xmlns:xlink="http://www.w3.org/1999/xlink" x="0px" y="0px"
	 viewBox="0 0 120 120" style="enable-background:new 0 0 120 120;" xml:space="preserve">
<style type="text/css">
	.st0{fill:url(#SVGID_1_);}
	.st1{fill:url(#SVGID_00000078005037373206002160000003790434709254196116_);}
	.st2{fill:#FF9800;}
	.st3{opacity:0.13;fill:url(#SVGID_00000011751200734538109580000004442306868068212106_);enable-background:new    ;}
</style>
<g>
	<g id="a">
	</g>
	<g id="b">
		<g id="c">
			<g>
				
					<radialGradient id="SVGID_1_" cx="55.56" cy="66.9" r="49.94" gradientTransform="matrix(1 0 0 -1 0 122)" gradientUnits="userSpaceOnUse">
					<stop  offset="0" style="stop-color:#F0EEEB"/>
					<stop  offset="0" style="stop-color:#EAE7E3"/>
					<stop  offset="0.52" style="stop-color:#F9F9F9"/>
					<stop  offset="0.61" style="stop-color:#EAEAEA"/>
					<stop  offset="0.78" style="stop-color:#C6C3C4"/>
					<stop  offset="1" style="stop-color:#8E888B"/>
				</radialGradient>
				<circle class="st0" cx="55.6" cy="55.1" r="49.9"/>
				
					<linearGradient id="SVGID_00000004528530321049141860000000653688819795754380_" gradientUnits="userSpaceOnUse" x1="55.56" y1="16.96" x2="55.56" y2="116.84" gradientTransform="matrix(1 0 0 -1 0 122)">
					<stop  offset="0" style="stop-color:#8E888B"/>
					<stop  offset="2.000000e-02" style="stop-color:#979194"/>
					<stop  offset="0.12" style="stop-color:#BAB6B8"/>
					<stop  offset="0.22" style="stop-color:#D5D3D4"/>
					<stop  offset="0.31" style="stop-color:#E9E8E8"/>
					<stop  offset="0.41" style="stop-color:#F5F4F4"/>
					<stop  offset="0.5" style="stop-color:#F9F9F9"/>
					<stop  offset="1" style="stop-color:#EAE7E3"/>
					<stop  offset="1" style="stop-color:#F0EEEB"/>
				</linearGradient>
				<circle style="fill:url(#SVGID_00000004528530321049141860000000653688819795754380_);" cx="55.6" cy="55.1" r="49.9"/>
				<g>
					<rect x="35" y="60.2" class="st2" width="20.3" height="20.3"/>
					<polygon class="st2" points="55.3,49.5 55.3,56.8 31.6,56.8 31.6,43.3 51.9,43.3 55.3,43.3 					"/>
					<path class="st2" d="M56.2,40.8c-1.4,0-2.5-1.1-2.5-2.5v-0.2c0-0.6,0.2-1.1,0.5-1.5c-1.2-1.2-7.1-6.9-9.7-3.3
						c-2.8,4,6.4,7.7,6.4,7.7c-15.4-0.2-11.8-9.7-8.5-12.7s4.9-0.4,4.9-0.4l7.5,8.3c0.4-0.3,0.9-0.4,1.4-0.4h2.1
						c0.5,0,1,0.2,1.4,0.4l7.5-8.3c0,0,1.5-2.6,4.9,0.4s6.9,12.6-8.5,12.7c0,0,9.2-3.7,6.4-7.7c-2.6-3.6-8.5,2.2-9.7,3.3
						c0.3,0.4,0.5,0.9,0.5,1.5v0.2c0,1.4-1.1,2.5-2.5,2.5L56.2,40.8L56.2,40.8z"/>
					<rect x="58.7" y="60.3" class="st2" width="20.3" height="20.3"/>
					<polygon class="st2" points="82.3,56.8 58.7,56.8 58.7,49.5 58.7,43.3 62,43.3 82.3,43.3 					"/>
				</g>
				
					<radialGradient id="SVGID_00000032639907122709272650000011065578675351162496_" cx="45.165" cy="80.515" r="38.046" gradientTransform="matrix(1 0 0 -1 0 122)" gradientUnits="userSpaceOnUse">
					<stop  offset="0" style="stop-color:#F0EEEB"/>
					<stop  offset="0" style="stop-color:#FBFAF9"/>
					<stop  offset="0" style="stop-color:#FFFFFF"/>
					<stop  offset="0.15" style="stop-color:#F0F0F0"/>
					<stop  offset="0.44" style="stop-color:#C9CACA"/>
					<stop  offset="0.52" style="stop-color:#BDBEBE"/>
					<stop  offset="0.6" style="stop-color:#B3B4B4"/>
					<stop  offset="0.72" style="stop-color:#999B9C"/>
					<stop  offset="0.88" style="stop-color:#6E7375"/>
					<stop  offset="1" style="stop-color:#4C5355"/>
				</radialGradient>
				
					<path style="opacity:0.13;fill:url(#SVGID_00000032639907122709272650000011065578675351162496_);enable-background:new    ;" d="
					M84.8,14.7C13.4,11.6,11,77.4,11,77.8C7.5,71,5.5,63.3,5.5,55.1c0-27.6,22.4-49.9,49.9-49.9C66.4,5.1,76.6,8.7,84.8,14.7
					L84.8,14.7z"/>
			</g>
		</g>
	</g>
</g>
</svg>
