<?xml version="1.0" encoding="UTF-8"?>
<svg xmlns="http://www.w3.org/2000/svg" width="17" height="18.06" viewBox="0 0 17 18.06">
  <defs>
    <style>
      .cls-1 {
        fill: #d6226d;
      }
    </style>
  </defs>
  <g id="Layer_1" data-name="Layer 1"/>
  <g id="Layer_2" data-name="Layer 2">
    <g id="_層_1" data-name="圖層 1">
      <g>
        <rect class="cls-1" x="1.13" y="11.2" width="6.8" height="6.8"/>
        <polygon class="cls-1" points="7.93 7.64 7.93 10.07 0 10.07 0 5.53 6.8 5.53 7.93 5.53 7.93 7.64"/>
        <path class="cls-1" d="M8.23,4.7c-.46,0-.83-.37-.83-.83v-.05c0-.19,.06-.36,.17-.5-.38-.39-2.39-2.32-3.24-1.11-.95,1.34,2.15,2.57,2.15,2.57C1.3,4.72,2.49,1.51,3.62,.49c1.13-1.02,1.64-.14,1.64-.14l2.5,2.77c.13-.09,.3-.15,.47-.15h.71c.18,0,.34,.06,.47,.15L11.92,.35s.51-.88,1.64,.14c1.13,1.02,2.32,4.22-2.85,4.28,0,0,3.1-1.23,2.15-2.57-.86-1.21-2.86,.72-3.24,1.11,.1,.14,.17,.31,.17,.5v.05c0,.46-.37,.83-.83,.83h-.71Z"/>
        <rect class="cls-1" x="9.07" y="11.26" width="6.8" height="6.8"/>
        <polygon class="cls-1" points="17 10.07 9.07 10.07 9.07 7.64 9.07 5.53 10.2 5.53 17 5.53 17 10.07"/>
      </g>
    </g>
  </g>
</svg>