<?xml version="1.0" encoding="UTF-8"?><svg xmlns="http://www.w3.org/2000/svg" viewBox="0 0 16 17"><defs><style>.d{fill:#fff;}</style></defs><g id="a"/><g id="b"><g id="c"><g><rect class="d" x="1.07" y="10.54" width="6.4" height="6.4"/><polygon class="d" points="7.47 7.19 7.47 9.47 0 9.47 0 5.21 6.4 5.21 7.47 5.21 7.47 7.19"/><path class="d" d="M7.75,4.42c-.43,0-.79-.35-.79-.79v-.05c0-.18,.06-.34,.16-.47-.36-.37-2.25-2.18-3.05-1.05-.89,1.26,2.02,2.42,2.02,2.42C1.22,4.44,2.35,1.42,3.41,.46c1.06-.96,1.54-.13,1.54-.13l2.36,2.61c.13-.09,.28-.14,.45-.14h.66c.17,0,.32,.05,.45,.14L11.22,.33s.48-.83,1.54,.13c1.06,.96,2.19,3.97-2.68,4.02,0,0,2.91-1.16,2.02-2.42-.81-1.14-2.69,.68-3.05,1.05,.1,.13,.16,.29,.16,.47v.05c0,.43-.35,.79-.79,.79h-.66Z"/><rect class="d" x="8.53" y="10.6" width="6.4" height="6.4"/><polygon class="d" points="16 9.47 8.53 9.47 8.53 7.19 8.53 5.21 9.6 5.21 16 5.21 16 9.47"/></g></g></g></svg>