<?xml version="1.0" encoding="UTF-8"?><svg xmlns="http://www.w3.org/2000/svg" xmlns:xlink="http://www.w3.org/1999/xlink" viewBox="0 0 10 10"><defs><style>.f{fill:#fff;}.g{filter:url(#d);}</style><filter id="d" filterUnits="userSpaceOnUse"><feOffset dx="0" dy="0"/><feGaussianBlur result="e" stdDeviation="1"/><feFlood flood-color="#000" flood-opacity=".5"/><feComposite in2="e" operator="in"/><feComposite in="SourceGraphic"/></filter></defs><g id="a"/><g id="b"><g id="c"><g class="g"><path class="f" d="M5.44,3.37c-.15-.08-.33-.12-.45-.16-.12-.04-.25-.36-1.08-.15,.08,.25,.53-.11,.94,.41,.41,.11,.73-.04,.89,.15,.11,.11,.29,.04,.32-.15,.03-.19-.47-.02-.62-.1Z"/><path class="f" d="M5,0C2.24,0,0,2.24,0,5s2.24,5,5,5,5-2.24,5-5S7.76,0,5,0ZM1.82,7.69c.13,.21-.34,.32-.26,.47,.07,.13,.2,.25,.27,.44-.08-.07-.16-.14-.23-.21-.77-.77-1.27-1.8-1.38-2.94,.36,.21,.92,1.13,1.6,1.31,.17,.11-.13,.72,0,.92ZM2.36,1.98h0c-.02,.14-.12,.29-.4,.46h0c-.05,.07-.28,.17-.31,.23-.03,.06-.09,.08-.18,.11-.09,.03-.29,.16-.33,.22-.03,.05-.07,.03-.27,.08h0c-.1,.05-.2,.08-.31,.1,.24-.58,.58-1.1,1.02-1.54,.15-.13,.3-.24,.47-.33l.36-.22c-.07,.16-.06,.27-.15,.37,0,.12,.15,.37,.1,.53Zm7.21,4.47c-.23,.74-.64,1.4-1.18,1.94-.14,.14-.28,.26-.44,.38-.03,.02-.06,.03-.09,.04,.08-.6,.19-.8,.53-.94,.33-.14,.41-.35,.39-.62,0-.45,.58-.68,.8-.84,0,.01,0,.02,0,.03Zm-.06-3.07c.05,.14,.09,.27,.13,.41,0,.46-.59,.69-.64,.87,0,.02,0,.03,0,.05,.08,0,.16,.06,.21,.26,.17,.6,.09,.83-.11,.83-.17,0-.25-.29-.36-.58-.05-.03-.09-.09-.13-.16-.17-.28-.4-1.02-.68-1.07-.13-.03-.15,.16-.19,.37-.04,.19,.06,.36,.06,.36,0,0-.12,.08-.16,.18-.04,.1-.18,0-.28,0-.22,.11-.41-.05-.46-.31-.15-.24-.24-.52-.44-.42,.17,.23,.23,.96,.4,1.13,.51,0,.56-.4,.45,.28-.03,.17-.07,.31-.12,.42-.02,.24-.07,.35-.14,.43-.07,.07-.3,.25-.32,.28,.04,.13-.09,.19-.13,.24,0,.02,0,.04,0,.05,.04,.04,.15,.07,.22,.08,.28-.02,.7-.16,.38,.2-.13,.12-.23,.21-.31,.28,0,.02,.01,.04,0,.05-.03,.06-.08,.18-.11,.23,.02,.09-.01,.08-.09,.05-.1,.05-.08-.02-.13-.1-.01-.03-.02-.05-.03-.07-.01-.02-.02-.04-.02-.06,0-.03-.01-.06-.02-.09h0c-.01-.07-.04-.14-.11-.17-.28-.11-.14,.4-.54,.85-.68,.51-.79,.06-1.13-.4-.34-.45,.21-.55,.08-1.37-.28-.17-.53-.72-.53-.72h-.18s-.04,.05-.12,.04c-.09,0-.27-.04-.37-.04s-.13,.04-.21,0c0,0-.17,0-.23,.05-.06,.05-.16,.05-.25-.05,0,0-.51-.73-.4-1.24,.11-.51,.34-.62,.79-1.02-.08-.28-.34-.09-.3-.45,.09-.64,.58-.17,.68-.56,.02-.1-.02-.15-.1-.17-.12-.01-.27,.12-.4,.1-.13-.03-.24-.06-.12-.2h0s.03-.04,.05-.07c.07-.08,.14-.16,.21-.22,.04-.04,.07-.07,.09-.09,.05-.15,.12-.28,.29-.23,.17,.05,.04,.16,.06,.28,.1,.64,.27,.52,.36,.41-.04-.19,.53-.09,.28-.21-.02-.01-.05-.03-.06-.05-.05-.04-.08-.08-.07-.13,.03-.04-.02-.09,.01-.14-.01-.04,0-.09,.02-.13,0-.02,.01-.04,.02-.06h0c0-.06,.05-.18,.08-.2,0,0,.02,0,.03,0,.07-.1,.17-.18,.3-.23,0-.01,0-.02,0-.03,0-.03,.14-.03,.14-.03h.02c.08,0,.16-.02,.24-.02h0c.06,0,.17-.07,.17-.07,0,0,.15,0,.15,.07h0s.05,0,.07,0c.04,0,.07-.03,.12-.04,.07-.01,.1,.07,.19,.15,.08,.06,.11,.13,.09,.23,.23,0,.81-.41,.81-.41,0,0,.79,.23,.7,.45-.09-.06-.49-.17-.94,0-.11,.04,.24,.17,.66,.17,1.04,.02,1.97,1.09,2.35,1.78Z"/></g></g></g></svg>