<?xml version="1.0" encoding="UTF-8"?>
<svg id="Layer_1" xmlns="http://www.w3.org/2000/svg" version="1.1" viewBox="0 0 41 41">
  <!-- Generator: Adobe Illustrator 29.1.0, SVG Export Plug-In . SVG Version: 2.1.0 Build 142)  -->
  <defs>
    <style>
      .st0 {
        fill: #f9b653;
        isolation: isolate;
        opacity: .5;
      }

      .st1 {
        fill: none;
        stroke: #fff;
        stroke-miterlimit: 10;
      }

      .st2 {
        fill: #fff;
      }
    </style>
  </defs>
  <g id="Layer_2">
    <g id="_層_1">
      <g>
        <circle class="st0" cx="20.5" cy="20.5" r="20"/>
        <g>
          <path class="st2" d="M27.2,24.9l-5.6-9.7c-.5-.8-1.7-.8-2.2,0l-5.6,9.7c-.5.8.1,1.9,1.1,1.9h3.9v8.1c0,.9.8,1.7,1.7,1.7s1.7-.8,1.7-1.7v-8.1h3.9c1,0,1.6-1,1.1-1.9Z"/>
          <path class="st2" d="M11.5,8.4h18c.6,0,1,.4,1,1h0c0,.6-.4,1-1,1H11.5c-.6,0-1-.4-1-1h0c0-.6.4-1,1-1Z"/>
        </g>
        <circle class="st1" cx="20.5" cy="20.5" r="20"/>
      </g>
    </g>
  </g>
</svg>