<?xml version="1.0" encoding="UTF-8"?><svg xmlns="http://www.w3.org/2000/svg" viewBox="0 0 17 15.27"><defs><style>.d{fill:#e6508c;}</style></defs><g id="a"/><g id="b"><g id="c"><path class="d" d="M8.48,2.11c.25-.28,.46-.54,.7-.78,1.61-1.58,4.13-1.77,5.9-.45,1.85,1.38,2.5,3.91,1.38,5.88-.49,.86-1.18,1.62-1.88,2.33-1.05,1.06-2.22,2-3.27,3.06-.99,.99-1.9,2.07-2.87,3.12-1.62-2.29-3.79-4.1-5.85-6.02-.6-.56-1.17-1.16-1.65-1.82C-.61,5.31-.19,2.46,1.84,.93,3.87-.61,6.62-.2,8.29,1.88c.05,.06,.1,.13,.19,.24Z"/></g></g></svg>