<?xml version="1.0" encoding="UTF-8"?>
<svg id="Layer_1" xmlns="http://www.w3.org/2000/svg" version="1.1" viewBox="0 0 17 15.3">
  <!-- Generator: Adobe Illustrator 29.1.0, SVG Export Plug-In . SVG Version: 2.1.0 Build 142)  -->
  <defs>
    <style>
      .st0 {
        fill: #ffa255;
      }
    </style>
  </defs>
  <g id="b">
    <g id="c">
      <path class="st0" d="M8.5,2.1c.2-.3.5-.5.7-.8,1.6-1.6,4.1-1.8,5.9-.4,1.9,1.4,2.5,3.9,1.4,5.9-.5.9-1.2,1.6-1.9,2.3-1.1,1.1-2.2,2-3.3,3.1s-1.9,2.1-2.9,3.1c-1.6-2.3-3.8-4.1-5.8-6-.6-.6-1.2-1.2-1.6-1.8C-.6,5.3-.2,2.5,1.8.9,3.9-.6,6.6-.2,8.3,1.9c0,0,.1.1.2.2h0Z"/>
    </g>
  </g>
</svg>