<?xml version="1.0" encoding="UTF-8"?>
<svg xmlns="http://www.w3.org/2000/svg" width="18" height="16.57" viewBox="0 0 18 16.57">
  <defs>
    <style>
      .cls-1 {
        fill: none;
        stroke: #e6508c;
        stroke-miterlimit: 10;
      }
    </style>
  </defs>
  <g id="Layer_1" data-name="Layer 1"/>
  <g id="Layer_2" data-name="Layer 2">
    <g id="_註" data-name="標註">
      <path class="cls-1" d="M8.98,2.61c.25-.28,.46-.54,.7-.78,1.61-1.58,4.13-1.77,5.9-.45,1.85,1.38,2.5,3.91,1.38,5.88-.49,.86-1.18,1.62-1.88,2.33-1.05,1.06-2.22,2-3.27,3.06-.99,.99-1.9,2.07-2.87,3.12-1.62-2.29-3.79-4.1-5.85-6.02-.6-.56-1.17-1.16-1.65-1.82C-.11,5.81,.31,2.96,2.34,1.43,4.37-.11,7.12,.3,8.79,2.38c.05,.06,.1,.13,.19,.24Z"/>
    </g>
  </g>
</svg>