<?xml version="1.0" encoding="UTF-8"?>
<svg id="Layer_1" xmlns="http://www.w3.org/2000/svg" version="1.1" viewBox="0 0 18 16.6">
  <!-- Generator: Adobe Illustrator 29.1.0, SVG Export Plug-In . SVG Version: 2.1.0 Build 142)  -->
  <defs>
    <style>
      .st0 {
        fill: none;
        stroke: #f9b653;
        stroke-miterlimit: 10;
      }
    </style>
  </defs>
  <g id="Layer_2">
    <g id="_註">
      <path class="st0" d="M9,2.6c.2-.3.5-.5.7-.8C11.3.2,13.8,0,15.6,1.4c1.9,1.4,2.5,3.9,1.4,5.9-.5.9-1.2,1.6-1.9,2.3-1.1,1.1-2.2,2-3.3,3.1-1,1-1.9,2.1-2.9,3.1-1.6-2.3-3.8-4.1-5.8-6-.6-.6-1.2-1.2-1.6-1.8C-.1,5.8.3,3,2.3,1.4,4.4-.1,7.1.3,8.8,2.4c0,0,.1.1.2.2h0Z"/>
    </g>
  </g>
</svg>