<svg xmlns="http://www.w3.org/2000/svg" viewBox="0 0 6.02 6.93"><defs><style>.cls-1{fill:#fff;}</style></defs><g id="Layer_2" data-name="Layer 2"><g id="圖層_1" data-name="圖層 1"><path class="cls-1" d="M3,6.93a5.19,5.19,0,0,0-.49-1.22A17.71,17.71,0,0,0,1.3,3.93C.86,3.34.58,3,.48,2.81A3.48,3.48,0,0,1,.11,2.1,2.06,2.06,0,0,1,0,1.45a1.43,1.43,0,0,1,.41-1,1.34,1.34,0,0,1,1-.41A1.44,1.44,0,0,1,2.47.44a2.21,2.21,0,0,1,.55,1A2.11,2.11,0,0,1,3.54.44,1.47,1.47,0,0,1,4.6,0a1.41,1.41,0,0,1,1,.41,1.36,1.36,0,0,1,.41,1,2.57,2.57,0,0,1-.24,1,7.35,7.35,0,0,1-.94,1.41A14,14,0,0,0,3.52,5.72,5.33,5.33,0,0,0,3,6.93Z"/></g></g></svg>