<svg xmlns="http://www.w3.org/2000/svg" xmlns:xlink="http://www.w3.org/1999/xlink" viewBox="0 0 700 77.78"><defs><style>.cls-1{filter:url(#filter);}.cls-2{fill:#fff;}.cls-3{fill:url(#未命名漸層_16);}.cls-4{fill:url(#未命名漸層_16-2);}.cls-5{filter:url(#filter-2);}</style><filter id="filter"><feOffset input="SourceAlpha"/><feGaussianBlur stdDeviation="15" result="blur"/><feFlood flood-color="#fa00c3"/><feComposite operator="in" in2="blur"/><feComposite in="SourceGraphic"/></filter><radialGradient id="未命名漸層_16" cx="350" cy="36060.31" r="210.04" gradientTransform="translate(-42.6 -3951.86) scale(1.12 0.11)" gradientUnits="userSpaceOnUse"><stop offset="0" stop-color="#ffe3ff"/><stop offset="0.06" stop-color="#fcceef" stop-opacity="0.86"/><stop offset="0.16" stop-color="#f8b2d8" stop-opacity="0.66"/><stop offset="0.26" stop-color="#f498c5" stop-opacity="0.48"/><stop offset="0.37" stop-color="#f082b4" stop-opacity="0.33"/><stop offset="0.48" stop-color="#ee71a6" stop-opacity="0.21"/><stop offset="0.59" stop-color="#ec639b" stop-opacity="0.12"/><stop offset="0.71" stop-color="#ea5a94" stop-opacity="0.05"/><stop offset="0.84" stop-color="#e9548f" stop-opacity="0.01"/><stop offset="1" stop-color="#e9528e" stop-opacity="0"/></radialGradient><radialGradient id="未命名漸層_16-2" cx="2085.22" cy="126998.24" r="218.62" gradientTransform="translate(-2866.39 -4111.1) scale(1.54 0.03)" xlink:href="#未命名漸層_16"/><filter id="filter-2"><feOffset input="SourceAlpha"/><feGaussianBlur stdDeviation="15" result="blur-2"/><feFlood flood-color="#fa00c3"/><feComposite operator="in" in2="blur-2"/><feComposite in="SourceGraphic"/></filter></defs><g id="Layer_2" data-name="Layer 2"><g id="圖層_1" data-name="圖層 1"><g class="cls-1"><path class="cls-2" d="M258.07,25.29a2.09,2.09,0,0,1,1.35.39,1.17,1.17,0,0,1,.31,1.3,4.39,4.39,0,0,1-.81,1.34,31.53,31.53,0,0,1-3.26,4,2.76,2.76,0,0,1-2,1.13,1.92,1.92,0,0,1-1.29-.5,1.11,1.11,0,0,1-.33-1.33,2.22,2.22,0,0,1,.68-.88,39.39,39.39,0,0,0,4-4.61,3.23,3.23,0,0,1,.66-.63A1.47,1.47,0,0,1,258.07,25.29Zm.26-9.14h4.58l.34-1.26a2.11,2.11,0,0,1,.73-1.06,2,2,0,0,1,1.31-.35,1.35,1.35,0,0,1,1.08.35,1,1,0,0,1,.2,1.06l-.34,1.26h4.82a1,1,0,0,1,.86.28c.16.17.18.51,0,1a2.28,2.28,0,0,1-.43.95,1.55,1.55,0,0,1-1.19.46h-4.82L265,20.62l5.64-.35a.71.71,0,0,1,.72.38,1.4,1.4,0,0,1,0,1,2.16,2.16,0,0,1-.62,1,1.71,1.71,0,0,1-1,.39q-7.66.81-14.28,1c-.48,0-.78-.13-.89-.32a1.56,1.56,0,0,1-.08-1.23,1.54,1.54,0,0,1,.59-.91,2.2,2.2,0,0,1,1.44-.46c1.71-.12,3.41-.21,5.1-.28l.52-2h-4.57a1,1,0,0,1-.82-.32c-.18-.18-.2-.55-.05-1.09a1.81,1.81,0,0,1,.63-1.05A1.55,1.55,0,0,1,258.33,16.15Zm3.36-13h4.85l.2-.74a2.34,2.34,0,0,1,.74-1.09,2.12,2.12,0,0,1,1.3-.32,1.67,1.67,0,0,1,1.2.32,1.14,1.14,0,0,1,.19,1.09l-.2.74h4.44a1,1,0,0,1,.86.28c.18.17.2.53.05,1.09a2.16,2.16,0,0,1-.47,1,1.61,1.61,0,0,1-1.19.42h-4.43l-.5,1.86h5a1.19,1.19,0,0,1,.93.28c.21.17.24.54.08,1.13a2.33,2.33,0,0,1-.52,1.05,1.7,1.7,0,0,1-1.28.49h-2.77l-.25,1c-.11.4,0,.6.35.6h2.26c.53,0,.7.36.5,1.09s-.6,1.27-1.13,1.27h-3.78c-1.27,0-1.73-.65-1.39-1.94l.53-2H265.1c-.58.59-1.23,1.22-2,1.9a18.91,18.91,0,0,1-3.51,2.74,3.44,3.44,0,0,1-1.63.43,1.12,1.12,0,0,1-.88-.46,1,1,0,0,1-.23-1.09,2.67,2.67,0,0,1,1.18-1.3,29,29,0,0,0,3.47-2.22h-2.32a1,1,0,0,1-.87-.38c-.22-.21-.26-.6-.11-1.16A1.9,1.9,0,0,1,259,8a1.73,1.73,0,0,1,1-.25h5.3l.5-1.86H261a.94.94,0,0,1-.82-.32c-.18-.19-.2-.55-.05-1.09a2,2,0,0,1,.64-1.12A1.52,1.52,0,0,1,261.69,3.11ZM264,25.43a1.29,1.29,0,0,1,1,.6,9.07,9.07,0,0,1,1.55,3.27,4.9,4.9,0,0,1,.16,2.64,1.54,1.54,0,0,1-.59.91,2.07,2.07,0,0,1-1.45.49,1.07,1.07,0,0,1-.71-.17,1,1,0,0,1-.35-.53q-.4-1.73-1.6-5.13a1.24,1.24,0,0,1,0-.67,1.77,1.77,0,0,1,.29-.56,1.88,1.88,0,0,1,.93-.63A1.66,1.66,0,0,1,264,25.43Zm8.53-.14a1.56,1.56,0,0,1,1,.6A9.15,9.15,0,0,1,275,29.2a4.54,4.54,0,0,1,.21,2.6,1.55,1.55,0,0,1-.63.91,2.11,2.11,0,0,1-1.41.49,1.07,1.07,0,0,1-.78-.21.75.75,0,0,1-.28-.49c-.32-1.15-.86-2.86-1.64-5.13a1.18,1.18,0,0,1,0-.67,2.25,2.25,0,0,1,.25-.56,3,3,0,0,1,.91-.67A2.23,2.23,0,0,1,272.52,25.29ZM282.12.82a1.69,1.69,0,0,1,1.12.36,1.15,1.15,0,0,1,.16,1.09l-.52,1.93h3.6c1.39,0,1.93.56,1.63,1.69l-3.2,12c-.46,1.88-.58,2.81-.37,2.81s.47-.48.87-1.44c.16-.42.3-.83.43-1.23a1.44,1.44,0,0,1,1.39-.67c.88,0,1.25.33,1.12,1A13,13,0,0,1,286,22.69a3.87,3.87,0,0,1-2.8,1.51c-.75-.11-1.29-.73-1.61-1.86a10.76,10.76,0,0,1,.27-4.5L284.6,7.61c0-.12-.05-.18-.23-.18H282l-.53,2c-.47,1.64-.94,3.12-1.43,4.43-.28.77-.58,1.5-.9,2.18a18.75,18.75,0,0,1,1.6,3.2,1.42,1.42,0,0,1,.25,1.26,2,2,0,0,1-.76,1.16,2.16,2.16,0,0,1-1.35.53,1.06,1.06,0,0,1-1-.67c-.29-.61-.58-1.17-.86-1.69a26.7,26.7,0,0,1-3.84,4.79,3,3,0,0,1-1.5.42,1,1,0,0,1-.78-.46,1.61,1.61,0,0,1-.2-1.09,1.74,1.74,0,0,1,.37-.7,6.69,6.69,0,0,1,.87-1.2,27.4,27.4,0,0,0,3.33-4.78,23.36,23.36,0,0,0-1.43-2q-.15-.24-.24-.42a1.39,1.39,0,0,1,0-.88,1.78,1.78,0,0,1,.75-1.09,2,2,0,0,1,1.33-.46,1.4,1.4,0,0,1,.73.5c.23.21.43.41.61.59.42-1.14.8-2.34,1.13-3.58l.54-2H277c-.55,0-.91-.14-1.06-.42a1.7,1.7,0,0,1,0-1.26,2.07,2.07,0,0,1,.75-1.23,1.88,1.88,0,0,1,1.19-.32h1.66l.52-1.93a1.94,1.94,0,0,1,.65-1A2.41,2.41,0,0,1,282.12.82Zm-1.46,24.47a1.42,1.42,0,0,1,.78.32,6.69,6.69,0,0,1,1.36,1.9q1.41,3,1.1,4.43a1.89,1.89,0,0,1-.71,1.09,2.43,2.43,0,0,1-1.5.46,1.17,1.17,0,0,1-1.05-.74A31.48,31.48,0,0,0,278.76,28a1.77,1.77,0,0,1-.32-1.16,2,2,0,0,1,1-1.23A2.39,2.39,0,0,1,280.66,25.29Z"/><path class="cls-2" d="M318.61,2.12c1.2,0,1.65.57,1.35,1.69l-2.79,10.41c-.39,1.48-1.19,2.21-2.39,2.21H307l-4.23,15.79a2.14,2.14,0,0,1-2.18,1.41c-1.12-.05-1.59-.52-1.42-1.41l7.58-28.3A2.17,2.17,0,0,1,309,2.12Zm-10.8,11.22h6l.66-2.5h-6ZM309.23,8h6L316,5.22h-6Zm25.32-5.91q2.22,0,1.74,1.8l-7.1,26.47a3.94,3.94,0,0,1-4.05,3.24,17.19,17.19,0,0,1-3.62-.32c-1.09-.33-1.56-.88-1.4-1.65a4.86,4.86,0,0,1,.59-1.41,2,2,0,0,1,1.5-.7,5.4,5.4,0,0,1,1,.17,6.81,6.81,0,0,0,2,.39.54.54,0,0,0,.57-.46l3.54-13.22h-8.07c-1,0-1.33-.6-1-1.82l2.86-10.69a2.15,2.15,0,0,1,2.25-1.8Zm-4.39,11.22.71-2.64h-6l-.71,2.64Zm-4.5-5.45h6l.72-2.67h-6Z"/><path class="cls-2" d="M352,8h2.39l1.52-5.66A2.12,2.12,0,0,1,358.12.82c1.16,0,1.62.52,1.39,1.55L358,8h1.53a1.47,1.47,0,0,1,1.15.35c.23.19.25.64.06,1.34a3.08,3.08,0,0,1-.58,1.26,2.18,2.18,0,0,1-1.57.53h-1.52L355.33,18a6.59,6.59,0,0,0,.84-.39,2.34,2.34,0,0,1,.9-.39,1.46,1.46,0,0,1,1.2.42,1.74,1.74,0,0,1,.14,1.41,2.47,2.47,0,0,1-.89,1.12A23.58,23.58,0,0,1,354.25,22l-2.33,8.68a3.82,3.82,0,0,1-1.21,2.08,5.12,5.12,0,0,1-2.35.88h-1.94a1.86,1.86,0,0,1-1.46-.74,1.38,1.38,0,0,1-.09-1.09,2.75,2.75,0,0,1,.71-1.37,2.52,2.52,0,0,1,1.49-.64H348c.4,0,.63-.13.7-.38l1.55-5.8A10.25,10.25,0,0,1,348,24c-1.23-.05-1.72-.66-1.45-1.83a2.22,2.22,0,0,1,1.74-1.69c1.06-.28,2.07-.57,3-.88l2.18-8.12H351.1a1.35,1.35,0,0,1-1.07-.39c-.26-.25-.3-.72-.11-1.4A1.95,1.95,0,0,1,352,8Zm18.35-6.92a2,2,0,0,1,1.22.35,1,1,0,0,1,.24,1l-4.38,16.35A36.18,36.18,0,0,1,366.05,23a24,24,0,0,1-7.51,9.92,2.93,2.93,0,0,1-1.69.6,1.28,1.28,0,0,1-1-.57,1.58,1.58,0,0,1-.18-1.26,1.91,1.91,0,0,1,.46-.85,5.68,5.68,0,0,1,1.09-1.09,23.25,23.25,0,0,0,4-4.46l-1.1.35a14.94,14.94,0,0,1-3.27.7c-1.18,0-1.59-.7-1.24-2.11a2.52,2.52,0,0,1,2.22-1.54,31.3,31.3,0,0,0,5.26-1.16c.33-.87.61-1.75.85-2.64l.27-1h-3.29a1.36,1.36,0,0,1-1.17-.42,1.82,1.82,0,0,1,0-1.41,2.45,2.45,0,0,1,.85-1.37,2.49,2.49,0,0,1,1.25-.28h3.3l1.24-4.64h-3.85a1.26,1.26,0,0,1-1.13-.42,1.71,1.71,0,0,1,0-1.41,2.41,2.41,0,0,1,.86-1.4,2.5,2.5,0,0,1,1.26-.29h3.84l1-3.69A1.77,1.77,0,0,1,369,1.6,2.33,2.33,0,0,1,370.38,1.11Zm6.41,0A1.42,1.42,0,0,1,378,1.6a1.24,1.24,0,0,1,.16,1.19l-.91,3.41h3.88c.62,0,1,.12,1.12.35s.27.66.09,1.34a2.74,2.74,0,0,1-.64,1.23,2,2,0,0,1-1.52.6h-3.88L375,14.36h3.43c.65,0,1,.12,1.19.35s.21.65,0,1.3a2.93,2.93,0,0,1-.57,1.23,2,2,0,0,1-1.58.6h-3.43l-1.29,4.82h4c.6,0,1,.12,1.12.35s.27.65.09,1.33a2.8,2.8,0,0,1-.6,1.2,2,2,0,0,1-1.56.63h-4l-1.55,5.77A2.1,2.1,0,0,1,369.7,33a2.17,2.17,0,0,1-1.62.64A1.11,1.11,0,0,1,367,33a1.35,1.35,0,0,1-.09-1.09l7.81-29.15a2,2,0,0,1,.8-1.19A1.8,1.8,0,0,1,376.79,1.11Z"/><path class="cls-2" d="M406.05,8.7a2.12,2.12,0,0,1,1.23.46,1.22,1.22,0,0,1,.36,1.23,2.88,2.88,0,0,1-.51,1A29.53,29.53,0,0,1,403,15.52L398.61,31.8a2.34,2.34,0,0,1-.93,1.4,2.29,2.29,0,0,1-1.5.43c-.6,0-1-.14-1.17-.43a1.36,1.36,0,0,1-.17-1.4l3.22-12A14.45,14.45,0,0,1,396,21.25a2.16,2.16,0,0,1-1.36.42,1.44,1.44,0,0,1-1-.67,1.48,1.48,0,0,1-.27-1.3,2.77,2.77,0,0,1,.54-1c.38-.47,2.25-2.13,5.63-5,3-2.53,4.88-4.06,5.52-4.57A1.32,1.32,0,0,1,406.05,8.7Zm.79-7.59a2,2,0,0,1,1.28.52,1.52,1.52,0,0,1,.36,1.48,1.49,1.49,0,0,1-.46.7,24.13,24.13,0,0,1-4,3.62,35,35,0,0,1-5.39,4.08,2.16,2.16,0,0,1-1.36.42,1.57,1.57,0,0,1-1-.59A1.62,1.62,0,0,1,396,10a3,3,0,0,1,.54-1c.32-.35,1.93-1.64,4.81-3.87,2.54-2,4.09-3.16,4.67-3.58A1.21,1.21,0,0,1,406.84,1.11Zm2.48,11.42h16.77a1.73,1.73,0,0,1,1.32.39c.19.23.19.71,0,1.44a2.82,2.82,0,0,1-.7,1.34,2.26,2.26,0,0,1-1.62.59h-4.16l-3.81,14.24a3.77,3.77,0,0,1-1.35,2.08,5.57,5.57,0,0,1-2.49.88A16,16,0,0,1,408.8,33a7.09,7.09,0,0,1-3.34-1.48c-.42-.26-.58-.82-.49-1.69.34-1.24,1-1.93,1.94-2.07a3.75,3.75,0,0,1,1.16.35A11.37,11.37,0,0,0,413,29.65a.7.7,0,0,0,.73-.52l3.44-12.84h-8.87a1.63,1.63,0,0,1-1.27-.42c-.23-.28-.24-.78-.05-1.51a2.77,2.77,0,0,1,.84-1.44A2.64,2.64,0,0,1,409.32,12.53Zm4.52-10.16H428c.67,0,1.1.14,1.3.42s.23.71,0,1.41a2.69,2.69,0,0,1-.68,1.27A2.42,2.42,0,0,1,427,6H412.86a1.57,1.57,0,0,1-1.27-.42c-.21-.24-.23-.71,0-1.41a2.85,2.85,0,0,1,.8-1.41A2.42,2.42,0,0,1,413.84,2.37Z"/><path class="cls-2" d="M447.92,18.9l-3.53,13.18a2.29,2.29,0,0,1-.68,1.09,2.12,2.12,0,0,1-1.61.6,1.13,1.13,0,0,1-1.1-.57,1.38,1.38,0,0,1-.11-1.12l3.27-12.2a29.13,29.13,0,0,1-3.86,5.73,2.35,2.35,0,0,1-1.5.42,1.18,1.18,0,0,1-.89-.42,1.52,1.52,0,0,1-.08-1.12,7.51,7.51,0,0,1,.91-2,102.39,102.39,0,0,0,7.59-11.68H443.8a1.21,1.21,0,0,1-1.05-.45c-.26-.24-.3-.71-.11-1.41a2.14,2.14,0,0,1,.84-1.33,2,2,0,0,1,1.28-.36h2.77l1.32-4.92a2.22,2.22,0,0,1,.85-1.23A1.85,1.85,0,0,1,451,.72a1.54,1.54,0,0,1,1.21.42,1.31,1.31,0,0,1,.19,1.23L451,7.29h2.18a1.32,1.32,0,0,1,1.14.39c.23.19.25.62.07,1.3a3.07,3.07,0,0,1-.58,1.27,2.07,2.07,0,0,1-1.58.59h-2.18l-.38,1.41a2.44,2.44,0,0,1,.62.14,12,12,0,0,1,.65,2.74,19.83,19.83,0,0,1-.05,6.4,1.86,1.86,0,0,1-.61,1,2.18,2.18,0,0,1-1.4.42,1.05,1.05,0,0,1-.94-.74C448,21.08,448,20,447.92,18.9Zm14.42-4.68a1.9,1.9,0,0,1,1.38.39,1.27,1.27,0,0,1,.24,1.3l-.41,1.54h6.79a1.39,1.39,0,0,1,1.09.32c.18.21.18.62,0,1.23a2.05,2.05,0,0,1-.59,1.06,1.94,1.94,0,0,1-1.34.45H459.23a27.35,27.35,0,0,1-1.11,2.85h9.11a2.66,2.66,0,0,1,1.73.53,1.89,1.89,0,0,1,.27,1.72,18.73,18.73,0,0,1-2.61,6.26,5.34,5.34,0,0,1-4.25,1.9c-2.35-.05-3.82-.43-4.41-1.13a1.22,1.22,0,0,1-.42-1.16,2.11,2.11,0,0,1,.77-1.19,1.41,1.41,0,0,1,1.69-.36,6.27,6.27,0,0,0,2.4.6,2.16,2.16,0,0,0,1.74-.91,9.89,9.89,0,0,0,1.05-2.78c.1-.35-.05-.53-.44-.53h-8.11a.37.37,0,0,0-.07.14A20.69,20.69,0,0,1,450,32.92a3.66,3.66,0,0,1-1.86.71,1.55,1.55,0,0,1-1.31-.67,1.86,1.86,0,0,1-.2-1.3,2.36,2.36,0,0,1,.86-1.27A19.47,19.47,0,0,0,453,25.82a16.72,16.72,0,0,0,2.67-5.31h-2.84a1.23,1.23,0,0,1-1-.35c-.22-.21-.25-.6-.1-1.16a2.34,2.34,0,0,1,.74-1.23,2.1,2.1,0,0,1,1.2-.32h5.82l.41-1.54a2.7,2.7,0,0,1,.95-1.34A2.44,2.44,0,0,1,462.34,14.22ZM466.2.82a1.7,1.7,0,0,1,1.29.39,1.42,1.42,0,0,1,.2,1.3l-.31,1.16h7.07a1.24,1.24,0,0,1,.95.32c.19.16.2.57,0,1.23a2.44,2.44,0,0,1-.49,1,1.81,1.81,0,0,1-1.31.5H471l-1.86,3.34h2.67c1.66,0,2.26.85,1.8,2.56l-.68,2.53a1.92,1.92,0,0,1-.78,1.23,2.4,2.4,0,0,1-1.47.46c-.72,0-1.16-.18-1.35-.53a1.48,1.48,0,0,1,0-1.16l.46-1.72c.07-.28-.06-.42-.41-.42H457a.54.54,0,0,0-.57.42l-.46,1.72a2.06,2.06,0,0,1-.67,1.23,2.36,2.36,0,0,1-1.58.46,1.55,1.55,0,0,1-1.25-.39,1.48,1.48,0,0,1-.07-1.3l.68-2.53a3.05,3.05,0,0,1,3.18-2.56h2.46l-.11-3.34h-2.42a1.21,1.21,0,0,1-1-.36c-.2-.21-.21-.6-.06-1.19A2.17,2.17,0,0,1,455.87,4,2,2,0,0,1,457,3.67h6.48l.31-1.16a2.75,2.75,0,0,1,.9-1.3A2.41,2.41,0,0,1,466.2.82Zm-4,9.29h3.46l1.87-3.34H462Z"/></g><ellipse class="cls-3" cx="350" cy="54.44" rx="235.59" ry="23.34"/><ellipse class="cls-4" cx="350" cy="54.44" rx="350" ry="6.89"/><g class="cls-5"><path class="cls-2" d="M238.82,17.88a1.69,1.69,0,0,0-1.52,1.2,9.91,9.91,0,0,1-3.47,5.09,9.36,9.36,0,0,1-5.65,2.11,5.45,5.45,0,0,1-4.53-2.11,5.91,5.91,0,0,1-.74-5.09.9.9,0,0,0-.88-1.2,1.68,1.68,0,0,0-1.52,1.2c-1.31,4.89,1.28,8.92,5.85,9.51l-1.63,6.08H220.3a2.27,2.27,0,0,0-2.05,1.62,1.2,1.2,0,0,0,1.18,1.62h11.25a2.26,2.26,0,0,0,2.06-1.62,1.2,1.2,0,0,0-1.19-1.62h-4.42l1.63-6.08A13.67,13.67,0,0,0,239.41,20l-.35,0,.35,0c.11-.31.21-.62.29-.93A.89.89,0,0,0,238.82,17.88Z"/><polygon class="cls-2" points="227.1 9.67 238.15 9.67 238.63 7.88 227.58 7.88 227.1 9.67"/><path class="cls-2" d="M235.22,0a7.72,7.72,0,0,0-7,5.52l-.15.56h11.05l.15-.56C240.08,2.47,238.27,0,235.22,0Z"/><path class="cls-2" d="M224.77,18.37c-.82,3.05,1,5.53,4,5.53a7.75,7.75,0,0,0,7-5.53l.89-3.32H225.66Z"/><polygon class="cls-2" points="226.14 13.25 237.19 13.25 237.67 11.46 226.62 11.46 226.14 13.25"/></g></g></g></svg>