<?xml version="1.0" encoding="UTF-8"?><svg xmlns="http://www.w3.org/2000/svg" viewBox="0 0 11.6 13.84"><defs><style>.d{fill:#fff;}</style></defs><g id="a"/><g id="b"><g id="c"><g><rect class="d" x=".48" y="12.86" width="10.64" height=".98"/><polygon class="d" points="9.85 7.47 9.85 12.67 7.11 12.67 7.11 7.77 4.67 7.77 4.67 12.67 1.93 12.67 1.93 7.28 5.74 3.59 9.85 7.47"/><polygon class="d" points="8.65 4.33 8.65 4.33 8.65 4.33 8.65 4.33"/><path class="d" d="M11.46,5.9c-.1,.1-.23,.16-.36,.16-.12,0-.25-.05-.34-.14l-2.1-1.99h0L5.74,1.19,1.09,5.69l-.24,.23c-.2,.19-.51,.19-.7-.01-.19-.2-.19-.51,.01-.7l.93-.9L5.39,.14c.19-.18,.49-.19,.69,0h0l2.56,2.43v-.82h-.24v-.55h1.79v.55h-.24V3.81l.79,.74,.68,.65c.2,.19,.21,.5,.02,.7Z"/></g></g></g></svg>