<?xml version="1.0" encoding="UTF-8"?><svg xmlns="http://www.w3.org/2000/svg" viewBox="0 0 10.51 12.54"><defs><style>.d{fill:#e9528e;}</style></defs><g id="a"/><g id="b"><g id="c"><g><rect class="d" x=".43" y="11.65" width="9.65" height=".89"/><polygon class="d" points="8.93 6.77 8.93 11.48 6.45 11.48 6.45 7.05 4.23 7.05 4.23 11.48 1.75 11.48 1.75 6.59 5.21 3.25 8.93 6.77"/><polygon class="d" points="7.84 3.93 7.84 3.92 7.84 3.93 7.84 3.93"/><path class="d" d="M10.39,5.35c-.09,.09-.21,.14-.33,.14-.11,0-.22-.04-.31-.12l-1.91-1.8h0L5.21,1.08,.98,5.15l-.22,.21c-.18,.17-.46,.17-.64-.01-.17-.18-.17-.46,.01-.64l.85-.82L4.89,.13c.17-.17,.45-.17,.62,0h0l2.32,2.2v-.75h-.21v-.5h1.62v.5h-.21v1.88l.71,.67,.62,.59c.18,.17,.19,.46,.02,.64Z"/></g></g></g></svg>