<?xml version="1.0" encoding="utf-8"?>
<!-- Generator: Adobe Illustrator 26.2.1, SVG Export Plug-In . SVG Version: 6.00 Build 0)  -->
<svg version="1.1" id="Layer_1" xmlns="http://www.w3.org/2000/svg" xmlns:xlink="http://www.w3.org/1999/xlink" x="0px" y="0px"
	 viewBox="0 0 10.5 12.5" style="enable-background:new 0 0 10.5 12.5;" xml:space="preserve">
<style type="text/css">
	.st0{fill:#FF9800;}
</style>
<g id="a">
</g>
<g id="b">
	<g id="c">
		<g>
			<rect x="0.4" y="11.6" class="st0" width="9.6" height="0.9"/>
			<polygon class="st0" points="8.9,6.8 8.9,11.5 6.4,11.5 6.4,7.1 4.2,7.1 4.2,11.5 1.8,11.5 1.8,6.6 5.2,3.2 			"/>
			<polygon class="st0" points="7.8,3.9 7.8,3.9 7.8,3.9 			"/>
			<path class="st0" d="M10.4,5.3c-0.1,0.1-0.2,0.1-0.3,0.1c-0.1,0-0.2,0-0.3-0.1L7.8,3.6l0,0L5.2,1.1L1,5.2L0.8,5.4
				c-0.2,0.2-0.5,0.2-0.6,0C0,5.2,0,4.9,0.1,4.7L1,3.9l3.9-3.8C5.1,0,5.3,0,5.5,0.1l0,0l2.3,2.2V1.6H7.6V1.1h1.6v0.5H9v1.9l0.7,0.7
				l0.6,0.6C10.5,4.9,10.5,5.2,10.4,5.3L10.4,5.3z"/>
		</g>
	</g>
</g>
</svg>
