<?xml version="1.0" encoding="UTF-8"?>
<svg id="Layer_1" xmlns="http://www.w3.org/2000/svg" version="1.1" viewBox="0 0 15.9 19">
  <!-- Generator: Adobe Illustrator 29.1.0, SVG Export Plug-In . SVG Version: 2.1.0 Build 142)  -->
  <defs>
    <style>
      .st0 {
        fill: #f9b653;
      }
    </style>
  </defs>
  <g id="b">
    <g id="c">
      <path class="st0" d="M14.6,0H1.3C.8,0,.3.3.1.7c0,.2-.1.3-.1.5v16.5c0,.7.6,1.3,1.3,1.3h13.3c.2,0,.4,0,.5-.1.4-.2.8-.6.8-1.2V1.3C15.9.6,15.3,0,14.6,0ZM13.1,16.5H2.8c-.3,0-.6-.3-.6-.6s.3-.6.6-.6h10.3c.4,0,.6.3.6.6s-.3.6-.6.6ZM13.1,13.3H2.8c-.3,0-.6-.3-.6-.6s.3-.6.6-.6h10.3c.4,0,.6.3.6.6s-.3.6-.6.6ZM13.1,10.2H2.8c-.3,0-.6-.3-.6-.6s.3-.6.6-.6h10.3c.4,0,.6.3.6.6s-.3.6-.6.6ZM13.1,7H2.8c-.3,0-.6-.3-.6-.6s.3-.6.6-.6h10.3c.4,0,.6.3.6.6s-.3.6-.6.6ZM13.1,3.8H2.8c-.3,0-.6-.3-.6-.6s.3-.6.6-.6h10.3c.4,0,.6.3.6.6s-.3.6-.6.6Z"/>
    </g>
  </g>
</svg>