<?xml version="1.0" encoding="UTF-8"?><svg xmlns="http://www.w3.org/2000/svg" viewBox="0 0 15.87 19.05"><defs><style>.d{fill:#e6508c;}</style></defs><g id="a"/><g id="b"><g id="c"><path class="d" d="M14.6,0H1.27C.76,0,.31,.31,.11,.75c-.07,.16-.11,.34-.11,.52V17.78c0,.7,.57,1.27,1.27,1.27H14.6c.19,0,.36-.04,.52-.11,.44-.2,.75-.64,.75-1.16V1.27c0-.7-.57-1.27-1.27-1.27Zm-1.5,16.51H2.77c-.35,0-.63-.28-.63-.63s.28-.63,.63-.63H13.1c.35,0,.64,.28,.64,.63s-.28,.63-.64,.63Zm0-3.17H2.77c-.35,0-.63-.28-.63-.63s.28-.63,.63-.63H13.1c.35,0,.64,.28,.64,.63s-.28,.63-.64,.63Zm0-3.17H2.77c-.35,0-.63-.28-.63-.63s.28-.64,.63-.64H13.1c.35,0,.64,.28,.64,.64s-.28,.63-.64,.63Zm0-3.17H2.77c-.35,0-.63-.28-.63-.64s.28-.63,.63-.63H13.1c.35,0,.64,.28,.64,.63s-.28,.64-.64,.64Zm0-3.18H2.77c-.35,0-.63-.28-.63-.63s.28-.64,.63-.64H13.1c.35,0,.64,.28,.64,.64s-.28,.63-.64,.63Z"/></g></g></svg>