<?xml version="1.0" encoding="UTF-8"?>
<svg id="Layer_2" data-name="Layer 2" xmlns="http://www.w3.org/2000/svg" width="36" height="36" viewBox="0 0 36 36">
  <defs>
    <style>
      .cls-1 {
        fill: #fff;
      }

      .cls-2 {
        fill: #f9b653;
      }
    </style>
  </defs>
  <g id="Layer_1-2" data-name="Layer 1">
    <g id="b">
      <g id="c">
        <g>
          <rect class="cls-2" width="36" height="36" rx="9.11" ry="9.11"/>
          <g>
            <path class="cls-1" d="M16.32,16.88c.18.85.65,1.49,1.28,2.04,1.21,1.05,2.99,1.1,4.17.01,1.21-1.11,2.38-2.27,3.49-3.48,1.16-1.26.98-3.19-.33-4.48-1.27-1.25-3.18-1.35-4.45-.19-.69.63-1.32,1.32-2,1.96-.12.11-.33.22-.47.19-1.22-.29-2.43-.28-3.78.11.25-.33.39-.57.59-.76,1.23-1.24,2.41-2.53,3.71-3.7,1.81-1.63,3.97-2.03,6.23-1.15s3.71,2.56,4.13,4.99c.36,2.09-.29,3.89-1.77,5.39-1.1,1.12-2.2,2.26-3.36,3.31-2.32,2.1-5.85,2.06-8.18-.04-.73-.65-1.32-1.4-1.74-2.3-.13-.28-.1-.45.12-.68.64-.66,1.31-1.24,2.36-1.22Z"/>
            <path class="cls-1" d="M19.7,19.11c-.42-1.35-1.23-2.31-2.58-2.71-1.1-.32-2.12-.07-2.93.69-1.16,1.08-2.29,2.21-3.38,3.37-1.21,1.29-1.09,3.21.23,4.52,1.31,1.3,3.22,1.4,4.52.2.67-.62,1.3-1.29,1.96-1.93.12-.11.34-.23.47-.19,1.22.3,2.43.27,3.77-.11-.24.32-.37.55-.56.73-1.22,1.24-2.41,2.53-3.7,3.7-1.82,1.64-3.99,2.06-6.27,1.17-2.28-.89-3.73-2.59-4.13-5.05-.34-2.05.31-3.82,1.75-5.3,1-1.03,2.02-2.04,3.04-3.05,3.22-3.16,8.26-2.14,10.27,2.05.13.28.09.46-.12.68-.64.66-1.3,1.25-2.34,1.22h0Z"/>
          </g>
        </g>
      </g>
    </g>
  </g>
</svg>