<?xml version="1.0" encoding="utf-8"?>
<!-- Generator: Adobe Illustrator 26.2.1, SVG Export Plug-In . SVG Version: 6.00 Build 0)  -->
<svg version="1.1" id="Layer_1" xmlns="http://www.w3.org/2000/svg" xmlns:xlink="http://www.w3.org/1999/xlink" x="0px" y="0px"
	 viewBox="0 0 22 27" style="enable-background:new 0 0 22 27;" xml:space="preserve">
<style type="text/css">
	.st0{fill:#F9B653;}
</style>
<g id="a">
</g>
<g id="b">
	<g id="c">
		<g>
			<path class="st0" d="M1.6,0C0.7,0,0,0.7,0,1.6v23.8C0,26.3,0.7,27,1.6,27H16v-3.2c0-1.4,1.1-2.5,2.5-2.5H22V1.6
				C22,0.7,21.3,0,20.4,0H1.6z M17.8,14.8H4.2v-1.1h13.6V14.8z M17.8,10.9H4.2V9.8h13.6V10.9z M17.8,7H4.2V5.9h13.6V7z"/>
			<path class="st0" d="M16.9,23.9v2.6l4.4-4.2h-2.8C17.6,22.2,16.9,23,16.9,23.9z"/>
		</g>
	</g>
</g>
</svg>
