<?xml version="1.0" encoding="UTF-8"?><svg xmlns="http://www.w3.org/2000/svg" viewBox="0 0 22.02 27.03"><defs><style>.d{fill:#e9528e;}</style></defs><g id="a"/><g id="b"><g id="c"><g><path class="d" d="M1.61,0C.72,0,0,.72,0,1.61V25.42c0,.89,.72,1.61,1.61,1.61H15.99v-3.16c0-1.39,1.13-2.53,2.53-2.53h3.51V1.61c0-.89-.72-1.61-1.61-1.61H1.61ZM17.83,14.75H4.2v-1.11h13.63v1.11Zm0-3.88H4.2v-1.11h13.63v1.11Zm0-3.88H4.2v-1.11h13.63v1.11Z"/><path class="d" d="M16.91,23.86v2.56l4.42-4.17h-2.81c-.89,0-1.61,.72-1.61,1.61Z"/></g></g></g></svg>