<?xml version="1.0" encoding="UTF-8"?>
<svg id="Layer_1" xmlns="http://www.w3.org/2000/svg" xmlns:xlink="http://www.w3.org/1999/xlink" version="1.1" viewBox="0 0 37.1 14.7">
  <!-- Generator: Adobe Illustrator 29.1.0, SVG Export Plug-In . SVG Version: 2.1.0 Build 142)  -->
  <defs>
    <style>
      .st0 {
        fill: url(#linear-gradient);
      }

      .st1 {
        fill: #fff;
      }
    </style>
    <linearGradient id="linear-gradient" x1="18.5" y1="258.7" x2="18.5" y2="244" gradientTransform="translate(0 -244)" gradientUnits="userSpaceOnUse">
      <stop offset="0" stop-color="#f4c57a"/>
      <stop offset="0" stop-color="#f3be70"/>
      <stop offset="0" stop-color="#f1c37a"/>
      <stop offset="0" stop-color="#f08c48"/>
      <stop offset=".4" stop-color="#ef733c"/>
      <stop offset=".5" stop-color="#f1745d"/>
      <stop offset=".6" stop-color="#f08e43"/>
      <stop offset="1" stop-color="#f9e1ac"/>
    </linearGradient>
  </defs>
  <g id="Layer_2">
    <g id="links">
      <g>
        <rect class="st0" y="0" width="37.1" height="14.7" rx="7.3" ry="7.3"/>
        <g>
          <path class="st1" d="M11.7,11.5h-2.9c-.6,0-.9-.3-.9-.9V3.6c0-.3.2-.5.6-.5s.6.2.6.5v6c0,.5.2.8.8.8h2c.3,0,.4.2.4.6s-.2.5-.5.5h0Z"/>
          <path class="st1" d="M15.5,11.7c-.4,0-.6-.2-.6-.6V3.6c0-.3.2-.5.6-.5s.6.2.6.5v7.5c0,.4-.2.5-.6.5h0Z"/>
          <path class="st1" d="M23.4,3.9l-1.7,7.4c0,.3-.3.5-.7.5s-.6-.2-.7-.5l-1.7-7.3v-.2c0-.2,0-.3.2-.4.1,0,.3-.2.5-.2.3,0,.5.2.5.5l1.2,5.2,1.2-5.2c0-.3.3-.5.6-.5s.3,0,.4.2c.1,0,.2.2.2.4v.2h0Z"/>
          <path class="st1" d="M29.4,11.5h-3.2c-.2,0-.5,0-.6-.2-.2-.2-.3-.4-.3-.6v-6.5c0-.2,0-.5.3-.6.2-.2.4-.2.6-.2h3.1c.3,0,.5.2.5.5s-.2.6-.5.6h-2.1c-.5,0-.7.2-.7.7v1.4h2.4c.3,0,.5.2.5.6s-.2.6-.5.6h-2.4v2c0,.5.3.7.8.7h2.1c.3,0,.5.2.5.6s-.2.5-.5.5h0Z"/>
        </g>
      </g>
    </g>
  </g>
</svg>