<?xml version="1.0" encoding="UTF-8"?>
<svg id="Layer_1" xmlns="http://www.w3.org/2000/svg" xmlns:xlink="http://www.w3.org/1999/xlink" version="1.1" viewBox="0 0 162.7 43.2">
  <!-- Generator: Adobe Illustrator 29.1.0, SVG Export Plug-In . SVG Version: 2.1.0 Build 142)  -->
  <defs>
    <style>
      .st0 {
        fill: url(#linear-gradient2);
      }

      .st1 {
        fill: url(#linear-gradient1);
      }

      .st2 {
        fill: url(#linear-gradient3);
      }

      .st3 {
        fill: #040403;
        opacity: .1;
      }

      .st3, .st4 {
        isolation: isolate;
      }

      .st5 {
        fill: url(#linear-gradient);
      }

      .st6 {
        fill: #fff;
      }
    </style>
    <linearGradient id="linear-gradient" x1="2.7" y1="19.8" x2="125.5" y2="19.8" gradientUnits="userSpaceOnUse">
      <stop offset="0" stop-color="#f9e0ac"/>
      <stop offset="1" stop-color="#f9b653"/>
    </linearGradient>
    <linearGradient id="linear-gradient1" x1="113.2" x2="159.1" xlink:href="#linear-gradient"/>
    <linearGradient id="linear-gradient2" x1="0" y1="25" x2="122.8" y2="25" gradientTransform="translate(0 44.8) scale(1 -1)" gradientUnits="userSpaceOnUse">
      <stop offset="0" stop-color="#f9b653"/>
      <stop offset="1" stop-color="#f9e0ac"/>
    </linearGradient>
    <linearGradient id="linear-gradient3" x1="110.5" x2="156.4" xlink:href="#linear-gradient2"/>
  </defs>
  <g class="st4">
    <g id="Layer_2">
      <g id="_圖層_1" data-name="圖層_1">
        <path class="st3" d="M142,3.6h-27.9c11.4,0,20.7,8.9,20.7,19.8s-9.3,19.8-20.7,19.8h27.9c11.4,0,20.7-8.9,20.7-19.8s-9.3-19.8-20.7-19.8Z"/>
        <path class="st3" d="M24.3,43.1h84.1c11.4,0,20.7-8.9,20.7-19.8S119.8,3.6,108.4,3.6H24.3C12.9,3.6,3.6,12.5,3.6,23.4s9.3,19.8,20.7,19.8Z"/>
        <path class="st5" d="M125.5,19.8c0,10.9-9.3,19.8-20.7,19.8H23.4c-11.4,0-20.7-8.9-20.7-19.8S12,0,23.4,0h81.5C116.2,0,125.5,8.9,125.5,19.8Z"/>
        <path class="st1" d="M138.4,0h-25.2C124.6,0,133.9,8.9,133.9,19.8s-9.3,19.8-20.7,19.8h25.2c11.4,0,20.7-8.9,20.7-19.8S149.8,0,138.4,0Z"/>
        <path class="st0" d="M122.8,19.8c0,10.9-9.3,19.8-20.7,19.8H20.7C9.3,39.6,0,30.7,0,19.8S9.3,0,20.7,0h81.4C113.5,0,122.8,8.9,122.8,19.8Z"/>
        <path class="st2" d="M135.7,0h-25.2C121.9,0,131.2,8.9,131.2,19.8s-9.3,19.8-20.7,19.8h25.2c11.4,0,20.7-8.9,20.7-19.8S147.1,0,135.7,0Z"/>
        <path class="st6" d="M146.3,19l-8.1-8.2c-.4-.4-1.2-.4-1.6,0-.4.4-.4,1.2,0,1.6h0l7.4,7.4-7.4,7.4c-1,1,.6,2.6,1.6,1.6l8.1-8.2c.4-.4.4-1.1,0-1.6Z"/>
        <path class="st6" d="M23.7,23.7c.5,0,.6.2.5.7-.1.3-.3.6-.6.9-.8,1-1.7,1.9-2.7,2.7-.2,0-.4.2-.6.2-.5,0-.6-.2-.5-.6,0-.2.2-.4.3-.6,1.1-.9,2-1.8,2.9-2.9.2-.2.4-.4.7-.4ZM30,18.8c.4,0,.5.2.4.5s-.4.6-.7.6h-2.9l-.4,1.6c1-.1,1.9-.2,2.7-.4.1,0,.2,0,.4-.1.3,0,.5.2.4.6,0,.3-.3.5-.5.6-1,.2-2.2.4-3.7.6-1.1.2-2.5.3-4.2.5-.4,0-.6-.2-.5-.7,0-.4.4-.7.8-.7,1.4,0,2.5-.2,3.4-.2l.5-1.7h-2.8c-.4,0-.5-.2-.4-.6,0-.3.3-.5.7-.5h2.8l.4-1.3c0-.4.4-.7.8-.6.5,0,.6.2.5.6l-.4,1.3h2.9ZM32,11.4c.4,0,.5.2.4.5s-.3.6-.7.6h-3l-.4,1.5h3.5c.4,0,.5.2.4.5,0,.4-.4.6-.7.6h-1.8l-.3,1.2c0,.2,0,.3.1.3h1.8c.3,0,.4.2.3.5s-.3.5-.6.5h-2.2c-.7,0-1-.3-.8-1l.4-1.6h-2.4c-.2.5-.4,1-.6,1.4-.3.4-.7.8-1.1,1.1-.5.3-1.1.5-1.8.6h-.2c-.3,0-.5-.2-.4-.6,0-.3.3-.5.6-.5.4,0,.8-.1,1.2-.3.3-.2.6-.4.8-.7.2-.3.3-.5.4-.8h-1.6c-.4,0-.5-.2-.4-.6,0-.3.3-.5.7-.5h3.3l.4-1.4h-2.9c-.4,0-.5-.2-.4-.6,0-.3.4-.6.7-.5h2.9l.2-.9c0-.4.5-.7.9-.7.5,0,.6.2.5.7l-.2.9h3ZM27.2,24c.3,0,.5.1.6.4.1.9.1,1.8,0,2.6,0,.2,0,.3,0,.5,0,.4-.5.7-.9.6-.4,0-.6-.2-.5-.6,0-.9,0-1.8,0-2.7v-.3c0-.3.4-.5.7-.5ZM33.9,12.6h1.5c.2-.7.4-1.4.6-2.1,0-.4.4-.7.8-.6.5,0,.7.2.5.6-.2.7-.4,1.4-.6,2.1h1.5c.8,0,1.1.4.8,1.2l-1.3,4.8c-.2.7-.2,1.4,0,2.2,0,.1,0,.2.2.2s.4-.5.8-1.6c.1-.3.4-.5.8-.5.4,0,.5.3.4.7-.2.6-.5,1.1-.8,1.6-.3.6-.6,1.1-1.1,1.6-.2.2-.5.3-.8.4-.3,0-.5,0-.7-.3-.3-.3-.5-.8-.5-1.2,0-1,0-2,.4-2.9l1.1-4.1c0-.4,0-.6-.5-.6h-.9c-.3.9-.7,1.8-1.1,2.7-.2.4-.4.8-.6,1.1.2.4.3.9.5,1.3,0,.1,0,.3,0,.5-.1.5-.5.8-1,.7-.1,0-.2,0-.3-.1,0-.2-.1-.4-.2-.6-.8,1.3-1.8,2.5-2.9,3.7-.2.2-.4.3-.6.3-.5,0-.6-.2-.5-.7,0-.1.2-.3.2-.4,1.2-1.3,2.3-2.8,3.3-4.4-.3-.7-.5-1.3-.8-2,0,0,0-.2,0-.3,0-.4.5-.7.9-.6,0,0,.2,0,.3.2.2.4.4.7.6,1.1,0,0,0,0,0-.1.3-.8.7-1.6,1-2.4h-1.4c-.4,0-.5-.2-.4-.6,0-.4.4-.7.8-.7h0ZM31.8,23.8c.3,0,.5.1.6.4,0,.9,0,1.8,0,2.7,0,.2,0,.4,0,.5,0,.4-.5.7-.9.6-.4,0-.5-.2-.4-.6.1-1,.1-1.9,0-2.9v-.3c0-.3.4-.5.7-.5ZM36,23.6c.1,0,.2,0,.3.2.7.9,1.4,1.9,1.9,3,0,.2,0,.3,0,.5,0,.5-.5.8-1,.7-.1,0-.2,0-.3-.2-.5-1.1-1.2-2.1-1.8-3.1,0-.1,0-.3,0-.4,0-.5.5-.8,1-.7Z"/>
        <path class="st6" d="M45.5,19.1l-2.3,8.5c0,.4-.4.7-.8.6-.4,0-.6-.2-.5-.6l4.1-15.5c.2-1.1,1.2-1.9,2.3-1.8h4c1,0,1.4.5,1.1,1.4l-1.6,5.9c-.2.9-1,1.6-1.9,1.5h-4.5ZM51.1,15.3h-4.6l-.7,2.4h4.1c.3,0,.5-.2.5-.5l.6-2ZM51.1,11.7h-2.9c-.4,0-.7.3-.8.6l-.5,1.9h4.5l.6-2.1c0-.3,0-.4-.3-.4h-.6ZM58.3,10.3h3.4c1.2,0,1.7.6,1.4,1.8l-3.8,14.2c-.2,1.1-1.2,1.9-2.3,1.9-1.1,0-2.1,0-3.2-.3-.3,0-.5-.3-.4-.6,0,0,0,0,0,0,.1-.4.4-.7.8-.7h.5c.8.1,1.7.2,2.5.3.4,0,.6-.3.8-1l1.8-6.7h-5c-1,0-1.3-.5-1.1-1.5l1.6-5.9c.2-.9,1-1.5,1.9-1.4h1.2ZM60.2,17.8l.6-2.4h-5.1l-.5,1.9c0,.4,0,.5.3.5h4.6ZM56,14.2h5.1l.5-1.9c.1-.4,0-.6-.5-.6h-4c-.3,0-.6.2-.6.5l-.5,2Z"/>
        <path class="st6" d="M70.1,14.7h4c0-.2.2-.3.3-.5l.6-1.2h-7.3c-.5,0-.6-.2-.5-.7,0-.4.5-.8.9-.7h7.6c.2-.4.4-.9.6-1.2.1-.3.4-.5.7-.5.6,0,.8.2.7.7,0,.2-.2.3-.3.4l-.2.5h7.2c.5,0,.6.2.5.7,0,.4-.5.7-.9.7h-7.5c-.3.5-.6,1.1-.9,1.6h5.1c.9,0,1.2.4,1,1.2l-2.7,10.2h2c.5,0,.6.2.5.7,0,.4-.5.7-.9.7h-17.2c-.5,0-.6-.2-.5-.7,0-.4.5-.7.9-.7h1.9l2.7-10.1c.1-.8.8-1.3,1.6-1.2ZM67.3,26.1h10.2l.5-1.7h-10.2l-.5,1.7ZM68.1,23.3h10.2l.4-1.6h-10.2l-.4,1.6ZM68.8,20.5h10.2l.4-1.5h-10.2l-.4,1.5ZM69.5,17.8h10.2l.3-1.2c0-.3,0-.5-.3-.5h-9.4c-.2,0-.4.2-.5.5l-.3,1.2Z"/>
        <path class="st6" d="M92.8,13.5c.4,0,.6.2.5.7,0,.4-.4.7-.9.7h-1l-.9,3.4c.3-.2.7-.5,1.1-.7h.3c.5,0,.6.2.5.7,0,.2-.2.4-.4.5-.6.5-1.3.9-2,1.2l-1.7,6.4c-.2,1.1-1.3,1.8-2.4,1.7-.3,0-.6-.1-.9-.3-.3,0-.5-.3-.4-.6,0,0,0,0,0-.1.1-.4.4-.7.8-.7,0,0,0,0,.1,0,.2.1.5.2.7.2.4,0,.6-.2.7-.6l1.4-5.3c-.4.2-.8.4-1.2.5-.1,0-.2,0-.3,0-.5,0-.7-.2-.5-.7,0-.4.4-.7.8-.8.6-.2,1.2-.5,1.8-.7l1.2-4.3h-1.2c-.5,0-.6-.2-.5-.7,0-.4.5-.7.9-.7h1.3l.7-2.7c0-.4.4-.8.9-.8.5,0,.6.2.5.7l-.7,2.7h1.1ZM94.3,20h7.8c.8,0,1.1.4.9,1.1l-1.5,5.6c-.1.7-.8,1.1-1.5,1.1h-7.7c-.8,0-1.1-.4-.9-1.1l1.5-5.6c.1-.7.8-1.1,1.5-1.1ZM105.6,10.3c.4,0,.6.3.4.8,0,.3-.4.5-1,.6-1,.1-2.3.3-3.8.4l-.7,2.7h.9l.6-.6c.4-.4.9-.9,1.2-1.4.2-.2.4-.3.7-.3.2,0,.3,0,.4.2,0,.1,0,.3,0,.4,0,.2-.1.3-.2.4-.3.3-.6.7-.9.9l-.2.2h2.1c.4,0,.6.2.4.6,0,.4-.4.7-.8.6h-4.1c.4.4.9.8,1.4,1.1.8.6,1.7,1,2.6,1.4.3.1.4.4.3.7,0,.2-.2.3-.3.5-.2.2-.4.3-.6.2-.2,0-.4,0-.5-.1-.7-.4-1.4-.9-2-1.3-.6-.4-1.1-.9-1.6-1.5l-.6,2c0,.4-.5.7-.9.7-.5,0-.6-.2-.5-.7l.6-2.1c-.6.4-1.2.9-1.8,1.2-1.2.7-2.4,1.3-3.7,1.8h-.4c-.4,0-.5-.2-.4-.7,0-.3.3-.5.6-.6,1.3-.5,2.6-1,3.9-1.7.5-.3,1-.6,1.5-1h-4.5c-.4,0-.6-.2-.4-.6,0-.4.4-.6.8-.6h2.4c0-.1-.2-.3-.3-.4l-.5-.5c-.1-.1-.1-.3-.1-.5,0-.4.4-.6.8-.6.2,0,.3,0,.5,0,.2.2.3.4.5.6.2.3.4.7.6,1,0,.1,0,.3,0,.4h1.1l.7-2.6c-2.1.1-3.7.2-4.5.2s-.7-.2-.6-.7c0-.4.4-.7.8-.6,1.7,0,3.3,0,4.8-.2,1.8-.1,3.5-.3,5.3-.6h0ZM95.8,26.5l.6-2.2h-3l-.4,1.7c0,.4,0,.6.3.6h2.5ZM93.7,23.2h3l.5-2h-2.6c-.3,0-.5.2-.6.5l-.4,1.5ZM99.6,26.5c.3,0,.5-.2.6-.6l.4-1.6h-2.8l-.6,2.2h2.4ZM98.7,21.2l-.5,2h2.8l.4-1.4c0-.4,0-.5-.3-.5h-2.4Z"/>
      </g>
    </g>
  </g>
</svg>