<?xml version="1.0" encoding="UTF-8"?>
<svg xmlns="http://www.w3.org/2000/svg" width="40" height="16" xmlns:xlink="http://www.w3.org/1999/xlink" viewBox="0 0 40 16">
  <defs>
    <style>
      .cls-1 {
        filter: url(#drop-shadow-1);
      }

      .cls-2 {
        fill: #8a8a8a;
      }

      .cls-3 {
        fill: url(#_命名漸層_90);
      }
    </style>
    <filter id="drop-shadow-1" filterUnits="userSpaceOnUse">
      <feOffset dx="1" dy="1"/>
      <feGaussianBlur result="blur" stdDeviation="1"/>
      <feFlood flood-color="#000" flood-opacity=".5"/>
      <feComposite in2="blur" operator="in"/>
      <feComposite in="SourceGraphic"/>
    </filter>
    <linearGradient id="_命名漸層_90" data-name="未命名漸層 90" x1="20" y1="16" x2="20" y2="0" gradientTransform="matrix(1, 0, 0, 1, 0, 0)" gradientUnits="userSpaceOnUse">
      <stop offset="0" stop-color="#b5b5b6"/>
      <stop offset=".3" stop-color="#dcdddd"/>
      <stop offset=".38" stop-color="#e1e1e1"/>
      <stop offset=".65" stop-color="#f0efef"/>
      <stop offset="1" stop-color="#f7f9f9"/>
    </linearGradient>
  </defs>
  <g id="Layer_1" data-name="Layer 1"/>
  <g id="Layer_2" data-name="Layer 2">
    <g id="_註" data-name="標註">
      <g class="cls-1">
        <rect class="cls-3" x="0" y="0" width="40" height="16" rx="7.91" ry="7.91"/>
        <g>
          <path class="cls-2" d="M11.75,12.58h-3.19c-.69,0-1.03-.33-1.03-.98V4c0-.38,.22-.56,.66-.56s.68,.19,.68,.56v6.54c0,.56,.27,.84,.82,.84h2.13c.31,0,.47,.21,.47,.62,0,.38-.18,.57-.54,.57Z"/>
          <path class="cls-2" d="M16.88,12.81c-.44,0-.66-.2-.66-.6V4c0-.38,.22-.57,.66-.57s.63,.19,.63,.56V12.23c0,.39-.21,.59-.63,.59Z"/>
          <path class="cls-2" d="M26.47,4.26l-1.86,8.02c-.09,.36-.35,.54-.77,.54s-.67-.18-.76-.54l-1.88-8.02c-.02-.08-.02-.14-.02-.19,0-.2,.07-.36,.21-.48,.14-.11,.31-.16,.5-.16,.31,0,.51,.18,.6,.53l1.35,5.64,1.35-5.64c.09-.35,.3-.53,.64-.53,.2,0,.36,.06,.48,.18s.19,.27,.19,.46c0,.05,0,.12-.02,.2Z"/>
          <path class="cls-2" d="M32.76,12.58h-3.45c-.27,0-.51-.09-.7-.26-.2-.17-.3-.39-.3-.64V4.56c0-.27,.1-.49,.29-.66,.19-.17,.42-.26,.7-.26h3.38c.36,0,.54,.2,.54,.59s-.18,.61-.53,.61h-2.26c-.53,0-.8,.27-.8,.81v1.56h2.64c.35,0,.53,.2,.53,.61s-.17,.6-.52,.6h-2.65v2.17c0,.54,.28,.81,.84,.81h2.27c.35,0,.53,.2,.53,.6s-.17,.59-.52,.59Z"/>
        </g>
      </g>
    </g>
  </g>
</svg>