<?xml version="1.0" encoding="UTF-8"?>
<svg xmlns="http://www.w3.org/2000/svg" width="93.96" height="82" xmlns:xlink="http://www.w3.org/1999/xlink" viewBox="0 0 93.96 82">
  <defs>
    <style>
      .cls-1 {
        filter: url(#drop-shadow-2);
      }

      .cls-2 {
        fill: url(#_命名漸層_88);
        filter: url(#drop-shadow-1);
      }

      .cls-3 {
        fill: #8a8a8a;
      }

      .cls-4 {
        fill: #b5b5b6;
      }

      .cls-5 {
        fill: #aaa;
      }

      .cls-6 {
        fill: url(#_命名漸層_90);
      }
    </style>
    <radialGradient id="_命名漸層_88" data-name="未命名漸層 88" cx="53.65" cy="39.8" fx="53.65" fy="39.8" r="35" gradientTransform="matrix(1, 0, 0, 1, 0, 0)" gradientUnits="userSpaceOnUse">
      <stop offset="0" stop-color="#f7f9f9"/>
      <stop offset=".35" stop-color="#f0efef"/>
      <stop offset=".62" stop-color="#e1e1e1"/>
      <stop offset=".7" stop-color="#dcdddd"/>
      <stop offset="1" stop-color="#b5b5b6"/>
    </radialGradient>
    <filter id="drop-shadow-1" filterUnits="userSpaceOnUse">
      <feOffset dx="1.5" dy="1.5"/>
      <feGaussianBlur result="blur" stdDeviation="1"/>
      <feFlood flood-color="#000" flood-opacity=".5"/>
      <feComposite in2="blur" operator="in"/>
      <feComposite in="SourceGraphic"/>
    </filter>
    <filter id="drop-shadow-2" filterUnits="userSpaceOnUse">
      <feOffset dx="1.1" dy="1.1"/>
      <feGaussianBlur result="blur-2" stdDeviation="1.1"/>
      <feFlood flood-color="#000" flood-opacity=".5"/>
      <feComposite in2="blur-2" operator="in"/>
      <feComposite in="SourceGraphic"/>
    </filter>
    <linearGradient id="_命名漸層_90" data-name="未命名漸層 90" x1="22" y1="17.6" x2="22" y2="0" gradientTransform="matrix(1, 0, 0, 1, 0, 0)" gradientUnits="userSpaceOnUse">
      <stop offset="0" stop-color="#b5b5b6"/>
      <stop offset=".3" stop-color="#dcdddd"/>
      <stop offset=".38" stop-color="#e1e1e1"/>
      <stop offset=".65" stop-color="#f0efef"/>
      <stop offset="1" stop-color="#f7f9f9"/>
    </linearGradient>
  </defs>
  <g id="Layer_1" data-name="Layer 1"/>
  <g id="Layer_2" data-name="Layer 2">
    <g id="_層_1" data-name="圖層 1">
      <g>
        <g>
          <path class="cls-4" d="M77.96,8.46c-4.1-3.18-8.72-5.52-13.73-6.94C59.21,.1,54.05-.33,48.89,.24c-5.34,.59-10.45,2.23-15.17,4.87-6.26,3.5-11.47,8.6-15.06,14.76-3.45,5.91-5.34,12.65-5.48,19.49h.69c.29-13.95,8.01-26.84,20.19-33.65,18.99-10.62,43.07-3.81,53.69,15.17,10.58,18.92,3.86,42.9-14.98,53.57l.33,.6c4.64-2.63,8.65-6.08,11.9-10.27,3.18-4.1,5.52-8.72,6.94-13.73,1.42-5.02,1.85-10.17,1.28-15.33-.59-5.34-2.23-10.45-4.87-15.17-2.64-4.73-6.14-8.8-10.38-12.1Z"/>
          <path class="cls-4" d="M20.37,58.56c-3.11-5.56-4.76-11.81-4.81-18.13l-4.11-.06c.02,3.33,.43,6.65,1.23,9.87,.9,3.59,2.27,7.07,4.1,10.33,2.76,4.93,6.4,9.17,10.82,12.61,4.27,3.32,9.09,5.75,14.32,7.23,5.23,1.48,10.61,1.93,15.99,1.33,5.31-.58,10.39-2.16,15.12-4.7l-2.01-3.59c-18.05,9.61-40.63,3.03-50.65-14.9Z"/>
        </g>
        <circle class="cls-2" cx="53.65" cy="39.8" r="35"/>
        <g>
          <path class="cls-5" d="M59.43,47.76h-11.55c-.59,0-1.06-.48-1.06-1.06s.47-1.06,1.06-1.06h11.55c.59,0,1.06,.48,1.06,1.06s-.47,1.06-1.06,1.06Z"/>
          <path class="cls-5" d="M53.65,47.76c-.59,0-1.06-.47-1.06-1.06v-8.69c0-.59,.48-1.06,1.06-1.06s1.06,.48,1.06,1.06v8.69c0,.59-.48,1.06-1.06,1.06Z"/>
          <path class="cls-5" d="M53.71,38.43h-.12c-2.66,0-5.15-1.03-7.03-2.91-1.88-1.88-2.91-4.37-2.91-7.03,0-.59,.47-1.06,1.06-1.06s1.06,.48,1.06,1.06c0,2.09,.81,4.05,2.29,5.53,1.48,1.48,3.44,2.29,5.53,2.29h.12c2.09,0,4.05-.81,5.53-2.29,1.48-1.48,2.29-3.44,2.29-5.53,0-.59,.48-1.06,1.06-1.06s1.06,.48,1.06,1.06c0,2.66-1.03,5.15-2.91,7.03-1.88,1.88-4.37,2.91-7.03,2.91Z"/>
          <path class="cls-5" d="M56.34,28.15v-1.35h3.09v-1.36h-3.09v-1.35h3.09v-1.36h-3.09v-1.35h3.09v-1.36h-3.09v-1.35h3.09v-.25c0-3.16-2.56-5.72-5.72-5.72h-.12c-3.16,0-5.72,2.56-5.72,5.72v.25h3.09v1.35h-3.09v1.36h3.09v1.35h-3.09v1.36h3.09v1.35h-3.09v1.36h3.09v1.35h-3.09v.34c0,3.16,2.56,5.72,5.72,5.72h.12c3.16,0,5.72-2.56,5.72-5.72v-.34h-3.09Z"/>
        </g>
        <g>
          <path class="cls-3" d="M30.97,44.8c.05,.12,.07,.24,.05,.38-.04,.15-.12,.25-.24,.3-.06,.03-.14,.04-.26,.06-.14,.02-.28,.04-.41,.05l.71,1.58h.12c.25,.03,.5,.05,.74,.05,.19,.04,.32,.15,.4,.32,.04,.1,.05,.21,0,.34-.05,.11-.12,.19-.22,.24-.11,.05-.23,.06-.36,.04l-.27-.06,.58,1.3c.1,.22,.03,.39-.2,.49-.26,.12-.44,.06-.54-.16l-.69-1.55-.86,.39,.67,1.5c.1,.22,.03,.39-.2,.49-.26,.12-.44,.06-.54-.16l-.67-1.5-.81,.36,.67,1.5c.1,.22,.03,.39-.2,.49-.26,.12-.44,.06-.54-.16l-.67-1.5-.86,.39,.67,1.5c.11,.25,.07,.42-.14,.53,.05,0,.1,0,.15,0,.82,.42,1.62,.61,2.41,.55,.58-.07,1.16-.23,1.74-.5l-.13-.29c-.21-.47-.06-.81,.45-1.04l5.58-2.5c.47-.21,.8-.08,1.01,.39l1.29,2.88c.23,.51,.11,.87-.36,1.07l-5.58,2.5c-.51,.23-.88,.09-1.1-.42l-.2-.45-3.04,1.36c-.22,.1-.25,.35-.06,.76,.1,.23,.29,.3,.55,.19l.76-.31c.24-.09,.42,0,.55,.25,.09,.26,.01,.45-.22,.58-.94,.42-1.51,.56-1.73,.43-.25-.08-.47-.34-.67-.79-.25-.57-.35-.97-.29-1.22,.04-.24,.2-.42,.46-.54l3.34-1.5-.22-.5c-.68,.29-1.35,.49-2.01,.59-.91,.09-1.82-.08-2.73-.5-.19-.04-.31-.13-.37-.27-.13-.29-.07-.51,.17-.66-.14,0-.25-.1-.33-.27l-1.88-4.19c-.24-.54-.1-.93,.42-1.16l2.66-1.19c-.11-.04-.17-.09-.2-.14-.15-.33-.09-.56,.19-.68,.11-.05,.22-.06,.33-.04,.39,.13,.8,.22,1.23,.26,.45,.06,.93,.05,1.46-.02,.23-.05,.38,0,.45,.17Zm-4.95,4.36l.86-.39-.84-1.88-.45,.2c-.27,.12-.36,.3-.26,.52l.69,1.55Zm1.6-.72l.81-.36-.84-1.88-.81,.36,.84,1.88Zm1.55-.69l.86-.39-.79-1.77c-.1,0-.19,0-.29,0l-.62,.28,.84,1.88Zm3.93-4.74l.64,1.43c.18,.4,.1,.67-.23,.82l-1.25,.56c-.37,.16-.64,.05-.82-.35l-.64-1.43c-.16-.37-.06-.63,.3-.8l1.25-.56c.33-.15,.58-.04,.75,.33Zm-1.15,1.84c.06,.12,.17,.15,.35,.07l.55-.25c.12-.06,.16-.15,.1-.27l-.34-.76c-.04-.09-.12-.11-.25-.05l-.55,.25c-.17,.08-.24,.16-.2,.25l.34,.76Zm1.12,9.02c.09,.2,.23,.26,.42,.17l.95-.43-1.19-2.66-.95,.43c-.19,.09-.25,.22-.17,.39l.94,2.1Zm1.36-7.62l.67,1.48c.18,.41,.11,.69-.22,.84l-1.2,.54c-.37,.16-.64,.04-.82-.37l-.67-1.48c-.16-.37-.06-.63,.3-.79l1.2-.54c.33-.15,.58-.04,.75,.33Zm-1.08,1.86c.06,.12,.17,.15,.35,.07l.5-.22c.12-.06,.16-.15,.1-.27l-.36-.81c-.04-.09-.12-.11-.25-.05l-.5,.22c-.17,.08-.24,.16-.2,.25l.36,.81Zm3.77-.85c.12,.27,.05,.46-.22,.58-.27,.12-.47,.05-.59-.21l-.48-1.06-.1,.04c-.27,.12-.47,.03-.6-.27-.12-.26-.04-.45,.23-.57l.1-.04-.77-1.71-.14,.06c-.27,.12-.48,.03-.61-.26-.12-.26-.04-.45,.24-.57l.14-.06-.51-1.15c-.12-.27-.04-.46,.23-.58,.27-.12,.46-.05,.58,.22l.51,1.15,.24-.11c.27-.12,.47-.06,.58,.2,.13,.3,.06,.51-.21,.63l-.24,.11,.77,1.71,.24-.11c.27-.12,.47-.06,.59,.2,.13,.3,.06,.51-.21,.63l-.24,.11,.48,1.06Zm-3.06,3.33l1.19,2.66,1.2-.54-1.19-2.66-1.2,.54Zm1.98-.89l1.19,2.66,1.05-.47c.17-.08,.22-.22,.13-.42l-.94-2.1c-.08-.17-.21-.22-.38-.14l-1.05,.47Z"/>
          <path class="cls-3" d="M51.81,57.86c.31,.12,.4,.35,.27,.69-.06,.16-.21,.24-.45,.25-1.33-.39-2.79-.85-4.36-1.36-.23-.08-.46-.16-.67-.23-.03,.05-.06,.09-.09,.12-.18,.23-.35,.45-.52,.66l5.51,2.15c.25,.1,.32,.27,.22,.51-.1,.26-.28,.35-.52,.25l-5.79-2.26c-.23,.23-.45,.44-.66,.62-.03,.03-.06,.06-.1,.09l6.72,2.63c.24,.09,.31,.26,.22,.5-.1,.26-.27,.35-.51,.26l-7.21-2.82c-.26,.17-.52,.33-.77,.48-.12,.05-.23,.1-.35,.14l6.24,2.44c.58,.23,.76,.61,.54,1.17l-1.73,4.43c-.21,.53-.6,.69-1.18,.46l-6.89-2.69c-.57-.22-.75-.6-.54-1.14l1.59-4.07c-.5,.09-1.08,.14-1.72,.15-.19,0-.32,0-.4-.04-.12-.05-.21-.13-.26-.26-.05-.13-.05-.25,0-.37,.08-.21,.22-.32,.41-.33,.88,0,1.64-.09,2.27-.24,.56-.14,1.09-.33,1.58-.56,.01-.01,.02-.02,.03-.03l-2.71-1.06c-.25-.1-.32-.28-.21-.54,.09-.24,.26-.31,.51-.21l3.31,1.29c.22-.16,.44-.33,.65-.51,.07-.05,.14-.11,.2-.17l-3.48-1.36c-.23-.09-.29-.27-.19-.53,.1-.25,.26-.32,.49-.23l3.79,1.48c.21-.22,.43-.47,.64-.75-1.33-.45-2.59-.9-3.79-1.35-.34-.13-.44-.37-.31-.71,.11-.24,.3-.31,.56-.21,1.34,.5,2.71,.99,4.11,1.47,1.77,.62,3.62,1.21,5.53,1.77Zm-5.29,10.22c.25,.1,.42,0,.53-.26l.26-.66-6.79-2.65-.26,.66c-.11,.27-.04,.45,.2,.55l6.06,2.37Zm-5.7-4.35l6.79,2.65,.33-.85-6.79-2.65-.33,.85Zm.64-1.63l6.79,2.65,.22-.56c.1-.26,.03-.44-.21-.54l-6.06-2.37c-.24-.09-.41,0-.51,.26l-.22,.56Z"/>
          <path class="cls-3" d="M58.4,60.33l2.55-1.09c-.02-.08-.02-.2-.02-.36-.04-.29-.08-.57-.12-.83l-4.69,2.01c-.3,.13-.52,.04-.65-.26-.13-.31-.05-.53,.25-.66l4.91-2.11c-.06-.31-.11-.6-.16-.87,0-.25,.08-.41,.25-.48,.37-.16,.62-.08,.75,.23,.04,.09,.05,.2,.02,.33,.04,.13,.07,.26,.09,.38l4.65-2c.3-.13,.52-.04,.65,.27,.13,.3,.04,.52-.26,.65l-4.85,2.08c.06,.37,.11,.76,.16,1.18l3.27-1.4c.58-.25,.98-.11,1.21,.42l2.8,6.53,1.29-.56c.3-.13,.52-.04,.65,.26,.13,.31,.05,.53-.25,.66l-11.04,4.74c-.3,.13-.52,.04-.65-.27-.13-.3-.04-.52,.26-.65l1.24-.53-2.8-6.53c-.23-.53-.07-.91,.48-1.14Zm.99,1.88l6.57-2.82-.32-.74c-.09-.21-.23-.27-.42-.19l-6.04,2.59c-.16,.07-.19,.21-.1,.42l.32,.74Zm.76,1.77l6.57-2.82-.43-1.01-6.57,2.82,.43,1.01Zm.75,1.76l6.57-2.82-.43-1.01-6.57,2.82,.43,1.01Zm.79,1.85l6.57-2.82-.47-1.11-6.57,2.82,.47,1.11Z"/>
          <path class="cls-3" d="M70.82,50.25c.12-.3,.33-.38,.64-.26,.31,.13,.41,.34,.29,.63l-.27,.67,2.19,.9c-.06-.24-.14-.51-.23-.8l.03-.18c.12-.3,.36-.39,.69-.25,.1,.04,.19,.15,.27,.32,.14,.35,.26,.81,.36,1.37l4.14,1.69c.74,.3,.94,.87,.6,1.71-.06,.15-.2,.33-.41,.54-.18,.21-.37,.28-.59,.19-.28-.13-.38-.32-.31-.55,0-.02,.02-.04,.05-.08,.2-.22,.32-.38,.35-.46,.1-.24,0-.41-.27-.53l-3.4-1.39c.02,.29,.03,.57,.04,.84,0,.09,0,.16-.03,.22-.13,.31-.34,.41-.65,.28-.27-.11-.39-.3-.36-.57,0-.46,0-.86-.05-1.2l-2.77-1.13-.34,.82c-.12,.3-.34,.39-.65,.26-.3-.12-.39-.34-.27-.64l.34-.82-1.76-.72c-.31-.13-.41-.34-.29-.63,.12-.3,.34-.39,.65-.26l1.76,.72,.27-.67Zm1.08-8.54c.11-.27,.33-.34,.67-.2,.22,.09,.29,.31,.2,.67-.17,.67-.43,1.51-.75,2.53l1.75,.71,.24-.58c-.09-.14-.17-.29-.25-.43-.2-.32-.43-.63-.68-.93-.09-.14-.1-.3-.03-.47,.05-.12,.13-.2,.23-.24,.11-.04,.22-.04,.34,0,.1,.04,.19,.11,.25,.21,.17,.21,.32,.43,.45,.66,.03,.06,.07,.12,.11,.18l.56-1.38c.11-.26,.29-.34,.55-.23,.27,.11,.35,.3,.24,.56l-1.12,2.75c.42-.24,.83-.51,1.21-.82,.72-.57,1.29-1.1,1.73-1.58,.19-.17,.38-.21,.58-.13,.1,.04,.19,.12,.26,.24,.08,.13,.08,.27,.02,.41-.05,.12-.13,.22-.23,.32-.49,.42-.98,.81-1.49,1.18-.45,.34-.94,.64-1.47,.92l1.33,.54c.3,.12,.39,.34,.26,.65-.12,.3-.34,.39-.64,.27l-1.39-.57c.17,.42,.3,.85,.4,1.29,.17,.64,.28,1.5,.33,2.57-.02,.15-.04,.24-.05,.26-.11,.26-.33,.32-.67,.19-.19-.08-.28-.23-.27-.45,0-1.11-.09-2-.25-2.69-.07-.37-.17-.74-.3-1.08l-1.2,2.94c-.11,.26-.3,.34-.57,.23-.26-.11-.34-.29-.23-.55l.64-1.56c-.14,.04-.27,.08-.36,.13-.16,.08-.33,.17-.5,.25-.15,.06-.28,.06-.38,.02-.27-.11-.35-.3-.24-.56,.03-.08,.09-.18,.18-.3,.21-.09,.4-.19,.57-.28,.26-.12,.55-.22,.85-.32,.15-.02,.25-.02,.31,0l.29-.7-1.7-.69c-.48,1.4-.83,2.38-1.05,2.94-.14,.34-.36,.44-.66,.32-.28-.11-.36-.31-.25-.59,.45-1.12,.84-2.17,1.17-3.15,.42-1.21,.75-2.36,1-3.46Zm4,8.15l2.06-5.02c.21-.51,.54-.66,1.01-.47l3.66,1.5c.46,.19,.59,.54,.38,1.04l-2.06,5.02c-.21,.51-.54,.66-1.01,.47l-3.66-1.5c-.46-.19-.59-.54-.38-1.04Zm2.14,.69l.8-1.95-1.26-.53-.68,1.67c-.08,.19,0,.34,.22,.43l.92,.38Zm-.09-3.39l1.26,.53,.75-1.83-.92-.38c-.23-.09-.38-.04-.46,.15l-.63,1.53Zm3.05,2.36l-1.42-.6-.79,1.94,1.06,.44c.24,.1,.41,.05,.49-.14l.67-1.63Zm1.02-2.48c.08-.19,0-.34-.25-.44l-1.06-.44-.76,1.85,1.42,.6,.64-1.57Z"/>
        </g>
        <g class="cls-1">
          <rect class="cls-6" x="0" y="0" width="44" height="17.6" rx="8.71" ry="8.71"/>
          <g>
            <path class="cls-3" d="M12.92,13.84h-3.51c-.76,0-1.13-.36-1.13-1.08V4.4c0-.41,.24-.62,.72-.62s.75,.21,.75,.62v7.19c0,.62,.3,.93,.9,.93h2.35c.34,0,.52,.23,.52,.68,0,.42-.2,.63-.59,.63Z"/>
            <path class="cls-3" d="M18.56,14.1c-.48,0-.72-.22-.72-.66V4.4c0-.42,.24-.63,.72-.63s.7,.21,.7,.62V13.45c0,.43-.23,.64-.7,.64Z"/>
            <path class="cls-3" d="M29.11,4.69l-2.05,8.82c-.1,.4-.39,.59-.85,.59s-.73-.2-.84-.59l-2.06-8.82c-.02-.09-.03-.15-.03-.21,0-.21,.08-.39,.23-.53,.16-.12,.34-.18,.55-.18,.34,0,.56,.19,.66,.58l1.48,6.2,1.48-6.2c.09-.39,.33-.58,.71-.58,.21,0,.39,.06,.53,.19s.21,.3,.21,.5c0,.06,0,.13-.03,.22Z"/>
            <path class="cls-3" d="M36.03,13.84h-3.79c-.3,0-.56-.09-.77-.28-.22-.19-.33-.43-.33-.71V5.02c0-.3,.11-.54,.32-.72,.21-.19,.46-.28,.77-.28h3.71c.4,0,.59,.21,.59,.64s-.19,.67-.58,.67h-2.49c-.58,0-.88,.3-.88,.89v1.71h2.9c.39,0,.58,.22,.58,.67s-.19,.66-.57,.66h-2.91v2.38c0,.59,.31,.89,.93,.89h2.5c.39,0,.58,.22,.58,.66s-.19,.64-.57,.64Z"/>
          </g>
        </g>
      </g>
    </g>
  </g>
</svg>