<?xml version="1.0" encoding="UTF-8"?>
<svg id="Layer_1" xmlns="http://www.w3.org/2000/svg" xmlns:xlink="http://www.w3.org/1999/xlink" version="1.1" viewBox="0 0 200 45.7">
  <!-- Generator: Adobe Illustrator 29.1.0, SVG Export Plug-In . SVG Version: 2.1.0 Build 142)  -->
  <defs>
    <style>
      .st0, .st1 {
        fill: none;
      }

      .st2 {
        fill: url(#linear-gradient2);
      }

      .st3 {
        fill: url(#linear-gradient1);
      }

      .st4 {
        fill: url(#linear-gradient3);
      }

      .st5 {
        fill: #040403;
        opacity: .1;
      }

      .st5, .st6 {
        isolation: isolate;
      }

      .st1 {
        clip-path: url(#clippath);
      }

      .st7 {
        fill: url(#linear-gradient);
      }

      .st8 {
        mix-blend-mode: multiply;
      }

      .st9 {
        clip-path: url(#clippath-1);
      }

      .st10 {
        fill: #fff;
      }
    </style>
    <linearGradient id="linear-gradient" x1="2.9" y1="21" x2="160.6" y2="21" gradientUnits="userSpaceOnUse">
      <stop offset="0" stop-color="#f9e0ac"/>
      <stop offset="1" stop-color="#f9b653"/>
    </linearGradient>
    <linearGradient id="linear-gradient1" x1="147.6" x2="196.2" xlink:href="#linear-gradient"/>
    <linearGradient id="linear-gradient2" x1="0" y1="25.8" x2="157.8" y2="25.8" gradientTransform="translate(0 46.8) scale(1 -1)" gradientUnits="userSpaceOnUse">
      <stop offset="0" stop-color="#f9b653"/>
      <stop offset="1" stop-color="#f9e0ac"/>
    </linearGradient>
    <linearGradient id="linear-gradient3" x1="144.7" x2="193.3" xlink:href="#linear-gradient2"/>
    <clipPath id="clippath">
      <polygon class="st0" points="-4.5 -25.5 -3.5 -25.5 -4.5 -24.5 -4.5 -25.5"/>
    </clipPath>
    <clipPath id="clippath-1">
      <polygon class="st1" points="-6.5 -27.5 -7.5 -27.5 -6.5 -28.5 -6.5 -27.5"/>
    </clipPath>
  </defs>
  <g class="st6">
    <g id="b">
      <g id="c">
        <g>
          <g>
            <path class="st5" d="M178.1,3.8h-29.5c12.1,0,21.9,9.4,21.9,21s-9.9,21-21.9,21h29.5c12.1,0,21.9-9.4,21.9-21s-9.9-21-21.9-21Z"/>
            <path class="st5" d="M25.7,45.7h116.8c12.1,0,21.9-9.4,21.9-21s-9.9-21-21.9-21H25.7c-12,0-21.9,9.4-21.9,21s9.9,21,21.9,21Z"/>
            <g>
              <g>
                <path class="st7" d="M160.6,21c0,11.5-9.9,21-21.9,21H24.8c-12.1,0-21.9-9.4-21.9-21S12.7,0,24.8,0h113.9C150.8,0,160.6,9.4,160.6,21h0Z"/>
                <path class="st3" d="M174.3,0h-26.7C159.7,0,169.5,9.4,169.5,21s-9.9,21-21.9,21h26.7c12.1,0,21.9-9.4,21.9-21S186.3,0,174.3,0Z"/>
              </g>
              <g>
                <g>
                  <path class="st2" d="M157.8,21c0,11.5-9.9,21-21.9,21H21.9C9.9,41.9,0,32.5,0,21S9.9,0,21.9,0h113.9C147.9,0,157.8,9.4,157.8,21h0Z"/>
                  <path class="st4" d="M171.4,0h-26.7C156.8,0,166.6,9.4,166.6,21s-9.9,21-21.9,21h26.7c12.1,0,21.9-9.4,21.9-21S183.5,0,171.4,0Z"/>
                </g>
                <path class="st10" d="M182.6,20.1c-2.9-2.9-5.7-5.8-8.6-8.7-1.1-1.1-2.8.6-1.7,1.7,2.6,2.6,5.2,5.3,7.8,7.9-2.6,2.6-5.2,5.3-7.8,7.9-1.1,1.1.6,2.8,1.7,1.7,2.9-2.9,5.7-5.8,8.6-8.7.5-.5.5-1.2,0-1.7Z"/>
              </g>
            </g>
          </g>
          <g>
            <g class="st8">
              <g class="st9">
                <image class="st6" width="173" height="94" transform="translate(-92 -73.5)" xlink:href="live-title-1.png"/>
              </g>
            </g>
            <g>
              <path class="st10" d="M34.1,24.9c.4,0,.7,0,.9.2.2.2.3.5.2.8,0,.2-.2.5-.5.9-.9,1.3-1.6,2.1-2.1,2.6-.4.5-.9.7-1.3.7s-.6-.1-.8-.3c-.2-.2-.3-.5-.2-.9,0-.1.2-.3.5-.6.9-.9,1.8-1.9,2.6-3,.1-.2.3-.3.4-.4.1,0,.3-.1.5-.2h0ZM34.3,19h3l.2-.8c0-.2.2-.5.5-.7.2-.1.5-.2.8-.2s.6,0,.7.2c.2.2.2.4.1.7l-.2.8h3.1c.3,0,.5,0,.6.2.1.1.1.3,0,.7,0,.3-.2.5-.3.6-.2.2-.5.3-.8.3h-3.1l-.3,1.1c1.2,0,2.5-.1,3.7-.2.2,0,.4,0,.5.2,0,.1,0,.4,0,.7,0,.3-.2.5-.4.7-.1.1-.4.2-.7.2-3.3.4-6.4.5-9.3.6-.3,0-.5,0-.6-.2-.1-.2-.1-.4,0-.8,0-.3.2-.5.4-.6.2-.2.6-.3.9-.3,1.1,0,2.2-.1,3.3-.2l.3-1.3h-3c-.3,0-.4,0-.5-.2-.1-.1-.1-.4,0-.7,0-.3.2-.5.4-.7.1-.1.3-.2.6-.2h0ZM36.4,10.6h3.2v-.5c.2-.2.4-.5.6-.7.2-.1.5-.2.8-.2s.7,0,.8.2c.2.2.2.4.1.7v.5c-.1,0,2.8,0,2.8,0,.3,0,.5,0,.6.2.1.1.1.3,0,.7,0,.3-.2.5-.3.6-.2.2-.4.3-.8.3h-2.9l-.3,1.2h3.3c.3,0,.5,0,.6.2.1.1.2.4,0,.7,0,.3-.2.5-.3.7-.2.2-.5.3-.8.3h-1.8l-.2.6c0,.3,0,.4.2.4h1.5c.3,0,.5.2.3.7-.2.5-.4.8-.7.8h-2.5c-.8,0-1.1-.4-.9-1.2l.3-1.3h-1.4c-.4.4-.8.8-1.3,1.2-1,.9-1.7,1.5-2.3,1.8-.3.2-.6.3-1.1.3-.2,0-.4-.1-.6-.3-.2-.2-.2-.4-.2-.7,0-.3.3-.5.8-.8.9-.5,1.6-.9,2.3-1.4h-1.5c-.3,0-.5,0-.6-.2-.1-.1-.2-.4,0-.8,0-.4.2-.6.5-.8.2-.1.4-.2.7-.2h3.5l.3-1.2h-3.2c-.3,0-.4,0-.5-.2-.1-.1-.1-.4,0-.7s.2-.6.4-.7c.1-.1.3-.2.6-.2h0ZM38,25c.3,0,.5.2.6.4.3.3.7,1,1,2.1.2.7.2,1.2.1,1.7,0,.3-.2.5-.4.6-.2.2-.5.3-.9.3s-.4,0-.5-.1c0,0-.2-.2-.2-.3-.2-.7-.5-1.8-1.1-3.3,0-.1,0-.3,0-.4,0-.1,0-.2.2-.4.1-.2.3-.3.6-.4.2,0,.3-.1.5-.1ZM43.6,24.9c.2,0,.5.2.6.4.3.3.7,1,1,2.1.2.6.3,1.2.1,1.7,0,.3-.2.5-.4.6-.2.2-.6.3-.9.3s-.4,0-.5-.1c0,0-.2-.2-.2-.3-.2-.7-.6-1.8-1.1-3.3,0-.1,0-.3,0-.4,0,0,0-.2.2-.4.2-.2.3-.3.6-.4.2,0,.4-.1.6-.1h0ZM49.8,9.1c.3,0,.6,0,.7.2.2.2.2.4.1.7l-.3,1.2h2.3c.9,0,1.3.4,1.1,1.1l-2.1,7.7c-.3,1.2-.4,1.8-.2,1.8s.3-.3.6-.9c0-.3.2-.5.3-.8.2-.3.5-.4.9-.4s.8.2.7.6c-.3,1-.8,2-1.5,2.8-.6.6-1.2,1-1.8,1-.5,0-.8-.5-1.1-1.2-.2-.6-.1-1.6.2-2.9l1.8-6.6c0,0,0-.1-.2-.1h-1.5l-.3,1.3c-.3,1.1-.6,2-.9,2.9-.2.5-.4,1-.6,1.4.4.6.8,1.3,1,2.1.2.3.2.5.2.8,0,.3-.2.6-.5.8-.3.2-.6.3-.9.3s-.5-.1-.6-.4c-.2-.4-.4-.8-.6-1.1-.8,1.3-1.7,2.3-2.5,3.1-.3.2-.7.3-1,.3s-.3-.1-.5-.3c-.1-.2-.2-.5-.1-.7,0-.2.1-.3.2-.5,0-.1.3-.4.6-.8.8-1,1.6-2,2.2-3.1-.3-.5-.6-.9-.9-1.3,0-.1-.1-.2-.2-.3,0-.1,0-.3,0-.6,0-.3.2-.5.5-.7.2-.2.5-.3.9-.3.2,0,.3.1.5.3.1.1.3.3.4.4.3-.7.5-1.5.7-2.3l.3-1.3h-1.1c-.4,0-.6,0-.7-.3-.1-.2-.1-.4,0-.8,0-.4.3-.6.5-.8.2-.1.4-.2.8-.2h1.1l.3-1.2c0-.2.2-.4.4-.6.2-.2.5-.3.9-.3h0ZM48.9,24.9c.2,0,.4,0,.5.2.3.2.6.6.9,1.2.6,1.3.9,2.2.7,2.9,0,.3-.2.5-.5.7-.3.2-.6.3-1,.3-.3,0-.5-.2-.7-.5-.3-1-.7-2.1-1.2-3-.2-.3-.2-.5-.2-.8,0-.3.3-.6.7-.8.2-.1.5-.2.8-.2h0Z"/>
              <path class="st10" d="M60.5,13h1.7l.8-2.8c.2-.6.6-1,1.4-1,.8,0,1.1.3.9,1l-.8,2.8h1.3c.4,0,.6,0,.8.3.2.1.2.5,0,1-.1.4-.3.7-.4.9-.3.3-.7.4-1.1.4h-1.3l-1,3.9c.2,0,.4-.2.6-.3.2-.1.5-.2.7-.3h0c0-.1,0-.3,0-.5,0-.2.2-.4.4-.7,2.1-2.5,3.9-5,5.3-7.7.3-.4.6-.6.9-.7.4,0,.7,0,.9.2.2.1.3.4.2.8,0,.3-.2.6-.4.9-.3.5-.6,1.1-.9,1.6h3.3c.4-.8.8-1.6,1.1-2.5.3-.6.8-.9,1.3-.9s.6.1.8.3c.2.2.3.5.2.9,0,0,0,.2-.1.3-.3.6-.6,1.3-.9,1.9h2.7c.4,0,.7,0,.8.2.2.1.2.4,0,.9,0,.3-.2.6-.4.7-.2.2-.6.4-1,.4h-3l-.7,2.7h2.6c.4,0,.7,0,.8.2.1.1.2.4,0,.9,0,.3-.2.6-.4.7-.2.2-.6.4-1,.4h-2.6l-.7,2.7h2.6c.4,0,.7,0,.8.2.1.1.2.4,0,.9,0,.3-.2.6-.4.7-.2.2-.6.4-1,.4h-2.6l-.7,2.7h3.4c.7,0,1,.4.8,1.1-.2.8-.7,1.1-1.4,1.1h-9.8c-1.1,0-1.5-.5-1.2-1.6l2.5-9.4c0,.1-.2.2-.3.3-.3.3-.7.5-1.1.5h0c0,.2,0,.4,0,.7,0,.3-.3.6-.6.8-.6.4-1.4.8-2.3,1.1l-1.7,6.3c-.2.6-.4,1-.8,1.3-.4.3-.9.5-1.4.5h-1.9c-.4,0-.7-.2-.9-.5-.1-.2-.1-.4,0-.8.1-.4.3-.7.5-.9.2-.2.5-.4,1-.4h1.2c.2,0,.4,0,.4-.2l1.2-4.4c-.7.2-1.3.3-1.8.3-.8,0-1.1-.4-1-1.2.2-.6.5-1,1.1-1.1.8-.2,1.6-.4,2.3-.7l1.3-4.8h-1.7c-.3,0-.6-.1-.8-.3-.2-.2-.2-.5,0-1,.1-.5.3-.8.6-1,.2-.2.5-.2.9-.2h0ZM69.7,27.4l.7-2.7h-3.2l-.6,2.2c0,.3,0,.5.2.5h2.8,0ZM71,22.5l.7-2.7h-3.2l-.7,2.7s3.2,0,3.2,0ZM72.3,17.6l.7-2.7h-3.2l-.7,2.7h3.2Z"/>
              <path class="st10" d="M93.4,9c.2,0,.5,0,.8.2,2,1.3,3.2,2.2,3.6,2.8.1.2.1.5,0,.8,0,.1-.1.3-.2.4h6.1c.4,0,.7.1.8.3.1.1.1.4,0,.9-.1.4-.2.7-.4.9-.3.3-.6.4-1.1.4h-7.5l-1.1,4.1h6.7c.4,0,.7,0,.9.2s.2.5,0,.9c0,.4-.2.6-.4.8-.3.2-.6.4-1.1.4h-6.7l-1.3,4.9h8c.4,0,.8.1.9.3.1.2.1.5,0,1,0,.4-.2.7-.5.9-.3.3-.7.4-1.2.4h-18.7c-.4,0-.7-.1-.9-.3-.2-.2-.2-.5,0-1,.1-.4.3-.8.6-1,.3-.2.6-.3,1-.3h8.1l1.3-4.9h-7c-.4,0-.7,0-.8-.3-.2-.1-.2-.5,0-.9,0-.4.3-.7.5-.9.3-.2.6-.2.9-.2h7l1.1-4.1h-7.5c-.4,0-.7-.1-.8-.3-.1-.2-.1-.5,0-1,.1-.4.3-.7.5-.9.2-.2.6-.3,1-.3h8.5c-1-.8-1.9-1.4-2.7-2-.1,0-.2-.2-.2-.2,0-.2,0-.4,0-.8,0-.3.3-.6.8-.9.4-.2.8-.4,1.1-.4h0Z"/>
              <path class="st10" d="M110.3,13.7h1.3l.9-3.6c.2-.6.6-1,1.3-1,.7,0,1,.3.9,1l-.9,3.6h1c.3,0,.6,0,.7.2.2.1.2.4,0,.9,0,.4-.2.7-.4.8-.2.2-.6.3-1,.3h-1l-1.1,4.1c.2,0,.3-.2.5-.3.2-.2.4-.3.6-.3,0,0,.2,0,.3,0,0-.3.3-.6.7-.8,2.1-.7,3.7-1.5,4.8-2.2h-2.7c-.3,0-.5,0-.6-.2-.1-.1-.1-.4,0-.7,0-.3.2-.6.4-.7.2-.1.4-.2.7-.2h.9c-.2-.4-.3-.8-.5-1.1,0-.2-.1-.3-.1-.4,0-.3.3-.5.6-.7.2-.1.5-.2.7-.2.2,0,.3,0,.5.2.2.1.3.4.5.7.3.7.5,1.2.4,1.6h1.4l.8-3c-1.3.1-2.7.2-4.1.2-.6,0-.8-.5-.6-1.2.2-.4.5-.7,1.1-.8,3.6,0,7-.4,10.1-.9.2,0,.4,0,.5,0,.3,0,.5.1.6.3.1.2.1.4,0,.7-.1.4-.4.7-.9.9-.9.2-2.3.4-4.4.6l-.9,3.2h1.5c0,0,.1-.2.2-.2.8-.9,1.5-1.7,1.9-2.3.1-.1.2-.2.3-.3.1,0,.3-.1.4-.1.3,0,.5,0,.7.2.2.1.3.4.2.7,0,.1-.2.4-.4.6-.4.5-.8,1-1.2,1.4h1.7c.3,0,.5,0,.6.2.1.1.1.4,0,.7,0,.3-.2.5-.3.6-.2.2-.5.3-.8.3h-3.6c1.1.8,2.4,1.5,4,2.2.2.2.2.5.1.8-.1.3-.3.6-.6.7-.2.1-.6.2-1,.3-.6,0-1.1-.2-1.7-.7-1-.8-2-1.7-2.8-2.7l-.7,2.5c0,.4-.3.6-.5.8h3.7c1.2,0,1.7.6,1.3,1.8l-1.4,5.4c-.3,1.2-1.1,1.8-2.3,1.8h-9c-1.2,0-1.6-.6-1.3-1.8l1.4-5.4c.3-1.2,1.1-1.8,2.3-1.8h3.6c-.1-.2-.2-.4,0-.8l.7-2.5c-1.6,1.3-3.2,2.3-5,3-.3.1-.6.2-.9.2-.2,0-.3,0-.4,0,0,.1,0,.2,0,.3,0,.3-.3.6-.6.8-.6.4-1.3.8-2.1,1.2l-1.5,5.5c-.2.6-.4,1-.8,1.3-.4.3-.9.5-1.4.5h-1.2c-.4,0-.7-.2-.9-.5-.1-.2-.1-.4,0-.7,0-.4.3-.6.5-.8.2-.2.5-.3,1-.4h.5c.3,0,.4,0,.4-.2l1-3.7c-.4.1-.8.2-1,.2-.8,0-1.2-.4-1-1.2.2-.6.5-1,1.1-1.1.6-.2,1.1-.3,1.6-.5l1.4-5.3h-1.3c-.3,0-.6,0-.7-.2-.2-.2-.2-.5,0-.9.1-.5.3-.8.6-1,.2-.1.5-.2.8-.2h0ZM117.8,27.7l.5-1.7h-2.9l-.4,1.4c0,.2,0,.3.2.3h2.6ZM115.8,24.2h2.9l.4-1.6h-2.6c-.2,0-.4.1-.4.3,0,0-.3,1.3-.4,1.3ZM122.6,27.7c.2,0,.4-.1.4-.3l.4-1.4h-3.1l-.5,1.7h2.7ZM121.2,22.6l-.4,1.6h3.1l.3-1.3c0-.2,0-.3-.2-.3h-2.7Z"/>
            </g>
          </g>
        </g>
      </g>
    </g>
  </g>
</svg>