<?xml version="1.0" encoding="utf-8"?>
<!-- Generator: Adobe Illustrator 26.2.1, SVG Export Plug-In . SVG Version: 6.00 Build 0)  -->
<svg version="1.1" id="Layer_1" xmlns="http://www.w3.org/2000/svg" xmlns:xlink="http://www.w3.org/1999/xlink" x="0px" y="0px"
	 viewBox="0 0 93.4 82" style="enable-background:new 0 0 93.4 82;" xml:space="preserve">
<style type="text/css">
	.st0{fill:#FF9800;}
	.st1{fill:url(#SVGID_1_);}
	.st2{fill:#FFFFFF;}
	.st3{fill:url(#SVGID_00000070118911951500751310000016698741044176645274_);}
</style>
<g id="Layer_1_00000099657771746039270410000004018725082094003628_">
</g>
<g id="Layer_2_00000099638392560611230650000011746500174734272433_">
	<g id="_層_1">
		<g>
			<g>
				<path class="st0" d="M78,8.5c-4.1-3.2-8.7-5.5-13.7-6.9c-5-1.4-10.2-1.9-15.3-1.3c-5.3,0.6-10.5,2.2-15.2,4.9
					c-6.3,3.5-11.5,8.6-15.1,14.8c-3.4,5.9-5.3,12.6-5.5,19.5h0.7c0.3-14,8-26.8,20.2-33.7c19-10.6,43.1-3.8,53.7,15.2
					c10.6,18.9,3.9,42.9-15,53.6l0.3,0.6c4.6-2.6,8.7-6.1,11.9-10.3c3.2-4.1,5.5-8.7,6.9-13.7c1.4-5,1.8-10.2,1.3-15.3
					c-0.6-5.3-2.2-10.5-4.9-15.2C85.7,15.8,82.2,11.8,78,8.5L78,8.5z"/>
				<path class="st0" d="M20.4,58.6c-3.1-5.6-4.8-11.8-4.8-18.1l-4.1-0.1c0,3.3,0.4,6.7,1.2,9.9c0.9,3.6,2.3,7.1,4.1,10.3
					c2.8,4.9,6.4,9.2,10.8,12.6c4.3,3.3,9.1,5.8,14.3,7.2s10.6,1.9,16,1.3c5.3-0.6,10.4-2.2,15.1-4.7l-2-3.6
					C53,83.1,30.4,76.5,20.4,58.6L20.4,58.6z"/>
			</g>
			
				<radialGradient id="SVGID_1_" cx="53.65" cy="44.2" r="35" gradientTransform="matrix(1 0 0 -1 0 84)" gradientUnits="userSpaceOnUse">
				<stop  offset="5.052174e-04" style="stop-color:#FFDDA9"/>
				<stop  offset="0.46" style="stop-color:#FFC369"/>
				<stop  offset="1" style="stop-color:#FF9800"/>
			</radialGradient>
			<circle class="st1" cx="53.7" cy="39.8" r="35"/>
			<g>
				<path class="st2" d="M59.4,47.8H47.9c-0.6,0-1.1-0.5-1.1-1.1s0.5-1.1,1.1-1.1h11.5c0.6,0,1.1,0.5,1.1,1.1S60,47.8,59.4,47.8z"/>
				<path class="st2" d="M53.7,47.8c-0.6,0-1.1-0.5-1.1-1.1V38c0-0.6,0.5-1.1,1.1-1.1s1.1,0.5,1.1,1.1v8.7
					C54.7,47.3,54.2,47.8,53.7,47.8z"/>
				<path class="st2" d="M53.7,38.4h-0.1c-2.7,0-5.2-1-7-2.9c-1.9-1.9-2.9-4.4-2.9-7c0-0.6,0.5-1.1,1.1-1.1s1.1,0.5,1.1,1.1
					c0,2.1,0.8,4.1,2.3,5.5s3.4,2.3,5.5,2.3h0.1c2.1,0,4-0.8,5.5-2.3s2.3-3.4,2.3-5.5c0-0.6,0.5-1.1,1.1-1.1s1.1,0.5,1.1,1.1
					c0,2.7-1,5.1-2.9,7S56.4,38.4,53.7,38.4z"/>
				<path class="st2" d="M56.3,28.1v-1.4h3.1v-1.4h-3.1v-1.4h3.1v-1.4h-3.1v-1.4h3.1V20h-3.1v-1.4h3.1v-0.2c0-3.2-2.6-5.7-5.7-5.7
					h-0.1c-3.2,0-5.7,2.6-5.7,5.7v0.2H51V20h-3.1v1.4H51v1.4h-3.1v1.4H51v1.4h-3.1v1.4H51v1.4h-3.1v0.3c0,3.2,2.6,5.7,5.7,5.7h0.1
					c3.2,0,5.7-2.6,5.7-5.7v-0.3H56.3z"/>
			</g>
			<g>
				<path class="st2" d="M31,44.8c0,0.1,0.1,0.2,0,0.4c0,0.2-0.1,0.2-0.2,0.3c-0.1,0-0.1,0-0.3,0.1c-0.1,0-0.3,0-0.4,0l0.7,1.6h0.1
					c0.2,0,0.5,0,0.7,0c0.2,0,0.3,0.2,0.4,0.3c0,0.1,0,0.2,0,0.3c0,0.1-0.1,0.2-0.2,0.2c-0.1,0-0.2,0.1-0.4,0l-0.3-0.1l0.6,1.3
					c0.1,0.2,0,0.4-0.2,0.5c-0.3,0.1-0.4,0.1-0.5-0.2l-0.7-1.5l-0.9,0.4l0.7,1.5c0.1,0.2,0,0.4-0.2,0.5c-0.3,0.1-0.4,0.1-0.5-0.2
					l-0.7-1.5L28,49.3l0.7,1.5c0.1,0.2,0,0.4-0.2,0.5c-0.3,0.1-0.4,0.1-0.5-0.2l-0.7-1.5L26.4,50l0.7,1.5c0.1,0.2,0.1,0.4-0.1,0.5
					c0,0,0.1,0,0.1,0c0.8,0.4,1.6,0.6,2.4,0.5c0.6-0.1,1.2-0.2,1.7-0.5l-0.1-0.3c-0.2-0.5-0.1-0.8,0.5-1l5.6-2.5
					c0.5-0.2,0.8-0.1,1,0.4l1.3,2.9c0.2,0.5,0.1,0.9-0.4,1.1l-5.6,2.5c-0.5,0.2-0.9,0.1-1.1-0.4l-0.2-0.5l-3,1.4
					c-0.2,0.1-0.2,0.3-0.1,0.8c0.1,0.2,0.3,0.3,0.5,0.2l0.8-0.3c0.2-0.1,0.4,0,0.5,0.2c0.1,0.3,0,0.5-0.2,0.6
					c-0.9,0.4-1.5,0.6-1.7,0.4c-0.2-0.1-0.5-0.3-0.7-0.8c-0.2-0.6-0.4-1-0.3-1.2c0-0.2,0.2-0.4,0.5-0.5l3.3-1.5l-0.2-0.5
					c-0.7,0.3-1.4,0.5-2,0.6c-0.9,0.1-1.8-0.1-2.7-0.5c-0.2,0-0.3-0.1-0.4-0.3c-0.1-0.3-0.1-0.5,0.2-0.7c-0.1,0-0.2-0.1-0.3-0.3
					l-1.9-4.2c-0.2-0.5-0.1-0.9,0.4-1.2l2.7-1.2c-0.1,0-0.2-0.1-0.2-0.1c-0.1-0.3-0.1-0.6,0.2-0.7c0.1,0,0.2-0.1,0.3,0
					c0.4,0.1,0.8,0.2,1.2,0.3c0.5,0.1,0.9,0,1.5,0C30.8,44.6,30.9,44.6,31,44.8L31,44.8z M26,49.2l0.9-0.4L26,46.9l-0.5,0.2
					c-0.3,0.1-0.4,0.3-0.3,0.5L26,49.2z M27.6,48.4l0.8-0.4l-0.8-1.9l-0.8,0.4L27.6,48.4z M29.2,47.8l0.9-0.4l-0.8-1.8
					c-0.1,0-0.2,0-0.3,0l-0.6,0.3C28.3,45.9,29.2,47.8,29.2,47.8z M33.1,43l0.6,1.4c0.2,0.4,0.1,0.7-0.2,0.8l-1.2,0.6
					c-0.4,0.2-0.6,0-0.8-0.3L30.8,44c-0.2-0.4-0.1-0.6,0.3-0.8l1.2-0.6C32.7,42.5,32.9,42.6,33.1,43z M31.9,44.9
					c0.1,0.1,0.2,0.2,0.4,0.1l0.5-0.2c0.1-0.1,0.2-0.2,0.1-0.3l-0.3-0.8c0-0.1-0.1-0.1-0.2,0l-0.5,0.2c-0.2,0.1-0.2,0.2-0.2,0.2
					C31.6,44.1,31.9,44.9,31.9,44.9z M33.1,53.9c0.1,0.2,0.2,0.3,0.4,0.2l1-0.4L33.3,51l-1,0.4c-0.2,0.1-0.2,0.2-0.2,0.4
					C32.1,51.8,33.1,53.9,33.1,53.9z M34.4,46.3l0.7,1.5c0.2,0.4,0.1,0.7-0.2,0.8l-1.2,0.5c-0.4,0.2-0.6,0-0.8-0.4l-0.7-1.5
					c-0.2-0.4-0.1-0.6,0.3-0.8l1.2-0.5C34,45.8,34.3,45.9,34.4,46.3L34.4,46.3z M33.4,48.1c0.1,0.1,0.2,0.2,0.3,0.1l0.5-0.2
					c0.1-0.1,0.2-0.2,0.1-0.3l-0.4-0.8c0-0.1-0.1-0.1-0.2,0l-0.5,0.2C33,47.1,33,47.2,33,47.3C33,47.3,33.4,48.1,33.4,48.1z
					 M37.1,47.3c0.1,0.3,0,0.5-0.2,0.6c-0.3,0.1-0.5,0-0.6-0.2l-0.5-1.1l-0.1,0c-0.3,0.1-0.5,0-0.6-0.3c-0.1-0.3,0-0.5,0.2-0.6
					l0.1,0L34.7,44l-0.1,0.1c-0.3,0.1-0.5,0-0.6-0.3c-0.1-0.3,0-0.5,0.2-0.6l0.1-0.1L33.8,42c-0.1-0.3,0-0.5,0.2-0.6
					c0.3-0.1,0.5,0,0.6,0.2l0.5,1.2l0.2-0.1c0.3-0.1,0.5-0.1,0.6,0.2c0.1,0.3,0.1,0.5-0.2,0.6l-0.2,0.1l0.8,1.7l0.2-0.1
					c0.3-0.1,0.5-0.1,0.6,0.2c0.1,0.3,0.1,0.5-0.2,0.6l-0.2,0.1L37.1,47.3L37.1,47.3z M34.1,50.6l1.2,2.7l1.2-0.5l-1.2-2.7
					L34.1,50.6z M36,49.7l1.2,2.7l1-0.5c0.2-0.1,0.2-0.2,0.1-0.4l-0.9-2.1c-0.1-0.2-0.2-0.2-0.4-0.1C37.1,49.2,36,49.7,36,49.7z"/>
				<path class="st2" d="M51.8,57.9c0.3,0.1,0.4,0.3,0.3,0.7c-0.1,0.2-0.2,0.2-0.5,0.2c-1.3-0.4-2.8-0.8-4.3-1.4
					c-0.2-0.1-0.5-0.2-0.7-0.2c0,0-0.1,0.1-0.1,0.1c-0.2,0.2-0.3,0.5-0.5,0.7l5.5,2.2c0.2,0.1,0.3,0.3,0.2,0.5
					c-0.1,0.3-0.3,0.3-0.5,0.2l-5.8-2.3c-0.2,0.2-0.5,0.4-0.7,0.6c0,0-0.1,0.1-0.1,0.1l6.7,2.6c0.2,0.1,0.3,0.3,0.2,0.5
					c-0.1,0.3-0.3,0.3-0.5,0.3l-7.2-2.8c-0.3,0.2-0.5,0.3-0.8,0.5c-0.1,0-0.2,0.1-0.3,0.1L49,63c0.6,0.2,0.8,0.6,0.5,1.2l-1.7,4.4
					c-0.2,0.5-0.6,0.7-1.2,0.5l-6.9-2.7c-0.6-0.2-0.8-0.6-0.5-1.1l1.6-4.1c-0.5,0.1-1.1,0.1-1.7,0.2c-0.2,0-0.3,0-0.4,0
					c-0.1,0-0.2-0.1-0.3-0.3c0-0.1,0-0.2,0-0.4c0.1-0.2,0.2-0.3,0.4-0.3c0.9,0,1.6-0.1,2.3-0.2c0.6-0.1,1.1-0.3,1.6-0.6c0,0,0,0,0,0
					L40,58.4c-0.2-0.1-0.3-0.3-0.2-0.5c0.1-0.2,0.3-0.3,0.5-0.2l3.3,1.3c0.2-0.2,0.4-0.3,0.7-0.5c0.1,0,0.1-0.1,0.2-0.2L41,56.9
					c-0.2-0.1-0.3-0.3-0.2-0.5c0.1-0.2,0.3-0.3,0.5-0.2l3.8,1.5c0.2-0.2,0.4-0.5,0.6-0.8c-1.3-0.5-2.6-0.9-3.8-1.3
					c-0.3-0.1-0.4-0.4-0.3-0.7c0.1-0.2,0.3-0.3,0.6-0.2c1.3,0.5,2.7,1,4.1,1.5C48,56.7,49.9,57.3,51.8,57.9L51.8,57.9z M46.5,68.1
					c0.2,0.1,0.4,0,0.5-0.3l0.3-0.7l-6.8-2.7l-0.3,0.7c-0.1,0.3,0,0.4,0.2,0.6L46.5,68.1L46.5,68.1z M40.8,63.7l6.8,2.7l0.3-0.8
					l-6.8-2.7L40.8,63.7z M41.5,62.1l6.8,2.6l0.2-0.6c0.1-0.3,0-0.4-0.2-0.5l-6.1-2.4c-0.2-0.1-0.4,0-0.5,0.3L41.5,62.1z"/>
				<path class="st2" d="M58.4,60.3l2.5-1.1c0-0.1,0-0.2,0-0.4c0-0.3-0.1-0.6-0.1-0.8l-4.7,2c-0.3,0.1-0.5,0-0.7-0.3
					c-0.1-0.3,0-0.5,0.2-0.7l4.9-2.1c-0.1-0.3-0.1-0.6-0.2-0.9c0-0.2,0.1-0.4,0.2-0.5c0.4-0.2,0.6-0.1,0.8,0.2c0,0.1,0,0.2,0,0.3
					c0,0.1,0.1,0.3,0.1,0.4l4.7-2c0.3-0.1,0.5,0,0.7,0.3c0.1,0.3,0,0.5-0.3,0.7l-4.8,2.1c0.1,0.4,0.1,0.8,0.2,1.2l3.3-1.4
					c0.6-0.2,1-0.1,1.2,0.4l2.8,6.5l1.3-0.6c0.3-0.1,0.5,0,0.7,0.3c0.1,0.3,0.1,0.5-0.2,0.7l-11,4.7c-0.3,0.1-0.5,0-0.7-0.3
					c-0.1-0.3,0-0.5,0.3-0.7l1.2-0.5l-2.8-6.5C57.7,60.9,57.8,60.6,58.4,60.3L58.4,60.3z M59.4,62.2l6.6-2.8l-0.3-0.7
					c-0.1-0.2-0.2-0.3-0.4-0.2l-6,2.6c-0.2,0.1-0.2,0.2-0.1,0.4L59.4,62.2L59.4,62.2z M60.2,64l6.6-2.8l-0.4-1L59.7,63L60.2,64z
					 M60.9,65.7l6.6-2.8l-0.4-1l-6.6,2.8C60.5,64.7,60.9,65.7,60.9,65.7z M61.7,67.6l6.6-2.8l-0.5-1.1l-6.6,2.8
					C61.2,66.5,61.7,67.6,61.7,67.6z"/>
				<path class="st2" d="M70.8,50.2c0.1-0.3,0.3-0.4,0.6-0.3c0.3,0.1,0.4,0.3,0.3,0.6l-0.3,0.7l2.2,0.9c-0.1-0.2-0.1-0.5-0.2-0.8
					l0-0.2c0.1-0.3,0.4-0.4,0.7-0.2c0.1,0,0.2,0.2,0.3,0.3c0.1,0.3,0.3,0.8,0.3,1.4l4.1,1.7c0.7,0.3,0.9,0.9,0.6,1.7
					c-0.1,0.2-0.2,0.3-0.4,0.5c-0.2,0.2-0.4,0.3-0.6,0.2c-0.3-0.1-0.4-0.3-0.3-0.5c0,0,0,0,0.1-0.1c0.2-0.2,0.3-0.4,0.3-0.5
					c0.1-0.2,0-0.4-0.3-0.5l-3.4-1.4c0,0.3,0,0.6,0,0.8c0,0.1,0,0.2,0,0.2c-0.1,0.3-0.3,0.4-0.7,0.3c-0.3-0.1-0.4-0.3-0.4-0.6
					c0-0.5,0-0.9-0.1-1.2l-2.8-1.1L70.8,53c-0.1,0.3-0.3,0.4-0.7,0.3c-0.3-0.1-0.4-0.3-0.3-0.6l0.3-0.8l-1.8-0.7
					c-0.3-0.1-0.4-0.3-0.3-0.6c0.1-0.3,0.3-0.4,0.7-0.3l1.8,0.7L70.8,50.2L70.8,50.2z M71.9,41.7c0.1-0.3,0.3-0.3,0.7-0.2
					c0.2,0.1,0.3,0.3,0.2,0.7c-0.2,0.7-0.4,1.5-0.8,2.5l1.8,0.7l0.2-0.6c-0.1-0.1-0.2-0.3-0.2-0.4c-0.2-0.3-0.4-0.6-0.7-0.9
					C73,43.3,73,43.2,73,43c0.1-0.1,0.1-0.2,0.2-0.2c0.1,0,0.2,0,0.3,0c0.1,0,0.2,0.1,0.2,0.2c0.2,0.2,0.3,0.4,0.4,0.7
					c0,0.1,0.1,0.1,0.1,0.2l0.6-1.4c0.1-0.3,0.3-0.3,0.6-0.2c0.3,0.1,0.3,0.3,0.2,0.6l-1.1,2.8c0.4-0.2,0.8-0.5,1.2-0.8
					c0.7-0.6,1.3-1.1,1.7-1.6c0.2-0.2,0.4-0.2,0.6-0.1c0.1,0,0.2,0.1,0.3,0.2c0.1,0.1,0.1,0.3,0,0.4c-0.1,0.1-0.1,0.2-0.2,0.3
					c-0.5,0.4-1,0.8-1.5,1.2c-0.4,0.3-0.9,0.6-1.5,0.9l1.3,0.5c0.3,0.1,0.4,0.3,0.3,0.7c-0.1,0.3-0.3,0.4-0.6,0.3l-1.4-0.6
					c0.2,0.4,0.3,0.8,0.4,1.3c0.2,0.6,0.3,1.5,0.3,2.6c0,0.2,0,0.2-0.1,0.3c-0.1,0.3-0.3,0.3-0.7,0.2c-0.2-0.1-0.3-0.2-0.3-0.5
					c0-1.1-0.1-2-0.2-2.7c-0.1-0.4-0.2-0.7-0.3-1.1L72.8,50c-0.1,0.3-0.3,0.3-0.6,0.2c-0.3-0.1-0.3-0.3-0.2-0.5l0.6-1.6
					c-0.1,0-0.3,0.1-0.4,0.1c-0.2,0.1-0.3,0.2-0.5,0.2c-0.2,0.1-0.3,0.1-0.4,0c-0.3-0.1-0.3-0.3-0.2-0.6c0-0.1,0.1-0.2,0.2-0.3
					c0.2-0.1,0.4-0.2,0.6-0.3c0.3-0.1,0.6-0.2,0.8-0.3c0.2,0,0.2,0,0.3,0l0.3-0.7l-1.7-0.7c-0.5,1.4-0.8,2.4-1.1,2.9
					c-0.1,0.3-0.4,0.4-0.7,0.3c-0.3-0.1-0.4-0.3-0.2-0.6c0.4-1.1,0.8-2.2,1.2-3.2C71.3,44,71.6,42.8,71.9,41.7L71.9,41.7z
					 M75.9,49.9l2.1-5c0.2-0.5,0.5-0.7,1-0.5l3.7,1.5c0.5,0.2,0.6,0.5,0.4,1l-2.1,5c-0.2,0.5-0.5,0.7-1,0.5l-3.7-1.5
					C75.8,50.7,75.7,50.4,75.9,49.9z M78,50.5l0.8-2l-1.3-0.5l-0.7,1.7c-0.1,0.2,0,0.3,0.2,0.4L78,50.5z M77.9,47.2l1.3,0.5l0.8-1.8
					L79,45.5c-0.2-0.1-0.4,0-0.5,0.2C78.6,45.6,77.9,47.2,77.9,47.2z M81,49.5l-1.4-0.6l-0.8,1.9l1.1,0.4c0.2,0.1,0.4,0,0.5-0.1
					L81,49.5L81,49.5z M82,47c0.1-0.2,0-0.3-0.2-0.4l-1.1-0.4L79.9,48l1.4,0.6L82,47L82,47z"/>
			</g>
			<g>
				
					<linearGradient id="SVGID_00000054971348337435033660000007500563237166597257_" gradientUnits="userSpaceOnUse" x1="22" y1="66.4" x2="22" y2="84" gradientTransform="matrix(1 0 0 -1 0 84)">
					<stop  offset="0" style="stop-color:#FF9800"/>
					<stop  offset="0.54" style="stop-color:#FFC369"/>
					<stop  offset="0.9995" style="stop-color:#FFDDA9"/>
				</linearGradient>
				<path style="fill:url(#SVGID_00000054971348337435033660000007500563237166597257_);" d="M8.7,0h26.6C40.1,0,44,3.9,44,8.7v0.2
					c0,4.8-3.9,8.7-8.7,8.7H8.7C3.9,17.6,0,13.7,0,8.9V8.7C0,3.9,3.9,0,8.7,0z"/>
				<g>
					<path class="st2" d="M12.9,13.8H9.4c-0.8,0-1.1-0.4-1.1-1.1V4.4C8.3,4,8.5,3.8,9,3.8S9.8,4,9.8,4.4v7.2c0,0.6,0.3,0.9,0.9,0.9
						H13c0.3,0,0.5,0.2,0.5,0.7C13.5,13.6,13.3,13.8,12.9,13.8L12.9,13.8z"/>
					<path class="st2" d="M18.6,14.1c-0.5,0-0.7-0.2-0.7-0.7v-9c0-0.4,0.2-0.6,0.7-0.6s0.7,0.2,0.7,0.6v9.1
						C19.3,13.9,19,14.1,18.6,14.1L18.6,14.1z"/>
					<path class="st2" d="M29.1,4.7l-2,8.8c-0.1,0.4-0.4,0.6-0.9,0.6s-0.7-0.2-0.8-0.6l-2.1-8.8c0-0.1,0-0.2,0-0.2
						c0-0.2,0.1-0.4,0.2-0.5c0.1-0.1,0.3-0.2,0.5-0.2c0.3,0,0.6,0.2,0.7,0.6l1.5,6.2l1.5-6.2C27.8,4,28,3.8,28.4,3.8
						c0.2,0,0.4,0.1,0.5,0.2c0.1,0.1,0.2,0.3,0.2,0.5C29.1,4.5,29.1,4.6,29.1,4.7L29.1,4.7z"/>
					<path class="st2" d="M36,13.8h-3.8c-0.3,0-0.6-0.1-0.8-0.3c-0.2-0.2-0.3-0.4-0.3-0.7V5c0-0.3,0.1-0.5,0.3-0.7
						C31.7,4.1,31.9,4,32.2,4h3.7c0.4,0,0.6,0.2,0.6,0.6s-0.2,0.7-0.6,0.7h-2.5c-0.6,0-0.9,0.3-0.9,0.9v1.7h2.9
						c0.4,0,0.6,0.2,0.6,0.7s-0.2,0.7-0.6,0.7h-2.9v2.4c0,0.6,0.3,0.9,0.9,0.9H36c0.4,0,0.6,0.2,0.6,0.7S36.4,13.8,36,13.8L36,13.8z
						"/>
				</g>
			</g>
		</g>
	</g>
</g>
</svg>
