<?xml version="1.0" encoding="UTF-8"?>
<svg id="Layer_1" xmlns="http://www.w3.org/2000/svg" version="1.1" viewBox="0 0 33 41">
  <!-- Generator: Adobe Illustrator 29.1.0, SVG Export Plug-In . SVG Version: 2.1.0 Build 142)  -->
  <defs>
    <style>
      .st0 {
        fill: #f9b653;
      }
    </style>
  </defs>
  <g id="b">
    <g id="c">
      <path class="st0" d="M29.4,16.4h-1v-4.4C28.4,5.4,23.1,0,16.5,0S4.6,5.4,4.6,12v4.4h-1c-2,0-3.6,1.6-3.6,3.6v17.3c0,2,1.6,3.7,3.6,3.7h25.8c2,0,3.6-1.6,3.6-3.7v-17.3c0-2-1.6-3.6-3.6-3.6ZM18,29v2.3c0,.3-.3.6-.6.6h-1.8c-.3,0-.6-.3-.6-.6v-2.3c-.8-.5-1.4-1.4-1.4-2.5,0-1.6,1.3-2.9,2.9-2.9s2.9,1.3,2.9,2.9-.6,2-1.4,2.5h0ZM23.2,16.4h-13.4v-4.4c0-3.7,3-6.7,6.7-6.7s6.7,3,6.7,6.7v4.4h0Z"/>
    </g>
  </g>
</svg>