<?xml version="1.0" encoding="UTF-8"?>
<svg xmlns="http://www.w3.org/2000/svg" width="25" height="36.55" viewBox="0 0 25 36.55">
  <defs>
    <style>
      .cls-1 {
        fill: #fff;
        opacity: .5;
      }
    </style>
  </defs>
  <g id="Layer_1" data-name="Layer 1"/>
  <g id="Layer_2" data-name="Layer 2">
    <g id="_層_1" data-name="圖層 1">
      <path class="cls-1" d="M21.89,12.54c.02-1.88,.04-3.77,0-4.21C21.62,4.04,17.91,.4,13.46,.04c-.28-.02-.56-.04-.83-.04-2.43-.03-4.57,.73-6.37,2.25-1.78,1.51-2.96,3.73-3.13,5.95-.03,.4-.04,2.4-.03,4.34-1.77,.35-3.1,1.86-3.1,3.67v16.59c0,2.07,1.74,3.75,3.89,3.75H21.11c2.15,0,3.89-1.68,3.89-3.75V16.22c0-1.81-1.34-3.33-3.11-3.67Zm-6.21,18.08c.07,.54-.35,1.01-.9,1.01h-4.08c-.54,0-.96-.48-.9-1.01l.75-6.08c.04-.29-.08-.59-.3-.79-.7-.63-1.13-1.53-1.13-2.53,0-1.92,1.62-3.48,3.61-3.48s3.61,1.56,3.61,3.48c0,1-.43,1.89-1.13,2.53-.22,.2-.33,.49-.3,.79l.75,6.08ZM7.09,12.47c.07-2.46,.26-5.16,.78-6,.99-1.62,2.63-2.57,4.49-2.61,.07,0,.13,0,.2,0,1.89,.02,3.54,.95,4.54,2.56,.56,.9,.76,3.54,.81,6.05H7.09Z"/>
    </g>
  </g>
</svg>