<?xml version="1.0" encoding="UTF-8"?><svg xmlns="http://www.w3.org/2000/svg" viewBox="0 0 33 41.05"><defs><style>.d{fill:#e9528e;}</style></defs><g id="a"/><g id="b"><g id="c"><path class="d" d="M29.38,16.42h-.98v-4.43C28.4,5.38,23.06,0,16.5,0S4.6,5.38,4.6,12v4.43h-.98c-2,0-3.62,1.63-3.62,3.65v17.33c0,2.02,1.62,3.65,3.62,3.65H29.38c2,0,3.62-1.64,3.62-3.65V20.07c0-2.02-1.62-3.65-3.62-3.65Zm-11.36,12.55v2.27c0,.34-.27,.61-.61,.61h-1.82c-.33,0-.61-.27-.61-.61v-2.27c-.83-.52-1.39-1.43-1.39-2.49,0-1.62,1.3-2.93,2.91-2.93s2.9,1.31,2.9,2.93c0,1.06-.56,1.97-1.39,2.49Zm5.17-12.55H9.82v-4.43c0-3.72,3-6.74,6.68-6.74s6.68,3.02,6.68,6.74v4.43Z"/></g></g></svg>