<?xml version="1.0" encoding="UTF-8"?>
<svg id="Layer_1" xmlns="http://www.w3.org/2000/svg" version="1.1" viewBox="0 0 36 35.6">
  <!-- Generator: Adobe Illustrator 29.1.0, SVG Export Plug-In . SVG Version: 2.1.0 Build 142)  -->
  <defs>
    <style>
      .st0 {
        fill: #f9b653;
      }
    </style>
  </defs>
  <g id="b">
    <g id="c">
      <g>
        <path class="st0" d="M9.9.5v3.4c0,.3-.2.6-.6.6h-4.8v26.6h4.8c.3,0,.6.2.6.5v3.4c0,.3-.2.5-.6.5H.6c-.3,0-.6-.2-.6-.5V.5C0,.2.2,0,.6,0h8.8C9.6,0,9.9.2,9.9.5Z"/>
        <path class="st0" d="M8.7,11.8h2.9c.4,0,.6.3.6.6v10.6c0,.4-.3.6-.6.6h-2.9c-.4,0-.6-.3-.6-.6v-10.6c0-.4.3-.6.6-.6Z"/>
        <path class="st0" d="M28.3,10.5l7.2,6.2c.6.5.6,1.7,0,2.2l-7.2,6.2-7.2,6.2c-.6.5-1.3-.1-1.3-1.1v-6.5h-6c-.3,0-.6-.2-.6-.5v-10.8c0-.3.2-.6.6-.6h6v-6.3c0-1,.7-1.6,1.3-1.1,0,0,7.2,6.2,7.2,6.2Z"/>
      </g>
    </g>
  </g>
</svg>