<?xml version="1.0" encoding="UTF-8"?><svg xmlns="http://www.w3.org/2000/svg" viewBox="0 0 36 35.56"><defs><style>.d{fill:#e9528e;}</style></defs><g id="a"/><g id="b"><g id="c"><g><path class="d" d="M9.87,.55V3.94c0,.3-.25,.55-.55,.55H4.5V31.07h4.82c.3,0,.55,.25,.55,.55v3.39c0,.3-.25,.55-.55,.55H.55c-.3,0-.55-.25-.55-.55V.55C0,.25,.25,0,.55,0H9.32c.3,0,.55,.25,.55,.55Z"/><path class="d" d="M8.73,11.82h2.89c.35,0,.64,.29,.64,.64v10.64c0,.35-.29,.64-.64,.64h-2.89c-.35,0-.64-.29-.64-.64V12.46c0-.35,.29-.64,.64-.64Z"/><path class="d" d="M28.34,10.51l7.22,6.16c.58,.49,.58,1.72,0,2.21l-7.22,6.16-7.22,6.16c-.58,.49-1.3-.12-1.3-1.11v-6.46h-5.97c-.3,0-.55-.25-.55-.55V12.28c0-.3,.25-.55,.55-.55h5.97V5.46c0-.98,.72-1.6,1.3-1.11l7.22,6.16Z"/></g></g></g></svg>