<?xml version="1.0" encoding="UTF-8"?>
<svg id="Layer_2" data-name="Layer 2" xmlns="http://www.w3.org/2000/svg" width="59.16" height="26.46" viewBox="0 0 59.16 26.46">
  <defs>
    <style>
      .cls-1 {
        fill: #fff;
      }

      .cls-2 {
        fill: #f9b653;
      }
    </style>
  </defs>
  <g id="_圖層_1" data-name="圖層 1">
    <g id="Layer_2-2" data-name="Layer 2">
      <g id="_圖層_1-2" data-name="圖層 1">
        <path class="cls-2" d="M13.23,0h32.7c7.31,0,13.23,5.92,13.23,13.23h0c0,7.31-5.92,13.23-13.23,13.23H13.23C5.92,26.46,0,20.54,0,13.23h0C0,5.92,5.92,0,13.23,0Z"/>
        <path class="cls-1" d="M18.32,6.15h4.5c.11-.02.22-.02.33,0,.09-.02.19-.02.28,0,.21.03.39.15.5.33.41.48.79.91,1.14,1.3.58-.45,1.12-.95,1.61-1.49.11-.15.27-.25.45-.29.27-.04.53.15.57.42,0,.05,0,.09,0,.14,0,.2-.11.4-.27.52-.5.52-1.05,1-1.64,1.42.35.33.72.64,1.11.92.63-.45,1.23-.95,1.78-1.5.11-.14.27-.22.45-.25.38,0,.57.18.57.55,0,.2-.11.38-.27.5-.51.47-1.06.9-1.64,1.28.82.45,1.66.84,2.53,1.17.22.06.37.27.36.5,0,.42-.23.62-.69.62-.22-.03-.44-.09-.64-.18-1.38-.56-2.66-1.33-3.81-2.28-.85-.69-1.61-1.48-2.27-2.35-.08.16-.18.31-.29.44-.72.83-1.55,1.57-2.46,2.19-1.08.79-2.25,1.46-3.48,2-.2.12-.43.19-.66.2-.41,0-.62-.18-.62-.56-.02-.23.1-.45.3-.56.93-.35,1.83-.77,2.7-1.24-.3-.27-.61-.53-.94-.76l-.75-.52c-.11-.11-.18-.27-.19-.43-.04-.27.15-.51.42-.55.04,0,.09,0,.13,0,.14.01.27.05.39.12.28.18.55.37.81.58.39.27.74.57,1.07.91v.06c.56-.35,1.09-.75,1.58-1.19.53-.43.8-.73.8-.87s0-.11-.13-.11h-3.63c-.33,0-.5-.17-.5-.52-.05-.24.11-.47.35-.52.05-.01.1-.01.15,0ZM18.45,12.61h9.25c.61,0,.92.28.92.86v2.2c.06.45-.25.87-.71.94-.07,0-.14.01-.21,0h-1.32l-.51,2.39h4c.27-.04.53.15.57.42,0,.05,0,.1,0,.15,0,.36-.19.54-.57.54h-13.25c-.38,0-.56-.18-.56-.54-.04-.27.15-.53.42-.57.05,0,.09,0,.14,0h3.75l-.61-2.43h-1.31c-.45.07-.87-.25-.94-.7-.01-.08-.01-.16,0-.24v-2.2c0-.54.31-.82.94-.82ZM27.13,15.53c.25,0,.38-.14.38-.42v-1.11c0-.24-.13-.36-.38-.36h-8.13c-.26,0-.39.12-.39.36v1.08c0,.28.13.42.39.42l8.13.03ZM25.82,10.36c.33,0,.5.16.5.48s-.17.56-.5.56h-5.37c-.35,0-.52-.18-.52-.56s.17-.48.52-.48h5.37ZM21.56,19h3.12l.52-2.43h-4.2l.56,2.43Z"/>
        <path class="cls-1" d="M36,6.78h3.88c.57.02,1.05.44,1.14,1,.53,2.09,1.31,4.1,2.32,6,.62,1.14,1.35,2.22,2.17,3.22.71.83,1.47,1.61,2.28,2.34.11.12.17.28.17.44.02.29-.21.54-.5.56-.02,0-.04,0-.06,0-.16-.01-.31-.08-.42-.2-.93-.77-1.77-1.64-2.52-2.58-1.01-1.23-1.89-2.58-2.61-4-.37-.76-.71-1.54-1-2.34-.63,1.69-1.48,3.3-2.51,4.78-1.12,1.63-2.52,3.05-4.13,4.19-.14.11-.31.18-.48.2-.39,0-.58-.21-.58-.63.02-.19.15-.36.33-.43,1.74-1.23,3.24-2.78,4.4-4.57.99-1.59,1.8-3.29,2.41-5.06l.06-.08c-.12-.44-.25-.9-.39-1.36-.05-.25-.17-.37-.36-.37h-3.6c-.27.04-.53-.15-.56-.43,0-.05,0-.1,0-.15-.02-.28.19-.51.47-.53.03,0,.06,0,.09,0Z"/>
      </g>
    </g>
  </g>
</svg>