<svg xmlns="http://www.w3.org/2000/svg" viewBox="0 0 59.16 26.46"><defs><style>.cls-1{fill:#e9528e;}.cls-2{fill:#fff;}</style></defs><g id="Layer_2" data-name="Layer 2"><g id="圖層_1" data-name="圖層 1"><rect class="cls-1" width="59.16" height="26.46" rx="13.23"/><path class="cls-2" d="M18.32,6.15h4.5a1,1,0,0,1,.33,0,.74.74,0,0,1,.28,0,.68.68,0,0,1,.5.33c.41.48.79.91,1.14,1.3a12.75,12.75,0,0,0,1.61-1.49A.76.76,0,0,1,27.13,6a.5.5,0,0,1,.57.56.69.69,0,0,1-.27.52A11.61,11.61,0,0,1,25.79,8.5a11.17,11.17,0,0,0,1.11.92,14.28,14.28,0,0,0,1.78-1.5.73.73,0,0,1,.45-.25c.38,0,.57.18.57.55a.65.65,0,0,1-.27.5A12.82,12.82,0,0,1,27.79,10a20.15,20.15,0,0,0,2.53,1.17.5.5,0,0,1,.36.5c0,.42-.23.62-.69.62a2.45,2.45,0,0,1-.64-.18,14.85,14.85,0,0,1-3.81-2.28,13.85,13.85,0,0,1-2.27-2.35,2.22,2.22,0,0,1-.29.44,12.93,12.93,0,0,1-2.46,2.19,18.16,18.16,0,0,1-3.48,2,1.31,1.31,0,0,1-.66.2c-.41,0-.62-.18-.62-.56a.59.59,0,0,1,.3-.56,23.06,23.06,0,0,0,2.7-1.24,10.14,10.14,0,0,0-.94-.76l-.75-.52a.65.65,0,0,1-.19-.43.49.49,0,0,1,.55-.55.93.93,0,0,1,.39.12,7.68,7.68,0,0,1,.81.58,7,7,0,0,1,1.07.91l0,.06a11.64,11.64,0,0,0,1.58-1.19c.53-.43.8-.73.8-.87s0-.11-.13-.11H18.32c-.33,0-.5-.17-.5-.52A.44.44,0,0,1,18.32,6.15Zm.13,6.46H27.7c.61,0,.92.28.92.86v2.2a.83.83,0,0,1-.92.94H26.38L25.87,19h4a.5.5,0,0,1,.57.57q0,.54-.57.54H16.62c-.38,0-.56-.18-.56-.54a.5.5,0,0,1,.56-.57h3.75l-.61-2.43H18.45a.83.83,0,0,1-.94-.94v-2.2C17.51,12.89,17.82,12.61,18.45,12.61Zm8.68,2.92c.25,0,.38-.14.38-.42V14c0-.24-.13-.36-.38-.36H19q-.39,0-.39.36v1.08q0,.42.39.42Zm-1.31-5.17c.33,0,.5.16.5.48s-.17.56-.5.56H20.45c-.35,0-.52-.18-.52-.56s.17-.48.52-.48ZM21.56,19h3.12l.52-2.43H21Z"/><path class="cls-2" d="M36,6.78h3.88a1.19,1.19,0,0,1,1.14,1,26.49,26.49,0,0,0,2.32,6A20.55,20.55,0,0,0,45.51,17a27.1,27.1,0,0,0,2.28,2.34.66.66,0,0,1,.17.44.53.53,0,0,1-.56.56.63.63,0,0,1-.42-.2,17.6,17.6,0,0,1-2.52-2.58,22,22,0,0,1-2.61-4,24.21,24.21,0,0,1-1-2.34A21.65,21.65,0,0,1,38.34,16a16.89,16.89,0,0,1-4.13,4.19,1,1,0,0,1-.48.2c-.39,0-.58-.21-.58-.63a.52.52,0,0,1,.33-.43,16.77,16.77,0,0,0,4.4-4.57,24.87,24.87,0,0,0,2.41-5.06l.06-.08c-.12-.44-.25-.9-.39-1.36-.05-.25-.17-.37-.36-.37H36a.5.5,0,0,1-.56-.58A.5.5,0,0,1,36,6.78Z"/></g></g></svg>