<svg xmlns="http://www.w3.org/2000/svg" viewBox="0 0 20.85 26.19"><defs><style>.cls-1{fill:#e9528e;}</style></defs><g id="Layer_2" data-name="Layer 2"><g id="圖層_1" data-name="圖層 1"><path class="cls-1" d="M16.25,14l-.21.18c-.07.06-.14.13-.21.18a5.2,5.2,0,0,1-.47.35l-3.28,6.75-.66-3.89,1-1.56-.35.07a5.88,5.88,0,0,1-.94.11,4.43,4.43,0,0,1-.52,0,8.48,8.48,0,0,1-2-.23l1,1.6L9,21.54,5.35,14.39A6.27,6.27,0,0,1,4.87,14L4.8,14C-.07,18.24,0,25.61,0,25.93v.26H20.85v-.28C20.49,17.39,17.09,14.58,16.25,14Z"/><path class="cls-1" d="M10.58,0A7.83,7.83,0,1,0,18.4,7.82,7.83,7.83,0,0,0,10.58,0Z"/></g></g></svg>