<svg xmlns="http://www.w3.org/2000/svg" viewBox="0 0 21.83 27.41"><defs><style>.cls-1{fill:#9fa0a0;}</style></defs><g id="Layer_2" data-name="Layer 2"><g id="圖層_1" data-name="圖層 1"><path class="cls-1" d="M17,14.67l-.22.19-.22.19-.49.36-3.44,7.06L12,18.41l1-1.64-.37.08c-.32,0-.65.09-1,.11l-.55,0A9.27,9.27,0,0,1,9,16.74l1,1.67-.65,4.14L5.6,15.06c-.17-.14-.34-.28-.51-.44L5,14.69c-5.09,4.4-5,12.12-5,12.45v.27H21.83l0-.29C21.45,18.21,17.89,15.26,17,14.67Z"/><path class="cls-1" d="M11.07,0a8.19,8.19,0,1,0,8.19,8.19A8.2,8.2,0,0,0,11.07,0Z"/></g></g></svg>