<svg xmlns="http://www.w3.org/2000/svg" viewBox="0 0 108.44 27.41"><defs><style>.cls-1{fill:#9fa0a0;}.cls-2{fill:#8a8a8a;}</style></defs><g id="Layer_2" data-name="Layer 2"><g id="圖層_1" data-name="圖層 1"><path class="cls-1" d="M17,14.67l-.22.19-.22.19-.49.36-3.44,7.06L12,18.41l1-1.64-.37.08c-.32,0-.65.09-1,.11l-.55,0A9.27,9.27,0,0,1,9,16.74l1,1.67-.65,4.14L5.6,15.06c-.17-.14-.34-.28-.51-.44L5,14.69c-5.09,4.4-5,12.12-5,12.45v.27H21.83l0-.29C21.45,18.21,17.89,15.26,17,14.67Z"/><path class="cls-1" d="M11.07,0a8.19,8.19,0,1,0,8.19,8.19A8.2,8.2,0,0,0,11.07,0Z"/><path class="cls-2" d="M37.69,5.28h5.06a1,1,0,0,1,.37.06.73.73,0,0,1,.32-.06.8.8,0,0,1,.56.37c.46.54.89,1,1.28,1.46A14.76,14.76,0,0,0,47.1,5.44a.78.78,0,0,1,.5-.3.56.56,0,0,1,.64.64.77.77,0,0,1-.3.58,12.86,12.86,0,0,1-1.85,1.56,11.42,11.42,0,0,0,1.25,1,16.67,16.67,0,0,0,2-1.69.78.78,0,0,1,.5-.28c.43,0,.64.2.64.61a.74.74,0,0,1-.3.57,13.21,13.21,0,0,1-1.85,1.44,21.94,21.94,0,0,0,2.85,1.32.56.56,0,0,1,.41.56c0,.47-.26.7-.78.7A2.6,2.6,0,0,1,50.1,12a16.36,16.36,0,0,1-4.29-2.57,15.31,15.31,0,0,1-2.55-2.63,2.34,2.34,0,0,1-.33.49,14.61,14.61,0,0,1-2.76,2.46A20.31,20.31,0,0,1,36.25,12a1.46,1.46,0,0,1-.74.23c-.47,0-.7-.21-.7-.63a.67.67,0,0,1,.33-.63,25.43,25.43,0,0,0,3-1.39,8.55,8.55,0,0,0-1-.86l-.85-.58a.74.74,0,0,1-.21-.5A.54.54,0,0,1,36.69,7a1,1,0,0,1,.44.14,8.54,8.54,0,0,1,.91.65,8.11,8.11,0,0,1,1.2,1l0,.07a14,14,0,0,0,1.78-1.34c.59-.49.89-.82.89-1s0-.12-.14-.12H37.69a.51.51,0,0,1-.56-.58A.5.5,0,0,1,37.69,5.28Zm.14,7.26H48.24c.69,0,1,.33,1,1V16a.92.92,0,0,1-1,1H46.76l-.58,2.75H50.7a.56.56,0,0,1,.63.63c0,.41-.21.61-.63.61H35.77c-.42,0-.63-.2-.63-.61a.56.56,0,0,1,.63-.63H40L39.31,17H37.83a.93.93,0,0,1-1-1V13.51C36.78,12.87,37.13,12.54,37.83,12.54Zm9.77,3.29c.29,0,.43-.16.43-.47V14.14c0-.27-.14-.4-.43-.4H38.46c-.29,0-.44.13-.44.4v1.22c0,.31.15.47.44.47ZM46.13,10a.49.49,0,0,1,.56.55c0,.42-.19.63-.56.63H40.08c-.39,0-.58-.21-.58-.63s.19-.55.58-.55Zm-4.8,9.78h3.52L45.43,17H40.66Z"/><path class="cls-2" d="M57.54,6h4.35a1.34,1.34,0,0,1,1.29,1.07,29.82,29.82,0,0,0,2.62,6.75,23.35,23.35,0,0,0,2.48,3.62,30.32,30.32,0,0,0,2.56,2.64.7.7,0,0,1,.2.49.61.61,0,0,1-.64.63.71.71,0,0,1-.47-.23,19.87,19.87,0,0,1-2.83-2.9,24.62,24.62,0,0,1-2.94-4.46A24.62,24.62,0,0,1,63.06,11a23.84,23.84,0,0,1-2.85,5.43,18.65,18.65,0,0,1-4.64,4.71,1,1,0,0,1-.55.23c-.43,0-.65-.23-.65-.7,0-.19.12-.35.37-.49a18.62,18.62,0,0,0,5-5.14,28,28,0,0,0,2.7-5.69l.07-.09c-.14-.5-.28-1-.43-1.53-.06-.28-.2-.42-.41-.42H57.54a.57.57,0,0,1-.64-.65A.56.56,0,0,1,57.54,6Z"/><path class="cls-2" d="M89.3,5.44a.48.48,0,0,1,.54.55.49.49,0,0,1-.54.56H83.18c-.37,0-.56.22-.56.65v.7h6a.44.44,0,0,1,.5.49c0,.37-.17.55-.5.55h-6v1.41h6a.45.45,0,0,1,.5.51c0,.37-.17.56-.5.56h-6V13h7a.49.49,0,0,1,.56.54c0,.42-.19.63-.56.63H85a10,10,0,0,0,.84,2.13l.18.32a16.38,16.38,0,0,0,2.17-1.74.85.85,0,0,1,.51-.27.56.56,0,0,1,.64.64.7.7,0,0,1-.3.54,14.12,14.12,0,0,1-2.29,1.79,3.17,3.17,0,0,1,.3.34,17.42,17.42,0,0,0,2.76,2.18c.3.18.44.37.44.56a.56.56,0,0,1-.63.63A1.34,1.34,0,0,1,89,21.1a12.25,12.25,0,0,1-2.55-2,9,9,0,0,1-1.65-2.29,11.58,11.58,0,0,1-.92-2.62H82.62v5c.44-.17,1-.41,1.69-.74l.19-.07c.42,0,.63.23.63.7,0,.11-.08.22-.24.35a11.41,11.41,0,0,1-1.73.88,21.09,21.09,0,0,1-2.53.9,1.56,1.56,0,0,1-.33.05.56.56,0,0,1-.64-.63.67.67,0,0,1,.5-.7,10,10,0,0,0,1.24-.36V14.21H80.3V17c0,.65-.36,1-1.08,1a1.78,1.78,0,0,1-.94-.16.59.59,0,0,1-.37-.54c0-.35.15-.54.47-.55l.37.07c.22,0,.33-.07.33-.23V9.52c0-.29-.08-.44-.26-.44H77.75V20.84c0,.37-.21.56-.62.56a.5.5,0,0,1-.56-.56V9.08H75.5c-.18,0-.27.15-.27.44v8.23a.5.5,0,0,1-.58.56c-.42,0-.63-.19-.63-.56V8.87c0-.65.41-1,1.21-1h1.34V5.58A.51.51,0,0,1,77.13,5c.41,0,.62.2.62.58V7.9h1.4c.77,0,1.15.32,1.15,1V13h1.1V6.5a.94.94,0,0,1,1.08-1.06Z"/><path class="cls-2" d="M95.68,14.58a31.71,31.71,0,0,1-.35,3.64,16,16,0,0,1-.8,3,.88.88,0,0,1-.63.28c-.49,0-.75-.26-.77-.7a2.38,2.38,0,0,1,.12-.49A11.75,11.75,0,0,0,94,17.43a27.91,27.91,0,0,0,.38-4.89V7A1,1,0,0,1,95.5,5.85a85.31,85.31,0,0,0,12.24-.64c.44,0,.68.24.7.64a.65.65,0,0,1-.55.65,80.61,80.61,0,0,1-11.69.56c-.32,0-.49.21-.49.63V8.87h11.76c.65,0,1,.3,1,.91v3.89c0,.61-.32.91-1,.91Zm0-4.57v3.43h11.18c.25,0,.37-.11.37-.33V10.35c0-.23-.12-.34-.37-.34Z"/></g></g></svg>