<?xml version="1.0" encoding="UTF-8"?>
<svg id="Layer_2" data-name="Layer 2" xmlns="http://www.w3.org/2000/svg" width="20.85" height="26.19" viewBox="0 0 20.85 26.19">
  <defs>
    <style>
      .cls-1 {
        fill: #f9b653;
      }
    </style>
  </defs>
  <g id="Layer_1-2" data-name="Layer 1">
    <g id="Layer_2-2" data-name="Layer 2">
      <g id="_圖層_1" data-name="圖層 1">
        <path class="cls-1" d="M16.25,14l-.21.18c-.07.06-.14.13-.21.18-.15.13-.31.24-.47.35l-3.28,6.75-.66-3.89,1-1.56-.35.07c-.31.06-.62.1-.94.11-.17.01-.35.01-.52,0-.67,0-1.34-.07-2-.23l1,1.6-.61,3.98-3.65-7.15c-.17-.12-.33-.25-.48-.39h-.07C-.07,18.24,0,25.61,0,25.93v.26h20.85v-.28c-.36-8.52-3.76-11.33-4.6-11.91Z"/>
        <path class="cls-1" d="M10.58,0C6.26,0,2.75,3.5,2.74,7.82c0,4.32,3.5,7.83,7.82,7.84,4.32,0,7.83-3.5,7.84-7.82,0,0,0-.01,0-.02C18.39,3.5,14.9,0,10.58,0Z"/>
      </g>
    </g>
  </g>
</svg>