<svg xmlns="http://www.w3.org/2000/svg" viewBox="0 0 130 46.66"><defs><style>.cls-1{fill:#f0a0c3;}</style></defs><g id="Layer_2" data-name="Layer 2"><g id="圖層_1" data-name="圖層 1"><rect class="cls-1" x="72.07" y="24.22" width="3.16" height="22.45" rx="1.58"/><rect class="cls-1" x="81.62" y="24.22" width="3.16" height="22.45" rx="1.58"/><rect class="cls-1" x="86.18" y="22.8" width="3.16" height="15.46" rx="1.58" transform="translate(39.77 -49.04) rotate(39.73)"/><rect class="cls-1" x="88.33" y="30.33" width="3.16" height="17.25" rx="1.52" transform="translate(187.25 27.75) rotate(150)"/><rect class="cls-1" x="98.4" y="24.22" width="3.16" height="22.45" rx="1.58"/><rect class="cls-1" x="102.96" y="22.8" width="3.16" height="15.46" rx="1.58" transform="translate(43.65 -59.76) rotate(39.72)"/><rect class="cls-1" x="105.11" y="30.33" width="3.16" height="17.25" rx="1.52" transform="translate(218.56 19.35) rotate(150)"/><rect class="cls-1" x="59.03" y="24.22" width="3.16" height="22.45" rx="1.58"/><rect class="cls-1" x="59.03" y="17.19" width="3.16" height="17.22" rx="1.58" transform="translate(86.41 -34.81) rotate(90)"/><path class="cls-1" d="M129.93,44.63l-6-19.28a1.66,1.66,0,0,0-.2-.4l-.1-.15,0,0a1.59,1.59,0,0,0-.73-.48,1.06,1.06,0,0,0-.23-.05h-.46a.86.86,0,0,0-.23.05h0a1.49,1.49,0,0,0-.73.48l0,0a1.3,1.3,0,0,1-.1.15,1.34,1.34,0,0,0-.19.4l-6,19.28a1.57,1.57,0,1,0,3,.91l4.46-14.41,4.45,14.41a1.6,1.6,0,0,0,2,1.06A1.58,1.58,0,0,0,129.93,44.63Z"/><circle class="cls-1" cx="122.46" cy="42.78" r="1.4"/><path class="cls-1" d="M19,20.58,12.45,18.5A4.54,4.54,0,0,1,9.5,12.82h0a4.52,4.52,0,0,1,5.68-2.94l31.64,10A23.55,23.55,0,1,0,19,46.66Z"/><path class="cls-1" d="M28.07,23.45V46.66A23.56,23.56,0,0,0,46.4,29.26Z"/></g></g></svg>