<?xml version="1.0" encoding="UTF-8"?>
<svg id="Layer_1" xmlns="http://www.w3.org/2000/svg" version="1.1" viewBox="0 0 43 35.2">
  <!-- Generator: Adobe Illustrator 29.1.0, SVG Export Plug-In . SVG Version: 2.1.0 Build 142)  -->
  <defs>
    <style>
      .st0 {
        fill: #fff;
      }

      .st1 {
        fill: #f9b653;
      }
    </style>
  </defs>
  <g id="b">
    <g id="c">
      <g>
        <path class="st1" d="M35.9,29.3h-8.9l-4.4,5.4c-.7.8-1.9.8-2.6,0l-4.1-5.3H7.1c-3.9,0-7.1-3.2-7.1-7.1V7.1C0,3.2,3.2,0,7.1,0h28.7C39.8,0,43,3.2,43,7.1v15c0,3.9-3.2,7.1-7.1,7.1Z"/>
        <path class="st0" d="M29.7,17.1l-6.8,6c-.6.5-1.4.5-2,0l-6.8-6c-6.8-6.1,1.7-14.9,7.8-7.8,5.3-7.6,14,1.8,7.8,7.8h0Z"/>
      </g>
    </g>
  </g>
</svg>