<?xml version="1.0" encoding="UTF-8"?><svg xmlns="http://www.w3.org/2000/svg" viewBox="0 0 43 35.22"><defs><style>.d{fill:#e9528e;}.e{fill:#fff;}</style></defs><g id="a"/><g id="b"><g id="c"><g><path class="d" d="M35.87,29.26h-8.87l-4.43,5.36c-.67,.81-1.92,.79-2.56-.04l-4.1-5.32H7.13c-3.94,0-7.13-3.19-7.13-7.13V7.13C0,3.19,3.19,0,7.13,0h28.74c3.94,0,7.13,3.19,7.13,7.13v15c0,3.94-3.19,7.13-7.13,7.13Z"/><path class="e" d="M29.69,17.07l-6.83,6.05c-.57,.5-1.42,.5-1.99,0l-6.83-6.05c-6.84-6.05,1.68-14.93,7.82-7.82,5.34-7.56,14.03,1.83,7.82,7.82Z"/></g></g></g></svg>