<?xml version="1.0" encoding="UTF-8"?>
<svg id="Layer_1" xmlns="http://www.w3.org/2000/svg" version="1.1" viewBox="0 0 40 40">
  <!-- Generator: Adobe Illustrator 29.1.0, SVG Export Plug-In . SVG Version: 2.1.0 Build 142)  -->
  <defs>
    <style>
      .st0 {
        fill: #fff;
      }

      .st1 {
        fill: #f9b653;
      }
    </style>
  </defs>
  <g id="b">
    <g id="c">
      <g>
        <circle class="st1" cx="20" cy="20" r="20"/>
        <g>
          <path class="st0" d="M31.9,17h-1.3c-.4-5.6-5-9.9-10.6-9.9s-10.3,4.4-10.6,9.9h-1.3c-1.7,0-3.1,1.4-3.1,3.1v3.2c0,1.7,1.4,3.1,3.1,3.1h1.4c.6,0,1.2-.5,1.2-1.2v-7.5c0-5.1,4.2-9.3,9.3-9.3s9.3,4.2,9.3,9.3v7.1c0,4.4-3.9,5.4-6.1,5.6-.3-.6-.9-1.1-1.6-1.1h-3.2c-1,0-1.8.8-1.8,1.8h0c0,1,.8,1.8,1.8,1.8h3.2c.8,0,1.4-.5,1.7-1.2,1.9-.1,3.6-.7,4.9-1.6,1.3-.9,2.1-2.2,2.4-3.8h1.4c1.7,0,3.1-1.4,3.1-3.1v-3.2c0-1.7-1.4-3.1-3.1-3.1h0Z"/>
          <path class="st0" d="M20,12.4c-3.9,0-7,3.1-7,7s.8,3.8,2.1,5l-.8,1.6c-.2.4.2.8.6.7l2.4-.8c.8.3,1.7.5,2.6.5,3.9,0,7-3.1,7-7s-3.1-7-7-7ZM16.7,20.5c-.6,0-1.1-.5-1.1-1.1s.5-1.1,1.1-1.1,1.1.5,1.1,1.1-.5,1.1-1.1,1.1ZM20,20.5c-.6,0-1.1-.5-1.1-1.1s.5-1.1,1.1-1.1,1.1.5,1.1,1.1-.5,1.1-1.1,1.1ZM23.3,20.5c-.6,0-1.1-.5-1.1-1.1s.5-1.1,1.1-1.1,1.1.5,1.1,1.1-.5,1.1-1.1,1.1Z"/>
        </g>
      </g>
    </g>
  </g>
</svg>