<?xml version="1.0" encoding="UTF-8"?><svg xmlns="http://www.w3.org/2000/svg" viewBox="0 0 40 40"><defs><style>.d{fill:#e9528e;}.e{fill:#fff;}</style></defs><g id="a"/><g id="b"><g id="c"><g><circle class="d" cx="20" cy="20" r="20"/><g><path class="e" d="M25.29,20.83c-.06,.06-.13,.11-.19,.17-.06,.06-.13,.11-.2,.16-.14,.11-.28,.21-.42,.32l-2.98,6.12-.59-3.53,.88-1.42c-.11,.02-.21,.05-.32,.06-.28,.05-.56,.08-.85,.1-.16,.01-.32,.02-.47,.02-.61,0-1.21-.07-1.78-.21l.89,1.45-.56,3.59-3.3-6.49c-.15-.12-.3-.25-.44-.38l-.06,.05c-4.42,3.82-4.36,10.51-4.36,10.8v.24H29.46v-.25c-.32-7.73-3.41-10.28-4.17-10.8Z"/><path class="e" d="M20.14,8.12c-3.92,0-7.1,3.19-7.1,7.1s3.19,7.1,7.1,7.1,7.1-3.19,7.1-7.1-3.19-7.1-7.1-7.1Z"/></g></g></g></g></svg>