<?xml version="1.0" encoding="UTF-8"?><svg xmlns="http://www.w3.org/2000/svg" viewBox="0 0 40 40"><defs><style>.d{fill:#e9528e;}.e{fill:#fff;}</style></defs><g id="a"/><g id="b"><g id="c"><g><circle class="d" cx="20" cy="20" r="20"/><g><path class="e" d="M30.95,14.87c-.73-.17-1.45,.29-1.62,1.01l-1.56,6.77-11.73-.11-2.83-11.31c-.09-.36-.33-.67-.66-.85l-2.57-1.41c-.65-.36-1.47-.12-1.83,.53-.36,.65-.12,1.47,.53,1.83l2.05,1.13,2.88,11.52-1.55,1.22c-.19,.15-.29,.37-.29,.6v1.92c0,.42,.34,.76,.76,.77l2.17,.03c-.3,.28-.49,.68-.49,1.12,0,.85,.69,1.54,1.54,1.54s1.54-.69,1.54-1.54c0-.43-.18-.81-.46-1.09l10.16,.14c-.21,.26-.34,.59-.34,.95,0,.85,.69,1.54,1.54,1.54s1.54-.69,1.54-1.54c0-.34-.12-.66-.31-.92l1.33,.02h.01c.42,0,.76-.34,.77-.76,0-.43-.33-.77-.76-.78l-17.47-.25v-.79l1.28-1.01c.12,.04,.24,.06,.37,.06l13.86,.13h.01c.63,0,1.17-.43,1.31-1.05l1.8-7.83c.17-.73-.29-1.45-1.01-1.61Z"/><path class="e" d="M25.12,15.42h-1.25v-3.62c0-.44-.36-.8-.8-.8h-2.41c-.44,0-.8,.36-.8,.8v3.62h-1.25c-.55,0-.74,.36-.41,.81l.93,1.25c.33,.44,.87,1.17,1.2,1.62l.93,1.25c.33,.44,.87,.44,1.2,0l.93-1.25c.33-.44,.87-1.17,1.2-1.62l.93-1.25c.33-.45,.15-.81-.41-.81Z"/></g></g></g></g></svg>