<?xml version="1.0" encoding="UTF-8"?>
<svg id="Layer_1" xmlns="http://www.w3.org/2000/svg" version="1.1" viewBox="0 0 40 40">
  <!-- Generator: Adobe Illustrator 29.1.0, SVG Export Plug-In . SVG Version: 2.1.0 Build 142)  -->
  <defs>
    <style>
      .st0 {
        fill: #f9b653;
      }
    </style>
  </defs>
  <path class="st0" d="M20,0C9,0,0,9,0,20s9,20,20,20,20-9,20-20S31,0,20,0ZM20.1,8.1c3.9,0,7.1,3.2,7.1,7.1s-3.2,7.1-7.1,7.1-7.1-3.2-7.1-7.1,3.2-7.1,7.1-7.1ZM29.5,31.9H10.5v-.2c0-.3,0-7,4.4-10.8h0c.1,0,.3.2.4.3l3.3,6.5.6-3.6-.9-1.5c.6.1,1.2.2,1.8.2s.3,0,.5,0c.3,0,.6,0,.8-.1.1,0,.2,0,.3,0l-.9,1.4.6,3.5,3-6.1c.1-.1.3-.2.4-.3,0,0,.1,0,.2-.2s.1-.1.2-.2c.8.5,3.9,3.1,4.2,10.8v.2Z"/>
</svg>