<?xml version="1.0" encoding="UTF-8"?>
<svg id="Layer_1" xmlns="http://www.w3.org/2000/svg" version="1.1" viewBox="0 0 40 40">
  <!-- Generator: Adobe Illustrator 29.1.0, SVG Export Plug-In . SVG Version: 2.1.0 Build 142)  -->
  <defs>
    <style>
      .st0 {
        fill: none;
        stroke: #f9b653;
        stroke-miterlimit: 10;
      }

      .st1 {
        fill: #fff;
      }

      .st2 {
        fill: #f9b653;
      }
    </style>
  </defs>
  <g id="b">
    <g id="c">
      <g>
        <circle class="st2" cx="20" cy="20" r="20"/>
        <g>
          <path class="st1" d="M29.1,10.7c0-.2-.2-.4-.4-.4H11.2c-.2,0-.4.2-.4.4l-1.4,18.5c0,.1,0,.2.1.3,0,0,.2.1.3.1h20.2c.1,0,.2,0,.3-.1,0,0,.1-.2.1-.3,0,0-1.4-18.5-1.4-18.5Z"/>
          <path class="st0" d="M15.7,14.6v4.1c0,1.3.3,2.6,1,3.6.7.9,1.7,1.8,3.3,1.8s3.2-1.3,3.8-2.5c.4-.8.5-1.8.5-2.7v-4.3"/>
          <circle class="st2" cx="15.7" cy="14.6" r="1.2"/>
          <circle class="st1" cx="15.7" cy="14.6" r=".5"/>
          <g>
            <circle class="st2" cx="24.3" cy="14.6" r="1.2"/>
            <circle class="st1" cx="24.3" cy="14.6" r=".5"/>
          </g>
          <g>
            <rect class="st2" x="10.8" y="27.7" width=".7" height=".7"/>
            <rect class="st2" x="12.1" y="27.7" width=".7" height=".7"/>
            <rect class="st2" x="13.5" y="27.7" width=".7" height=".7"/>
            <rect class="st2" x="14.9" y="27.7" width=".7" height=".7"/>
            <rect class="st2" x="16.2" y="27.7" width=".7" height=".7"/>
            <rect class="st2" x="17.6" y="27.7" width=".7" height=".7"/>
            <rect class="st2" x="19" y="27.7" width=".7" height=".7"/>
            <rect class="st2" x="20.3" y="27.7" width=".7" height=".7"/>
            <rect class="st2" x="21.7" y="27.7" width=".7" height=".7"/>
            <rect class="st2" x="23.1" y="27.7" width=".7" height=".7"/>
            <rect class="st2" x="24.5" y="27.7" width=".7" height=".7"/>
            <rect class="st2" x="25.8" y="27.7" width=".7" height=".7"/>
            <rect class="st2" x="27.2" y="27.7" width=".7" height=".7"/>
            <rect class="st2" x="28.6" y="27.7" width=".7" height=".7"/>
          </g>
        </g>
      </g>
    </g>
  </g>
</svg>