<?xml version="1.0" encoding="UTF-8"?><svg xmlns="http://www.w3.org/2000/svg" viewBox="0 0 40 40"><defs><style>.d{fill:#e9528e;}.e{fill:#fff;}.f{fill:none;stroke:#e9528e;stroke-miterlimit:10;}</style></defs><g id="a"/><g id="b"><g id="c"><g><circle class="d" cx="20" cy="20" r="20"/><g><path class="e" d="M29.15,10.73c-.01-.2-.19-.36-.39-.36H11.24c-.21,0-.38,.16-.39,.36l-1.35,18.49c0,.11,.03,.22,.1,.3,.07,.08,.18,.12,.29,.12H30.11c.11,0,.21-.05,.29-.12,.07-.08,.11-.19,.1-.3l-1.35-18.49Z"/><path class="f" d="M15.66,14.61v4.07c0,1.29,.32,2.58,1.05,3.64,.66,.94,1.69,1.78,3.31,1.78,2.11,0,3.21-1.33,3.76-2.52,.39-.83,.55-1.75,.55-2.66v-4.31"/><circle class="d" cx="15.66" cy="14.61" r="1.25"/><circle class="e" cx="15.66" cy="14.61" r=".5"/><g><circle class="d" cx="24.34" cy="14.61" r="1.25"/><circle class="e" cx="24.34" cy="14.61" r=".5"/></g><rect class="d" x="10.75" y="27.7" width=".7" height=".7"/><rect class="d" x="12.12" y="27.7" width=".7" height=".7"/><rect class="d" x="13.49" y="27.7" width=".7" height=".7"/><rect class="d" x="14.86" y="27.7" width=".7" height=".7"/><rect class="d" x="16.23" y="27.7" width=".7" height=".7"/><rect class="d" x="17.6" y="27.7" width=".7" height=".7"/><rect class="d" x="18.97" y="27.7" width=".7" height=".7"/><rect class="d" x="20.34" y="27.7" width=".7" height=".7"/><rect class="d" x="21.71" y="27.7" width=".7" height=".7"/><rect class="d" x="23.08" y="27.7" width=".7" height=".7"/><rect class="d" x="24.45" y="27.7" width=".7" height=".7"/><rect class="d" x="25.82" y="27.7" width=".7" height=".7"/><rect class="d" x="27.19" y="27.7" width=".7" height=".7"/><rect class="d" x="28.56" y="27.7" width=".7" height=".7"/></g></g></g></g></svg>