<?xml version="1.0" encoding="UTF-8"?><svg xmlns="http://www.w3.org/2000/svg" viewBox="0 0 40 40"><defs><style>.d{fill:#e9528e;}.e{fill:#fff;}.f{fill:none;stroke:#fff;stroke-miterlimit:10;stroke-width:1.28px;}</style></defs><g id="a"/><g id="b"><g id="c"><g><circle class="d" cx="20" cy="20" r="20"/><g><g><rect class="e" x="14.82" y="17.5" width=".7" height="4.99" rx=".35" ry=".35"/><g><rect class="e" x="17.91" y="17.5" width=".7" height="4.99" rx=".35" ry=".35"/><rect class="e" x="18.93" y="17.19" width=".7" height="3.44" rx=".35" ry=".35" transform="translate(16.54 -7.96) rotate(39.73)"/><rect class="e" x="19.41" y="18.86" width=".7" height="3.84" rx=".34" ry=".34" transform="translate(47.26 28.9) rotate(150)"/></g><g><rect class="e" x="22.61" y="17.5" width=".7" height="4.99" rx=".35" ry=".35"/><rect class="e" x="23.63" y="17.19" width=".7" height="3.44" rx=".35" ry=".35" transform="translate(17.62 -10.96) rotate(39.73)"/><rect class="e" x="24.11" y="18.86" width=".7" height="3.84" rx=".34" ry=".34" transform="translate(56.03 26.55) rotate(150)"/></g><g><rect class="e" x="10.95" y="17.5" width=".7" height="4.99" rx=".35" ry=".35"/><rect class="e" x="10.95" y="15.94" width=".7" height="3.83" rx=".35" ry=".35" transform="translate(29.16 6.55) rotate(90)"/></g><g><path class="e" d="M30.6,22.04l-1.33-4.29s-.03-.06-.04-.09c0-.01-.01-.02-.02-.03h0c-.04-.05-.1-.09-.16-.11-.02,0-.03,0-.05-.01h-.02s-.02,0-.04,0c-.01,0-.02,0-.04,0h-.02s-.03,0-.05,.01h0c-.07,.02-.12,.06-.16,.11h0s-.02,.03-.02,.04c-.02,.03-.03,.06-.04,.09l-1.33,4.29c-.06,.19,.05,.38,.23,.44,.19,.06,.38-.05,.44-.23l.99-3.21,.99,3.21c.06,.19,.25,.29,.44,.23,.19-.06,.29-.25,.23-.44Z"/><circle class="e" cx="28.94" cy="21.63" r=".31"/></g></g><path class="f" d="M9.77,30.66c2.62-2.62,6.23-4.24,10.23-4.24s7.4,1.53,10,4.02"/><path class="f" d="M30.23,9.34c-2.62,2.62-6.23,4.24-10.23,4.24s-7.41-1.53-10-4.02"/><line class="f" x1="20" y1="24.21" x2="20" y2="34.46"/><line class="f" x1="20" y1="5.54" x2="20" y2="15.79"/><circle class="f" cx="20" cy="20" r="14.46"/><g><path class="e" d="M26.55,15.79c-.73-6.16-3.48-9.62-6.55-9.62s-5.82,3.46-6.55,9.62h-1.26c.82-6.91,4.03-10.88,7.81-10.88s6.99,3.97,7.81,10.88h-1.26Z"/><path class="e" d="M20,35.1c-3.78,0-6.99-3.97-7.81-10.88h1.26c.73,6.16,3.48,9.62,6.55,9.62s5.82-3.46,6.55-9.62h1.26c-.82,6.91-4.03,10.88-7.81,10.88Z"/></g></g></g></g></g></svg>