<?xml version="1.0" encoding="UTF-8"?><svg xmlns="http://www.w3.org/2000/svg" viewBox="0 0 40 40"><defs><style>.d{fill:#e9528e;}.e{fill:#fff;}</style></defs><g id="a"/><g id="b"><g id="c"><g><circle class="d" cx="20" cy="20" r="20"/><g><path class="e" d="M31.91,17h-1.27c-.37-5.55-5-9.95-10.64-9.95s-10.27,4.4-10.64,9.95h-1.27c-1.7,0-3.09,1.39-3.09,3.09v3.2c0,1.7,1.39,3.09,3.09,3.09h1.44c.64,0,1.16-.52,1.16-1.16v-7.51c0-5.13,4.18-9.31,9.31-9.31s9.31,4.18,9.31,9.31v7.14c0,4.4-3.89,5.38-6.11,5.57-.28-.63-.91-1.07-1.64-1.07h-3.18c-.99,0-1.79,.8-1.79,1.79h0c0,.99,.8,1.79,1.79,1.79h3.18c.77,0,1.42-.48,1.68-1.16,1.94-.15,3.6-.7,4.86-1.62,1.28-.94,2.1-2.23,2.42-3.79h1.39c1.7,0,3.09-1.39,3.09-3.09v-3.2c0-1.7-1.39-3.09-3.09-3.09Z"/><path class="e" d="M20,12.37c-3.87,0-7,3.13-7,7,0,1.99,.83,3.78,2.15,5.05l-.77,1.58c-.19,.38,.18,.8,.58,.66l2.39-.81c.82,.34,1.71,.52,2.65,.52,3.87,0,7-3.13,7-7s-3.13-7-7-7Zm-3.3,8.1c-.61,0-1.1-.49-1.1-1.1s.49-1.1,1.1-1.1,1.1,.49,1.1,1.1-.49,1.1-1.1,1.1Zm3.3,0c-.61,0-1.1-.49-1.1-1.1s.49-1.1,1.1-1.1,1.1,.49,1.1,1.1-.49,1.1-1.1,1.1Zm3.3,0c-.61,0-1.1-.49-1.1-1.1s.49-1.1,1.1-1.1,1.1,.49,1.1,1.1-.49,1.1-1.1,1.1Z"/></g></g></g></g></svg>