<?xml version="1.0" encoding="UTF-8"?>
<svg id="Layer_1" xmlns="http://www.w3.org/2000/svg" version="1.1" viewBox="0 0 40 40">
  <!-- Generator: Adobe Illustrator 29.1.0, SVG Export Plug-In . SVG Version: 2.1.0 Build 142)  -->
  <defs>
    <style>
      .st0 {
        fill: #fff;
      }

      .st1 {
        fill: none;
        stroke: #fff;
        stroke-miterlimit: 10;
        stroke-width: 1.3px;
      }

      .st2 {
        fill: #f9b653;
      }
    </style>
  </defs>
  <g id="b">
    <g id="c">
      <g>
        <circle class="st2" cx="20" cy="20" r="20"/>
        <g>
          <g>
            <path class="st0" d="M15.2,17.5h0c.2,0,.4.2.4.4v4.3c0,.2-.2.4-.4.4h0c-.2,0-.4-.2-.4-.4v-4.3c0-.2.2-.4.4-.4Z"/>
            <g>
              <path class="st0" d="M18.3,17.5h0c.2,0,.4.2.4.4v4.3c0,.2-.2.4-.4.4h0c-.2,0-.4-.2-.4-.4v-4.3c0-.2.2-.4.4-.4Z"/>
              <path class="st0" d="M20.4,17.6h0c.1.1.2.3,0,.5l-1.8,2.1c-.1.1-.3.2-.5,0h0c-.1-.1-.2-.3,0-.5l1.8-2.1c.1-.1.3-.2.5,0Z"/>
              <rect class="st0" x="19.4" y="18.9" width=".7" height="3.8" rx=".3" ry=".3" transform="translate(-7.7 12.7) rotate(-30)"/>
            </g>
            <g>
              <path class="st0" d="M23,17.5h0c.2,0,.4.2.4.4v4.3c0,.2-.2.4-.4.4h0c-.2,0-.4-.2-.4-.4v-4.3c0-.2.2-.4.4-.4Z"/>
              <path class="st0" d="M25.1,17.6h0c.1.1.2.3,0,.5l-1.8,2.1c-.1.1-.3.2-.5,0h0c-.1-.1-.2-.3,0-.5l1.8-2.1c.1-.1.3-.2.5,0Z"/>
              <rect class="st0" x="24.1" y="18.9" width=".7" height="3.8" rx=".3" ry=".3" transform="translate(-7.1 15) rotate(-30)"/>
            </g>
            <g>
              <path class="st0" d="M11.3,17.5h0c.2,0,.4.2.4.4v4.3c0,.2-.2.4-.4.4h0c-.2,0-.4-.2-.4-.4v-4.3c0-.2.2-.4.4-.4Z"/>
              <path class="st0" d="M13.2,17.8h0c0,.2-.2.3-.3.3h-3.1c-.2,0-.4-.2-.4-.4h0c0-.2.2-.3.4-.3h3.1c.2,0,.3.2.3.4Z"/>
            </g>
            <g>
              <path class="st0" d="M30.6,22l-1.3-4.3s0,0,0,0c0,0,0,0,0,0h0s-.1,0-.2-.1c0,0,0,0,0,0h-.1s0,0,0,0h0c0,0-.1,0-.2.1h0s0,0,0,0c0,0,0,0,0,0l-1.3,4.3c0,.2,0,.4.2.4.2,0,.4,0,.4-.2l1-3.2,1,3.2c0,.2.2.3.4.2.2,0,.3-.2.2-.4h0Z"/>
              <circle class="st0" cx="28.9" cy="21.6" r=".3"/>
            </g>
          </g>
          <path class="st1" d="M9.8,30.7c2.6-2.6,6.2-4.2,10.2-4.2s7.4,1.5,10,4"/>
          <path class="st1" d="M30.2,9.3c-2.6,2.6-6.2,4.2-10.2,4.2s-7.4-1.5-10-4"/>
          <line class="st1" x1="20" y1="24.2" x2="20" y2="34.5"/>
          <line class="st1" x1="20" y1="5.5" x2="20" y2="15.8"/>
          <circle class="st1" cx="20" cy="20" r="14.5"/>
          <g>
            <path class="st0" d="M26.5,15.8c-.7-6.2-3.5-9.6-6.5-9.6s-5.8,3.5-6.6,9.6h-1.3c.8-6.9,4-10.9,7.8-10.9s7,4,7.8,10.9h-1.3Z"/>
            <path class="st0" d="M20,35.1c-3.8,0-7-4-7.8-10.9h1.3c.7,6.2,3.5,9.6,6.5,9.6s5.8-3.5,6.5-9.6h1.3c-.8,6.9-4,10.9-7.8,10.9Z"/>
          </g>
        </g>
      </g>
    </g>
  </g>
</svg>