<?xml version="1.0" encoding="UTF-8"?>
<svg id="Layer_1" xmlns="http://www.w3.org/2000/svg" version="1.1" viewBox="0 0 40 40">
  <!-- Generator: Adobe Illustrator 29.1.0, SVG Export Plug-In . SVG Version: 2.1.0 Build 142)  -->
  <defs>
    <style>
      .st0 {
        fill: #fff;
      }

      .st1 {
        fill: #f9b653;
      }
    </style>
  </defs>
  <g id="b">
    <g id="c">
      <g>
        <circle class="st1" cx="20" cy="20" r="20"/>
        <g>
          <path class="st0" d="M31,14.9c-.7-.2-1.5.3-1.6,1l-1.6,6.8h-11.7c0-.1-2.8-11.4-2.8-11.4,0-.4-.3-.7-.7-.9l-2.6-1.4c-.6-.4-1.5-.1-1.8.5-.4.6-.1,1.5.5,1.8l2.1,1.1,2.9,11.5-1.6,1.2c-.2.1-.3.4-.3.6v1.9c0,.4.3.8.8.8h2.2c-.3.3-.5.7-.5,1.2,0,.9.7,1.5,1.5,1.5s1.5-.7,1.5-1.5-.2-.8-.5-1.1h10.2c-.2.4-.3.7-.3,1.1,0,.9.7,1.5,1.5,1.5s1.5-.7,1.5-1.5-.1-.7-.3-.9h1.3c.4,0,.8-.3.8-.8s-.3-.8-.8-.8l-17.5-.2v-.8l1.3-1h14.3c.6.1,1.2-.3,1.3-.9l1.8-7.8c.2-.7-.3-1.4-1-1.6h.1Z"/>
          <path class="st0" d="M25.1,15.4h-1.2v-3.6c0-.4-.4-.8-.8-.8h-2.4c-.4,0-.8.4-.8.8v3.6h-1.2c-.5,0-.7.4-.4.8l.9,1.2c.3.4.9,1.2,1.2,1.6l.9,1.2c.3.4.9.4,1.2,0l.9-1.2c.3-.4.9-1.2,1.2-1.6l.9-1.2c.3-.4.1-.8-.4-.8h0Z"/>
        </g>
      </g>
    </g>
  </g>
</svg>