<?xml version="1.0" encoding="UTF-8"?>
<svg id="Layer_2" data-name="Layer 2" xmlns="http://www.w3.org/2000/svg" width="9.99" height="19.73" viewBox="0 0 9.99 19.73">
  <defs>
    <style>
      .cls-1 {
        fill: #fff;
      }
    </style>
  </defs>
  <g id="_圖層_1" data-name="圖層 1">
    <g>
      <path class="cls-1" d="M9.36,9.31c-.35,0-.62.28-.62.62,0,1.03-.42,1.97-1.1,2.65-.68.68-1.61,1.1-2.65,1.1s-1.97-.42-2.65-1.1c-.68-.68-1.1-1.61-1.1-2.65,0-.34-.28-.62-.62-.62S0,9.58,0,9.93c0,2.54,1.91,4.64,4.37,4.95v3.17h-2.3c-.47,0-.84.38-.84.84,0,.47.38.84.84.84h2.93s2.93,0,2.93,0c.47,0,.84-.38.84-.84s-.38-.84-.84-.84h-2.3v-3.17c2.3-.29,4.12-2.15,4.35-4.47l-.19-.02.19.02c.02-.16.02-.32.02-.48,0-.35-.28-.62-.62-.62Z"/>
      <g>
        <rect class="cls-1" x="2.12" y="4.1" width="5.75" height=".93"/>
        <path class="cls-1" d="M4.99,0c-1.59,0-2.87,1.29-2.87,2.88v.29h5.75v-.29c0-1.59-1.29-2.88-2.88-2.88Z"/>
        <path class="cls-1" d="M2.12,9.56c0,1.59,1.29,2.87,2.87,2.87,1.59,0,2.88-1.29,2.88-2.87v-1.73H2.12v1.73Z"/>
        <rect class="cls-1" x="2.12" y="5.96" width="5.75" height=".93"/>
      </g>
    </g>
  </g>
</svg>