<?xml version="1.0" encoding="UTF-8"?><svg xmlns="http://www.w3.org/2000/svg" viewBox="0 0 86 32.25"><defs><style>.d{fill:#e9528e;}.e{fill:#fff;}</style></defs><g id="a"/><g id="b"><g id="c"><g><rect class="e" x="0" y=".12" width="86" height="32" rx="16" ry="16" transform="translate(.07 -.2) rotate(.26)"/><g><path class="d" d="M37.54,7.81c.18,0,.34,.05,.49,.14,.14,.13,.21,.29,.21,.49,0,.08-.02,.19-.05,.33-.26,1.32-.57,2.5-.93,3.55l-.05,11.37c0,.42-.21,.63-.64,.63-.43,0-.65-.21-.65-.64l.04-8.4c-.15,.3-.32,.6-.5,.88-.18,.18-.31,.26-.41,.26-.47,0-.7-.18-.7-.55,0-.16,.04-.31,.12-.44,.54-.92,1.03-1.95,1.46-3.07,.45-1.18,.82-2.57,1.11-4.16,.08-.27,.25-.4,.49-.4Zm5,2.84c.38,0,.56,.18,.56,.55,0,.42-.19,.63-.57,.63l-3.87-.02c-.38,0-.56-.21-.56-.63,0-.36,.19-.54,.56-.54l3.87,.02Zm-.15,2.46c.36,0,.54,.19,.54,.56,0,.36-.18,.54-.55,.54l-3.58-.02c-.39,0-.58-.18-.58-.55,0-.37,.2-.56,.58-.56l3.58,.02Zm-.01,2.25c.36,0,.54,.19,.54,.56,0,.36-.18,.54-.55,.54l-3.51-.02c-.39,0-.58-.18-.58-.55,0-.37,.2-.56,.58-.56l3.51,.02Zm-3.03,2.24h2.53c.69,.01,1.04,.34,1.03,.98l-.02,4.38c0,.64-.35,.96-1.04,.96h-2.53c-.67-.01-1-.34-1-.98l.02-4.38c0-.64,.34-.96,1.01-.96Zm2.91-9.2c.37,0,.56,.18,.56,.55,0,.38-.19,.56-.57,.56h-2.79c-.38-.01-.56-.2-.56-.58,0-.36,.19-.54,.56-.54h2.79Zm-.98,14.42c.29,0,.44-.14,.44-.44v-3.22c.02-.29-.13-.44-.42-.44h-1.41c-.22,0-.33,.14-.34,.43v3.22c-.02,.29,.09,.44,.32,.44h1.41Zm7.18-13.19c.15,0,.27,.03,.35,.09,.12-.3,.24-.64,.36-1,.08-.22,.27-.33,.55-.33,.16,0,.3,.04,.4,.12,.12,.08,.18,.2,.17,.35,0,.09-.02,.22-.07,.37-.43,1.37-.94,2.53-1.55,3.49h1.6c.37,0,.56,.2,.56,.57,0,.39-.19,.58-.57,.58h-2.32c-.46,.66-.97,1.28-1.54,1.86-.11,.13-.21,.25-.32,.37h2.88c.71,.02,1.07,.34,1.07,.99l-.03,5.99c0,.64-.36,.96-1.08,.96l-3.73-.02c-.66,0-.98-.33-.98-.97l.03-5.5c-.11,.08-.22,.15-.33,.21-.14,.09-.28,.14-.42,.14-.15,0-.29-.06-.4-.18-.12-.13-.17-.28-.17-.46,0-.16,.08-.3,.23-.4,.9-.59,1.7-1.24,2.38-1.94,.32-.35,.62-.71,.92-1.07h-2.58c-.38-.01-.56-.21-.56-.59,0-.38,.19-.56,.56-.56h2.02v-1.94h-1.66c-.39,0-.58-.2-.58-.57,0-.39,.2-.58,.58-.58h1.67v-1.17c0-.38,.2-.56,.59-.56,.42,0,.63,.19,.63,.57v1.18h1.33Zm-.06,13.31c.27,0,.41-.14,.41-.44v-1.95l-3.35-.02v1.95c-.01,.29,.1,.44,.32,.44h2.62Zm-2.94-3.53l3.36,.02v-1.74c0-.29-.12-.44-.39-.44h-2.62c-.22-.01-.33,.13-.34,.43v1.74Zm1.8-6.67c.13-.19,.26-.38,.39-.58,.26-.42,.5-.88,.73-1.37h-1.27v1.94h.15Z"/><path class="d" d="M57.27,8.03c.18,0,.33,.05,.46,.16,.15,.14,.23,.31,.23,.49,0,.08-.02,.19-.07,.33-.26,1.31-.6,2.48-1,3.51l-.05,11.26c0,.42-.21,.63-.64,.63s-.63-.21-.63-.64l.04-8.51c-.2,.37-.41,.72-.62,1.03-.22,.2-.39,.3-.49,.3-.47,0-.7-.21-.7-.64,0-.14,.04-.26,.12-.37,.6-.91,1.13-1.92,1.6-3.03,.51-1.18,.93-2.55,1.27-4.11,.06-.29,.22-.44,.49-.44Zm11.93,1.74c.39,0,.58,.19,.58,.57,0,.43-.2,.65-.58,.65l-4.64-.02v1.27h3.02c.81,.02,1.21,.39,1.21,1.13l-.04,9.44h.91c.37,0,.56,.19,.56,.55,0,.42-.19,.63-.57,.63l-11.53-.05c-.38,0-.56-.21-.56-.64,0-.36,.19-.54,.56-.54h.84l.04-9.43c0-.74,.4-1.11,1.18-1.1h3.02v-1.25l-4.33-.02c-.38,0-.56-.22-.56-.65,0-.38,.19-.56,.56-.56l4.34,.02v-1.11c0-.39,.22-.58,.64-.58,.47,0,.7,.2,.7,.58v1.11l4.63,.02Zm-8.97,12.98l7.22,.03v-1.62l-7.22-.03v1.62Zm0-2.74l7.22,.03v-1.55l-7.22-.03v1.55Zm0-2.69l7.22,.03v-1.46l-7.22-.03v1.46Zm0-2.58l7.22,.03v-.91c0-.29-.13-.44-.4-.44l-6.41-.03c-.27,0-.41,.14-.41,.44v.91Z"/></g><g><polygon class="d" points="12.16 13.34 12.87 14.22 19.9 23.01 17.02 13.36 12.16 13.34"/><polygon class="e" points="25.68 8.74 25.68 8.74 25.68 8.74 25.68 8.74"/><polygon class="d" points="20.43 22.99 27.53 14.29 28.24 13.42 23.66 13.39 20.43 22.99"/><polygon class="e" points="28.39 13.24 28.39 13.24 28.39 13.24 28.39 13.24"/><polygon class="d" points="25.51 8.74 20.43 8.71 23.53 12.91 25.51 8.74"/><polygon class="d" points="14.67 8.84 12.13 12.98 16.86 13 14.67 8.84"/><polygon class="d" points="28.28 13.06 25.78 8.9 23.82 13.04 28.28 13.06"/><polygon class="e" points="28.39 13.24 28.39 13.24 28.39 13.24 28.39 13.24"/><polygon class="d" points="20.03 8.71 14.95 8.69 17.15 12.88 20.03 8.71"/><polygon class="d" points="20.23 8.99 17.45 13.01 23.23 13.03 20.23 8.99"/><path class="e" d="M28.39,13.24h0l-.11-.18-4.46-.02,1.96-4.14-.1-.16h-.17l-1.97,4.17-3.11-4.19h-.4l-2.88,4.17-2.2-4.19h-.18l-.1,.15,2.18,4.16-4.73-.02-.11,.18,.14,.18,4.86,.02,2.88,9.65,.25,.32,.27-.34,3.23-9.59,4.58,.02,.15-.18h0Zm-8.16-4.25l3,4.04-5.78-.03,2.78-4.02Zm-.06,13.83l-2.82-9.46,6,.03-3.17,9.43Z"/><polygon class="d" points="20.16 23.33 23.34 13.39 17.34 13.37 20.16 23.33"/></g></g></g></g></svg>