<?xml version="1.0" encoding="UTF-8"?><svg xmlns="http://www.w3.org/2000/svg" viewBox="0 0 135.73 21.47"><defs><style>.d{fill:none;stroke:#fff;stroke-linecap:round;stroke-linejoin:round;}.e{fill:#fff;}</style></defs><g id="a"/><g id="b"><g id="c"><g><g><path class="e" d="M23.1,7.02h3.37c.02-.1,.07-.24,.15-.42,.1-.34,.19-.67,.27-.98h-6.19c-.4,0-.6-.2-.6-.6s.2-.61,.6-.61h6.49c.09-.38,.17-.72,.23-1.05,.11-.28,.28-.42,.51-.42,.49,0,.73,.21,.73,.61,0,.12-.04,.25-.13,.38-.02,.17-.05,.32-.08,.46h6.14c.4,0,.6,.21,.6,.61s-.2,.6-.6,.6h-6.41c-.11,.44-.24,.91-.38,1.39h4.32c.76,0,1.15,.35,1.15,1.05v8.63h1.71c.4,0,.6,.2,.6,.6s-.2,.61-.6,.61h-14.59c-.4,0-.6-.21-.6-.61s.2-.6,.6-.6h1.64V8.06c0-.7,.36-1.05,1.08-1.05Zm.2,2.57h8.68v-.98c0-.28-.13-.42-.38-.42h-7.99c-.21,0-.32,.14-.32,.42v.98Zm0,2.34h8.68v-1.33h-8.68v1.33Zm0,2.32h8.68v-1.33h-8.68v1.33Zm0,2.44h8.68v-1.46h-8.68v1.46Z"/><path class="e" d="M42.13,5.94c.39,0,.58,.2,.58,.6s-.19,.61-.58,.61h-.88v2.87c.24-.18,.51-.39,.8-.63l.22-.05c.4,0,.6,.22,.6,.66,0,.13-.08,.28-.23,.45-.33,.32-.79,.66-1.38,1.03v5.43c0,.97-.55,1.46-1.64,1.46-.2,0-.46-.07-.8-.22-.32-.1-.48-.29-.48-.58,.02-.38,.18-.58,.48-.6,.02,0,.06,0,.12,.02,.34,.12,.57,.18,.68,.18,.31,0,.46-.18,.46-.55v-4.47c-.32,.16-.63,.3-.93,.43-.1,.04-.19,.07-.27,.07-.41,0-.61-.2-.61-.6,0-.35,.16-.58,.48-.66,.52-.2,.96-.4,1.33-.61v-3.64h-1.08c-.4,0-.6-.2-.6-.61s.2-.6,.6-.6h1.08V3.63c0-.41,.19-.61,.58-.61s.6,.21,.6,.61v2.31h.88Zm10.09-2.72c.35,0,.53,.22,.53,.66,0,.29-.22,.46-.66,.53-.83,.11-1.89,.22-3.19,.32v2.29h.76c.12-.17,.24-.33,.37-.48,.27-.38,.51-.77,.73-1.2,.12-.17,.29-.25,.51-.25,.15,0,.28,.05,.38,.15s.15,.23,.15,.38c0,.13-.04,.26-.12,.38-.16,.29-.33,.56-.53,.81-.06,.07-.11,.13-.15,.2h1.81c.34,0,.51,.17,.51,.51s-.17,.53-.51,.53h-3.6c.46,.37,.96,.69,1.48,.98,.97,.54,1.83,.95,2.57,1.21,.28,.13,.42,.33,.42,.6,0,.13-.05,.27-.15,.4-.11,.14-.26,.22-.45,.22-.16,0-.31-.04-.46-.12-.7-.35-1.37-.73-2.01-1.13-.59-.35-1.16-.76-1.71-1.23v1.74c0,.4-.21,.6-.61,.6s-.6-.2-.6-.6v-1.83c-.4,.39-.82,.74-1.26,1.05-.64,.49-1.56,1.01-2.74,1.56-.18,.04-.28,.07-.32,.07-.34,0-.51-.22-.51-.66,0-.24,.13-.42,.38-.51,1.24-.52,2.21-1.02,2.91-1.51,.39-.25,.75-.53,1.08-.83h-3.85c-.34,0-.51-.18-.51-.53s.17-.51,.51-.51h2.04c-.11-.14-.22-.26-.32-.35-.17-.14-.34-.29-.51-.45-.13-.14-.2-.28-.2-.42,0-.35,.17-.53,.51-.53,.11,0,.25,.02,.42,.07,.2,.19,.39,.36,.58,.51,.25,.24,.5,.51,.75,.81,.09,.16,.13,.27,.13,.35h.91v-2.22c-1.79,.11-3.05,.17-3.79,.17-.44,0-.66-.2-.66-.6,0-.37,.18-.55,.55-.55,1.46-.01,2.82-.06,4.08-.13,1.55-.09,3-.24,4.35-.46Zm-7.32,8.25h6.59c.66,0,1,.3,1,.91v4.8c0,.61-.33,.91-1,.91h-6.59c-.66,0-1-.3-1-.91v-4.8c0-.61,.33-.91,1-.91Zm.22,2.72h2.56l.02-1.66h-2.19c-.25,0-.38,.15-.38,.45v1.21Zm2.52,2.86l.02-1.88h-2.54v1.39c0,.32,.13,.48,.38,.48h2.14Zm3.25,0c.25,0,.38-.16,.38-.48v-1.39h-2.42l-.02,1.88h2.06Zm-2.01-4.52l-.02,1.66h2.41v-1.21c0-.3-.13-.45-.38-.45h-2.01Z"/></g><g><path class="e" d="M10.19,10.13c-.38,0-.68,.3-.68,.68,0,1.12-.46,2.14-1.2,2.88-.74,.74-1.76,1.19-2.88,1.19s-2.14-.46-2.88-1.19c-.74-.74-1.19-1.76-1.2-2.88,0-.38-.3-.68-.68-.68S0,10.43,0,10.8c0,2.77,2.08,5.05,4.76,5.39v3.44H2.25c-.51,0-.92,.41-.92,.92,0,.51,.41,.92,.92,.92h6.37c.51,0,.92-.41,.92-.92s-.41-.92-.92-.92h-2.51v-3.44c2.51-.32,4.49-2.33,4.73-4.86l-.2-.02,.2,.02c.02-.17,.03-.35,.03-.52,0-.38-.3-.68-.68-.68Z"/><g><rect class="e" x="2.31" y="4.46" width="6.26" height="1.01"/><path class="e" d="M5.43,0c-1.73,0-3.13,1.4-3.13,3.13v.32h6.26v-.32c0-1.73-1.4-3.13-3.13-3.13Z"/><path class="e" d="M2.31,10.4c0,1.73,1.4,3.13,3.13,3.13,1.73,0,3.13-1.4,3.13-3.13v-1.88H2.31v1.88Z"/><rect class="e" x="2.31" y="6.49" width="6.26" height="1.01"/></g></g><polyline class="d" points="130.73 6.23 135.23 10.73 130.73 15.23"/></g></g></g></svg>