<?xml version="1.0" encoding="UTF-8"?>
<svg id="Layer_2" data-name="Layer 2" xmlns="http://www.w3.org/2000/svg" width="15.62" height="17.85" viewBox="0 0 15.62 17.85">
  <defs>
    <style>
      .cls-1 {
        fill: #fff;
      }
    </style>
  </defs>
  <g id="_圖層_1" data-name="圖層 1">
    <g>
      <path class="cls-1" d="M7.81,0s0,0-.01,0h0c-.43.04-1.55.35-2.94.89-1.4.54-2.77.74-3.92,1.03C-.19,2.22.02,3.58.02,3.58.02,3.58.44,9.1.62,10.01c.83,4.35,7.11,7.84,7.11,7.84h0s6.39-3.39,7.25-7.82c.18-.93.63-6.58.63-6.58,0,0,.22-1.4-.97-1.68-1.19-.28-2.61-.44-4.04-.95C9.19.31,8.25.03,7.83,0h0s0,0-.01,0ZM10.08,2.03c1.1.39,2.16.6,3.1.78,0,0,.85.21.99.24,0,0,.04,0,.03.23,0,.04,0,.04,0,.08-.17,2.16-.48,5.81-.6,6.43-.37,1.91-2.09,3.67-3.47,4.81-.91.75-1.8,1.34-2.39,1.71-.58-.37-1.44-.96-2.33-1.71-1.37-1.15-3.06-2.92-3.43-4.81-.12-.62-.42-4.2-.59-6.31,0-.04,0-.05,0-.08,0-.08,0-.19.01-.26.3-.07.63-.15.97-.22.91-.2,1.95-.42,3.02-.84,1.21-.46,2.08-.7,2.43-.77.23.05.82.2,2.27.72Z"/>
      <path class="cls-1" d="M12.23,3.85c-.77-.19-1.69-.31-2.63-.67-.92-.35-1.53-.55-1.81-.57h0s0,0,0,0c0,0,0,0,0,0h0c-.28.03-1.01.24-1.92.61-.92.37-1.82.51-2.57.71-.75.2-.61,1.15-.61,1.15,0,0,.28,3.83.4,4.47.55,3.02,4.65,5.42,4.65,5.42h0s4.17-2.36,4.73-5.42c.12-.64.41-4.54.41-4.54,0,0,.14-.97-.63-1.16ZM8.81,11.84c-.12.15-.29.23-.51.23-.22,0-.39-.08-.51-.23-.11-.13-.17-.29-.17-.47v-4.92c-.29.3-.61.55-.95.75-.33.19-.58.28-.76.28-.12,0-.24-.05-.35-.14-.1-.1-.16-.23-.16-.39,0-.26.18-.47.55-.65.65-.32,1.17-.78,1.58-1.39.17-.24.29-.4.37-.48.14-.13.29-.2.44-.2.42,0,.64.29.64.88v6.24c0,.19-.05.34-.15.47Z"/>
    </g>
  </g>
</svg>