<?xml version="1.0" encoding="UTF-8"?><svg xmlns="http://www.w3.org/2000/svg" viewBox="0 0 86 32.25"><defs><style>.d{fill:none;}.e{fill:#e9528e;}.f{fill:#fff;}</style></defs><g id="a"/><g id="b"><g id="c"><g><rect class="f" x="0" y=".12" width="86" height="32" rx="16" ry="16" transform="translate(.07 -.2) rotate(.26)"/><g><path class="e" d="M39.65,10.9c.42,0,.63,.22,.63,.65,0,.42-.21,.63-.64,.63h-1.42v.68l1.79,3.15c.12,.2,.17,.38,.17,.53,0,.41-.21,.61-.64,.61-.18,0-.32-.11-.42-.34l-.92-2.1-.04,8.91c0,.42-.21,.63-.64,.63-.42,0-.63-.21-.63-.64l.04-8.4-.04,.21c-.26,1.16-.5,2.07-.72,2.74-.25,.94-.47,1.6-.66,1.98-.15,.25-.34,.37-.56,.37-.42,0-.63-.19-.63-.56,0-.15,.04-.32,.13-.51,.72-1.73,1.23-3.17,1.51-4.32,.25-.84,.47-1.83,.65-2.97h-1.69c-.42,0-.63-.22-.63-.64,0-.43,.21-.65,.64-.65h2.02v-2.43c.01-.42,.23-.63,.65-.63,.42,0,.63,.21,.63,.64v2.44h1.41Zm5.75,3.13c.47,0,.7,.22,.7,.65v1.27l4.26,.02c.39,0,.58,.18,.58,.55,0,.38-.2,.56-.58,.56l-6.75-.03v.07c0,.43-.02,.86-.06,1.28l5.32,.02c.81,0,1.21,.45,1.21,1.34,0,1-.08,1.9-.22,2.71-.16,.74-.46,1.21-.92,1.42-.49,.24-1.2,.36-2.11,.36-.98,0-2.07-.17-3.25-.51-.27-.14-.4-.34-.4-.58,0-.52,.21-.77,.64-.77,1.27,.39,2.26,.59,2.95,.59,.63,0,1.07-.07,1.32-.22,.28-.16,.47-.44,.57-.84,.1-.47,.15-1.03,.15-1.69,0-.47-.18-.7-.56-.71l-4.87-.02c-.06,.3-.13,.6-.21,.9-.46,1.29-1.31,2.44-2.53,3.45-.15,.2-.34,.3-.55,.3-.47,0-.7-.24-.7-.71,0-.05,.05-.19,.14-.42,1.14-.91,1.94-1.94,2.39-3.08,.3-.9,.45-1.87,.45-2.9h-1.34c-.39,0-.58-.2-.58-.57,0-.36,.2-.54,.58-.54l3.73,.02v-1.27c0-.43,.22-.65,.64-.65Zm.03-6.24c.47,0,.7,.21,.7,.64v.77l4.64,.02c.37,0,.56,.19,.56,.55,0,.42-.19,.63-.57,.63h-2.04l-.64,1.9h1.34c.47,0,.81,.17,1.03,.49,.2,.25,.3,.63,.29,1.14,0,.35-.05,.75-.15,1.19-.11,.32-.34,.47-.71,.47-.42,0-.63-.21-.63-.64,.14-.51,.21-.84,.22-.98,0-.37-.17-.56-.51-.56l-7.15-.03c-.29,0-.44,.14-.44,.44v1.27c0,.36-.22,.54-.64,.54-.36,0-.54-.18-.54-.55v-1.85c.01-.64,.34-.97,1-.96h1.41l-.41-1.91h-1.83c-.39-.01-.58-.22-.58-.64,0-.36,.2-.54,.58-.54l4.43,.02v-.77c0-.42,.22-.63,.64-.63Zm-1.55,4.49h2.95l.62-1.9-4.01-.02,.43,1.92Z"/><path class="e" d="M56.13,12.89l11.95,.06c.8,0,1.19,.37,1.19,1.11l-.02,3.87c0,.81-.4,1.21-1.2,1.21l-5.41-.02v1.27l7.02,.03c.42,0,.63,.21,.63,.62,0,.42-.21,.63-.64,.63l-7.03-.03v2.13c-.01,.42-.22,.63-.65,.63-.42,0-.63-.21-.63-.64v-2.13l-6.81-.03c-.43,0-.65-.21-.65-.64,0-.41,.22-.61,.65-.61l6.82,.03v-1.27l-5.27-.02c-.81,0-1.21-.41-1.21-1.22l.02-3.87c0-.74,.41-1.1,1.22-1.1Zm-.33-4.59l4.34,.02c.81,0,1.21,.39,1.21,1.15v1.41c-.01,.74-.42,1.1-1.22,1.1l-4.34-.02c-.8,0-1.19-.37-1.19-1.11v-1.41c.01-.76,.41-1.14,1.21-1.14Zm3.93,2.57c.22,0,.33-.15,.34-.44v-.54c0-.28-.11-.42-.33-.42l-3.53-.02c-.22,0-.33,.14-.34,.42v.54c0,.29,.11,.44,.33,.44l3.53,.02Zm1.65,7.02v-1.41l-5.21-.02v1c0,.27,.12,.4,.36,.41l4.85,.02Zm-5.21-2.47l5.22,.02v-1.35l-4.84-.02c-.25,0-.37,.12-.37,.37v.98Zm11.44,2.5c.25,0,.37-.13,.37-.4v-1l-5.34-.02v1.41l4.97,.02Zm-4.96-3.82v1.35l5.34,.02v-.98c0-.25-.12-.37-.36-.37l-4.97-.02Zm1.36-5.76l4.41,.02c.76,0,1.14,.36,1.14,1.08v1.48c-.01,.69-.39,1.03-1.15,1.03l-4.41-.02c-.75,0-1.12-.35-1.12-1.04v-1.48c.01-.71,.39-1.07,1.14-1.07Zm3.93,2.5c.22,0,.33-.15,.34-.44v-.47c0-.28-.11-.42-.33-.42l-3.46-.02c-.22,0-.33,.14-.34,.42v.47c0,.29,.11,.44,.33,.44l3.46,.02Z"/></g><g><path class="d" d="M15.18,10.87l-.16-1.93c-.54-.12-1.39-.15-1.69,.16-.22,.24-.21,.78,.03,1.53,.33,1.01,1.31,1.58,2.24,1.9-.23-.51-.38-1.07-.43-1.66Z"/><path class="d" d="M25.42,8.98l-.17,1.93c-.05,.59-.21,1.15-.45,1.66,.94-.31,1.92-.88,2.26-1.88,.25-.74,.27-1.29,.05-1.53-.3-.32-1.15-.3-1.69-.18Z"/><path class="e" d="M28.12,8.22c-.71-.76-1.87-.75-2.57-.66l.12-1.3-10.86-.05,.1,1.3c-.7-.1-1.87-.12-2.58,.64-.61,.64-.7,1.62-.28,2.91,.76,2.33,3.49,3,4.82,3.19,.89,.79,2.05,1.27,3.32,1.27s2.44-.46,3.33-1.24c1.33-.18,4.06-.82,4.85-3.14,.43-1.28,.35-2.26-.25-2.91Zm-14.75,2.4c-.24-.75-.26-1.29-.03-1.53,.3-.32,1.15-.29,1.69-.16l.16,1.93c.05,.59,.2,1.15,.43,1.66-.94-.32-1.91-.89-2.24-1.9Zm8.75,2.73l-3.41-.02v-.82h1.22l.02-3.56-1.13,.67v-.89l1.55-.93h.58l-.02,4.72h1.2v.82Zm4.94-2.67c-.34,1.01-1.32,1.57-2.26,1.88,.24-.51,.39-1.07,.45-1.66l.17-1.93c.54-.12,1.39-.14,1.69,.18,.22,.24,.21,.78-.05,1.53Z"/><path class="e" d="M20.19,16.12c-.34,0-.68-.02-1.01-.06l-.02,4.15h2.02l.02-4.14c-.33,.03-.67,.05-1.01,.05Z"/><path class="e" d="M23.27,20.87l-6.43-.03c-.35,0-.65,.25-.72,.59l-.81,4.34,9.44,.04-.77-4.35c-.06-.35-.36-.6-.71-.6Z"/><polygon class="f" points="20.94 7.82 20.36 7.82 18.81 8.74 18.81 9.64 19.94 8.96 19.92 12.53 18.71 12.53 18.71 13.34 22.12 13.36 22.12 12.54 20.92 12.54 20.94 7.82"/></g></g></g></g></svg>