<svg xmlns="http://www.w3.org/2000/svg" viewBox="0 0 86 32.02"><defs><style>.cls-1{fill:#f19ec2;}.cls-2{fill:#fff;}</style></defs><g id="Layer_2" data-name="Layer 2"><g id="圖層_1" data-name="圖層 1"><rect class="cls-1" y="0.01" width="86" height="32" rx="16"/><path class="cls-2" d="M20.19,6.31h0a16.68,16.68,0,0,0-3.2,1A35.6,35.6,0,0,1,12.71,8.4c-1.23.32-1,1.8-1,1.8s.47,6,.66,7c.91,4.73,7.73,8.53,7.73,8.53h0s7-3.69,7.89-8.51c.2-1,.68-7.16.68-7.16s.24-1.53-1.06-1.83a35.5,35.5,0,0,1-4.39-1,16,16,0,0,0-3-.88h0Zm2.46,2.21A23.42,23.42,0,0,0,26,9.37l1.08.26s0,0,0,.25c0,0,0,0,0,.09-.18,2.34-.52,6.32-.66,7-.4,2.07-2.28,4-3.77,5.23a24.34,24.34,0,0,1-2.6,1.86,26.71,26.71,0,0,1-2.53-1.87C16.07,20.94,14.22,19,13.83,17c-.13-.67-.46-4.57-.64-6.87a.25.25,0,0,0,0-.09.86.86,0,0,1,0-.28l1.05-.24a22.34,22.34,0,0,0,3.29-.91,17.11,17.11,0,0,1,2.64-.83A17.26,17.26,0,0,1,22.65,8.52Z"/><path class="cls-2" d="M20.16,9.15h0a10.31,10.31,0,0,0-2.09.66,20.6,20.6,0,0,1-2.79.77c-.82.22-.67,1.26-.67,1.26S14.91,16,15,16.7c.6,3.28,5.07,5.9,5.07,5.9h0s4.53-2.57,5.14-5.9c.13-.69.44-4.94.44-4.94s.16-1-.68-1.26a21.51,21.51,0,0,1-2.86-.73,10.61,10.61,0,0,0-2-.62h0Z"/><path class="cls-1" d="M20.15,19.19a.79.79,0,0,1-.18-.51V13.33a5.3,5.3,0,0,1-1,.82,1.9,1.9,0,0,1-.83.3.64.64,0,0,1-.39-.14.57.57,0,0,1-.17-.42c0-.28.2-.52.6-.71a4.32,4.32,0,0,0,1.72-1.51,4.24,4.24,0,0,1,.4-.52.66.66,0,0,1,.47-.22c.46,0,.69.32.7,1v6.79a.8.8,0,0,1-.17.51.69.69,0,0,1-.56.25A.72.72,0,0,1,20.15,19.19Z"/><path class="cls-2" d="M38.51,7.64a.62.62,0,0,1,.71.7v.49h2.1c.39,0,.58.18.58.55a.51.51,0,0,1-.57.58H41l-.49,2.11h1.19a.56.56,0,0,1,.64.63.56.56,0,0,1-.63.63H35.16c-.44,0-.65-.21-.65-.63s.21-.63.65-.63h1.39L36.05,10h-.56c-.36,0-.54-.19-.54-.58a.48.48,0,0,1,.54-.54h2.34V8.34A.61.61,0,0,1,38.51,7.64Zm-2.46,6.75h4.57q1.08,0,1.08,1v2.39c0,.67-.36,1-1.07,1H40v3.08a7.21,7.21,0,0,0,1.27-.35.75.75,0,0,1,.28-.07c.36,0,.55.19.56.51a.72.72,0,0,1-.4.63,9.33,9.33,0,0,1-1.56.53,15.62,15.62,0,0,1-1.83.38c-.35,0-.54-.26-.56-.7a.57.57,0,0,1,.49-.65l.65-.07V18.74H37.83a8.93,8.93,0,0,1-.33,2.44,6.05,6.05,0,0,1-1.78,2.6.64.64,0,0,1-.51.3.62.62,0,0,1-.7-.7,1.51,1.51,0,0,1,.14-.37,5.11,5.11,0,0,0,1.74-2.25,7.06,7.06,0,0,0,.32-2h-.65a.91.91,0,0,1-1-1V15.36C35,14.71,35.36,14.39,36.05,14.39ZM40,17.6c.3,0,.44-.16.44-.47V16c0-.34-.15-.51-.44-.51H36.71c-.3,0-.44.17-.44.5v1.13c0,.32.14.47.44.47Zm-2.25-5.53h1.58L39.8,10H37.25ZM47,18.74H45.76a.2.2,0,0,1,0,.07,6.86,6.86,0,0,1-.42,2.45A6.48,6.48,0,0,1,43,23.88a.76.76,0,0,1-.55.28.62.62,0,0,1-.7-.71,2.78,2.78,0,0,1,.14-.44,5.49,5.49,0,0,0,2.18-2.19,5.42,5.42,0,0,0,.4-2.08h-.33c-.7,0-1.06-.33-1.06-1V15.35c0-.64.35-1,1.06-1h5.06c.7,0,1.05.32,1.05,1v2.39c0,.67-.35,1-1.05,1H48.13a1.25,1.25,0,0,1,0,.21v2.88a1.1,1.1,0,0,0,.12.6.87.87,0,0,0,.65.18c.34,0,.54-.06.6-.16a.93.93,0,0,0,.11-.44V21c0-.44.22-.68.58-.7s.61.3.64.84A6.76,6.76,0,0,1,50.7,23a.87.87,0,0,1-.44.53,3.24,3.24,0,0,1-1.34.17,2.47,2.47,0,0,1-1.61-.36,1.88,1.88,0,0,1-.34-1.3V19A1.25,1.25,0,0,1,47,18.74Zm-.32-11.1a.61.61,0,0,1,.7.7v.49H50a.48.48,0,0,1,.54.54c0,.39-.18.58-.54.58h-.84l-.55,2.11H50a.56.56,0,0,1,.63.63.56.56,0,0,1-.63.64H43.24a.56.56,0,0,1-.63-.63.56.56,0,0,1,.63-.63h1.41L44.14,10h-.69a.52.52,0,0,1-.58-.58c0-.37.19-.55.58-.55H46V8.34A.62.62,0,0,1,46.67,7.64Zm1.92,10c.27,0,.4-.16.4-.48V16c0-.34-.14-.51-.4-.51h-3.8c-.29,0-.44.17-.44.51v1.13c0,.31.15.47.44.47Zm-2.77-5.54h1.59L47.93,10H45.35Z"/><path class="cls-2" d="M62.11,7.42a.62.62,0,0,1,.71.7v.34h6.11A1.36,1.36,0,0,1,70,8.94a1.79,1.79,0,0,1,.3,1.13,6.42,6.42,0,0,1-.14,1.21.72.72,0,0,1-.77.48.56.56,0,0,1-.64-.62,5.58,5.58,0,0,0,.21-1c0-.42-.19-.63-.58-.63H65.33v.86h2.83c.28,0,.42.13.42.4s-.14.44-.42.44H65.33V12h2.39c.25,0,.37.11.37.33s-.12.44-.37.44H65.33v.7h4.24a.35.35,0,0,1,.4.4c0,.35-.13.51-.4.51H66.26c.13.08.27.15.41.22a7.18,7.18,0,0,0,1.49.46q.8.13,1.62.21c.5.09.75.34.75.72s-.23.63-.7.63A14.49,14.49,0,0,1,68,16.26v4.49c0,.63-.35.94-1.07.94H65.74a24.69,24.69,0,0,0,3.9,1.17.65.65,0,0,1,.42.58.62.62,0,0,1-.7.71A15.63,15.63,0,0,1,67,23.5a17.14,17.14,0,0,1-2.11-.83,1,1,0,0,1-.3-.58.6.6,0,0,1,.12-.4h-5a.5.5,0,0,1,.16.35.7.7,0,0,1-.44.63,9.5,9.5,0,0,1-2.07.81,18,18,0,0,1-2.43.6c-.35,0-.53-.26-.54-.7s.15-.58.47-.63a14.73,14.73,0,0,0,2-.39,18.87,18.87,0,0,0,2-.67H57.62c-.7,0-1-.31-1.06-.93V16.35a1.3,1.3,0,0,1,0-.23,16.07,16.07,0,0,1-1.79.44,1.46,1.46,0,0,1-.41.07.5.5,0,0,1-.4-.19.7.7,0,0,1-.16-.44.53.53,0,0,1,.41-.58,20.22,20.22,0,0,0,2.53-.5A6.36,6.36,0,0,0,58,14.41l.06,0H54.65c-.28,0-.43-.17-.43-.51s.15-.4.43-.4H59v-.7H56.56c-.24,0-.37-.14-.37-.44s.13-.33.37-.33H59v-.77h-3a.39.39,0,0,1-.44-.44c0-.27.15-.41.44-.41h3V9.51H55.86a.39.39,0,0,0-.44.44v1.2c0,.41-.21.61-.63.61s-.64-.2-.64-.61V9.44a.88.88,0,0,1,1-1h6.26V8.12A.62.62,0,0,1,62.11,7.42Zm-4.3,10h8.93v-.63c0-.24-.07-.36-.19-.36H58c-.15,0-.23.12-.23.35Zm0,1.55h8.93V18H57.81Zm8.74,1.8c.13,0,.19-.13.19-.4v-.7H57.81v.7c0,.27.08.41.23.41ZM58.2,15.49h7.85a3.19,3.19,0,0,1-.47-.31,2.83,2.83,0,0,1-.79-.79H59.51a3.39,3.39,0,0,1-.72.74A6.62,6.62,0,0,1,58.2,15.49Zm6-5.12V9.51h-4v.86Zm0,1.62v-.78h-4V12Zm-4,1.47h4v-.7h-4Z"/></g></g></svg>