<?xml version="1.0" encoding="UTF-8"?>
<svg id="Layer_1" xmlns="http://www.w3.org/2000/svg" version="1.1" viewBox="0 0 138.8 19.4">
  <!-- Generator: Adobe Illustrator 29.1.0, SVG Export Plug-In . SVG Version: 2.1.0 Build 142)  -->
  <defs>
    <style>
      .st0 {
        fill: #fff;
      }

      .st1 {
        fill: none;
        stroke: #fff;
        stroke-linecap: round;
        stroke-linejoin: round;
      }
    </style>
  </defs>
  <g id="b">
    <g id="c">
      <g>
        <polyline class="st1" points="133.8 5.2 138.3 9.7 133.8 14.2"/>
        <g>
          <path class="st0" d="M8.5,0h0c-.5,0-1.7.4-3.2,1-1.5.6-3,.8-4.3,1.1C-.2,2.4,0,3.9,0,3.9,0,3.9.5,9.9.7,10.9c.9,4.7,7.7,8.5,7.7,8.5h0s6.9-3.7,7.9-8.5c.2-1,.7-7.2.7-7.2,0,0,.2-1.5-1.1-1.8-1.3-.3-2.8-.5-4.4-1C10,.3,9,0,8.5,0h0ZM11,2.2c1.2.4,2.3.7,3.4.8,0,0,.9.2,1.1.3,0,0,0,0,0,.2,0,0,0,0,0,0-.2,2.3-.5,6.3-.7,7-.4,2.1-2.3,4-3.8,5.2-1,.8-2,1.5-2.6,1.9-.6-.4-1.6-1-2.5-1.9-1.5-1.3-3.3-3.2-3.7-5.2-.1-.7-.5-4.6-.6-6.9h0c0-.2,0-.3,0-.4.3,0,.7-.2,1-.2,1-.2,2.1-.5,3.3-.9,1.3-.5,2.3-.8,2.6-.8.2,0,.9.2,2.5.8Z"/>
          <path class="st0" d="M13.3,4.2c-.8-.2-1.8-.3-2.9-.7-1-.4-1.7-.6-2-.6h0c-.3,0-1.1.3-2.1.7-1,.4-2,.5-2.8.8-.8.2-.7,1.2-.7,1.2,0,0,.3,4.2.4,4.9.6,3.3,5.1,5.9,5.1,5.9,0,0,4.5-2.6,5.1-5.9.1-.7.4-4.9.4-4.9,0,0,.2-1.1-.7-1.3ZM9.7,12.4c0,.2,0,.4-.2.5-.1.2-.3.2-.6.2s-.4,0-.6-.2h0c-.1-.1-.2-.3-.2-.5v-5.4c-.3.3-.7.6-1,.8-.4.2-.6.3-.8.3s-.3,0-.4-.1c-.1-.1-.2-.2-.2-.4,0-.3.2-.5.6-.7.7-.4,1.3-.9,1.7-1.5.2-.3.3-.4.4-.5.1-.1.3-.2.5-.2.5,0,.7.3.7.9v6.8Z"/>
        </g>
        <g>
          <path class="st0" d="M26.8,1.9c.4,0,.7.2.7.7v.5h2c.4,0,.5.2.5.5s-.2.5-.5.5h-.3l-.5,2h1.1c.4,0,.6.2.6.6s-.2.6-.6.6h-6.2c-.4,0-.6-.2-.6-.6s.2-.6.6-.6h1.3l-.5-2h-.5c-.3,0-.5-.2-.5-.5s.2-.5.5-.5h2.2v-.5c0-.4.2-.7.6-.7h0ZM24.4,8.3h4.3c.7,0,1,.3,1,.9v2.3c0,.6-.3.9-1,.9h-.6v2.9c.5,0,.9-.2,1.2-.3.1,0,.2,0,.3,0,.3,0,.5.2.5.5,0,.2-.1.4-.4.6-.4.2-.9.3-1.5.5-.5.1-1,.2-1.7.4-.3,0-.5-.2-.5-.7,0-.4.1-.6.5-.6.2,0,.4,0,.6,0v-3.1h-1c0,.8-.1,1.6-.3,2.3-.3.9-.9,1.7-1.7,2.5-.1.2-.3.3-.5.3-.4,0-.7-.2-.7-.7s0-.2.1-.4c.8-.6,1.3-1.3,1.6-2.1.2-.6.3-1.2.3-1.9h-.6c-.6,0-1-.3-1-.9v-2.3c0-.6.3-.9,1-.9h0ZM28.1,11.3c.3,0,.4-.1.4-.4v-1.1c0-.3-.1-.5-.4-.5h-3.1c-.3,0-.4.2-.4.5v1.1c0,.3.1.4.4.4h3.1ZM26,6.1h1.5l.5-2h-2.4s.5,2,.5,2ZM34.8,12.4h-1.2s0,0,0,0c0,.8-.1,1.6-.4,2.3-.4.9-1.1,1.7-2.2,2.5-.2.2-.3.3-.5.3-.4,0-.7-.2-.7-.7s0-.2.1-.4c1-.6,1.7-1.3,2.1-2.1.2-.6.4-1.3.4-2h-.3c-.7,0-1-.3-1-.9v-2.3c0-.6.3-.9,1-.9h4.8c.7,0,1,.3,1,.9v2.3c0,.6-.3.9-1,.9h-1c0,0,0,.1,0,.2v2.7c0,.3,0,.4.1.6,0,.1.3.2.6.2s.5,0,.6-.1c0-.1,0-.3,0-.4v-1c0-.4.2-.6.5-.7.4,0,.6.3.6.8,0,1,0,1.6-.1,1.8,0,.2-.2.4-.4.5-.2.1-.6.2-1.3.2s-1.3-.1-1.5-.4c-.2-.2-.3-.6-.3-1.2v-2.9c0,0,0-.1,0-.2h0ZM34.5,1.9c.4,0,.7.2.7.7v.5h2.5c.3,0,.5.2.5.5s-.2.6-.5.6h-.8l-.5,2h1.3c.4,0,.6.2.6.6s-.2.6-.6.6h-6.4c-.4,0-.6-.2-.6-.6s.2-.6.6-.6h1.3l-.5-2h-.6c-.4,0-.5-.2-.5-.5s.2-.5.5-.5h2.4v-.5c0-.4.2-.7.7-.7h0ZM36.3,11.3c.2,0,.4-.1.4-.4v-1.1c0-.3-.1-.5-.4-.5h-3.6c-.3,0-.4.2-.4.5v1.1c0,.3.1.4.4.4h3.6,0ZM33.7,6.1h1.5l.5-2h-2.4s.5,2,.4,2Z"/>
          <path class="st0" d="M49,1.7c.4,0,.7.2.7.7v.3h5.8c.5,0,.8.2,1,.5.2.2.3.6.3,1.1s0,.7-.1,1.2c0,.3-.3.4-.7.4s-.6-.2-.6-.6c.1-.5.2-.8.2-.9,0-.4-.2-.6-.5-.6h-2.9v.8h2.7c.3,0,.4.1.4.4s-.1.4-.4.4h-2.7v.7h2.3c.2,0,.3,0,.3.3s-.1.4-.3.4h-2.3v.7h4c.2,0,.4.1.4.4s-.1.5-.4.5h-3.1c.1,0,.2.1.4.2.4.2.9.3,1.4.4.5,0,1,.1,1.5.2.5,0,.7.3.7.7s-.2.6-.7.6c-.6,0-1.2-.2-1.7-.4v4.2c0,.6-.3.9-1,.9h-1.2c1.2.5,2.5.9,3.7,1.1.3.1.4.3.4.5,0,.4-.2.7-.7.7s-1-.2-2.3-.6c-.7-.2-1.4-.5-2-.8-.2-.2-.3-.4-.3-.6s0-.3.1-.4h-4.8c0,0,.1.2.2.3,0,.2-.1.4-.4.6-.5.3-1.2.5-2,.8-.6.2-1.4.4-2.3.6-.3,0-.5-.2-.5-.7,0-.3.2-.5.5-.6.8-.1,1.4-.2,1.9-.4.7-.2,1.3-.4,1.9-.6h-1.1c-.7,0-1-.3-1-.9v-4.2c0,0,0-.2,0-.2-.6.2-1.1.3-1.7.4-.2,0-.3,0-.4,0-.2,0-.3,0-.4-.2,0-.1-.2-.3-.2-.4,0-.3.1-.5.4-.6.8-.1,1.6-.3,2.4-.5.5-.1.9-.3,1.2-.5,0,0,0,0,0,0h-3.2c-.3,0-.4-.2-.4-.5s.1-.4.4-.4h4.1v-.7h-2.3c-.2,0-.3-.1-.3-.4s.1-.3.3-.3h2.3v-.7h-2.8c-.3,0-.4-.1-.4-.4s.1-.4.4-.4h2.8v-.8h-3c-.3,0-.4.1-.4.4v1.1c0,.4-.2.6-.6.6s-.6-.2-.6-.6v-1.6c0-.6.3-.9,1-.9h5.9v-.3c0-.4.2-.7.7-.7h0ZM45,11.1h8.4v-.6c0-.2,0-.3-.2-.3h-8c-.1,0-.2.1-.2.3v.6h0ZM45,12.6h8.4v-.9h-8.4v.9ZM53.2,14.3c.1,0,.2-.1.2-.4v-.7h-8.4v.7c0,.2,0,.4.2.4h8,0ZM45.3,9.3h7.4c-.2,0-.3-.2-.5-.3-.3-.2-.5-.4-.8-.8h-5c-.2.3-.4.5-.7.7-.2.1-.4.2-.6.4ZM51,4.5v-.8h-3.7v.8h3.7ZM51,6v-.7h-3.7v.7h3.7ZM47.2,7.4h3.7v-.7h-3.7v.7Z"/>
        </g>
      </g>
    </g>
  </g>
</svg>