<?xml version="1.0" encoding="UTF-8"?><svg xmlns="http://www.w3.org/2000/svg" viewBox="0 0 138.79 19.43"><defs><style>.d{fill:none;stroke:#fff;stroke-linecap:round;stroke-linejoin:round;}.e{fill:#e9528e;}.f{fill:#fff;}</style></defs><g id="a"/><g id="b"><g id="c"><g><polyline class="d" points="133.79 5.21 138.29 9.71 133.79 14.21"/><g><g><path class="f" d="M8.5,0h-.01c-.47,.05-1.68,.38-3.2,.96-1.52,.59-3.02,.8-4.27,1.13C-.21,2.41,.02,3.9,.02,3.9,.02,3.9,.48,9.91,.67,10.9c.91,4.73,7.73,8.53,7.73,8.53h0s6.95-3.69,7.89-8.51c.2-1.01,.68-7.16,.68-7.16,0,0,.24-1.53-1.06-1.83-1.3-.3-2.83-.48-4.39-1.04C10,.34,8.97,.04,8.52,0h-.01Zm2.46,2.21c1.19,.43,2.35,.65,3.37,.85,0,0,.92,.22,1.08,.26,0,0,.04,0,.03,.25,0,.04,0,.05-.01,.09-.18,2.35-.53,6.32-.66,7-.4,2.07-2.28,3.99-3.77,5.23-.99,.82-1.96,1.46-2.6,1.86-.63-.4-1.56-1.04-2.54-1.86-1.49-1.26-3.33-3.18-3.73-5.23-.13-.67-.46-4.57-.64-6.87,0-.04,0-.05,0-.09,0-.09,0-.2,.02-.28,.33-.08,.68-.16,1.05-.24,.99-.21,2.12-.46,3.29-.91,1.32-.51,2.26-.76,2.64-.84,.25,.05,.9,.22,2.47,.78Z"/><path class="f" d="M8.47,2.84h0c-.3,.03-1.1,.26-2.09,.66-1,.4-1.98,.55-2.8,.77-.81,.22-.66,1.25-.66,1.25,0,0,.31,4.17,.43,4.86,.59,3.28,5.07,5.9,5.07,5.9h0s4.53-2.57,5.14-5.9c.13-.7,.44-4.94,.44-4.94,0,0,.15-1.05-.69-1.26-.84-.21-1.84-.34-2.86-.73-1-.38-1.67-.59-1.97-.62h0Z"/></g><path class="e" d="M8.47,12.88c-.12-.14-.18-.31-.18-.51V7.02c-.32,.33-.66,.6-1.04,.82-.36,.2-.63,.31-.83,.31-.14,0-.27-.05-.39-.15-.11-.11-.17-.25-.17-.42,0-.28,.2-.51,.6-.7,.7-.35,1.28-.85,1.71-1.51,.18-.26,.31-.43,.4-.52,.15-.14,.31-.22,.48-.22,.46,0,.69,.32,.69,.95v6.79c0,.2-.05,.37-.17,.51-.13,.17-.31,.25-.56,.25s-.42-.08-.56-.25Z"/></g><g><path class="f" d="M26.75,1.88c.44,0,.66,.22,.66,.66v.46h1.99c.37,0,.55,.17,.55,.51,0,.37-.18,.55-.55,.55h-.32l-.46,1.99h1.13c.4,0,.6,.2,.6,.6,0,.4-.2,.6-.6,.6h-6.18c-.41,0-.61-.2-.61-.6,0-.4,.2-.6,.61-.6h1.31l-.47-1.99h-.53c-.34,0-.51-.18-.51-.55,0-.34,.17-.51,.51-.51h2.21v-.47c0-.44,.22-.66,.65-.66Zm-2.32,6.38h4.32c.68,0,1.01,.3,1.01,.91v2.26c0,.63-.34,.95-1.01,.95h-.6v2.91c.45-.09,.85-.2,1.2-.33,.11-.04,.2-.07,.27-.07,.34,.02,.52,.18,.53,.48,0,.24-.13,.44-.38,.6-.38,.18-.87,.34-1.48,.5-.46,.13-1.04,.25-1.73,.37-.33-.03-.51-.25-.53-.66,0-.35,.15-.56,.46-.61,.23-.02,.44-.04,.61-.07v-3.1h-1c0,.81-.1,1.58-.31,2.31-.31,.92-.87,1.74-1.68,2.46-.14,.19-.3,.28-.48,.28-.44,0-.66-.22-.66-.66,0-.04,.04-.16,.13-.35,.8-.62,1.34-1.33,1.64-2.13,.19-.6,.29-1.23,.3-1.91h-.61c-.65,0-.98-.31-.98-.95v-2.26c0-.61,.33-.91,.98-.91Zm3.72,3.04c.28,0,.42-.15,.41-.45v-1.06c0-.32-.14-.48-.42-.48h-3.1c-.28,0-.42,.16-.41,.48v1.06c0,.3,.14,.45,.42,.45h3.1Zm-2.13-5.23h1.49l.45-1.99h-2.41l.47,1.99Zm8.73,6.3h-1.16s.02,.04,.02,.07c0,.82-.13,1.59-.4,2.31-.41,.92-1.14,1.74-2.21,2.47-.16,.18-.33,.27-.51,.27-.44,0-.66-.22-.66-.66,0-.04,.04-.18,.13-.42,1-.61,1.68-1.3,2.06-2.08,.25-.62,.38-1.27,.38-1.96h-.32c-.66,0-1-.31-1-.95v-2.26c0-.61,.33-.91,.99-.91h4.78c.66,0,1,.3,1,.91v2.26c0,.63-.33,.95-.99,.95h-1.03c.01,.06,.02,.12,.02,.2v2.72c0,.27,.04,.45,.12,.56,.1,.11,.3,.17,.61,.17,.32,0,.51-.05,.56-.15,.07-.12,.1-.26,.1-.42v-.96c.02-.42,.2-.64,.55-.66,.38,.02,.58,.29,.6,.8,0,1.01-.04,1.6-.13,1.78-.06,.21-.19,.38-.41,.5-.2,.11-.62,.17-1.26,.17-.77,0-1.28-.12-1.53-.35-.21-.22-.32-.63-.32-1.23v-2.92c0-.08,0-.14,.02-.2Zm-.3-10.49c.44,0,.66,.22,.66,.66v.46h2.47c.34,0,.51,.17,.51,.51,0,.37-.17,.55-.51,.55h-.8l-.51,1.99h1.31c.4,0,.6,.2,.6,.6,0,.4-.2,.6-.6,.6h-6.38c-.4,0-.6-.2-.6-.6,0-.4,.2-.6,.6-.6h1.33l-.48-1.99h-.65c-.37,0-.55-.18-.55-.55,0-.34,.18-.51,.55-.51h2.37v-.47c0-.44,.22-.66,.66-.66Zm1.81,9.41c.25,0,.38-.15,.38-.45v-1.06c0-.32-.13-.48-.38-.48h-3.59c-.28,0-.41,.16-.41,.48v1.06c0,.3,.14,.45,.42,.45h3.59Zm-2.61-5.23h1.49l.5-1.99h-2.44l.45,1.99Z"/><path class="f" d="M49.04,1.67c.44,0,.66,.22,.66,.66v.32h5.78c.45,0,.8,.15,1.05,.46,.19,.23,.28,.59,.28,1.06,0,.33-.04,.71-.13,1.15-.1,.3-.34,.45-.73,.45s-.6-.19-.6-.58c.13-.5,.2-.81,.2-.95,0-.4-.18-.6-.55-.6h-2.92v.81h2.67c.27,0,.4,.13,.4,.38,0,.28-.13,.42-.4,.42h-2.67v.73h2.26c.23,0,.35,.1,.35,.31,0,.28-.12,.42-.35,.42h-2.26v.67h4c.25,0,.38,.13,.38,.38,0,.32-.13,.48-.38,.48h-3.12c.12,.08,.25,.15,.38,.22,.44,.19,.91,.33,1.41,.43,.5,.09,1.01,.15,1.53,.2,.48,.09,.71,.31,.71,.68,0,.4-.22,.6-.66,.6-.62-.09-1.19-.2-1.71-.35v4.25c0,.59-.34,.88-1.01,.88h-1.15c1.24,.49,2.47,.86,3.69,1.11,.27,.13,.4,.32,.4,.55,0,.44-.22,.66-.66,.66-.21,0-.96-.2-2.26-.61-.7-.22-1.36-.48-1.99-.78-.19-.21-.28-.39-.28-.55,0-.17,.04-.29,.12-.38h-4.76c.09,.08,.14,.19,.15,.33,0,.25-.14,.45-.41,.6-.5,.28-1.15,.53-1.96,.76-.63,.21-1.39,.4-2.29,.57-.33-.02-.5-.24-.51-.66,0-.34,.15-.54,.45-.6,.81-.11,1.44-.23,1.89-.37,.72-.2,1.35-.41,1.89-.63h-1.11c-.66,0-1-.29-1-.88v-4.17c0-.09,0-.16,.01-.22-.58,.18-1.14,.32-1.69,.42-.16,.04-.28,.07-.38,.07-.16,0-.28-.06-.38-.18-.1-.13-.15-.27-.15-.42,0-.3,.13-.48,.38-.55,.83-.11,1.63-.27,2.39-.47,.46-.14,.86-.3,1.18-.48,.02-.01,.04-.02,.05-.03h-3.22c-.27,0-.4-.16-.4-.48,0-.25,.13-.38,.4-.38h4.13v-.67h-2.32c-.23,0-.35-.14-.35-.41,0-.21,.12-.32,.35-.32h2.32v-.73h-2.79c-.28,0-.42-.14-.42-.41,0-.25,.14-.38,.42-.38h2.79v-.81h-2.99c-.28,0-.41,.14-.41,.42v1.13c0,.39-.2,.58-.6,.58s-.6-.19-.6-.58v-1.61c0-.62,.31-.93,.95-.93h5.91v-.32c0-.44,.22-.66,.66-.66Zm-4.06,9.43h8.43v-.6c0-.22-.06-.33-.18-.33h-8.04c-.14,0-.22,.11-.22,.34v.6Zm0,1.46h8.43v-.87h-8.43v.87Zm8.25,1.71c.12,0,.18-.13,.18-.38v-.66h-8.43v.67c0,.25,.07,.38,.22,.38h8.04Zm-7.89-4.98h7.42c-.17-.09-.32-.19-.45-.3-.3-.2-.55-.45-.75-.75h-4.98c-.21,.29-.44,.52-.68,.7-.18,.12-.37,.24-.56,.35Zm5.63-4.83v-.81h-3.74v.81h3.74Zm0,1.53v-.73h-3.74v.73h3.74Zm-3.73,1.39h3.74v-.67h-3.74v.67Z"/></g></g></g></g></svg>