<?xml version="1.0" encoding="UTF-8"?>
<svg id="Layer_2" data-name="Layer 2" xmlns="http://www.w3.org/2000/svg" width="15.05" height="14.04" viewBox="0 0 15.05 14.04">
  <defs>
    <style>
      .cls-1 {
        fill: #fff;
      }
    </style>
  </defs>
  <g id="_圖層_1" data-name="圖層 1">
    <g>
      <path class="cls-1" d="M14.39,3.8c-.45-.1-.91.18-1.01.63l-.97,4.25-7.36-.07L3.27,1.52c-.06-.23-.21-.42-.41-.54L1.25.1C.84-.12.33.03.1.44-.12.85.03,1.36.44,1.59l1.29.71,1.81,7.22-.97.77c-.12.09-.18.23-.18.38v1.21c0,.26.21.48.48.48l1.36.02c-.19.18-.31.43-.31.7,0,.53.43.97.97.96.53,0,.97-.43.96-.97,0-.27-.11-.51-.29-.69l6.37.09c-.13.16-.21.37-.21.6,0,.53.43.97.97.96.53,0,.97-.43.97-.97,0-.22-.07-.41-.19-.57h.83s0,.01,0,.01c.26,0,.48-.21.48-.48,0-.27-.21-.49-.48-.49l-10.95-.15v-.5s.8-.63.8-.63c.07.02.15.04.23.04l8.69.08h0c.39,0,.73-.27.82-.66l1.13-4.91c.1-.45-.18-.91-.63-1.01Z"/>
      <path class="cls-1" d="M10.73,4.14h-.79s0-2.27,0-2.27c0-.28-.23-.5-.5-.5h-1.51c-.28,0-.5.23-.5.51v2.27s-.78,0-.78,0c-.35,0-.46.23-.25.51l.58.78c.21.28.55.73.76,1.01l.58.78c.21.28.55.28.75,0l.58-.78c.21-.28.55-.73.75-1.01l.58-.78c.21-.28.09-.51-.25-.51Z"/>
    </g>
  </g>
</svg>