<svg xmlns="http://www.w3.org/2000/svg" viewBox="0 0 86 32.02"><defs><style>.cls-1{fill:#f19ec2;}.cls-2{fill:#fff;}</style></defs><g id="Layer_2" data-name="Layer 2"><g id="圖層_1" data-name="圖層 1"><rect class="cls-1" y="0.01" width="86" height="32" rx="16"/><path class="cls-2" d="M27.66,12.52a.91.91,0,0,0-1.1.69L25.5,17.83l-8-.07L15.56,10a.92.92,0,0,0-.44-.58l-1.76-1a.92.92,0,0,0-.88,1.61l1.4.77,2,7.85-1.06.84a.51.51,0,0,0-.2.41V21.3a.52.52,0,0,0,.52.52l1.48,0a1,1,0,0,0-.34.77A1.05,1.05,0,1,0,18,21.86L25,22a1,1,0,0,0-.22.64,1.05,1.05,0,1,0,2.1,0,1,1,0,0,0-.22-.62h.92a.53.53,0,0,0,0-1l-11.91-.16v-.54l.87-.69a1.17,1.17,0,0,0,.26,0l9.45.08h0a.92.92,0,0,0,.9-.71l1.22-5.34A.91.91,0,0,0,27.66,12.52Z"/><path class="cls-2" d="M23.68,12.89h-.85V10.42a.55.55,0,0,0-.55-.55H20.63a.55.55,0,0,0-.55.55v2.47h-.85c-.38,0-.5.25-.28.55l.64.86.82,1.1.64.85a.48.48,0,0,0,.82,0l.63-.85.82-1.1.64-.86C24.19,13.14,24.06,12.89,23.68,12.89Z"/><path class="cls-2" d="M42.75,7.76a.62.62,0,0,1,.7.7v1h6.61a.5.5,0,0,1,.56.57c0,.43-.19.65-.56.65H46.6l-.76,2.11h2.81A1.11,1.11,0,0,1,49.92,14v8.23c0,1.23-.59,1.84-1.77,1.84a12.63,12.63,0,0,1-2.51-.29.56.56,0,0,1-.44-.55c0-.47.17-.7.51-.7a4.42,4.42,0,0,1,.56.05,9.61,9.61,0,0,0,1.76.23q.63,0,.63-.72V14.58q0-.57-.51-.57H44.86v1.26c0,.34.13.51.4.51H47.6a.56.56,0,0,1,0,1.11H45.05a1.24,1.24,0,0,1-1.4-1.41V14h-2.2a5,5,0,0,1-.37,1.63A2.71,2.71,0,0,1,40,16.9a4.64,4.64,0,0,1-2.09.63h-.23c-.35,0-.53-.24-.54-.7a.57.57,0,0,1,.47-.56,4,4,0,0,0,1.57-.42A1.94,1.94,0,0,0,40,15a3,3,0,0,0,.3-1H37.2c-.33,0-.5.19-.49.56v8.88a.57.57,0,0,1-.65.63.56.56,0,0,1-.63-.63V14c0-.83.45-1.25,1.34-1.25h2.76l-.71-2.11H35.35c-.37,0-.56-.21-.56-.65a.49.49,0,0,1,.56-.56H42v-1A.63.63,0,0,1,42.75,7.76Zm-3.16,10H45.7c.6,0,.9.29.9.86v2.53c0,.56-.3.85-.89.85H39.59a.74.74,0,0,1-.84-.84V18.6A.75.75,0,0,1,39.59,17.74ZM45,20.85a.37.37,0,0,0,.42-.42V19.29a.37.37,0,0,0-.42-.41H40.29c-.24,0-.37.13-.37.4v1.14c0,.28.13.42.37.42Zm-4.15-8.08h3.66l.73-2.11H40.15Z"/><path class="cls-2" d="M55.3,15.58h4.9c.72,0,1.07.33,1.07,1v6.11a.94.94,0,0,1-1.08,1H55.3c-.71,0-1.07-.34-1.07-1V16.56C54.23,15.9,54.58,15.58,55.3,15.58Zm4.22,7c.31,0,.47-.18.47-.56V17.26c0-.33-.16-.49-.47-.49H56c-.34,0-.51.16-.51.49V22c0,.38.17.56.51.56ZM57.33,8.19h9.55c.8,0,1.21.37,1.21,1.11v3.79a1.07,1.07,0,0,1-1.21,1.22H57.34a1.06,1.06,0,0,1-1.2-1.21V9.3C56.14,8.56,56.54,8.19,57.33,8.19Zm8.84,4.9c.43,0,.64-.23.64-.7V10a.56.56,0,0,0-.64-.63H58a.56.56,0,0,0-.64.63v2.39c0,.47.22.71.64.71Zm-2.09,2.48H69c.7,0,1,.33,1,1v6.12a.93.93,0,0,1-1,1H64.09a.93.93,0,0,1-1.07-1V16.56C63,15.9,63.37,15.57,64.08,15.57Zm4.21,7c.34,0,.51-.19.51-.56V17.26a.44.44,0,0,0-.5-.49h-3.5a.43.43,0,0,0-.49.49V22c0,.37.16.56.49.56Z"/></g></g></svg>