<?xml version="1.0" encoding="UTF-8"?><svg xmlns="http://www.w3.org/2000/svg" viewBox="0 0 138.72 15.72"><defs><style>.d{fill:none;stroke:#fff;stroke-linecap:round;stroke-linejoin:round;}.e{fill:#fff;}</style></defs><g id="a"/><g id="b"><g id="c"><g><polyline class="d" points="133.72 3.36 138.22 7.86 133.72 12.36"/><g><path class="e" d="M16.12,4.25c-.51-.12-1.02,.2-1.13,.71l-1.09,4.76-8.24-.07L3.67,1.71c-.06-.26-.23-.47-.46-.6L1.4,.12C.94-.13,.37,.03,.12,.49-.13,.95,.03,1.52,.49,1.78l1.44,.79L3.96,10.65l-1.09,.86c-.13,.1-.21,.26-.21,.42v1.35c0,.3,.24,.54,.53,.54l1.53,.02c-.21,.2-.35,.48-.35,.79,0,.6,.48,1.08,1.08,1.08s1.08-.48,1.08-1.08c0-.3-.12-.57-.32-.77l7.14,.1c-.15,.18-.24,.41-.24,.67,0,.6,.48,1.08,1.08,1.08s1.08-.48,1.08-1.08c0-.24-.08-.46-.22-.64h.94c.29,.01,.54-.22,.54-.52,0-.3-.23-.54-.53-.55l-12.26-.17v-.56l.9-.71c.08,.03,.17,.04,.26,.04l9.73,.09h0c.44,0,.82-.3,.92-.73l1.26-5.5c.12-.51-.2-1.02-.71-1.13Z"/><path class="e" d="M12.02,4.64h-.88V2.09c0-.31-.25-.56-.57-.56h-1.69c-.31,0-.56,.25-.56,.57v2.55h-.88c-.39,0-.52,.26-.28,.57l.65,.88c.23,.31,.61,.82,.85,1.13l.65,.88c.23,.31,.61,.31,.85,0l.65-.88c.23-.31,.61-.82,.85-1.14l.65-.88c.23-.31,.1-.57-.29-.57Z"/></g><g><path class="e" d="M30.68,.14c.44,0,.66,.22,.66,.66v.93h6.24c.35,0,.53,.17,.53,.53,0,.41-.18,.61-.53,.61h-3.27l-.71,1.99h2.66c.8,0,1.2,.39,1.2,1.18v7.77c0,1.16-.56,1.74-1.67,1.74-.66,0-1.46-.09-2.37-.28-.28-.1-.42-.27-.42-.51,0-.44,.16-.66,.48-.66,.14,0,.32,.02,.53,.05,.71,.14,1.26,.22,1.66,.22s.6-.23,.6-.68V6.58c0-.35-.16-.53-.48-.53h-3.1v1.2c0,.32,.13,.48,.38,.48h2.21c.34,0,.51,.18,.51,.53,0,.34-.17,.51-.51,.51h-2.41c-.89,0-1.33-.44-1.33-1.33v-1.39h-2.08c-.07,.68-.18,1.19-.35,1.54-.22,.5-.56,.89-1.03,1.18-.53,.33-1.19,.53-1.98,.6h-.22c-.33-.01-.5-.23-.51-.66,.02-.29,.17-.46,.45-.53,.59-.04,1.08-.18,1.48-.4,.35-.2,.61-.45,.76-.76,.13-.23,.23-.55,.28-.96h-2.91c-.31,0-.46,.18-.46,.53V14.97c0,.4-.2,.6-.61,.6-.4,0-.6-.2-.6-.6V6.06c0-.79,.42-1.18,1.26-1.18h2.61l-.66-1.99h-3.27c-.35,0-.53-.2-.53-.61,0-.35,.18-.53,.53-.53h6.31V.81c0-.44,.23-.66,.68-.66Zm-2.98,9.43h5.78c.56,0,.85,.27,.85,.81v2.39c0,.53-.28,.8-.85,.8h-5.78c-.53,0-.8-.26-.8-.79v-2.39c0-.54,.26-.81,.8-.81Zm5.11,2.94c.27,0,.4-.13,.4-.4v-1.08c0-.25-.13-.38-.4-.38h-4.45c-.23,0-.35,.13-.35,.38v1.08c0,.27,.12,.4,.35,.4h4.45Zm-3.92-7.64h3.45l.7-1.99h-4.81l.66,1.99Z"/><path class="e" d="M42.53,7.53h4.63c.68,0,1.01,.31,1.01,.93v5.78c0,.65-.34,.98-1.01,.98h-4.63c-.68,0-1.01-.32-1.01-.98v-5.78c0-.62,.33-.93,1.01-.93Zm3.99,6.57c.3,0,.45-.18,.45-.53v-4.45c0-.31-.15-.46-.45-.46h-3.32c-.32,0-.48,.16-.48,.47v4.45c0,.35,.16,.53,.48,.53h3.32ZM44.45,.55h9.01c.76,0,1.15,.34,1.15,1.04v3.59c0,.76-.38,1.15-1.14,1.15h-9.01c-.75,0-1.13-.38-1.13-1.14V1.6c0-.7,.37-1.05,1.13-1.05Zm8.35,4.63c.4,0,.6-.22,.6-.66V2.26c0-.4-.2-.6-.6-.6h-7.69c-.4,0-.6,.2-.6,.6v2.26c0,.44,.2,.66,.6,.66h7.69Zm-1.97,2.34h4.65c.66,0,1,.31,1,.93v5.78c0,.65-.33,.98-.99,.98h-4.65c-.68,0-1.01-.32-1.01-.98v-5.78c0-.62,.33-.93,1.01-.93Zm3.97,6.57c.32,0,.48-.18,.48-.53v-4.45c0-.31-.16-.46-.48-.46h-3.3c-.31,0-.46,.16-.46,.47v4.45c0,.35,.16,.53,.47,.53h3.3Z"/></g></g></g></g></svg>