<?xml version="1.0" encoding="UTF-8"?><svg xmlns="http://www.w3.org/2000/svg" viewBox="0 0 86 32.02"><defs><style>.d{fill:#e9528e;}.e{fill:#fff;}</style></defs><g id="a"/><g id="b"><g id="c"><g><rect class="e" x="0" y=".01" width="86" height="32" rx="16" ry="16"/><g><path class="d" d="M27.66,12.52c-.49-.11-.99,.2-1.1,.69l-1.06,4.62-8-.07-1.93-7.71c-.06-.25-.22-.46-.45-.58l-1.75-.96c-.45-.24-1-.08-1.25,.36-.24,.44-.08,1,.36,1.25l1.4,.77,1.97,7.86-1.06,.84c-.13,.1-.2,.25-.2,.41v1.31c0,.29,.23,.52,.52,.52l1.48,.02c-.21,.19-.34,.46-.34,.77,0,.58,.47,1.05,1.05,1.05s1.05-.47,1.05-1.05c0-.29-.12-.56-.31-.75l6.93,.09c-.14,.18-.23,.4-.23,.65,0,.58,.47,1.05,1.05,1.05s1.05-.47,1.05-1.05c0-.24-.08-.45-.21-.63h.91c.29,.01,.52-.22,.52-.51,0-.29-.23-.53-.52-.53l-11.91-.16v-.54l.87-.69c.08,.02,.17,.04,.26,.04l9.45,.08h0c.43,0,.8-.3,.9-.71l1.22-5.34c.11-.49-.2-.99-.69-1.1Z"/><path class="d" d="M23.68,12.89h-.85v-2.47c0-.3-.25-.55-.55-.55h-1.65c-.3,0-.55,.25-.55,.55v2.47h-.85c-.38,0-.5,.25-.28,.55l.64,.85c.23,.3,.6,.8,.82,1.1l.64,.85c.23,.3,.6,.3,.82,0l.64-.85c.23-.3,.6-.8,.82-1.1l.64-.85c.23-.3,.1-.55-.28-.55Z"/></g><g><path class="d" d="M42.75,7.76c.47,0,.7,.23,.7,.7v.98h6.61c.37,0,.56,.18,.56,.56,0,.43-.19,.65-.56,.65h-3.46l-.75,2.11h2.81c.84,0,1.27,.41,1.27,1.25v8.22c0,1.23-.59,1.85-1.77,1.85-.7,0-1.54-.1-2.51-.3-.29-.1-.44-.29-.44-.54,0-.47,.17-.7,.51-.7,.15,0,.34,.02,.56,.05,.75,.15,1.34,.23,1.76,.23,.42,0,.63-.24,.63-.72v-7.52c0-.38-.17-.56-.51-.56h-3.29v1.27c0,.34,.14,.51,.4,.51h2.34c.36,0,.54,.19,.55,.56,0,.36-.18,.55-.54,.55h-2.55c-.94,0-1.41-.47-1.41-1.4v-1.48h-2.2c-.07,.72-.19,1.26-.37,1.64-.23,.53-.6,.94-1.09,1.25-.56,.35-1.26,.56-2.09,.63h-.23c-.35-.01-.53-.25-.55-.7,.02-.3,.18-.49,.47-.56,.62-.05,1.14-.19,1.56-.42,.37-.21,.64-.48,.81-.81,.14-.25,.24-.59,.3-1.02h-3.08c-.33,0-.49,.19-.49,.56v8.87c0,.42-.21,.63-.65,.63s-.63-.21-.63-.63V14.02c0-.83,.44-1.25,1.33-1.25h2.76l-.7-2.11h-3.46c-.38,0-.56-.22-.56-.65,0-.38,.19-.56,.56-.56h6.68v-.99c0-.47,.24-.7,.72-.7Zm-3.16,9.98h6.12c.6,0,.9,.28,.9,.86v2.53c0,.56-.3,.84-.89,.84h-6.12c-.56,0-.84-.28-.84-.84v-2.53c0-.57,.28-.86,.84-.86Zm5.41,3.11c.28,0,.42-.14,.42-.42v-1.14c0-.27-.14-.4-.42-.4h-4.71c-.25,0-.37,.14-.37,.41v1.14c0,.28,.12,.42,.37,.42h4.71Zm-4.15-8.08h3.66l.74-2.11h-5.1l.7,2.11Z"/><path class="d" d="M55.3,15.57h4.9c.71,0,1.07,.33,1.07,.98v6.12c0,.69-.35,1.04-1.07,1.04h-4.9c-.71,0-1.07-.34-1.07-1.03v-6.12c0-.66,.35-.98,1.07-.98Zm4.22,6.96c.32,0,.47-.19,.47-.56v-4.71c0-.33-.16-.49-.48-.49h-3.51c-.34,0-.51,.17-.51,.49v4.71c0,.37,.17,.56,.51,.56h3.51Zm-2.18-14.34h9.54c.81,0,1.21,.37,1.21,1.1v3.8c0,.81-.4,1.21-1.21,1.21h-9.54c-.8,0-1.2-.4-1.2-1.21v-3.8c0-.74,.4-1.11,1.19-1.11Zm8.84,4.9c.42,0,.63-.23,.63-.7v-2.39c0-.42-.21-.63-.63-.63h-8.14c-.42,0-.63,.21-.63,.64v2.39c0,.47,.21,.7,.63,.7h8.14Zm-2.09,2.48h4.92c.7,0,1.05,.33,1.05,.98v6.12c0,.69-.35,1.04-1.05,1.04h-4.92c-.71,0-1.07-.34-1.07-1.03v-6.12c0-.66,.35-.98,1.07-.98Zm4.2,6.96c.34,0,.51-.19,.51-.56v-4.71c0-.33-.17-.49-.51-.49h-3.5c-.33,0-.49,.17-.49,.49v4.71c0,.37,.17,.56,.49,.56h3.5Z"/></g></g></g></g></svg>