<?xml version="1.0" encoding="UTF-8"?>
<svg id="Layer_2" data-name="Layer 2" xmlns="http://www.w3.org/2000/svg" width="15.49" height="18.03" viewBox="0 0 15.49 18.03">
  <defs>
    <style>
      .cls-1 {
        fill: none;
      }

      .cls-2 {
        fill: #fff;
      }
    </style>
  </defs>
  <g id="_圖層_1" data-name="圖層 1">
    <g>
      <path class="cls-1" d="M3.11,4.28l-.14-1.78c-.5-.11-1.28-.14-1.55.15-.21.22-.2.72.03,1.4.31.93,1.2,1.46,2.06,1.75-.21-.47-.35-.98-.4-1.53Z"/>
      <path class="cls-1" d="M12.52,2.55l-.16,1.78c-.05.54-.19,1.05-.41,1.52.86-.29,1.76-.8,2.08-1.73.23-.68.25-1.18.04-1.4-.27-.29-1.05-.27-1.55-.17Z"/>
      <path class="cls-2" d="M15.01,1.85c-.65-.7-1.72-.69-2.36-.61l.11-1.19-9.98-.05.1,1.19c-.64-.09-1.71-.11-2.37.59C-.06,2.37-.15,3.27.24,4.45c.7,2.14,3.2,2.75,4.43,2.93.82.72,1.89,1.16,3.05,1.17s2.24-.43,3.06-1.14c1.22-.16,3.73-.76,4.45-2.89.4-1.18.32-2.08-.23-2.67ZM1.45,4.06c-.23-.69-.24-1.18-.03-1.4.27-.29,1.06-.26,1.55-.15l.14,1.78c.04.54.18,1.06.4,1.53-.86-.3-1.76-.82-2.06-1.75ZM9.49,6.57h-3.14s0-.76,0-.76h1.11s.02-3.27.02-3.27l-1.04.62v-.82s1.42-.85,1.42-.85h.54s-.02,4.34-.02,4.34h1.11s0,.76,0,.76ZM14.03,4.12c-.31.93-1.21,1.44-2.08,1.73.22-.47.36-.98.41-1.52l.16-1.78c.5-.11,1.28-.13,1.55.17.2.22.19.72-.04,1.4Z"/>
      <path class="cls-2" d="M7.72,9.11c-.32,0-.63-.02-.93-.05l-.02,3.81h1.86s.02-3.8.02-3.8c-.3.03-.61.05-.93.05Z"/>
      <path class="cls-2" d="M10.55,13.48l-5.91-.03c-.32,0-.6.23-.66.54l-.74,3.99,8.67.04-.71-4c-.06-.32-.33-.55-.65-.55Z"/>
    </g>
  </g>
</svg>