<?xml version="1.0" encoding="UTF-8"?>
<svg id="Layer_1" xmlns="http://www.w3.org/2000/svg" version="1.1" viewBox="0 0 138.7 19.6">
  <!-- Generator: Adobe Illustrator 29.1.0, SVG Export Plug-In . SVG Version: 2.1.0 Build 142)  -->
  <defs>
    <style>
      .st0 {
        fill: #fff;
      }

      .st1 {
        fill: none;
        stroke: #fff;
        stroke-linecap: round;
        stroke-linejoin: round;
      }
    </style>
  </defs>
  <g id="b">
    <g id="c">
      <g>
        <polyline class="st1" points="133.7 5.3 138.2 9.8 133.7 14.3"/>
        <g>
          <path class="st0" d="M27.8,4.8c.4,0,.6.2.6.6,0,.4-.2.6-.6.6h-1.3v.6l1.7,3c.1.2.2.4.2.5,0,.4-.2.6-.6.6s-.3-.1-.4-.3l-.9-2v8.4c0,.4-.2.6-.6.6s-.6-.2-.6-.6v-7.9c0,0,0,.1,0,.2-.2,1.1-.5,2-.7,2.6-.2.9-.4,1.5-.6,1.9-.1.2-.3.4-.5.4-.4,0-.6-.2-.6-.5s0-.3.1-.5c.7-1.6,1.2-3,1.4-4.1.2-.8.4-1.7.6-2.8h-1.6c-.4,0-.6-.2-.6-.6,0-.4.2-.6.6-.6h1.9v-2.3c0-.4.2-.6.6-.6s.6.2.6.6v2.3h1.3ZM33.2,7.8c.4,0,.7.2.7.6v1.2h4c.4,0,.5.2.5.5s-.2.5-.5.5h-6.4s0,0,0,0c0,.4,0,.8,0,1.2h5c.8,0,1.1.5,1.1,1.3s0,1.8-.2,2.6c-.2.7-.4,1.1-.9,1.3-.5.2-1.1.3-2,.3s-2-.2-3.1-.5c-.2-.1-.4-.3-.4-.5,0-.5.2-.7.6-.7,1.2.4,2.1.6,2.8.6s1,0,1.2-.2c.3-.1.4-.4.5-.8,0-.4.1-1,.1-1.6s-.2-.7-.5-.7h-4.6c0,.3-.1.5-.2.8-.4,1.2-1.2,2.3-2.4,3.3-.1.2-.3.3-.5.3-.4,0-.7-.2-.7-.7s0-.2.1-.4c1.1-.9,1.8-1.8,2.2-2.9.3-.9.4-1.8.4-2.7h-1.3c-.4,0-.5-.2-.5-.5s.2-.5.5-.5h3.5s0-1.2,0-1.2c0-.4.2-.6.6-.6h0ZM33.3,1.9c.4,0,.7.2.7.6v.7h4.4c.3,0,.5.2.5.5s-.2.6-.5.6h-1.9l-.6,1.8h1.3c.4,0,.8.2,1,.5.2.2.3.6.3,1.1s0,.7-.1,1.1c0,.3-.3.4-.7.4s-.6-.2-.6-.6c.1-.5.2-.8.2-.9,0-.3-.2-.5-.5-.5h-6.8c-.3,0-.4.1-.4.4v1.2c0,.3-.2.5-.6.5s-.5-.2-.5-.5v-1.7c0-.6.3-.9.9-.9h1.3l-.4-1.8h-1.7c-.4,0-.5-.2-.5-.6s.2-.5.5-.5h4.2s0-.7,0-.7c0-.4.2-.6.6-.6h0ZM31.8,6.1h2.8l.6-1.8h-3.8s.4,1.8.4,1.8Z"/>
          <path class="st0" d="M43.4,6.7h11.3c.8,0,1.1.4,1.1,1.1v3.7c0,.8-.4,1.1-1.2,1.1h-5.1s0,1.2,0,1.2h6.6c.4,0,.6.2.6.6,0,.4-.2.6-.6.6h-6.6s0,2,0,2c0,.4-.2.6-.6.6s-.6-.2-.6-.6v-2h-6.4c-.4,0-.6-.2-.6-.6s.2-.6.6-.6h6.4s0-1.2,0-1.2h-5c-.8,0-1.1-.4-1.1-1.2v-3.7c0-.7.4-1,1.2-1h0ZM43.1,2.4h4.1c.8,0,1.1.4,1.1,1.1v1.3c0,.7-.4,1-1.2,1h-4.1c-.8,0-1.1-.4-1.1-1.1v-1.3c0-.7.4-1.1,1.1-1.1ZM46.8,4.8c.2,0,.3-.1.3-.4v-.5c0-.3,0-.4-.3-.4h-3.3c-.2,0-.3.1-.3.4v.5c0,.3,0,.4.3.4h3.3s0,0,0,0ZM48.3,11.4v-1.3h-4.9s0,.9,0,.9c0,.2.1.4.3.4,0,0,4.6,0,4.6,0ZM43.4,9.1h4.9s0-1.3,0-1.3h-4.6c-.2,0-.3,0-.3.3,0,0,0,.9,0,.9ZM54.2,11.4c.2,0,.3-.1.3-.4v-.9h-5s0,1.3,0,1.3c0,0,4.7,0,4.7,0ZM49.5,7.8v1.3h5s0-.9,0-.9c0-.2-.1-.3-.3-.3h-4.7ZM50.8,2.4h4.2c.7,0,1.1.4,1.1,1v1.4c0,.7-.4,1-1.1,1h-4.2c-.7,0-1.1-.3-1.1-1v-1.4c0-.7.4-1,1.1-1h0ZM54.5,4.8c.2,0,.3-.1.3-.4v-.5c0-.3,0-.4-.3-.4h-3.3c-.2,0-.3.1-.3.4v.5c0,.3,0,.4.3.4h3.3s0,0,0,0Z"/>
        </g>
        <g>
          <path class="st0" d="M8.4,9.9c-.3,0-.7,0-1,0v4.2s2,0,2,0v-4.1c-.3,0-.6,0-1,0Z"/>
          <path class="st0" d="M11.5,14.7h-6.4c-.3,0-.7.2-.7.6l-.8,4.3h9.4s-.8-4.3-.8-4.3c0-.4-.4-.6-.7-.6h0Z"/>
          <path class="st0" d="M16.3,2h0c-.7-.8-1.9-.8-2.6-.7V0C13.9,0,3,0,3,0v1.3c-.6-.1-1.8-.1-2.5.6C0,2.6-.2,3.6.3,4.8c.8,2.3,3.5,3,4.8,3.2.9.8,2,1.3,3.3,1.3s2.4-.5,3.3-1.2c1.3-.2,4.1-.8,4.9-3.1.4-1.3.3-2.3-.2-2.9ZM3.8,6.3c-.9-.3-1.9-.9-2.2-1.9-.2-.8-.3-1.3,0-1.5.3-.3,1.2-.3,1.7-.2l.2,1.9c0,.6.2,1.2.4,1.7,0,0,0,0,0,0,0,0,0,0,0,0ZM10.3,6.3v.8h0s0,0,0,0h0s-3.4,0-3.4,0v-.8h1.2v-3.6s-1.1.7-1.1.7h0v-.9l1.5-.9h.6,0s0,0,0,0v4.7s1.2,0,1.2,0h0ZM15.3,4.5c-.3,1-1.3,1.6-2.3,1.9,0,0,0,0,0,0,0,0,0,0,0,0,.2-.5.4-1.1.5-1.7l.2-1.9c.3,0,.6,0,.9,0,.3,0,.6,0,.8.3.2.2.2.8,0,1.5Z"/>
        </g>
      </g>
    </g>
  </g>
</svg>