<?xml version="1.0" encoding="UTF-8"?><svg xmlns="http://www.w3.org/2000/svg" viewBox="0 0 138.72 19.62"><defs><style>.d{fill:none;stroke:#fff;stroke-linecap:round;stroke-linejoin:round;}.e{fill:#e9528e;}.f{fill:#fff;}</style></defs><g id="a"/><g id="b"><g id="c"><g><polyline class="d" points="133.72 5.31 138.22 9.81 133.72 14.31"/><g><path class="f" d="M27.82,4.82c.4,0,.6,.21,.59,.62,0,.4-.2,.6-.6,.59h-1.34v.64l1.69,2.98c.11,.19,.16,.35,.16,.5,0,.39-.2,.58-.6,.58-.17,0-.3-.11-.4-.32l-.87-1.98-.04,8.42c0,.4-.2,.6-.6,.59s-.6-.2-.59-.6l.04-7.94c-.01,.07-.02,.13-.03,.2-.25,1.09-.47,1.96-.68,2.59-.24,.88-.44,1.51-.62,1.87-.15,.23-.32,.35-.53,.35-.4,0-.6-.18-.6-.53,0-.14,.04-.3,.12-.48,.68-1.63,1.16-2.99,1.43-4.08,.24-.8,.44-1.73,.61-2.8h-1.59c-.4,0-.6-.21-.59-.61,0-.41,.2-.61,.6-.61h1.91V2.5c.01-.4,.21-.6,.61-.59s.6,.2,.59,.6v2.31h1.33Zm5.43,2.95c.44,0,.66,.21,.66,.62v1.2l4.03,.02c.37,0,.55,.17,.55,.52,0,.35-.19,.53-.55,.53l-6.38-.03v.07c0,.41-.02,.81-.06,1.21l5.03,.02c.76,0,1.14,.43,1.14,1.27,0,.94-.07,1.79-.21,2.56-.15,.7-.44,1.14-.87,1.34-.47,.23-1.13,.34-1.99,.34-.93,0-1.95-.16-3.07-.48-.25-.13-.38-.32-.38-.55,0-.49,.2-.73,.6-.73,1.2,.37,2.13,.56,2.79,.56,.6,0,1.01-.07,1.25-.21,.27-.15,.44-.42,.53-.79,.09-.44,.14-.97,.14-1.59,0-.44-.17-.66-.53-.67l-4.6-.02c-.06,.29-.12,.57-.2,.85-.44,1.22-1.23,2.3-2.39,3.26-.14,.19-.32,.28-.52,.28-.44,0-.66-.22-.66-.67,0-.04,.04-.18,.13-.4,1.08-.86,1.83-1.83,2.25-2.91,.28-.85,.42-1.76,.43-2.74h-1.26c-.37,0-.55-.19-.55-.54,0-.34,.18-.51,.55-.51l3.52,.02v-1.2c0-.41,.21-.61,.61-.61Zm.03-5.89c.44,0,.66,.2,.66,.6v.73l4.38,.02c.35,0,.53,.17,.53,.52,0,.4-.18,.6-.53,.6h-1.93l-.61,1.8h1.26c.44,0,.77,.16,.98,.46,.19,.23,.28,.59,.28,1.08,0,.33-.05,.71-.14,1.13-.1,.3-.32,.45-.67,.45-.4,0-.6-.2-.59-.6,.14-.49,.2-.8,.2-.93,0-.35-.16-.53-.48-.53l-6.76-.03c-.28,0-.42,.14-.42,.41v1.2c0,.34-.21,.51-.61,.51-.34,0-.51-.17-.51-.52v-1.74c.01-.61,.32-.91,.94-.91h1.33l-.39-1.81h-1.73c-.37,0-.55-.21-.55-.61,0-.34,.19-.51,.55-.51l4.18,.02v-.73c0-.4,.21-.6,.6-.59Zm-1.46,4.24h2.79l.59-1.79-3.79-.02,.41,1.81Z"/><path class="f" d="M43.38,6.7l11.29,.05c.75,0,1.13,.35,1.12,1.05l-.02,3.65c0,.76-.38,1.14-1.13,1.14l-5.11-.02v1.2l6.64,.03c.4,0,.6,.2,.59,.58,0,.4-.2,.6-.6,.59l-6.64-.03v2.01c-.01,.4-.21,.6-.61,.59s-.6-.2-.59-.6v-2.01l-6.43-.03c-.41,0-.61-.2-.61-.6,0-.39,.21-.58,.62-.58l6.44,.03v-1.2l-4.97-.02c-.76,0-1.14-.39-1.14-1.15l.02-3.65c0-.7,.39-1.04,1.15-1.04Zm-.31-4.33l4.1,.02c.76,0,1.14,.37,1.14,1.08v1.33c0,.7-.39,1.04-1.16,1.04l-4.1-.02c-.75,0-1.13-.35-1.12-1.05v-1.33c0-.72,.39-1.08,1.14-1.07Zm3.71,2.42c.21,0,.32-.14,.32-.41v-.51c0-.27-.1-.4-.31-.4l-3.34-.02c-.21,0-.32,.13-.32,.4v.51c0,.28,.1,.42,.31,.42l3.34,.02Zm1.56,6.63v-1.33l-4.92-.02v.95c0,.25,.11,.38,.34,.38l4.58,.02Zm-4.92-2.33l4.93,.02v-1.28l-4.58-.02c-.23,0-.35,.11-.35,.35v.93Zm10.81,2.36c.23,0,.35-.13,.35-.38v-.95l-5.04-.02v1.33l4.69,.02Zm-4.68-3.61v1.28l5.04,.02v-.93c0-.23-.11-.35-.34-.35l-4.7-.02Zm1.29-5.44l4.17,.02c.72,0,1.08,.34,1.07,1.02v1.39c0,.65-.37,.98-1.09,.97l-4.17-.02c-.71,0-1.06-.33-1.06-.98v-1.39c0-.67,.37-1.01,1.07-1.01Zm3.71,2.36c.21,0,.32-.14,.32-.41v-.45c0-.27-.1-.4-.31-.4l-3.27-.02c-.21,0-.32,.13-.32,.4v.45c0,.28,.1,.42,.31,.42l3.27,.02Z"/></g><g><path class="e" d="M3.39,4.66l-.16-1.93c-.54-.12-1.39-.15-1.69,.16-.22,.24-.21,.78,.03,1.53,.33,1.01,1.31,1.58,2.24,1.9-.23-.51-.38-1.07-.43-1.66Z"/><path class="e" d="M13.63,2.77l-.17,1.93c-.05,.59-.21,1.15-.45,1.66,.94-.31,1.92-.88,2.26-1.88,.25-.74,.27-1.29,.05-1.53-.3-.32-1.15-.3-1.69-.18Z"/><path class="f" d="M16.33,2.01c-.71-.76-1.87-.75-2.57-.66l.12-1.3-10.86-.05,.1,1.3c-.7-.1-1.87-.12-2.58,.64C-.07,2.58-.16,3.56,.26,4.85c.76,2.33,3.49,3,4.82,3.19,.89,.79,2.05,1.27,3.32,1.27,1.27,0,2.44-.46,3.33-1.24,1.33-.18,4.06-.82,4.85-3.14,.43-1.28,.35-2.26-.25-2.91ZM1.57,4.42c-.24-.75-.26-1.29-.03-1.53,.3-.32,1.15-.29,1.69-.16l.16,1.93c.05,.59,.2,1.15,.43,1.66-.94-.32-1.91-.89-2.24-1.9Zm8.75,2.73l-3.41-.02v-.82h1.22l.02-3.56-1.13,.67v-.89l1.55-.93h.58l-.02,4.72h1.2v.82Zm4.94-2.67c-.34,1.01-1.32,1.57-2.26,1.88,.24-.51,.39-1.07,.45-1.66l.17-1.93c.54-.12,1.39-.14,1.69,.18,.22,.24,.21,.78-.05,1.53Z"/><path class="f" d="M8.4,9.91c-.34,0-.68-.02-1.01-.06l-.02,4.15h2.02l.02-4.14c-.33,.03-.67,.05-1.01,.05Z"/><path class="f" d="M11.48,14.67l-6.43-.03c-.35,0-.65,.25-.72,.59l-.81,4.34,9.44,.04-.77-4.35c-.06-.35-.36-.6-.71-.6Z"/><polygon class="e" points="9.15 1.61 8.56 1.61 7.02 2.53 7.02 3.43 8.15 2.75 8.13 6.32 6.92 6.32 6.91 7.13 10.33 7.15 10.33 6.33 9.13 6.33 9.15 1.61"/></g></g></g></g></svg>