<?xml version="1.0" encoding="UTF-8"?><svg xmlns="http://www.w3.org/2000/svg" viewBox="0 0 86 32.02"><defs><style>.d{fill:#e9528e;}.e{fill:#fff;}</style></defs><g id="a"/><g id="b"><g id="c"><g><rect class="e" x="0" y=".01" width="86" height="32" rx="16" ry="16"/><g><g><path class="d" d="M20.19,6.31h-.01c-.47,.05-1.68,.38-3.2,.96-1.52,.59-3.02,.8-4.27,1.13-1.24,.32-1.01,1.81-1.01,1.81,0,0,.47,6.01,.66,7,.91,4.73,7.73,8.53,7.73,8.53h0s6.95-3.69,7.89-8.51c.2-1.01,.68-7.16,.68-7.16,0,0,.24-1.53-1.06-1.83-1.3-.3-2.83-.48-4.39-1.04-1.53-.55-2.56-.85-3.02-.88h-.01Zm2.46,2.21c1.19,.43,2.35,.65,3.37,.85,0,0,.92,.22,1.08,.26,0,0,.04,0,.03,.25,0,.04,0,.05-.01,.09-.18,2.35-.53,6.32-.66,7-.4,2.07-2.28,3.99-3.77,5.23-.99,.82-1.96,1.46-2.6,1.86-.63-.4-1.56-1.04-2.54-1.86-1.49-1.26-3.33-3.18-3.73-5.23-.13-.67-.46-4.57-.64-6.87,0-.04,0-.05,0-.09,0-.09,0-.2,.02-.28,.33-.08,.68-.16,1.05-.24,.99-.21,2.12-.46,3.29-.91,1.32-.51,2.26-.76,2.64-.84,.25,.05,.9,.22,2.47,.78Z"/><path class="d" d="M20.16,9.15h0c-.3,.03-1.1,.26-2.09,.66-1,.4-1.98,.55-2.8,.77-.81,.22-.66,1.25-.66,1.25,0,0,.31,4.17,.43,4.86,.59,3.28,5.07,5.9,5.07,5.9h0s4.53-2.57,5.14-5.9c.13-.7,.44-4.94,.44-4.94,0,0,.15-1.05-.69-1.26-.84-.21-1.84-.34-2.86-.73-1-.38-1.67-.59-1.97-.62h0Z"/></g><path class="e" d="M20.15,19.19c-.12-.14-.18-.31-.18-.51v-5.35c-.32,.33-.66,.6-1.04,.82-.36,.2-.63,.31-.83,.31-.14,0-.27-.05-.39-.15-.11-.11-.17-.25-.17-.42,0-.28,.2-.51,.6-.7,.7-.35,1.28-.85,1.71-1.51,.18-.26,.31-.43,.4-.52,.15-.14,.31-.22,.48-.22,.46,0,.69,.32,.69,.95v6.79c0,.2-.05,.37-.17,.51-.13,.17-.31,.25-.56,.25s-.42-.08-.56-.25Z"/></g><g><path class="d" d="M38.51,7.64c.47,0,.7,.23,.7,.7v.49h2.11c.39,0,.58,.18,.58,.54,0,.39-.19,.58-.58,.58h-.33l-.49,2.11h1.19c.42,0,.63,.21,.63,.63,0,.42-.21,.63-.63,.63h-6.54c-.43,0-.65-.21-.65-.63,0-.42,.22-.63,.65-.63h1.39l-.49-2.11h-.56c-.36,0-.54-.19-.55-.58,0-.36,.18-.54,.54-.54h2.34v-.49c0-.47,.23-.7,.68-.7Zm-2.46,6.75h4.57c.71,0,1.07,.32,1.07,.96v2.39c0,.67-.36,1-1.07,1h-.63v3.08c.48-.09,.9-.21,1.27-.35,.12-.05,.21-.07,.28-.07,.36,.02,.55,.19,.56,.51,0,.26-.13,.47-.4,.63-.4,.19-.92,.36-1.56,.53-.49,.14-1.1,.27-1.83,.39-.35-.03-.54-.27-.56-.7,0-.38,.16-.59,.49-.65,.25-.02,.46-.05,.65-.07v-3.29h-1.06c0,.86-.11,1.67-.33,2.44-.33,.97-.92,1.84-1.77,2.6-.15,.2-.32,.3-.51,.3-.47,0-.7-.23-.7-.7,0-.05,.05-.17,.14-.37,.84-.66,1.42-1.41,1.74-2.25,.2-.63,.3-1.31,.32-2.02h-.65c-.69,0-1.04-.33-1.04-1v-2.39c0-.64,.34-.97,1.04-.97Zm3.94,3.21c.29,0,.44-.16,.44-.47v-1.12c0-.34-.15-.51-.44-.51h-3.29c-.29,0-.44,.17-.44,.51v1.12c0,.32,.15,.47,.44,.47h3.29Zm-2.25-5.54h1.58l.47-2.11h-2.55l.49,2.11Zm9.25,6.67h-1.23s.02,.05,.02,.07c0,.87-.14,1.68-.42,2.44-.43,.97-1.21,1.85-2.34,2.62-.16,.19-.35,.28-.54,.28-.47,0-.7-.23-.7-.7,0-.05,.05-.19,.14-.44,1.05-.64,1.78-1.38,2.18-2.2,.27-.66,.4-1.35,.4-2.07h-.33c-.7,0-1.05-.33-1.05-1v-2.39c0-.64,.35-.97,1.05-.97h5.06c.7,0,1.05,.32,1.05,.96v2.39c0,.67-.35,1-1.05,1h-1.09c.01,.06,.02,.13,.02,.21v2.88c0,.28,.04,.48,.12,.6,.11,.12,.32,.18,.65,.18s.54-.05,.6-.16c.07-.13,.11-.28,.11-.44v-1.02c.02-.44,.22-.68,.58-.7,.4,.02,.61,.3,.63,.84,0,1.07-.05,1.69-.14,1.88-.06,.22-.2,.4-.44,.53-.21,.12-.66,.18-1.34,.18-.82,0-1.36-.12-1.62-.37-.22-.23-.33-.67-.33-1.3v-3.09c0-.08,0-.15,.02-.21Zm-.32-11.11c.47,0,.7,.23,.7,.7v.49h2.62c.36,0,.54,.18,.55,.54,0,.39-.18,.58-.54,.58h-.84l-.54,2.11h1.39c.42,0,.63,.21,.63,.63,0,.42-.21,.63-.63,.63h-6.75c-.42,0-.63-.21-.63-.63,0-.42,.21-.63,.63-.63h1.41l-.51-2.11h-.69c-.39,0-.58-.19-.58-.58,0-.36,.19-.54,.58-.54h2.51v-.49c0-.47,.23-.7,.7-.7Zm1.92,9.96c.27,0,.4-.16,.4-.47v-1.12c0-.34-.14-.51-.4-.51h-3.8c-.29,0-.44,.17-.44,.51v1.12c0,.32,.15,.47,.44,.47h3.8Zm-2.76-5.54h1.58l.53-2.11h-2.58l.48,2.11Z"/><path class="d" d="M62.11,7.42c.47,0,.7,.23,.7,.7v.33h6.12c.48,0,.85,.16,1.11,.49,.2,.25,.3,.62,.3,1.12,0,.35-.05,.76-.14,1.21-.11,.32-.36,.47-.77,.47-.42,0-.63-.2-.63-.61,.14-.53,.21-.86,.21-1,0-.42-.19-.63-.58-.63h-3.09v.86h2.83c.28,0,.42,.13,.42,.4,0,.29-.14,.44-.42,.44h-2.83v.77h2.39c.25,0,.37,.11,.37,.33,0,.29-.12,.44-.37,.44h-2.39v.7h4.24c.27,0,.4,.13,.4,.4,0,.34-.13,.51-.4,.51h-3.3c.13,.08,.26,.16,.4,.23,.47,.2,.97,.35,1.49,.46,.53,.09,1.07,.16,1.62,.21,.5,.09,.76,.33,.76,.72,0,.42-.23,.63-.7,.63-.66-.09-1.26-.22-1.81-.37v4.5c0,.62-.36,.93-1.07,.93h-1.21c1.31,.52,2.61,.91,3.9,1.18,.28,.14,.42,.33,.42,.58,0,.47-.23,.7-.7,.7-.22,0-1.02-.22-2.39-.65-.74-.23-1.44-.51-2.11-.83-.2-.22-.3-.42-.3-.58,0-.18,.04-.31,.12-.4h-5.04c.09,.08,.15,.2,.16,.35,0,.27-.15,.48-.44,.63-.53,.29-1.22,.56-2.07,.81-.67,.22-1.48,.42-2.43,.6-.35-.02-.53-.26-.55-.7,0-.36,.16-.57,.47-.63,.86-.12,1.52-.25,2-.39,.76-.21,1.43-.43,2-.67h-1.18c-.7,0-1.05-.31-1.05-.93v-4.41c0-.09,0-.17,.02-.23-.61,.19-1.21,.33-1.79,.44-.16,.05-.3,.07-.4,.07-.16,0-.3-.06-.4-.19-.11-.14-.16-.29-.16-.44,0-.32,.13-.51,.4-.58,.88-.12,1.72-.28,2.53-.49,.49-.15,.91-.32,1.25-.51,.02-.01,.04-.02,.05-.04h-3.41c-.28,0-.42-.17-.42-.51,0-.27,.14-.4,.42-.4h4.38v-.7h-2.46c-.25,0-.37-.15-.37-.44,0-.22,.12-.33,.37-.33h2.46v-.77h-2.95c-.29,0-.44-.15-.44-.44,0-.27,.15-.4,.44-.4h2.95v-.86h-3.16c-.29,0-.44,.15-.44,.44v1.2c0,.41-.21,.61-.63,.61s-.63-.2-.63-.61v-1.71c0-.66,.33-.98,1-.98h6.26v-.34c0-.47,.23-.7,.7-.7Zm-4.3,9.98h8.93v-.64c0-.23-.06-.35-.19-.35h-8.51c-.15,0-.23,.12-.23,.35v.63Zm0,1.55h8.93v-.92h-8.93v.92Zm8.74,1.81c.13,0,.19-.13,.19-.4v-.7h-8.93v.71c0,.27,.08,.4,.23,.4h8.51Zm-8.35-5.27h7.86c-.18-.1-.33-.2-.47-.32-.32-.21-.58-.47-.79-.79h-5.27c-.22,.31-.46,.55-.72,.74-.19,.13-.39,.25-.6,.37Zm5.96-5.12v-.86h-3.95v.86h3.95Zm0,1.62v-.77h-3.95v.77h3.95Zm-3.95,1.48h3.95v-.7h-3.95v.7Z"/></g></g></g></g></svg>