<?xml version="1.0" encoding="UTF-8"?>
<svg id="Layer_1" xmlns="http://www.w3.org/2000/svg" version="1.1" viewBox="0 0 138.5 15.7">
  <!-- Generator: Adobe Illustrator 29.1.0, SVG Export Plug-In . SVG Version: 2.1.0 Build 142)  -->
  <defs>
    <style>
      .st0 {
        fill: #fff;
      }

      .st1 {
        fill: none;
        stroke: #fff;
        stroke-linecap: round;
        stroke-linejoin: round;
      }
    </style>
  </defs>
  <g id="b">
    <g id="c">
      <g>
        <polyline class="st1" points="133.5 3.4 138 7.9 133.5 12.4"/>
        <g>
          <path class="st0" d="M25.6,0c.2,0,.3,0,.5.1.1.1.2.3.2.5s0,.2,0,.3c-.2,1.3-.5,2.4-.9,3.3v10.7c0,.4-.2.6-.6.6-.4,0-.6-.2-.6-.6v-7.9c-.1.3-.3.6-.4.8-.2.2-.3.2-.4.2-.4,0-.7-.2-.7-.5s0-.3.1-.4c.5-.9,1-1.8,1.4-2.9.4-1.1.8-2.4,1-3.9C25.2.1,25.4,0,25.6,0ZM30.3,2.7c.4,0,.5.2.5.5s-.2.6-.5.6h-3.6c-.4,0-.5-.2-.5-.6s.2-.5.5-.5h3.6s0,0,0,0ZM30.2,5c.3,0,.5.2.5.5s-.2.5-.5.5h-3.4c-.4,0-.5-.2-.5-.5s.2-.5.5-.5h3.4s0,0,0,0ZM30.1,7.1c.3,0,.5.2.5.5s-.2.5-.5.5h-3.3c-.4,0-.5-.2-.5-.5s.2-.5.5-.5h3.3s0,0,0,0ZM27.3,9.2h2.4c.6,0,1,.3,1,.9v4.1c0,.6-.4.9-1,.9h-2.4c-.6,0-.9-.3-.9-.9v-4.1c0-.6.3-.9,1-.9h0ZM30,.5c.4,0,.5.2.5.5s-.2.5-.5.5h-2.6c-.4,0-.5-.2-.5-.5s.2-.5.5-.5h2.6ZM29.1,14.2c.3,0,.4-.1.4-.4v-3c0-.3-.1-.4-.4-.4h-1.3c-.2,0-.3.1-.3.4v3c0,.3,0,.4.3.4h1.3ZM35.9,1.7c.1,0,.2,0,.3,0,.1-.3.2-.6.3-.9,0-.2.2-.3.5-.3s.3,0,.4.1c.1,0,.2.2.2.3,0,0,0,.2,0,.4-.4,1.3-.9,2.4-1.5,3.3h1.5c.3,0,.5.2.5.5s-.2.6-.5.6h-2.2c-.4.6-.9,1.2-1.5,1.8,0,.1-.2.2-.3.3h2.7c.7,0,1,.3,1,.9v5.7c0,.6-.4.9-1,.9h-3.5c-.6,0-.9-.3-.9-.9v-5.2c0,0-.2.1-.3.2-.1,0-.3.1-.4.1s-.3,0-.4-.2c-.1-.1-.2-.3-.2-.4s0-.3.2-.4c.9-.6,1.6-1.2,2.3-1.8.3-.3.6-.7.9-1h-2.4c-.4,0-.5-.2-.5-.6s.2-.5.5-.5h1.9v-1.8h-1.6c-.4,0-.5-.2-.5-.5s.2-.5.5-.5h1.6V.6c0-.3.2-.5.6-.5s.6.2.6.5v1.1s1.3,0,1.3,0ZM35.8,14.3c.2,0,.4-.1.4-.4v-1.8h-3.2v1.8c0,.3,0,.4.3.4h2.5ZM33,10.9h3.2v-1.6c0-.3-.1-.4-.4-.4h-2.5c-.2,0-.3.1-.3.4v1.6h0ZM34.8,4.6c.1-.2.2-.4.4-.6.2-.4.5-.8.7-1.3h-1.2v1.8h.1Z"/>
          <path class="st0" d="M44.2.2c.2,0,.3,0,.4.2.1.1.2.3.2.5s0,.2,0,.3c-.2,1.2-.6,2.3-1,3.3v10.6c0,.4-.2.6-.6.6-.4,0-.6-.2-.6-.6V7c-.1.3-.3.7-.5,1-.2.2-.4.3-.5.3-.4,0-.7-.2-.7-.6s0-.2.1-.3c.6-.9,1.1-1.8,1.5-2.9.5-1.1.9-2.4,1.2-3.9,0-.3.2-.4.5-.4ZM55.5,1.8c.4,0,.5.2.5.5s-.2.6-.5.6h-4.4s0,1.2,0,1.2h2.8c.8,0,1.1.4,1.1,1.1v8.9s.8,0,.8,0c.3,0,.5.2.5.5s-.2.6-.5.6h-10.9c-.3,0-.5-.2-.5-.7s.2-.5.5-.5h.8V5.2c0-.7.4-1,1.2-1h2.9v-1.2h-4.1c-.3,0-.5-.2-.5-.6s.2-.5.5-.5h4.1s0-1,0-1c0-.4.2-.6.6-.6s.7.2.7.6v1.1h4.4s0,0,0,0ZM47,14.1h6.8s0-1.5,0-1.5h-6.8s0,1.5,0,1.5ZM47,11.5h6.8s0-1.4,0-1.4h-6.8s0,1.4,0,1.4ZM47,9h6.8s0-1.4,0-1.4h-6.8s0,1.3,0,1.4ZM47,6.5h6.8s0-.8,0-.8c0-.3-.1-.4-.4-.4h-6.1c-.2,0-.4.1-.4.4v.9h0Z"/>
        </g>
        <g>
          <polygon class="st0" points=".1 5.2 .9 6.1 7.9 14.9 5 5.3 .1 5.2"/>
          <polygon class="st0" points="13.7 .6 13.7 .6 13.7 .6 13.7 .6"/>
          <polygon class="st0" points="8.4 14.9 15.5 6.2 16.2 5.3 11.6 5.3 8.4 14.9"/>
          <polygon class="st0" points="16.4 5.1 16.4 5.1 16.4 5.1 16.4 5.1"/>
          <polygon class="st0" points="13.5 .6 8.4 .6 11.5 4.8 13.5 .6"/>
          <polygon class="st0" points="2.7 .7 .1 4.9 4.8 4.9 2.7 .7"/>
          <polygon class="st0" points="16.3 4.9 13.8 .8 11.8 4.9 16.3 4.9"/>
          <polygon class="st0" points="16.4 5.1 16.4 5.1 16.4 5.1 16.4 5.1"/>
          <polygon class="st0" points="8 .6 2.9 .6 5.1 4.8 8 .6"/>
          <polygon class="st0" points="8.2 .9 5.4 4.9 11.2 4.9 8.2 .9"/>
          <polygon class="st0" points="8.1 15.2 11.3 5.3 5.3 5.3 8.1 15.2"/>
        </g>
      </g>
    </g>
  </g>
</svg>