<svg xmlns="http://www.w3.org/2000/svg" viewBox="0 0 86 32.25"><defs><style>.cls-1{fill:#f19ec2;}.cls-2{fill:#fff;}</style></defs><g id="Layer_2" data-name="Layer 2"><g id="圖層_1" data-name="圖層 1"><rect class="cls-1" y="0.12" width="86" height="32" rx="16" transform="translate(0.07 -0.2) rotate(0.26)"/><path class="cls-2" d="M37.54,7.81A.86.86,0,0,1,38,8a.64.64,0,0,1,.21.49,1.76,1.76,0,0,1-.05.33,29.7,29.7,0,0,1-.93,3.55L37.2,23.7a.56.56,0,0,1-.63.63.57.57,0,0,1-.65-.64l0-8.4c-.16.31-.32.6-.5.88a.74.74,0,0,1-.4.26c-.47,0-.71-.18-.7-.55a.83.83,0,0,1,.12-.44,20.68,20.68,0,0,0,1.46-3.06,23.94,23.94,0,0,0,1.11-4.16A.49.49,0,0,1,37.54,7.81Zm5,2.84a.49.49,0,0,1,.56.55q0,.63-.57.63l-3.87,0c-.37,0-.56-.22-.56-.64a.5.5,0,0,1,.57-.54Zm-.16,2.46a.56.56,0,0,1,0,1.11l-3.59,0c-.38,0-.58-.18-.57-.55a.5.5,0,0,1,.58-.56Zm0,2.25a.49.49,0,0,1,.55.56c0,.37-.19.55-.55.54H38.85c-.38,0-.58-.18-.57-.55a.5.5,0,0,1,.58-.56Zm-3,2.23,2.53,0c.69,0,1,.32,1,1l0,4.37c0,.65-.35,1-1,1H39.31c-.67,0-1-.32-1-1l0-4.38A.88.88,0,0,1,39.34,17.59ZM42.25,8.4a.49.49,0,0,1,.56.55.49.49,0,0,1-.57.55H39.45a.49.49,0,0,1-.56-.56.48.48,0,0,1,.56-.54Zm-1,14.4a.38.38,0,0,0,.44-.43V19.15a.38.38,0,0,0-.43-.44H39.88c-.22,0-.34.15-.34.44v3.22c0,.29.11.44.33.44ZM48.45,9.6a.61.61,0,0,1,.35.09c.11-.3.23-.63.35-1a.53.53,0,0,1,.55-.33.58.58,0,0,1,.4.13.4.4,0,0,1,.18.35,1.3,1.3,0,0,1-.08.37,14.7,14.7,0,0,1-1.54,3.49h1.6a.5.5,0,0,1,.56.56.51.51,0,0,1-.57.58H47.93a15.22,15.22,0,0,1-1.53,1.87l-.32.37H49c.71,0,1.07.33,1.07,1l0,6q0,1-1.08,1L45.2,24a.86.86,0,0,1-1-1l0-5.5a1.85,1.85,0,0,1-.33.21.78.78,0,0,1-.42.14.55.55,0,0,1-.41-.18.69.69,0,0,1-.17-.46.47.47,0,0,1,.23-.4,14.55,14.55,0,0,0,2.38-1.94c.32-.35.63-.71.92-1.07H43.86a.5.5,0,0,1-.56-.58.49.49,0,0,1,.56-.56h2v-2H44.22a.51.51,0,0,1-.58-.57.52.52,0,0,1,.59-.58H45.9V8.41a.5.5,0,0,1,.58-.55c.43,0,.64.19.63.56V9.6Zm-.07,13.31c.27,0,.41-.15.41-.44V20.52l-3.36,0v1.95c0,.3.11.44.34.45Zm-2.93-3.55,3.35,0V17.64c0-.3-.13-.44-.4-.44l-2.62,0c-.22,0-.33.15-.33.44Zm1.8-6.67.39-.58a13.34,13.34,0,0,0,.73-1.36H47.1v1.95Z"/><path class="cls-2" d="M57.27,8a.68.68,0,0,1,.46.16.65.65,0,0,1,.23.49,1.22,1.22,0,0,1-.08.34,19.72,19.72,0,0,1-1,3.5l-.05,11.27a.63.63,0,1,1-1.26,0l0-8.5c-.21.37-.41.72-.62,1s-.39.3-.5.3c-.47,0-.7-.22-.7-.64a.56.56,0,0,1,.13-.37,18,18,0,0,0,1.59-3,22.45,22.45,0,0,0,1.27-4.11A.46.46,0,0,1,57.27,8ZM69.2,9.77a.51.51,0,0,1,.58.57c0,.43-.2.64-.59.64l-4.64,0v1.27h3c.81,0,1.21.38,1.21,1.11l0,9.44h.92c.37,0,.56.19.56.55S70,24,69.64,24l-11.53,0c-.37,0-.56-.21-.56-.64a.5.5,0,0,1,.57-.54H59l0-9.44c0-.74.39-1.11,1.18-1.1h3V11l-4.34,0c-.38,0-.56-.22-.56-.66a.5.5,0,0,1,.56-.56l4.34,0V8.64c0-.39.21-.58.63-.58s.71.19.7.58V9.75Zm-9,13,7.22,0V21.17l-7.22,0Zm0-2.74,7.22,0V18.5l-7.22,0Zm0-2.69,7.23,0V15.9l-7.22,0Zm0-2.58,7.22,0v-.91c0-.3-.13-.44-.4-.44l-6.41,0c-.27,0-.41.14-.41.43Z"/><polygon class="cls-2" points="12.16 13.34 12.87 14.22 19.9 23.01 17.02 13.36 12.16 13.34"/><polygon class="cls-2" points="25.68 8.74 25.68 8.74 25.68 8.74 25.68 8.74"/><polygon class="cls-2" points="20.43 22.99 27.53 14.29 28.24 13.42 23.66 13.39 20.43 22.99"/><polygon class="cls-2" points="28.39 13.24 28.39 13.24 28.39 13.24 28.39 13.24"/><polygon class="cls-2" points="25.51 8.74 20.43 8.71 23.53 12.91 25.51 8.74"/><polygon class="cls-2" points="14.67 8.84 12.13 12.98 16.86 13 14.67 8.84"/><polygon class="cls-2" points="28.28 13.06 25.78 8.9 23.82 13.04 28.28 13.06"/><polygon class="cls-2" points="28.39 13.24 28.39 13.24 28.39 13.24 28.39 13.24"/><polygon class="cls-2" points="20.03 8.71 14.95 8.69 17.14 12.88 20.03 8.71"/><polygon class="cls-2" points="20.23 8.99 17.45 13.01 23.23 13.03 20.23 8.99"/><path class="cls-1" d="M28.39,13.24h0l-.11-.18-4.46,0,2-4.14-.1-.16h-.17l-2,4.17-3.1-4.2H20l-2.88,4.17L15,8.69h-.18l-.1.15L16.86,13l-4.73,0-.11.18.14.18,4.86,0L19.9,23l.26.32.27-.34,3.23-9.6,4.58,0,.15-.18ZM20.23,9l3,4-5.78,0Zm-.06,13.83-2.83-9.45,6,0Z"/><polygon class="cls-2" points="20.16 23.33 23.34 13.39 17.34 13.37 20.16 23.33"/></g></g></svg>