<?xml version="1.0" encoding="UTF-8"?><svg xmlns="http://www.w3.org/2000/svg" viewBox="0 0 86 32"><defs><style>.d{fill:#e9528e;}.e{fill:#fff;}</style></defs><g id="a"/><g id="b"><g id="c"><g><rect class="e" x="0" y="0" width="86" height="32" rx="16" ry="16"/><g><path class="d" d="M37.9,12.06h3.57c.02-.11,.08-.25,.16-.44,.11-.36,.2-.71,.28-1.04h-6.56c-.42,0-.63-.21-.63-.63s.21-.65,.63-.65h6.87c.09-.4,.18-.77,.25-1.11,.12-.29,.3-.44,.54-.44,.52,0,.77,.22,.77,.65,0,.13-.05,.26-.14,.4-.02,.18-.05,.34-.09,.49h6.5c.42,0,.63,.22,.63,.65s-.21,.63-.63,.63h-6.78c-.12,.47-.25,.96-.4,1.48h4.57c.81,0,1.21,.37,1.21,1.11v9.14h1.81c.42,0,.63,.21,.63,.63s-.21,.65-.63,.65h-15.45c-.42,0-.63-.22-.63-.65s.21-.63,.63-.63h1.74V13.17c0-.74,.38-1.11,1.14-1.11Zm.21,2.72h9.19v-1.04c0-.29-.13-.44-.4-.44h-8.45c-.22,0-.33,.15-.33,.44v1.04Zm0,2.48h9.19v-1.41h-9.19v1.41Zm0,2.46h9.19v-1.41h-9.19v1.41Zm0,2.58h9.19v-1.55h-9.19v1.55Z"/><path class="d" d="M58.04,10.92c.41,0,.62,.21,.62,.63s-.21,.65-.62,.65h-.93v3.04c.26-.19,.54-.41,.84-.67l.23-.05c.42,0,.63,.23,.63,.7,0,.14-.08,.3-.25,.47-.35,.34-.84,.7-1.46,1.09v5.75c0,1.03-.58,1.55-1.74,1.55-.21,0-.49-.08-.84-.23-.34-.11-.51-.31-.51-.62,.02-.4,.19-.61,.51-.63,.02,0,.06,0,.12,.02,.36,.13,.6,.19,.72,.19,.33,0,.49-.19,.49-.58v-4.73c-.34,.16-.67,.32-.98,.46-.11,.05-.2,.07-.28,.07-.43,0-.65-.21-.65-.63,0-.38,.17-.61,.51-.7,.55-.21,1.02-.43,1.41-.65v-3.85h-1.14c-.42,0-.63-.22-.63-.65s.21-.63,.63-.63h1.14v-2.44c0-.43,.2-.65,.62-.65s.63,.22,.63,.65v2.44h.93Zm10.69-2.88c.37,0,.56,.23,.56,.7,0,.3-.23,.49-.7,.56-.88,.12-2,.23-3.37,.33v2.43h.81c.13-.18,.26-.35,.39-.51,.28-.4,.54-.82,.77-1.27,.13-.18,.31-.26,.54-.26,.16,0,.3,.05,.4,.16,.11,.11,.16,.24,.16,.4,0,.14-.04,.28-.12,.4-.16,.3-.35,.59-.56,.86-.06,.07-.11,.14-.16,.21h1.92c.36,0,.54,.18,.54,.54s-.18,.56-.54,.56h-3.81c.49,.39,1.01,.73,1.56,1.04,1.03,.57,1.94,1,2.72,1.28,.29,.14,.44,.35,.44,.63,0,.14-.05,.28-.16,.42-.12,.15-.28,.23-.47,.23-.16,0-.33-.04-.49-.12-.74-.38-1.45-.77-2.13-1.19-.62-.38-1.22-.81-1.81-1.3v1.85c0,.42-.22,.63-.65,.63s-.63-.21-.63-.63v-1.93c-.42,.41-.87,.78-1.34,1.11-.68,.52-1.65,1.07-2.9,1.65-.19,.05-.3,.07-.33,.07-.36,0-.54-.23-.54-.7,0-.26,.13-.44,.4-.54,1.31-.55,2.34-1.08,3.08-1.6,.41-.27,.79-.56,1.14-.88h-4.08c-.36,0-.54-.19-.54-.56s.18-.54,.54-.54h2.16c-.12-.15-.23-.27-.33-.37-.18-.15-.36-.31-.54-.47-.14-.15-.21-.3-.21-.44,0-.38,.18-.56,.54-.56,.12,0,.26,.02,.44,.07,.21,.2,.42,.38,.62,.54,.27,.26,.53,.54,.79,.86,.09,.16,.14,.29,.14,.37h.97v-2.35c-1.9,.12-3.23,.18-4.01,.18-.47,0-.7-.21-.7-.63,0-.39,.19-.58,.58-.58,1.55-.01,2.99-.06,4.32-.14,1.64-.09,3.17-.26,4.6-.49Zm-7.75,8.73h6.98c.7,0,1.05,.32,1.05,.97v5.08c0,.64-.35,.97-1.05,.97h-6.98c-.7,0-1.05-.32-1.05-.97v-5.08c0-.64,.35-.97,1.05-.97Zm.23,2.88h2.71l.02-1.76h-2.32c-.27,0-.4,.16-.4,.47v1.28Zm2.67,3.02l.02-1.99h-2.69v1.48c0,.34,.13,.51,.4,.51h2.27Zm3.44,0c.27,0,.4-.17,.4-.51v-1.48h-2.57l-.02,1.99h2.18Zm-2.13-4.78l-.02,1.76h2.55v-1.28c0-.32-.13-.47-.4-.47h-2.13Z"/></g><g><path class="d" d="M24.95,15.39c-.38,0-.68,.3-.68,.68,0,1.12-.46,2.14-1.2,2.88-.74,.74-1.76,1.19-2.88,1.19s-2.14-.46-2.88-1.19c-.74-.74-1.19-1.76-1.2-2.88,0-.38-.3-.68-.68-.68s-.68,.3-.68,.68c0,2.77,2.08,5.05,4.76,5.39v3.44h-2.51c-.51,0-.92,.41-.92,.92,0,.51,.41,.92,.92,.92h6.37c.51,0,.92-.41,.92-.92s-.41-.92-.92-.92h-2.51v-3.44c2.51-.32,4.49-2.33,4.73-4.86l-.2-.02,.2,.02c.02-.17,.03-.35,.03-.52,0-.38-.3-.68-.68-.68Z"/><g><rect class="d" x="17.06" y="9.73" width="6.26" height="1.01"/><path class="d" d="M20.19,5.27c-1.73,0-3.13,1.4-3.13,3.13v.32h6.26v-.32c0-1.73-1.4-3.13-3.13-3.13Z"/><path class="d" d="M17.06,15.67c0,1.73,1.4,3.13,3.13,3.13,1.73,0,3.13-1.4,3.13-3.13v-1.88h-6.26v1.88Z"/><rect class="d" x="17.06" y="11.76" width="6.26" height="1.01"/></g></g></g></g></g></svg>