<?xml version="1.0" encoding="UTF-8"?><svg xmlns="http://www.w3.org/2000/svg" viewBox="0 0 138.48 15.69"><defs><style>.d{fill:none;stroke:#fff;stroke-linecap:round;stroke-linejoin:round;}.e{fill:#e9528e;}.f{fill:#fff;}</style></defs><g id="a"/><g id="b"><g id="c"><g><polyline class="d" points="133.48 3.4 137.98 7.9 133.48 12.4"/><g><path class="f" d="M25.58,0c.17,0,.32,.05,.46,.14,.13,.12,.2,.28,.2,.47,0,.08-.02,.18-.05,.31-.25,1.25-.54,2.37-.88,3.35l-.05,10.74c0,.4-.2,.6-.6,.59-.41,0-.61-.2-.61-.6l.04-7.94c-.15,.29-.3,.56-.47,.83-.17,.17-.29,.25-.38,.25-.44,0-.66-.17-.66-.52,0-.15,.04-.29,.12-.41,.51-.87,.97-1.84,1.37-2.9,.43-1.12,.77-2.43,1.05-3.93C25.19,.13,25.35,0,25.58,0Zm4.72,2.68c.35,0,.53,.17,.53,.52,0,.4-.18,.6-.53,.6l-3.65-.02c-.35,0-.53-.2-.53-.6,0-.34,.18-.51,.53-.51l3.65,.02Zm-.14,2.32c.34,0,.51,.18,.51,.53,0,.34-.17,.51-.52,.51l-3.39-.02c-.37,0-.55-.17-.55-.52,0-.35,.19-.53,.55-.53l3.39,.02Zm-.01,2.12c.34,0,.51,.18,.51,.53,0,.34-.17,.51-.52,.51l-3.32-.02c-.37,0-.55-.17-.55-.52,0-.35,.19-.53,.55-.53l3.32,.02Zm-2.86,2.11h2.39c.65,.01,.98,.32,.98,.93l-.02,4.13c0,.61-.33,.91-.98,.91h-2.39c-.63-.01-.94-.32-.94-.93l.02-4.13c0-.61,.32-.91,.95-.91ZM30.03,.55c.35,0,.53,.17,.53,.52,0,.35-.18,.53-.53,.53h-2.64c-.35-.01-.53-.19-.53-.55,0-.34,.18-.51,.53-.51h2.64Zm-.93,13.62c.28,0,.42-.14,.42-.41v-3.04c.02-.28-.12-.42-.4-.42h-1.33c-.21,0-.32,.13-.32,.41v3.04c-.02,.28,.09,.42,.3,.42h1.33ZM35.88,1.69c.14,0,.25,.03,.33,.08,.11-.29,.22-.6,.34-.94,.08-.21,.25-.31,.52-.31,.15,0,.28,.04,.38,.12,.11,.08,.17,.19,.16,.33,0,.09-.02,.21-.07,.35-.4,1.29-.89,2.39-1.46,3.3h1.51c.35,0,.53,.19,.53,.54,0,.37-.18,.55-.53,.55h-2.19c-.43,.62-.92,1.21-1.45,1.76-.1,.12-.2,.24-.3,.35h2.72c.67,.02,1.01,.32,1.01,.93l-.03,5.66c0,.61-.34,.91-1.02,.91l-3.52-.02c-.62,0-.93-.31-.93-.92l.02-5.2c-.1,.08-.21,.14-.32,.2-.13,.09-.27,.13-.4,.13-.14,0-.27-.06-.38-.17-.11-.12-.16-.27-.16-.43,0-.15,.07-.28,.22-.38,.85-.56,1.6-1.17,2.25-1.83,.3-.33,.59-.67,.87-1.01h-2.44c-.35-.01-.53-.2-.53-.56,0-.35,.18-.53,.53-.53h1.91v-1.83h-1.57c-.37,0-.55-.19-.55-.54,0-.37,.19-.55,.55-.55h1.58V.57c0-.35,.19-.53,.56-.53,.4,0,.6,.18,.6,.53V1.69h1.26Zm-.06,12.57c.25,0,.38-.14,.38-.41v-1.84h-3.16v1.83c0,.28,.09,.42,.3,.42h2.47Zm-2.77-3.34h3.17v-1.63c0-.28-.12-.42-.37-.42h-2.47c-.21-.01-.32,.12-.32,.4v1.64Zm1.7-6.3c.12-.18,.25-.36,.37-.55,.25-.4,.47-.83,.69-1.29h-1.2v1.84h.14Z"/><path class="f" d="M44.22,.2c.17,0,.31,.05,.43,.15,.14,.13,.21,.29,.21,.47,0,.08-.02,.18-.07,.31-.25,1.24-.56,2.34-.95,3.32l-.05,10.64c0,.4-.2,.6-.6,.59-.4,0-.6-.2-.59-.6l.04-8.03c-.19,.35-.39,.68-.59,.98-.21,.19-.37,.28-.47,.28-.44,0-.66-.2-.66-.6,0-.13,.04-.25,.12-.35,.57-.86,1.07-1.82,1.51-2.87,.48-1.12,.88-2.41,1.2-3.88,.06-.28,.21-.41,.47-.41Zm11.27,1.65c.37,0,.55,.18,.55,.53,0,.41-.19,.61-.55,.61l-4.38-.02v1.2h2.85c.76,.02,1.14,.37,1.14,1.06l-.04,8.91h.86c.35,0,.53,.18,.53,.52,0,.4-.18,.6-.53,.6l-10.89-.05c-.35,0-.53-.2-.53-.6,0-.34,.18-.51,.53-.51h.8l.04-8.91c0-.7,.38-1.04,1.12-1.04h2.86v-1.18l-4.09-.02c-.35,0-.53-.21-.53-.62,0-.35,.18-.53,.53-.53l4.1,.02V.78c0-.37,.21-.55,.6-.55,.44,0,.66,.19,.66,.55V1.83l4.38,.02Zm-8.47,12.26l6.82,.03v-1.53l-6.82-.03v1.53Zm0-2.59l6.82,.03v-1.46l-6.82-.03v1.46Zm0-2.54l6.82,.03v-1.38l-6.82-.03v1.38Zm0-2.44l6.82,.03v-.86c0-.28-.12-.42-.38-.42l-6.06-.03c-.25,0-.38,.14-.38,.41v.86Z"/></g><g><polygon class="f" points=".14 5.24 .85 6.12 7.88 14.91 5 5.26 .14 5.24"/><polygon class="f" points="13.66 .63 13.66 .63 13.66 .64 13.66 .63"/><polygon class="f" points="8.41 14.89 15.51 6.19 16.22 5.31 11.64 5.29 8.41 14.89"/><polygon class="f" points="16.37 5.13 16.37 5.13 16.37 5.13 16.37 5.13"/><polygon class="f" points="13.49 .63 8.41 .61 11.52 4.8 13.49 .63"/><polygon class="f" points="2.65 .74 .11 4.88 4.84 4.9 2.65 .74"/><polygon class="f" points="16.26 4.95 13.76 .79 11.8 4.93 16.26 4.95"/><polygon class="f" points="16.37 5.13 16.37 5.13 16.37 5.13 16.37 5.13"/><polygon class="f" points="8.01 .61 2.93 .59 5.13 4.78 8.01 .61"/><polygon class="f" points="8.21 .89 5.43 4.9 11.21 4.93 8.21 .89"/><path class="e" d="M16.37,5.13h0l-.11-.18-4.46-.02L13.76,.79l-.1-.16h-.17l-1.97,4.17L8.41,.61h-.4l-2.88,4.17L2.93,.59h-.18l-.1,.15,2.18,4.16-4.73-.02-.11,.18,.14,.18,4.86,.02,2.88,9.65,.25,.32,.27-.34,3.23-9.59,4.58,.02,.15-.18h0ZM8.21,.89l3,4.04-5.78-.03L8.21,.89Zm-.06,13.83L5.32,5.26l6,.03-3.17,9.43Z"/><polygon class="f" points="8.14 15.22 11.32 5.29 5.32 5.26 8.14 15.22"/></g></g></g></g></svg>