<?xml version="1.0" encoding="UTF-8"?>
<svg id="Layer_2" data-name="Layer 2" xmlns="http://www.w3.org/2000/svg" width="15.45" height="15.44" viewBox="0 0 15.45 15.44">
  <defs>
    <style>
      .cls-1 {
        fill: #fff;
      }
    </style>
  </defs>
  <g id="_圖層_1" data-name="圖層 1">
    <g>
      <g>
        <path class="cls-1" d="M15.01,15.01c-.43.43-1,.56-1.27.29l-.5-.5,1.56-1.58.51.52c.26.27.13.83-.31,1.26Z"/>
        <path class="cls-1" d="M14.37,12.73l-3.2-3.23c.65-.96,1.03-2.12,1.04-3.37C12.22,2.76,9.5.02,6.13,0,2.76-.02-.04,2.7,0,6.07c.04,3.43,2.74,6.16,6.07,6.13,1.32-.01,2.54-.41,3.54-1.12l3.19,3.22,1.55-1.58ZM10.39,6.21c-.01,2.37-1.94,4.28-4.31,4.27-2.37-.01-4.28-1.94-4.27-4.31.01-2.37,1.94-4.28,4.31-4.27,2.37.01,4.28,1.94,4.27,4.31Z"/>
      </g>
      <path class="cls-1" d="M6.11,10.15c-2.19-.01-3.96-1.8-3.95-3.99.01-2.19,1.8-3.96,3.99-3.95,2.19.01,3.96,1.8,3.95,3.99-.01,2.19-1.8,3.96-3.99,3.95ZM6.15,2.42c-2.07,0-3.76,1.67-3.77,3.73s1.67,3.76,3.73,3.77c2.07,0,3.76-1.67,3.77-3.73,0-2.07-1.67-3.76-3.73-3.77Z"/>
    </g>
  </g>
</svg>