<svg xmlns="http://www.w3.org/2000/svg" viewBox="0 0 124 32.42"><defs><style>.cls-1{fill:#f19ec2;}.cls-2{fill:#fff;}</style></defs><g id="Layer_2" data-name="Layer 2"><g id="圖層_1" data-name="圖層 1"><rect class="cls-1" y="0.21" width="124" height="32" rx="16" transform="translate(0.08 -0.29) rotate(0.26)"/><path class="cls-2" d="M38.23,11.49a.56.56,0,0,1,.63.64c0,.41-.21.61-.63.61h-.92v3.19l.84-.56.21-.07c.43,0,.64.23.63.7a.58.58,0,0,1-.24.41,10.56,10.56,0,0,1-1.45,1l0,5.55c0,.94-.55,1.41-1.64,1.4a3.58,3.58,0,0,1-1-.21.65.65,0,0,1-.51-.64c0-.4.19-.61.51-.63l.16,0a3.93,3.93,0,0,0,.81.2c.29,0,.44-.16.44-.49L36,18a9,9,0,0,1-1.05.43.72.72,0,0,1-.3.07.56.56,0,0,1-.63-.65.69.69,0,0,1,.51-.7A12.6,12.6,0,0,0,36,16.59l0-3.86H34.83a.55.55,0,0,1-.63-.62.56.56,0,0,1,.64-.62h1.21V8.67A.58.58,0,0,1,36.7,8a.57.57,0,0,1,.63.65v2.82Zm6.13-3.63c.43,0,.64.22.63.64l0,8.7h3c.78,0,1.17.32,1.17.94a1.93,1.93,0,0,1-.46.91,14.26,14.26,0,0,1-2.31,2.22l-.46.32.93.44a26.81,26.81,0,0,0,2.86.89.59.59,0,0,1,.56.64.69.69,0,0,1-.78.77,19.76,19.76,0,0,1-2.72-.89,22.69,22.69,0,0,1-2.19-1.05,9.19,9.19,0,0,1-.83.42,21.15,21.15,0,0,1-3.66,1.28,4.67,4.67,0,0,1-.93.19c-.52,0-.78-.24-.77-.71,0-.31.19-.5.56-.56a19.88,19.88,0,0,0,2.83-.76c.58-.19,1.11-.4,1.61-.62,0,0,0,0-.06,0a16.41,16.41,0,0,1-3.11-2.81,1.07,1.07,0,0,1-.26-.47.51.51,0,0,1-.58-.57c0-.38.19-.58.56-.57h3.75l0-8.7A.56.56,0,0,1,44.36,7.86Zm-1.84.47c.37,0,.56.21.56.64a.59.59,0,0,1-.41.56c-.35.13-.87.3-1.55.5a.42.42,0,0,0-.37.47v1.21h1.85c.31,0,.47.17.47.5s-.16.54-.48.54H40.74v1.14a.63.63,0,0,0,.72.71h1.2c.41,0,.61.19.61.57a.54.54,0,0,1-.62.61h-2a1,1,0,0,1-1.14-1.18l0-4.31a1.07,1.07,0,0,1,.31-.89,1.56,1.56,0,0,1,1-.37,8.11,8.11,0,0,0,1.54-.57A.53.53,0,0,1,42.52,8.33Zm-1.07,10a15.93,15.93,0,0,0,2.19,1.93c.34.25.69.48,1.07.71l0,0A11,11,0,0,0,47.11,19a1.4,1.4,0,0,0,.3-.44.19.19,0,0,0-.21-.21Zm4.6-9.48H48.3A1,1,0,0,1,49.49,10l0,4.64a1,1,0,0,1-1.2,1.17H46c-.43,0-.65-.21-.64-.62s.22-.56.65-.56h1.74a.45.45,0,0,0,.51-.51V12.79l-2.25,0q-.51,0-.51-.54c0-.33.17-.49.51-.49h2.25V10.47c0-.27-.17-.41-.51-.41H46a.57.57,0,0,1-.65-.64C45.4,9,45.61,8.84,46.05,8.84Z"/><path class="cls-2" d="M65.37,18.5H63.31a.87.87,0,0,1-1-1V15.26c0-.62.33-.93,1-.93l4.87,0c.7,0,1,.32,1,.94v2.25c0,.65-.36,1-1.06,1H66.63v1h2.72a.51.51,0,0,1,.58.58c0,.38-.2.56-.58.56H66.62v2.46c0,.89-.54,1.33-1.62,1.33A10.68,10.68,0,0,1,62.25,24a.58.58,0,0,1-.51-.58c0-.43.22-.66.59-.68a23.26,23.26,0,0,0,2.58.43c.29,0,.44,0,.44-.14V20.61L53.9,20.56a.5.5,0,0,1-.58-.56.51.51,0,0,1,.58-.58l11.46,0Zm-4.62-4.11a.44.44,0,0,1,.49.49c0,.39-.17.58-.5.58H58.35V17c.84-.11,1.59-.24,2.26-.39a.64.64,0,0,1,.28-.07.47.47,0,0,1,.49.51.58.58,0,0,1-.37.49,29.61,29.61,0,0,1-3.17.65c-1,.16-2.22.3-3.66.43-.35,0-.54-.23-.56-.64a.5.5,0,0,1,.5-.54c1.29-.09,2.29-.18,3-.29V15.44H54.49c-.33,0-.5-.19-.49-.58a.43.43,0,0,1,.49-.49Zm-5-5.77,10.78.05c.7,0,1,.31,1,.92v.89h1.48c.33,0,.49.17.49.51s-.17.56-.49.56H67.58v.84c0,.66-.36,1-1.06,1l-10.78-.05c-.42,0-.63-.2-.63-.58s.22-.48.64-.48l10.14.05c.31,0,.47-.18.48-.56v-.21l-12.24-.06c-.32,0-.49-.19-.48-.56s.16-.51.49-.51l12.23.06v-.27c0-.34-.15-.51-.47-.51l-10.14,0c-.42,0-.63-.19-.63-.57S55.34,8.62,55.76,8.62ZM57.25,21a.57.57,0,0,1,.37.23,12.54,12.54,0,0,1,1.54,1.55,1,1,0,0,1,.14.43c0,.37-.22.56-.65.56a.54.54,0,0,1-.34-.15c-.5-.55-1-1.09-1.61-1.62a1,1,0,0,1-.15-.35C56.55,21.19,56.79,21,57.25,21Zm10.37-3.54c.28,0,.42-.15.43-.47V15.83a.37.37,0,0,0-.42-.41H63.91c-.24,0-.36.13-.36.4V17c0,.32.11.48.35.48Z"/><path class="cls-2" d="M88,11.21a.57.57,0,0,1,.65.65.56.56,0,0,1-.65.63l-6.24,0,0,4.21,5.34,0a.64.64,0,0,1,0,1.28l-5.35,0,0,4.85,6.75,0a.63.63,0,1,1,0,1.26L73.58,24a.57.57,0,0,1-.63-.66.56.56,0,0,1,.64-.61l6.69,0,0-4.85-5.42,0a.57.57,0,0,1-.63-.66.57.57,0,0,1,.64-.63l5.41,0,0-4.2-6.32,0a.55.55,0,0,1-.63-.64c0-.43.21-.65.63-.64l6.93,0c-.41-.65-.85-1.28-1.31-1.89a1.54,1.54,0,0,1-.12-.42c0-.48.26-.72.77-.72a.66.66,0,0,1,.42.22A14.64,14.64,0,0,1,82,10.43a.84.84,0,0,1,.14.42.62.62,0,0,1-.07.33Z"/><path class="cls-2" d="M96.4,11.39c.41,0,.61.21.61.64a.56.56,0,0,1-.62.64h-.93v3c.26-.19.54-.41.84-.67l.23,0c.42,0,.63.24.63.71a.71.71,0,0,1-.25.47,9,9,0,0,1-1.46,1.09l0,5.74c0,1-.58,1.55-1.74,1.54a2.41,2.41,0,0,1-.85-.23.62.62,0,0,1-.5-.62q0-.6.51-.63l.12,0a2.87,2.87,0,0,0,.72.19c.33,0,.5-.19.5-.57l0-4.73-1,.45a.64.64,0,0,1-.28.07.57.57,0,0,1-.65-.63.66.66,0,0,1,.52-.7,10.53,10.53,0,0,0,1.41-.65V12.66H93.07q-.63,0-.63-.66a.56.56,0,0,1,.64-.63h1.14V8.94c0-.44.21-.65.62-.65a.57.57,0,0,1,.63.65v2.45Zm10.7-2.83c.37,0,.56.23.56.7,0,.31-.24.49-.71.56-.88.12-2,.22-3.37.32l0,2.43h.81c.13-.18.26-.34.39-.51a13.3,13.3,0,0,0,.78-1.26.63.63,0,0,1,.55-.26.52.52,0,0,1,.4.16.56.56,0,0,1,.16.4.79.79,0,0,1-.13.41,5.34,5.34,0,0,1-.57.86c0,.07-.11.14-.15.21h1.91a.48.48,0,0,1,.54.55c0,.38-.18.56-.54.56l-3.82,0a11.82,11.82,0,0,0,1.56,1.05A18.31,18.31,0,0,0,108.17,16a.7.7,0,0,1,.44.64.74.74,0,0,1-.16.42.59.59,0,0,1-.48.23,1.28,1.28,0,0,1-.49-.13c-.74-.38-1.44-.78-2.12-1.2a15.61,15.61,0,0,1-1.81-1.31V16.5a.57.57,0,0,1-.66.63.56.56,0,0,1-.63-.63V14.56a9.91,9.91,0,0,1-1.34,1.1A15.81,15.81,0,0,1,98,17.3a1.88,1.88,0,0,1-.33.07c-.36,0-.54-.24-.54-.7a.56.56,0,0,1,.4-.55,16.74,16.74,0,0,0,3.09-1.58,9.08,9.08,0,0,0,1.14-.88H97.71a.5.5,0,0,1-.55-.57.49.49,0,0,1,.55-.54h2.16a2,2,0,0,0-.33-.37L99,11.7a.67.67,0,0,1-.21-.44.49.49,0,0,1,.55-.56,2.29,2.29,0,0,1,.44.07c.21.2.41.39.61.55a9.65,9.65,0,0,1,.79.87.82.82,0,0,1,.13.37h1V10.2c-1.9.11-3.23.17-4,.16-.46,0-.7-.21-.7-.63a.52.52,0,0,1,.59-.58q2.31,0,4.32-.12C104.13,8.94,105.67,8.78,107.1,8.56Zm-7.79,8.7,7,0c.71,0,1.06.33,1,1l0,5.08c0,.64-.36,1-1.06,1l-7,0c-.7,0-1-.33-1-1l0-5.08C98.25,17.57,98.6,17.25,99.31,17.26Zm2.87,5.91,0-2H99.52v1.47c0,.34.13.51.4.51Zm-2.66-3h2.71l0-1.76H99.93c-.27,0-.4.16-.4.48Zm6.1,3.05c.27,0,.41-.17.41-.51V21.21l-2.57,0,0,2Zm-2.1-4.79,0,1.76H106V18.89c0-.32-.13-.48-.4-.48Z"/><path class="cls-2" d="M28.48,24c-.47.46-1.09.61-1.37.32l-.54-.55L28.26,22l.56.56C29.11,22.89,29,23.51,28.48,24Z"/><path class="cls-2" d="M27.79,21.5,24.31,18a6.64,6.64,0,1,0-5.55,2.94,6.73,6.73,0,0,0,3.86-1.21l3.47,3.5Zm-4.33-7.1a4.67,4.67,0,1,1-4.65-4.69A4.65,4.65,0,0,1,23.46,14.4Z"/><path class="cls-2" d="M18.81,18.69a4.32,4.32,0,1,1,4.34-4.3A4.33,4.33,0,0,1,18.81,18.69Zm0-8.41a4.09,4.09,0,1,0,4.07,4.1A4.09,4.09,0,0,0,18.84,10.28Z"/></g></g></svg>