<?xml version="1.0" encoding="UTF-8"?><svg xmlns="http://www.w3.org/2000/svg" viewBox="0 0 138.7 16.8"><defs><style>.d{fill:none;stroke:#fff;stroke-linecap:round;stroke-linejoin:round;}.e{fill:#fff;}</style></defs><g id="a"/><g id="b"><g id="c"><g><polyline class="d" points="133.7 3.9 138.2 8.4 133.7 12.9"/><g><path class="e" d="M26.93,3.8c.4,0,.6,.2,.59,.6,0,.39-.2,.58-.6,.58h-.86v3c.23-.17,.5-.34,.79-.53,.12-.04,.19-.07,.2-.07,.4,0,.6,.22,.59,.67,0,.12-.08,.25-.23,.38-.34,.3-.8,.61-1.37,.94l-.02,5.25c0,.89-.52,1.33-1.55,1.32-.24,0-.57-.07-.98-.2-.32-.11-.48-.31-.48-.6,.01-.38,.17-.58,.48-.6,.03,0,.08,0,.15,.02,.4,.12,.65,.19,.76,.19,.28,0,.42-.15,.42-.46l.02-4.33c-.34,.16-.68,.3-1,.41-.1,.04-.19,.07-.28,.07-.4,0-.6-.21-.59-.62,0-.33,.16-.55,.48-.66,.54-.17,1.01-.35,1.4-.52l.02-3.65h-1.15c-.4,0-.6-.2-.59-.59,0-.4,.2-.6,.6-.59h1.15V1.14c.01-.41,.21-.61,.61-.61,.4,0,.6,.21,.59,.62V3.8h.85ZM32.72,.38c.4,0,.6,.2,.59,.6l-.04,8.22h2.86c.74,.02,1.11,.31,1.11,.9,0,.19-.15,.48-.44,.86-.65,.78-1.37,1.48-2.18,2.1-.14,.1-.29,.2-.43,.3,.29,.13,.58,.27,.88,.42,.65,.26,1.55,.54,2.7,.84,.35,.06,.53,.26,.53,.6,0,.49-.25,.73-.73,.73-1.01-.26-1.86-.54-2.57-.84-.78-.32-1.47-.65-2.07-.99-.24,.14-.51,.27-.78,.4-1.22,.55-2.37,.95-3.46,1.21-.45,.12-.75,.18-.88,.18-.49,0-.73-.23-.73-.67,0-.3,.18-.48,.53-.53,1.13-.24,2.02-.48,2.68-.72,.54-.19,1.05-.38,1.51-.59-.01-.01-.03-.02-.05-.03-1.17-.82-2.15-1.71-2.94-2.65-.14-.18-.23-.33-.25-.45-.37,0-.55-.18-.55-.53,0-.37,.18-.55,.53-.54l3.54,.02,.04-8.22c0-.4,.2-.6,.6-.59Zm-1.75,.44c.35,0,.53,.2,.53,.6,0,.25-.13,.43-.38,.53-.33,.13-.82,.29-1.46,.47-.23,.04-.35,.19-.35,.45v1.15h1.74c.3,0,.45,.17,.45,.47,0,.34-.15,.51-.45,.51h-1.74v1.07c0,.44,.22,.67,.67,.67h1.13c.39,0,.58,.19,.58,.54,0,.39-.2,.58-.58,.58h-1.93c-.72-.01-1.08-.38-1.07-1.13l.02-4.07c0-.43,.1-.71,.29-.85,.14-.17,.45-.28,.91-.34,.59-.16,1.07-.34,1.46-.54,.1-.08,.17-.12,.2-.12Zm-1.01,9.44c.64,.68,1.33,1.28,2.07,1.82,.32,.23,.66,.46,1.01,.67,.01-.01,.03-.02,.05-.03,.79-.47,1.53-1.08,2.22-1.82,.19-.23,.28-.37,.28-.41,0-.13-.07-.2-.2-.2l-5.43-.03ZM34.31,1.3h2.12c.75,.01,1.13,.38,1.12,1.09l-.02,4.38c0,.74-.38,1.11-1.13,1.11h-2.12c-.41-.01-.61-.21-.61-.59,0-.35,.21-.53,.62-.53h1.64c.32,0,.48-.15,.48-.47v-1.26h-2.12c-.32-.01-.48-.18-.48-.53,0-.31,.16-.46,.48-.46h2.12v-1.2c0-.25-.15-.38-.47-.38h-1.64c-.41,0-.61-.21-.61-.61,0-.37,.21-.55,.62-.54Z"/><path class="e" d="M52.56,10.43h-1.94c-.61-.01-.91-.32-.91-.94v-2.12c.01-.59,.32-.88,.93-.88l4.6,.02c.66,0,.99,.3,.99,.88v2.12c-.01,.62-.35,.93-1.01,.93h-1.46v.91h2.57c.37,.01,.55,.2,.55,.56,0,.35-.19,.53-.55,.53h-2.57v2.31c-.01,.84-.53,1.26-1.54,1.25-.75,0-1.62-.14-2.59-.41-.32-.09-.48-.27-.48-.55,.02-.41,.21-.62,.55-.64,1.39,.27,2.21,.41,2.44,.41,.28,0,.42-.04,.42-.13v-2.26l-10.81-.05c-.37,0-.55-.18-.55-.53,0-.37,.19-.55,.55-.55l10.82,.05v-.91Zm-4.36-3.89c.31,0,.46,.16,.46,.47,0,.37-.16,.55-.47,.55h-2.26v1.48c.78-.11,1.49-.23,2.12-.37,.1-.04,.19-.07,.27-.07,.29,.01,.44,.17,.46,.48,0,.19-.12,.34-.35,.46-.74,.21-1.74,.41-2.99,.62-.94,.15-2.09,.28-3.45,.4-.33-.01-.51-.21-.53-.6,0-.3,.16-.47,.47-.51,1.22-.08,2.17-.17,2.86-.27v-1.64h-2.5c-.31-.01-.46-.2-.46-.56,0-.31,.16-.46,.47-.46l5.91,.03Zm-4.71-5.45l10.18,.05c.66,0,.99,.29,.99,.87v.85h1.39c.31,0,.46,.17,.46,.49,0,.35-.16,.53-.47,.53h-1.39v.79c0,.62-.34,.93-1,.93l-10.18-.05c-.4,0-.6-.19-.6-.55,0-.3,.2-.45,.6-.45l9.58,.04c.3,0,.45-.17,.45-.53v-.2l-11.55-.05c-.31,0-.46-.18-.46-.53,0-.32,.16-.48,.47-.48l11.55,.05v-.25c0-.32-.15-.48-.44-.48l-9.58-.04c-.4,0-.6-.18-.6-.53,0-.3,.2-.45,.6-.45Zm1.41,11.68c.1,0,.22,.07,.35,.22,.51,.42,.99,.91,1.45,1.47,.09,.16,.13,.29,.13,.4,0,.35-.21,.53-.62,.53-.1,0-.2-.05-.31-.13-.47-.52-.98-1.03-1.52-1.53-.1-.17-.15-.28-.15-.33,0-.41,.22-.61,.67-.61Zm9.79-3.34c.27,0,.4-.15,.4-.45v-1.08c0-.25-.13-.38-.39-.38l-3.52-.02c-.22,0-.33,.13-.33,.38v1.08c0,.3,.1,.45,.32,.45l3.52,.02Z"/><path class="e" d="M73.93,3.54c.41,0,.61,.21,.61,.62,0,.4-.21,.6-.62,.59l-5.89-.03-.02,3.97,5.05,.02c.4,0,.6,.2,.59,.6,0,.41-.2,.61-.6,.61l-5.05-.02-.02,4.58,6.37,.03c.4,0,.6,.2,.59,.58,0,.41-.2,.61-.6,.61l-14.03-.06c-.4,0-.6-.21-.59-.62,0-.39,.2-.58,.6-.58l6.33,.03,.02-4.58-5.11-.02c-.4,0-.6-.21-.59-.62,0-.4,.2-.6,.6-.59l5.11,.02,.02-3.97-5.98-.03c-.4,0-.6-.2-.59-.6,0-.41,.2-.61,.6-.61l6.54,.03c-.38-.61-.8-1.2-1.24-1.78-.08-.2-.11-.33-.11-.4,0-.45,.25-.68,.73-.68,.11,0,.24,.07,.4,.2,.43,.57,.84,1.22,1.24,1.95,.09,.14,.13,.28,.13,.4,0,.13-.02,.24-.07,.31l5.58,.03Z"/><path class="e" d="M81.88,3.71c.39,0,.58,.2,.58,.6,0,.41-.2,.61-.58,.61h-.88v2.87c.23-.18,.5-.38,.79-.63l.22-.05c.4,0,.6,.22,.59,.67,0,.13-.08,.28-.23,.45-.33,.32-.79,.66-1.38,1.02l-.03,5.43c0,.97-.55,1.46-1.65,1.45-.2,0-.46-.07-.8-.22-.32-.1-.48-.3-.48-.58,.02-.38,.19-.57,.48-.6,.02,0,.06,0,.12,.02,.34,.12,.57,.19,.68,.19,.31,0,.47-.18,.47-.55l.02-4.47c-.32,.15-.63,.3-.93,.43-.1,.04-.19,.07-.27,.06-.41,0-.61-.2-.61-.6,0-.35,.16-.57,.48-.66,.52-.2,.96-.4,1.33-.61l.02-3.64h-1.08c-.4,0-.6-.21-.59-.62,0-.4,.2-.6,.6-.6h1.08V1.39c.01-.41,.21-.61,.59-.61,.4,0,.6,.21,.59,.62V3.71h.87Zm10.11-2.67c.35,0,.53,.22,.53,.67,0,.29-.22,.46-.67,.53-.83,.11-1.89,.21-3.19,.3v2.29h.75c.12-.16,.24-.32,.37-.48,.27-.38,.51-.77,.74-1.19,.12-.17,.29-.25,.52-.25,.15,0,.28,.05,.38,.15,.1,.1,.15,.23,.15,.38,0,.13-.04,.26-.12,.38-.16,.29-.33,.56-.53,.81-.06,.07-.11,.13-.15,.2h1.81c.34,0,.51,.18,.51,.53,0,.35-.17,.53-.52,.53l-3.6-.02c.46,.37,.95,.7,1.47,.99,.97,.55,1.83,.95,2.57,1.22,.28,.13,.41,.33,.41,.6,0,.13-.05,.27-.15,.4-.11,.14-.26,.21-.45,.21-.16,0-.31-.04-.46-.12-.7-.36-1.36-.74-2-1.14-.59-.36-1.15-.77-1.7-1.24v1.74c0,.4-.22,.6-.63,.59-.4,0-.6-.2-.59-.6v-1.83c-.39,.39-.81,.73-1.26,1.04-.64,.48-1.56,1-2.75,1.55-.18,.04-.28,.06-.32,.06-.34,0-.51-.22-.51-.67,0-.24,.13-.41,.38-.51,1.24-.51,2.21-1.01,2.91-1.5,.39-.25,.75-.53,1.08-.83l-3.85-.02c-.34,0-.51-.18-.51-.53,0-.34,.17-.51,.52-.51h2.04c-.11-.13-.21-.25-.31-.34-.17-.14-.34-.29-.51-.45-.13-.14-.2-.28-.2-.42,0-.35,.17-.53,.52-.53,.11,0,.25,.02,.41,.07,.2,.19,.39,.36,.58,.52,.25,.24,.5,.52,.74,.82,.09,.16,.13,.27,.13,.35h.91V2.59c-1.78,.1-3.05,.15-3.78,.15-.44,0-.66-.2-.66-.6,0-.37,.19-.55,.55-.55,1.46,0,2.82-.04,4.08-.11,1.55-.08,3-.23,4.35-.44Zm-7.36,8.22l6.59,.03c.66,0,.99,.31,.99,.92l-.02,4.8c0,.61-.34,.91-1,.91l-6.59-.03c-.66,0-.99-.31-.99-.92l.02-4.8c0-.61,.34-.91,1-.91Zm2.71,5.59l.03-1.88h-2.54v1.38c0,.32,.12,.48,.37,.48h2.14Zm-2.51-2.86h2.56l.02-1.65h-2.19c-.25-.01-.38,.14-.38,.44v1.21Zm5.76,2.88c.25,0,.38-.16,.38-.48v-1.39h-2.42l-.03,1.86h2.06Zm-1.99-4.52l-.02,1.66h2.41v-1.2c0-.3-.12-.45-.37-.45h-2.01Z"/></g><g><g><path class="e" d="M16.33,16.33c-.47,.47-1.09,.61-1.38,.32l-.54-.54,1.69-1.72,.56,.56c.29,.29,.14,.91-.33,1.38Z"/><path class="e" d="M15.63,13.85l-3.48-3.51c.71-1.05,1.12-2.31,1.13-3.67C13.3,3,10.34,.02,6.67,0,3-.02-.04,2.94,0,6.61c.04,3.74,2.99,6.71,6.61,6.67,1.44-.01,2.77-.45,3.86-1.22l3.47,3.51,1.69-1.72Zm-4.32-7.1c-.01,2.58-2.11,4.66-4.69,4.65S1.96,9.29,1.97,6.71,4.08,2.05,6.66,2.06s4.66,2.11,4.65,4.69Z"/></g><path class="e" d="M6.65,11.04c-2.38-.01-4.31-1.96-4.3-4.34,.01-2.38,1.96-4.31,4.34-4.3s4.31,1.96,4.3,4.34c-.01,2.38-1.96,4.31-4.34,4.3Zm.04-8.4c-2.25-.01-4.09,1.81-4.1,4.06-.01,2.25,1.81,4.09,4.06,4.1,2.25,.01,4.09-1.81,4.1-4.06,.01-2.25-1.81-4.09-4.06-4.1Z"/></g></g></g></g></svg>