<?xml version="1.0" encoding="UTF-8"?><svg xmlns="http://www.w3.org/2000/svg" viewBox="0 0 124 32.42"><defs><style>.d{fill:#e9528e;}.e{fill:#fff;}</style></defs><g id="a"/><g id="b"><g id="c"><g><rect class="e" x="0" y=".21" width="124" height="32" rx="16" ry="16" transform="translate(.08 -.29) rotate(.26)"/><g><path class="d" d="M38.23,11.49c.42,0,.63,.21,.63,.64,0,.41-.21,.61-.64,.61h-.91v3.18c.24-.17,.53-.36,.83-.56,.13-.05,.2-.07,.21-.07,.42,0,.63,.24,.63,.71,0,.13-.08,.26-.25,.4-.36,.31-.85,.65-1.45,1l-.03,5.55c0,.94-.55,1.4-1.64,1.4-.26,0-.6-.07-1.04-.22-.34-.12-.51-.33-.51-.64,.01-.4,.18-.61,.51-.63,.04,0,.09,0,.16,.02,.42,.13,.69,.2,.81,.2,.29,0,.44-.16,.44-.49l.02-4.59c-.36,.17-.72,.32-1.06,.43-.11,.05-.21,.07-.3,.07-.42,0-.63-.22-.63-.65,0-.35,.17-.58,.51-.7,.57-.18,1.07-.37,1.48-.56l.02-3.87h-1.21c-.42,0-.63-.21-.63-.62,0-.42,.21-.63,.64-.63h1.21v-2.81c.02-.43,.23-.65,.65-.65s.63,.22,.63,.65v2.81h.9Zm6.13-3.62c.42,0,.63,.21,.63,.64l-.04,8.7h3.02c.78,.02,1.18,.33,1.17,.95,0,.2-.15,.5-.46,.91-.68,.83-1.45,1.57-2.31,2.22-.15,.1-.31,.21-.46,.31,.3,.14,.61,.29,.93,.44,.69,.27,1.64,.57,2.86,.89,.37,.06,.56,.27,.56,.64,0,.52-.26,.77-.78,.77-1.07-.27-1.97-.57-2.72-.89-.83-.34-1.56-.69-2.19-1.05-.26,.15-.53,.29-.83,.42-1.29,.58-2.51,1.01-3.66,1.28-.48,.13-.79,.19-.93,.19-.52,0-.77-.24-.77-.71,0-.32,.19-.5,.57-.56,1.2-.25,2.14-.51,2.83-.76,.57-.2,1.11-.41,1.6-.63-.01-.01-.03-.02-.05-.04-1.24-.87-2.28-1.81-3.12-2.81-.15-.19-.24-.35-.26-.48-.39,0-.58-.19-.58-.56,0-.39,.19-.58,.57-.58l3.74,.02,.04-8.7c0-.42,.21-.63,.64-.63Zm-1.85,.47c.37,0,.56,.21,.56,.64,0,.27-.14,.46-.41,.56-.35,.14-.87,.31-1.55,.5-.25,.05-.37,.2-.37,.47v1.21h1.84c.32,0,.47,.18,.47,.5,0,.36-.16,.54-.48,.54h-1.85v1.13c0,.47,.23,.7,.71,.71h1.2c.41,0,.61,.2,.61,.57,0,.41-.21,.61-.62,.61h-2.04c-.76-.01-1.14-.41-1.14-1.19l.02-4.31c0-.46,.1-.76,.3-.9,.15-.17,.48-.3,.97-.36,.62-.17,1.14-.36,1.55-.57,.11-.08,.18-.12,.21-.12Zm-1.07,9.99c.68,.72,1.41,1.36,2.19,1.93,.34,.25,.69,.48,1.07,.71,.01-.01,.03-.02,.05-.03,.83-.5,1.62-1.14,2.35-1.92,.2-.25,.3-.39,.3-.44,0-.14-.07-.21-.21-.21l-5.75-.03Zm4.6-9.49h2.25c.8,.01,1.19,.4,1.19,1.16l-.02,4.64c0,.79-.4,1.18-1.2,1.17h-2.25c-.43-.01-.65-.22-.65-.63,0-.38,.22-.56,.65-.56h1.74c.34,0,.51-.16,.51-.5v-1.34h-2.24c-.34-.01-.51-.19-.51-.56,0-.33,.17-.49,.51-.49h2.25v-1.27c0-.27-.16-.41-.5-.41h-1.74c-.43,0-.65-.22-.65-.64,0-.39,.22-.58,.65-.58Z"/><path class="d" d="M65.37,18.5h-2.06c-.64-.01-.97-.34-.96-1v-2.25c.01-.62,.34-.93,.98-.93l4.87,.02c.7,0,1.05,.32,1.05,.94v2.25c-.01,.66-.37,.98-1.07,.98h-1.55v.96h2.72c.39,.01,.58,.21,.58,.6,0,.38-.2,.56-.58,.56h-2.72v2.45c-.02,.89-.56,1.33-1.63,1.33-.8,0-1.71-.15-2.74-.43-.34-.1-.51-.29-.51-.58,.03-.43,.22-.66,.58-.68,1.47,.29,2.34,.43,2.58,.43,.29,0,.44-.04,.44-.14v-2.39l-11.45-.05c-.39,0-.58-.19-.58-.56,0-.39,.2-.58,.58-.58l11.46,.05v-.97Zm-4.62-4.12c.33,0,.49,.17,.49,.49,0,.39-.17,.58-.49,.58h-2.39v1.57c.83-.11,1.58-.24,2.24-.39,.11-.05,.2-.07,.28-.07,.3,.01,.47,.18,.49,.51,0,.2-.12,.36-.37,.49-.79,.22-1.84,.44-3.17,.65-1,.16-2.22,.3-3.66,.42-.35-.01-.54-.22-.56-.64,0-.32,.17-.5,.49-.54,1.29-.09,2.3-.18,3.02-.28v-1.74h-2.65c-.33-.01-.49-.21-.49-.59,0-.33,.17-.49,.49-.49l6.26,.03Zm-4.98-5.77l10.77,.05c.7,0,1.05,.31,1.05,.92v.9h1.47c.33,0,.49,.18,.49,.52,0,.38-.17,.56-.49,.56h-1.48v.84c0,.66-.36,.98-1.06,.98l-10.77-.05c-.42,0-.63-.2-.63-.58,0-.32,.21-.47,.63-.47l10.14,.05c.32,0,.48-.18,.48-.56v-.21l-12.23-.06c-.33,0-.49-.19-.49-.56,0-.34,.17-.51,.49-.51l12.23,.06v-.26c0-.34-.15-.51-.47-.51l-10.14-.05c-.42,0-.63-.19-.63-.56,0-.32,.21-.47,.63-.47Zm1.49,12.36c.11,0,.23,.08,.37,.23,.54,.45,1.05,.97,1.54,1.55,.09,.16,.14,.3,.14,.42,0,.38-.22,.56-.65,.56-.11,0-.22-.05-.33-.14-.5-.55-1.04-1.09-1.61-1.62-.1-.18-.16-.29-.16-.35,0-.43,.24-.65,.71-.65Zm10.37-3.54c.28,0,.42-.16,.42-.47v-1.14c0-.27-.13-.41-.41-.41l-3.73-.02c-.23,0-.35,.13-.35,.4v1.14c0,.32,.11,.48,.34,.48l3.73,.02Z"/><path class="d" d="M87.98,11.21c.43,0,.65,.22,.65,.65,0,.42-.22,.63-.65,.63l-6.24-.03-.02,4.2,5.34,.02c.42,0,.63,.21,.63,.64,0,.43-.21,.65-.64,.65l-5.34-.02-.02,4.85,6.75,.03c.42,0,.63,.21,.63,.62,0,.43-.21,.65-.64,.65l-14.85-.07c-.42,0-.63-.22-.63-.65,0-.41,.21-.61,.64-.61l6.7,.03,.02-4.85-5.41-.02c-.42,0-.63-.22-.63-.65,0-.42,.21-.63,.64-.63l5.41,.02,.02-4.2-6.33-.03c-.42,0-.63-.21-.63-.64,0-.43,.21-.65,.64-.65l6.92,.03c-.41-.65-.84-1.28-1.31-1.89-.08-.21-.12-.35-.12-.42,0-.48,.26-.72,.78-.72,.12,0,.26,.07,.42,.21,.45,.6,.89,1.29,1.31,2.06,.09,.15,.14,.29,.14,.42,0,.14-.02,.25-.07,.33l5.91,.03Z"/><path class="d" d="M96.4,11.39c.41,0,.61,.21,.61,.64,0,.43-.21,.65-.62,.65h-.93v3.04c.24-.19,.53-.41,.83-.66l.23-.05c.42,0,.63,.24,.63,.71,0,.14-.08,.3-.25,.47-.35,.34-.84,.7-1.46,1.08l-.03,5.75c0,1.03-.59,1.54-1.75,1.54-.21,0-.49-.08-.84-.23-.34-.11-.51-.31-.51-.62,.03-.4,.2-.61,.51-.63,.02,0,.06,0,.12,.02,.36,.13,.6,.2,.72,.2,.33,0,.49-.19,.49-.58l.02-4.73c-.34,.16-.67,.31-.99,.45-.11,.05-.2,.07-.28,.07-.43,0-.65-.21-.65-.64,0-.37,.17-.61,.51-.7,.55-.21,1.02-.42,1.41-.64l.02-3.85h-1.14c-.42,0-.63-.23-.63-.66,0-.42,.21-.63,.64-.63h1.14v-2.44c.01-.43,.22-.65,.63-.65,.42,0,.63,.22,.63,.65v2.44h.92Zm10.7-2.83c.37,0,.56,.24,.56,.71,0,.3-.24,.49-.71,.56-.88,.11-2,.22-3.38,.32v2.43h.8c.13-.17,.26-.34,.39-.5,.28-.4,.54-.82,.78-1.26,.13-.17,.31-.26,.55-.26,.16,0,.3,.05,.4,.16,.1,.11,.16,.24,.16,.41,0,.14-.04,.27-.12,.4-.17,.3-.35,.59-.57,.86-.06,.07-.11,.14-.16,.21h1.92c.36,.01,.54,.19,.54,.56,0,.38-.18,.56-.55,.56l-3.81-.02c.49,.39,1.01,.74,1.56,1.04,1.03,.58,1.93,1.01,2.72,1.3,.29,.14,.44,.35,.44,.63,0,.14-.05,.28-.16,.42-.12,.15-.28,.23-.48,.23-.16,0-.33-.04-.49-.13-.74-.38-1.44-.78-2.12-1.2-.62-.38-1.22-.81-1.8-1.31v1.85c-.01,.42-.23,.63-.66,.63-.42,0-.63-.21-.63-.64v-1.93c-.41,.41-.86,.77-1.33,1.1-.68,.51-1.65,1.06-2.91,1.64-.19,.05-.3,.07-.33,.07-.36,0-.54-.24-.54-.71,0-.26,.14-.44,.41-.54,1.31-.54,2.34-1.07,3.08-1.59,.41-.27,.79-.56,1.15-.87l-4.08-.02c-.36,0-.54-.19-.54-.57,0-.36,.18-.54,.55-.54h2.16c-.12-.14-.23-.27-.33-.36-.18-.15-.36-.31-.54-.48-.14-.15-.21-.3-.21-.44,0-.38,.18-.56,.55-.56,.12,0,.26,.02,.44,.07,.21,.2,.41,.38,.61,.55,.27,.26,.53,.55,.79,.86,.09,.17,.14,.29,.14,.37h.97v-2.35c-1.89,.11-3.22,.16-4,.16-.47,0-.7-.21-.7-.64,0-.39,.2-.58,.58-.58,1.55,0,2.99-.04,4.32-.12,1.64-.09,3.18-.24,4.61-.47Zm-7.79,8.7l6.98,.03c.7,0,1.05,.33,1.05,.97l-.02,5.08c0,.64-.36,.96-1.06,.96l-6.98-.03c-.7,0-1.05-.33-1.05-.97l.02-5.08c0-.64,.36-.96,1.06-.96Zm2.87,5.92l.03-1.99h-2.69v1.46c0,.34,.13,.51,.4,.51h2.27Zm-2.66-3.02h2.71l.03-1.74h-2.32c-.27-.01-.4,.15-.41,.46v1.28Zm6.1,3.05c.27,0,.4-.17,.41-.51v-1.48h-2.56l-.03,1.97h2.18Zm-2.1-4.78l-.03,1.76h2.55v-1.27c0-.32-.13-.48-.4-.48h-2.13Z"/></g><g><g><path class="d" d="M28.48,23.98c-.47,.47-1.09,.61-1.38,.32l-.54-.54,1.69-1.72,.56,.56c.29,.29,.14,.91-.33,1.38Z"/><path class="d" d="M27.79,21.5l-3.48-3.51c.71-1.05,1.12-2.31,1.13-3.67,.02-3.67-2.94-6.65-6.61-6.67-3.67-.02-6.71,2.94-6.67,6.61,.04,3.74,2.99,6.71,6.61,6.67,1.44-.01,2.77-.45,3.86-1.22l3.47,3.51,1.69-1.72Zm-4.32-7.1c-.01,2.58-2.11,4.66-4.69,4.65s-4.66-2.11-4.65-4.69,2.11-4.66,4.69-4.65,4.66,2.11,4.65,4.69Z"/></g><path class="d" d="M18.81,18.69c-2.38-.01-4.31-1.96-4.3-4.34,.01-2.38,1.96-4.31,4.34-4.3s4.31,1.96,4.3,4.34c-.01,2.38-1.96,4.31-4.34,4.3Zm.04-8.4c-2.25-.01-4.09,1.81-4.1,4.06-.01,2.25,1.81,4.09,4.06,4.1,2.25,.01,4.09-1.81,4.1-4.06,.01-2.25-1.81-4.09-4.06-4.1Z"/></g></g></g></g></svg>