<svg width="139" height="17" viewBox="0 0 139 17" fill="none" xmlns="http://www.w3.org/2000/svg">
<g clip-path="url(#clip0_102_240)">
<path d="M133.7 3.90015L138.2 8.40015L133.7 12.9001" stroke="white" stroke-linecap="round" stroke-linejoin="round"/>
<path d="M26.93 3.80013C27.33 3.80013 27.53 4.00013 27.52 4.40013C27.52 4.79013 27.32 4.98013 26.92 4.98013H26.06V7.98013C26.29 7.81013 26.56 7.64013 26.85 7.45013C26.97 7.41013 27.04 7.38013 27.05 7.38013C27.45 7.38013 27.65 7.60013 27.64 8.05013C27.64 8.17013 27.56 8.30013 27.41 8.43013C27.07 8.73013 26.61 9.04013 26.04 9.37013L26.02 14.6201C26.02 15.5101 25.5 15.9501 24.47 15.9401C24.23 15.9401 23.9 15.8701 23.49 15.7401C23.17 15.6301 23.01 15.4301 23.01 15.1401C23.02 14.7601 23.18 14.5601 23.49 14.5401C23.52 14.5401 23.57 14.5401 23.64 14.5601C24.04 14.6801 24.29 14.7501 24.4 14.7501C24.68 14.7501 24.82 14.6001 24.82 14.2901L24.84 9.96013C24.5 10.1201 24.16 10.2601 23.84 10.3701C23.74 10.4101 23.65 10.4401 23.56 10.4401C23.16 10.4401 22.96 10.2301 22.97 9.82013C22.97 9.49013 23.13 9.27013 23.45 9.16013C23.99 8.99013 24.46 8.81013 24.85 8.64013L24.87 4.99013H23.72C23.32 4.99013 23.12 4.79013 23.13 4.40013C23.13 4.00013 23.33 3.80013 23.73 3.81013H24.88V1.14013C24.89 0.730127 25.09 0.530127 25.49 0.530127C25.89 0.530127 26.09 0.740127 26.08 1.15013V3.80013H26.93ZM32.72 0.380127C33.12 0.380127 33.32 0.580127 33.31 0.980127L33.27 9.20013H36.13C36.87 9.22013 37.24 9.51013 37.24 10.1001C37.24 10.2901 37.09 10.5801 36.8 10.9601C36.15 11.7401 35.43 12.4401 34.62 13.0601C34.48 13.1601 34.33 13.2601 34.19 13.3601C34.48 13.4901 34.77 13.6301 35.07 13.7801C35.72 14.0401 36.62 14.3201 37.77 14.6201C38.12 14.6801 38.3 14.8801 38.3 15.2201C38.3 15.7101 38.05 15.9501 37.57 15.9501C36.56 15.6901 35.71 15.4101 35 15.1101C34.22 14.7901 33.53 14.4601 32.93 14.1201C32.69 14.2601 32.42 14.3901 32.15 14.5201C30.93 15.0701 29.78 15.4701 28.69 15.7301C28.24 15.8501 27.94 15.9101 27.81 15.9101C27.32 15.9101 27.08 15.6801 27.08 15.2401C27.08 14.9401 27.26 14.7601 27.61 14.7101C28.74 14.4701 29.63 14.2301 30.29 13.9901C30.83 13.8001 31.34 13.6101 31.8 13.4001C31.79 13.3901 31.77 13.3801 31.75 13.3701C30.58 12.5501 29.6 11.6601 28.81 10.7201C28.67 10.5401 28.58 10.3901 28.56 10.2701C28.19 10.2701 28.01 10.0901 28.01 9.74013C28.01 9.37013 28.19 9.19013 28.54 9.20013L32.08 9.22013L32.12 1.00013C32.12 0.600127 32.32 0.400127 32.72 0.410127V0.380127ZM30.97 0.820127C31.32 0.820127 31.5 1.02013 31.5 1.42013C31.5 1.67013 31.37 1.85013 31.12 1.95013C30.79 2.08013 30.3 2.24013 29.66 2.42013C29.43 2.46013 29.31 2.61013 29.31 2.87013V4.02013H31.05C31.35 4.02013 31.5 4.19013 31.5 4.49013C31.5 4.83013 31.35 5.00013 31.05 5.00013H29.31V6.07013C29.31 6.51013 29.53 6.74013 29.98 6.74013H31.11C31.5 6.74013 31.69 6.93013 31.69 7.28013C31.69 7.67013 31.49 7.86013 31.11 7.86013H29.18C28.46 7.85013 28.1 7.48013 28.11 6.73013L28.13 2.66013C28.13 2.23013 28.23 1.95013 28.42 1.81013C28.56 1.64013 28.87 1.53013 29.33 1.47013C29.92 1.31013 30.4 1.13013 30.79 0.930127C30.89 0.850127 30.96 0.810127 30.99 0.810127L30.97 0.820127ZM29.96 10.2601C30.6 10.9401 31.29 11.5401 32.03 12.0801C32.35 12.3101 32.69 12.5401 33.04 12.7501C33.05 12.7401 33.07 12.7301 33.09 12.7201C33.88 12.2501 34.62 11.6401 35.31 10.9001C35.5 10.6701 35.59 10.5301 35.59 10.4901C35.59 10.3601 35.52 10.2901 35.39 10.2901L29.96 10.2601ZM34.31 1.30013H36.43C37.18 1.31013 37.56 1.68013 37.55 2.39013L37.53 6.77013C37.53 7.51013 37.15 7.88013 36.4 7.88013H34.28C33.87 7.87013 33.67 7.67013 33.67 7.29013C33.67 6.94013 33.88 6.76013 34.29 6.76013H35.93C36.25 6.76013 36.41 6.61013 36.41 6.29013V5.03013H34.29C33.97 5.02013 33.81 4.85013 33.81 4.50013C33.81 4.19013 33.97 4.04013 34.29 4.04013H36.41V2.84013C36.41 2.59013 36.26 2.46013 35.94 2.46013H34.3C33.89 2.46013 33.69 2.25013 33.69 1.85013C33.69 1.48013 33.9 1.30013 34.31 1.31013V1.30013Z" fill="white"/>
<path d="M52.56 10.4301H50.62C50.01 10.4201 49.71 10.1101 49.71 9.49009V7.37009C49.72 6.78009 50.03 6.49009 50.64 6.49009L55.24 6.51009C55.9 6.51009 56.23 6.81009 56.23 7.39009V9.51009C56.22 10.1301 55.88 10.4401 55.22 10.4401H53.76V11.3501H56.33C56.7 11.3601 56.88 11.5501 56.88 11.9101C56.88 12.2601 56.69 12.4401 56.33 12.4401H53.76V14.7501C53.75 15.5901 53.23 16.0101 52.22 16.0001C51.47 16.0001 50.6 15.8601 49.63 15.5901C49.31 15.5001 49.15 15.3201 49.15 15.0401C49.17 14.6301 49.36 14.4201 49.7 14.4001C51.09 14.6701 51.91 14.8101 52.14 14.8101C52.42 14.8101 52.56 14.7701 52.56 14.6801V12.4201L41.75 12.3701C41.38 12.3701 41.2 12.1901 41.2 11.8401C41.2 11.4701 41.39 11.2901 41.75 11.2901L52.57 11.3401V10.4301H52.56ZM48.2 6.54009C48.51 6.54009 48.66 6.70009 48.66 7.01009C48.66 7.38009 48.5 7.56009 48.19 7.56009H45.93V9.04009C46.71 8.93009 47.42 8.81009 48.05 8.67009C48.15 8.63009 48.24 8.60009 48.32 8.60009C48.61 8.61009 48.76 8.77009 48.78 9.08009C48.78 9.27009 48.66 9.42009 48.43 9.54009C47.69 9.75009 46.69 9.95009 45.44 10.1601C44.5 10.3101 43.35 10.4401 41.99 10.5601C41.66 10.5501 41.48 10.3501 41.46 9.96009C41.46 9.66009 41.62 9.49009 41.93 9.45009C43.15 9.37009 44.1 9.28009 44.79 9.18009V7.54009H42.29C41.98 7.53009 41.83 7.34009 41.83 6.98009C41.83 6.67009 41.99 6.52009 42.3 6.52009L48.21 6.55009L48.2 6.54009ZM43.49 1.09009L53.67 1.14009C54.33 1.14009 54.66 1.43009 54.66 2.01009V2.86009H56.05C56.36 2.86009 56.51 3.03009 56.51 3.35009C56.51 3.70009 56.35 3.88009 56.04 3.88009H54.65V4.67009C54.65 5.29009 54.31 5.60009 53.65 5.60009L43.47 5.55009C43.07 5.55009 42.87 5.36009 42.87 5.00009C42.87 4.70009 43.07 4.55009 43.47 4.55009L53.05 4.59009C53.35 4.59009 53.5 4.42009 53.5 4.06009V3.86009L41.95 3.81009C41.64 3.81009 41.49 3.63009 41.49 3.28009C41.49 2.96009 41.65 2.80009 41.96 2.80009L53.51 2.85009V2.60009C53.51 2.28009 53.36 2.12009 53.07 2.12009L43.49 2.08009C43.09 2.08009 42.89 1.90009 42.89 1.55009C42.89 1.25009 43.09 1.10009 43.49 1.10009V1.09009ZM44.9 12.7701C45 12.7701 45.12 12.8401 45.25 12.9901C45.76 13.4101 46.24 13.9001 46.7 14.4601C46.79 14.6201 46.83 14.7501 46.83 14.8601C46.83 15.2101 46.62 15.3901 46.21 15.3901C46.11 15.3901 46.01 15.3401 45.9 15.2601C45.43 14.7401 44.92 14.2301 44.38 13.7301C44.28 13.5601 44.23 13.4501 44.23 13.4001C44.23 12.9901 44.45 12.7901 44.9 12.7901V12.7701ZM54.69 9.43009C54.96 9.43009 55.09 9.28009 55.09 8.98009V7.90009C55.09 7.65009 54.96 7.52009 54.7 7.52009L51.18 7.50009C50.96 7.50009 50.85 7.63009 50.85 7.88009V8.96009C50.85 9.26009 50.95 9.41009 51.17 9.41009L54.69 9.43009Z" fill="white"/>
<path d="M16.33 16.3301C15.86 16.8001 15.24 16.9401 14.95 16.6501L14.41 16.1101L16.1 14.3901L16.66 14.9501C16.95 15.2401 16.8 15.8601 16.33 16.3301Z" fill="white"/>
<path d="M15.63 13.8501L12.15 10.3401C12.86 9.2901 13.27 8.0301 13.28 6.6701C13.3 3.0001 10.34 0.0201008 6.67 0.000100757C3 -0.0198992 -0.0400007 2.9401 -7.22677e-07 6.6101C0.0399993 10.3501 2.99 13.3201 6.61 13.2801C8.05 13.2701 9.38 12.8301 10.47 12.0601L13.94 15.5701L15.63 13.8501ZM11.31 6.7501C11.3 9.3301 9.2 11.4101 6.62 11.4001C4.04 11.3901 1.96 9.2901 1.97 6.7101C1.98 4.1301 4.08 2.0501 6.66 2.0601C9.24 2.0701 11.32 4.1701 11.31 6.7501Z" fill="white"/>
<path d="M6.65 11.0402C4.27 11.0302 2.34 9.08018 2.35 6.70018C2.36 4.32018 4.31 2.39019 6.69 2.40019C9.07 2.41019 11 4.36018 10.99 6.74018C10.98 9.12018 9.03 11.0502 6.65 11.0402ZM6.69 2.64019C4.44 2.63019 2.6 4.45018 2.59 6.70018C2.58 8.95018 4.4 10.7902 6.65 10.8002C8.9 10.8102 10.74 8.99018 10.75 6.74018C10.76 4.49018 8.94 2.65019 6.69 2.64019Z" fill="white"/>
<path d="M66.9659 0.0119545C67.061 -0.0013554 67.1578 0.00757687 67.2488 0.0380485C67.3398 0.0685201 67.4225 0.119699 67.4903 0.187556C67.5582 0.255412 67.6093 0.338094 67.6398 0.429092C67.6703 0.520089 67.6792 0.616918 67.6659 0.711954V1.71195H74.2759C74.3527 1.70179 74.4309 1.70963 74.5041 1.73484C74.5774 1.76005 74.6438 1.80195 74.6981 1.85723C74.7524 1.9125 74.7932 1.97965 74.8171 2.05336C74.841 2.12707 74.8474 2.20532 74.8359 2.28195C74.8359 2.71195 74.6459 2.93195 74.2759 2.93195H70.8159L70.0559 5.04195H72.8659C73.0333 5.01668 73.2042 5.03003 73.3657 5.08097C73.5271 5.13191 73.6747 5.21911 73.7973 5.33587C73.9199 5.45264 74.0141 5.59589 74.0728 5.75467C74.1315 5.91345 74.1531 6.08355 74.1359 6.25195V14.482C74.1359 15.712 73.5459 16.322 72.3659 16.322C71.5217 16.3094 70.6808 16.2123 69.8559 16.032C69.7307 16.0045 69.6187 15.9349 69.5386 15.8348C69.4585 15.7347 69.4152 15.6101 69.4159 15.482C69.4159 15.012 69.5859 14.782 69.9259 14.782C70.1135 14.7867 70.3005 14.8034 70.4859 14.832C71.0642 14.9628 71.6534 15.0397 72.2459 15.062C72.6659 15.062 72.8759 14.822 72.8759 14.342V6.83195C72.8759 6.45195 72.7059 6.26195 72.3659 6.26195H69.0759V7.52195C69.0759 7.86195 69.2059 8.03195 69.4759 8.03195H71.8159C71.9503 8.05003 72.0735 8.11625 72.1628 8.21832C72.2521 8.32038 72.3013 8.45137 72.3013 8.58695C72.3013 8.72254 72.2521 8.85353 72.1628 8.95559C72.0735 9.05766 71.9503 9.12388 71.8159 9.14195H69.2659C69.0749 9.16894 68.8802 9.15098 68.6973 9.08951C68.5145 9.02803 68.3485 8.92474 68.2125 8.78783C68.0766 8.65093 67.9745 8.4842 67.9143 8.3009C67.8541 8.1176 67.8376 7.92278 67.8659 7.73195V6.25195H65.6659C65.6349 6.8122 65.5098 7.36323 65.2959 7.88195C65.0783 8.40825 64.7004 8.85262 64.2159 9.15195C63.5793 9.52517 62.8628 9.74115 62.1259 9.78195H61.8959C61.5459 9.78195 61.3659 9.54195 61.3559 9.08195C61.3562 8.94832 61.4034 8.81904 61.4893 8.71668C61.5752 8.61432 61.6944 8.5454 61.8259 8.52195C62.3725 8.49087 62.9068 8.34792 63.3959 8.10195C63.7509 7.91073 64.0376 7.61363 64.2159 7.25195C64.3736 6.93872 64.4751 6.60026 64.5159 6.25195H61.4159C61.0859 6.25195 60.9159 6.44195 60.9259 6.81195V15.692C60.9361 15.7789 60.9261 15.867 60.8967 15.9495C60.8673 16.0319 60.8193 16.1065 60.7565 16.1675C60.6936 16.2284 60.6176 16.274 60.5342 16.3008C60.4509 16.3276 60.3625 16.3348 60.2759 16.322C60.1905 16.3335 60.1035 16.3252 60.0218 16.2976C59.9401 16.27 59.8659 16.224 59.8049 16.163C59.7439 16.102 59.6978 16.0278 59.6703 15.9461C59.6427 15.8644 59.6344 15.7774 59.6459 15.692V6.25195C59.6459 5.42195 60.0959 5.00195 60.9859 5.00195H63.7459L63.0359 2.89195H59.5659C59.1959 2.89195 59.0059 2.68195 59.0059 2.24195C58.994 2.16569 59.0002 2.08767 59.0241 2.01427C59.048 1.94086 59.0889 1.87414 59.1435 1.81956C59.1981 1.76497 59.2648 1.72405 59.3382 1.70014C59.4116 1.67622 59.4896 1.66999 59.5659 1.68195H66.2159V0.681955C66.2079 0.584808 66.2225 0.48712 66.2586 0.396579C66.2947 0.306038 66.3514 0.225112 66.4241 0.16017C66.4968 0.0952285 66.5835 0.0480417 66.6776 0.0223229C66.7716 -0.00339595 66.8703 -0.00694493 66.9659 0.0119545ZM63.8059 10.012H69.9159C70.5159 10.012 70.8159 10.302 70.8159 10.872V13.402C70.8159 13.962 70.5159 14.252 69.9259 14.252H63.8059C63.6917 14.2688 63.5752 14.2587 63.4656 14.2224C63.356 14.1861 63.2564 14.1248 63.1747 14.0431C63.0931 13.9615 63.0317 13.8619 62.9955 13.7523C62.9592 13.6427 62.9491 13.5262 62.9659 13.412V10.852C62.9478 10.7366 62.9568 10.6187 62.9923 10.5075C63.0277 10.3962 63.0887 10.2948 63.1703 10.2113C63.2518 10.1278 63.3518 10.0645 63.4621 10.0264C63.5725 9.98832 63.6902 9.97653 63.8059 9.99195V10.012ZM69.2159 13.102C69.273 13.1104 69.3313 13.1053 69.3861 13.0872C69.4409 13.0691 69.4907 13.0384 69.5315 12.9975C69.5723 12.9567 69.603 12.9069 69.6211 12.8521C69.6393 12.7973 69.6443 12.7391 69.6359 12.682V11.542C69.6426 11.4856 69.6363 11.4285 69.6174 11.375C69.5985 11.3215 69.5676 11.2731 69.527 11.2334C69.4864 11.1938 69.4372 11.164 69.3833 11.1464C69.3293 11.1288 69.2721 11.1239 69.2159 11.132H64.5059C64.2659 11.132 64.1359 11.262 64.1359 11.532V12.672C64.1359 12.952 64.2659 13.092 64.5059 13.092L69.2159 13.102ZM65.0659 5.02195H68.7259L69.4559 2.91195H64.3659L65.0659 5.02195Z" fill="white"/>
<path d="M78.5159 7.83189H83.4159C84.1359 7.83189 84.4859 8.16189 84.4859 8.83189V14.9419C84.4966 15.083 84.4753 15.2247 84.4235 15.3564C84.3718 15.4881 84.291 15.6064 84.1872 15.7025C84.0834 15.7987 83.9592 15.8701 83.8239 15.9116C83.6887 15.953 83.5458 15.9634 83.4059 15.9419H78.5159C77.8059 15.9419 77.4459 15.6019 77.4459 14.9419V8.81189C77.4459 8.15189 77.7959 7.83189 78.5159 7.83189ZM82.7359 14.8319C83.0459 14.8319 83.2059 14.6519 83.2059 14.2719V9.5119C83.2059 9.1819 83.0459 9.0219 82.7359 9.0219H79.2159C78.8759 9.0219 78.7059 9.1819 78.7059 9.5119V14.2519C78.7059 14.6319 78.8759 14.8119 79.2159 14.8119L82.7359 14.8319ZM80.5459 0.441895H90.0959C90.8959 0.441895 91.3059 0.811895 91.3059 1.5519V5.3419C91.331 5.507 91.3171 5.67568 91.2654 5.83446C91.2136 5.99323 91.1254 6.13768 91.0078 6.25625C90.8902 6.37483 90.7465 6.46422 90.5881 6.5173C90.4298 6.57037 90.2612 6.58564 90.0959 6.5619H80.5559C80.3919 6.5857 80.2246 6.57073 80.0675 6.51818C79.9103 6.46563 79.7677 6.37697 79.651 6.25931C79.5343 6.14165 79.4468 5.99827 79.3956 5.84068C79.3443 5.68309 79.3307 5.51568 79.3559 5.3519V1.5519C79.3559 0.811895 79.7559 0.441895 80.5459 0.441895ZM89.3859 5.3419C89.8159 5.3419 90.0259 5.1119 90.0259 4.6419V2.25189C90.0378 2.16549 90.0294 2.07749 90.0013 1.99491C89.9732 1.91234 89.9262 1.83747 89.864 1.77628C89.8018 1.71509 89.7263 1.66927 89.6432 1.64246C89.5602 1.61566 89.4721 1.60862 89.3859 1.62189H81.2159C81.1297 1.60862 81.0416 1.61566 80.9586 1.64246C80.8756 1.66927 80.8 1.71509 80.7378 1.77628C80.6756 1.83747 80.6286 1.91234 80.6005 1.99491C80.5724 2.07749 80.564 2.16549 80.5759 2.25189V4.6419C80.5759 5.1119 80.7959 5.3519 81.2159 5.3519L89.3859 5.3419ZM87.2959 7.82189H92.2159C92.9159 7.82189 93.2159 8.15189 93.2159 8.82189V14.9419C93.2264 15.0759 93.2078 15.2106 93.1613 15.3367C93.1147 15.4628 93.0414 15.5773 92.9464 15.6724C92.8513 15.7674 92.7368 15.8407 92.6107 15.8873C92.4846 15.9338 92.3499 15.9524 92.2159 15.9419H87.3059C87.1665 15.9637 87.0239 15.9534 86.889 15.912C86.7541 15.8705 86.6305 15.7989 86.5274 15.7025C86.4242 15.6061 86.3444 15.4876 86.2939 15.3558C86.2434 15.224 86.2236 15.0825 86.2359 14.9419V8.81189C86.2159 8.15189 86.5859 7.82189 87.2959 7.82189ZM91.5059 14.8219C91.8459 14.8219 92.0159 14.6319 92.0159 14.2619V9.5119C92.0243 9.44466 92.0171 9.37639 91.9948 9.31242C91.9725 9.24844 91.9357 9.19048 91.8873 9.14305C91.8389 9.09562 91.7802 9.06002 91.7158 9.039C91.6514 9.01799 91.583 9.01213 91.5159 9.0219H88.0159C87.9492 9.01171 87.8811 9.01735 87.817 9.03838C87.7529 9.0594 87.6946 9.09521 87.6469 9.14291C87.5992 9.19061 87.5634 9.24886 87.5424 9.31296C87.5214 9.37706 87.5157 9.44521 87.5259 9.5119V14.2519C87.5259 14.6219 87.6859 14.8119 88.0159 14.8119L91.5059 14.8219Z" fill="white"/>
</g>
<defs>
<clipPath id="clip0_102_240">
<rect width="138.7" height="16.8" fill="white"/>
</clipPath>
</defs>
</svg>
