<?xml version="1.0" encoding="UTF-8"?><svg xmlns="http://www.w3.org/2000/svg" viewBox="0 0 17 12.41"><defs><style>.d{fill:#d6226d;}</style></defs><g id="a"/><g id="b"><g id="c"><g><polygon class="d" points="0 2.62 0 11.02 5.05 6.82 0 2.62"/><path class="d" d="M15.66,0H1.34C.68,0,.13,.48,.02,1.11L6.7,6.67l1.11,.93c.38,.31,1,.31,1.38,0l1.17-.97L16.98,1.11c-.11-.63-.66-1.11-1.32-1.11Z"/><polygon class="d" points="17 11.02 17 2.62 11.95 6.82 17 11.02"/><path class="d" d="M10.09,8.36l-.9,.75c-.38,.31-1,.31-1.38,0l-1.17-.97-.68-.57L.5,12.12c.23,.18,.52,.3,.84,.3H15.66c.32,0,.61-.11,.84-.3l-5.46-4.54-.94,.78Z"/></g></g></g></svg>