<?xml version="1.0" encoding="UTF-8"?>
<svg id="Layer_1" xmlns="http://www.w3.org/2000/svg" version="1.1" viewBox="0 0 17 12.4">
  <!-- Generator: Adobe Illustrator 29.1.0, SVG Export Plug-In . SVG Version: 2.1.0 Build 142)  -->
  <defs>
    <style>
      .st0 {
        fill: #f9b653;
      }
    </style>
  </defs>
  <g id="b">
    <g id="c">
      <g>
        <polygon class="st0" points="0 2.6 0 11 5.1 6.8 0 2.6"/>
        <path class="st0" d="M15.7,0H1.3C.7,0,.1.5,0,1.1l6.7,5.6,1.1.9c.4.3,1,.3,1.4,0l1.2-1,6.6-5.5C16.9.5,16.3,0,15.7,0Z"/>
        <polygon class="st0" points="17 11 17 2.6 11.9 6.8 17 11"/>
        <path class="st0" d="M10.1,8.4l-.9.8c-.4.3-1,.3-1.4,0l-1.2-1-.7-.6L.5,12.1c.2.2.5.3.8.3h14.3c.3,0,.6-.1.8-.3l-5.5-4.5-.9.8h0Z"/>
      </g>
    </g>
  </g>
</svg>