<?xml version="1.0" encoding="UTF-8"?><svg xmlns="http://www.w3.org/2000/svg" xmlns:xlink="http://www.w3.org/1999/xlink" viewBox="0 0 10 19.75"><defs><style>.f{fill:#fff;}.g{filter:url(#d);}</style><filter id="d" filterUnits="userSpaceOnUse"><feOffset dx="0" dy="0"/><feGaussianBlur result="e" stdDeviation="1"/><feFlood flood-color="#000" flood-opacity=".5"/><feComposite in2="e" operator="in"/><feComposite in="SourceGraphic"/></filter></defs><g id="a"/><g id="b"><g id="c"><g class="g"><path class="f" d="M9.37,9.32c-.35,0-.63,.28-.63,.63,0,1.03-.42,1.97-1.1,2.65-.68,.68-1.62,1.1-2.65,1.1s-1.97-.42-2.65-1.1c-.68-.68-1.1-1.62-1.1-2.65,0-.35-.28-.63-.63-.63S0,9.6,0,9.94c0,2.54,1.91,4.64,4.37,4.95v3.17H2.07c-.47,0-.84,.38-.84,.84,0,.47,.38,.84,.84,.84H7.93c.47,0,.84-.38,.84-.84s-.38-.84-.84-.84h-2.31v-3.17c2.31-.29,4.13-2.15,4.35-4.47l-.19-.02,.19,.02c.02-.16,.02-.32,.02-.48,0-.35-.28-.63-.63-.63Z"/><g><rect class="f" x="2.12" y="4.1" width="5.76" height=".93"/><path class="f" d="M5,0c-1.59,0-2.88,1.29-2.88,2.88v.29H7.88v-.29c0-1.59-1.29-2.88-2.88-2.88Z"/><path class="f" d="M2.12,9.57c0,1.59,1.29,2.88,2.88,2.88,1.59,0,2.88-1.29,2.88-2.88v-1.73H2.12v1.73Z"/><rect class="f" x="2.12" y="5.97" width="5.76" height=".93"/></g></g></g></g></svg>