<?xml version="1.0" encoding="UTF-8"?><svg xmlns="http://www.w3.org/2000/svg" viewBox="0 0 8 15.8"><defs><style>.d{fill:#fff;}</style></defs><g id="a"/><g id="b"><g id="c"><g><path class="d" d="M7.5,7.45c-.28,0-.5,.22-.5,.5,0,.83-.34,1.58-.88,2.12-.54,.54-1.29,.88-2.12,.88s-1.58-.34-2.12-.88c-.54-.54-.88-1.29-.88-2.12,0-.28-.22-.5-.5-.5S0,7.68,0,7.95c0,2.04,1.53,3.72,3.5,3.96v2.54H1.66c-.37,0-.68,.3-.68,.68,0,.37,.3,.68,.68,.68H6.34c.37,0,.68-.3,.68-.68s-.3-.68-.68-.68h-1.84v-2.54c1.84-.23,3.3-1.72,3.48-3.58h0c.01-.13,.02-.26,.02-.39,0-.28-.22-.5-.5-.5Z"/><g><rect class="d" x="1.7" y="3.28" width="4.61" height=".75"/><path class="d" d="M4,0C2.73,0,1.7,1.03,1.7,2.3v.23H6.3v-.23c0-1.27-1.03-2.3-2.3-2.3Z"/><path class="d" d="M1.7,7.66c0,1.27,1.03,2.3,2.3,2.3,1.27,0,2.3-1.03,2.3-2.3v-1.39H1.7v1.39Z"/><rect class="d" x="1.7" y="4.78" width="4.61" height=".75"/></g></g></g></g></svg>