<?xml version="1.0" encoding="UTF-8"?><svg xmlns="http://www.w3.org/2000/svg" xmlns:xlink="http://www.w3.org/1999/xlink" viewBox="0 0 38 38"><defs><style>.e{fill:#f7c437;}.f{fill:#005a00;}.g{fill:#008100;}.h{fill:#f1f2f2;}.i{fill:#ffa506;}.j{fill:red;}.k{fill:#8f0000;}.l{fill:url(#d);mix-blend-mode:color;}.m{isolation:isolate;}</style><radialGradient id="d" cx="19" cy="19" fx="19" fy="19" r="19" gradientTransform="matrix(1, 0, 0, 1, 0, 0)" gradientUnits="userSpaceOnUse"><stop offset="0" stop-color="#fffcd1"/><stop offset=".11" stop-color="#fcf5bf"/><stop offset=".33" stop-color="#f4e493"/><stop offset=".37" stop-color="#f3e18b"/><stop offset=".69" stop-color="#f1c500"/><stop offset="1" stop-color="#cb9b0c"/></radialGradient></defs><g class="m"><g id="a"/><g id="b"><g id="c"><g><g><g><path class="i" d="M38,19c0,10.49-8.51,19-19,19S0,29.49,0,19,8.51,0,19,0s19,8.51,19,19Z"/><path class="e" d="M36.47,19c0,9.65-7.82,17.47-17.47,17.47S1.53,28.65,1.53,19,9.35,1.53,19,1.53s17.47,7.82,17.47,17.47Z"/><path class="h" d="M35.77,19c0,.58-.03,1.15-.09,1.71-.11,1.07-.32,2.12-.62,3.12-.33,1.09-.76,2.13-1.29,3.12-.51,.95-1.11,1.84-1.79,2.67-.71,.87-1.52,1.67-2.39,2.39-.82,.67-1.7,1.26-2.64,1.76-.98,.53-2.03,.97-3.12,1.3-1.01,.3-2.06,.52-3.15,.62-.55,.06-1.12,.08-1.69,.08s-1.13-.03-1.69-.08c-1.07-.11-2.11-.31-3.11-.61-1.09-.33-2.14-.76-3.12-1.29-.95-.51-1.84-1.11-2.67-1.78-.87-.71-1.68-1.51-2.39-2.39-.67-.82-1.26-1.7-1.77-2.64-.53-.98-.97-2.03-1.3-3.12-.31-1.01-.52-2.07-.63-3.15-.06-.56-.09-1.13-.09-1.71s.03-1.12,.08-1.67c.11-1.07,.31-2.12,.61-3.12,.32-1.09,.76-2.14,1.29-3.12,.51-.95,1.11-1.85,1.79-2.68,.71-.87,1.51-1.68,2.39-2.39,.82-.67,1.71-1.27,2.65-1.78,.98-.53,2.03-.97,3.12-1.3,1.02-.31,2.07-.52,3.16-.63,.56-.06,1.12-.08,1.69-.08s1.13,.03,1.69,.08c1.08,.11,2.12,.32,3.13,.62,1.09,.33,2.14,.76,3.12,1.29,.95,.51,1.85,1.11,2.68,1.79,.87,.71,1.67,1.52,2.39,2.39,.67,.82,1.26,1.71,1.77,2.65,.53,.99,.97,2.03,1.29,3.12,.3,1.01,.52,2.07,.62,3.16,.05,.55,.08,1.1,.08,1.67Z"/><path d="M35.37,19c0,.56-.03,1.12-.08,1.67-.11,1.05-.31,2.07-.61,3.04-.32,1.07-.74,2.08-1.26,3.05-.5,.92-1.08,1.8-1.74,2.6-.7,.85-1.48,1.63-2.33,2.33-.8,.65-1.66,1.23-2.57,1.72-.96,.52-1.98,.94-3.05,1.26-.99,.3-2.01,.5-3.07,.61-.54,.05-1.09,.08-1.65,.08s-1.11-.03-1.65-.08c-1.05-.1-2.06-.31-3.04-.6-1.07-.32-2.09-.74-3.05-1.26-.93-.5-1.8-1.08-2.6-1.74-.85-.7-1.64-1.48-2.33-2.33-.65-.8-1.23-1.66-1.73-2.57-.52-.96-.95-1.98-1.27-3.04-.3-.99-.51-2.02-.61-3.08-.06-.55-.08-1.11-.08-1.67s.03-1.09,.08-1.63c.1-1.05,.31-2.07,.6-3.05,.32-1.07,.74-2.09,1.26-3.05,.5-.93,1.08-1.8,1.74-2.62,.7-.85,1.48-1.64,2.33-2.33,.8-.66,1.67-1.24,2.58-1.73,.96-.52,1.98-.95,3.04-1.27,.99-.3,2.02-.51,3.09-.61,.54-.05,1.09-.08,1.65-.08s1.11,.03,1.65,.08c1.05,.1,2.07,.31,3.05,.6,1.07,.32,2.09,.74,3.05,1.26,.93,.5,1.8,1.09,2.61,1.75,.85,.7,1.63,1.48,2.33,2.33,.65,.8,1.23,1.67,1.73,2.59,.52,.96,.94,1.98,1.26,3.05,.3,.99,.5,2.02,.61,3.08,.05,.54,.08,1.08,.08,1.63Z"/><g><path class="j" d="M20.65,2.71v3.72c-.12-.02-.25-.03-.37-.04-.42-.04-.85-.06-1.28-.06s-.86,.02-1.28,.06c-.12,.01-.25,.03-.37,.04V2.71c.54-.05,1.09-.08,1.65-.08s1.11,.03,1.65,.08Z"/><path class="j" d="M20.28,31.61c.12-.01,.25-.03,.37-.04v3.72c-.54,.05-1.09,.08-1.65,.08s-1.11-.03-1.65-.08v-3.72c.12,.02,.25,.03,.37,.04,.42,.04,.85,.06,1.28,.06s.86-.02,1.28-.06Z"/><path class="j" d="M6.39,20.29c.01,.13,.03,.25,.04,.38H2.71c-.06-.55-.08-1.11-.08-1.67s.03-1.09,.08-1.63h3.72c-.02,.12-.03,.24-.04,.37-.04,.41-.06,.83-.06,1.26s.02,.87,.06,1.29Z"/><path class="j" d="M35.37,19c0,.56-.03,1.12-.08,1.67h-3.72c.02-.13,.03-.25,.04-.38,.04-.42,.07-.86,.07-1.29s-.02-.85-.06-1.26c-.01-.12-.03-.25-.04-.37h3.72c.05,.54,.08,1.08,.08,1.63Z"/><path class="j" d="M11,28.83c.1,.08,.2,.16,.3,.23l-2.63,2.63c-.85-.7-1.64-1.48-2.33-2.33l2.63-2.63c.08,.1,.15,.2,.23,.29,.54,.66,1.15,1.26,1.81,1.8Z"/><path class="j" d="M31.69,8.66l-2.63,2.63c-.08-.1-.15-.2-.23-.3-.54-.66-1.14-1.27-1.8-1.81-.1-.08-.19-.16-.29-.23l2.63-2.63c.85,.7,1.63,1.48,2.33,2.33Z"/><path class="j" d="M8.64,6.33l2.63,2.63c-.1,.08-.19,.15-.29,.23-.66,.54-1.26,1.15-1.8,1.81-.08,.1-.16,.2-.23,.3l-2.63-2.63c.7-.85,1.48-1.64,2.33-2.33Z"/><path class="j" d="M31.67,29.36c-.7,.85-1.48,1.63-2.33,2.33l-2.63-2.63c.1-.08,.2-.16,.3-.23,.66-.54,1.27-1.14,1.81-1.8,.08-.1,.16-.19,.23-.29l2.63,2.63Z"/><path class="j" d="M15.37,31.15c.12,.04,.24,.07,.36,.1l-1.42,3.44c-1.07-.32-2.09-.74-3.05-1.26l1.42-3.44c.11,.06,.22,.12,.33,.18,.74,.4,1.53,.73,2.36,.97Z"/><path class="j" d="M26.75,4.58l-1.42,3.44c-.11-.06-.22-.12-.33-.18-.74-.4-1.53-.73-2.36-.98-.12-.04-.24-.07-.36-.1l1.42-3.44c1.07,.32,2.09,.74,3.05,1.26Z"/><path class="j" d="M4.56,11.28l3.44,1.42c-.06,.11-.12,.21-.18,.32-.4,.75-.73,1.53-.97,2.36-.04,.12-.07,.24-.1,.37l-3.44-1.42c.32-1.07,.74-2.09,1.26-3.05Z"/><path class="j" d="M34.68,23.72c-.32,1.07-.74,2.08-1.26,3.05l-3.44-1.42c.06-.11,.13-.22,.19-.33,.4-.74,.73-1.53,.98-2.36,.04-.12,.07-.24,.1-.36l3.44,1.42Z"/><path class="j" d="M7.85,25.03c.06,.11,.12,.22,.19,.33l-3.44,1.43c-.52-.96-.95-1.98-1.27-3.04l3.44-1.43c.03,.12,.07,.24,.1,.36,.25,.82,.58,1.61,.98,2.36Z"/><path class="j" d="M34.68,14.29l-3.44,1.43c-.03-.12-.07-.24-.1-.37-.25-.82-.58-1.61-.98-2.36-.06-.11-.12-.22-.18-.32l3.44-1.43c.52,.96,.94,1.98,1.26,3.05Z"/><path class="j" d="M14.26,3.32l1.43,3.44c-.12,.03-.24,.07-.36,.1-.82,.25-1.61,.58-2.36,.98-.11,.06-.22,.12-.33,.18l-1.43-3.44c.96-.52,1.98-.95,3.04-1.27Z"/><path class="j" d="M26.76,33.42c-.96,.52-1.98,.94-3.05,1.26l-1.43-3.44c.12-.03,.24-.07,.36-.1,.82-.25,1.61-.58,2.36-.98,.11-.06,.22-.12,.33-.18l1.43,3.44Z"/></g><path class="g" d="M31.69,19c0,.44-.02,.87-.07,1.3-.08,.81-.24,1.6-.47,2.36-.25,.83-.58,1.62-.98,2.36-.39,.72-.84,1.39-1.35,2.02-.54,.66-1.15,1.27-1.81,1.81-.62,.51-1.29,.95-2,1.34-.75,.4-1.54,.73-2.36,.98-.77,.23-1.56,.39-2.38,.47-.42,.04-.85,.06-1.28,.06s-.86-.02-1.28-.06c-.81-.08-1.6-.24-2.36-.46-.83-.25-1.62-.57-2.36-.98-.72-.39-1.39-.84-2.02-1.35-.66-.54-1.27-1.15-1.81-1.81-.51-.62-.96-1.29-1.34-2-.4-.74-.74-1.53-.98-2.36-.23-.77-.39-1.56-.48-2.39-.04-.43-.07-.86-.07-1.3s.02-.85,.06-1.26c.08-.81,.24-1.6,.46-2.36,.25-.83,.57-1.62,.97-2.36,.39-.72,.84-1.4,1.35-2.03,.54-.66,1.15-1.27,1.81-1.81,.62-.51,1.29-.96,2-1.34,.74-.4,1.53-.73,2.36-.98,.77-.23,1.57-.39,2.39-.48,.42-.04,.85-.06,1.28-.06s.86,.02,1.28,.06c.81,.08,1.61,.24,2.37,.47,.83,.25,1.62,.58,2.36,.98,.72,.39,1.4,.84,2.03,1.36,.66,.54,1.27,1.15,1.81,1.81,.51,.62,.96,1.29,1.34,2,.4,.75,.73,1.54,.98,2.36,.23,.77,.39,1.57,.47,2.39,.04,.41,.06,.84,.06,1.26Z"/><path class="f" d="M30.79,19c0,.41-.02,.81-.06,1.2-.08,.75-.22,1.49-.44,2.19-.23,.77-.54,1.5-.91,2.19-.36,.67-.78,1.29-1.26,1.88-.5,.61-1.07,1.18-1.68,1.68-.58,.47-1.2,.89-1.86,1.24-.69,.37-1.43,.68-2.19,.91-.71,.21-1.45,.36-2.21,.44-.39,.04-.79,.06-1.19,.06s-.8-.02-1.19-.06c-.75-.07-1.48-.22-2.19-.43-.77-.23-1.5-.53-2.2-.91-.67-.36-1.29-.78-1.88-1.25-.62-.5-1.18-1.06-1.68-1.68-.47-.58-.89-1.2-1.25-1.85-.37-.69-.68-1.43-.92-2.19-.22-.71-.37-1.45-.44-2.22-.04-.4-.06-.8-.06-1.2s.02-.79,.06-1.17c.07-.76,.22-1.49,.43-2.2,.23-.77,.53-1.5,.9-2.2,.36-.67,.78-1.3,1.26-1.88,.5-.62,1.06-1.18,1.68-1.68,.58-.47,1.2-.89,1.86-1.25,.69-.37,1.43-.68,2.19-.91,.72-.22,1.46-.37,2.22-.44,.39-.04,.79-.06,1.19-.06s.8,.02,1.19,.06c.76,.08,1.49,.22,2.2,.43,.77,.23,1.5,.54,2.2,.91,.67,.36,1.3,.78,1.88,1.26,.61,.5,1.18,1.07,1.68,1.68,.47,.58,.89,1.2,1.25,1.86,.37,.69,.68,1.43,.91,2.19,.21,.71,.36,1.46,.44,2.22,.04,.39,.06,.78,.06,1.17Z"/><path class="i" d="M25.81,19c0,.23-.01,.47-.04,.7-.04,.44-.13,.86-.25,1.27-.13,.44-.31,.87-.53,1.27-.21,.38-.45,.75-.73,1.08-.29,.35-.62,.68-.97,.97-.33,.27-.69,.51-1.07,.72-.4,.22-.82,.39-1.27,.53-.41,.12-.84,.21-1.28,.25-.23,.02-.45,.03-.69,.03s-.46-.01-.69-.03c-.44-.04-.86-.13-1.26-.25-.44-.13-.87-.31-1.27-.52-.39-.21-.75-.45-1.08-.72-.36-.29-.68-.61-.97-.97-.27-.33-.51-.69-.72-1.07-.22-.4-.39-.82-.53-1.27-.12-.41-.21-.84-.26-1.28-.02-.23-.04-.46-.04-.7s.01-.45,.03-.68c.04-.44,.13-.86,.25-1.27,.13-.44,.31-.87,.52-1.27,.21-.39,.45-.75,.73-1.09,.29-.36,.62-.68,.97-.97,.33-.27,.69-.52,1.08-.72,.4-.22,.82-.39,1.27-.53,.41-.12,.84-.21,1.28-.26,.23-.02,.45-.03,.69-.03s.46,.01,.69,.03c.44,.04,.86,.13,1.27,.25,.44,.13,.87,.31,1.27,.52,.39,.21,.75,.45,1.09,.73,.36,.29,.68,.62,.97,.97,.27,.33,.51,.69,.72,1.08,.22,.4,.39,.82,.53,1.27,.12,.41,.21,.84,.25,1.28,.02,.22,.03,.45,.03,.68Z"/><g><rect class="j" x="18.67" y="10.24" width=".65" height="17.4" transform="translate(-7.83 18.98) rotate(-45)"/><path class="j" d="M13.29,12.34c.25,.25,.25,.65,0,.89-.25,.25-.65,.25-.89,0-.25-.25-.25-.65,0-.89,.25-.25,.65-.25,.89,0Z"/><path class="j" d="M25.6,24.64c.25,.25,.25,.65,0,.89-.25,.25-.65,.25-.89,0-.25-.25-.25-.65,0-.89,.25-.25,.65-.25,.89,0Z"/></g><g><rect class="j" x="10.3" y="18.61" width="17.4" height=".65" transform="translate(-7.83 18.98) rotate(-45)"/><path class="j" d="M25.6,13.23c-.25,.25-.65,.25-.89,0-.25-.25-.25-.65,0-.89,.25-.25,.65-.25,.89,0,.25,.25,.25,.65,0,.89Z"/><path class="j" d="M13.29,25.54c-.25,.25-.65,.25-.89,0-.25-.25-.25-.65,0-.89,.25-.25,.65-.25,.89,0,.25,.25,.25,.65,0,.89Z"/></g><path class="j" d="M20.73,18.94c0,.96-.78,1.73-1.73,1.73s-1.73-.78-1.73-1.73,.78-1.73,1.73-1.73,1.73,.78,1.73,1.73Z"/><path class="k" d="M19.91,18.94c0,.5-.41,.91-.91,.91s-.91-.41-.91-.91,.41-.91,.91-.91,.91,.41,.91,.91Z"/></g><circle class="h" cx="28.26" cy="28.76" r=".93"/></g><circle class="l" cx="19" cy="19" r="19"/></g></g></g></g></svg>