<svg xmlns="http://www.w3.org/2000/svg" xmlns:xlink="http://www.w3.org/1999/xlink" viewBox="0 0 173 56"><defs><style>.cls-1{fill:none;stroke:#f19ec2;stroke-miterlimit:10;filter:url(#filter);}.cls-2{fill:#f19ec2;}</style><filter id="filter" x="0" y="0" width="173" height="56" filterUnits="userSpaceOnUse"><feOffset input="SourceAlpha"/><feGaussianBlur stdDeviation="2.5" result="blur"/><feFlood flood-color="#fa00c3"/><feComposite operator="in" in2="blur"/><feComposite in="SourceGraphic"/></filter></defs><g id="Layer_2" data-name="Layer 2"><g id="圖層_1" data-name="圖層 1"><rect class="cls-1" x="8.39" y="8.09" width="156.6" height="38.95" rx="19.48"/><path class="cls-2" d="M36.42,19.11H41.1c.37,0,.58.12.64.35a.82.82,0,0,1,.7-.35.41.41,0,0,1,.35.17A10.84,10.84,0,0,0,44,21.07a23.77,23.77,0,0,0,2.68-2,.93.93,0,0,1,.51-.31c.47,0,.64.21.53.63a1.19,1.19,0,0,1-.46.6A22.56,22.56,0,0,1,44.7,21.8a10.36,10.36,0,0,0,1,.82,28,28,0,0,0,2.53-1.85.94.94,0,0,1,.53-.31q.69,0,.51.63a1.14,1.14,0,0,1-.46.6,19,19,0,0,1-2.19,1.49,3.35,3.35,0,0,0,.36.21,14.62,14.62,0,0,0,2.35.87c.37.06.51.29.4.68a1,1,0,0,1-1.05.83,14.2,14.2,0,0,1-2.24-.87L46,24.62l0,.15-.53,2a.34.34,0,0,0,0,.3,1.25,1.25,0,0,0,.52.06,2.19,2.19,0,0,0,.68-.08.35.35,0,0,0,.27-.23l.19-.52a.63.63,0,0,1,.65-.44c.42,0,.59.25.5.68a3.39,3.39,0,0,1-.52,1.17,1.77,1.77,0,0,1-.72.47,2.88,2.88,0,0,1-1.06.17H45c-.9,0-1.23-.46-1-1.38l.48-1.79c0-.1-.12-.15-.44-.15H42.69c-.27,0-.41,0-.44.15l-.24.91a3.38,3.38,0,0,1-.76,1.43,6.7,6.7,0,0,1-1.54,1.1,2.25,2.25,0,0,1-.86.24c-.42,0-.59-.22-.52-.58a1,1,0,0,1,.39-.53,5.72,5.72,0,0,0,1.45-.83,2,2,0,0,0,.64-1.06l.28-1.07a1.14,1.14,0,0,1,1.17-1h2.38a6.18,6.18,0,0,1-.8-.68,10,10,0,0,1-2.11-2.7l-.11-.27a3.73,3.73,0,0,1-.84,1,22.66,22.66,0,0,1-3.4,2.48l-.83.49H38.4c.75,0,1,.35.83,1.05l-.52,1.95a1.32,1.32,0,0,1-1.4,1.07H34.2q-.44,0-.9,1.74c0,.15,0,.22.24.22H37c.61,0,.8.41.59,1.21a18.51,18.51,0,0,1-.72,2,8.76,8.76,0,0,1-1.26,2.23,2.4,2.4,0,0,1-2,.77,22.63,22.63,0,0,1-3.5-.4c-.33-.06-.45-.29-.34-.68a.8.8,0,0,1,.85-.66A17.23,17.23,0,0,0,34,35c.48,0,.86-.31,1.14-.94A13.07,13.07,0,0,0,36,31.8c.08-.3,0-.45-.25-.45H32.46q-1,0-.69-1.08a15.58,15.58,0,0,1,.77-2.15c.33-.78.72-1.17,1.16-1.17h3.24a.61.61,0,0,0,.62-.52l.15-.59c.1-.36,0-.55-.32-.55H34.2c-.44.2-.88.39-1.32.56a2.1,2.1,0,0,1-.81.23c-.51,0-.69-.24-.57-.7a1.05,1.05,0,0,1,.54-.68,30.87,30.87,0,0,0,3.55-1.41c-.43-.38-.79-.68-1.1-.91a9.63,9.63,0,0,0-.93-.53.76.76,0,0,1-.06-.55.72.72,0,0,1,.76-.6.66.66,0,0,1,.39.17c.36.22.68.42,1,.62a6.36,6.36,0,0,1,1.15,1c0,.05.08.09.08.11a19.72,19.72,0,0,0,2-1.2c.74-.49,1.12-.81,1.16-1s0-.13-.21-.13H36.09c-.41,0-.56-.21-.45-.62A.74.74,0,0,1,36.42,19.11Zm2.82,10.05h6.64c.5,0,.68.28.53.83a4.28,4.28,0,0,1-1,1.62,11.23,11.23,0,0,1-2.37,2,5.29,5.29,0,0,0,.5.32,13.89,13.89,0,0,0,2.55,1,.48.48,0,0,1,.24.53,1,1,0,0,1-1,.83,2.78,2.78,0,0,1-.66-.13,13.73,13.73,0,0,1-2.45-1.15c-.25-.15-.49-.32-.73-.49a19.2,19.2,0,0,1-3,1.32,6.36,6.36,0,0,1-1.61.45c-.5,0-.69-.25-.55-.75a.78.78,0,0,1,.78-.61,19.54,19.54,0,0,0,3.43-1.26l-.36-.45a6.31,6.31,0,0,1-.93-2.83H38.9c-.4,0-.55-.22-.43-.66A.73.73,0,0,1,39.24,29.16Zm1.58,1.27a5,5,0,0,0,.9,2,3.9,3.9,0,0,0,.33.38,17,17,0,0,0,2.28-1.73,1.66,1.66,0,0,0,.43-.57c0-.06,0-.09-.13-.09Z"/><path class="cls-2" d="M59.54,19.43c.45,0,.62.22.5.68a.82.82,0,0,1-.86.66H57.52l-1.27,4.75h1.51c.44,0,.6.23.48.68a.83.83,0,0,1-.85.7H55.88l-1.41,5.24c.65-.29,1.42-.68,2.34-1.17l.34-.07q.66,0,.45.75a1.18,1.18,0,0,1-.49.57,21,21,0,0,1-2.64,1.36A36.38,36.38,0,0,1,50.76,35a1.33,1.33,0,0,1-.48.1q-.66,0-.45-.78a1.05,1.05,0,0,1,.71-.75c.92-.25,1.72-.5,2.41-.76l1.57-5.86h-1.6c-.46,0-.62-.23-.5-.7a.83.83,0,0,1,.87-.68h1.6l1.27-4.75H54.43c-.47,0-.64-.22-.52-.66a.82.82,0,0,1,.88-.68Zm4.17,10.26H61.77a13.4,13.4,0,0,1-.55,1.43,10.89,10.89,0,0,1-1.12,2A9.1,9.1,0,0,1,58.25,35a11,11,0,0,1-2.41,1.3.71.71,0,0,1-.32.08q-.83,0-.63-.75a.92.92,0,0,1,.56-.61,11.58,11.58,0,0,0,2.19-1.19,6.58,6.58,0,0,0,1.49-1.49,9.84,9.84,0,0,0,1.26-2.6h-1c-.82,0-1.12-.4-.91-1.21l2.17-8.07a1.41,1.41,0,0,1,1.53-1.13h7.24c.79,0,1.09.37.89,1.13l-2.17,8.07a1.44,1.44,0,0,1-1.51,1.21H65.09L64,33.84c-.09.33-.08.56,0,.7a1.89,1.89,0,0,0,1.15.21,1.33,1.33,0,0,0,.86-.19,1.07,1.07,0,0,0,.31-.53l.34-1.27a.94.94,0,0,1,.88-.75c.42,0,.57.33.44.92a9.89,9.89,0,0,1-.79,2.29,1.66,1.66,0,0,1-.72.66,4.57,4.57,0,0,1-1.68.2c-1.18,0-1.91-.15-2.18-.45s-.29-.81-.09-1.56Zm2.56-1.28q.53,0,.69-.63l.34-1.26h-7L60,27.78c-.11.42,0,.63.38.63Zm-5.6-3.12h7l.48-1.79h-7Zm.81-3h7l.31-1.19c.1-.37,0-.55-.38-.55H62.49a.66.66,0,0,0-.7.55Z"/><path class="cls-2" d="M91.88,19.43c.4,0,.54.2.44.6a.77.77,0,0,1-.78.66H84.29l-.44,1.66h5.28c.8,0,1.11.36.92,1.08l-1.39,5.18a1.43,1.43,0,0,1-1.52,1.16H81.8a9.08,9.08,0,0,1-2.47,3.94,22.21,22.21,0,0,0,3.07.58c.86.13,2.71.23,5.56.3.44,0,.6.25.5.66a1,1,0,0,1-1,.83c-.86,0-1.94-.08-3.23-.18a29.5,29.5,0,0,1-3.77-.49,19.76,19.76,0,0,1-2.54-.66,19.57,19.57,0,0,1-6.47,1.58c-.5,0-.69-.23-.57-.68a.91.91,0,0,1,.73-.68,21.26,21.26,0,0,0,4.64-1,7.33,7.33,0,0,1-2.6-2.19.9.9,0,0,1,0-.54.82.82,0,0,1,.86-.66q.21,0,.39.3a6.9,6.9,0,0,0,3,2.28h0c.14-.1.28-.21.43-.34a7.4,7.4,0,0,0,2-3.07h-5.6c-.74,0-1-.39-.81-1.16l1.39-5.18a1.33,1.33,0,0,1,1.4-1.08h5.66l.45-1.66h-7.4q-.6,0-.42-.66a.72.72,0,0,1,.76-.6ZM80.75,28.48l.49-1.81H75.9l-.34,1.27q-.15.54.21.54Zm-4.5-3.11h5.34l.46-1.72h-5c-.23,0-.39.15-.47.46Zm10.56,3.11c.29,0,.48-.18.58-.54l.34-1.27h-5l-.49,1.81ZM83.5,23.65,83,25.37h5l.33-1.26c.09-.31,0-.46-.31-.46Z"/><path class="cls-2" d="M102.86,28.84a17.81,17.81,0,0,1-1.67.89A29.76,29.76,0,0,1,96,31.48a2.44,2.44,0,0,1-.57.1c-.46,0-.61-.26-.48-.76a1,1,0,0,1,.51-.55,26.86,26.86,0,0,0,5.41-1.77,17.84,17.84,0,0,0,3.23-2,.9.9,0,0,1,.6-.32c.5,0,.69.23.57.7a1.33,1.33,0,0,1-.26.45l-.38.3h4.58c.92,0,1.28.37,1.08,1.12a5.84,5.84,0,0,1-1.19,2.13,9.9,9.9,0,0,1-3.1,2.54,18.1,18.1,0,0,1-4.7,1.83,35.27,35.27,0,0,1-7.13,1c-.66,0-.93-.25-.79-.75a.83.83,0,0,1,.86-.68,40.44,40.44,0,0,0,5.15-.41,21.56,21.56,0,0,0,2.86-.65c-.35-.5-.66-.91-.91-1.22s-.55-.57-.88-.89a.75.75,0,0,1,.67-1.13.8.8,0,0,1,.43.15,8,8,0,0,1,.9,1,7.25,7.25,0,0,1,1.11,1.59s0,0,0,0a11.3,11.3,0,0,0,3.74-2.33,4.09,4.09,0,0,0,1.33-1.78c.06-.21,0-.32-.2-.32h-5.62Zm-.74-7.39c-.4.23-.81.46-1.21.66a22.78,22.78,0,0,1-4.17,1.54,2.49,2.49,0,0,1-.47.06c-.46,0-.63-.25-.49-.75a.88.88,0,0,1,.53-.51,19.81,19.81,0,0,0,4.26-1.55,13.26,13.26,0,0,0,2.58-1.72.86.86,0,0,1,.6-.3c.51,0,.7.23.57.7A1.06,1.06,0,0,1,104,20l-.25.23h6.45c.61,0,.83.27.69.83s-.72,1.12-1.77,1.88a23.36,23.36,0,0,1-5.06,2.89,29.48,29.48,0,0,1-6.23,1.92,17.39,17.39,0,0,1-3.81.55c-.5,0-.68-.25-.55-.75a.85.85,0,0,1,.79-.68c1.72-.13,3-.27,3.86-.42,1.15-.25,2.25-.54,3.29-.86a11.21,11.21,0,0,0-.71-1l-.65-.74a.56.56,0,0,1-.11-.51.73.73,0,0,1,.77-.6.91.91,0,0,1,.43.13c.27.28.51.54.73.79a6,6,0,0,1,.91,1.27,1.2,1.2,0,0,1,.11.17l.86-.34a29.79,29.79,0,0,0,3.63-2,5,5,0,0,0,1.48-1.1q.06-.24-.24-.24h-6.53Z"/><path class="cls-2" d="M123.31,32.44l.74-2.78h-2.91a.51.51,0,0,1-.47-.19.72.72,0,0,1,0-.57,1.19,1.19,0,0,1,.31-.61,1,1,0,0,1,.63-.17h5.06a.39.39,0,0,1,.4.2.82.82,0,0,1,0,.58,1,1,0,0,1-.35.6,1.39,1.39,0,0,1-.73.16h-.15L125,32.9l-.08.29a1.19,1.19,0,0,1-.18.43,1,1,0,0,1-.35.25,8.66,8.66,0,0,1-2.13.67,12.89,12.89,0,0,1-2.66.29,5.13,5.13,0,0,1-4.54-2,6,6,0,0,1-.53-5.22,10.25,10.25,0,0,1,3.32-5.32,8.09,8.09,0,0,1,5.38-2.1,6.64,6.64,0,0,1,1.55.18,7.92,7.92,0,0,1,1.52.54,1.41,1.41,0,0,1,.44-.44,1.33,1.33,0,0,1,.57-.13c.37,0,.59.11.65.33a3.87,3.87,0,0,1-.22,1.51l-.43,1.59a1.57,1.57,0,0,1-.42.81,1.1,1.1,0,0,1-.75.22c-.41,0-.63-.25-.68-.75a2.93,2.93,0,0,0-.06-.33,2.23,2.23,0,0,0-.86-1.43,2.76,2.76,0,0,0-1.71-.51A5.44,5.44,0,0,0,119,23.29a8.24,8.24,0,0,0-2.35,4.09,5.28,5.28,0,0,0,.25,4.22,3.51,3.51,0,0,0,3.26,1.57A6.1,6.1,0,0,0,121.6,33,11.62,11.62,0,0,0,123.31,32.44Z"/><path class="cls-2" d="M143.56,27.5a10.39,10.39,0,0,1-3.19,5.27,7.57,7.57,0,0,1-5.11,2.06,4.3,4.3,0,0,1-4-2.07,6.61,6.61,0,0,1-.37-5.26,10.43,10.43,0,0,1,3.18-5.28,7.56,7.56,0,0,1,5.11-2,4.3,4.3,0,0,1,4,2.06A6.66,6.66,0,0,1,143.56,27.5Zm-7.86,5.67a4.89,4.89,0,0,0,3.51-1.5,9,9,0,0,0,2.24-4.17,6.07,6.07,0,0,0,0-4.16,2.71,2.71,0,0,0-2.7-1.51,4.85,4.85,0,0,0-3.5,1.5A9,9,0,0,0,133,27.5a6.15,6.15,0,0,0,0,4.17A2.7,2.7,0,0,0,135.7,33.17Z"/><path class="cls-2" d="M141.79,27a80.39,80.39,0,0,1,17.36,0,72.14,72.14,0,0,1-8.68.47A72,72,0,0,1,141.79,27Z"/><path class="cls-2" d="M141,29.19a36.58,36.58,0,0,1,11.69,0,31.88,31.88,0,0,1-5.84.47A32.06,32.06,0,0,1,141,29.19Z"/><path class="cls-2" d="M139,31.9a67.9,67.9,0,0,1,16,0,61,61,0,0,1-8,.47A61,61,0,0,1,139,31.9Z"/></g></g></svg>