<svg xmlns="http://www.w3.org/2000/svg" xmlns:xlink="http://www.w3.org/1999/xlink" viewBox="0 0 173 56"><defs><style>.cls-1,.cls-3{fill:none;stroke:#f19ec2;stroke-miterlimit:10;}.cls-1{filter:url(#filter);}.cls-2{fill:#f19ec2;}</style><filter id="filter" x="0" y="0" width="173" height="56" filterUnits="userSpaceOnUse"><feOffset input="SourceAlpha"/><feGaussianBlur stdDeviation="2.5" result="blur"/><feFlood flood-color="#fa00c3"/><feComposite operator="in" in2="blur"/><feComposite in="SourceGraphic"/></filter></defs><g id="Layer_2" data-name="Layer 2"><g id="links"><rect class="cls-1" x="8.39" y="8.37" width="156.6" height="38.95" rx="19.48"/><path class="cls-2" d="M33.52,26.48a.8.8,0,0,1,.47.15.51.51,0,0,1,.12.47,2,2,0,0,1-.18.36c-.1.19-.2.37-.31.55H36l.12-.15c.26-.31.49-.61.71-.91a1,1,0,0,1,.71-.32.49.49,0,0,1,.39.19.49.49,0,0,1,.05.41,1,1,0,0,1-.27.47l-.31.31h2c.34,0,.46.17.37.52a.67.67,0,0,1-.67.59H36.73l-.34,1.3h2.26c.34,0,.46.18.37.53a.67.67,0,0,1-.67.58H36.09l-.33,1.23H38c.34,0,.46.18.37.53a.66.66,0,0,1-.67.58H35.46l-.35,1.3h2.27c.37,0,.53.16.45.48l.13-.19a9.15,9.15,0,0,0,2.78-2.72,9.75,9.75,0,0,0,1-2.47h-.43c-.7,0-.95-.38-.75-1.15l2.26-8.43a1.28,1.28,0,0,1,1.34-1.06h4.36c.77,0,1.06.35.87,1.06l-2.26,8.43a1.39,1.39,0,0,1-1.46,1.15H45l-1.23,4.6q-.14.51.78.51a.7.7,0,0,0,.71-.58l.34-1.13a.75.75,0,0,1,.77-.55.44.44,0,0,1,.44.6c-.38,1.42-.74,2.23-1.08,2.42a2.28,2.28,0,0,1-1.48.39,2.56,2.56,0,0,1-1.62-.32.8.8,0,0,1-.17-.88l1.35-5.06h-.75a13.93,13.93,0,0,1-1.17,2.87,10.68,10.68,0,0,1-3,3.15.92.92,0,0,1-.64.32c-.44,0-.63-.2-.57-.59a.72.72,0,0,1-.6.27H30.74c-.82,0-1.12-.4-.91-1.19l1.08-4a.72.72,0,0,1-.33.17c-.5,0-.7-.21-.59-.62a1,1,0,0,1,.25-.44,10.74,10.74,0,0,0,1.39-1.39A10.43,10.43,0,0,0,32.92,27,.68.68,0,0,1,33.52,26.48Zm.37,8.69.34-1.3H31.39l-.19.68c-.11.42,0,.62.35.62Zm.64-2.41.33-1.23H32l-.33,1.23Zm-1.08-10h2.17c.6,0,.83.25.7.75l-.51,1.89a1,1,0,0,1-1.12.83H32.52c-.56,0-.76-.28-.61-.83l.5-1.89A1,1,0,0,1,33.45,22.8Zm1.71,7.62.35-1.3H32.83c-.09.13-.17.24-.27.36l-.25.94Zm6.62-10.28c.4,0,.55.2.44.6a.74.74,0,0,1-.77.63h-1.6l0,.15a.78.78,0,0,1-.84.6c-.39,0-.53-.2-.43-.6l.05-.15H36l-.06.2a.78.78,0,0,1-.84.63q-.59,0-.42-.63l.06-.2H33c-.4,0-.55-.21-.44-.63a.74.74,0,0,1,.77-.6h1.74l.09-.36a.73.73,0,0,1,.75-.62c.46,0,.63.21.52.62l-.1.36h2.58l.1-.36a.73.73,0,0,1,.75-.62c.45,0,.63.21.51.62l-.09.36Zm-7.34,5.15c.19,0,.32-.13.39-.4l.22-.83c.05-.18,0-.28-.21-.28H33.69c-.13,0-.23.1-.28.28l-.22.83c-.07.27,0,.4.1.4ZM38.24,23h2.24c.62,0,.86.25.72.76l-.48,1.81a1.06,1.06,0,0,1-1.15.83H37.33c-.56,0-.76-.28-.61-.83l.48-1.81A1,1,0,0,1,38.24,23Zm1.08,2.42c.19,0,.32-.14.39-.4l.21-.76c0-.18,0-.28-.21-.28H38.48c-.14,0-.23.1-.28.28L38,25c-.07.26,0,.4.1.4ZM45.45,29a.54.54,0,0,0,.57-.44l.39-1.43h-4L42,28.53c-.07.29,0,.44.28.44Zm-2.73-3.1h4l.49-1.81h-4Zm.8-3h4L48,21.29c.07-.26,0-.4-.34-.4H44.45a.5.5,0,0,0-.51.4Z"/><path class="cls-2" d="M69.51,19.23c.47,0,.63.26.5.76a.9.9,0,0,1-.6.55q-2.94.24-6.4.43l-1,0a1.32,1.32,0,0,1-.12.2c-.21.39-.43.77-.63,1.12h8.17c.36,0,.49.18.4.55a.7.7,0,0,1-.71.58H60.55c-.29.42-.57.79-.83,1.13l-.12.17h10c.35,0,.48.18.38.53a.67.67,0,0,1-.68.58H58.58c-.35.36-.69.69-1,1q-.24.19-.48.36h9.25c.85,0,1.17.41,1,1.23L65.52,35a1.48,1.48,0,0,1-1.6,1.19H53.72c-.85,0-1.16-.39-.95-1.19l1.62-6A22.71,22.71,0,0,1,52,30a1.83,1.83,0,0,1-.57.15A.47.47,0,0,1,51,30a.55.55,0,0,1-.06-.47.85.85,0,0,1,.52-.63,17.68,17.68,0,0,0,3.18-1.45,17.26,17.26,0,0,0,2.16-1.51.21.21,0,0,0,0-.06h-4c-.37,0-.5-.19-.39-.58a.65.65,0,0,1,.69-.53H58c.29-.31.57-.64.85-1a3.92,3.92,0,0,0,.25-.32H54c-.34,0-.45-.2-.35-.58a.64.64,0,0,1,.66-.55h5.62c.27-.39.53-.82.8-1.29-2,.09-3.83.15-5.6.17-.5,0-.68-.25-.55-.75a.74.74,0,0,1,.77-.55q3,0,6.06-.17Q65.3,19.62,69.51,19.23ZM63.62,35a.7.7,0,0,0,.71-.6l.26-1H54.54l-.27,1c-.11.4,0,.6.37.6Zm-8.78-2.73H64.9L65.24,31H55.18Zm.65-2.42H65.55l.22-.83c.1-.39,0-.58-.39-.58h-9a.68.68,0,0,0-.69.58Z"/><path class="cls-2" d="M91.62,19.71c.41,0,.55.2.45.6a.77.77,0,0,1-.78.66H84l-.44,1.66h5.28c.8,0,1.11.36.92,1.08l-1.39,5.18A1.42,1.42,0,0,1,86.89,30H81.55a9.12,9.12,0,0,1-2.47,4,22.21,22.21,0,0,0,3.07.58c.86.13,2.71.23,5.56.3.44,0,.6.25.5.66a1,1,0,0,1-1,.83c-.86,0-1.94-.08-3.23-.19a26.31,26.31,0,0,1-3.77-.49A16.94,16.94,0,0,1,77.62,35a19.3,19.3,0,0,1-6.47,1.59c-.5,0-.69-.23-.57-.68a.9.9,0,0,1,.73-.68,21.86,21.86,0,0,0,4.64-1,7.33,7.33,0,0,1-2.6-2.19.93.93,0,0,1,0-.55.82.82,0,0,1,.86-.66c.14,0,.27.1.39.31a6.9,6.9,0,0,0,3,2.28h0c.14-.1.28-.22.43-.34a7.44,7.44,0,0,0,2-3.08H74.5c-.74,0-1-.38-.81-1.15l1.39-5.18a1.33,1.33,0,0,1,1.4-1.08h5.66L82.59,21h-7.4q-.6,0-.42-.66a.73.73,0,0,1,.76-.6ZM80.5,28.76,81,27H75.65l-.34,1.26c-.1.37,0,.55.21.55ZM76,25.65h5.34l.46-1.72h-5c-.23,0-.39.15-.47.45Zm10.56,3.11c.29,0,.48-.18.58-.55L87.48,27h-5L82,28.76Zm-3.31-4.83-.46,1.72h5l.33-1.27c.09-.3,0-.45-.31-.45Z"/><path class="cls-2" d="M102.61,29.12a17.81,17.81,0,0,1-1.67.89,29.76,29.76,0,0,1-5.17,1.75,2.35,2.35,0,0,1-.57.09c-.46,0-.61-.25-.48-.75a1,1,0,0,1,.51-.55,26.86,26.86,0,0,0,5.41-1.77,19,19,0,0,0,3.23-2,.86.86,0,0,1,.6-.32c.5,0,.69.23.57.7a1.43,1.43,0,0,1-.26.45l-.38.3H109q1.38,0,1.08,1.11a5.87,5.87,0,0,1-1.19,2.14,9.9,9.9,0,0,1-3.1,2.54,18.1,18.1,0,0,1-4.7,1.83,35.27,35.27,0,0,1-7.13,1c-.66,0-.93-.25-.79-.75A.83.83,0,0,1,94,35.1a38.41,38.41,0,0,0,5.15-.42A20.13,20.13,0,0,0,102,34c-.35-.5-.66-.91-.91-1.22s-.55-.58-.88-.89a.71.71,0,0,1-.08-.55.71.71,0,0,1,.75-.58.8.8,0,0,1,.43.15,8,8,0,0,1,.9,1,7.42,7.42,0,0,1,1.11,1.58s0,0,0,0a11.15,11.15,0,0,0,3.74-2.34,4,4,0,0,0,1.33-1.77c.06-.21,0-.32-.2-.32h-5.62Zm-.74-7.4c-.4.24-.81.46-1.21.66a22,22,0,0,1-4.17,1.55A2.49,2.49,0,0,1,96,24c-.46,0-.63-.25-.49-.76,0-.19.22-.35.53-.51a19.87,19.87,0,0,0,4.26-1.54,13.73,13.73,0,0,0,2.58-1.72.86.86,0,0,1,.6-.3c.51,0,.7.23.57.7a1.06,1.06,0,0,1-.29.45l-.25.23H110c.61,0,.83.27.69.83s-.72,1.12-1.77,1.88a23.36,23.36,0,0,1-5.06,2.89,30.69,30.69,0,0,1-6.23,1.92,17.39,17.39,0,0,1-3.81.55c-.5,0-.68-.25-.55-.75a.85.85,0,0,1,.79-.68c1.72-.13,3-.27,3.86-.42,1.15-.25,2.25-.54,3.29-.87-.27-.42-.51-.76-.71-1l-.65-.73a.56.56,0,0,1-.11-.51.73.73,0,0,1,.77-.6.91.91,0,0,1,.43.13c.27.27.51.54.73.79a6.15,6.15,0,0,1,.91,1.26l.11.17c.28-.1.56-.21.86-.34a27.29,27.29,0,0,0,3.63-2A4.9,4.9,0,0,0,108.64,22c0-.16,0-.25-.24-.25h-6.53Z"/><path class="cls-2" d="M123.06,32.72l.74-2.78h-2.91a.53.53,0,0,1-.47-.19.75.75,0,0,1,0-.58,1.15,1.15,0,0,1,.31-.6,1,1,0,0,1,.63-.17h5.06a.4.4,0,0,1,.4.19.82.82,0,0,1,0,.58,1,1,0,0,1-.35.6,1.29,1.29,0,0,1-.73.17h-.15l-.87,3.24-.08.28a1.26,1.26,0,0,1-.18.44.89.89,0,0,1-.35.24,8.21,8.21,0,0,1-2.13.68,12.87,12.87,0,0,1-2.66.28,5.12,5.12,0,0,1-4.54-2,6.07,6.07,0,0,1-.53-5.23,10.33,10.33,0,0,1,3.32-5.32,8.13,8.13,0,0,1,5.38-2.09,6.64,6.64,0,0,1,1.55.18,7.92,7.92,0,0,1,1.52.54,1.41,1.41,0,0,1,.44-.44,1.2,1.2,0,0,1,.57-.13c.37,0,.59.11.65.33a3.87,3.87,0,0,1-.22,1.51L127,24a1.62,1.62,0,0,1-.42.81,1.1,1.1,0,0,1-.75.22c-.41,0-.63-.25-.68-.75a3.2,3.2,0,0,0-.06-.34,2.28,2.28,0,0,0-.86-1.43,2.82,2.82,0,0,0-1.71-.5,5.4,5.4,0,0,0-3.76,1.52,8.24,8.24,0,0,0-2.35,4.09,5.28,5.28,0,0,0,.25,4.22,3.51,3.51,0,0,0,3.26,1.57,6.69,6.69,0,0,0,1.42-.17A12.94,12.94,0,0,0,123.06,32.72Z"/><path class="cls-2" d="M143.31,27.78a10.39,10.39,0,0,1-3.19,5.27A7.56,7.56,0,0,1,135,35.1,4.29,4.29,0,0,1,131,33a6.61,6.61,0,0,1-.37-5.26,10.34,10.34,0,0,1,3.18-5.28,7.56,7.56,0,0,1,5.11-2,4.28,4.28,0,0,1,4,2.06A6.65,6.65,0,0,1,143.31,27.78Zm-7.86,5.67A4.86,4.86,0,0,0,139,31.94a8.88,8.88,0,0,0,2.24-4.16,6.07,6.07,0,0,0,0-4.16,2.71,2.71,0,0,0-2.7-1.51,4.85,4.85,0,0,0-3.5,1.5,9,9,0,0,0-2.24,4.17,6.12,6.12,0,0,0,0,4.16A2.69,2.69,0,0,0,135.45,33.45Z"/><path class="cls-2" d="M141.79,27.31a75.59,75.59,0,0,1,17.36,0,68.28,68.28,0,0,1-8.68.5A68.18,68.18,0,0,1,141.79,27.31Z"/><path class="cls-2" d="M141,29.47a31.24,31.24,0,0,1,5.85-.5,30.25,30.25,0,0,1,5.84.5,29.48,29.48,0,0,1-5.84.5A30.42,30.42,0,0,1,141,29.47Z"/><path class="cls-2" d="M139,32.18a63.85,63.85,0,0,1,16,0,57.73,57.73,0,0,1-8,.5A57.78,57.78,0,0,1,139,32.18Z"/><rect class="cls-3" x="8.39" y="8.37" width="156.6" height="38.95" rx="19.48"/></g></g></svg>