<?xml version="1.0" encoding="UTF-8"?>
<svg id="Layer_1" xmlns="http://www.w3.org/2000/svg" version="1.1" viewBox="0 0 204.4 49.8">
  <!-- Generator: Adobe Illustrator 29.1.0, SVG Export Plug-In . SVG Version: 2.1.0 Build 142)  -->
  <defs>
    <style>
      .st0 {
        fill: #f4c57a;
      }
    </style>
  </defs>
  <g id="b">
    <g id="c">
      <g>
        <g>
          <path class="st0" d="M30.9,26.6c-.1.1-.3.2-.4.4s-.3.2-.4.3c-.3.2-.6.5-.9.7l-6.2,12.8-1.2-7.4,1.9-3c-.2,0-.5,0-.7.1-.6.1-1.2.2-1.8.2-.3,0-.7,0-1,0-1.3,0-2.5-.2-3.7-.4l1.9,3-1.2,7.5-6.9-13.6c-.3-.2-.6-.5-.9-.8h-.1C-.1,34.7,0,48.7,0,49.3v.5h39.7v-.5c-.7-16.2-7.2-21.5-8.7-22.6h0Z"/>
          <path class="st0" d="M20.1,0C11.9,0,5.2,6.7,5.2,14.9s6.7,14.9,14.9,14.9,14.9-6.7,14.9-14.9S28.3,0,20.1,0Z"/>
        </g>
        <g>
          <path class="st0" d="M56.4,18.7h5.8v-4.2c-2.1.4-3.9.6-5.5.6s-1.2-.2-1.4-.6c-.3-.4-.4-.8-.4-1.4,0-.9.6-1.4,1.7-1.4,2.1,0,4-.2,5.9-.6,2.5-.5,4.8-1.3,6.8-2.3.2-.1.4-.2.6-.2.5,0,.9.2,1.2.5.3.4.5.8.5,1.2,0,.8-.3,1.3-.8,1.6-1.3.8-2.9,1.4-4.8,1.9v5.1h7.8c-.2-2.5-.2-5.2-.2-8.2s.1-1.1.4-1.4c.3-.3.8-.4,1.4-.4s1,.1,1.3.3c.3.3.5.8.5,1.4v8c0,0,0,.2.1.3h8.2c.7,0,1.1.1,1.4.4.3.2.4.7.4,1.4s-.1,1-.3,1.2c-.3.4-.9.6-1.5.6h-7.9c.3,2.3.6,4.5,1.1,6.5,0,.4.2.7.2,1,1.9-1.6,3.6-3.5,4.9-5.7.3-.4.7-.5,1.1-.5s.7,0,1.1.3c.5.3.7.7.7,1.3,0,.5-.3,1.3-1.1,2.4-1.8,2.6-3.7,4.6-5.6,6h0c.3,1,.7,1.8,1.1,2.4.5.8,1,1.2,1.4,1.2.4,0,.7-.3.9-.8.3-.5.7-1.2,1-2.1.2-.6.6-1,1.1-1s.7.1,1.1.3c.6.4.9.9.9,1.7,0,1-.4,2-.9,2.9-.7,1.3-1.6,2.2-2.5,2.8-.4.3-1,.4-1.6.4-1.2,0-2.2-.7-3.2-1.8-.8-1-1.5-2.2-2.2-3.8-1.8,1.2-3.6,2.2-5.3,3-1,.4-1.7.6-2.2.6s-.9-.1-1.2-.4c-.3-.3-.5-.8-.5-1.3s.2-.9.7-1.2c2.8-1.4,5.2-2.8,7.3-4.2-.8-2.7-1.3-5.6-1.7-8.6,0-.4,0-.8-.1-1.3h-8.1v4.6c1.7-.2,3.5-.3,5.2-.5.5,0,.8.2,1.1.5.2.3.3.7.3,1.2s-.1.9-.4,1.2c-.2.3-.6.4-1.1.5-1.7.4-3.4.6-5.1.9v7.3c0,1.2-.3,2-.8,2.4-.7.5-1.6.8-2.6.8-.7,0-1.5,0-2.5-.2-.8-.1-1.7-.3-2.4-.6-.6-.3-.9-.8-1-1.5,0-.6.1-1.1.4-1.5.3-.3.6-.5,1-.5s.5,0,.8,0c1.4.3,2.4.5,2.8.5s.5-.2.5-.5v-5.8c-1.9.2-3.8.3-5.6.4-.6,0-1.1-.1-1.3-.4-.3-.3-.5-.8-.5-1.4,0-.5.1-1,.4-1.3.4-.4,1-.6,1.7-.6,1.8-.2,3.5-.3,5.3-.5v-5.1h-5.8c-.6,0-1-.1-1.4-.4-.3-.3-.5-.7-.5-1.4s.2-1.1.5-1.4c.3-.3.8-.4,1.4-.4h0ZM81.1,9.2c.4,0,.9.3,1.3.6.7.5,1.7,1.6,2.9,3.3.7,1,1.1,1.9,1.1,2.6s-.1.7-.4.9c-.3.3-.7.5-1.3.5s-.6,0-.8-.2c-.2,0-.3-.2-.5-.5-.8-1.1-2-2.8-3.8-5-.1-.2-.2-.4-.2-.6,0-.2,0-.4.1-.7.2-.3.4-.5.8-.7.3-.1.6-.2.9-.2h0Z"/>
          <path class="st0" d="M100.9,8.8c.6,0,1,.1,1.4.3.4.3.6.6.6,1.1,0,.4-.3,1.5-.8,3.1h2.2c1.7,0,2.6.9,2.6,2.6v3.3c1-1.5,1.8-3,2.4-4.4.8-1.8,1.2-3.4,1.4-4.7.2-.9.6-1.4,1.4-1.4s1,0,1.3.2c.6.3.9.8.9,1.6,0,.6-.2,1.4-.6,2.6,0,0,0,0,0,.1h7.6c2.5,0,3.8,1.4,3.8,4.2,0,10-.2,16.2-.5,18.7-.2,1.8-.6,3-1.3,3.7-.8.9-2.1,1.3-3.7,1.4-3.1,0-5.4-.5-7.2-1.3-.8-.3-1.1-1-1.1-2.1,0-.5.3-.9.6-1.2.3-.3.8-.5,1.2-.5s.4,0,.8.1c2,.7,3.9,1,5.7,1,.9-.2,1.3-1,1.4-2.4.2-2.5.2-8.2.2-17.1s-.1-.8-.3-.9c-.1-.1-.4-.2-.8-.2h-7.8c-1,2.3-1.9,4-2.7,5-.4.5-1,.7-1.7.7s-.8,0-1.1-.3h0s0,15.3,0,15.3c0,1.7-.9,2.6-2.6,2.6h-7.7c-1.7,0-2.5-.9-2.5-2.6V15.9c0-1.7.8-2.6,2.5-2.6h1.4c.3-1,.6-2.1,1-3.3.3-.8.9-1.1,1.9-1.2h0ZM97.7,24.3h5.5v-6.8c0-.4-.2-.6-.6-.6h-4.4c-.3,0-.5.2-.5.6v6.8h0ZM102.6,36.2c.4,0,.6-.2.6-.5v-7.7h-5.5v7.7c0,.3.2.5.5.5h4.4,0ZM111.5,22.1c.5,0,.9.3,1.3.6.8.7,1.9,2.1,3.3,4.4.8,1.4,1.2,2.5,1.2,3.5s-.1.8-.4,1c-.3.4-.8.5-1.4.5s-.7,0-.9-.2c-.2,0-.3-.3-.5-.6-.8-1.5-2.2-3.7-4.1-6.8-.2-.2-.2-.5-.2-.8s0-.4.1-.6c.1-.3.4-.5.8-.7.3-.1.6-.2.9-.2h0Z"/>
          <path class="st0" d="M141.4,16c.3,0,.6.1.8.3.3.3.5.7.5,1.2,0,.6-.2,1-.6,1.4-2,1-4.3,1.8-7,2.6-.3.1-.7.2-1.2.2s-.8-.2-1.1-.7c-.2-.4-.3-.8-.4-1.3,0-.5.3-.9.9-1.3,2.4-.8,4.8-1.6,7.2-2.4.3,0,.6-.1.8-.1h0ZM134.5,10.5h6.2c.6,0,1.1.1,1.3.4.2.2.4.6.4,1.3s-.1.9-.3,1.2c-.3.4-.8.6-1.4.6h-6.2c-.6,0-1-.1-1.3-.4-.3-.2-.4-.7-.4-1.3s.1-1,.4-1.3c.3-.3.7-.4,1.3-.4ZM148.3,8.4c.4,0,.9.1,1.2.3.4.2.6.6.6,1.1s-.1.6-.3,1.1h12.4c.9,0,1.5.2,2,.5.5.4.8,1,.8,1.9s0,.3-.1.6c-.4,1-.9,2-1.6,2.8-.1.3-.3.5-.6.7-.3.2-.7.3-1.3.3s-1.2-.2-1.6-.5c-.3-.2-.4-.5-.4-1s0-.2.2-.4c.8-1,1.1-1.6,1.1-1.7s-.1-.1-.4-.1h-5.2v.8c0,1.2.4,2.2,1.3,2.9,1,.8,3.7,1.7,7.9,2.6.6.3.9.7.9,1.3,0,.6-.2,1.1-.6,1.4-.4.4-.9.6-1.5.6s-1.2-.1-1.9-.3c-.1,0-.2,0-.4-.1.3.4.4.9.4,1.5v10c0,1.5-.7,2.3-2.2,2.3h-4.1c2.2.7,4.4,1.2,6.7,1.6.8.1,1.5.2,2,.2.6.2.9.5.9,1,0,.7-.2,1.2-.7,1.5-.4.3-.9.4-1.6.4-1,0-2.1-.2-3.1-.4-1.9-.4-3.8-1-5.8-1.7-.6-.3-1.2-.5-1.7-.9-.1,0-.2-.2-.2-.4,0-.5.3-.9.6-1.3,0,0,.1,0,.2-.1h-6.5c.3.3.5.6.5,1s-.1.7-.4,1c-.8.3-1.7.6-2.6.9-2.4.7-4.5,1.3-6.5,1.7-.7.1-1.3.2-1.9.2-.6,0-1.1-.2-1.4-.5-.3-.3-.4-.7-.4-1.2s.3-1,.8-1.3c3.6-.6,6.4-1.2,8.4-1.8,0,0,.2,0,.3,0h-4.2c-1.5,0-2.2-.8-2.2-2.3v-10c0-1.5.7-2.3,2.2-2.3h4.3c-.1-.3-.2-.5-.2-.8,0-.6.2-1,.7-1.3,2.6-.7,4.6-1.3,5.8-1.9,1.5-.7,2.3-1.8,2.4-3.3v-1h-3c-.5.8-1,1.5-1.5,2.2-.4.5-.7.7-1.1.7-.5,0-1-.1-1.3-.4-.4-.3-.7-.7-.7-1.1s.1-.6.3-1c1.5-2.1,2.6-3.8,3.3-5.2.1-.2.2-.4.4-.5.2,0,.4-.1.6-.1h0ZM139.7,26.3h17.9v-.7c0-.5-.2-.7-.7-.7h-16.4c-.4,0-.7.2-.7.7v.7ZM139.7,30h17.9v-1.4h-17.9v1.4ZM156.8,34c.5,0,.7-.2.7-.7v-.8h-17.9v.8c0,.5.2.7.7.7h16.4ZM148.2,22.1h10.6c-1.6-.7-3.3-1.6-5.1-2.7-.2-.1-.4-.2-.6-.2s-.2,0-.4.2c-1.5,1.1-3.1,2.1-4.6,2.8h0Z"/>
          <path class="st0" d="M173.1,20.4h3.8v-10c0-.5.1-.9.5-1.2.3-.3.7-.5,1.2-.5s1,.1,1.3.5c.3.3.5.7.5,1.2v10h3.7c.5,0,.9.1,1.2.4.3.2.5.7.5,1.4s0,1-.2,1.3c-.3.4-.8.6-1.4.6h-3.7v1.3c.3,0,.6-.1.9-.1s.6.2.9.5c1.1,1.9,2,3.8,2.7,5.7.2.5.3.9.4,1.3,0,.5-.2.9-.5,1.1-.3.3-.7.4-1.2.5-.6,0-1-.3-1.2-.8-.6-1.6-1.2-3.2-2-4.8v11.2c0,.4-.1.8-.3,1.1-.3.4-.8.6-1.5.6s-1-.2-1.3-.6c-.2-.3-.4-.7-.4-1.1v-9.4c-1.1,2.8-2.2,5.1-3.1,6.7-.3.3-.6.4-1,.4-.4,0-.8-.2-1.2-.6-.3-.3-.4-.6-.5-1,0-.6,0-1,.3-1.4,1-1.8,1.9-3.7,2.8-5.5.9-1.8,1.6-3.5,2.2-5h-3.3c-.5,0-.9-.1-1.2-.4-.3-.3-.5-.7-.5-1.4s.2-1.2.5-1.5c.2-.2.6-.3,1.2-.3h0ZM172.9,10.5c.4,0,.8.2,1.2.6.7,1.9,1.2,3.7,1.7,5.5.1.4.2.8.2,1.2,0,.5-.1.9-.5,1.1-.3.3-.7.4-1.2.4-.6,0-1-.3-1.3-.8-.4-1.9-1-3.8-1.6-5.6-.1-.4-.2-.8-.2-1.1,0-.4.2-.7.6-1,.4-.3.7-.4,1.1-.4h0ZM184.2,10.2c.5,0,.9,0,1.2.3.4.3.5.6.5,1.1,0,.5-.1,1.1-.3,1.8-.5,2.1-1,3.8-1.5,5-.3.5-.7.8-1.4.8-.4,0-.8-.2-1.2-.4-.2-.3-.4-.6-.4-1s0-.3.1-.7c.7-1.9,1.2-3.9,1.7-6.1.2-.6.6-.9,1.3-.9ZM202.9,28.5c.5,0,.9.2,1.2.5.2.3.4.7.4,1.2s-.1,1-.4,1.3c-.2.3-.6.5-1.1.6-.8.1-1.6.3-2.4.4v7c0,.5-.1.9-.4,1.2-.3.5-.8.7-1.5.7s-1.1-.2-1.4-.7c-.3-.3-.4-.7-.4-1.2v-6.5c-3.3.5-6.4.7-9.4.8-.7,0-1.1-.2-1.3-.4-.3-.3-.5-.9-.5-1.5,0-.5.1-1,.4-1.2.4-.4,1-.6,1.8-.6,3.1-.3,6.1-.5,9-.8V10.5c0-.5.2-1,.6-1.3.3-.3.7-.5,1.3-.5s1,.2,1.3.5c.4.3.5.8.5,1.3v18.3c.8-.1,1.6-.2,2.4-.3h0ZM188.7,19.1c.4,0,.9.2,1.3.5.7.5,1.7,1.6,2.9,3.4.7,1,1,1.9,1,2.6s-.1.8-.4,1c-.3.3-.8.5-1.4.5s-.7,0-.9-.2c-.2-.1-.3-.3-.5-.6-.7-1.1-1.9-2.9-3.6-5.1-.1-.2-.2-.4-.2-.7,0-.2,0-.4.1-.6.2-.3.4-.5.8-.7.3,0,.6-.1.9-.1h0ZM190.3,10.5c.4,0,.9.2,1.3.6.7.5,1.7,1.6,3,3.4.7,1.1,1.1,2,1.1,2.7s-.1.8-.4,1c-.3.3-.8.5-1.4.5s-.7,0-.9-.2c-.2,0-.4-.3-.5-.6-.7-1.2-1.9-2.9-3.7-5.2-.1-.2-.2-.4-.2-.7,0-.2,0-.4.1-.6.2-.3.4-.6.8-.7.3-.1.6-.2.9-.2h0Z"/>
        </g>
      </g>
    </g>
  </g>
</svg>