<?xml version="1.0" encoding="UTF-8"?><svg xmlns="http://www.w3.org/2000/svg" viewBox="0 0 204.44 49.79"><defs><style>.d{fill:#f19ec2;}</style></defs><g id="a"/><g id="b"><g id="c"><g><g><path class="d" d="M30.9,26.64c-.13,.12-.26,.23-.4,.35-.14,.12-.27,.23-.41,.34-.29,.23-.58,.45-.88,.66l-6.24,12.83-1.24-7.39,1.85-2.97c-.22,.05-.45,.09-.68,.13-.58,.1-1.18,.17-1.78,.21-.33,.02-.66,.04-.99,.04-1.28,0-2.53-.16-3.72-.44l1.87,3.03-1.17,7.52-6.92-13.59c-.32-.25-.63-.52-.93-.8l-.13,.11C-.14,34.68,0,48.7,0,49.29v.5H39.65l-.02-.53c-.66-16.19-7.13-21.55-8.72-22.62Z"/><path class="d" d="M20.12,0C11.91,0,5.24,6.67,5.24,14.88s6.67,14.88,14.88,14.88,14.88-6.67,14.88-14.88S28.32,0,20.12,0Z"/></g><g><path class="d" d="M56.44,18.67h5.77v-4.25c-2.11,.38-3.93,.56-5.45,.56-.68,0-1.16-.19-1.44-.56-.28-.35-.42-.81-.42-1.37,0-.94,.56-1.42,1.69-1.44,2.06-.02,4.02-.22,5.87-.6,2.51-.52,4.76-1.29,6.75-2.32,.21-.12,.41-.18,.6-.18,.47,0,.88,.18,1.23,.53,.3,.38,.46,.76,.46,1.16,0,.77-.27,1.29-.81,1.55-1.29,.75-2.88,1.37-4.78,1.86v5.06h7.84c-.16-2.48-.25-5.21-.25-8.19,0-.63,.13-1.11,.39-1.44,.28-.26,.76-.39,1.44-.39,.54,0,.97,.11,1.3,.32,.35,.3,.53,.76,.53,1.37l.07,8.05c0,.09,.01,.19,.04,.28h8.19c.66,0,1.14,.13,1.44,.39,.26,.23,.39,.71,.39,1.44,0,.56-.11,.97-.32,1.23-.35,.38-.86,.56-1.51,.56h-7.91c.28,2.32,.63,4.5,1.05,6.54,.07,.35,.15,.69,.25,1.02,1.92-1.64,3.56-3.55,4.92-5.73,.3-.35,.67-.53,1.09-.53,.37,0,.74,.09,1.09,.28,.47,.3,.71,.73,.74,1.27,0,.52-.35,1.31-1.05,2.39-1.83,2.58-3.7,4.59-5.62,6.05h-.04c.35,.96,.73,1.75,1.12,2.36,.54,.77,1.01,1.16,1.41,1.16,.37-.02,.69-.28,.95-.77,.33-.47,.67-1.16,1.02-2.07,.23-.63,.61-.95,1.12-.95,.35,0,.7,.11,1.05,.32,.61,.38,.91,.93,.91,1.65-.09,1.01-.41,1.97-.95,2.88-.73,1.31-1.57,2.24-2.53,2.78-.45,.26-.97,.39-1.58,.39-1.15-.09-2.21-.69-3.2-1.79-.8-.96-1.54-2.23-2.21-3.8-1.78,1.2-3.55,2.19-5.31,2.99-.98,.42-1.72,.63-2.21,.63-.54,0-.94-.14-1.2-.42-.33-.35-.49-.79-.49-1.3,0-.47,.22-.88,.67-1.23,2.81-1.41,5.25-2.81,7.31-4.22-.77-2.74-1.34-5.6-1.69-8.58-.05-.4-.09-.83-.14-1.3h-8.12v4.64c1.73-.16,3.47-.34,5.2-.53,.47,0,.83,.16,1.09,.49,.21,.28,.32,.68,.32,1.2s-.14,.89-.42,1.2c-.19,.26-.56,.41-1.12,.46-1.73,.35-3.42,.64-5.06,.88v7.31c0,1.15-.26,1.96-.77,2.43-.68,.52-1.56,.79-2.64,.81-.7,0-1.54-.08-2.5-.25-.84-.14-1.65-.34-2.43-.6-.61-.33-.94-.84-.98-1.55,0-.59,.14-1.09,.42-1.51,.28-.3,.61-.46,.98-.46,.19,0,.47,.02,.84,.07,1.43,.3,2.38,.46,2.85,.46,.35,0,.53-.18,.53-.53v-5.77c-1.92,.21-3.8,.34-5.62,.39-.63-.02-1.07-.15-1.3-.39-.33-.3-.5-.77-.53-1.41,0-.54,.14-.96,.42-1.27,.4-.38,.97-.56,1.72-.56,1.78-.16,3.55-.32,5.31-.46v-5.06h-5.77c-.59,0-1.04-.13-1.37-.39-.3-.26-.46-.73-.46-1.41,0-.63,.15-1.11,.46-1.44,.33-.26,.78-.39,1.37-.39Zm24.64-9.46c.44,.07,.87,.27,1.27,.6,.7,.47,1.66,1.56,2.88,3.27,.7,1.01,1.05,1.89,1.05,2.64,0,.4-.13,.7-.39,.91-.28,.33-.72,.49-1.3,.49-.38,0-.64-.07-.81-.21-.19-.07-.35-.25-.49-.53-.77-1.1-2.04-2.77-3.8-4.99-.14-.16-.22-.36-.25-.6,0-.21,.05-.43,.14-.67,.16-.3,.42-.54,.77-.7,.28-.14,.59-.21,.91-.21Z"/><path class="d" d="M100.94,8.79c.59,0,1.04,.11,1.37,.32,.37,.26,.57,.62,.6,1.09-.07,.45-.34,1.48-.81,3.09h2.21c1.71,0,2.57,.86,2.57,2.57v3.34c.96-1.48,1.75-2.95,2.36-4.43,.75-1.83,1.23-3.4,1.44-4.71,.19-.94,.64-1.41,1.37-1.41,.56,0,1.01,.07,1.34,.21,.63,.3,.95,.84,.95,1.62-.05,.59-.23,1.44-.56,2.57,0,.05-.01,.08-.04,.11h7.63c2.51,0,3.77,1.39,3.8,4.18,0,9.98-.16,16.22-.49,18.7-.16,1.8-.59,3.05-1.27,3.73-.82,.87-2.06,1.34-3.73,1.41-3.05-.02-5.44-.45-7.17-1.27-.75-.26-1.12-.96-1.12-2.11,.07-.52,.27-.93,.6-1.23,.35-.33,.75-.49,1.2-.49,.19,0,.44,.05,.77,.14,2.02,.68,3.93,1.02,5.73,1.02,.87-.16,1.35-.95,1.44-2.36,.16-2.48,.25-8.18,.25-17.09,0-.47-.12-.77-.35-.91-.14-.14-.4-.21-.77-.21h-7.8c-.96,2.34-1.88,4-2.74,4.96-.42,.45-.98,.67-1.69,.67-.42,0-.79-.09-1.09-.28l-.04-.04v15.36c0,1.71-.86,2.57-2.57,2.57h-7.73c-1.69,0-2.53-.86-2.53-2.57V15.86c0-1.71,.84-2.57,2.53-2.57h1.41c.28-.98,.62-2.1,1.02-3.34,.3-.75,.95-1.14,1.93-1.16Zm-3.2,15.5h5.48v-6.75c0-.38-.2-.56-.6-.56h-4.36c-.35,0-.53,.19-.53,.56v6.75Zm4.89,11.92c.4,0,.6-.18,.6-.53v-7.73h-5.48v7.73c0,.35,.18,.53,.53,.53h4.36Zm8.89-14.06c.47,.07,.89,.26,1.27,.56,.82,.66,1.91,2.12,3.27,4.39,.82,1.38,1.23,2.55,1.23,3.52,0,.45-.14,.79-.42,1.02-.33,.35-.8,.53-1.41,.53-.42,0-.73-.08-.91-.25-.19-.09-.35-.3-.49-.63-.82-1.48-2.19-3.73-4.11-6.75-.16-.23-.25-.52-.25-.84,0-.16,.05-.38,.14-.63,.14-.3,.41-.55,.81-.74,.26-.12,.55-.18,.88-.18Z"/><path class="d" d="M141.37,16c.3,0,.57,.11,.81,.32,.3,.33,.47,.74,.49,1.23,0,.56-.19,1.03-.56,1.41-2.02,.96-4.34,1.84-6.96,2.64-.28,.12-.69,.18-1.23,.18-.4,0-.75-.22-1.05-.67-.21-.35-.33-.79-.35-1.3,0-.52,.29-.94,.88-1.27,2.37-.84,4.76-1.65,7.17-2.43,.33-.07,.6-.11,.81-.11Zm-6.86-5.52h6.19c.61,0,1.05,.14,1.34,.42,.23,.21,.35,.63,.35,1.27,0,.54-.11,.93-.32,1.16-.3,.38-.76,.56-1.37,.56h-6.19c-.56,0-1-.14-1.3-.42-.28-.23-.42-.67-.42-1.3,0-.56,.14-1,.42-1.3,.3-.26,.74-.39,1.3-.39Zm13.78-2.07c.44,0,.86,.11,1.23,.32,.4,.23,.6,.6,.6,1.09,0,.26-.11,.63-.32,1.12h12.41c.87,0,1.53,.16,2,.49,.54,.35,.81,.97,.81,1.86,0,.14-.04,.33-.11,.56-.35,1.03-.88,1.97-1.58,2.81-.14,.3-.33,.54-.56,.7-.28,.19-.7,.28-1.27,.28-.66,0-1.2-.18-1.62-.53-.26-.21-.39-.55-.39-1.02,0-.07,.06-.19,.18-.35,.75-1.03,1.12-1.61,1.12-1.72,0-.09-.14-.14-.42-.14h-5.24v.77c0,1.22,.42,2.17,1.27,2.85,1.03,.82,3.66,1.68,7.88,2.57,.59,.26,.88,.68,.88,1.27-.05,.61-.25,1.07-.6,1.37-.42,.4-.93,.6-1.51,.6s-1.25-.11-1.93-.32c-.12-.02-.23-.06-.35-.11,.28,.38,.42,.89,.42,1.55v9.95c0,1.52-.74,2.29-2.21,2.29h-4.15c2.2,.7,4.43,1.23,6.68,1.58,.84,.12,1.5,.2,1.97,.25,.63,.19,.95,.52,.95,.98,0,.68-.22,1.2-.67,1.55-.4,.28-.91,.42-1.55,.42-1.01-.05-2.05-.18-3.13-.39-1.92-.4-3.84-.97-5.77-1.72-.61-.26-1.18-.55-1.72-.88-.14-.09-.21-.22-.21-.39,.05-.45,.26-.87,.63-1.27,.07-.05,.13-.09,.18-.14h-6.5c.3,.26,.46,.57,.46,.95,0,.4-.13,.74-.39,1.02-.82,.3-1.69,.6-2.6,.88-2.37,.73-4.54,1.29-6.5,1.69-.66,.14-1.28,.22-1.86,.25-.61,0-1.09-.18-1.44-.53-.28-.35-.42-.74-.42-1.16,0-.54,.28-.96,.84-1.27,3.61-.63,6.41-1.22,8.4-1.76,.09-.02,.19-.05,.28-.07h-4.18c-1.48,0-2.21-.76-2.21-2.29v-9.95c0-1.52,.74-2.29,2.21-2.29h4.29c-.12-.26-.18-.53-.18-.81,0-.56,.22-.98,.67-1.27,2.62-.7,4.55-1.34,5.77-1.9,1.5-.68,2.31-1.77,2.43-3.27v-1.02h-3.02c-.49,.77-.98,1.51-1.48,2.21-.35,.47-.73,.71-1.12,.74-.54,0-.97-.14-1.3-.42-.45-.3-.67-.68-.67-1.12,0-.28,.11-.62,.32-1.02,1.48-2.09,2.59-3.82,3.34-5.2,.12-.21,.23-.39,.35-.53,.16-.09,.37-.14,.63-.14Zm-8.58,17.86h17.86v-.74c0-.45-.25-.67-.74-.67h-16.45c-.45,0-.67,.22-.67,.67v.74Zm0,3.76h17.86v-1.41h-17.86v1.41Zm17.12,3.97c.49,0,.74-.23,.74-.7v-.84h-17.86v.84c0,.47,.22,.7,.67,.7h16.45Zm-8.58-11.85h10.65c-1.55-.68-3.26-1.59-5.13-2.74-.21-.14-.4-.21-.56-.21-.09,0-.22,.06-.39,.18-1.52,1.15-3.05,2.07-4.57,2.78Z"/><path class="d" d="M173.08,20.36h3.83V10.34c0-.49,.15-.9,.46-1.23,.28-.3,.69-.46,1.23-.46s1,.15,1.3,.46c.33,.3,.49,.71,.49,1.23v10.02h3.69c.54,0,.94,.12,1.2,.35,.33,.21,.49,.69,.49,1.44,0,.63-.08,1.05-.25,1.27-.3,.38-.79,.56-1.44,.56h-3.69v1.3c.28-.09,.57-.14,.88-.14,.33,0,.64,.18,.95,.53,1.05,1.92,1.97,3.81,2.74,5.66,.21,.45,.33,.87,.35,1.27,0,.52-.16,.88-.49,1.09-.28,.26-.68,.41-1.2,.46-.59,0-1-.28-1.23-.84-.59-1.64-1.25-3.23-2-4.78v11.25c0,.42-.11,.79-.32,1.09-.3,.4-.8,.6-1.48,.6-.56,0-1.01-.19-1.34-.56-.23-.33-.35-.7-.35-1.12v-9.35c-1.12,2.84-2.16,5.06-3.09,6.68-.28,.26-.62,.39-1.02,.39-.4-.02-.8-.21-1.2-.56-.28-.26-.45-.59-.49-.98,0-.56,.09-1.03,.28-1.41,.96-1.83,1.89-3.68,2.78-5.55,.87-1.78,1.61-3.45,2.21-4.99h-3.3c-.49,0-.89-.13-1.2-.39-.33-.26-.49-.74-.49-1.44s.16-1.22,.49-1.48c.23-.21,.63-.32,1.2-.32Zm-.14-9.88c.42,0,.81,.2,1.16,.6,.66,1.88,1.23,3.71,1.72,5.52,.12,.42,.19,.82,.21,1.2,0,.52-.15,.89-.46,1.12-.28,.26-.69,.4-1.23,.42-.59,0-1.01-.27-1.27-.81-.45-1.92-.98-3.79-1.62-5.59-.14-.45-.21-.8-.21-1.05,0-.4,.19-.74,.56-1.02,.35-.26,.73-.39,1.12-.39Zm11.29-.28c.47,0,.86,.09,1.16,.28,.35,.26,.53,.63,.53,1.12-.05,.54-.15,1.12-.32,1.76-.54,2.11-1.04,3.79-1.51,5.03-.26,.54-.73,.81-1.41,.81-.42-.02-.82-.16-1.2-.42-.23-.26-.35-.59-.35-.98,0-.12,.05-.34,.14-.67,.68-1.92,1.24-3.94,1.69-6.05,.19-.59,.61-.88,1.27-.88Zm18.7,18.28c.52,0,.9,.18,1.16,.53,.23,.28,.35,.67,.35,1.16,0,.54-.13,.97-.39,1.3-.21,.3-.59,.49-1.12,.56-.82,.14-1.62,.28-2.39,.42v7.03c0,.47-.13,.86-.39,1.16-.28,.45-.77,.67-1.48,.67-.59,0-1.05-.22-1.41-.67-.28-.3-.42-.69-.42-1.16v-6.47c-3.26,.45-6.39,.73-9.39,.84-.68-.02-1.12-.16-1.34-.42-.3-.35-.47-.87-.49-1.55,0-.54,.14-.95,.42-1.23,.4-.42,1-.63,1.79-.63,3.05-.26,6.05-.54,9-.84V10.48c0-.54,.19-.98,.56-1.34,.3-.33,.73-.49,1.27-.49s1.01,.16,1.34,.49c.35,.33,.53,.77,.53,1.34V28.8c.8-.12,1.59-.22,2.39-.32Zm-14.2-9.39c.44,.05,.87,.22,1.27,.53,.7,.52,1.66,1.65,2.88,3.41,.68,1.03,1.02,1.91,1.02,2.64,0,.47-.13,.82-.39,1.05-.3,.33-.77,.49-1.41,.49-.4,0-.72-.07-.95-.21-.16-.12-.32-.32-.46-.6-.73-1.15-1.91-2.86-3.55-5.13-.14-.19-.22-.41-.25-.67,0-.16,.05-.38,.14-.63,.16-.3,.42-.55,.77-.74,.26-.09,.56-.14,.91-.14Zm1.55-8.61c.44,.05,.87,.25,1.27,.6,.73,.49,1.72,1.64,2.99,3.45,.7,1.05,1.05,1.97,1.05,2.74,0,.45-.13,.8-.39,1.05-.3,.33-.77,.49-1.41,.49-.42,0-.73-.08-.91-.25-.19-.09-.36-.3-.53-.63-.73-1.17-1.95-2.92-3.66-5.24-.14-.19-.22-.41-.25-.67,0-.16,.05-.38,.14-.63,.16-.3,.42-.55,.77-.74,.26-.12,.56-.18,.91-.18Z"/></g></g></g></g></svg>