<?xml version="1.0" encoding="UTF-8"?>
<svg id="Layer_1" xmlns="http://www.w3.org/2000/svg" xmlns:xlink="http://www.w3.org/1999/xlink" version="1.1" viewBox="0 0 144 38">
  <!-- Generator: Adobe Illustrator 29.1.0, SVG Export Plug-In . SVG Version: 2.1.0 Build 142)  -->
  <defs>
    <style>
      .st0 {
        fill: none;
      }

      .st1 {
        fill: url(#linear-gradient2);
      }

      .st2 {
        fill: url(#linear-gradient1);
      }

      .st3 {
        fill: url(#linear-gradient3);
      }

      .st4 {
        fill: #040403;
        isolation: isolate;
        opacity: .1;
      }

      .st5 {
        fill: url(#linear-gradient);
      }

      .st6 {
        fill: #fff;
      }

      .st7 {
        clip-path: url(#clippath);
      }
    </style>
    <clipPath id="clippath">
      <rect class="st0" y="0" width="143.1" height="38"/>
    </clipPath>
    <linearGradient id="linear-gradient" x1="2.4" y1="17.4" x2="110.4" y2="17.4" gradientUnits="userSpaceOnUse">
      <stop offset="0" stop-color="#f9e0ac"/>
      <stop offset="1" stop-color="#f9b653"/>
    </linearGradient>
    <linearGradient id="linear-gradient1" x1="99.6" x2="140" xlink:href="#linear-gradient"/>
    <linearGradient id="linear-gradient2" x1="0" y1="21.4" x2="108.1" y2="21.4" gradientTransform="translate(0 38.8) scale(1 -1)" gradientUnits="userSpaceOnUse">
      <stop offset="0" stop-color="#f9b653"/>
      <stop offset="1" stop-color="#f9e0ac"/>
    </linearGradient>
    <linearGradient id="linear-gradient3" x1="97.2" x2="137.6" xlink:href="#linear-gradient2"/>
  </defs>
  <g class="st7">
    <g>
      <path class="st4" d="M124.9,3.2h-24.5c10,0,18.2,7.8,18.2,17.4s-8.2,17.4-18.2,17.4h24.5c10,0,18.2-7.8,18.2-17.4s-8.2-17.4-18.2-17.4Z"/>
      <path class="st4" d="M21.4,38h74c10,0,18.2-7.8,18.2-17.4S105.4,3.2,95.4,3.2H21.4C11.4,3.2,3.2,11,3.2,20.6s8.2,17.4,18.2,17.4h0Z"/>
      <path class="st5" d="M110.4,17.4c0,9.6-8.2,17.4-18.2,17.4H20.6c-10,0-18.2-7.8-18.2-17.4S10.6,0,20.6,0h71.6C102.2,0,110.4,7.8,110.4,17.4Z"/>
      <path class="st2" d="M121.8,0h-22.2C109.6,0,117.8,7.8,117.8,17.4s-8.2,17.4-18.2,17.4h22.2c10,0,18.2-7.8,18.2-17.4S131.8,0,121.8,0Z"/>
      <path class="st1" d="M108.1,17.4c0,9.6-8.2,17.4-18.2,17.4H18.2c-10,0-18.2-7.8-18.2-17.4S8.2,0,18.2,0h71.6C99.8,0,108.1,7.8,108.1,17.4Z"/>
      <path class="st3" d="M119.4,0h-22.2C107.2,0,115.4,7.8,115.4,17.4s-8.2,17.4-18.2,17.4h22.2c10,0,18.2-7.8,18.2-17.4S129.4,0,119.4,0Z"/>
      <path class="st6" d="M128.7,16.7c-2.4-2.4-4.8-4.8-7.2-7.3-.9-.9-2.3.5-1.4,1.4,2.2,2.2,4.3,4.4,6.5,6.6-2.2,2.2-4.3,4.4-6.5,6.6-.9.9.5,2.3,1.4,1.4,2.4-2.4,4.8-4.8,7.2-7.3.4-.4.4-1,0-1.4Z"/>
      <path class="st6" d="M66.9,9c.4,0,.6.2.5.7l-.2.9h6.4c.4,0,.5.2.4.5-.1.4-.3.6-.7.6h-3.3l-1.3,2h2.7c.8,0,1.1.4.9,1.2l-2.1,8c-.3,1.2-1,1.8-2.2,1.8s-1.5,0-2.3-.3c-.3-.1-.4-.3-.3-.5.1-.4.4-.7.7-.7s.3,0,.5,0c.7.1,1.2.2,1.6.2s.7-.2.8-.7l2-7.3c0-.4,0-.5-.3-.5h-3.2l-.3,1.2c0,.3,0,.5.3.5h2.3c.4,0,.5.2.4.5,0,.4-.3.5-.7.5h-2.5c-.9,0-1.2-.5-1-1.4l.4-1.4h-2.1c-.2.7-.5,1.2-.8,1.6-.4.5-.8.9-1.4,1.2-.6.3-1.4.5-2.2.6h-.2c-.3,0-.5-.2-.3-.7,0-.3.3-.5.6-.5.6,0,1.2-.2,1.6-.4.4-.2.8-.5,1-.8.2-.2.4-.6.5-1h-3c-.3,0-.5.2-.6.5l-2.3,8.6c-.1.4-.4.6-.8.6s-.6-.2-.5-.6l2.4-9.1c.2-.8.8-1.2,1.6-1.2h2.7v-2h-3.5c-.4,0-.5-.2-.4-.6,0-.4.3-.5.7-.5h6.5l.2-.9c.1-.5.4-.7.9-.7h0ZM61.3,18.7h5.9c.6,0,.8.3.6.8l-.7,2.4c-.2.5-.5.8-1.1.8h-5.9c-.5,0-.7-.3-.6-.8l.7-2.4c.1-.5.5-.8,1-.8ZM65.7,21.7c.3,0,.4-.1.5-.4l.3-1.1c0-.3,0-.4-.3-.4h-4.5c-.2,0-.4.1-.5.4l-.3,1.1c0,.3,0,.4.2.4h4.6,0ZM63.8,13.9h3.5l1.3-2h-4.9v2Z"/>
      <path class="st6" d="M77,16.6h4.7c.7,0,.9.3.8,1l-1.6,5.9c-.2.7-.6,1-1.3,1h-4.7c-.7,0-.9-.3-.8-1l1.6-5.9c.2-.6.6-1,1.3-1ZM79.3,23.3c.3,0,.5-.2.6-.5l1.2-4.6c0-.3,0-.5-.3-.5h-3.4c-.3,0-.5.2-.6.5l-1.2,4.6c0,.4,0,.5.3.5h3.4ZM80.9,9.4h9.2c.8,0,1.1.4.9,1.1l-1,3.7c-.2.8-.7,1.2-1.5,1.2h-9.2c-.8,0-1-.4-.8-1.2l1-3.7c.2-.7.7-1.1,1.4-1.1ZM88.1,14.2c.4,0,.7-.2.8-.7l.6-2.3c.1-.4,0-.6-.4-.6h-7.9c-.4,0-.7.2-.8.6l-.6,2.3c-.1.4,0,.7.4.7h7.9ZM85.5,16.6h4.8c.7,0,.9.3.8,1l-1.6,5.9c-.2.7-.6,1-1.3,1h-4.8c-.7,0-.9-.3-.8-1l1.6-5.9c.2-.6.6-1,1.3-1h0ZM87.7,23.3c.3,0,.5-.2.6-.5l1.2-4.6c0-.3,0-.5-.4-.5h-3.4c-.3,0-.5.2-.6.5l-1.2,4.6c0,.4,0,.5.3.5h3.4,0Z"/>
      <path class="st6" d="M25.2,9.8h11.3c.3,0,.5,0,.6.3.2.2.2.4.1.7l-.8,2.8c0,.3-.2.5-.5.7-.3.2-.5.3-.8.3h-11.3c-.3,0-.5,0-.6-.3-.2-.2-.2-.4-.1-.7l.8-2.8c0-.3.2-.5.5-.7.3-.2.5-.3.8-.3ZM35.2,13.5l.2-.7c0-.1,0-.2-.1-.2h-10.2c-.1,0-.2,0-.2.2l-.2.7c0,.1,0,.2.1.2h10.2c0,0,.2,0,.2-.2ZM35.7,11.7l.2-.7c0,0,0-.1-.1-.1h-10.2c-.1,0-.2,0-.2.1l-.2.7c0,0,0,.1.1.1h10.2c0,0,.2,0,.2-.1ZM19.4,24.1c-.2,0-.3,0-.4-.1,0,0-.1-.2-.1-.4,0-.2,0-.3.2-.4s.3-.2.4-.2c.2,0,.5,0,.9-.1.1,0,.2,0,.2-.2l1.6-6c0-.1,0-.2-.1-.2h-.7c-.2,0-.3,0-.4-.2,0-.1-.1-.2,0-.4,0-.1.1-.3.3-.4.1-.1.3-.2.5-.2h15.1c.2,0,.3,0,.4.2,0,.1.1.2,0,.4,0,.1-.1.3-.3.4-.1.1-.3.2-.5.2h-7.8c0,0-.2,0-.2.2l-2,7.6c0,.2-.2.3-.3.4-.2.1-.3.2-.5.2s-.3,0-.4-.2c-.1-.1-.1-.3,0-.4l.3-1c0-.1,0-.1-.1-.1-2.3.4-4.3.7-6,.9ZM23.6,16.7l-.3,1c0,.1,0,.2.1.2h3.4c0,0,.2,0,.2-.2l.3-1c0-.1,0-.2-.1-.2h-3.4c-.1,0-.2,0-.2.2ZM23,19l-.3,1.1c0,.1,0,.2.1.2h3.4c0,0,.2,0,.2-.2l.3-1.1c0,0,0-.1-.1-.1h-3.4c-.1,0-.2,0-.2.1ZM22.4,21.3l-.3,1.2c0,.1,0,.1.1.1,1.2-.2,2.4-.4,3.6-.6.1,0,.2,0,.2-.2l.2-.6c0,0,0-.1-.1-.1h-3.4c-.1,0-.2,0-.2.1ZM35.1,23.7c0,.1,0,.3,0,.4,0,.1-.2.3-.4.3-.2,0-.3,0-.5,0-1-.4-1.9-.9-2.6-1.5,0,0-.2,0-.3,0-1,.6-2.1,1.1-3.3,1.4-.2,0-.3,0-.5,0-.1,0-.2-.2-.3-.3,0-.1,0-.3.1-.4,0-.1.2-.2.4-.3,1-.3,1.9-.7,2.7-1.2,0,0,.1-.1,0-.2-.5-.6-.9-1.3-1.3-2.1,0-.1,0-.3,0-.4,0-.2.2-.3.4-.4.2,0,.4,0,.5,0,.2,0,.3.1.3.3.3.7.7,1.4,1.1,1.9,0,0,.1,0,.2,0,1-.7,1.8-1.5,2.4-2.5,0,0,0,0,0-.1,0,0,0,0,0,0h-4.9c-.2,0-.3,0-.4-.2,0-.1-.1-.2,0-.4,0-.1.1-.3.3-.4.1-.1.3-.2.5-.2h5.8c.2,0,.3,0,.4.2,0,.1.1.2,0,.4-.1.4-.3.8-.5,1.1-.8,1.1-1.7,2-2.7,2.8,0,0,0,0,0,.1,0,0,0,0,0,0,.6.5,1.3.8,2.1,1.2.1,0,.2.2.3.3Z"/>
      <path class="st6" d="M38.9,21.4c-.4.1-.7,0-.8-.3,0-.1,0-.3,0-.4,0-.1.2-.3.4-.3,1.9-.7,3.5-1.5,5-2.5,0,0,0,0,0,0,0,0,0,0,0,0-.3,0-.5-.2-.5-.4,0-.2,0-.6.2-1.1l.3-1c0-.2.2-.3.3-.4.2-.1.3-.2.5-.2s.3,0,.4.2c0,.1.1.3,0,.4l-.2.7c-.1.4-.2.7-.1.8,0,0,.2.1.6.2.3,0,.8,0,1.5,0s1.2,0,1.5,0c.6,0,1,0,1.2-.2.2,0,.4-.3.5-.6,0-.2.2-.3.4-.4.2-.1.4-.1.5-.1.2,0,.3.1.4.3,0,.1,0,.3,0,.5-.3.7-.6,1.1-.9,1.3-.3.2-.9.3-1.8.3-.4,0-1.1,0-2,0h-.5c-.2,0-.4,0-.5,0s-.2,0-.3.1c-.3.2-.6.4-.7.6,0,0,0,0,0,0,0,0,0,0,0,0h6.6c.2,0,.3,0,.3.2,0,0,.1.2,0,.4-.1.4-.3.7-.6.9-1,.7-2.2,1.4-3.6,2,0,0,0,0,0,0,0,0,0,0,0,0,1.6.6,3.3,1,5.1,1.2.2,0,.3,0,.3.2,0,.1,0,.3,0,.4,0,.2-.2.3-.4.4-.2.1-.3.1-.5.1-2.3-.3-4.4-.9-6.2-1.7,0,0-.2,0-.3,0-2.2.8-4.6,1.3-7.2,1.7-.2,0-.3,0-.5-.1-.1,0-.2-.2-.2-.4,0-.2,0-.3.2-.4.1-.1.3-.2.4-.2,2.1-.3,4-.7,5.9-1.2,0,0,0,0,0-.1-.6-.3-1.1-.7-1.5-1-.1,0-.2-.2-.1-.4,0-.2.1-.3.3-.4.2-.1.3-.2.5-.2.2,0,.4,0,.5.1.5.4,1.2.9,2,1.3,0,0,.2,0,.3,0,1.3-.5,2.4-1.1,3.5-1.7,0,0,0,0,0,0,0,0,0,0,0,0h-6.6c0,0-.2,0-.3,0-1.1.6-2.2,1.1-3.4,1.6ZM41.7,15.4c.1-.1.3-.2.4-.2.2,0,.3,0,.4,0,.1,0,.2.2.2.4,0,.1,0,.3-.2.4-.8.9-1.7,1.7-2.7,2.4-.1,0-.2,0-.2,0h0c-.1-.2-.2-.4-.1-.7,0-.3.2-.5.5-.7.6-.5,1.2-1,1.7-1.6ZM46.9,14.2c.5.3,1.1.6,1.7,1,.1,0,.2.2.2.3,0,.1,0,.3-.2.4-.1.1-.3.2-.4.2-.2,0-.3,0-.4,0-.6-.4-1.2-.7-1.6-.9-.1,0-.2-.2-.2-.3,0-.1,0-.3.2-.4.1-.1.3-.2.4-.3.2,0,.3,0,.5,0ZM51.8,14.8c.2,0,.3-.1.5,0,.2,0,.3,0,.4.2.4.8.8,1.6,1.1,2.3,0,.1,0,.3,0,.4,0,.2-.2.3-.4.4-.2,0-.3.1-.5,0-.1,0-.2-.1-.3-.3-.3-.9-.7-1.6-1.1-2.3,0-.1,0-.3,0-.4,0-.2.2-.3.3-.4ZM54.7,15.7c0,.2-.2.3-.3.5-.2.1-.3.2-.5.2s-.3,0-.4-.2c0-.1-.1-.3,0-.5l.4-1.5c0,0,0-.1-.1-.1h-12.1c-.1,0-.2,0-.2.1l-.4,1.6c0,.2-.2.3-.3.5-.2.1-.3.2-.5.2s-.3,0-.4-.2c0-.1-.1-.3,0-.5l.5-1.8c0-.3.2-.5.5-.7.3-.2.5-.3.8-.3h2.1s0,0,.1,0c0,0,0,0,0,0-.2-.6-.3-1-.4-1.3,0,0-.1-.1-.2-.1s-.2,0-.4,0h-.4c-.2,0-.3,0-.4-.2,0-.1-.1-.2,0-.4,0-.1.1-.3.2-.4.1-.1.3-.2.4-.2,4.7,0,8.9-.3,12.7-.8.2,0,.3,0,.4.1.1,0,.2.2.2.4,0,.1,0,.3-.2.4-.1.1-.3.2-.4.2-.5,0-1.1.1-1.8.2,0,0,0,0,0,0,.2,0,.3.2.4.5,0,.2,0,.4-.2.7-.2.3-.4.5-.6.8,0,0,0,.1,0,.1h1.8c.3,0,.5,0,.6.3.2.2.2.4.1.7l-.5,1.7ZM47.5,13s0,0,0,0c0,0,0,0,0,0,0-.4-.2-.9-.4-1.4,0,0,0-.1-.2-.1-.5,0-1.3,0-2.3,0,0,0,0,0-.1,0,0,0,0,0,0,0,.2.8.4,1.2.4,1.3,0,0,0,.1.2.1h2.3ZM52.7,11c0,0,0-.1,0-.1-1.5.1-2.8.3-3.9.3,0,0-.1,0,0,.1.2.5.3,1,.4,1.5,0,0,0,.1.2.1h1.8c.1,0,.2,0,.3-.1.5-.6,1-1.3,1.4-1.8Z"/>
    </g>
  </g>
</svg>