<svg width="144" height="38" viewBox="0 0 144 38" fill="none" xmlns="http://www.w3.org/2000/svg">
<g clip-path="url(#clip0_697_10)">
<path opacity="0.1" d="M124.94 3.16992H100.4C110.41 3.16992 118.61 11.0099 118.61 20.5899C118.61 30.1699 110.42 38.0099 100.4 38.0099H124.94C134.95 38.0099 143.15 30.1699 143.15 20.5899C143.15 11.0099 134.95 3.16992 124.94 3.16992Z" fill="#040403"/>
<path opacity="0.1" d="M21.3699 37.9999H95.3799C105.39 37.9999 113.59 30.1599 113.59 20.5799C113.59 10.9999 105.4 3.16992 95.3799 3.16992H21.3699C11.3599 3.16992 3.16992 10.9999 3.16992 20.5799C3.16992 30.1599 11.3599 37.9999 21.3799 37.9999H21.3699Z" fill="#040403"/>
<path d="M110.42 17.42C110.42 27 102.23 34.84 92.2101 34.84H20.5801C10.5701 34.84 2.37012 27 2.37012 17.42C2.37012 7.84 10.5701 0 20.5801 0H92.2101C102.22 0 110.42 7.84 110.42 17.42Z" fill="#D81A61"/>
<path d="M121.771 0H99.6006C109.611 0 117.811 7.84 117.811 17.42C117.811 27 109.621 34.84 99.6006 34.84H121.771C131.781 34.84 139.981 27 139.981 17.42C139.981 7.84 131.781 0 121.771 0Z" fill="#D81A61"/>
<path d="M108.05 17.42C108.05 27 99.86 34.84 89.84 34.84H18.21C8.19 34.83 0 27 0 17.42C0 7.84 8.19 0 18.21 0H89.84C99.85 0 108.05 7.84 108.05 17.42Z" fill="url(#paint0_linear_697_10)"/>
<path d="M119.39 0H97.2197C107.23 0 115.43 7.84 115.43 17.42C115.43 27 107.24 34.84 97.2197 34.84H119.39C129.4 34.84 137.6 27 137.6 17.42C137.6 7.84 129.41 0 119.39 0Z" fill="url(#paint1_linear_697_10)"/>
<path d="M128.71 16.7199C126.32 14.2999 123.94 11.8799 121.55 9.45993C120.65 8.54993 119.25 9.94993 120.15 10.8599C122.31 13.0499 124.46 15.2299 126.62 17.4199C124.46 19.6099 122.31 21.7899 120.15 23.9799C119.25 24.8899 120.65 26.2899 121.55 25.3799C123.94 22.9599 126.32 20.5399 128.71 18.1199C129.09 17.7299 129.09 17.1099 128.71 16.7199Z" fill="white"/>
<path d="M66.8906 9.02C67.3406 9.02 67.5106 9.25 67.3906 9.7L67.1406 10.65H73.5206C73.8806 10.65 74.0106 10.83 73.9206 11.19C73.8106 11.61 73.5706 11.82 73.2106 11.82H69.8706L68.5906 13.86H71.3106C72.1206 13.86 72.4206 14.26 72.2106 15.07L70.0806 23.02C69.7606 24.21 69.0306 24.8 67.8906 24.8C67.2106 24.8 66.4306 24.7 65.5406 24.51C65.2806 24.41 65.1906 24.23 65.2606 23.98C65.3806 23.53 65.6106 23.3 65.9306 23.3C66.0806 23.3 66.2506 23.32 66.4606 23.35C67.1406 23.5 67.6906 23.57 68.1006 23.57C68.5106 23.57 68.7706 23.34 68.9006 22.87L70.8506 15.6C70.9506 15.24 70.8306 15.06 70.5006 15.06H67.3206L66.9906 16.28C66.9006 16.61 66.9906 16.77 67.2506 16.77H69.5106C69.8606 16.77 69.9906 16.95 69.8906 17.31C69.8006 17.66 69.5706 17.84 69.2206 17.84H66.7606C65.8506 17.84 65.5206 17.39 65.7706 16.48L66.1506 15.05H64.0306C63.7806 15.74 63.5206 16.27 63.2506 16.63C62.8906 17.14 62.4306 17.54 61.8706 17.84C61.2406 18.18 60.5106 18.38 59.6906 18.45H59.4706C59.1306 18.44 59.0206 18.21 59.1306 17.77C59.2306 17.48 59.4306 17.29 59.7306 17.23C60.3406 17.18 60.8806 17.05 61.3506 16.82C61.7706 16.62 62.1006 16.36 62.3406 16.04C62.5406 15.8 62.7206 15.47 62.8906 15.06H59.9206C59.6006 15.06 59.4006 15.24 59.3006 15.6L57.0006 24.17C56.8906 24.58 56.6306 24.78 56.2106 24.78C55.7906 24.78 55.6506 24.58 55.7606 24.17L58.2006 15.05C58.4206 14.25 58.9506 13.84 59.8106 13.84H62.4806L62.3506 11.8H59.0106C58.6506 11.8 58.5206 11.59 58.6306 11.17C58.7306 10.81 58.9606 10.63 59.3206 10.63H65.7706L66.0206 9.68C66.1406 9.23 66.4306 9 66.9006 9L66.8906 9.02ZM61.2506 18.66H67.1606C67.7406 18.66 67.9506 18.94 67.8006 19.49L67.1406 21.93C66.9906 22.47 66.6306 22.75 66.0606 22.75H60.1506C59.6106 22.75 59.4106 22.48 59.5506 21.93L60.2106 19.49C60.3606 18.94 60.7006 18.66 61.2506 18.66ZM65.6706 21.67C65.9406 21.67 66.1106 21.53 66.1906 21.26L66.4906 20.16C66.5606 19.9 66.4606 19.77 66.1906 19.77H61.6406C61.4006 19.77 61.2506 19.9 61.1806 20.16L60.8806 21.26C60.8106 21.53 60.8806 21.67 61.1306 21.67H65.6806H65.6706ZM63.7606 13.86H67.2906L68.5506 11.82H63.6306L63.7606 13.86Z" fill="white"/>
<path d="M76.981 16.58H81.721C82.411 16.58 82.671 16.9 82.501 17.53L80.921 23.44C80.741 24.11 80.311 24.44 79.621 24.44H74.881C74.191 24.44 73.931 24.11 74.111 23.44L75.691 17.53C75.861 16.9 76.291 16.58 76.981 16.58ZM79.251 23.3C79.561 23.3 79.761 23.12 79.851 22.76L81.071 18.21C81.151 17.89 81.041 17.73 80.741 17.73H77.341C77.011 17.73 76.801 17.89 76.721 18.21L75.501 22.76C75.401 23.12 75.521 23.3 75.851 23.3H79.251ZM80.861 9.44995H90.081C90.861 9.44995 91.161 9.80995 90.971 10.52L89.991 14.19C89.781 14.97 89.291 15.36 88.501 15.36H79.281C78.511 15.36 78.231 14.97 78.441 14.19L79.421 10.52C79.611 9.80995 80.091 9.44995 80.861 9.44995ZM88.131 14.19C88.541 14.19 88.801 13.96 88.921 13.51L89.541 11.2C89.651 10.79 89.501 10.59 89.091 10.59H81.231C80.821 10.59 80.561 10.79 80.451 11.2L79.831 13.51C79.711 13.96 79.851 14.19 80.261 14.19H88.121H88.131ZM85.471 16.58H90.221C90.901 16.58 91.151 16.9 90.981 17.53L89.401 23.44C89.221 24.11 88.791 24.44 88.111 24.44H83.361C82.671 24.44 82.411 24.11 82.591 23.44L84.171 17.53C84.341 16.9 84.771 16.58 85.461 16.58H85.471ZM87.731 23.3C88.061 23.3 88.271 23.12 88.371 22.76L89.591 18.21C89.671 17.89 89.551 17.73 89.231 17.73H85.851C85.531 17.73 85.331 17.89 85.251 18.21L84.031 22.76C83.931 23.12 84.041 23.3 84.361 23.3H87.741H87.731Z" fill="white"/>
<path d="M25.2307 9.83485H36.5419C36.8159 9.83485 37.0279 9.93266 37.178 10.1283C37.3312 10.3124 37.3723 10.5368 37.3014 10.8014L36.5476 13.6148C36.4767 13.8795 36.3137 14.1096 36.0588 14.3052C35.8039 14.5009 35.5394 14.5987 35.2654 14.5987H23.9543C23.6803 14.5987 23.4682 14.5009 23.3181 14.3052C23.168 14.1096 23.1284 13.8795 23.1994 13.6148L23.9532 10.8014C24.0241 10.5368 24.1855 10.3124 24.4374 10.1283C24.6923 9.93266 24.9568 9.83485 25.2307 9.83485ZM35.1683 13.494L35.344 12.8381C35.3718 12.7346 35.338 12.6828 35.2427 12.6828H25.0037C24.8965 12.6828 24.829 12.7346 24.8013 12.8381L24.6255 13.494C24.5978 13.5976 24.6375 13.6494 24.7447 13.6494H34.9837C35.079 13.6494 35.1405 13.5976 35.1683 13.494ZM35.6539 11.6817L35.8343 11.0085C35.8589 10.9165 35.8236 10.8705 35.7283 10.8705H25.4893C25.3821 10.8705 25.3162 10.9165 25.2915 11.0085L25.1111 11.6817C25.0865 11.7737 25.1277 11.8198 25.235 11.8198H35.474C35.5693 11.8198 35.6292 11.7737 35.6539 11.6817ZM19.4179 24.1263C19.2599 24.1378 19.1353 24.0918 19.0439 23.9882C18.9494 23.8962 18.9119 23.7696 18.9312 23.6085C18.9506 23.4474 19.0308 23.3036 19.1719 23.177C19.313 23.0504 19.4626 22.9814 19.6205 22.9699C19.8173 22.9469 20.1244 22.9124 20.5417 22.8663C20.6432 22.8433 20.7063 22.7858 20.7309 22.6937L22.3265 16.7389C22.3543 16.6354 22.3205 16.5836 22.2252 16.5836H21.5462C21.3794 16.5836 21.2518 16.5261 21.1636 16.411C21.0753 16.2959 21.0512 16.1636 21.0912 16.014C21.1313 15.8644 21.2263 15.7321 21.3763 15.617C21.5263 15.502 21.6846 15.4444 21.8514 15.4444H36.9151C37.0818 15.4444 37.2034 15.502 37.2798 15.617C37.3681 15.7321 37.3922 15.8644 37.3521 16.014C37.312 16.1636 37.217 16.2959 37.0671 16.411C36.929 16.5261 36.7766 16.5836 36.6098 16.5836H28.8368C28.7415 16.5836 28.6799 16.6354 28.6522 16.7389L26.6172 24.3334C26.571 24.506 26.4669 24.6499 26.3051 24.765C26.1401 24.8915 25.9683 24.9548 25.7896 24.9548C25.6109 24.9548 25.473 24.8915 25.3759 24.765C25.2757 24.6499 25.2487 24.506 25.2949 24.3334L25.5539 23.3669C25.5817 23.2633 25.5448 23.223 25.4433 23.2461C23.1435 23.6488 21.135 23.9422 19.4179 24.1263ZM23.5774 16.7389L23.3184 17.7055C23.2906 17.8091 23.3303 17.8609 23.4376 17.8609H26.8863C26.9816 17.8609 27.0431 17.8091 27.0709 17.7055L27.3299 16.7389C27.3576 16.6354 27.3238 16.5836 27.2285 16.5836H23.7798C23.6726 16.5836 23.6051 16.6354 23.5774 16.7389ZM22.9761 18.9828L22.694 20.0356C22.6663 20.1392 22.706 20.191 22.8132 20.191H26.2619C26.3572 20.191 26.4188 20.1392 26.4465 20.0356L26.7286 18.9828C26.7533 18.8907 26.718 18.8447 26.6227 18.8447H23.1739C23.0667 18.8447 23.0008 18.8907 22.9761 18.9828ZM22.3518 21.3129L22.028 22.5211C22.0003 22.6247 22.0371 22.665 22.1386 22.6419C23.3554 22.4578 24.5618 22.268 25.7578 22.0724C25.8593 22.0493 25.9224 21.9918 25.947 21.8998L26.1043 21.3129C26.1289 21.2208 26.0936 21.1748 25.9983 21.1748H22.5496C22.4424 21.1748 22.3764 21.2208 22.3518 21.3129ZM35.071 23.6603C35.1055 23.7984 35.0729 23.9422 34.9733 24.0918C34.8736 24.2414 34.7371 24.3507 34.5637 24.4197C34.3873 24.5003 34.2234 24.5118 34.072 24.4543C33.0778 24.0745 32.2201 23.5855 31.4989 22.9871C31.4309 22.9296 31.3475 22.9296 31.2487 22.9871C30.2606 23.5625 29.1722 24.0458 27.9833 24.437C27.813 24.4945 27.6537 24.4888 27.5054 24.4197C27.366 24.3622 27.2821 24.2529 27.2538 24.0918C27.2343 23.9422 27.2744 23.7926 27.374 23.643C27.4706 23.505 27.6025 23.4129 27.7697 23.3669C28.7345 23.0562 29.6315 22.665 30.4608 22.1932C30.5565 22.1471 30.5779 22.0896 30.5249 22.0206C30.0035 21.3877 29.5825 20.6915 29.2618 19.9321C29.2035 19.794 29.2198 19.6444 29.3106 19.4833C29.4014 19.3222 29.5351 19.2014 29.7115 19.1209C29.8999 19.0403 30.0697 19.0288 30.2211 19.0863C30.3875 19.1324 30.4982 19.2302 30.5535 19.3798C30.8326 20.1162 31.2051 20.7491 31.6708 21.2784C31.73 21.3244 31.8089 21.3187 31.9077 21.2611C32.8582 20.5592 33.6728 19.7422 34.3514 18.8102C34.3725 18.7756 34.3758 18.7411 34.3613 18.7066C34.3586 18.6721 34.3394 18.6548 34.3037 18.6548H29.3539C29.1991 18.6548 29.0775 18.5973 28.9892 18.4822C28.9009 18.3672 28.8768 18.2348 28.9169 18.0852C28.9569 17.9357 29.052 17.8033 29.2019 17.6883C29.3519 17.5732 29.5043 17.5157 29.6592 17.5157H35.5024C35.6691 17.5157 35.7907 17.5732 35.8671 17.6883C35.9554 17.8033 35.9795 17.9357 35.9394 18.0852C35.8284 18.4995 35.6508 18.8735 35.4065 19.2072C34.6433 20.2773 33.7443 21.2093 32.7095 22.0033C32.6796 22.0263 32.6568 22.0666 32.6414 22.1241C32.6291 22.1702 32.6393 22.1989 32.6719 22.2104C33.2753 22.6707 33.988 23.0562 34.8101 23.3669C34.9496 23.4244 35.0365 23.5222 35.071 23.6603Z" fill="white"/>
<path d="M38.9198 21.4337C38.5223 21.5833 38.2626 21.4855 38.1407 21.1403C38.0943 21.0022 38.115 20.8584 38.2027 20.7088C38.3024 20.5592 38.4373 20.4556 38.6076 20.3981C40.4842 19.7077 42.1386 18.8907 43.5708 17.9472C43.5977 17.9357 43.6083 17.9184 43.6025 17.8954C43.5999 17.8609 43.5882 17.8378 43.5674 17.8263C43.2643 17.7573 43.0913 17.625 43.0484 17.4294C43.0205 17.2222 43.079 16.8483 43.2239 16.3074L43.4968 15.2891C43.543 15.1165 43.6486 14.9669 43.8136 14.8403C43.9785 14.7137 44.1504 14.6505 44.3291 14.6505C44.5077 14.6505 44.6457 14.7137 44.7428 14.8403C44.8399 14.9669 44.8653 15.1165 44.8191 15.2891L44.6387 15.9622C44.5216 16.3995 44.482 16.6584 44.5199 16.7389C44.5579 16.8195 44.7466 16.8713 45.0859 16.8943C45.3775 16.9173 45.8867 16.9288 46.6134 16.9288C47.3281 16.9288 47.8435 16.9173 48.1594 16.8943C48.7642 16.8598 49.1549 16.8022 49.3314 16.7217C49.5197 16.6411 49.6899 16.4283 49.842 16.0831C49.909 15.922 50.0278 15.7896 50.1985 15.6861C50.3811 15.5825 50.5512 15.548 50.7087 15.5825C50.8782 15.617 50.9965 15.7091 51.0636 15.8587C51.1338 15.9968 51.1324 16.1578 51.0592 16.342C50.782 17.0209 50.4892 17.4466 50.1809 17.6192C49.8876 17.7803 49.2955 17.8781 48.4047 17.9126C48.0054 17.9357 47.3352 17.9472 46.3941 17.9472C46.275 17.9472 46.0963 17.9472 45.858 17.9472C45.6229 17.9357 45.4517 17.9299 45.3445 17.9299C45.273 17.9299 45.1773 17.9759 45.0573 18.068C44.7424 18.3096 44.4965 18.4937 44.3196 18.6203C44.2896 18.6433 44.2775 18.6663 44.2832 18.6893C44.2921 18.7009 44.3084 18.7066 44.3322 18.7066H50.9259C51.0808 18.7066 51.192 18.7584 51.2596 18.862C51.3421 18.954 51.3633 19.0748 51.3233 19.2244C51.2215 19.6041 51.0163 19.9033 50.7075 20.1219C49.7001 20.8584 48.5087 21.5258 47.1333 22.1241C47.1033 22.1471 47.0852 22.1702 47.079 22.1932C47.0848 22.2162 47.098 22.2335 47.1188 22.245C48.7277 22.8203 50.4365 23.223 52.2451 23.4532C52.4057 23.4762 52.5167 23.551 52.5781 23.6776C52.6395 23.8041 52.6263 23.9422 52.5386 24.0918C52.4478 24.2529 52.3126 24.3795 52.1331 24.4715C51.9624 24.5751 51.7967 24.6154 51.6361 24.5923C49.3487 24.2817 47.2825 23.7236 45.4374 22.9181C45.3513 22.8836 45.256 22.8836 45.1515 22.9181C42.9943 23.6776 40.5933 24.2356 37.9484 24.5923C37.7754 24.6154 37.6254 24.5751 37.4983 24.4715C37.38 24.3795 37.3186 24.2529 37.3141 24.0918C37.3215 23.9307 37.3839 23.7869 37.5012 23.6603C37.6304 23.5337 37.774 23.4647 37.932 23.4532C40.013 23.2 41.9718 22.803 43.8084 22.2622C43.8772 22.2277 43.8983 22.1932 43.8718 22.1587C43.2941 21.825 42.8043 21.497 42.4022 21.1748C42.2808 21.0943 42.2357 20.9735 42.267 20.8124C42.2982 20.6513 42.3888 20.5132 42.5388 20.3981C42.6918 20.2715 42.8593 20.2025 43.041 20.191C43.2347 20.1795 43.3967 20.2198 43.5269 20.3118C44.0737 20.7606 44.7474 21.1806 45.548 21.5718C45.634 21.6063 45.7293 21.6063 45.8339 21.5718C47.122 21.077 48.2828 20.5017 49.3162 19.8458C49.3431 19.8343 49.3537 19.817 49.348 19.794C49.3422 19.771 49.3275 19.7595 49.3036 19.7595H42.6563C42.561 19.7595 42.458 19.7883 42.3473 19.8458C41.2816 20.4441 40.1391 20.9735 38.9198 21.4337ZM41.6735 15.3581C41.7908 15.2315 41.9256 15.151 42.0778 15.1165C42.245 15.0705 42.3833 15.0877 42.4927 15.1683C42.5991 15.2603 42.6561 15.3811 42.6637 15.5307C42.6712 15.6803 42.6148 15.8241 42.4944 15.9622C41.6879 16.8828 40.8021 17.6767 39.837 18.3441C39.7351 18.4132 39.6577 18.4132 39.6047 18.3441L39.5914 18.3269C39.4502 18.1428 39.4135 17.9241 39.4813 17.671C39.5491 17.4178 39.7045 17.1935 39.9476 16.9978C40.5355 16.5376 41.1108 15.991 41.6735 15.3581ZM46.9066 14.1672C47.4402 14.4433 47.9971 14.7655 48.5775 15.1337C48.6869 15.2143 48.7395 15.3294 48.7352 15.4789C48.7427 15.6285 48.6879 15.7666 48.5706 15.8932C48.4532 16.0198 48.3066 16.1003 48.1306 16.1348C47.9545 16.1694 47.8058 16.1463 47.6845 16.0658C47.0419 15.6631 46.5012 15.3466 46.0626 15.1165C45.9469 15.0589 45.8778 14.9611 45.8553 14.8231C45.8446 14.685 45.898 14.5526 46.0153 14.4261C46.1357 14.288 46.2794 14.1959 46.4466 14.1499C46.6169 14.0924 46.7702 14.0981 46.9066 14.1672ZM51.8057 14.8231C51.9733 14.731 52.1359 14.7022 52.2934 14.7368C52.454 14.7598 52.571 14.8346 52.6443 14.9611C53.0867 15.7551 53.4491 16.5146 53.7314 17.2395C53.7778 17.3776 53.7615 17.5272 53.6826 17.6883C53.6037 17.8494 53.4804 17.9759 53.3128 18.068C53.1571 18.16 53.0005 18.1888 52.843 18.1543C52.6973 18.1198 52.6013 18.0335 52.555 17.8954C52.2232 17.0439 51.8684 16.2787 51.4904 15.5998C51.4259 15.4847 51.4212 15.3466 51.4763 15.1855C51.5433 15.0244 51.6531 14.9036 51.8057 14.8231ZM54.7465 15.6515C54.6972 15.8357 54.5901 15.991 54.4251 16.1176C54.2721 16.2441 54.1002 16.3074 53.9096 16.3074C53.719 16.3074 53.5752 16.2441 53.478 16.1176C53.3809 15.991 53.357 15.8357 53.4064 15.6515L53.8087 14.1499C53.8334 14.0579 53.7921 14.0118 53.6849 14.0118H41.5696C41.4624 14.0118 41.3965 14.0579 41.3718 14.1499L40.9463 15.7378C40.897 15.922 40.7899 16.0773 40.6249 16.2039C40.4599 16.3304 40.2822 16.3937 40.0916 16.3937C39.901 16.3937 39.7571 16.3304 39.66 16.2039C39.5748 16.0773 39.5568 15.922 39.6061 15.7378L40.0871 13.9428C40.158 13.6781 40.315 13.448 40.558 13.2524C40.813 13.0568 41.0774 12.959 41.3514 12.959H43.4242C43.46 12.959 43.4944 12.9417 43.5275 12.9072C43.5605 12.8726 43.5682 12.8439 43.5506 12.8209C43.3712 12.2455 43.2351 11.8198 43.1423 11.5436C43.1074 11.4516 43.0364 11.4055 42.9292 11.4055C42.8338 11.4055 42.6953 11.4113 42.5135 11.4228C42.3348 11.4228 42.2038 11.4228 42.1204 11.4228C41.9536 11.4228 41.8246 11.371 41.7332 11.2674C41.6568 11.1524 41.6327 11.0201 41.6609 10.8705C41.689 10.7209 41.7706 10.5943 41.9056 10.4907C42.0436 10.3757 42.1901 10.3181 42.3449 10.3181C47.0209 10.2951 51.2449 10.0247 55.0171 9.5069C55.1781 9.48389 55.3118 9.51841 55.4182 9.61047C55.5276 9.69101 55.5786 9.81183 55.5712 9.97293C55.555 10.1225 55.4882 10.2606 55.3709 10.3872C55.2536 10.5138 55.1144 10.5885 54.9534 10.6116C54.4941 10.6806 53.8784 10.7554 53.1063 10.8359C53.0913 10.8474 53.0911 10.8705 53.1057 10.905C53.3224 10.9855 53.4475 11.1409 53.4812 11.371C53.5179 11.5896 53.4534 11.8083 53.2876 12.0269C53.0856 12.2916 52.8777 12.5562 52.6638 12.8209C52.5915 12.9129 52.603 12.959 52.6983 12.959H54.4673C54.7413 12.959 54.9474 13.0568 55.0856 13.2524C55.2357 13.448 55.2753 13.6781 55.2044 13.9428L54.7465 15.6515ZM47.4805 12.959C47.5163 12.959 47.5432 12.9474 47.5613 12.9244C47.5943 12.8899 47.608 12.8611 47.6022 12.8381C47.5076 12.4354 47.372 11.9636 47.1952 11.4228C47.1573 11.3422 47.0966 11.302 47.0132 11.302C46.4948 11.325 45.7202 11.348 44.6896 11.371C44.6538 11.371 44.6194 11.3883 44.5864 11.4228C44.5533 11.4573 44.5456 11.4861 44.5632 11.5091C44.7974 12.28 44.9304 12.7173 44.9622 12.8209C44.9733 12.9129 45.0325 12.959 45.1397 12.959H47.4805ZM52.6537 10.9913C52.6961 10.9222 52.6755 10.8877 52.5921 10.8877C51.0987 11.0373 49.8007 11.1466 48.6981 11.2157C48.6028 11.2157 48.5742 11.2559 48.6122 11.3365C48.7624 11.8428 48.8919 12.3376 49.0007 12.8209C49.0117 12.9129 49.0768 12.959 49.196 12.959H50.9471C51.0543 12.959 51.1426 12.9187 51.2118 12.8381C51.7538 12.1937 52.2344 11.5781 52.6537 10.9913Z" fill="white"/>
</g>
<defs>
<linearGradient id="paint0_linear_697_10" x1="0" y1="17.42" x2="108.05" y2="17.42" gradientUnits="userSpaceOnUse">
<stop stop-color="#CF2B6A"/>
<stop offset="1" stop-color="#FD387D"/>
</linearGradient>
<linearGradient id="paint1_linear_697_10" x1="97.2297" y1="0" x2="137.6" y2="0" gradientUnits="userSpaceOnUse">
<stop stop-color="#CF2B6A"/>
<stop offset="1" stop-color="#FD387D"/>
</linearGradient>
<clipPath id="clip0_697_10">
<rect width="143.14" height="38" fill="white"/>
</clipPath>
</defs>
</svg>
