<?xml version="1.0" encoding="utf-8"?>
<!-- Generator: Adobe Illustrator 26.2.1, SVG Export Plug-In . SVG Version: 6.00 Build 0)  -->
<svg version="1.1" id="Layer_1" xmlns="http://www.w3.org/2000/svg" xmlns:xlink="http://www.w3.org/1999/xlink" x="0px" y="0px"
	 viewBox="0 0 96.3 26" style="enable-background:new 0 0 96.3 26;" xml:space="preserve">
<style type="text/css">
	.st0{fill:url(#SVGID_1_);}
	.st1{fill:#FFFFFF;}
</style>
<g>
	<g id="a">
	</g>
	<g id="b">
		<g id="c">
			<g>
				<g>
					<g>
						
							<linearGradient id="SVGID_1_" gradientUnits="userSpaceOnUse" x1="48.17" y1="2.46" x2="48.17" y2="28.46" gradientTransform="matrix(1 0 0 -1 0 28.46)">
							<stop  offset="0" style="stop-color:#F99730"/>
							<stop  offset="1" style="stop-color:#FFDEB3"/>
						</linearGradient>
						<path class="st0" d="M13,0h70.3c7.2,0,13,5.8,13,13l0,0c0,7.2-5.8,13-13,13H13C5.8,26,0,20.2,0,13l0,0C0,5.8,5.8,0,13,0z"/>
					</g>
				</g>
				<g>
					<path class="st1" d="M30.2,6.4c0.4,0,0.5,0.2,0.5,0.5c0,0.2-0.1,0.3-0.3,0.5c-0.6,0.2-1.3,0.5-2,0.6V10h3.4
						c-0.1-1-0.1-2.1-0.1-3.2c0-0.4,0.2-0.6,0.5-0.6c0.4,0,0.5,0.2,0.5,0.6c0,1.2,0,2.2,0.1,3.2H37c0.3,0,0.5,0.2,0.5,0.5
						S37.3,11,37,11h-4c0.1,0.5,0.2,1,0.2,1.4c0.2,0.8,0.4,1.6,0.6,2.3c0.1-0.1,0.2-0.3,0.2-0.5c0.3-0.6,0.6-1.4,0.9-2.3
						c0.1-0.2,0.2-0.3,0.4-0.3c0.2,0,0.3,0,0.4,0.1c0.1,0.1,0.2,0.2,0.2,0.3c0,0.1,0,0.2,0,0.4c-0.3,1-0.6,1.8-0.9,2.4
						c-0.2,0.4-0.4,0.7-0.6,1c0.3,0.5,0.6,1,0.9,1.5c0.2,0.3,0.4,0.5,0.6,0.5c0.1,0,0.2-0.1,0.2-0.4c0.1-0.6,0.2-1.2,0.2-1.8
						c0-0.3,0.2-0.5,0.5-0.5c0.3,0.1,0.5,0.3,0.5,0.6c0,0.8-0.1,1.6-0.3,2.4c-0.2,0.6-0.5,0.9-0.9,0.9c-0.4,0-0.9-0.3-1.4-0.8
						c-0.3-0.4-0.7-1-1-1.5c-0.3,0.3-0.7,0.6-1,0.9c-0.5,0.4-1.2,0.8-2,1.1c-0.2,0.1-0.3,0.1-0.4,0.1c-0.2,0-0.3,0-0.4-0.1
						s-0.2-0.2-0.2-0.3c0-0.3,0.1-0.4,0.3-0.5c0.8-0.3,1.4-0.7,1.9-1.1c0.5-0.4,0.9-0.7,1.2-1.1l0.1-0.1c-0.5-1.1-0.8-2.4-1.1-4
						c0-0.2-0.1-0.5-0.1-0.7h-3.5v2.6c0.9-0.2,1.7-0.4,2.3-0.7c0.1,0,0.2,0,0.2,0c0.3,0,0.5,0.2,0.5,0.5c0,0.2-0.1,0.4-0.3,0.5
						c-0.7,0.3-1.6,0.6-2.7,0.9v3.1c0,0.8-0.5,1.3-1.6,1.3c-0.4,0-1-0.1-1.8-0.4c-0.3-0.1-0.4-0.3-0.4-0.5c0-0.4,0.2-0.5,0.5-0.6
						c0.1,0,0.2,0,0.3,0c0.7,0.2,1.2,0.3,1.4,0.3c0.3,0,0.5-0.1,0.5-0.4V15c-0.7,0.1-1.4,0.3-2.2,0.4c-0.3,0-0.5-0.2-0.5-0.5
						c0-0.4,0.2-0.5,0.4-0.6c0.9-0.1,1.7-0.2,2.3-0.4V11H25c-0.3,0-0.5-0.2-0.5-0.5S24.7,10,25,10h2.3V8.3c-0.7,0.1-1.3,0.2-1.9,0.2
						c-0.4,0-0.6-0.2-0.6-0.6c0-0.3,0.2-0.4,0.5-0.4c0.7-0.1,1.4-0.2,2.1-0.3C28.3,7,29.2,6.8,30.2,6.4L30.2,6.4z M34.1,6.6
						c0.1,0,0.2,0,0.3,0.1c0.8,0.5,1.5,1.1,2.1,1.6c0.2,0.1,0.2,0.3,0.2,0.4c0,0.3-0.2,0.5-0.5,0.5c-0.2,0-0.3,0-0.4-0.1
						c-0.6-0.6-1.2-1.1-2-1.7c-0.2-0.1-0.3-0.3-0.3-0.4C33.5,6.7,33.7,6.6,34.1,6.6z"/>
					<path class="st1" d="M42.9,6.2c0.1,0,0.3,0,0.4,0.1c0.1,0.1,0.1,0.2,0.1,0.4s0,0.3-0.1,0.4c-0.2,0.4-0.3,0.7-0.5,1
						c-0.1,0.1-0.2,0.2-0.2,0.4h1.8c0.6,0,0.9,0.3,0.9,0.9v8.4c0,0.6-0.3,0.9-0.9,0.9H41c-0.6,0-0.9-0.3-0.9-0.9V9.4
						c0-0.6,0.3-0.9,0.9-0.9h0.4c0.2-0.2,0.3-0.4,0.4-0.6c0.2-0.5,0.5-0.9,0.7-1.4C42.6,6.3,42.8,6.3,42.9,6.2L42.9,6.2z M41.1,12.9
						h3.2v-3c0-0.3-0.1-0.4-0.4-0.4h-2.5c-0.3,0-0.4,0.1-0.4,0.4L41.1,12.9L41.1,12.9z M43.9,17.8c0.3,0,0.4-0.1,0.4-0.4v-3.5h-3.2
						v3.5c0,0.3,0.1,0.4,0.4,0.4H43.9L43.9,17.8z M47.4,6.3c0.3,0,0.5,0.1,0.5,0.4c0,0.5-0.1,1-0.1,1.4h3.6c0.7,0,1,0.4,1,1.1
						c0,2.2-0.1,4.1-0.2,6c-0.1,1.6-0.4,2.6-0.8,3.1c-0.5,0.5-1.1,0.8-1.9,0.8c-0.8,0-1.6-0.2-2.5-0.6c-0.2-0.1-0.4-0.3-0.4-0.5
						c0-0.4,0.2-0.6,0.5-0.6c1,0.4,1.8,0.7,2.3,0.7c0.6,0,1.1-0.2,1.3-0.7c0.3-0.5,0.4-1.3,0.5-2.6c0.1-1.4,0.1-3.1,0.1-5.1
						c0-0.4-0.2-0.5-0.5-0.5h-3.3c-0.2,0.8-0.5,1.4-0.8,1.9c-0.2,0.2-0.3,0.3-0.5,0.3c-0.4,0-0.6-0.2-0.6-0.5c0,0,0-0.1,0.2-0.3
						c0.4-0.5,0.6-1.1,0.8-1.7c0.1-0.5,0.2-1.2,0.3-2C46.8,6.5,47,6.3,47.4,6.3L47.4,6.3z M47.8,11.1c0.1,0,0.2,0.1,0.4,0.2
						c0.4,1,0.7,2.1,1,3.3c0,0.1,0,0.3,0,0.4c0,0.3-0.2,0.5-0.6,0.5c-0.2,0-0.3-0.1-0.4-0.4c-0.2-1.4-0.5-2.5-0.8-3.4
						c-0.1-0.1-0.1-0.2-0.1-0.3C47.3,11.2,47.5,11.1,47.8,11.1L47.8,11.1z"/>
					<path class="st1" d="M56.2,6.8h3.1c0.6,0,0.9,0.3,0.9,0.8V15c0,0.6-0.3,0.9-0.9,0.9h-0.4c0.1,0.1,0.1,0.1,0.1,0.2
						c0.3,0.8,0.7,1.4,1.4,2c0.2,0.1,0.2,0.2,0.2,0.4c0,0.2,0,0.3-0.1,0.3C60.5,19,60.4,19,60.2,19c-0.2,0-0.3-0.1-0.5-0.2
						c-0.4-0.3-0.8-0.9-1.2-1.7c-0.2-0.5-0.3-0.8-0.3-0.9c0-0.1,0-0.2,0.1-0.3h-1.1c0.1,0.1,0.2,0.2,0.2,0.3c0,0,0,0.1-0.1,0.2
						c-0.4,0.9-0.8,1.7-1.3,2.4C55.9,19,55.8,19,55.6,19c-0.4,0-0.6-0.1-0.6-0.4c0-0.1,0-0.2,0.1-0.3c0.5-0.6,0.9-1.4,1.4-2.4
						c0,0,0-0.1,0.1-0.1h-0.4c-0.6,0-0.9-0.3-0.9-0.9V7.6C55.3,7.1,55.6,6.8,56.2,6.8L56.2,6.8z M56.3,9.4h2.9V8
						c0-0.2-0.1-0.3-0.3-0.3h-2.3c-0.2,0-0.3,0.1-0.3,0.3V9.4z M56.3,12.1h2.9v-1.7h-2.9V12.1z M58.9,15c0.2,0,0.3-0.1,0.3-0.3v-1.6
						h-2.9v1.6c0,0.2,0.1,0.3,0.3,0.3H58.9z M63.7,6.4c0.4,0,0.6,0.2,0.6,0.5v1.4h2.9c0.3,0,0.5,0.2,0.5,0.5s-0.2,0.5-0.5,0.5h-2.9
						v2.6h2c0.6,0,0.9,0.3,0.9,0.8v5.2c0,0.6-0.3,0.9-0.9,0.9H62c-0.5,0-0.8-0.3-0.8-0.9v-5.2c0-0.5,0.3-0.8,0.8-0.8h1.3v-5
						C63.2,6.6,63.4,6.4,63.7,6.4z M65.8,17.8c0.2,0,0.3-0.1,0.3-0.3v-4.2c0-0.2-0.1-0.3-0.3-0.3h-3.3c-0.2,0-0.3,0.1-0.3,0.3v4.2
						c0,0.2,0.1,0.3,0.3,0.3C62.5,17.8,65.8,17.8,65.8,17.8z"/>
					<path class="st1" d="M71.6,6.8h9.6c0.7,0,1.1,0.3,1.1,1v10c0,0.7-0.3,1-1.1,1h-9.6c-0.7,0-1-0.3-1-1v-10
						C70.6,7.1,70.9,6.8,71.6,6.8z M81,17.9c0.3,0,0.4-0.1,0.4-0.4V8c0-0.3-0.1-0.4-0.4-0.4h-9.2c-0.3,0-0.4,0.1-0.4,0.4v9.5
						c0,0.3,0.1,0.4,0.4,0.4H81z M73.4,8.1h6c0.6,0,0.8,0.2,0.8,0.7v0.8c0,0.5-0.3,0.7-0.8,0.7h-2.6V11h3.8c0.3,0,0.4,0.1,0.4,0.4
						c0,0.3-0.1,0.4-0.4,0.4h-8.4c-0.3,0-0.4-0.1-0.4-0.4c0-0.2,0.1-0.4,0.4-0.4h3.7v-0.7h-2.5c-0.5,0-0.8-0.2-0.8-0.7V8.9
						C72.6,8.4,72.9,8.1,73.4,8.1z M73.3,12.4h6.2c0.7,0,1.1,0.3,1.1,0.9v3c0,0.7-0.3,1-1.1,1h-6.2c-0.7,0-1-0.3-1-1v-3
						C72.3,12.7,72.6,12.4,73.3,12.4z M79.4,16.6c0.2,0,0.3-0.1,0.3-0.4v-2.6c0-0.2-0.1-0.4-0.3-0.4h-5.9c-0.2,0-0.3,0.1-0.3,0.4
						v2.6c0,0.3,0.1,0.4,0.3,0.4H79.4z M79.1,9.7c0.2,0,0.3-0.1,0.3-0.3V9.1c0-0.2-0.1-0.3-0.3-0.3h-5.5c-0.1,0-0.2,0.1-0.2,0.3v0.2
						c0,0.2,0.1,0.3,0.2,0.3H79.1z M74.7,13.8h3.3c0.5,0,0.8,0.2,0.8,0.7v0.9c0,0.5-0.3,0.7-0.8,0.7h-3.3c-0.5,0-0.8-0.2-0.8-0.7
						v-0.9C74,14,74.2,13.8,74.7,13.8z M77.9,15.4c0.1,0,0.2-0.1,0.2-0.3v-0.5c0-0.1-0.1-0.2-0.2-0.2h-3c-0.1,0-0.2,0.1-0.2,0.2v0.5
						c0,0.2,0.1,0.3,0.2,0.3H77.9z"/>
				</g>
				<path class="st1" d="M13.8,5.5c-4.1,0-7.5,3.4-7.5,7.5s3.4,7.5,7.5,7.5s7.5-3.4,7.5-7.5S17.9,5.5,13.8,5.5z M17,9.1
					c0.7,0,1.3,1,1.3,2.1s-0.6,2.1-1.3,2.1s-1.3-1-1.3-2.1S16.2,9.1,17,9.1z M10.6,9.1c0.7,0,1.3,1,1.3,2.1s-0.6,2.1-1.3,2.1
					s-1.3-1-1.3-2.1S9.8,9.1,10.6,9.1z M13.8,19.5c-2.6,0-4.6-1.8-4.6-4c0-0.9,9.3-1,9.3,0C18.4,17.7,16.3,19.5,13.8,19.5z"/>
			</g>
		</g>
	</g>
</g>
</svg>
