<?xml version="1.0" encoding="UTF-8"?>
<svg id="Layer_1" xmlns="http://www.w3.org/2000/svg" xmlns:xlink="http://www.w3.org/1999/xlink" version="1.1" viewBox="0 0 200 45.7">
  <!-- Generator: Adobe Illustrator 29.1.0, SVG Export Plug-In . SVG Version: 2.1.0 Build 142)  -->
  <defs>
    <style>
      .st0, .st1 {
        fill: none;
      }

      .st2 {
        fill: url(#linear-gradient2);
      }

      .st3 {
        fill: url(#linear-gradient1);
      }

      .st4 {
        fill: url(#linear-gradient3);
      }

      .st5 {
        fill: #040403;
        opacity: .1;
      }

      .st5, .st6 {
        isolation: isolate;
      }

      .st1 {
        clip-path: url(#clippath);
      }

      .st7 {
        fill: url(#linear-gradient);
      }

      .st8 {
        mix-blend-mode: multiply;
      }

      .st9 {
        clip-path: url(#clippath-1);
      }

      .st10 {
        fill: #fff;
      }
    </style>
    <linearGradient id="linear-gradient" x1="2.9" y1="21" x2="160.6" y2="21" gradientUnits="userSpaceOnUse">
      <stop offset="0" stop-color="#f9e0ac"/>
      <stop offset="1" stop-color="#f9b653"/>
    </linearGradient>
    <linearGradient id="linear-gradient1" x1="147.6" x2="196.2" xlink:href="#linear-gradient"/>
    <linearGradient id="linear-gradient2" x1="0" y1="25.8" x2="157.8" y2="25.8" gradientTransform="translate(0 46.8) scale(1 -1)" gradientUnits="userSpaceOnUse">
      <stop offset="0" stop-color="#f9b653"/>
      <stop offset="1" stop-color="#f9e0ac"/>
    </linearGradient>
    <linearGradient id="linear-gradient3" x1="144.7" x2="193.3" xlink:href="#linear-gradient2"/>
    <clipPath id="clippath">
      <polygon class="st0" points="-4.4 -25.5 -3.4 -25.5 -4.4 -24.5 -4.4 -25.5"/>
    </clipPath>
    <clipPath id="clippath-1">
      <polygon class="st1" points="-6.4 -27.5 -7.4 -27.5 -6.4 -28.5 -6.4 -27.5"/>
    </clipPath>
  </defs>
  <g class="st6">
    <g id="b">
      <g id="c">
        <g>
          <g>
            <path class="st5" d="M178.1,3.8h-29.5c12.1,0,21.9,9.4,21.9,21s-9.9,21-21.9,21h29.5c12.1,0,21.9-9.4,21.9-21s-9.9-21-21.9-21Z"/>
            <path class="st5" d="M25.7,45.7h116.8c12.1,0,21.9-9.4,21.9-21s-9.9-21-21.9-21H25.7c-12,0-21.9,9.4-21.9,21s9.9,21,21.9,21Z"/>
            <g>
              <g>
                <path class="st7" d="M160.6,21c0,11.5-9.9,21-21.9,21H24.8c-12.1,0-21.9-9.4-21.9-21S12.7,0,24.8,0h113.9C150.8,0,160.6,9.4,160.6,21h0Z"/>
                <path class="st3" d="M174.3,0h-26.7C159.7,0,169.5,9.4,169.5,21s-9.9,21-21.9,21h26.7c12.1,0,21.9-9.4,21.9-21S186.3,0,174.3,0Z"/>
              </g>
              <g>
                <g>
                  <path class="st2" d="M157.8,21c0,11.5-9.9,21-21.9,21H21.9C9.9,41.9,0,32.5,0,21S9.9,0,21.9,0h113.9C147.9,0,157.8,9.4,157.8,21h0Z"/>
                  <path class="st4" d="M171.4,0h-26.7C156.8,0,166.6,9.4,166.6,21s-9.9,21-21.9,21h26.7c12.1,0,21.9-9.4,21.9-21S183.5,0,171.4,0Z"/>
                </g>
                <path class="st10" d="M182.6,20.1c-2.9-2.9-5.7-5.8-8.6-8.7-1.1-1.1-2.8.6-1.7,1.7,2.6,2.6,5.2,5.3,7.8,7.9-2.6,2.6-5.2,5.3-7.8,7.9-1.1,1.1.6,2.8,1.7,1.7,2.9-2.9,5.7-5.8,8.6-8.7.5-.5.5-1.2,0-1.7Z"/>
              </g>
            </g>
          </g>
          <g>
            <g class="st8">
              <g class="st9">
                <image class="st6" width="173" height="94" transform="translate(-91.9 -73.5)" xlink:href="my-topup-title-1.png"/>
              </g>
            </g>
            <g>
              <path class="st10" d="M34.8,15.6h3.7l.7-2.7c-1.4.2-2.6.4-3.6.4s-.7-.1-.8-.4c-.1-.2-.1-.5,0-.9.2-.6.6-.9,1.3-.9,1.3,0,2.6-.1,3.9-.4,1.7-.3,3.3-.8,4.8-1.5.2,0,.3-.1.4-.1.3,0,.5.1.7.3.1.2.2.5,0,.8-.1.5-.4.8-.8,1-1,.5-2.1.9-3.4,1.2l-.9,3.3h5c.3-1.6.7-3.4,1.2-5.3.1-.4.3-.7.5-.9.2-.2.6-.2,1-.2s.6,0,.8.2c.2.2.2.5,0,.9l-1.3,5.2c0,0,0,.1,0,.2h5.3c.4,0,.7,0,.9.2.1.1.1.5,0,.9,0,.4-.2.6-.4.8-.3.2-.7.4-1.1.4h-5.1c-.2,1.5-.4,2.9-.5,4.2,0,.2,0,.5,0,.7,1.5-1.1,2.9-2.3,4.2-3.7.3-.2.5-.3.8-.3s.5,0,.7.2c.2.2.3.5.3.8,0,.3-.5.9-1.1,1.5-1.6,1.7-3.2,3-4.7,3.9h0c0,.6.2,1.1.3,1.5.2.5.5.8.7.8.2,0,.5-.2.7-.5.3-.3.6-.8,1-1.3.3-.4.6-.6.9-.6s.4,0,.6.2c.3.2.4.6.3,1.1-.2.6-.6,1.3-1.1,1.9-.7.9-1.4,1.4-2.1,1.8-.3.2-.7.2-1.1.2-.7,0-1.3-.5-1.8-1.1-.3-.6-.6-1.4-.8-2.4-1.3.8-2.7,1.4-3.9,1.9-.7.3-1.2.4-1.5.4s-.6,0-.7-.3c-.2-.2-.2-.5,0-.8,0-.3.3-.6.6-.8,2-.9,3.9-1.8,5.4-2.7,0-1.8.1-3.6.4-5.5,0-.3,0-.5.1-.8h-5.2l-.8,3c1.2-.1,2.3-.2,3.4-.3.3,0,.5.1.6.3,0,.2,0,.4,0,.8,0,.3-.2.6-.5.8-.2.2-.4.3-.8.3-1.2.2-2.3.4-3.4.6l-1.3,4.7c-.2.7-.5,1.3-.9,1.6-.5.3-1.1.5-1.8.5-.5,0-1,0-1.6-.2-.5,0-1-.2-1.5-.4-.3-.2-.5-.5-.4-1,.1-.4.3-.7.5-1,.2-.2.5-.3.7-.3s.3,0,.5,0c.9.2,1.5.3,1.8.3s.4-.1.4-.3l1-3.7c-1.3.1-2.5.2-3.7.2-.4,0-.7-.1-.8-.2-.2-.2-.2-.5-.1-.9,0-.4.3-.6.5-.8.3-.2.7-.4,1.2-.4,1.2-.1,2.3-.2,3.5-.3l.9-3.3h-3.7c-.4,0-.7,0-.8-.2-.2-.2-.2-.5,0-.9.1-.4.3-.7.5-.9.3-.2.6-.2,1-.2h0ZM52.3,9.6c.3,0,.5.2.7.4.4.3.8,1,1.3,2.1.3.6.3,1.2.2,1.7,0,.3-.2.4-.4.6-.2.2-.5.3-.9.3s-.4,0-.5-.1c-.1,0-.2-.2-.2-.3-.3-.7-.8-1.8-1.6-3.2,0-.1,0-.2,0-.4,0-.1,0-.3.2-.4.2-.2.4-.4.6-.4.2,0,.4-.1.6-.1h0Z"/>
              <path class="st10" d="M65.2,9.3c.4,0,.7,0,.8.2.2.2.3.4.2.7-.1.3-.5.9-1.1,2h1.4c1.1,0,1.5.6,1.2,1.6l-.6,2.2c.9-.9,1.6-1.9,2.3-2.9.8-1.2,1.4-2.2,1.7-3,.3-.6.7-.9,1.1-.9s.6,0,.8.1c.3.2.5.5.3,1-.1.4-.4.9-.8,1.6,0,0,0,0,0,0h4.9c1.6,0,2.2.9,1.7,2.7-1.7,6.4-2.9,10.4-3.5,12-.4,1.2-.9,2-1.5,2.4-.7.6-1.6.9-2.6.9-2,0-3.4-.3-4.4-.8-.4-.2-.6-.6-.4-1.4.1-.3.3-.6.6-.8.3-.2.6-.3.8-.3s.3,0,.5,0c1.2.4,2.3.7,3.5.7.6-.1,1-.6,1.3-1.5.5-1.6,1.6-5.3,3.1-11,0-.3,0-.5,0-.6,0,0-.2-.1-.5-.1h-5c-1,1.5-1.9,2.6-2.6,3.2-.3.3-.8.4-1.2.4s-.5,0-.7-.2h0s-2.7,9.9-2.7,9.9c-.3,1.1-1,1.6-2.1,1.6h-5c-1.1,0-1.5-.5-1.2-1.6l3.7-13.8c.3-1.1,1-1.6,2.1-1.6h.9c.3-.6.8-1.4,1.2-2.1.3-.5.8-.7,1.4-.8h0ZM61.5,26.9c.3,0,.4-.1.5-.3l1.3-5h-3.5l-1.3,5c0,.2,0,.3.2.3h2.8,0ZM60.4,19.3h3.5l1.2-4.4c0-.2,0-.4-.3-.4h-2.8c-.2,0-.4.1-.4.4l-1.2,4.4h0ZM69.7,17.9c.3,0,.5.2.7.4.4.4.9,1.4,1.3,2.8.3.9.3,1.6.2,2.3,0,.3-.2.5-.4.7-.3.2-.6.3-1,.3s-.4,0-.6-.2c0,0-.2-.2-.2-.4-.3-1-.8-2.4-1.5-4.4,0-.1,0-.3,0-.5,0-.1,0-.2.2-.4.1-.2.4-.4.7-.5.2,0,.4-.1.6-.1h0Z"/>
              <path class="st10" d="M89.3,9.3c.4,0,.7,0,.9.2.2.1.3.4.2.8-.1.4-.3.7-.4,1-.5,1-1,2.1-1.7,3.2l-3.9,14.7c0,.4-.3.6-.5.8-.2.1-.5.2-.8.2s-.5,0-.6-.2c-.2-.2-.2-.4,0-.8l2.5-9.3c-.2.2-.3.4-.4.6-.3.3-.6.4-1,.4s-.6-.1-.8-.3c-.1-.1-.2-.4,0-.7,0-.2.2-.5.4-.8,2.2-2.9,4-6,5.6-9.2.3-.4.6-.6.9-.7h0ZM88.1,23.2h3.5c.9,0,1.2.4.9,1.3l-1.1,4c-.2.8-.8,1.2-1.6,1.2h-3.5c-.9,0-1.2-.4-1-1.2l1.1-4c.2-.8.8-1.3,1.6-1.3ZM89.3,27.8c.3,0,.4-.1.5-.3l.5-2c0-.2,0-.4-.3-.4h-1.3c-.2,0-.4.1-.5.4l-.5,2c0,.2,0,.3.3.3h1.3ZM89,19.9h3.5c.3,0,.6,0,.7.2,0,.1,0,.4,0,.7,0,.3-.2.5-.3.6-.2.2-.5.3-.8.3h-3.5c-.3,0-.5,0-.7-.2,0-.1,0-.4,0-.7,0-.3.2-.6.4-.7.2-.1.4-.2.8-.2ZM89.8,16.7h3.5c.3,0,.6,0,.7.2,0,.1,0,.4,0,.7,0,.3-.2.5-.3.6-.2.2-.5.3-.8.3h-3.5c-.3,0-.5,0-.7-.2,0-.1,0-.4,0-.7s.2-.6.4-.7c.2-.1.4-.2.8-.2h0ZM90.2,13.4h4.9c.4,0,.6,0,.7.2,0,.1.1.4,0,.8,0,.4-.2.6-.4.8-.2.2-.6.4-.9.4h-4.9c-.3,0-.5,0-.7-.3-.1-.1-.1-.4,0-.8,0-.3.2-.6.4-.8.2-.2.5-.2.8-.2h0ZM91.8,10.3h3.5c.3,0,.5,0,.6.2.1.1.2.4,0,.7,0,.4-.2.6-.3.7-.2.2-.5.3-.8.3h-3.5c-.3,0-.5,0-.6-.2-.1-.1-.2-.4,0-.8,0-.4.2-.6.4-.7.2-.1.4-.2.7-.2h0ZM97.4,11.9h1.3l.4-1.6c0-.4.2-.6.4-.8.2-.2.5-.2.8-.2s.7,0,.8.2c.1.2.1.4,0,.8l-.4,1.6h1.3c.3,0,.6,0,.7.2s.1.4,0,.7c0,.3-.2.5-.3.7-.2.2-.5.3-.8.3h-1.3l-.7,2.5h.7c1.4-1.5,2.7-3.1,3.7-4.9.2-.3.4-.4.7-.4.4,0,.7,0,.8.2.2.1.3.4.2.8,0,.2-.2.4-.3.7-.8,1.4-1.7,2.6-2.7,3.7h.8c.3,0,.6,0,.7.2,0,.1,0,.4,0,.8,0,.3-.2.5-.4.7-.2.2-.5.3-.9.3h-2.1c-.7.7-1.4,1.3-2.2,1.9h2.5c1,0,1.3.5,1.1,1.4l-1.9,7c-.2.7-.8,1.1-1.8,1.1h-4.5c-1,0-1.5-.4-1.3-1.1l1.5-5.6s0,0,0,0c-.3.2-.7.3-.9.3-.4,0-.6-.1-.8-.4,0-.2,0-.5,0-.8,0-.3.3-.6.5-.7,2.1-1.1,3.8-2.1,5.1-3.2h-2.9c-.3,0-.6,0-.7-.2-.1-.1-.1-.4,0-.8,0-.4.2-.6.4-.8.2-.1.5-.2.8-.2h1.8l.7-2.5h-1.3c-.3,0-.5,0-.6-.2-.1-.1-.1-.4,0-.8,0-.3.2-.6.4-.7.2-.1.4-.2.7-.2h0ZM95.2,28h3.1c.1,0,.2,0,.2-.1l.5-2h-3.5l-.5,2c0,0,0,.1.2.1ZM96.1,24h3.5l.5-1.8c0-.1,0-.2-.1-.2h-3.1c-.1,0-.2.1-.3.3l-.5,1.7h0Z"/>
              <path class="st10" d="M115.4,9.3c.4,0,.7,0,.9.2.2.1.3.4.2.8-.1.4-.3.7-.4,1-.6,1.1-1.2,2.2-2.1,3.4l-3.8,14.3c-.1.4-.3.7-.6.9-.2.2-.5.3-.9.3s-.6,0-.8-.3c-.2-.2-.2-.5,0-.9l2.4-9.1c-.2.2-.4.5-.5.6-.3.3-.7.4-1.1.4s-.7-.1-.9-.3c-.2-.2-.2-.4-.1-.8,0-.2.3-.5.5-.8,2.5-2.9,4.6-5.9,6.3-9.2.3-.4.6-.6.9-.7h0ZM112.3,27.6h1l3.1-11.6c.3-1.1,1-1.7,2.2-1.7h2.7l.3-1.3h-4.4c-.3,0-.6,0-.8-.2-.2-.1-.2-.4,0-.8,0-.4.3-.7.5-.9.2-.1.5-.2.9-.2h4.4l.2-.8c0-.3.2-.5.5-.8.2-.1.5-.2.9-.2s.7,0,.8.2c.2.2.2.4.1.8l-.2.8h4.8c.4,0,.6,0,.8.2.1.1.1.4,0,.9,0,.3-.2.6-.4.8-.2.2-.6.3-1,.3h-4.8l-.3,1.3h3.1c1.2,0,1.6.6,1.3,1.7l-3.1,11.6h.6c.4,0,.7,0,.8.2.1.1.1.4,0,.8,0,.4-.2.6-.4.8-.3.2-.6.3-1,.3h-13.2c-.3,0-.6,0-.8-.2-.1-.1-.1-.4,0-.8,0-.4.2-.6.5-.8.2-.1.5-.2.9-.2h0ZM122.6,27.6l.4-1.5h-6.9l-.4,1.5h6.9ZM123.4,24.3l.3-1.3h-6.9l-.3,1.3s6.9,0,6.9,0ZM117.8,19.7l-.4,1.5h6.9l.4-1.5h-6.9ZM125.2,17.9l.3-1.1c0-.2,0-.3-.3-.3h-6.2c-.2,0-.3,0-.3.3l-.3,1.1h6.9Z"/>
            </g>
          </g>
        </g>
      </g>
    </g>
  </g>
</svg>