<?xml version="1.0" encoding="UTF-8"?>
<svg id="Layer_1" data-name="Layer 1" xmlns="http://www.w3.org/2000/svg" width="734" height="198" xmlns:xlink="http://www.w3.org/1999/xlink" viewBox="0 0 734 198">
  <defs>
    <style>
      .cls-1 {
        fill: none;
      }

      .cls-2 {
        fill: #f4c57a;
      }

      .cls-3 {
        fill: #f9e0ac;
      }

      .cls-4 {
        fill: #fff;
      }

      .cls-5 {
        fill: #349dc6;
      }

      .cls-6 {
        fill: #3f3223;
      }

      .cls-7 {
        fill: #7ac1e5;
      }

      .cls-8 {
        clip-path: url(#clippath-1);
      }

      .cls-9 {
        clip-path: url(#clippath);
      }
    </style>
    <clipPath id="clippath">
      <path class="cls-1" d="M1090.7-71.4c13.9,115.13-208.17,236.63-496.01,271.38C306.85,234.74,62.24,169.57,48.34,54.44c0,0,248.66,98.72,536.5,63.97,287.84-34.75,505.86-189.81,505.86-189.81Z"/>
    </clipPath>
    <clipPath id="clippath-1">
      <path class="cls-1" d="M1090.7-71.4c13.9,115.13-208.17,236.63-496.01,271.38C306.85,234.74,62.24,169.57,48.34,54.44c0,0,248.66,98.72,536.5,63.97,287.84-34.75,505.86-189.81,505.86-189.81Z"/>
    </clipPath>
  </defs>
  <g>
    <polygon class="cls-7" points="105.72 53.96 35.62 53.55 .21 114.05 34.91 174.97 105.01 175.38 140.41 114.88 105.72 53.96"/>
    <path class="cls-3" d="M9.79,134.9c3.92,13.02-6.24,43.24,7.76,40.05,24.15-5.51,10.04,20.87,23.86,23.14,11.05,1.81,17.45-23.26,28.09-14.84,10.23,8.1,24.99-4.48,16.06-10.91-9.58-6.9-13.19-5.31-21.98-3.13-20.98,5.21-36.98-4.22-37.91-16.22-1.09-14.1-18.78-27.67-15.89-18.09Z"/>
    <g>
      <path class="cls-4" d="M38.35,98.62c7.98,11.01,8.32,42.89,20.49,35.27,20.99-13.14,16.34,16.41,30.14,14.01,11.03-1.92,8.84-27.7,21.65-23.24,12.33,4.29,22.13-12.44,11.59-15.58-11.32-3.37-14.21-.68-21.79,4.27-18.1,11.82-36.31,8.17-41.13-2.87-5.66-12.96-26.83-19.96-20.96-11.87Z"/>
      <g>
        <path class="cls-6" d="M64.39,34.22l-19-.11c-9.39-.06-16.95-7.71-16.9-17.1h0C28.54,7.62,36.2,.05,45.59,.11h2c9.39,.07,16.95,7.72,16.9,17.11l-.1,17Z"/>
        <path class="cls-6" d="M67.39,34.24l19,.11c9.39,.06,17.04-7.51,17.1-16.9h0c.06-9.39-7.51-17.04-16.9-17.1h-2c-9.39-.07-17.04,7.5-17.1,16.89l-.1,17Z"/>
        <path class="cls-3" d="M162.11,81.79s-29.05,7.83-29.19,7.95c-5.92,20.39-33.29,35.69-66.07,35.49C29.85,125.02-.03,105.14,.11,80.84S30.37,37.02,67.37,37.24c32.15,.19,58.93,15.22,65.3,35.1-.51,.28,29.44,9.46,29.44,9.46Z"/>
        <path class="cls-2" d="M132.92,89.74c-5.92,20.39-33.29,35.69-66.07,35.49-29.38-.17-54.27-12.74-63.21-30.07,68.35,29.84,129.28-5.42,129.28-5.42Z"/>
        <path class="cls-6" d="M105.59,45.34c13.64,6.34,23.53,15.92,27.08,27-.51,.28,29.44,9.46,29.44,9.46,0,0-29.05,7.83-29.19,7.95-3.38,11.63-13.74,21.6-28.1,27.99,0,0,12.11-7.2,13.38-36.2,1.22-27.97-12.62-36.2-12.62-36.2Z"/>
        <path class="cls-6" d="M72.66,37.4c4.37,.25,8.61,.77,12.7,1.55,0,0,17.95,8.5,17.75,42.5-.18,30-18.25,42.29-18.25,42.29-4.29,.76-8.76,1.24-13.35,1.42,0,0,14.33-1.81,14.57-43.81,.19-33-13.43-43.95-13.43-43.95Z"/>
      </g>
    </g>
  </g>
  <g>
    <g>
      <path class="cls-3" d="M199.2,85.93l28.38,.17,.17-29.18,19.65,.12-.44,75.6-19.65-.12,.18-31.18-28.38-.17-.18,31.18-19.65-.12,.44-75.6,19.65,.12-.17,29.18Z"/>
      <path class="cls-3" d="M259.24,106.53c.02-3.81,.81-7.36,2.37-10.66,1.56-3.3,3.71-6.16,6.47-8.58,2.75-2.42,6.02-4.33,9.81-5.71,3.78-1.38,7.92-2.06,12.4-2.03,4.41,.03,8.5,.74,12.27,2.13,3.77,1.39,7.03,3.32,9.79,5.77,2.76,2.46,4.9,5.38,6.42,8.76,1.52,3.39,2.26,7.12,2.24,11.19-.02,4.08-.83,7.8-2.42,11.17-1.59,3.37-3.76,6.26-6.52,8.69-2.76,2.42-6.06,4.29-9.91,5.61-3.85,1.31-8.02,1.96-12.5,1.93-4.41-.03-8.49-.72-12.22-2.08-3.74-1.36-6.95-3.28-9.64-5.77-2.69-2.49-4.8-5.46-6.31-8.91-1.52-3.45-2.26-7.28-2.24-11.49Zm19.15,.31c-.01,1.74,.3,3.33,.92,4.77,.63,1.44,1.45,2.7,2.48,3.78,1.03,1.08,2.26,1.92,3.7,2.53,1.43,.61,2.95,.92,4.56,.93,1.6,0,3.13-.28,4.57-.88,1.44-.59,2.68-1.42,3.72-2.48,1.04-1.06,1.88-2.31,2.53-3.75,.64-1.43,.97-2.98,.98-4.66,0-1.6-.3-3.13-.93-4.57-.63-1.44-1.46-2.7-2.48-3.77-1.03-1.07-2.26-1.92-3.7-2.53-1.43-.61-2.95-.92-4.56-.93-1.6,0-3.13,.28-4.57,.88-1.44,.59-2.68,1.42-3.72,2.49-1.04,1.06-1.89,2.29-2.53,3.69-.64,1.4-.97,2.9-.98,4.51Z"/>
      <path class="cls-3" d="M331.58,81.69l18.15,.11-.04,6.52c2.49-2.99,5.01-5,7.56-6.02,2.55-1.02,5.52-1.52,8.93-1.5,3.61,.02,6.7,.62,9.26,1.81,2.57,1.19,4.75,2.85,6.54,5,1.46,1.75,2.45,3.69,2.97,5.83,.52,2.14,.78,4.58,.76,7.32l-.19,32.69-18.15-.11,.15-25.97c.02-2.54-.16-4.6-.52-6.17-.36-1.57-1-2.83-1.93-3.77-.8-.81-1.7-1.38-2.7-1.72-1-.34-2.07-.51-3.21-.52-3.08-.02-5.44,.89-7.08,2.72-1.65,1.83-2.48,4.45-2.5,7.86l-.16,27.47-18.15-.11,.3-51.44Z"/>
      <path class="cls-3" d="M414.33,110.96c-.05,7.82,3.61,11.75,10.96,11.8,3.94,.02,6.93-1.56,8.95-4.76l17.55,.1c-3.61,11.74-12.5,17.57-26.67,17.49-4.35-.03-8.32-.7-11.92-2.03-3.6-1.32-6.68-3.2-9.24-5.62-2.56-2.42-4.53-5.31-5.92-8.66-1.38-3.35-2.06-7.1-2.04-11.24,.03-4.28,.71-8.13,2.07-11.57,1.36-3.43,3.28-6.35,5.77-8.74,2.49-2.39,5.49-4.23,9.01-5.51,3.52-1.28,7.48-1.91,11.89-1.89,4.34,.03,8.25,.7,11.72,2.02,3.47,1.32,6.4,3.23,8.79,5.72,2.39,2.49,4.21,5.52,5.46,9.11,1.25,3.58,1.86,7.62,1.83,12.09v1.91l-38.21-.22Zm21.32-10.4c-.59-2.54-1.81-4.59-3.67-6.14-1.86-1.55-4.13-2.33-6.8-2.35-2.81-.02-5.1,.71-6.88,2.17-1.78,1.46-2.91,3.53-3.4,6.2l20.75,.12Z"/>
      <path class="cls-3" d="M478.7,126.98l-24.6-44.56,21.06,.12,13.58,26.45,13.49-26.29,20.86,.12-41.76,76.86-20.35-.12,17.74-32.58Z"/>
    </g>
    <g>
      <path class="cls-7" d="M532.52,58.84l29.28,.17c6.95,.04,12.22,1.74,15.81,5.11,3.59,3.36,5.37,8.19,5.33,14.47-.02,3.81-.73,6.96-2.11,9.46-1.39,2.5-3.49,4.61-6.3,6.33,2.8,.55,5.19,1.38,7.15,2.5,1.96,1.11,3.56,2.48,4.79,4.09,1.23,1.61,2.1,3.42,2.63,5.43,.52,2.01,.78,4.15,.76,6.42-.02,3.54-.66,6.68-1.91,9.41-1.25,2.73-3,5.03-5.25,6.89-2.25,1.86-4.98,3.25-8.2,4.16-3.21,.92-6.83,1.36-10.84,1.34l-31.58-.19,.44-75.6Zm19.48,29.79l3.61,.02c6.15,.04,9.24-2.39,9.27-7.26s-3.03-7.34-9.18-7.37l-3.61-.02-.09,14.64Zm-.18,30.68l4.31,.03c4.95,.03,8.49-.58,10.64-1.84,2.15-1.26,3.23-3.29,3.24-6.1s-1.04-4.85-3.17-6.13c-2.13-1.28-5.67-1.94-10.62-1.97l-4.31-.03-.09,16.04Z"/>
      <path class="cls-7" d="M639.76,83.63l18.25,.11-.3,51.44-18.25-.11,.03-5.72c-3.91,4.86-9.17,7.27-15.79,7.23-3.74-.02-7.18-.73-10.32-2.12-3.13-1.39-5.86-3.33-8.19-5.81-2.33-2.49-4.13-5.4-5.41-8.76-1.28-3.35-1.91-7-1.89-10.94,.02-3.67,.68-7.16,1.97-10.47,1.29-3.3,3.08-6.18,5.37-8.64,2.29-2.46,5-4.4,8.16-5.82,3.15-1.42,6.63-2.12,10.44-2.09,6.42,.04,11.72,2.31,15.9,6.81l.03-5.11Zm-23.01,25.43c0,1.67,.28,3.23,.88,4.67,.59,1.44,1.4,2.7,2.43,3.77,1.03,1.08,2.26,1.92,3.7,2.53,1.43,.61,2.99,.92,4.66,.93s3.13-.28,4.57-.88c1.44-.59,2.68-1.42,3.72-2.48,1.04-1.06,1.88-2.29,2.53-3.7,.64-1.4,.97-2.9,.98-4.51s-.3-3.13-.93-4.57c-.63-1.44-1.46-2.7-2.49-3.77-1.03-1.07-2.26-1.92-3.7-2.53-1.43-.61-2.95-.92-4.56-.93s-3.23,.28-4.67,.87c-1.44,.59-2.68,1.42-3.72,2.48-1.04,1.06-1.87,2.28-2.48,3.65-.61,1.37-.92,2.85-.93,4.46Z"/>
      <path class="cls-7" d="M689.73,128.35l-24.6-44.56,21.06,.12,13.58,26.45,13.49-26.29,20.86,.12-41.76,76.86-20.35-.12,17.74-32.58Z"/>
    </g>
  </g>
  <g class="cls-9">
    <g>
      <path class="cls-2" d="M199.2,85.93l28.38,.17,.17-29.18,19.65,.12-.44,75.6-19.65-.12,.18-31.18-28.38-.17-.18,31.18-19.65-.12,.44-75.6,19.65,.12-.17,29.18Z"/>
      <path class="cls-2" d="M259.24,106.53c.02-3.81,.81-7.36,2.37-10.66,1.56-3.3,3.71-6.16,6.47-8.58,2.75-2.42,6.02-4.33,9.81-5.71,3.78-1.38,7.92-2.06,12.4-2.03,4.41,.03,8.5,.74,12.27,2.13,3.77,1.39,7.03,3.32,9.79,5.77,2.76,2.46,4.9,5.38,6.42,8.76,1.52,3.39,2.26,7.12,2.24,11.19-.02,4.08-.83,7.8-2.42,11.17-1.59,3.37-3.76,6.26-6.52,8.69-2.76,2.42-6.06,4.29-9.91,5.61-3.85,1.31-8.02,1.96-12.5,1.93-4.41-.03-8.49-.72-12.22-2.08-3.74-1.36-6.95-3.28-9.64-5.77-2.69-2.49-4.8-5.46-6.31-8.91-1.52-3.45-2.26-7.28-2.24-11.49Zm19.15,.31c-.01,1.74,.3,3.33,.92,4.77,.63,1.44,1.45,2.7,2.48,3.78,1.03,1.08,2.26,1.92,3.7,2.53,1.43,.61,2.95,.92,4.56,.93,1.6,0,3.13-.28,4.57-.88,1.44-.59,2.68-1.42,3.72-2.48,1.04-1.06,1.88-2.31,2.53-3.75,.64-1.43,.97-2.98,.98-4.66,0-1.6-.3-3.13-.93-4.57-.63-1.44-1.46-2.7-2.48-3.77-1.03-1.07-2.26-1.92-3.7-2.53-1.43-.61-2.95-.92-4.56-.93-1.6,0-3.13,.28-4.57,.88-1.44,.59-2.68,1.42-3.72,2.49-1.04,1.06-1.89,2.29-2.53,3.69-.64,1.4-.97,2.9-.98,4.51Z"/>
      <path class="cls-2" d="M331.58,81.69l18.15,.11-.04,6.52c2.49-2.99,5.01-5,7.56-6.02,2.55-1.02,5.52-1.52,8.93-1.5,3.61,.02,6.7,.62,9.26,1.81,2.57,1.19,4.75,2.85,6.54,5,1.46,1.75,2.45,3.69,2.97,5.83,.52,2.14,.78,4.58,.76,7.32l-.19,32.69-18.15-.11,.15-25.97c.02-2.54-.16-4.6-.52-6.17-.36-1.57-1-2.83-1.93-3.77-.8-.81-1.7-1.38-2.7-1.72-1-.34-2.07-.51-3.21-.52-3.08-.02-5.44,.89-7.08,2.72-1.65,1.83-2.48,4.45-2.5,7.86l-.16,27.47-18.15-.11,.3-51.44Z"/>
      <path class="cls-2" d="M414.33,110.96c-.05,7.82,3.61,11.75,10.96,11.8,3.94,.02,6.93-1.56,8.95-4.76l17.55,.1c-3.61,11.74-12.5,17.57-26.67,17.49-4.35-.03-8.32-.7-11.92-2.03-3.6-1.32-6.68-3.2-9.24-5.62-2.56-2.42-4.53-5.31-5.92-8.66-1.38-3.35-2.06-7.1-2.04-11.24,.03-4.28,.71-8.13,2.07-11.57,1.36-3.43,3.28-6.35,5.77-8.74,2.49-2.39,5.49-4.23,9.01-5.51,3.52-1.28,7.48-1.91,11.89-1.89,4.34,.03,8.25,.7,11.72,2.02,3.47,1.32,6.4,3.23,8.79,5.72,2.39,2.49,4.21,5.52,5.46,9.11,1.25,3.58,1.86,7.62,1.83,12.09v1.91l-38.21-.22Zm21.32-10.4c-.59-2.54-1.81-4.59-3.67-6.14-1.86-1.55-4.13-2.33-6.8-2.35-2.81-.02-5.1,.71-6.88,2.17-1.78,1.46-2.91,3.53-3.4,6.2l20.75,.12Z"/>
      <path class="cls-2" d="M478.7,126.98l-24.6-44.56,21.06,.12,13.58,26.45,13.49-26.29,20.86,.12-41.76,76.86-20.35-.12,17.74-32.58Z"/>
    </g>
  </g>
  <g class="cls-8">
    <g>
      <path class="cls-5" d="M532.52,58.84l29.28,.17c6.95,.04,12.22,1.74,15.81,5.11,3.59,3.36,5.37,8.19,5.33,14.47-.02,3.81-.73,6.96-2.11,9.46-1.39,2.5-3.49,4.61-6.3,6.33,2.8,.55,5.19,1.38,7.15,2.5,1.96,1.11,3.56,2.48,4.79,4.09,1.23,1.61,2.1,3.42,2.63,5.43,.52,2.01,.78,4.15,.76,6.42-.02,3.54-.66,6.68-1.91,9.41-1.25,2.73-3,5.03-5.25,6.89-2.25,1.86-4.98,3.25-8.2,4.16-3.21,.92-6.83,1.36-10.84,1.34l-31.58-.19,.44-75.6Zm19.48,29.79l3.61,.02c6.15,.04,9.24-2.39,9.27-7.26s-3.03-7.34-9.18-7.37l-3.61-.02-.09,14.64Zm-.18,30.68l4.31,.03c4.95,.03,8.49-.58,10.64-1.84,2.15-1.26,3.23-3.29,3.24-6.1s-1.04-4.85-3.17-6.13c-2.13-1.28-5.67-1.94-10.62-1.97l-4.31-.03-.09,16.04Z"/>
      <path class="cls-5" d="M639.76,83.63l18.25,.11-.3,51.44-18.25-.11,.03-5.72c-3.91,4.86-9.17,7.27-15.79,7.23-3.74-.02-7.18-.73-10.32-2.12-3.13-1.39-5.86-3.33-8.19-5.81-2.33-2.49-4.13-5.4-5.41-8.76-1.28-3.35-1.91-7-1.89-10.94,.02-3.67,.68-7.16,1.97-10.47,1.29-3.3,3.08-6.18,5.37-8.64,2.29-2.46,5-4.4,8.16-5.82,3.15-1.42,6.63-2.12,10.44-2.09,6.42,.04,11.72,2.31,15.9,6.81l.03-5.11Zm-23.01,25.43c0,1.67,.28,3.23,.88,4.67,.59,1.44,1.4,2.7,2.43,3.77,1.03,1.08,2.26,1.92,3.7,2.53,1.43,.61,2.99,.92,4.66,.93s3.13-.28,4.57-.88c1.44-.59,2.68-1.42,3.72-2.48,1.04-1.06,1.88-2.29,2.53-3.7,.64-1.4,.97-2.9,.98-4.51s-.3-3.13-.93-4.57c-.63-1.44-1.46-2.7-2.49-3.77-1.03-1.07-2.26-1.92-3.7-2.53-1.43-.61-2.95-.92-4.56-.93s-3.23,.28-4.67,.87c-1.44,.59-2.68,1.42-3.72,2.48-1.04,1.06-1.87,2.28-2.48,3.65-.61,1.37-.92,2.85-.93,4.46Z"/>
      <path class="cls-5" d="M689.73,128.35l-24.6-44.56,21.06,.12,13.58,26.45,13.49-26.29,20.86,.12-41.76,76.86-20.35-.12,17.74-32.58Z"/>
    </g>
  </g>
</svg>