<?xml version="1.0" encoding="UTF-8"?>
<svg id="Layer_1" xmlns="http://www.w3.org/2000/svg" xmlns:xlink="http://www.w3.org/1999/xlink" version="1.1" viewBox="0 0 257.5 99.8">
  <!-- Generator: Adobe Illustrator 29.1.0, SVG Export Plug-In . SVG Version: 2.1.0 Build 142)  -->
  <defs>
    <style>
      .st0, .st1, .st2 {
        fill: none;
      }

      .st1 {
        clip-path: url(#clippath-2);
      }

      .st3 {
        fill: url(#linear-gradient2);
      }

      .st4 {
        fill: url(#linear-gradient1);
      }

      .st5 {
        fill: url(#linear-gradient3);
      }

      .st6 {
        fill: #040403;
        opacity: .1;
      }

      .st6, .st7 {
        isolation: isolate;
      }

      .st2 {
        clip-path: url(#clippath);
      }

      .st8 {
        fill: url(#linear-gradient);
      }

      .st9 {
        mix-blend-mode: multiply;
      }

      .st10 {
        clip-path: url(#clippath-1);
      }

      .st11 {
        clip-path: url(#clippath-3);
      }

      .st12 {
        fill: #fff;
      }
    </style>
    <linearGradient id="linear-gradient" x1="4" y1="47.9" x2="187.2" y2="47.9" gradientUnits="userSpaceOnUse">
      <stop offset="0" stop-color="#f9e0ac"/>
      <stop offset="1" stop-color="#f9b653"/>
    </linearGradient>
    <linearGradient id="linear-gradient1" x1="169.1" y1="47.9" x2="236.9" y2="47.9" xlink:href="#linear-gradient"/>
    <linearGradient id="linear-gradient2" x1="0" y1="52.8" x2="183.3" y2="52.8" gradientTransform="translate(0 100.8) scale(1 -1)" gradientUnits="userSpaceOnUse">
      <stop offset="0" stop-color="#f9b653"/>
      <stop offset="1" stop-color="#f9e0ac"/>
    </linearGradient>
    <linearGradient id="linear-gradient3" x1="165.1" y1="52.8" x2="232.9" y2="52.8" xlink:href="#linear-gradient2"/>
    <clipPath id="clippath">
      <polygon class="st0" points="170.2 .2 170.4 .2 170.2 .5 170.2 .2"/>
    </clipPath>
    <clipPath id="clippath-1">
      <polygon class="st2" points="169.7 -.2 169.5 -.2 169.7 -.5 169.7 -.2"/>
    </clipPath>
    <clipPath id="clippath-2">
      <polygon class="st0" points="-8.1 -1.9 -7.9 -1.9 -8.1 -1.7 -8.1 -1.9"/>
    </clipPath>
    <clipPath id="clippath-3">
      <polygon class="st1" points="-8.6 -2.4 -8.8 -2.4 -8.6 -2.6 -8.6 -2.4"/>
    </clipPath>
  </defs>
  <g class="st7">
    <g id="b">
      <g id="c">
        <g>
          <g>
            <path class="st6" d="M211.6,24h-41.2c16.8,0,30.6,13.2,30.6,29.3s-13.8,29.3-30.6,29.3h41.2c16.8,0,30.6-13.2,30.6-29.3s-13.8-29.3-30.6-29.3Z"/>
            <path class="st6" d="M35.9,82.5h126c16.8,0,30.6-13.2,30.6-29.3s-13.8-29.3-30.6-29.3H35.9c-16.8,0-30.6,13.2-30.6,29.3s13.8,29.3,30.6,29.3Z"/>
            <g>
              <g>
                <path class="st8" d="M187.2,47.9c0,16.1-13.8,29.3-30.6,29.3H34.6c-16.8,0-30.6-13.2-30.6-29.3s13.8-29.3,30.6-29.3h122c16.8,0,30.6,13.2,30.6,29.3h0Z"/>
                <path class="st4" d="M206.3,18.7h-37.2c16.8,0,30.6,13.2,30.6,29.3s-13.8,29.3-30.6,29.3h37.2c16.8,0,30.6-13.2,30.6-29.3s-13.8-29.3-30.6-29.3Z"/>
              </g>
              <g>
                <g>
                  <path class="st3" d="M183.2,47.9c0,16.1-13.8,29.3-30.6,29.3H30.6c-16.8,0-30.6-13.2-30.6-29.3s13.8-29.3,30.6-29.3h122.1c16.8,0,30.6,13.2,30.6,29.3h0Z"/>
                  <path class="st5" d="M202.3,18.7h-37.2c16.8,0,30.6,13.2,30.6,29.3s-13.8,29.3-30.6,29.3h37.2c16.8,0,30.6-13.2,30.6-29.3s-13.8-29.3-30.6-29.3Z"/>
                </g>
                <g class="st9">
                  <g class="st10">
                    <image class="st7" width="365" height="416" transform="translate(126.1 -49.9) scale(.2)" xlink:href="newbie-title-1.png"/>
                  </g>
                </g>
                <path class="st12" d="M218.9,46.8c-4-4.1-8-8.1-12-12.2-1.5-1.5-3.9.8-2.4,2.3,3.6,3.7,7.2,7.3,10.9,11-3.6,3.7-7.2,7.3-10.9,11-1.5,1.5.8,3.9,2.4,2.3,4-4.1,8-8.1,12-12.2.6-.7.6-1.7,0-2.3h0Z"/>
              </g>
            </g>
          </g>
          <g>
            <g class="st9">
              <g class="st11">
                <image class="st7" width="853" height="419" transform="translate(-110.7 -52.4) scale(.2)" xlink:href="newbie-title-2.png"/>
              </g>
            </g>
            <g>
              <path class="st12" d="M43.5,37.3c.3,0,.6,0,.8.2.2.2.3.3.2.6,0,.2-.2.4-.3.6-1,1.4-2,2.6-3,3.7h2.9c.6,0,.8.3.7,1-.2.7-.6,1-1.2,1h-4.9l-.8,2.9h4c.6,0,.9.3.7.9-.2.7-.6,1.1-1.2,1.1h-4v.3c0,0,2.6,5.1,2.6,5.1.1.3.1.6,0,.8-.2.7-.7,1.1-1.5,1.1s-.6-.2-.7-.5l-1.3-3.4-1.9,7c-.2.6-.6,1-1.3,1s-.9-.3-.7-1l1.8-6.7c-.6.7-1.2,1.3-1.7,1.9-1.1,1.1-2.3,2.2-3.5,3.1-.8.6-1.3,1-1.6,1-.8,0-1.1-.3-1-1,.1-.5.5-.9,1-1.2,2.3-1.8,4.1-3.4,5.4-4.8.8-.8,1.5-1.7,2.1-2.6h-3.9c-.7,0-.9-.4-.7-1.1.2-.6.6-.9,1.2-.9h4.1l.8-2.9h-5.3c-.6,0-.9-.3-.7-1,.2-.6.6-1,1.2-1h7.3c0-.2.1-.3.2-.4,1-1.1,2.1-2.6,3.3-4.4.2-.3.5-.5,1-.5h0ZM40.7,32.3c.8,0,1.1.4.9,1.1l-.4,1.5h4.8c.6,0,.8.3.7,1-.2.7-.6,1-1.2,1h-11.8c-.6,0-.8-.3-.7-1,.2-.6.6-1,1.2-1h4.7l.4-1.5c.2-.7.7-1.1,1.4-1.1h0ZM35.5,37.3c.2,0,.3.1.5.3.4.7.8,1.6,1,2.6,0,.3.1.5,0,.7-.2.6-.6.9-1.3.9s-.4,0-.6-.2c-.3-.9-.6-1.9-1-2.7,0-.3,0-.5,0-.6.2-.6.6-1,1.3-1ZM59.3,32.7c.8,0,1.1.4.9,1.1-.1.5-.5.8-1.2,1-1.5.5-4,.8-7.6.8s-.8.3-1,1l-1.2,4.5h8.7c.6,0,.9.3.7.9-.2.7-.6,1.1-1.2,1.1h-2.4l-4.4,16.4c-.2.7-.7,1.1-1.5,1.1s-1-.4-.8-1.1l4.4-16.4h-4l-.5,1.7c-1,3.7-2.2,6.8-3.7,9.4-1.3,2.2-2.5,3.9-3.5,4.9-.4.3-.8.5-1.2.5-.8,0-1-.4-.9-1.1,0,0,.2-.4.5-.8,1.3-1.3,2.4-2.9,3.4-4.8,1.3-2.3,2.4-5,3.2-8.1l2.5-9.4c.3-1.1,1-1.7,2.1-1.7,3.7,0,6.6-.3,8.5-1h0Z"/>
              <path class="st12" d="M80.6,32.7c.8,0,1.1.4.9,1.2l-1.1,4.1c-.4,1.3-.6,2.9-.6,4.8,0,2,.3,3.9.9,5.8.6,1.8,1.5,3.6,2.7,5.4.8,1.2,2,2.7,3.6,4.4.3.3.3.6.2,1-.2.8-.8,1.2-1.5,1.2-.3,0-.6-.2-.9-.5-1.8-1.8-3.2-3.5-4.3-5.3-1.1-1.8-1.8-3.5-2.2-5-.5-1.7-.8-3.5-.9-5.2-1,1.8-2.2,3.4-3.7,5.1-1.3,1.6-3,3.3-4.9,5.1-2.3,2.1-4.7,3.9-7.2,5.5-.4.2-.7.4-.9.4-.8,0-1.1-.5-.9-1.5,0-.3.4-.5,1-.8,2.2-1.5,4.4-3.1,6.4-4.9,2.2-1.9,4.1-3.8,5.6-5.7,1.4-1.8,2.6-3.5,3.4-5.2.8-1.7,1.4-3.2,1.8-4.5l1.1-4.1c.2-.8.7-1.2,1.6-1.2h0Z"/>
              <path class="st12" d="M124.4,37.7c.7,0,1,.4.8,1.1-.2.7-.7,1.1-1.4,1.1h-10.7l-1.9,7.2h9.2c.7,0,1,.4.8,1.1-.2.7-.7,1.1-1.4,1.1h-9.2l-2.2,8.3h11.6c.7,0,1,.3.8,1-.2.7-.7,1.1-1.4,1.1h-25.4c-.7,0-1-.4-.8-1.1.2-.7.6-1,1.4-1h11.5l2.2-8.3h-9.3c-.7,0-1-.4-.8-1.1.2-.7.7-1.1,1.4-1.1h9.3l1.9-7.2h-10.8c-.7,0-1-.4-.8-1.1.2-.7.7-1.1,1.4-1.1h11.9c-.4-1.1-.9-2.2-1.4-3.2,0-.4,0-.6,0-.7.2-.8.8-1.2,1.7-1.2s.4.1.6.4c.5,1,.9,2.2,1.3,3.5,0,.3.1.5,0,.7,0,.2-.2.4-.3.6h10.1,0Z"/>
              <path class="st12" d="M138.7,37.9c.7,0,1,.4.8,1.1-.2.7-.6,1.1-1.4,1.1h-1.6l-1.4,5.2c.5-.3,1.1-.7,1.8-1.1h.4c.7,0,1,.3.8,1.1,0,.2-.3.5-.6.8-.8.6-1.8,1.2-3,1.9l-2.6,9.8c-.5,1.8-1.7,2.7-3.7,2.7s-.8-.1-1.3-.4c-.5-.2-.7-.5-.6-1,.2-.7.6-1,1.2-1.1,0,0,.1,0,.2,0,.6.2.9.3,1.1.3.6,0,.9-.3,1.1-1l2.2-8.1c-.7.3-1.3.5-1.9.8-.2,0-.4.1-.5.1-.7,0-1-.4-.8-1.1.2-.6.6-1,1.2-1.2,1-.4,1.9-.7,2.7-1.1l1.8-6.6h-2c-.7,0-1-.4-.8-1.1.2-.7.6-1.1,1.4-1.1h2l1.1-4.2c.2-.7.6-1.1,1.4-1.1s1,.4.8,1.1l-1.1,4.2h1.6ZM141.1,47.9h12c1.2,0,1.7.5,1.4,1.7l-2.3,8.7c-.3,1.1-1.1,1.7-2.2,1.7h-12c-1.2,0-1.7-.5-1.4-1.7l2.3-8.7c.3-1.1,1.1-1.7,2.2-1.7ZM158.4,33c.6,0,.9.4.6,1.2-.1.5-.6.8-1.5,1-1.6.2-3.5.4-5.9.6l-1.1,4.2h1.4c.3-.3.6-.6.9-.9.7-.7,1.3-1.4,1.9-2.2.3-.3.6-.5,1.1-.5s.5,0,.6.3c.1.2.2.4,0,.7,0,.2-.2.5-.4.7-.4.5-.9,1-1.4,1.5-.1.1-.3.2-.4.4h3.3c.6,0,.9.3.7.9-.2.6-.6,1-1.2,1h-6.5c.7.7,1.4,1.2,2.2,1.8,1.5,1,2.9,1.7,4.1,2.2.4.2.6.6.5,1.1,0,.2-.2.5-.5.7-.3.3-.6.4-.9.4s-.5,0-.8-.2c-1.1-.6-2.1-1.3-3.1-2-.9-.6-1.7-1.4-2.5-2.2l-.9,3.2c-.2.7-.7,1.1-1.4,1.1s-1-.4-.8-1.1l.9-3.3c-.9.7-1.8,1.3-2.8,1.9-1.4.9-3.3,1.8-5.7,2.8-.3,0-.5.1-.6.1-.6,0-.8-.4-.6-1.2.1-.4.4-.8.9-.9,2.5-.9,4.5-1.9,6-2.7.8-.5,1.6-1,2.4-1.5h-7c-.6,0-.9-.3-.7-1,.2-.6.6-.9,1.2-.9h3.7c-.1-.3-.3-.5-.4-.6-.2-.3-.5-.5-.7-.8-.2-.3-.2-.5-.2-.8.2-.6.6-1,1.2-1s.4,0,.7.1c.3.3.5.7.8.9.3.4.7.9,1,1.5,0,.3.1.5,0,.6h1.7l1.1-4c-3.3.2-5.6.3-6.9.3s-1.1-.4-.9-1.1c.2-.7.6-1,1.3-1,2.7,0,5.1,0,7.5-.2,2.9-.2,5.6-.4,8.1-.8h0ZM143.3,58.1l.9-3.4h-4.6l-.7,2.5c-.2.6,0,.9.5.9h3.9,0ZM140.1,52.9h4.6l.8-3h-4c-.5,0-.8.3-.9.8,0,0-.6,2.2-.6,2.2ZM149.2,58.1c.5,0,.8-.3.9-.9l.7-2.5h-4.4l-.9,3.4h3.7ZM147.8,49.9l-.8,3h4.4l.6-2.2c.1-.5,0-.8-.5-.8h-3.6Z"/>
            </g>
          </g>
        </g>
      </g>
    </g>
  </g>
</svg>