<svg xmlns="http://www.w3.org/2000/svg" xmlns:xlink="http://www.w3.org/1999/xlink" viewBox="0 0 84.95 84.95"><defs><style>.cls-1{fill:url(#金色色環);}.cls-2{fill:none;}.cls-3{fill:#fff;}.cls-4{fill:url(#原銅);}</style><radialGradient id="金色色環" cx="42.47" cy="42.47" r="42.47" gradientUnits="userSpaceOnUse"><stop offset="0" stop-color="#fffcd1"/><stop offset="0.11" stop-color="#fcf5c0"/><stop offset="0.33" stop-color="#f4e493"/><stop offset="0.37" stop-color="#f3e18b"/><stop offset="0.69" stop-color="#f1c500"/><stop offset="1" stop-color="#cb9b0c"/></radialGradient><linearGradient id="原銅" x1="-584.69" y1="370.68" x2="-579.32" y2="370.68" gradientTransform="translate(623.77 -344.86)" gradientUnits="userSpaceOnUse"><stop offset="0.01" stop-color="#f0cc7e"/><stop offset="0.19" stop-color="#e8c47e"/><stop offset="0.6" stop-color="#c78a03"/><stop offset="0.79" stop-color="#e3b75e"/><stop offset="0.87" stop-color="#efca84"/><stop offset="1" stop-color="#f4e7cf"/></linearGradient></defs><g id="Layer_2" data-name="Layer 2"><g id="圖層_1" data-name="圖層 1"><circle class="cls-1" cx="42.47" cy="42.47" r="42.47"/><path class="cls-2" d="M27.92,27.09l-.47-5.59c-1.57-.34-4-.42-4.88.5-.65.69-.61,2.26.11,4.41,1,2.92,3.8,4.56,6.51,5.47A14.43,14.43,0,0,1,27.92,27.09Z"/><path class="cls-2" d="M57.48,21.5,57,27.09a14.42,14.42,0,0,1-1.26,4.79c2.71-.91,5.53-2.55,6.5-5.47.72-2.15.76-3.72.11-4.41C61.5,21.08,59,21.16,57.48,21.5Z"/><path class="cls-3" d="M65.27,19.27c-2-2.19-5.43-2.14-7.44-1.88l.32-3.75H26.78l.32,3.75c-2-.27-5.39-.31-7.44,1.88-1.75,1.86-2,4.69-.77,8.4,2.24,6.71,10.11,8.61,14,9.15a14.54,14.54,0,0,0,19.22,0c3.85-.54,11.72-2.44,14-9.15C67.27,24,67,21.13,65.27,19.27ZM22.68,26.41c-.72-2.15-.76-3.72-.11-4.41.86-.92,3.31-.84,4.88-.5l.47,5.59a14.43,14.43,0,0,0,1.27,4.79C26.48,31,23.65,29.33,22.68,26.41Zm39.56,0c-1,2.92-3.79,4.56-6.5,5.47A14.42,14.42,0,0,0,57,27.09l.48-5.59c1.56-.34,4-.42,4.87.5C63,22.69,63,24.26,62.24,26.41Z"/><path class="cls-3" d="M42.46,42.19A25.47,25.47,0,0,1,39.54,42V54h5.84V42A25.47,25.47,0,0,1,42.46,42.19Z"/><path class="cls-3" d="M51.42,55.88H32.85a2.1,2.1,0,0,0-2.06,1.72L28.51,70.16H55.77L53.48,57.6A2.1,2.1,0,0,0,51.42,55.88Z"/><path class="cls-4" d="M43.31,33.47c-.76,0-1.13-.34-1.13-1V21A5,5,0,0,1,40,22.1a.9.9,0,0,1-.67-.27.81.81,0,0,1-.29-.65.93.93,0,0,1,.48-.78l2.62-1.88a2.29,2.29,0,0,1,1.35-.36c.62,0,.92.4.92,1.21V32.46C44.45,33.13,44.07,33.47,43.31,33.47Z"/></g></g></svg>