<svg xmlns="http://www.w3.org/2000/svg" xmlns:xlink="http://www.w3.org/1999/xlink" viewBox="0 0 86.45 86.45"><defs><style>.cls-1{fill:url(#未命名漸層_57);}.cls-2{fill:none;}.cls-3{fill:#fff;}.cls-4{fill:url(#鋁);}</style><radialGradient id="未命名漸層_57" cx="43.22" cy="43.22" r="43.22" gradientUnits="userSpaceOnUse"><stop offset="0" stop-color="#b5b5b6"/><stop offset="0" stop-color="#dcdddd"/><stop offset="0.09" stop-color="#e2e3e3"/><stop offset="0.28" stop-color="#ececec"/><stop offset="0.38" stop-color="#e1e2e2"/><stop offset="0.56" stop-color="#c4c7c8"/><stop offset="0.62" stop-color="#b8bcbe"/><stop offset="0.88" stop-color="#889092"/><stop offset="1" stop-color="#6f797c"/></radialGradient><linearGradient id="鋁" x1="42.43" y1="26.68" x2="51.63" y2="26.68" gradientTransform="translate(-3)" gradientUnits="userSpaceOnUse"><stop offset="0.01" stop-color="#cacbcc"/><stop offset="0.29" stop-color="#a9abad"/><stop offset="0.65" stop-color="#ceced0"/><stop offset="0.87" stop-color="#aeafb2"/><stop offset="1" stop-color="#b5b5b6"/><stop offset="1" stop-color="#d2d5d8"/></linearGradient></defs><g id="Layer_2" data-name="Layer 2"><g id="圖層_1" data-name="圖層 1"><circle class="cls-1" cx="43.22" cy="43.22" r="43.22"/><path class="cls-2" d="M28.41,27.57l-.48-5.69c-1.59-.35-4.09-.43-5,.51-.66.7-.62,2.3.11,4.49,1,3,3.86,4.63,6.62,5.57A15,15,0,0,1,28.41,27.57Z"/><path class="cls-2" d="M58.49,21.88,58,27.57a14.79,14.79,0,0,1-1.29,4.88c2.76-.94,5.63-2.6,6.62-5.57.73-2.19.77-3.79.12-4.49C62.58,21.45,60.08,21.53,58.49,21.88Z"/><path class="cls-3" d="M66.42,19.61c-2.09-2.22-5.52-2.18-7.57-1.91l.32-3.82H27.25l.32,3.82c-2.05-.27-5.48-.32-7.57,1.91-1.77,1.89-2,4.77-.77,8.55,2.27,6.83,10.29,8.76,14.2,9.31a14.81,14.81,0,0,0,19.56,0c3.92-.55,11.93-2.48,14.21-9.31C68.46,24.38,68.19,21.5,66.42,19.61ZM23.08,26.88c-.73-2.19-.77-3.79-.11-4.49.87-.94,3.37-.86,5-.51l.48,5.69a15,15,0,0,0,1.29,4.88C26.94,31.51,24.07,29.85,23.08,26.88Zm40.26,0c-1,3-3.86,4.63-6.62,5.57A14.79,14.79,0,0,0,58,27.57l.48-5.69c1.59-.35,4.09-.43,5,.51C64.11,23.09,64.07,24.69,63.34,26.88Z"/><path class="cls-3" d="M43.21,42.94a28.77,28.77,0,0,1-3-.16V55h5.94V42.78A28.77,28.77,0,0,1,43.21,42.94Z"/><path class="cls-3" d="M52.33,56.87H33.43a2.14,2.14,0,0,0-2.1,1.75L29,71.4H56.75L54.43,58.62A2.14,2.14,0,0,0,52.33,56.87Z"/><path class="cls-4" d="M47.68,25.57a59.75,59.75,0,0,1-3.85,4.82A8.35,8.35,0,0,0,42.15,33h5.22a1,1,0,0,1,1.17,1.13c0,.77-.41,1.15-1.24,1.15h-6c-1.13,0-1.7-.54-1.7-1.61a6.37,6.37,0,0,1,1.68-4.14q2-2.4,3.56-4.46A4.72,4.72,0,0,0,46,22.34c0-1.35-.63-2-1.88-2-1,0-1.66.76-1.9,2.28a2.39,2.39,0,0,1-.38,1.1,1.42,1.42,0,0,1-1.08.33c-.85,0-1.28-.5-1.28-1.52a4.3,4.3,0,0,1,1.24-3.27A4.58,4.58,0,0,1,44,18.06a4.92,4.92,0,0,1,3.41,1.17,4.24,4.24,0,0,1,1.26,3.27A5.29,5.29,0,0,1,47.68,25.57Z"/></g></g></svg>