<svg xmlns="http://www.w3.org/2000/svg" xmlns:xlink="http://www.w3.org/1999/xlink" viewBox="0 0 86.45 86.45"><defs><style>.cls-1{fill:url(#未命名漸層_89);}.cls-2{fill:none;}.cls-3{fill:#fff;}.cls-4{fill:#673a1b;}</style><radialGradient id="未命名漸層_89" cx="43.22" cy="43.22" r="43.22" gradientUnits="userSpaceOnUse"><stop offset="0" stop-color="#fff7e3"/><stop offset="0.31" stop-color="#debd91"/><stop offset="0.71" stop-color="#b96e35"/><stop offset="0.78" stop-color="#b36126"/><stop offset="1" stop-color="#8a4135"/></radialGradient></defs><g id="Layer_2" data-name="Layer 2"><g id="圖層_1" data-name="圖層 1"><circle class="cls-1" cx="43.22" cy="43.22" r="43.22"/><path class="cls-2" d="M28.41,27.57l-.48-5.69c-1.59-.35-4.09-.43-5,.51-.66.7-.62,2.3.11,4.49,1,3,3.86,4.63,6.62,5.57A15,15,0,0,1,28.41,27.57Z"/><path class="cls-2" d="M58.49,21.88,58,27.57a14.79,14.79,0,0,1-1.29,4.88c2.76-.94,5.63-2.6,6.62-5.57.73-2.19.77-3.79.12-4.49C62.58,21.45,60.08,21.53,58.49,21.88Z"/><path class="cls-3" d="M66.42,19.61c-2.09-2.22-5.52-2.18-7.57-1.91l.32-3.82H27.25l.32,3.82c-2.05-.27-5.48-.32-7.57,1.91-1.77,1.89-2,4.77-.77,8.55,2.27,6.83,10.29,8.76,14.2,9.31a14.81,14.81,0,0,0,19.56,0c3.92-.55,11.93-2.48,14.21-9.31C68.46,24.38,68.19,21.5,66.42,19.61ZM23.08,26.88c-.73-2.19-.77-3.79-.11-4.49.87-.94,3.37-.86,5-.51l.48,5.69a15,15,0,0,0,1.29,4.88C26.94,31.51,24.07,29.85,23.08,26.88Zm40.26,0c-1,3-3.86,4.63-6.62,5.57A14.79,14.79,0,0,0,58,27.57l.48-5.69c1.59-.35,4.09-.43,5,.51C64.11,23.09,64.07,24.69,63.34,26.88Z"/><path class="cls-3" d="M43.21,42.94a28.77,28.77,0,0,1-3-.16V55h5.94V42.78A28.77,28.77,0,0,1,43.21,42.94Z"/><path class="cls-3" d="M52.33,56.87H33.43a2.14,2.14,0,0,0-2.1,1.75L29,71.4H56.75L54.43,58.62A2.14,2.14,0,0,0,52.33,56.87Z"/><path class="cls-4" d="M44.63,35.74a4.94,4.94,0,0,1-3.31-1.15,3.77,3.77,0,0,1-1.42-3.07c0-1,.41-1.48,1.24-1.48.65,0,1,.28,1.1.84.33,1.71,1.15,2.56,2.46,2.56,1.52,0,2.27-1,2.27-2.92a2.4,2.4,0,0,0-.9-2,3.52,3.52,0,0,0-2.17-.64c-.74,0-1.1-.39-1.1-1.17s.31-1.1,1-1.1A2.91,2.91,0,0,0,45.89,25a2.84,2.84,0,0,0,.66-2.14c0-1.67-.62-2.5-1.87-2.5a1.75,1.75,0,0,0-2,1.81,1.51,1.51,0,0,1-.35,1,1.24,1.24,0,0,1-1,.31q-1.23,0-1.23-1.5a3.55,3.55,0,0,1,1.3-2.86,4.53,4.53,0,0,1,3-1.06,5,5,0,0,1,3.4,1.13,4.09,4.09,0,0,1,1.4,3.27,5.78,5.78,0,0,1-2.19,4.31A5.28,5.28,0,0,1,49,28.27a3.26,3.26,0,0,1,.73,2Q49.72,35.73,44.63,35.74Z"/></g></g></svg>