<?xml version="1.0" encoding="UTF-8"?>
<svg id="Layer_1" xmlns="http://www.w3.org/2000/svg" xmlns:xlink="http://www.w3.org/1999/xlink" version="1.1" viewBox="0 0 200 45.7">
  <!-- Generator: Adobe Illustrator 29.1.0, SVG Export Plug-In . SVG Version: 2.1.0 Build 142)  -->
  <defs>
    <style>
      .st0 {
        fill: url(#linear-gradient2);
      }

      .st1 {
        fill: url(#linear-gradient1);
      }

      .st2 {
        fill: url(#linear-gradient3);
      }

      .st3 {
        fill: #040403;
        opacity: .1;
      }

      .st3, .st4 {
        isolation: isolate;
      }

      .st5 {
        fill: url(#linear-gradient);
      }

      .st6 {
        fill: #fff;
      }
    </style>
    <linearGradient id="linear-gradient" x1="2.9" y1="21" x2="160.6" y2="21" gradientUnits="userSpaceOnUse">
      <stop offset="0" stop-color="#f9e0ac"/>
      <stop offset="1" stop-color="#f9b653"/>
    </linearGradient>
    <linearGradient id="linear-gradient1" x1="147.6" x2="196.2" xlink:href="#linear-gradient"/>
    <linearGradient id="linear-gradient2" x1="0" y1="25.8" x2="157.8" y2="25.8" gradientTransform="translate(0 46.8) scale(1 -1)" gradientUnits="userSpaceOnUse">
      <stop offset="0" stop-color="#f9b653"/>
      <stop offset="1" stop-color="#f9e0ac"/>
    </linearGradient>
    <linearGradient id="linear-gradient3" x1="144.7" x2="193.3" xlink:href="#linear-gradient2"/>
  </defs>
  <g class="st4">
    <g id="b">
      <g id="c">
        <g>
          <g>
            <path class="st3" d="M178.1,3.8h-29.5c12.1,0,21.9,9.4,21.9,21s-9.9,21-21.9,21h29.5c12.1,0,21.9-9.4,21.9-21s-9.9-21-21.9-21Z"/>
            <path class="st3" d="M25.7,45.7h116.8c12.1,0,21.9-9.4,21.9-21s-9.9-21-21.9-21H25.7c-12,0-21.9,9.4-21.9,21s9.9,21,21.9,21Z"/>
            <g>
              <g>
                <path class="st5" d="M160.6,21c0,11.5-9.9,21-21.9,21H24.8c-12.1,0-21.9-9.4-21.9-21S12.7,0,24.8,0h113.9C150.8,0,160.6,9.4,160.6,21h0Z"/>
                <path class="st1" d="M174.3,0h-26.7C159.7,0,169.5,9.4,169.5,21s-9.9,21-21.9,21h26.7c12.1,0,21.9-9.4,21.9-21S186.3,0,174.3,0Z"/>
              </g>
              <g>
                <g>
                  <path class="st0" d="M157.8,21c0,11.5-9.9,21-21.9,21H21.9C9.9,41.9,0,32.5,0,21S9.9,0,21.9,0h113.9C147.9,0,157.8,9.4,157.8,21h0Z"/>
                  <path class="st2" d="M171.4,0h-26.7C156.8,0,166.6,9.4,166.6,21s-9.9,21-21.9,21h26.7c12.1,0,21.9-9.4,21.9-21S183.5,0,171.4,0Z"/>
                </g>
                <path class="st6" d="M182.6,20.1c-2.9-2.9-5.7-5.8-8.6-8.7-1.1-1.1-2.8.6-1.7,1.7,2.6,2.6,5.2,5.3,7.8,7.9-2.6,2.6-5.2,5.3-7.8,7.9-1.1,1.1.6,2.8,1.7,1.7,2.9-2.9,5.7-5.8,8.6-8.7.5-.5.5-1.2,0-1.7Z"/>
              </g>
            </g>
          </g>
          <g>
            <path class="st6" d="M33.9,23h4.8c1,0,1.4.5,1.1,1.6l-1,3.8c-.3,1-.9,1.5-2,1.5h-4.8c-1,0-1.4-.5-1.1-1.5l1-3.8c.3-1,.9-1.6,1.9-1.6ZM34.2,19.9h6c.3,0,.6,0,.7.2,0,.1,0,.4,0,.7,0,.3-.2.5-.4.7-.2.2-.5.3-.8.3h-6c-.3,0-.5,0-.6-.2,0-.1,0-.4,0-.8,0-.3.2-.6.4-.7.2-.1.4-.2.8-.2h0ZM36.4,27.8c.3,0,.5-.1.6-.4l.5-2c0-.3,0-.5-.3-.5h-2.8c-.3,0-.5.2-.6.5l-.5,2c0,.3,0,.4.3.4h2.8ZM35.2,13.3h7.7c.4,0,.7,0,.8.3.1.1.1.4,0,.8,0,.4-.2.6-.4.8-.3.2-.6.4-1,.4h-7.7c-.4,0-.6,0-.7-.3-.1-.1-.1-.4,0-.8,0-.4.2-.6.5-.8.2-.2.5-.2.9-.2h0ZM35.1,16.7h6c.3,0,.6,0,.7.2,0,.1,0,.4,0,.7,0,.3-.2.5-.3.7-.2.2-.5.3-.8.3h-6c-.3,0-.5,0-.6-.2,0-.1,0-.4,0-.8,0-.3.2-.6.4-.7.2-.1.4-.2.8-.2h0ZM37,10.1h5.8c.3,0,.6,0,.7.2.1.1.2.4,0,.8,0,.4-.2.6-.3.8-.2.2-.5.3-1,.3h-5.8c-.3,0-.5,0-.6-.2-.2-.1-.2-.4,0-.8.1-.4.3-.7.5-.8.2-.1.4-.2.8-.2ZM45.9,10.5h9c.4,0,.7,0,.8.3.1.1.1.4,0,.8,0,.4-.2.6-.4.8-.3.3-.6.4-1,.4h-2.6l-4.2,15.6c-.1.5-.4,1-.8,1.3-.3.3-.8.5-1.4.5-.9,0-1.7,0-2.3-.1-.8-.1-1.4-.3-1.8-.4-.3-.2-.4-.5-.4-1.1.2-.8.6-1.2,1.3-1.3.2,0,.3,0,.5.1.9.3,1.7.4,2.2.4.2,0,.4-.1.4-.3l3.9-14.7h-4c-.3,0-.6-.1-.7-.3-.2-.2-.2-.5,0-.9,0-.4.3-.7.5-.9.2-.2.5-.2.9-.2h0Z"/>
            <path class="st6" d="M62.2,16.5h13.9c1.1,0,1.5.5,1.2,1.6l-1.3,4.7c-.3,1.1-1,1.6-2.1,1.6h-5.8l-.3,1.2h8.2c.3,0,.6,0,.7.2,0,.1,0,.4,0,.8,0,.3-.2.6-.4.8-.2.2-.5.3-.9.3h-8.2l-.4,1.5c-.1.4-.3.7-.5.9-.3.2-.6.3-1,.3s-.7-.1-.8-.3c-.1-.2-.2-.5,0-.9l.4-1.5h-8.3c-.3,0-.5,0-.7-.2-.1-.1-.1-.4,0-.8,0-.3.2-.6.5-.8.2-.1.5-.2.8-.2h8.4l.3-1.2h-5.7c-1.1,0-1.5-.5-1.2-1.6l1.3-4.7c.3-1.1,1-1.6,2.1-1.6h0ZM63.2,9.9h5.3c.9,0,1.3.5,1,1.4l-.8,2.8c-.3,1-.9,1.5-1.8,1.5h-5.3c-1,0-1.3-.5-1-1.5l.8-2.8c.2-.9.9-1.4,1.8-1.4ZM66.2,22.5l.3-1.3h-4.8l-.3,1c0,.2,0,.3.2.3h4.6ZM62.3,19.5h4.8l.3-1.1h-4.5c-.2,0-.3,0-.3.3l-.2.8h0ZM66.2,13.6c.3,0,.4-.1.5-.4l.3-1c0-.2,0-.3-.3-.3h-2.7c-.3,0-.4.1-.5.3l-.3,1c0,.3,0,.4.3.4h2.7ZM73.3,22.5c.2,0,.3,0,.3-.3l.3-1h-4.9l-.3,1.3h4.6ZM69.8,18.4l-.3,1.1h4.9l.2-.8c0-.2,0-.3-.2-.3h-4.6ZM73,9.9h5.6c1,0,1.3.5,1.1,1.4l-.8,2.8c-.3,1-.9,1.5-1.8,1.5h-5.6c-.9,0-1.3-.5-1-1.5l.8-2.8c.2-.9.9-1.4,1.8-1.4h0ZM76.3,13.6c.2,0,.4-.1.5-.4l.3-1c0-.2,0-.3-.3-.3h-3c-.3,0-.4.1-.5.3l-.3,1c0,.3,0,.4.3.4h3Z"/>
            <path class="st6" d="M85,21.4c.2,0,.5,0,.7.1.2.1.3.4.2.9,0,.3-.3.7-.6,1.3-.4.9-1.1,2.1-2.1,3.9-.3.6-.7,1.2-1,1.7s-.8.8-1.2.8c-.3,0-.6-.2-.7-.4-.1-.2-.2-.4,0-.8,0-.3,1.1-2.1,3-5.4.3-.5.6-1,.8-1.4.3-.5.7-.7,1-.7h0ZM85,15.4c.2,0,.4.1.5.2.2.2.6.5.9,1,.6,1.1.9,1.9.8,2.4,0,.3-.2.6-.5.7-.2.2-.6.3-1,.3s-.5-.1-.7-.4c-.3-.9-.8-1.8-1.3-2.6-.2-.2-.2-.4-.2-.6,0-.4.3-.6.7-.8.2-.1.5-.2.8-.2h0ZM94.1,9.4c.3,0,.5,0,.6.2.2.1.2.4.1.6-.1.4-.3.7-.6.8,0,0-.8.3-2.2.7-.3.1-.4.3-.5.4l-.9,3.4c.6-.2,1.1-.4,1.6-.6,0-.4-.1-.8-.2-1.3,0,0,0-.2,0-.3,0,0,0-.2.2-.3.1-.1.3-.2.5-.3.1,0,.3,0,.4,0,.2,0,.4.1.6.3,0,.2.2.7.2,1.5,0,.3,0,.6,0,.8.3-.3.5-.6.7-1,.3-.5.6-1.3.9-2.4h-.2c-.4,0-.6-.3-.4-.8.2-.5.4-.8.9-.8h3.4c.4,0,.7,0,.9.3.2.2.2.5,0,1.1-.4,1.4-.7,2.5-.9,3.3-.4,1.1-.8,1.8-1.3,2.1-.3.3-.8.4-1.3.5-.8,0-1.3-.1-1.6-.3-.2-.1-.2-.3-.2-.6-.1.1-.3.3-.4.4-.2.2-.4.3-.7.4.1,0,.3.1.4.2,1.1.9,2.1,1.6,3.1,2.3.1.1.2.3.1.6,0,.3-.3.6-.5.8-.2.2-.5.2-.8.2s0,0-.1,0c0,.1-.1.2-.2.3-.2.2-.4.2-.8.2h-2l-.3,1.2h3c.3,0,.5,0,.6.2,0,.1,0,.3,0,.6,0,.3-.2.5-.3.6-.2.2-.4.3-.8.3h-3l-.8,2.8c.4,0,.8,0,1.1,0,0,0,0,0,0,0-.1-.2-.1-.4,0-.6,0-.1.1-.2.2-.3,0,0,0-.1.1-.2.2-.2.4-.4.5-.5.2-.2.2-.3.3-.3.2-.2.4-.3.6-.3s.4,0,.6.2c.2.1.3.3.2.6,0,0,0,.2-.2.3-.2.2-.4.5-.6.8-.2.2-.3.3-.4.5.4,0,.9,0,1.3,0,.2,0,.4,0,.5.2,0,.2,0,.4,0,.7,0,.3-.2.5-.4.7-.2.1-.4.2-.7.2-3.3.4-6.3.6-9.1.6-.3,0-.5,0-.6-.2,0-.2,0-.4,0-.8,0-.3.2-.5.4-.6.2-.2.6-.3,1-.3,1.2,0,2.3-.1,3.4-.2l.8-2.9h-3.1c-.3,0-.4,0-.6-.2,0-.1-.1-.4,0-.7,0-.3.2-.5.4-.6.2-.1.4-.2.7-.2h3.1l.3-1.2h-1.9c-.3,0-.4,0-.6-.2,0,0,0-.1,0-.2-.3.1-.5.2-.7.2-.4,0-.6-.1-.8-.4,0-.2,0-.5,0-.7,0-.2.2-.5.5-.7,1.6-.8,3.1-1.7,4.4-2.5.3-.2.6-.3.9-.3,0,0,0,0,0-.1,0-.1,0-.2,0-.4,0-.2.1-.3.2-.5,0,0-.2,0-.2,0-1.1.6-2.4,1.2-3.8,1.8-.2,0-.3,0-.5,0-.2,0-.4-.1-.5-.4,0-.2,0-.5,0-.8,0-.3.3-.6.6-.7.2,0,.3,0,.5-.1l1.3-4.8c.1-.4.5-.8,1.3-1.1.7-.2,1.3-.4,2.1-.7.4-.1.6-.2.7-.2h0ZM86.6,9.5c.2,0,.4,0,.5.2.2.2.5.6.8,1.2.5,1.3.7,2.2.6,2.9,0,.3-.2.5-.4.6-.2.2-.5.3-.9.3-.3,0-.5-.2-.6-.5-.3-1-.7-2.1-1.1-3.1-.2-.3-.2-.5-.2-.7,0-.3.3-.5.6-.7.2-.1.4-.2.7-.2h0ZM87.7,25.2c.2,0,.3,0,.5.2.2.1.3.3.3.5.2.5.3.8.3,1,0,.3-.2.5-.5.6-.2.1-.4.2-.8.2s-.4-.1-.4-.3c-.2-.3-.4-.7-.6-1,0,0,0-.2,0-.2,0-.2.2-.5.5-.6.2-.1.4-.2.7-.2h0ZM94.3,20.4c-.5-.4-1-.9-1.5-1.4,0,0-.1,0-.2,0s-.1,0-.2,0c-.8.5-1.4,1-2.1,1.4h4ZM97.1,11.8c-.1.4-.2.8-.3,1.1-.2.6-.4,1.2-.7,1.7-.2.4-.4.7-.6,1,0,0,.2,0,.2,0s.2,0,.2,0c.2,0,.4.1.6.1.4,0,.7-.2.9-.8.2-.6.5-1.6.9-3.1,0-.1,0-.2,0-.2h-1.2ZM105.1,9.4c.7,0,1,.3.9.8l-4.9,18.3c-.1.5-.4.9-.8,1.1-.4.3-.9.4-1.6.5-.5,0-1,0-1.3-.1-.5,0-.8-.2-1-.4-.2-.1-.3-.4-.3-.9.2-.7.6-1.1,1.1-1.1.1,0,.2,0,.3,0,.6.3,1,.4,1.3.4.2,0,.3-.1.4-.3l4.7-17.6c.2-.5.6-.8,1.2-.8ZM101.7,11c.3,0,.5,0,.6.2.1.1.2.4,0,.7l-3.5,13.2c0,.2-.2.4-.3.6-.2.2-.5.3-.8.3s-.5-.1-.6-.3c0-.2-.1-.4,0-.6l3.5-13.2c0-.3.2-.5.4-.7.2-.1.4-.2.7-.2Z"/>
            <path class="st6" d="M111.3,19h13.8c1,0,1.3.5,1.1,1.5l-1.3,4.7c-.3,1-.9,1.5-1.8,1.5h-3.3l-.3,1.2c0,.4,0,.6.4.6h3.4c.4,0,.6-.2.8-.4.1-.2.3-.6.5-1.1,0-.2.2-.4.4-.6.3,0,.4-.1.5-.1.3,0,.6,0,.7,0,.3.1.4.4.3.8-.2.9-.6,1.6-.9,2.1-.4.5-1,.9-1.9.9h-5.9c-.7,0-.9-.7-.6-2l.4-1.5h-2.9c-.3.6-.8,1.1-1.4,1.5-1.2.8-3.1,1.4-5.7,1.9-.7.1-1.3.2-1.8.2s-.5-.1-.7-.3c-.1-.2-.2-.4-.1-.7,0-.3.2-.5.4-.6,2.8-.4,4.6-.8,5.5-1.1.7-.2,1.2-.5,1.5-.9h-3.2c-1,0-1.3-.5-1.1-1.5l1.3-4.7c.3-1,.9-1.5,1.9-1.5h0ZM120,9.7c.4,0,.6.2.5.7-.2.5-.5.8-.9.8h-2.6l-.3,1.2h1.8c.6,0,.8.2.7.7l-.5,1.7c-.2.7-.6,1-1.2,1h-1.7l-.2.9h2.3c.4,0,.5.3.4.7-.2.5-.4.8-.8.8h-7.4c-.7,0-1-.4-.8-1.2l1.7-6.2c.2-.8.7-1.2,1.3-1.2h7.8ZM122.1,25.2c.3,0,.5-.1.6-.5v-.3c0,0-12,0-12,0v.3c-.2.3,0,.5.2.5h11.2ZM111.1,23.2h12l.2-.7h-12l-.2.7ZM113.8,16.7l.2-.9h-2.4l-.2.7c0,.1,0,.2.1.2h2.2ZM111.6,21.1h12v-.3c.2-.3,0-.4-.3-.4h-11.2c-.3,0-.5.1-.5.4v.3ZM112,14.5h4.8c.2,0,.3-.1.3-.3v-.2c0-.2,0-.2-.1-.2h-4.8l-.2.7h0ZM112.6,12.4h2.3l.3-1.2h-2.1c-.1,0-.2,0-.2.2l-.3,1ZM120.4,14.8h8.2c.5,0,.7.3.6.8l-.5,1.8c-.1.5-.5.8-1,.8h-8.2c-.5,0-.7-.3-.6-.8l.5-1.8c.2-.5.5-.8,1-.8ZM123.3,9.1c.2,0,.4,0,.6.2.2.2.3.4.2.6,0,.1,0,.2-.2.3h6.4c.3,0,.4,0,.5.2,0,.1.1.3,0,.6,0,.2-.1.4-.3.5-.2.2-.4.3-.7.3h-7.4c-.5.5-1.1,1-1.8,1.4-.2.2-.4.3-.6.3s-.5-.1-.6-.3c-.1-.2-.2-.4-.1-.7,0-.2.2-.3.4-.5.2-.1.4-.4.8-.7.7-.6,1.5-1.3,2.2-2.1.2-.1.3-.2.4-.2h0ZM121.9,17.2l.3-1.2h-.9c-.2,0-.3,0-.3.2l-.2.7c0,.2,0,.3.2.3h.9ZM122.2,12.7h6.6c.2,0,.3,0,.4.1,0,0,0,.2,0,.5,0,.3-.1.4-.2.5-.2.1-.4.2-.6.2h-6.6c-.2,0-.3,0-.4-.2,0,0-.1-.3,0-.6,0-.2.2-.4.3-.5,0,0,.2-.1.5-.1h0ZM124.5,17.2l.3-1.2h-1.2l-.3,1.2h1.2ZM126.7,17.2c.2,0,.3,0,.3-.3l.2-.7c0-.2,0-.2-.2-.2h-.9l-.3,1.2h.9Z"/>
          </g>
        </g>
      </g>
    </g>
  </g>
</svg>