<?xml version="1.0" encoding="UTF-8"?>
<svg id="Layer_1" xmlns="http://www.w3.org/2000/svg" xmlns:xlink="http://www.w3.org/1999/xlink" version="1.1" viewBox="0 0 163.1 38">
  <!-- Generator: Adobe Illustrator 29.1.0, SVG Export Plug-In . SVG Version: 2.1.0 Build 142)  -->
  <defs>
    <style>
      .st0, .st1 {
        fill: none;
      }

      .st2 {
        fill: url(#linear-gradient2);
      }

      .st3 {
        fill: url(#linear-gradient1);
      }

      .st4 {
        fill: url(#linear-gradient3);
      }

      .st5 {
        fill: #040403;
        opacity: .1;
      }

      .st5, .st6 {
        isolation: isolate;
      }

      .st1 {
        clip-path: url(#clippath);
      }

      .st7 {
        fill: url(#linear-gradient);
      }

      .st8 {
        mix-blend-mode: multiply;
      }

      .st9 {
        clip-path: url(#clippath-1);
      }

      .st10 {
        fill: #fff;
      }
    </style>
    <linearGradient id="linear-gradient" x1="2.4" y1="17.4" x2="130.4" y2="17.4" gradientUnits="userSpaceOnUse">
      <stop offset="0" stop-color="#f9e0ac"/>
      <stop offset="1" stop-color="#f9b653"/>
    </linearGradient>
    <linearGradient id="linear-gradient1" x1="119.6" x2="160" xlink:href="#linear-gradient"/>
    <linearGradient id="linear-gradient2" x1="0" y1="21.4" x2="128.1" y2="21.4" gradientTransform="translate(0 38.8) scale(1 -1)" gradientUnits="userSpaceOnUse">
      <stop offset="0" stop-color="#f9b653"/>
      <stop offset="1" stop-color="#f9e0ac"/>
    </linearGradient>
    <linearGradient id="linear-gradient3" x1="117.2" x2="157.6" xlink:href="#linear-gradient2"/>
    <clipPath id="clippath">
      <polygon class="st0" points="-17.8 -26 -17.6 -26 -17.8 -25.8 -17.8 -26"/>
    </clipPath>
    <clipPath id="clippath-1">
      <polygon class="st1" points="-18.3 -26.5 -18.5 -26.5 -18.3 -26.7 -18.3 -26.5"/>
    </clipPath>
  </defs>
  <g class="st6">
    <g id="b">
      <g id="c">
        <g>
          <g>
            <path class="st5" d="M144.9,3.2h-24.5c10,0,18.2,7.8,18.2,17.4s-8.2,17.4-18.2,17.4h24.5c10,0,18.2-7.8,18.2-17.4s-8.2-17.4-18.2-17.4Z"/>
            <path class="st5" d="M21.4,38h94c10,0,18.2-7.8,18.2-17.4S125.4,3.2,115.4,3.2H21.4C11.4,3.2,3.2,11,3.2,20.6s8.2,17.4,18.2,17.4h0Z"/>
            <g>
              <g>
                <path class="st7" d="M130.4,17.4c0,9.6-8.2,17.4-18.2,17.4H20.6c-10,0-18.2-7.8-18.2-17.4S10.6,0,20.6,0h91.6C122.2,0,130.4,7.8,130.4,17.4Z"/>
                <path class="st3" d="M141.8,0h-22.2C129.6,0,137.8,7.8,137.8,17.4s-8.2,17.4-18.2,17.4h22.2c10,0,18.2-7.8,18.2-17.4S151.8,0,141.8,0Z"/>
              </g>
              <g>
                <g>
                  <path class="st2" d="M128.1,17.4c0,9.6-8.2,17.4-18.2,17.4H18.2c-10,0-18.2-7.8-18.2-17.4S8.2,0,18.2,0h91.6C119.8,0,128,7.8,128,17.4h0Z"/>
                  <path class="st4" d="M139.4,0h-22.2C127.2,0,135.4,7.8,135.4,17.4s-8.2,17.4-18.2,17.4h22.2c10,0,18.2-7.8,18.2-17.4S149.4,0,139.4,0Z"/>
                </g>
                <path class="st10" d="M148.7,16.7c-2.4-2.4-4.8-4.8-7.2-7.3-.9-.9-2.3.5-1.4,1.4,2.2,2.2,4.3,4.4,6.5,6.6-2.2,2.2-4.3,4.4-6.5,6.6-.9.9.5,2.3,1.4,1.4,2.4-2.4,4.8-4.8,7.2-7.3.4-.4.4-1,0-1.4Z"/>
              </g>
            </g>
          </g>
          <g>
            <g class="st8">
              <g class="st9">
                <image class="st6" width="697" height="368" transform="translate(-101.7 -70.4) scale(.2)" xlink:href="p-title-5-1.png"/>
              </g>
            </g>
            <g>
              <path class="st10" d="M20.8,20.9c.4,0,.6.2.5.6,0,.2-.2.5-.5.8-.9,1-1.6,1.8-2.3,2.4-.2,0-.4.1-.5.1-.4,0-.6-.2-.5-.5,0-.2.1-.3.3-.5.9-.8,1.8-1.6,2.5-2.5.2-.2.4-.3.6-.3ZM26.2,16.6c.3,0,.4.1.3.5-.1.4-.3.6-.6.6h-2.5l-.4,1.4c.9-.1,1.6-.2,2.3-.3.1,0,.2,0,.3,0,.3,0,.4.2.3.5,0,.2-.2.4-.5.5-.8.2-1.9.4-3.2.6-1,.1-2.2.3-3.6.4-.4,0-.5-.2-.4-.6,0-.3.3-.5.7-.6,1.2,0,2.2-.1,2.9-.2l.4-1.5h-2.5c-.3,0-.4-.2-.3-.6,0-.3.3-.5.6-.5h2.5l.3-1.1c.1-.4.3-.6.7-.6s.6.2.5.6l-.3,1.1h2.5,0ZM28,10.2c.3,0,.4.1.3.5-.1.4-.3.5-.6.5h-2.6l-.3,1.2h3.1c.3,0,.5.1.4.5-.1.4-.3.5-.6.5h-1.6l-.3,1c0,.2,0,.3.1.3h1.6c.3,0,.4.2.3.5,0,.3-.2.5-.5.5h-1.9c-.6,0-.9-.3-.7-.9l.4-1.4h-2c-.2.5-.4,1-.6,1.2-.3.4-.6.7-1,.9-.5.3-1,.4-1.5.5h-.2c-.3,0-.4-.2-.3-.6,0-.3.3-.4.5-.5.4,0,.7-.1,1-.3.3-.1.5-.4.7-.6.1-.2.2-.4.4-.7h-1.4c-.3,0-.4-.2-.3-.5,0-.3.3-.5.6-.5h2.9l.3-1.2h-2.5c-.3,0-.4-.2-.4-.5,0-.3.3-.5.6-.5h2.5l.2-.8c.1-.4.4-.6.8-.6s.6.2.5.6l-.2.8h2.6,0ZM23.9,21.1c.3,0,.5.1.5.3,0,.5,0,1.2,0,2.3,0,.2,0,.4,0,.5-.1.4-.4.5-.8.5s-.5-.2-.4-.5c0-.9,0-1.7,0-2.4v-.2c0-.3.3-.5.7-.5h0ZM29.7,11.3h1.3c.2-.6.4-1.2.5-1.8.1-.4.3-.5.7-.5s.6.2.5.5c-.2.6-.3,1.2-.5,1.8h1.3c.7,0,.9.4.7,1l-1.1,4.1c-.2.6-.2,1.2,0,1.9,0,.1,0,.1.1.1s.3-.5.7-1.4c.1-.3.3-.5.7-.5.3,0,.5.2.4.6,0,.2-.3.7-.7,1.4-.4.7-.7,1.2-1,1.4-.2.2-.5.3-.7.3s-.5,0-.6-.3c-.2-.2-.4-.6-.4-1.1,0-.7,0-1.5.3-2.5l.9-3.5c0-.4,0-.5-.4-.5h-.8c-.3.8-.6,1.6-.9,2.4-.2.4-.3.7-.5,1,.1.4.3.8.4,1.1,0,.1,0,.3,0,.4-.1.4-.4.6-.9.6s-.2,0-.3-.1c0-.2-.1-.4-.2-.5-.7,1.1-1.5,2.2-2.5,3.2-.2.2-.4.3-.6.3-.4,0-.5-.2-.4-.6,0,0,0-.1.2-.3,1.1-1.1,2-2.4,2.8-3.8-.2-.6-.5-1.2-.7-1.8,0-.1-.1-.2,0-.2.1-.4.4-.6.8-.6s.2,0,.2.2c.2.3.4.6.5.9,0,0,0,0,0-.1.3-.7.6-1.4.8-2.1h-1.2c-.4,0-.5-.2-.4-.5.1-.4.3-.6.7-.6h0ZM27.8,21c.3,0,.5.1.5.3,0,.5,0,1.3,0,2.4,0,.2,0,.4,0,.5-.1.4-.4.5-.8.5s-.5-.2-.4-.5c0-1,.1-1.8,0-2.5v-.2c0-.3.3-.5.6-.5h0ZM31.5,20.8c.1,0,.2,0,.3.2.6.8,1.2,1.6,1.6,2.6,0,.2,0,.3,0,.4-.1.4-.4.6-.8.6s-.2,0-.3-.1c-.5-.9-1-1.8-1.6-2.7,0-.2,0-.3,0-.4.1-.4.4-.6.8-.6h0Z"/>
              <path class="st10" d="M43.7,8.9c.2,0,.4.1.6.5l1.6,2.4c0,.1,0,.3,0,.5-.1.4-.4.6-.8.6,0,0-.2,0-.3-.1l-1.3-2.2c0-.1-.1-.2-.2-.2s-.2,0-.2.2c-.8.9-1.7,1.8-2.7,2.6,0,0,.2,0,.3,0h3.6c.4,0,.5.2.4.5,0,.4-.3.5-.7.5h-1.3l-.5,2h1.8c.4,0,.5.2.4.5-.1.4-.3.6-.7.6h-1.8l-1.4,5.2c.7-.2,1.2-.3,1.8-.5.1,0,.2,0,.3,0,.3,0,.4.2.4.5,0,.2-.2.4-.5.5-.7.3-1.5.5-2.6.8-.8.2-1.8.4-2.9.5-.3,0-.5-.2-.4-.6,0-.4.3-.6.6-.6.9,0,1.6-.2,2.2-.3l1.5-5.4h-2c-.3,0-.5-.2-.4-.6,0-.4.3-.5.7-.5h2l.5-2h-1.2c-.3,0-.5-.2-.4-.5,0-.1,0-.2.1-.2,0,0-.2.1-.2.2-.3.2-.5.3-.6.3-.4,0-.5-.2-.5-.6,0-.2.2-.4.4-.6,1.5-1.1,2.6-2.1,3.4-3.1.3-.4.7-.6.9-.6h0ZM38.9,17.9c.2,0,.4.1.4.4,0,.5-.1,1.3-.3,2.5,0,.2,0,.4,0,.5,0,.3-.3.5-.7.5s-.5-.2-.4-.5c.2-1,.3-2,.4-2.7v-.2c.1-.3.3-.4.6-.4h0ZM43.3,18.1c.2,0,.3,0,.4.1.1,0,.2.2.1.3s0,.2-.2.4c-.4.9-.8,1.7-1.2,2.4-.2.1-.3.2-.4.2-.4,0-.6-.1-.5-.4,0-.1,0-.2.2-.3.3-.6.7-1.4,1.2-2.4.1-.2.3-.3.5-.3h0ZM51.2,8.9c.4,0,.6.2.5.6l-1.1,4.1h2.3c.8,0,1.1.4.9,1.1l-2.3,8.6c-.3,1-.9,1.5-1.9,1.5s-1.3-.1-2-.4c-.3-.1-.3-.3-.3-.5.1-.5.3-.7.7-.7s.3,0,.4,0c.5.2,1,.3,1.4.3s.5-.2.6-.7l.5-1.9h-5.7l-.9,3.3c-.1.4-.4.6-.8.6s-.6-.2-.5-.6l2.6-9.6c.2-.7.7-1.1,1.5-1.1h2.3l1.1-4.1c.1-.4.4-.6.8-.6h0ZM45.5,19.9h5.7l.6-2.1h-5.7s-.6,2.1-.6,2.1ZM47.1,9.6c0,0,.2,0,.3.2.5.6,1,1.4,1.4,2.2,0,.2,0,.3,0,.4,0,.4-.3.5-.8.5s-.2,0-.3-.1c-.4-.8-.9-1.5-1.5-2.2,0-.2,0-.3,0-.3.1-.4.4-.6.8-.6h0ZM46.3,16.7h5.7l.4-1.6c0-.3,0-.4,0-.4h-5.3c-.2,0-.3.1-.3.4,0,0-.4,1.6-.4,1.6ZM55.1,9.4c.2,0,.3,0,.5.1.1.1.2.2.1.4,0,.1,0,.2-.2.4-.8.9-1.6,1.6-2.5,2.2-.2.2-.4.2-.6.2-.5,0-.7-.2-.6-.5,0-.2.1-.3.2-.4.8-.6,1.6-1.3,2.5-2.2.1-.2.3-.3.6-.3h0Z"/>
              <path class="st10" d="M62.2,12c.4,0,.5.2.4.6-.1.4-.4.6-.8.6h-.8l-.9,3.3c.3-.1.6-.3,1-.5.1,0,.2,0,.2,0,.4,0,.5.2.4.7,0,.1-.2.2-.4.4-.4.3-1,.6-1.6.9l-1.4,5.3c-.3,1-1,1.5-2.1,1.5s-.6,0-.9-.2c-.3-.1-.4-.3-.3-.6.1-.4.3-.6.7-.6,0,0,0,0,.2,0,.4.1.7.2.8.2.3,0,.5-.2.6-.6l1.2-4.4c-.4.2-.8.3-1.2.4-.1,0-.2,0-.3,0-.4,0-.6-.2-.5-.6,0-.4.3-.6.7-.7.6-.2,1.2-.4,1.7-.6l1.1-4h-1.2c-.4,0-.6-.2-.4-.6.1-.4.4-.6.8-.6h1.2l.6-2.4c.1-.4.4-.6.8-.6s.6.2.4.6l-.6,2.4h.8,0ZM63.9,11.3h2.4l.4-1.7c.1-.4.4-.6.8-.6s.6.2.4.6l-2.3,8.7c-.3,1.3-.9,2.4-1.8,3.5-.7,1-1.6,1.8-2.7,2.5-.3.3-.5.4-.7.4-.5,0-.7-.3-.6-.8,0-.1.1-.3.3-.4,1.4-1,2.5-1.9,3.2-2.9.3-.4.6-.9.8-1.3-.3.2-.6.4-1,.5-.8.4-1.5.7-2.2.9-.1,0-.2,0-.3,0-.4,0-.5-.2-.4-.7,0-.3.3-.6.7-.7.6-.2,1.2-.4,1.6-.6.4-.2,1-.5,1.8-.9.2,0,.3,0,.3,0l.4-1.7h-2.2c-.4,0-.6-.2-.5-.6.1-.4.4-.6.8-.6h2.2l.7-2.4h-2.4c-.4,0-.6-.2-.4-.6.1-.4.4-.6.8-.6ZM70.3,9c.4,0,.6.2.5.6l-.4,1.7h2.8c.4,0,.5.2.4.6-.1.4-.4.6-.8.6h-2.8l-.6,2.4h2.6c.4,0,.6.2.5.6-.1.4-.4.6-.8.6h-2.6l-.8,3.1h3.1c.4,0,.6.2.4.6-.1.5-.4.7-.8.7h-3.1l-.9,3.5c-.1.4-.4.6-.8.6s-.6-.2-.4-.6l3.9-14.4c.1-.4.4-.6.8-.6Z"/>
              <path class="st10" d="M80.5,13.4c.2,0,.3,0,.4.1.1.1.2.3.1.4,0,0,0,.2-.2.3-.6.8-1.2,1.5-1.8,2.2l-2.1,7.7c-.1.4-.4.6-.8.6s-.6-.2-.4-.6l1.7-6.4c-.4.3-.7.5-1.1.7-.3.2-.5.3-.6.3-.4,0-.6-.2-.5-.6,0-.1.1-.2.2-.4.9-.5,1.7-1,2.4-1.7.8-.6,1.5-1.4,2.1-2.3.1-.3.3-.4.5-.4h0ZM81.4,9c.2,0,.3,0,.4.1.1.1.1.2,0,.4,0,0,0,.2-.1.3-.6.9-1.3,1.7-2,2.3-.7.6-1.4,1.2-2.2,1.8-.2.2-.4.2-.5.2-.4,0-.6-.2-.5-.5,0-.1.1-.3.2-.4.8-.5,1.5-1.1,2.1-1.6.7-.6,1.3-1.4,1.9-2.2.1-.3.3-.4.5-.4ZM91.6,13.7c.4,0,.6.2.4.6-.1.4-.4.6-.8.6h-2.5l-2.1,7.8c-.4,1.4-1.2,2-2.4,2s-1.8-.2-3.1-.5c-.3-.1-.4-.3-.3-.6.1-.4.4-.7.7-.7.1,0,.3,0,.5,0,1.3.3,2.2.5,2.6.5s.6-.3.8-1l2-7.5h-5.4c-.4,0-.5-.2-.4-.6.1-.4.4-.6.8-.6,0,0,9.2,0,9.2,0ZM91.9,9.6c.4,0,.6.2.4.6s-.4.6-.8.6h-7.5c-.4,0-.6-.2-.4-.6s.4-.6.8-.6h7.6Z"/>
              <path class="st10" d="M100.7,11.9c.4,0,.6.2.4.6-.1.4-.4.6-.8.6h-1.4l-.2.7.9,3c0,.2,0,.4,0,.5-.1.4-.4.6-.8.6s-.3-.1-.3-.3l-.4-2-2.3,8.6c-.1.4-.4.6-.8.6s-.6-.2-.4-.6l2.2-8.1c0,0,0,.1,0,.2-.6,1.1-1,2-1.4,2.6-.5.9-.9,1.5-1.1,1.9-.2.2-.4.4-.6.4-.4,0-.6-.2-.5-.5,0-.1.1-.3.2-.5,1.1-1.7,2-3.1,2.6-4.2.5-.8.9-1.8,1.4-2.9h-1.6c-.4,0-.6-.2-.4-.6.1-.4.4-.6.8-.6h1.9l.6-2.4c.1-.4.4-.6.8-.6s.6.2.4.6l-.6,2.4h1.4ZM105.5,14.9c.4,0,.6.2.5.6l-.3,1.2h4.1c.4,0,.5.2.4.5,0,.4-.3.5-.7.5h-6.5c-.1.5-.2.9-.4,1.3h5.1c.8,0,1.1.4.8,1.3-.3,1-.6,1.8-.9,2.6-.3.7-.8,1.2-1.2,1.4-.5.2-1.2.4-2.1.4s-2-.2-3-.5c-.2-.1-.3-.3-.2-.6.1-.5.4-.8.8-.8,1.1.4,2,.6,2.7.6s1.1,0,1.3-.2c.3-.2.6-.4.8-.8.2-.5.4-1,.6-1.6.1-.5,0-.7-.4-.7h-4.7c-.1.3-.3.6-.4.9-.8,1.2-1.9,2.4-3.3,3.3-.2.2-.4.3-.6.3-.4,0-.6-.2-.5-.7,0,0,0-.2.2-.4,1.3-.9,2.4-1.9,3.1-3,.5-.9.9-1.8,1.2-2.8h-1.3c-.4,0-.5-.2-.4-.5,0-.4.3-.5.7-.5h3.6l.3-1.2c.1-.4.4-.6.8-.6h0ZM107.1,8.8c.4,0,.6.2.5.6l-.2.8h4.5c.4,0,.5.2.4.5-.1.4-.3.6-.7.6h-2l-1.1,1.9h1.3c.4,0,.8.1.9.5.1.2.1.6,0,1.1,0,.3-.2.7-.4,1.1-.2.3-.4.5-.8.5s-.6-.2-.4-.6c.3-.5.4-.8.5-.9,0-.4,0-.5-.3-.5h-6.9c-.3,0-.5.1-.5.4l-.3,1.2c0,.4-.3.5-.8.5s-.5-.2-.4-.5l.5-1.8c.2-.6.6-.9,1.2-.9h1.4v-1.9c0,0-1.7,0-1.7,0-.4,0-.5-.2-.4-.6,0-.4.3-.5.7-.5h4.3l.2-.8c.1-.4.4-.6.8-.6h0ZM104.4,13.2h2.8l1.1-1.9h-3.9s0,1.9,0,1.9Z"/>
            </g>
          </g>
        </g>
      </g>
    </g>
  </g>
</svg>