<?xml version="1.0" encoding="utf-8"?>
<!-- Generator: Adobe Illustrator 26.2.1, SVG Export Plug-In . SVG Version: 6.00 Build 0)  -->
<svg version="1.1" id="Layer_1" xmlns="http://www.w3.org/2000/svg" xmlns:xlink="http://www.w3.org/1999/xlink" x="0px" y="0px"
	 viewBox="0 0 129 38" style="enable-background:new 0 0 129 38;" xml:space="preserve">
<style type="text/css">
	.st0{opacity:0.1;fill:#040403;}
	.st1{fill:#D81A61;}
	.st2{fill:url(#SVGID_1_);}
	.st3{fill:url(#SVGID_00000045604831995204209620000015956270239079035549_);}
	.st4{fill:#FFFFFF;}
</style>
<g>
	<g>
		<path class="st0" d="M112.7,5.8h-2.1H92.8h-2.1c9,0,16.3,7,16.3,15.6c0,8.6-7.3,15.6-16.3,15.6h2.1h17.7h2.1c9,0,16.3-7,16.3-15.6
			C129,12.8,121.6,5.8,112.7,5.8z"/>
		<path class="st0" d="M19.1,37h2.1h62.9h2.1c9,0,16.3-7,16.3-15.6c0-8.6-7.3-15.6-16.3-15.6h-2.1H21.2h-2.1c-9,0-16.3,7-16.3,15.6
			C2.8,29.9,10.2,37,19.1,37z"/>
		<g>
			<g>
				<path class="st1" d="M99.7,18.5c0,8.6-7.3,15.6-16.3,15.6h-65c-9,0-16.3-7-16.3-15.6C2.1,10,9.5,3,18.4,3h65
					C92.4,3,99.7,10,99.7,18.5z"/>
				<path class="st1" d="M109.8,3H90c9,0,16.3,7,16.3,15.6c0,8.6-7.3,15.6-16.3,15.6h19.8c9,0,16.3-7,16.3-15.6
					C126.1,10,118.8,3,109.8,3z"/>
			</g>
			<g>
				<g>
					<linearGradient id="SVGID_1_" gradientUnits="userSpaceOnUse" x1="0" y1="18.5397" x2="97.5689" y2="18.5397">
						<stop  offset="0" style="stop-color:#CF2B6A"/>
						<stop  offset="1" style="stop-color:#FD387D"/>
					</linearGradient>
					<path class="st2" d="M97.6,18.5c0,8.6-7.3,15.6-16.3,15.6h-65c-9,0-16.3-7-16.3-15.6C0,10,7.3,3,16.3,3h65
						C90.2,3,97.6,10,97.6,18.5z"/>
					
						<linearGradient id="SVGID_00000049901532720651249810000005160293869178211488_" gradientUnits="userSpaceOnUse" x1="87.8881" y1="18.5397" x2="124.0131" y2="18.5397">
						<stop  offset="0" style="stop-color:#CF2B6A"/>
						<stop  offset="1" style="stop-color:#FD387D"/>
					</linearGradient>
					<path style="fill:url(#SVGID_00000049901532720651249810000005160293869178211488_);" d="M107.7,3H87.9c9,0,16.3,7,16.3,15.6
						c0,8.6-7.3,15.6-16.3,15.6h19.8c9,0,16.3-7,16.3-15.6C124,10,116.7,3,107.7,3z"/>
				</g>
				<g>
					
						<image style="overflow:visible;" width="335" height="363" xlink:href="12586E9F379BF298.png"  transform="matrix(0.24 0 0 0.24 73.5697 -23.96)">
					</image>
				</g>
				<path class="st4" d="M116.6,17.9c-2.1-2.2-4.3-4.3-6.4-6.5c-0.8-0.8-2.1,0.4-1.3,1.3c1.9,2,3.9,3.9,5.8,5.9
					c-1.9,2-3.9,3.9-5.8,5.9c-0.8,0.8,0.4,2.1,1.3,1.3c2.1-2.2,4.3-4.3,6.4-6.5C116.9,18.8,116.9,18.3,116.6,17.9z"/>
			</g>
		</g>
	</g>
	<g>
		<g>
			
				<image style="overflow:visible;" width="144" height="88" xlink:href="12586E9F379BF299.png"  transform="matrix(1 0 0 1 -22.3703 -25)">
			</image>
		</g>
		<g>
			<path class="st4" d="M19.7,14.2H23c0-0.1,0.1-0.2,0.3-0.4c0.2-0.3,0.4-0.6,0.5-0.9h-6c-0.4,0-0.5-0.2-0.4-0.6
				c0.1-0.4,0.4-0.6,0.7-0.6h6.3c0.2-0.4,0.3-0.7,0.5-1c0.2-0.3,0.4-0.4,0.6-0.4c0.5,0,0.7,0.2,0.5,0.6c0,0.1-0.1,0.2-0.2,0.4
				c-0.1,0.2-0.1,0.3-0.2,0.4h5.9c0.4,0,0.5,0.2,0.4,0.6c-0.1,0.4-0.3,0.6-0.7,0.6H25c-0.2,0.4-0.5,0.9-0.7,1.3h4.2
				c0.7,0,1,0.3,0.8,1L27,23.6h1.7c0.4,0,0.5,0.2,0.4,0.6c-0.1,0.4-0.4,0.6-0.7,0.6H14.3c-0.4,0-0.5-0.2-0.4-0.6
				c0.1-0.4,0.3-0.6,0.7-0.6h1.6l2.2-8.3C18.6,14.6,19,14.2,19.7,14.2z M17.4,23.6h8.4l0.4-1.4h-8.4L17.4,23.6z M18.1,21.2h8.4
				l0.3-1.3h-8.4L18.1,21.2z M18.7,19H27l0.3-1.3H19L18.7,19z M19.3,16.7h8.4l0.3-0.9c0.1-0.3,0-0.4-0.3-0.4h-7.7
				c-0.2,0-0.3,0.1-0.4,0.4L19.3,16.7z"/>
			<path class="st4" d="M38.4,13.2c0.4,0,0.5,0.2,0.4,0.6c-0.1,0.4-0.3,0.6-0.7,0.6h-0.8l-0.7,2.8c0.3-0.2,0.6-0.4,0.9-0.6l0.2,0
				c0.4,0,0.5,0.2,0.4,0.6c0,0.1-0.1,0.3-0.3,0.4c-0.4,0.3-0.9,0.6-1.6,1l-1.4,5.2c-0.3,0.9-0.9,1.4-2,1.4c-0.2,0-0.4-0.1-0.7-0.2
				c-0.3-0.1-0.4-0.3-0.3-0.6c0.1-0.4,0.3-0.6,0.6-0.6c0,0,0.1,0,0.1,0c0.3,0.1,0.5,0.2,0.6,0.2c0.3,0,0.5-0.2,0.6-0.5l1.2-4.3
				c-0.4,0.1-0.7,0.3-1,0.4c-0.1,0-0.2,0.1-0.3,0.1c-0.4,0-0.5-0.2-0.4-0.6c0.1-0.3,0.3-0.6,0.6-0.6c0.6-0.2,1-0.4,1.4-0.6l0.9-3.5
				h-1c-0.4,0-0.5-0.2-0.4-0.6c0.1-0.4,0.3-0.6,0.7-0.6h1L37,11c0.1-0.4,0.3-0.6,0.7-0.6c0.4,0,0.5,0.2,0.4,0.6l-0.6,2.2H38.4z
				 M39.6,18.5H46c0.6,0,0.9,0.3,0.7,0.9l-1.2,4.6c-0.2,0.6-0.6,0.9-1.2,0.9h-6.4c-0.6,0-0.9-0.3-0.7-0.9l1.2-4.6
				C38.6,18.8,39,18.5,39.6,18.5z M48.8,10.6c0.3,0,0.5,0.2,0.3,0.6c-0.1,0.3-0.3,0.4-0.8,0.5c-0.8,0.1-1.9,0.2-3.2,0.3l-0.6,2.2
				h0.7c0.2-0.2,0.3-0.3,0.5-0.5c0.4-0.4,0.7-0.7,1-1.2c0.2-0.2,0.3-0.2,0.6-0.2c0.1,0,0.3,0,0.3,0.1c0.1,0.1,0.1,0.2,0,0.4
				c0,0.1-0.1,0.3-0.2,0.4c-0.2,0.3-0.5,0.5-0.7,0.8c-0.1,0.1-0.1,0.1-0.2,0.2h1.7c0.3,0,0.5,0.2,0.4,0.5c-0.1,0.3-0.3,0.5-0.6,0.5
				h-3.5c0.4,0.4,0.7,0.7,1.2,0.9c0.8,0.5,1.5,0.9,2.2,1.2c0.2,0.1,0.3,0.3,0.2,0.6c0,0.1-0.1,0.3-0.2,0.4c-0.1,0.1-0.3,0.2-0.5,0.2
				c-0.1,0-0.3,0-0.4-0.1c-0.6-0.3-1.1-0.7-1.6-1.1c-0.5-0.3-0.9-0.7-1.3-1.2l-0.5,1.7c-0.1,0.4-0.4,0.6-0.7,0.6
				c-0.4,0-0.5-0.2-0.4-0.6l0.5-1.8c-0.5,0.4-1,0.7-1.5,1c-0.7,0.5-1.8,1-3,1.5c-0.2,0-0.3,0.1-0.3,0.1c-0.3,0-0.4-0.2-0.3-0.6
				c0.1-0.2,0.2-0.4,0.5-0.5c1.3-0.5,2.4-1,3.2-1.5c0.4-0.2,0.9-0.5,1.3-0.8H39c-0.3,0-0.5-0.2-0.4-0.5c0.1-0.3,0.3-0.5,0.6-0.5h2
				c-0.1-0.1-0.1-0.3-0.2-0.3c-0.1-0.1-0.3-0.3-0.4-0.4c-0.1-0.1-0.1-0.3-0.1-0.4c0.1-0.3,0.3-0.5,0.6-0.5c0.1,0,0.2,0,0.4,0.1
				c0.1,0.2,0.3,0.3,0.4,0.5c0.2,0.2,0.4,0.5,0.5,0.8c0,0.1,0.1,0.3,0,0.3h0.9l0.6-2.1c-1.8,0.1-3,0.2-3.7,0.2
				c-0.4,0-0.6-0.2-0.5-0.6c0.1-0.4,0.3-0.5,0.7-0.5c1.4,0,2.7-0.1,4-0.1C46,10.9,47.5,10.8,48.8,10.6z M40.8,23.9l0.5-1.8h-2.5
				l-0.4,1.3c-0.1,0.3,0,0.5,0.2,0.5H40.8z M39.1,21.2h2.5l0.4-1.6h-2.1c-0.2,0-0.4,0.1-0.5,0.4L39.1,21.2z M44,23.9
				c0.2,0,0.4-0.2,0.5-0.5l0.4-1.3h-2.3L42,23.9H44z M43.2,19.6l-0.4,1.6h2.3l0.3-1.2c0.1-0.3,0-0.4-0.3-0.4H43.2z"/>
			<path class="st4" d="M52.3,19.8h3c0.7,0,1,0.3,0.8,1l-0.8,3.1c-0.2,0.7-0.6,1.1-1.4,1.1h-3c-0.7,0-1-0.4-0.8-1.1l0.8-3.1
				C51.1,20.1,51.6,19.8,52.3,19.8z M53.6,23.9c0.3,0,0.5-0.2,0.6-0.5l0.5-2.1c0.1-0.3,0-0.5-0.3-0.5h-1.9c-0.3,0-0.5,0.2-0.6,0.5
				l-0.5,2.1c-0.1,0.3,0,0.5,0.3,0.5H53.6z M56.4,17.6c0.3,0,0.5,0.2,0.4,0.5c-0.1,0.4-0.3,0.6-0.7,0.6h-4c-0.4,0-0.5-0.2-0.4-0.6
				c0.1-0.3,0.3-0.5,0.7-0.5H56.4z M58.1,13c0.4,0,0.5,0.2,0.4,0.6c-0.1,0.4-0.3,0.6-0.7,0.6h-5.1c-0.4,0-0.5-0.2-0.4-0.6
				c0.1-0.4,0.4-0.6,0.7-0.6H58.1z M57,15.3c0.3,0,0.5,0.2,0.4,0.5c-0.1,0.4-0.3,0.6-0.7,0.6h-4c-0.4,0-0.5-0.2-0.4-0.6
				c0.1-0.4,0.3-0.5,0.7-0.5H57z M58,10.8c0.3,0,0.5,0.2,0.4,0.5c-0.1,0.4-0.3,0.6-0.7,0.6H54c-0.4,0-0.5-0.2-0.4-0.6
				c0.1-0.3,0.3-0.5,0.7-0.5H58z M58.5,17h6.4c0.6,0,0.8,0.3,0.7,0.8c-0.1,0.2-0.3,0.6-0.7,1.1c-0.8,1-1.7,1.9-2.6,2.7
				c-0.3,0.3-0.6,0.5-0.9,0.8c0.1,0.1,0.3,0.3,0.4,0.4c0.5,0.4,1.3,0.9,2.2,1.3c0.2,0.1,0.3,0.3,0.2,0.4c-0.1,0.5-0.4,0.7-0.8,0.7
				c-0.1,0-0.3-0.1-0.6-0.2c-0.9-0.4-1.5-0.9-2.1-1.4c-0.2-0.2-0.4-0.3-0.6-0.5c-0.2,0.1-0.3,0.2-0.4,0.3c-1.2,0.7-2.3,1.3-3.3,1.6
				c-0.4,0.2-0.7,0.2-0.8,0.2c-0.5,0-0.6-0.2-0.5-0.7c0.1-0.3,0.3-0.5,0.7-0.6c1-0.3,1.9-0.7,2.5-1c0.4-0.2,0.8-0.4,1.2-0.7
				c-0.2-0.2-0.3-0.5-0.5-0.8c-0.4-0.8-0.6-1.9-0.6-3.4h-0.3c-0.3,0-0.5-0.2-0.4-0.6C58,17.2,58.2,17,58.5,17z M61.6,10.6h3.1
				c0.8,0,1.1,0.4,0.9,1.2l-0.8,3.1c0,0.1,0,0.2,0,0.3c0.1,0,0.2,0,0.5,0c0.1,0,0.3,0,0.4-0.1c0.1-0.1,0.1-0.2,0.2-0.5l0.3-1
				c0.1-0.3,0.3-0.4,0.6-0.4c0.4,0,0.5,0.2,0.4,0.6c-0.2,0.7-0.4,1.3-0.6,1.6c-0.2,0.3-0.4,0.5-0.6,0.7c-0.2,0.2-0.5,0.2-0.8,0.2
				h-0.8c-0.8,0-1.1-0.4-0.9-1.2l0.8-3.2c0-0.1-0.1-0.2-0.4-0.2H62c-0.3,0-0.4,0.1-0.4,0.2l-0.4,1.5c-0.2,0.7-0.4,1.2-0.8,1.7
				C60,15.6,59.5,16,59,16.3c-0.3,0.2-0.5,0.3-0.7,0.3c-0.4,0-0.5-0.2-0.4-0.6c0.1-0.2,0.2-0.3,0.3-0.4c0.6-0.4,1-0.8,1.2-1
				c0.2-0.3,0.4-0.8,0.6-1.3l0.4-1.4C60.6,11,61,10.6,61.6,10.6z M59.7,18.1c0.1,1.1,0.3,2,0.6,2.7c0.1,0.3,0.3,0.5,0.4,0.7
				c0.1-0.1,0.3-0.2,0.4-0.3c0.8-0.7,1.7-1.5,2.5-2.6c0.2-0.3,0.4-0.5,0.4-0.6H59.7z"/>
			<path class="st4" d="M70.6,22.7c-0.6,0.8-1.4,1.5-2.2,2.1c-0.2,0.2-0.4,0.3-0.6,0.3c-0.5,0-0.6-0.2-0.5-0.7c0,0,0.1-0.2,0.2-0.4
				c1.3-0.9,2.3-2,3-3.2c0.5-0.9,0.9-1.9,1.2-3c0.1-0.4,0.3-0.5,0.7-0.5c0.4,0,0.5,0.2,0.4,0.6c-0.3,1.2-0.8,2.3-1.3,3.4
				c-0.1,0.1-0.1,0.3-0.2,0.4c0.2,0.4,0.5,0.7,0.9,0.9c0.5,0.4,1.2,0.6,2.1,0.8l2-7.5h-3.8c-0.4,0-0.5-0.2-0.4-0.6
				c0.1-0.4,0.3-0.6,0.7-0.6h8.6c0.4,0,0.5,0.2,0.4,0.6c-0.1,0.4-0.4,0.6-0.7,0.6h-3.6l-0.8,2.9h4.7c0.4,0,0.5,0.2,0.4,0.6
				C81.6,19.8,81.4,20,81,20h-4.7l-1,3.6c1.2,0.1,3.4,0.2,6.4,0.2c0.3,0,0.5,0.3,0.4,0.6C82,24.8,81.7,25,81.3,25
				c-4.1,0-6.7-0.2-7.9-0.5c-0.9-0.2-1.6-0.6-2.1-1C71,23.4,70.8,23.1,70.6,22.7z M78.4,10.1c0.4,0,0.6,0.2,0.5,0.6l-0.2,0.9h5.3
				c0.5,0,0.8,0.2,0.9,0.5c0.1,0.2,0.1,0.6,0,1.2c-0.1,0.5-0.3,1.1-0.5,1.7c-0.2,0.3-0.5,0.5-0.8,0.5c-0.4,0-0.6-0.2-0.5-0.6
				c0.3-0.8,0.5-1.3,0.5-1.5c0.1-0.4,0-0.6-0.3-0.6H72.4c-0.3,0-0.5,0.2-0.6,0.5l-0.3,1.3c-0.1,0.4-0.4,0.6-0.8,0.6
				c-0.4,0-0.5-0.2-0.4-0.6l0.5-1.8c0.2-0.8,0.7-1.2,1.4-1.2h5.2l0.2-0.9C77.7,10.3,78,10.1,78.4,10.1z"/>
		</g>
	</g>
</g>
</svg>
