<?xml version="1.0" encoding="UTF-8"?>
<svg id="Layer_1" xmlns="http://www.w3.org/2000/svg" xmlns:xlink="http://www.w3.org/1999/xlink" version="1.1" viewBox="0 0 163.1 38">
  <!-- Generator: Adobe Illustrator 29.1.0, SVG Export Plug-In . SVG Version: 2.1.0 Build 142)  -->
  <defs>
    <style>
      .st0, .st1 {
        fill: none;
      }

      .st2 {
        fill: url(#linear-gradient2);
      }

      .st3 {
        fill: url(#linear-gradient1);
      }

      .st4 {
        fill: url(#linear-gradient3);
      }

      .st5 {
        fill: #040403;
        opacity: .1;
      }

      .st5, .st6 {
        isolation: isolate;
      }

      .st1 {
        clip-path: url(#clippath);
      }

      .st7 {
        fill: url(#linear-gradient);
      }

      .st8 {
        mix-blend-mode: multiply;
      }

      .st9 {
        clip-path: url(#clippath-1);
      }

      .st10 {
        fill: #fff;
      }
    </style>
    <linearGradient id="linear-gradient" x1="2.4" y1="17.4" x2="130.4" y2="17.4" gradientUnits="userSpaceOnUse">
      <stop offset="0" stop-color="#f9e0ac"/>
      <stop offset="1" stop-color="#f9b653"/>
    </linearGradient>
    <linearGradient id="linear-gradient1" x1="119.6" x2="160" xlink:href="#linear-gradient"/>
    <linearGradient id="linear-gradient2" x1="0" y1="21.4" x2="128.1" y2="21.4" gradientTransform="translate(0 38.8) scale(1 -1)" gradientUnits="userSpaceOnUse">
      <stop offset="0" stop-color="#f9b653"/>
      <stop offset="1" stop-color="#f9e0ac"/>
    </linearGradient>
    <linearGradient id="linear-gradient3" x1="117.2" x2="157.6" xlink:href="#linear-gradient2"/>
    <clipPath id="clippath">
      <polygon class="st0" points="-16.6 -26.3 -16.4 -26.3 -16.6 -26 -16.6 -26.3"/>
    </clipPath>
    <clipPath id="clippath-1">
      <polygon class="st1" points="-17.1 -26.7 -17.3 -26.7 -17.1 -27 -17.1 -26.7"/>
    </clipPath>
  </defs>
  <g class="st6">
    <g id="b">
      <g id="c">
        <g>
          <g>
            <path class="st5" d="M144.9,3.2h-24.5c10,0,18.2,7.8,18.2,17.4s-8.2,17.4-18.2,17.4h24.5c10,0,18.2-7.8,18.2-17.4s-8.2-17.4-18.2-17.4Z"/>
            <path class="st5" d="M21.4,38h94c10,0,18.2-7.8,18.2-17.4S125.4,3.2,115.4,3.2H21.4C11.4,3.2,3.2,11,3.2,20.6s8.2,17.4,18.2,17.4h0Z"/>
            <g>
              <g>
                <path class="st7" d="M130.4,17.4c0,9.6-8.2,17.4-18.2,17.4H20.6c-10,0-18.2-7.8-18.2-17.4S10.6,0,20.6,0h91.6C122.2,0,130.4,7.8,130.4,17.4Z"/>
                <path class="st3" d="M141.8,0h-22.2C129.6,0,137.8,7.8,137.8,17.4s-8.2,17.4-18.2,17.4h22.2c10,0,18.2-7.8,18.2-17.4S151.8,0,141.8,0Z"/>
              </g>
              <g>
                <g>
                  <path class="st2" d="M128.1,17.4c0,9.6-8.2,17.4-18.2,17.4H18.2c-10,0-18.2-7.8-18.2-17.4S8.2,0,18.2,0h91.6C119.8,0,128,7.8,128,17.4h0Z"/>
                  <path class="st4" d="M139.4,0h-22.2C127.2,0,135.4,7.8,135.4,17.4s-8.2,17.4-18.2,17.4h22.2c10,0,18.2-7.8,18.2-17.4S149.4,0,139.4,0Z"/>
                </g>
                <path class="st10" d="M148.7,16.7c-2.4-2.4-4.8-4.8-7.2-7.3-.9-.9-2.3.5-1.4,1.4,2.2,2.2,4.3,4.4,6.5,6.6-2.2,2.2-4.3,4.4-6.5,6.6-.9.9.5,2.3,1.4,1.4,2.4-2.4,4.8-4.8,7.2-7.3.4-.4.4-1,0-1.4Z"/>
              </g>
            </g>
          </g>
          <g>
            <g class="st8">
              <g class="st9">
                <image class="st6" width="686" height="369" transform="translate(-99.2 -70.8) scale(.2)" xlink:href="p-title-4-1.png"/>
              </g>
            </g>
            <g>
              <path class="st10" d="M24.8,12.4h9.2c.7,0,.9.3.8.9,0,.4-.5,1.4-1.2,3.2,0,0,0,.1,0,.2h1.2c.4,0,.6.2.5.6-.1.4-.4.6-.8.6h-1.4c-.5,1.3-1,2.5-1.5,3.6h1.4c.5,0,.6.2.5.6-.1.4-.4.6-.8.6h-1.6c-.5,1-.9,1.6-1.2,1.9-.4.3-.8.5-1.4.5-1,0-1.9,0-2.6-.2-.4-.1-.5-.3-.5-.7.1-.5.4-.7.9-.7,1.1.2,1.9.2,2.4.2s.6-.2.9-.8c0,0,0-.2.1-.2h-10.2c-.6,0-.9-.2-.8-.8,0-.2.2-.5.4-.7.9-1.4,1.6-2.5,2.1-3.3h-1.8c-.4,0-.6-.2-.5-.6.1-.4.4-.6.8-.6h2.1c.5-.9,1-2,1.5-3.3.3-.7.8-1,1.5-1h0ZM25.3,8.7c.2,0,.3,0,.4.1.1.1.1.3.1.4,0,.1,0,.2-.2.4,0,0-.1.2-.2.2h10.9c.4,0,.5.2.4.5-.1.4-.3.6-.7.6h-11.5c-.3.3-.5.5-.8.8-.7.6-1.4,1.2-2.2,1.6-.3.2-.5.3-.6.3-.5,0-.6-.2-.5-.6,0-.1.1-.2.2-.4.8-.5,1.5-1,2.2-1.6.7-.6,1.4-1.3,1.9-2.2.1-.3.3-.4.6-.4h0ZM30.2,21.5c.4-.9.9-1.9,1.4-3.1,0-.2.1-.4.2-.5h-9.4c-.6,1.1-1.3,2.3-2,3.4,0,.1,0,.2.2.2h9.6,0ZM23,16.7h9.2c.4-1,.7-2,1-2.9,0-.2,0-.4-.3-.4h-7.9c-.4,0-.6.2-.7.5-.4.9-.9,1.8-1.3,2.7h0ZM25,18.5c0,0,.2,0,.4.1.6.3,1.3.7,2,1.3.3.1.4.3.3.5-.1.5-.4.8-.8.8s-.1,0-.2,0c-.7-.6-1.4-1-2.1-1.4-.2,0-.3-.2-.3-.5.1-.4.4-.6.8-.6h0ZM27.4,14c0,0,.1,0,.3,0,.5.2,1,.5,1.5.9.3.1.4.3.3.5-.1.4-.4.7-.8.7s0,0-.2,0c-.5-.4-1-.7-1.6-1-.3,0-.4-.2-.3-.5.1-.4.4-.5.8-.5h0Z"/>
              <path class="st10" d="M43.5,9.6h9c.9,0,1.2.4,1,1.3l-3.2,12.1c-.2.9-.8,1.3-1.7,1.3h-9c-.9,0-1.2-.4-1-1.3l3.2-12.1c.2-.9.8-1.3,1.7-1.3h0ZM48.4,23.1c.3,0,.6-.2.7-.5l1.4-5.2h-9.1l-1.4,5.2c0,.4,0,.5.3.5h8.1ZM41.8,16h9.1l1.3-4.7c0-.4,0-.5-.4-.5h-8.1c-.3,0-.5.2-.6.5l-1.3,4.7h0Z"/>
              <path class="st10" d="M64.7,11.7c.2,0,.3,0,.5.1.1,0,.2.2.1.3,0,.1,0,.2-.2.4-.6.8-1.1,1.5-1.7,2.1h1.6c.3,0,.5.2.4.5-.1.4-.3.6-.7.6h-2.8l-.4,1.7h2.2c.4,0,.5.2.4.5-.1.4-.3.6-.7.6h-2.3c0,.1,1.5,3,1.5,3,0,.2,0,.3,0,.5-.1.4-.4.6-.8.6s-.3-.1-.4-.3l-.7-1.9-1,3.9c0,.4-.3.5-.8.5s-.5-.2-.4-.5l1-3.8c-.3.4-.7.8-1,1.1-.6.6-1.3,1.2-2,1.7-.5.4-.8.5-.9.5-.5,0-.6-.2-.5-.5,0-.3.2-.5.5-.7,1.3-1,2.3-1.9,3-2.7.4-.5.8-1,1.2-1.4h-2.2c-.4,0-.5-.2-.4-.6,0-.4.3-.5.7-.5h2.3l.4-1.6h-3c-.4,0-.5-.2-.4-.6,0-.4.3-.5.7-.5h4.1c0-.1,0-.2.1-.2.6-.6,1.2-1.5,1.9-2.5.1-.2.3-.2.5-.2h0ZM63.1,8.8c.5,0,.6.2.5.6l-.2.8h2.7c.3,0,.5.2.4.5-.1.4-.3.6-.7.6h-6.7c-.3,0-.5-.2-.4-.6,0-.4.3-.5.7-.5h2.7l.2-.8c.1-.4.4-.6.8-.6h0ZM60.2,11.7c0,0,.2,0,.3.2.2.4.4.9.6,1.4,0,.1,0,.3,0,.4,0,.4-.3.5-.8.5s-.2,0-.3-.1c-.2-.5-.3-1.1-.5-1.6,0-.2,0-.3,0-.3,0-.4.3-.5.8-.5ZM73.6,9.1c.4,0,.6.2.5.6,0,.3-.3.5-.7.6-.8.3-2.3.5-4.3.5s-.5.2-.6.5l-.7,2.5h4.9c.4,0,.5.2.4.5-.1.4-.3.6-.7.6h-1.4l-2.5,9.3c-.1.4-.4.6-.8.6s-.6-.2-.4-.6l2.5-9.2h-2.2l-.3,1c-.6,2.1-1.2,3.8-2.1,5.3-.7,1.3-1.4,2.2-2,2.8-.2.2-.4.3-.7.3-.4,0-.6-.2-.5-.6,0,0,.1-.2.3-.4.7-.8,1.4-1.6,1.9-2.7.8-1.3,1.4-2.8,1.8-4.6l1.4-5.3c.2-.6.6-.9,1.2-.9,2.1,0,3.7-.2,4.8-.6h0Z"/>
              <path class="st10" d="M80.4,9.2h4.2c.3,0,.5.1.6.3.2-.2.4-.3.6-.3s.2,0,.3.1c.3.6.7,1.1,1.1,1.6,1-.6,1.8-1.2,2.4-1.8.2-.2.3-.3.5-.3.4,0,.6.2.5.6,0,.2-.2.4-.4.5-.7.5-1.4,1.1-2.3,1.6.3.2.6.5.9.7.9-.6,1.7-1.1,2.3-1.7.2-.2.4-.3.5-.3.4,0,.6.2.5.6,0,.2-.2.4-.4.5-.6.5-1.2.9-2,1.3.1,0,.2.1.3.2.5.2,1.2.5,2.1.8.3,0,.5.3.4.6-.1.5-.4.8-.9.8-.8-.2-1.5-.5-2-.8-.2,0-.3-.2-.5-.2h0c0,.1-.5,1.9-.5,1.9,0,.1,0,.2,0,.3,0,0,.2,0,.5,0s.5,0,.6,0c.1,0,.2,0,.2-.2l.2-.5c0-.3.3-.4.6-.4.4,0,.5.2.4.6-.1.5-.3.8-.5,1-.2.2-.4.3-.6.4-.3.1-.6.1-1,.1h-.8c-.8,0-1.1-.4-.9-1.2l.4-1.6c0,0-.1-.1-.4-.1h-1.3c-.2,0-.4,0-.4.1l-.2.8c-.1.5-.4,1-.7,1.3-.4.4-.9.7-1.4,1-.3.1-.6.2-.8.2-.4,0-.5-.2-.5-.5,0-.2.2-.4.3-.5.7-.3,1.1-.6,1.3-.8.3-.2.5-.5.6-.9l.3-1c.2-.6.5-.9,1.1-.9h2.1c-.3-.2-.5-.4-.7-.6-.8-.8-1.4-1.6-1.9-2.4,0,0,0-.2-.1-.2-.1.3-.4.6-.8.9-.7.7-1.8,1.4-3.1,2.2-.2.1-.5.3-.8.4h1.7c.7,0,.9.3.8.9l-.5,1.8c-.2.6-.6,1-1.3,1h-2.8c-.3,0-.5.5-.8,1.6,0,.1,0,.2.2.2h3.1c.5,0,.7.4.5,1.1-.1.5-.3,1-.7,1.8-.4,1-.8,1.6-1.1,2-.4.5-1,.7-1.8.7s-1.7-.1-3.2-.4c-.3,0-.4-.3-.3-.6.1-.4.4-.6.8-.6,1.2.2,2.2.3,3,.3s.8-.3,1-.9c.4-.8.6-1.5.8-2,0-.3,0-.4-.2-.4h-2.9c-.6,0-.8-.3-.6-1,.2-.6.4-1.3.7-1.9.3-.7.7-1,1.1-1h2.9c.3,0,.5-.2.6-.5v-.5c.2-.3.1-.5-.2-.5h-2.7c0,0-.2,0-.2,0-.4.2-.8.4-1.2.5-.3.1-.5.2-.7.2-.4,0-.6-.2-.5-.6,0-.3.2-.5.5-.6,1.4-.5,2.5-.9,3.2-1.3-.4-.3-.7-.6-1-.8-.2-.2-.5-.3-.8-.5,0-.2,0-.3,0-.5,0-.4.3-.5.7-.5s.2,0,.3.1c.3.2.6.4.9.6.4.3.7.6,1,.9,0,0,0,0,0,.1.7-.4,1.2-.7,1.8-1.1.7-.4,1-.7,1.1-.9,0,0,0-.1-.2-.1h-3.3c-.4,0-.5-.2-.4-.6,0-.4.3-.5.7-.5h0ZM82.9,18.3h6c.4,0,.6.2.5.8-.1.4-.4.9-.9,1.5-.4.5-1.2,1.1-2.1,1.8.1.1.3.2.4.3.5.3,1.3.6,2.3.9.2.1.3.3.2.5-.1.5-.4.8-.9.8s-.3,0-.6-.1c-.9-.3-1.6-.7-2.2-1-.2-.1-.4-.3-.7-.4-.9.5-1.8.9-2.7,1.2-.7.3-1.2.4-1.4.4-.4,0-.6-.2-.5-.7,0-.3.3-.5.7-.5,1.2-.3,2.2-.7,3.1-1.1-.1-.1-.2-.3-.3-.4-.4-.6-.7-1.4-.8-2.5h-.4c-.4,0-.5-.2-.4-.6,0-.4.3-.5.7-.5h0ZM84.3,19.4c.2.7.4,1.3.8,1.8,0,.1.2.2.3.3.8-.5,1.5-1,2.1-1.6.2-.2.4-.4.4-.5,0,0,0,0-.1,0h-3.4Z"/>
              <path class="st10" d="M101.2,9.5c.4,0,.6.2.4.6-.1.4-.4.6-.8.6h-1.5l-1.2,4.3h1.4c.4,0,.5.2.4.6-.1.4-.4.6-.8.6h-1.4l-1.3,4.7c.6-.3,1.3-.6,2.1-1h.3c.4,0,.5.2.4.6,0,.1-.2.3-.4.5-.6.4-1.4.8-2.4,1.2-1.2.5-2.3.9-3.3,1.2-.2,0-.3,0-.4,0-.4,0-.5-.2-.4-.7,0-.3.3-.6.6-.7.8-.2,1.6-.5,2.2-.7l1.4-5.3h-1.4c-.4,0-.6-.2-.4-.6.1-.4.4-.6.8-.6h1.4l1.2-4.3h-1.6c-.4,0-.6-.2-.5-.6.1-.4.4-.6.8-.6h4.3,0ZM105,18.7h-1.8c0,.3-.3.8-.5,1.3-.3.6-.6,1.2-1,1.8-.5.7-1.1,1.2-1.7,1.6-.7.5-1.4.9-2.2,1.2-.1,0-.2,0-.3,0-.5,0-.7-.2-.6-.7,0-.2.2-.4.5-.5.8-.3,1.4-.7,2-1.1.5-.4.9-.8,1.3-1.3.4-.6.8-1.4,1.1-2.3h-.9c-.7,0-1-.4-.8-1.1l1.9-7.3c.2-.7.6-1,1.4-1h6.5c.7,0,1,.3.8,1l-1.9,7.3c-.2.7-.7,1.1-1.4,1.1h-1.4l-1,3.7c0,.3,0,.5,0,.6.1.1.5.2,1,.2s.7,0,.8-.2.2-.3.3-.5l.3-1.1c.1-.4.4-.7.8-.7.4,0,.5.3.4.8-.3,1.2-.6,1.9-.7,2-.1.2-.3.5-.7.6-.3.1-.8.2-1.5.2-1.1,0-1.7-.1-2-.4-.2-.3-.3-.7,0-1.4l1.1-3.9h0ZM107.3,17.6c.3,0,.5-.2.6-.6l.3-1.1h-6.3l-.3,1.1c0,.4,0,.6.3.6h5.3ZM102.2,14.8h6.3l.4-1.6h-6.3l-.4,1.6ZM102.9,12.1h6.3l.3-1.1c0-.3,0-.5-.3-.5h-5.3c-.3,0-.5.2-.6.5l-.3,1.1h0Z"/>
            </g>
          </g>
        </g>
      </g>
    </g>
  </g>
</svg>