<?xml version="1.0" encoding="UTF-8"?>
<svg id="Layer_1" xmlns="http://www.w3.org/2000/svg" xmlns:xlink="http://www.w3.org/1999/xlink" version="1.1" viewBox="0 0 143.1 38">
  <!-- Generator: Adobe Illustrator 29.1.0, SVG Export Plug-In . SVG Version: 2.1.0 Build 142)  -->
  <defs>
    <style>
      .st0, .st1 {
        fill: none;
      }

      .st2 {
        fill: url(#linear-gradient2);
      }

      .st3 {
        fill: url(#linear-gradient1);
      }

      .st4 {
        fill: url(#linear-gradient3);
      }

      .st5 {
        fill: #040403;
        opacity: .1;
      }

      .st5, .st6 {
        isolation: isolate;
      }

      .st1 {
        clip-path: url(#clippath);
      }

      .st7 {
        fill: url(#linear-gradient);
      }

      .st8 {
        mix-blend-mode: multiply;
      }

      .st9 {
        clip-path: url(#clippath-1);
      }

      .st10 {
        fill: #fff;
      }
    </style>
    <linearGradient id="linear-gradient" x1="2.4" y1="17.4" x2="110.4" y2="17.4" gradientUnits="userSpaceOnUse">
      <stop offset="0" stop-color="#f9e0ac"/>
      <stop offset="1" stop-color="#f9b653"/>
    </linearGradient>
    <linearGradient id="linear-gradient1" x1="99.6" x2="140" xlink:href="#linear-gradient"/>
    <linearGradient id="linear-gradient2" x1="0" y1="21.4" x2="108.1" y2="21.4" gradientTransform="translate(0 38.8) scale(1 -1)" gradientUnits="userSpaceOnUse">
      <stop offset="0" stop-color="#f9b653"/>
      <stop offset="1" stop-color="#f9e0ac"/>
    </linearGradient>
    <linearGradient id="linear-gradient3" x1="97.2" x2="137.6" xlink:href="#linear-gradient2"/>
    <clipPath id="clippath">
      <polygon class="st0" points="-17.6 -26.2 -17.3 -26.2 -17.6 -25.9 -17.6 -26.2"/>
    </clipPath>
    <clipPath id="clippath-1">
      <polygon class="st1" points="-18.1 -26.6 -18.3 -26.6 -18.1 -26.9 -18.1 -26.6"/>
    </clipPath>
  </defs>
  <g class="st6">
    <g id="b">
      <g id="c">
        <g>
          <g>
            <path class="st5" d="M124.9,3.2h-24.5c10,0,18.2,7.8,18.2,17.4s-8.2,17.4-18.2,17.4h24.5c10,0,18.2-7.8,18.2-17.4s-8.2-17.4-18.2-17.4Z"/>
            <path class="st5" d="M21.4,38h74c10,0,18.2-7.8,18.2-17.4S105.4,3.2,95.4,3.2H21.4C11.4,3.2,3.2,11,3.2,20.6s8.2,17.4,18.2,17.4h0Z"/>
            <g>
              <g>
                <path class="st7" d="M110.4,17.4c0,9.6-8.2,17.4-18.2,17.4H20.6c-10,0-18.2-7.8-18.2-17.4S10.6,0,20.6,0h71.6C102.2,0,110.4,7.8,110.4,17.4Z"/>
                <path class="st3" d="M121.8,0h-22.2C109.6,0,117.8,7.8,117.8,17.4s-8.2,17.4-18.2,17.4h22.2c10,0,18.2-7.8,18.2-17.4S131.8,0,121.8,0Z"/>
              </g>
              <g>
                <g>
                  <path class="st2" d="M108.1,17.4c0,9.6-8.2,17.4-18.2,17.4H18.2c-10,0-18.2-7.8-18.2-17.4S8.2,0,18.2,0h71.6C99.8,0,108,7.8,108.1,17.4Z"/>
                  <path class="st4" d="M119.4,0h-22.2C107.2,0,115.4,7.8,115.4,17.4s-8.2,17.4-18.2,17.4h22.2c10,0,18.2-7.8,18.2-17.4S129.4,0,119.4,0Z"/>
                </g>
                <path class="st10" d="M128.7,16.7c-2.4-2.4-4.8-4.8-7.2-7.3-.9-.9-2.3.5-1.4,1.4,2.2,2.2,4.3,4.4,6.5,6.6-2.2,2.2-4.3,4.4-6.5,6.6-.9.9.5,2.3,1.4,1.4,2.4-2.4,4.8-4.8,7.2-7.3.4-.4.4-1,0-1.4Z"/>
              </g>
            </g>
          </g>
          <g>
            <g class="st8">
              <g class="st9">
                <image class="st6" width="616" height="368" transform="translate(-91.7 -70.6) scale(.2)" xlink:href="p-title-1-1.png"/>
              </g>
            </g>
            <g>
              <path class="st10" d="M23.5,9.3h2.2c.6,0,.8.3.7.8,0,.1-.1.4-.3.6l-1.9,3.2c0,.1-.1.3-.2.5,0,.2,0,.4,0,.6.2.9.4,1.5.4,2,0,.5,0,1-.2,1.6-.2.7-.5,1.3-1,1.8-.6.6-1.3.9-2.1.9s-.8-.1-1.2-.3l-.9,3.4c-.1.4-.4.6-.8.6s-.5-.2-.4-.6l3.8-14.1c.2-.6.6-1,1.3-1,0,0,.8,0,.8,0ZM20.1,19.6c.5.2.9.4,1.1.4.4,0,.8-.1,1.1-.4.3-.3.5-.7.7-1,0-.3.1-.7.1-1.1,0-.5-.1-1.2-.4-2.2,0-.2,0-.4,0-.6,0-.2.1-.4.2-.6l1.9-3.4c0-.1,0-.2-.2-.2h-1.7c-.2,0-.4.1-.5.4l-2.4,8.8h0ZM26.5,16.9l-1.6,5.8c1-.3,1.9-.6,2.6-1,.1,0,.3,0,.4,0,.3,0,.5.2.4.5,0,.3-.3.5-.6.6-.7.4-1.7.8-2.8,1.1-.9.3-1.9.5-3.1.8-.4,0-.5-.2-.4-.7.1-.4.4-.6.7-.7.5,0,1-.2,1.4-.3,0,0,0-.1,0-.1l3.4-12.5c.2-.7.6-1,1.4-1h6.4c.6,0,.9.3.7.9l-1.5,5.6c-.2.6-.6,1-1.2,1h-3.4c.1.9.3,1.7.5,2.4,0,.1.1.3.2.4,1.2-.7,2.2-1.4,2.9-2,.2-.2.4-.3.6-.3.4,0,.6.2.5.6,0,.2-.2.4-.4.5-.9.7-1.9,1.4-3.1,2,.1.2.3.5.5.8.5.7,1.2,1.3,2.1,2,.2.2.3.4.2.5-.2.5-.5.8-1,.8-.2,0-.4-.1-.7-.3-1-.8-1.8-1.7-2.4-2.7-.4-.7-.7-1.4-.9-2.2-.2-.8-.3-1.7-.3-2.7h-1.7,0ZM27.4,13.7l-.5,2h5.7c.2,0,.3-.1.3-.3l.5-1.7h-6,0ZM33.6,10.6h-5.1c-.2,0-.3.1-.4.3l-.5,1.7h6l.5-1.7c0-.2,0-.3-.2-.3h-.3Z"/>
              <path class="st10" d="M41.4,9.7h2.3c.8,0,1.1.4.9,1.1l-3.2,11.9c-.2.8-.7,1.1-1.5,1.1h-2.3c-.8,0-1-.4-.8-1.1l3.2-11.9c.2-.7.7-1.1,1.4-1.1ZM39.8,22.8c.2,0,.4-.1.4-.4l1.5-5.4h-2.2l-1.5,5.4c0,.3,0,.4.2.4,0,0,1.5,0,1.5,0ZM39.8,15.8h2.2l1.2-4.6c0-.2,0-.3-.2-.3h-1.5c-.2,0-.4.1-.4.3l-1.2,4.6ZM53.4,16.9c.4,0,.5.2.4.5-.1.4-.3.6-.7.6h-1.6l-1.3,5c-.3,1.1-1.1,1.7-2.4,1.7s-2-.2-3.4-.5c-.3-.1-.4-.3-.3-.6.1-.4.4-.7.7-.7.1,0,.3,0,.5,0,1.4.3,2.3.4,2.8.4s.7-.2.8-.8l1.3-4.7h-6c-.4,0-.5-.2-.4-.6,0-.4.3-.5.7-.5h6l.3-1.2c.1-.4.4-.6.8-.6s.6.2.5.6l-.3,1.2h1.6ZM44.9,18.8c.1,0,.2,0,.3.2.5.5,1,1.2,1.4,1.9,0,.2,0,.3,0,.4-.1.4-.4.6-.8.6s-.2,0-.3-.1c-.4-.7-.8-1.4-1.3-2,0-.2,0-.3,0-.4.1-.4.4-.6.8-.6h0ZM54.5,10.9c.3,0,.5.2.4.5-.1.4-.3.6-.7.6h-3.8l-.5,1.9h4.4c.4,0,.5.2.4.5-.1.4-.3.6-.7.6h-9.5c-.3,0-.5-.2-.4-.6,0-.4.3-.5.7-.5h3.8l.5-1.9h-3.3c-.4,0-.5-.2-.4-.6,0-.4.3-.5.7-.5h3.3l.4-1.4c.1-.4.4-.6.8-.6s.6.2.5.6l-.4,1.4h3.8,0Z"/>
              <path class="st10" d="M62.2,12.4c.4,0,.6.2.5.6-.1.4-.4.6-.8.6h-1l-.8,3c.3-.2.6-.4,1-.6.1,0,.2,0,.2,0,.4,0,.5.2.4.7,0,.1-.2.3-.4.4-.4.3-1,.6-1.6,1l-1.4,5.2c-.3,1-1,1.5-2.2,1.5s-.5,0-.8-.2c-.3-.1-.4-.3-.3-.6.1-.4.3-.6.7-.6,0,0,0,0,.1,0,.3.1.6.2.7.2.4,0,.7-.2.8-.6l1.1-4.3c-.4.2-.8.4-1.2.5-.1,0-.2,0-.3,0-.4,0-.6-.2-.5-.6,0-.3.3-.6.7-.7.6-.2,1.2-.4,1.7-.6l1-3.8h-1.2c-.4,0-.6-.2-.5-.6.1-.4.4-.6.8-.6h1.2l.7-2.7c.1-.4.4-.6.8-.6s.6.2.4.6l-.7,2.7h1,0ZM63.3,19.2c-.2.6-.5,1.2-.7,1.8-.3.7-.7,1.4-1.2,2.1-.4.5-.7.9-1,1.3-.2.3-.4.4-.7.4-.4,0-.5-.2-.5-.6,0,0,0-.1.2-.3.4-.4.7-.8,1-1.2.4-.6.8-1.2,1.1-1.9.4-.8.7-1.7.9-2.6l.8-3.1c.2-.6.6-.9,1.2-.9h6.8c.6,0,.9.3.7.8l-.9,3.4c-.2.6-.6.9-1.2.9h-6.6ZM64.5,20.3h5.2c.8,0,1.1.3.9,1l-.6,2c-.2.7-.7,1.1-1.5,1.1h-5.2c-.7,0-1-.4-.8-1.1l.5-2c.2-.7.6-1,1.4-1ZM69.3,8.8c.3,0,.5.2.8.7.3.6.8,1.1,1.3,1.6.5.4,1.2.9,2.1,1.3.2.1.2.2.2.4-.1.4-.4.7-.8.7,0,0-.2,0-.3,0-.6-.3-1.1-.6-1.4-.8,0,0,0,.1,0,.1,0,.4-.3.6-.6.6h-4.8c-.3,0-.4-.2-.3-.6,0,0,0-.1,0-.2-.6.3-1.2.6-1.9.9,0,0-.2,0-.3,0-.3,0-.5-.2-.4-.6,0-.2.2-.4.5-.5,1.1-.4,2-.8,2.8-1.3.8-.5,1.6-1.1,2.4-1.9.3-.3.5-.4.8-.4h0ZM63.8,17.1l-.3,1h0c0,0,6,0,6,0,.2,0,.4-.1.5-.4l.2-.6h-6.4ZM68.5,23.4c.3,0,.4-.2.5-.5l.3-1.2c0-.3,0-.4-.3-.4h-4.4c-.2,0-.4.1-.4.4l-.3,1.2c0,.3,0,.5.2.5,0,0,4.4,0,4.4,0ZM69.5,15.1h-4.8c-.2,0-.4.2-.4.5l-.2.6h6.4l.2-.8c0-.2,0-.4-.3-.4h-.9,0ZM66.1,12.1h4.7s0,0,0,0c-.5-.5-1-1-1.5-1.7,0-.1-.2-.2-.3-.2s-.2,0-.2.1c-.9.8-1.7,1.4-2.6,1.9h0Z"/>
              <path class="st10" d="M78.9,9.5h2.5c.7,0,.9.3.8.8l-2.4,9c-.1.5-.4.8-.9.9,0,0,0,.1,0,.2-.2,1.2-.3,2.3-.2,3.4,0,.1,0,.3,0,.4,0,.2,0,.3-.2.3-.1.1-.3.2-.5.2s-.3-.1-.4-.3c0-.8,0-1.7,0-2.6,0-.6.2-1.1.2-1.3,0-.1,0-.3.2-.3h-1.2c0,0,0,.1,0,.2,0,0,0,.2-.1.3-.7,1.4-1.4,2.6-2.2,3.7-.2.1-.3.2-.4.2-.4,0-.6-.2-.5-.5,0-.1,0-.2.1-.3.6-.9,1.3-2.1,2.1-3.6h0c-.5-.1-.7-.4-.5-1l2.4-9c.2-.5.5-.8,1.1-.8ZM78.2,19.2c.3,0,.4-.1.5-.5l.5-1.9h-2l-.5,1.9c0,.3,0,.5.2.5h1.3ZM77.4,15.8h2l.6-2.2h-2l-.6,2.2ZM78.3,12.6h2l.4-1.7c0-.3,0-.4-.3-.4h-1.3c-.2,0-.4.1-.5.4l-.4,1.7ZM92.8,10.1c.3,0,.4.1.4.5,0,.4-.3.6-.6.6h-2.2l-.2.9h1.9c.3,0,.4.2.3.5,0,.3-.3.5-.6.5h-1.9l-.3,1.1h2.5c.3,0,.4.2.3.5,0,.4-.3.5-.6.5h-4.5l-.3,1.1h2.8c.8,0,1.1.4.9,1.1l-1,3.6h.5c.4,0,.5.2.4.5,0,.4-.3.6-.7.6h-.5l-.3,1.1c-.3,1.1-1.1,1.6-2.4,1.6s-1.1-.1-1.7-.3c-.3-.1-.3-.3-.3-.5.1-.5.3-.7.7-.7s.2,0,.4,0c.5.1.9.2,1.2.2.6,0,.9-.2,1.1-.7l.2-.8h-6.7l-.6,2.2c0,.4-.3.5-.8.5s-.5-.2-.4-.5l.6-2.2h-.6c-.4,0-.5-.2-.4-.6,0-.4.3-.5.7-.5h.6l1-3.6c.2-.7.7-1.1,1.4-1.1h2.7l.3-1.1h-4.3c-.3,0-.4-.2-.3-.5,0-.3.3-.5.6-.5h2.2l.3-1.1h-1.7c-.3,0-.4-.2-.3-.5,0-.3.3-.5.6-.5h1.7l.2-.9h-2.1c-.3,0-.4-.2-.3-.6,0-.3.3-.5.6-.5h2.1l.2-.7c0-.4.3-.5.7-.5s.6.2.5.5l-.2.7h2.8l.2-.6c.1-.4.4-.6.8-.6s.6.2.4.6l-.2.6h2.2ZM81.8,21h2.7l.4-1.4h-2.7l-.4,1.4ZM82.4,18.6h2.7l.3-1.3h-2.5c-.1,0-.2.1-.3.4l-.2.9h0ZM88.2,14.1l.3-1.1h-2.8l-.3,1.1h2.8ZM86,19.6l-.4,1.4h2.8l.4-1.4h-2.8ZM88.8,12l.2-.9h-2.8l-.2.9h2.8ZM86.6,17.3l-.3,1.3h2.8l.2-.9c0-.3,0-.4-.2-.4h-2.6,0Z"/>
            </g>
          </g>
        </g>
      </g>
    </g>
  </g>
</svg>