<?xml version="1.0" encoding="UTF-8"?><svg xmlns="http://www.w3.org/2000/svg" viewBox="0 0 35 35"><defs><style>.d{fill:#fff;}.e{opacity:.5;}</style></defs><g id="a"/><g id="b"><g id="c"><g class="e"><path class="d" d="M12.02,23.15V11.85c0-2.57,2.93-4.04,4.99-2.49l7.53,5.65c1.66,1.25,1.66,3.74,0,4.99l-7.53,5.65c-2.06,1.54-4.99,.07-4.99-2.49Z"/><path class="d" d="M17.5,35C7.85,35,0,27.15,0,17.5S7.85,0,17.5,0s17.5,7.85,17.5,17.5-7.85,17.5-17.5,17.5Zm0-31.9c-7.94,0-14.4,6.46-14.4,14.4s6.46,14.4,14.4,14.4,14.4-6.46,14.4-14.4S25.44,3.1,17.5,3.1Z"/></g></g></g></svg>