<?xml version="1.0" encoding="UTF-8"?>
<svg id="Layer_1" xmlns="http://www.w3.org/2000/svg" xmlns:xlink="http://www.w3.org/1999/xlink" version="1.1" viewBox="0 0 143.1 38">
  <!-- Generator: Adobe Illustrator 29.1.0, SVG Export Plug-In . SVG Version: 2.1.0 Build 142)  -->
  <defs>
    <style>
      .st0 {
        fill: url(#linear-gradient2);
      }

      .st1 {
        fill: url(#linear-gradient1);
      }

      .st2 {
        fill: url(#linear-gradient3);
      }

      .st3 {
        fill: #040403;
        opacity: .1;
      }

      .st3, .st4 {
        isolation: isolate;
      }

      .st5 {
        fill: url(#linear-gradient);
      }

      .st6 {
        fill: #fff;
      }
    </style>
    <linearGradient id="linear-gradient" x1="2.4" y1="17.4" x2="110.4" y2="17.4" gradientUnits="userSpaceOnUse">
      <stop offset="0" stop-color="#f9e0ac"/>
      <stop offset="1" stop-color="#f9b653"/>
    </linearGradient>
    <linearGradient id="linear-gradient1" x1="99.6" x2="140" xlink:href="#linear-gradient"/>
    <linearGradient id="linear-gradient2" x1="0" y1="17.4" x2="108.1" y2="17.4" gradientUnits="userSpaceOnUse">
      <stop offset="0" stop-color="#f9b653"/>
      <stop offset="1" stop-color="#f9e0ac"/>
    </linearGradient>
    <linearGradient id="linear-gradient3" x1="97.2" x2="137.6" xlink:href="#linear-gradient2"/>
  </defs>
  <g class="st4">
    <g id="Layer_2">
      <g id="_層_1">
        <g>
          <g>
            <path class="st3" d="M124.9,3.2h-24.5c10,0,18.2,7.8,18.2,17.4s-8.2,17.4-18.2,17.4h24.5c10,0,18.2-7.8,18.2-17.4s-8.2-17.4-18.2-17.4Z"/>
            <path class="st3" d="M21.4,38h74c10,0,18.2-7.8,18.2-17.4S105.4,3.2,95.4,3.2H21.4C11.4,3.2,3.2,11,3.2,20.6s8.2,17.4,18.2,17.4h0Z"/>
            <g>
              <g>
                <path class="st5" d="M110.4,17.4c0,9.6-8.2,17.4-18.2,17.4H20.6c-10,0-18.2-7.8-18.2-17.4S10.6,0,20.6,0h71.6C102.2,0,110.4,7.8,110.4,17.4Z"/>
                <path class="st1" d="M121.8,0h-22.2C109.6,0,117.8,7.8,117.8,17.4s-8.2,17.4-18.2,17.4h22.2c10,0,18.2-7.8,18.2-17.4S131.8,0,121.8,0Z"/>
              </g>
              <g>
                <g>
                  <path class="st0" d="M108.1,17.4c0,9.6-8.2,17.4-18.2,17.4H18.2c-10,0-18.2-7.8-18.2-17.4S8.2,0,18.2,0h71.6C99.8,0,108,7.8,108.1,17.4Z"/>
                  <path class="st2" d="M119.4,0h-22.2C107.2,0,115.4,7.8,115.4,17.4s-8.2,17.4-18.2,17.4h22.2c10,0,18.2-7.8,18.2-17.4S129.4,0,119.4,0Z"/>
                </g>
                <path class="st6" d="M128.7,16.7c-2.4-2.4-4.8-4.8-7.2-7.3-.9-.9-2.3.5-1.4,1.4,2.2,2.2,4.3,4.4,6.5,6.6-2.2,2.2-4.3,4.4-6.5,6.6-.9.9.5,2.3,1.4,1.4,2.4-2.4,4.8-4.8,7.2-7.3.4-.4.4-1,0-1.4Z"/>
              </g>
            </g>
          </g>
          <g>
            <path class="st6" d="M19.5,21c.2,0,.3,0,.4.1.1,0,.1.2.1.3,0,.1,0,.2-.2.4-.6,1-1.1,1.9-1.7,2.7-.2.2-.3.3-.5.3-.5,0-.6-.2-.6-.5,0-.1,0-.2.1-.3.5-.7,1-1.7,1.6-2.8.1-.2.3-.3.6-.3h0ZM22.6,9.4h6c.7,0,1,.3.8.9l-1.1,4c-.2.6-.6.9-1.3.9h-2.4l-.4,1.4h2.6c.4,0,.5.2.4.5-.1.4-.3.5-.7.5h-2.6l-.4,1.4c.9,0,1.8-.2,2.7-.3.4,0,.5.2.4.5,0,.3-.2.5-.5.6-.8.1-1.6.2-2.7.4-.8,0-1.6.1-2.6.2-1.1,0-1.7.1-1.9.1-.5,0-.6-.2-.5-.7,0-.3.3-.5.6-.5,1.3,0,2.4-.1,3.3-.2l.4-1.5h-2.8c-.4,0-.5-.2-.4-.5,0-.4.3-.5.7-.5h2.8l.4-1.4h-2.5c-.6,0-.9-.3-.7-.9l1.1-4c.2-.6.6-.9,1.2-.9h0ZM21.3,21c.3,0,.5.1.5.5,0,.9-.2,1.7-.4,2.7-.1.4-.4.6-.8.6s-.5-.2-.4-.5c.3-1.1.5-1.9.5-2.2,0-.2,0-.4,0-.6,0-.3.3-.4.6-.4h0ZM23.8,14.2l1-3.7h-1.9c-.3,0-.5.2-.6.5l-.8,2.8c0,.3,0,.5.3.5h1.9ZM23.1,11c.1,0,.2,0,.3.2.1.5.2,1.2.2,1.9,0,.1,0,.2,0,.3,0,.3-.3.4-.7.4s-.3-.1-.3-.4c0-.7,0-1.3-.1-1.8,0-.1,0-.2,0-.3,0-.3.3-.4.6-.4h0ZM23.4,20.9c.2,0,.3,0,.4.3.1.7.2,1.5.2,2.3,0,.1,0,.3,0,.4,0,.3-.4.5-.8.5s-.3-.1-.3-.4c0-1,0-1.7,0-2.3,0-.1,0-.2,0-.3,0-.3.3-.5.6-.5h0ZM25.4,20.7c.1,0,.2,0,.3.2.2.6.4,1.2.5,1.9,0,.1,0,.2,0,.3,0,.3-.3.5-.7.5s-.3-.1-.3-.3c0-.8,0-1.4-.2-1.9,0-.1,0-.2,0-.2,0-.3.3-.4.6-.4h0ZM26.7,14.2c.3,0,.5-.1.6-.5l.8-2.8c0-.3,0-.5-.4-.5h-1.8l-1,3.7h1.8,0ZM27.1,11.1c.4,0,.5.1.4.4,0,.1-.1.3-.2.4-.3.6-.6,1.1-1,1.6-.1.2-.3.3-.6.3s-.4-.2-.4-.5c0,0,0-.2.2-.3.3-.5.6-1.1.9-1.6.1-.2.3-.3.6-.3h0ZM32.9,9c.4,0,.6.2.5.6l-.6,2.2h3.1c.4,0,.5.2.4.5-.1.4-.3.6-.7.6h-3.1l-1,3.6h1.8c.8,0,1.1.4.9,1.1l-1.5,5.7c-.2.7-.7,1.1-1.5,1.1h-4.1c-.7,0-1-.4-.8-1.1l1.5-5.7c.2-.7.7-1.1,1.4-1.1h1.1l1.9-7c0-.4.3-.6.7-.6h0ZM31,23.4c.4,0,.6-.2.7-.5l1.2-4.6c0-.4,0-.5-.4-.5h-3.1c-.3,0-.5.2-.6.5l-1.2,4.6c-.1.4,0,.5.3.5,0,0,3.1,0,3.1,0Z"/>
            <path class="st6" d="M41.8,10.1h2.4l.2-.5c0-.4.3-.6.7-.6s.6.2.5.6l-.2.5h2.4c.7,0,.9.3.8.9l-.2.9h.6c.3,0,.5.2.4.5,0,.3-.3.5-.6.5h-.6l-.3,1c-.2.6-.6.9-1.2.9h-2.4l-.2.7h2.5c.7,0,1,.3.8,1l-.3,1.2c-.2.7-.6,1-1.3,1h-2.5c0,0,0,.2-.2.4-.1.2-.2.3-.4.5h4.5c.4,0,.5.2.4.6,0,.4-.3.5-.7.5h-1.4c0,.1-.1.2-.2.4-.5.6-1,1.1-1.5,1.5-.2.2-.4.3-.6.5.5.2,1,.4,1.5.6.3,0,.4.2.4.5-.1.4-.4.7-.7.7,0,0-.1,0-.2,0-.7-.4-1.4-.7-2.1-1-.2.1-.4.2-.6.3-.7.3-1.4.5-2.2.6-.7.1-1.3.2-1.8.2-.5,0-.6-.2-.5-.6,0-.3.3-.5.6-.5,1.3,0,2.4-.3,3.2-.5-.5-.2-1-.4-1.5-.6-.3-.1-.5-.4-.4-.8,0-.2.2-.4.5-.6.3-.2.6-.4.8-.5h-2c-.4,0-.5-.2-.4-.5,0-.4.3-.6.7-.6h3.2c.3-.2.5-.5.8-.8h-2.5c-.7,0-1-.3-.8-1l.3-1.2c.2-.7.6-1,1.3-1h2.5l.2-.7h-2.4c-.7,0-.9-.3-.7-.9l.3-1h-.5c-.3,0-.5-.1-.4-.5,0-.3.3-.5.6-.5h.5l.2-.9c.2-.6.6-.9,1.2-.9h0ZM42.2,17.6l.3-1.3h-2.1c-.3,0-.4.2-.5.5v.3c-.2.3,0,.5.2.5h2.1ZM44,20.4h-2.8c-.4.3-.8.5-1.3.9,0,0-.2.1-.2.1,0,0,0,.1,0,.1.4.1,1,.4,1.9.8.3-.2.6-.3.9-.5.5-.4,1-.8,1.4-1.4h0ZM43.2,13.7l.2-.9h-2.2v.4c-.2.3-.1.5,0,.5h1.8,0ZM41.5,11.9h2.2l.2-.9h-1.8c-.2,0-.4.1-.5.5v.4c-.1,0-.1,0-.1,0ZM45.3,17.6c.3,0,.5-.2.6-.5v-.3c.2-.3,0-.5-.3-.5h-2l-.3,1.3h2ZM46.2,13.7c.3,0,.5-.2.5-.5v-.4c.1,0-2.1,0-2.1,0l-.2.9h1.8ZM45.1,11l-.2.9h2.2v-.4c.2-.3,0-.5-.2-.5h-1.8ZM51.3,9c.4,0,.6.2.5.6-.2.6-.3,1.2-.5,1.8h3.6c.4,0,.5.2.4.5-.1.4-.3.6-.7.6h-.6c-.2.7-.5,1.6-.9,2.7-.5,1.3-1,2.5-1.7,3.6-.4.6-.7,1.2-1.1,1.8,0,.3.2.7.3,1,.2.6.6,1.2,1.2,1.9.2.1.3.3.2.5-.1.5-.4.8-.9.8s-.2,0-.4-.2c-.5-.5-.9-1.2-1.2-1.8-.1-.2-.2-.5-.3-.7,0,.1-.2.2-.3.3-1,1-2,1.7-3,2.4-.2,0-.3.1-.4.1-.5,0-.7-.2-.6-.7,0-.2.2-.4.4-.5,1.2-.8,2.2-1.6,3-2.5.2-.2.3-.3.4-.5,0-.3,0-.6-.1-.9-.1-.9,0-2,0-3.6-.1.2-.3.3-.4.5-.2.2-.4.3-.5.3-.5,0-.6-.2-.5-.7,0,0,0-.2.2-.3.8-1,1.5-2.1,2-3.3.4-.9.8-2,1-3,0-.4.3-.6.7-.6h0ZM49.9,14.5c.2,0,.2.2.3.4-.2,1.6-.2,3-.2,4h0c.2-.2.4-.6.6-.9.7-1.3,1.5-3.2,2.2-5.5h-1.9c0,.1,0,.3-.2.4-.2.5-.5,1-.7,1.5h0Z"/>
            <path class="st6" d="M57.8,18.4c.4,0,.6.2.5.7-.4,1.5-1,3-1.8,4.4-.2.4-.5.6-.9.6s-.5-.2-.4-.5c0-.2.1-.3.3-.5.7-1.1,1.3-2.4,1.8-4.1.1-.4.3-.5.7-.5h0ZM62.2,9c.2,0,.3,0,.5.1.1.1.2.3.1.4,0,0,0,.2-.2.3-.8.9-1.6,1.7-2.4,2.4h0c.4.4.7.8,1,1.2.7-.8,1.3-1.5,2-2.3.2-.2.4-.2.6-.2s.2,0,.3.1c0,.1,0,.2,0,.4,0,.2-.1.3-.2.4-.8,1-1.7,2-2.5,2.9-.5.5-1,1-1.6,1.4,1,0,1.9-.2,2.7-.4,0-.4,0-.7-.2-1,0-.1,0-.2,0-.3,0-.3.3-.5.7-.5s.2,0,.3.2c.2.8.3,1.8.4,2.8,0,.2,0,.3,0,.4,0,.3-.3.5-.8.5s-.3-.1-.3-.4c0-.3,0-.6,0-.8-.6.1-1.2.2-1.7.3l-1.9,7.1c-.1.4-.4.6-.8.6s-.6-.2-.5-.6l1.9-6.9c-.8.1-1.6.2-2.3.3-.4,0-.5-.2-.4-.6,0-.4.3-.5.7-.6.2,0,.5,0,.7,0,.7-.6,1.4-1.2,2-1.8h0s0,0,0-.1c-.4-.5-.8-1-1.1-1.3-.3-.3-.5-.5-.9-.8,0-.2-.1-.3,0-.5,0-.4.3-.5.7-.5s.2,0,.4.1c0,0,.1.1.2.2.7-.6,1.3-1.4,2.1-2.3.1-.2.3-.4.6-.4h0ZM61.9,18.5c.2,0,.4.1.4.4,0,.7,0,1.7-.2,3.2,0,.3,0,.5,0,.6,0,.4-.3.5-.7.5s-.5-.2-.4-.5c.2-1.4.3-2.5.3-3.5v-.3c.1-.3.3-.5.7-.5h0ZM66.7,9.6h6c.8,0,1.1.4.9,1.1l-1.3,4.9c-.2.7-.7,1.1-1.5,1.1h-4.5c-.4,0-.6.2-.7.5l-1.5,5.4c0,.3,0,.5.3.6.3.1,1,.2,2.1.2s2.3-.1,2.6-.3c.4-.2.7-.5.7-.9l.5-2c.1-.4.4-.7.8-.7.4,0,.5.3.4.8-.5,1.7-.8,2.7-1.1,3-.2.4-.6.6-1.2.8-.5.2-1.6.3-3.1.3s-2.6-.1-3-.4c-.4-.2-.5-.7-.3-1.3l1.6-6.2c.2-.8.7-1.2,1.5-1.2h4.5c.3,0,.4-.1.5-.4l1-3.8c0-.3,0-.4-.3-.4h-5.5c-.4,0-.5-.2-.4-.6s.3-.6.7-.6h0Z"/>
            <path class="st6" d="M81.2,8.9c.2,0,.4.1.6.5l1.6,2.4c0,.1,0,.3,0,.5-.1.4-.4.6-.8.6,0,0-.2,0-.3-.1l-1.3-2.2c0-.1-.1-.2-.2-.2s-.2,0-.2.2c-.8.9-1.7,1.8-2.7,2.6,0,0,.2,0,.3,0h3.6c.4,0,.5.2.4.5,0,.4-.3.5-.7.5h-1.3l-.5,2h1.8c.4,0,.5.2.4.5-.1.4-.3.6-.7.6h-1.8l-1.4,5.2c.7-.2,1.2-.3,1.8-.5.1,0,.2,0,.3,0,.3,0,.4.2.4.5,0,.2-.2.4-.5.5-.7.3-1.5.5-2.6.8-.8.2-1.8.4-2.9.5-.3,0-.5-.2-.4-.6,0-.4.3-.6.6-.6.9,0,1.6-.2,2.2-.3l1.4-5.4h-2c-.3,0-.5-.2-.4-.6,0-.4.3-.5.7-.5h2l.5-2h-1.2c-.3,0-.5-.2-.4-.5,0-.1,0-.2.1-.2,0,0-.2.1-.2.2-.3.2-.5.3-.6.3-.4,0-.5-.2-.4-.6,0-.2.2-.4.4-.6,1.4-1.1,2.6-2.1,3.4-3.1.3-.4.7-.6.9-.6h0ZM76.5,17.9c.2,0,.4.1.4.4,0,.5-.1,1.3-.3,2.5,0,.2,0,.4,0,.5,0,.3-.3.5-.7.5s-.5-.2-.4-.5c.2-1,.3-2,.4-2.7v-.2c.1-.3.3-.4.6-.4h0ZM80.8,18.1c.2,0,.3,0,.4.1.1,0,.2.2.1.3,0,.1,0,.2-.2.4-.4.9-.8,1.7-1.2,2.4-.2.1-.3.2-.4.2-.4,0-.6-.1-.5-.4,0-.1,0-.2.2-.3.3-.6.7-1.4,1.2-2.4.1-.2.3-.3.5-.3h0ZM84.1,19.9c.4,0,.5.2.4.5,0,.2-.3.5-.7.9-.5.5-1.2,1.1-1.9,1.7-.7.6-1.2,1-1.7,1.3-.2,0-.4.1-.5.1-.4,0-.5-.2-.4-.5,0-.3.3-.5.6-.7.7-.4,1.3-.9,1.9-1.4.7-.6,1.4-1.2,2-1.8.1,0,.3-.1.4-.1h0ZM88.7,13.4h-3.6c-.7,0-1-.3-.9-.9,0-.1.6-1.2,1.7-3.2.2-.3.4-.5.8-.5s.6.1.6.5c0,.2-.2.3-.3.5h3.6c.8,0,1.1.3.9.9,0,.1-.8,1.5-2.2,4h2.5c.3,0,.5.2.4.5,0,.4-.3.5-.7.5h-4.1v.2c-.2.8-.2,1.5-.1,2.2,0,.1,0,.2,0,.3.9-.5,1.6-1.1,2.3-1.8.2-.2.3-.3.5-.3.4,0,.6.2.5.5,0,.2-.2.5-.5.7-.9.8-1.7,1.4-2.4,1.8h-.1c0,.4.2.8.3,1.1.3.8.8,1.6,1.6,2.5,0,.1,0,.2,0,.3-.1.5-.4.7-.8.7s-.3,0-.4-.2c-.5-.5-.9-1.2-1.2-2-.3-.8-.6-1.6-.7-2.4,0,0,0-.1,0-.2l-1.1,4c-.2.8-.7,1.1-1.3,1.1s-1.2-.1-1.9-.4c-.3,0-.4-.3-.3-.6.1-.4.4-.6.7-.6.7.3,1.2.4,1.3.4s.3-.2.4-.5l1.9-7.2h-3.3c-.4,0-.5-.2-.4-.5,0-.4.3-.5.7-.5h4.8c.3-.5.5-1,.7-1.4h0ZM83,16.6c.1,0,.2,0,.4,0,.2.2.3.4.5.7.2.3.4.6.6,1,0,.1,0,.2,0,.3,0,.4-.3.5-.6.5s-.4,0-.5-.1c-.2-.4-.4-.7-.5-1-.1-.2-.3-.4-.4-.6-.1-.1-.2-.3-.1-.4,0-.4.3-.5.7-.5ZM86.3,10.9c-.4.6-.6,1-.6,1,0,.2.1.3.5.3h3.1c.4-.7.5-1,.6-1,0-.2,0-.2-.3-.2h-3.2,0Z"/>
          </g>
        </g>
      </g>
    </g>
  </g>
</svg>