<?xml version="1.0" encoding="UTF-8"?>
<svg id="Layer_1" xmlns="http://www.w3.org/2000/svg" xmlns:xlink="http://www.w3.org/1999/xlink" version="1.1" viewBox="0 0 314.9 41.6">
  <!-- Generator: Adobe Illustrator 29.6.1, SVG Export Plug-In . SVG Version: 2.1.1 Build 9)  -->
  <defs>
    <style>
      .st0, .st1 {
        fill: none;
      }

      .st1 {
        clip-path: url(#clippath);
      }

      .st2 {
        isolation: isolate;
      }

      .st3 {
        fill: #f9b653;
        stroke: #f9b653;
        stroke-miterlimit: 10;
        stroke-width: .5px;
      }

      .st4 {
        clip-path: url(#clippath-1);
      }

      .st5 {
        fill: #f8b653;
      }
    </style>
    <clipPath id="clippath">
      <polygon class="st0" points="-35.2 -35.2 -34.2 -35.2 -35.2 -34.2 -35.2 -35.2"/>
    </clipPath>
    <clipPath id="clippath-1">
      <polygon class="st1" points="-37.2 -37.2 -38.2 -37.2 -37.2 -38.2 -37.2 -37.2"/>
    </clipPath>
  </defs>
  <g id="b">
    <g id="c">
      <g>
        <g class="st4">
          <image class="st2" width="360" height="114" transform="translate(-216.2 -93.2)" xlink:href="policy-title-1.png"/>
        </g>
        <g>
          <g>
            <path class="st5" d="M217.2,17.3h3.9c1.1,0,1.5.5,1.2,1.6l-4.3,15.9c-.2.8-.5,1.3-.8,1.6-.3.3-.9.5-1.7.5s-1.4,0-1.7-.2c-.3-.2-.4-.6-.3-1.1,0-.3.2-.6.4-.8s.4-.3.6-.3h.9c.3,0,.5-.2.6-.5l1.1-4.3h-2.9c-.9,2.6-1.9,4.8-2.9,6.4-.4.6-1,.9-1.6.9-.8,0-1-.4-.9-1.1,0-.2.2-.5.4-.8,1.2-1.9,2.2-3.8,2.9-5.8.4-1.1.8-2.2,1.1-3.5l1.9-6.9c.3-1.2,1-1.7,2.1-1.7h0ZM215,27.6h2.8l.7-2.6h-2.8l-.3,1c-.1.5-.3,1.1-.4,1.6ZM216.3,22.7h2.8l.7-2.7c0-.2,0-.3-.1-.3h-2.4c-.2,0-.3,0-.3.3l-.7,2.7h0ZM232.1,17.2c.6,0,1,.2,1.2.5.2.3.3.7.1,1.2-.2.6-.4,1.4-.7,2.3-.2.7-.5,1.3-.8,1.7-.5.7-1.1,1.1-1.9,1.2-1,0-1.7,0-2.1-.2-.4-.2-.6-.5-.5-1,.2-.6.5-1,1.1-1.1.1,0,.2,0,.4,0,.4,0,.7.1,1,.1.3,0,.5-.3.6-.7.1-.4.3-.9.4-1.5,0-.1,0-.3-.2-.4h-4.6c-.2,0-.4.1-.4.3l-1.4,5.4h5.9c.5,0,.8.1,1,.3.3.2.4.5.3,1-.2,1-.9,2.1-1.9,3.5-.7.9-1.4,1.8-2.2,2.6.7.9,1.5,1.7,2.3,2.3.3.3.4.6.3.9-.1.5-.4.8-.9,1-.3.2-.6.2-1.1.2-.4,0-.7-.2-.9-.5-.6-.6-1.2-1.3-1.7-2-.9.8-1.7,1.4-2.6,2-.3.2-.7.4-1.1.4-.3,0-.5-.1-.7-.3-.2.3-.6.5-1.1.6-.8,0-1.1-.4-.9-1l4.7-17.6c.3-1,.8-1.5,1.7-1.5h6.6ZM221.8,35c1-.8,1.9-1.5,2.8-2.3,0-.1,0-.2-.1-.4-.4-1.1-.8-2.2-1-3.5,0,0-1.7,6.2-1.7,6.2ZM225.3,27.4c.2,1.1.6,2.2,1.2,3.5.1-.1.3-.3.4-.4,1-1.1,1.7-2,2-2.8,0-.2,0-.3-.2-.3h-3.3Z"/>
            <path class="st5" d="M240.6,17.5h6.1c.5,0,.9.1,1.1.5.2.3.3.7.2,1.1-.2.7-.6,1.3-1.1,2-.9,1-2,2.1-3.3,3.1h1.7c.7,0,1.1.1,1.4.3.2.2.3.6.2,1,0,.1-.1.3-.2.6-.3.7-.6,1.2-.9,1.8-.3.4-.7.7-1.1.7-.3,0-.6,0-.7-.2-.2-.1-.2-.4-.1-.6,0,0,0-.1.1-.2.3-.5.5-.9.6-1.1,0-.1,0-.2-.2-.2h-.9l-2.5,9.2c-.3,1.1-1,1.6-2.1,1.6h-1.9c-.7,0-1-.4-.9-1.2.2-.6.5-1,1-1h1.5c.2,0,.3,0,.4-.3l1.5-5.6c-1.8,2.3-3.1,3.8-3.9,4.2-.2.2-.5.3-1,.3-.3,0-.5-.1-.6-.3-.1-.2-.2-.4,0-.7,0-.3.3-.6.6-.9,1.8-1.5,3.6-3.3,5.4-5.4h-3.2c-.3,0-.5-.1-.7-.3-.1-.2-.1-.4,0-.8,0-.3.2-.6.5-.8.2-.2.5-.3.8-.3h2.3c-.3-.6-.7-1.2-1.2-2,0-.1,0-.2,0-.4,0-.1,0-.2.2-.4.1-.2.3-.3.6-.4.2,0,.4,0,.6,0,.2,0,.4.1.6.3.4.3.8.8,1.2,1.6,1.6-1.5,2.4-2.5,2.6-2.9,0-.1,0-.2-.1-.2h-4.9c-.4,0-.6-.1-.7-.3-.1-.2-.1-.5,0-.9,0-.3.3-.6.5-.8.2-.2.5-.3.9-.3h0ZM254.5,28.7c.6,0,1.1.1,1.4.4.2.2.2.8,0,1.6-.4,1.6-.8,2.8-1.1,3.7-.4,1.2-1,2.1-1.7,2.5-.5.3-1.1.5-1.9.5-1.2,0-2.1-.2-2.5-.5-.2-.2-.3-.6-.2-1.1,0-.2.2-.4.5-.6.2-.2.5-.3.8-.3s.2,0,.4,0c.4.2.8.2,1.2.2s.9-.3,1.1-.8c.2-.7.6-1.8,1-3.3,0-.2,0-.2,0-.2h-2.9c-.1.3-.2.5-.3.8-.5.9-1.2,1.7-1.9,2.4-1.3,1.2-2.8,2.2-4.3,2.8-.4.3-.8.4-1.2.4s-.5-.1-.7-.4c-.2-.3-.2-.6-.2-.9,0-.2.2-.4.3-.5,0-.1.4-.3,1-.6,1.9-.9,3.2-1.9,4.2-2.9.3-.4.5-.7.7-1.1h-2.8c-.6,0-.8-.4-.6-1.1s.6-1.1,1.2-1.1h3l.2-.8c0,0,0-.2.1-.2-.6.2-1.1.4-1.5.4-.4,0-.8-.1-.9-.4-.1-.2-.2-.5-.1-.8.1-.4.4-.7.7-.8,1.4-.5,2.7-1.1,3.9-1.8-.5-.8-.9-1.6-1.2-2.4t0,0c-.5.6-.9,1-1.2,1.3-.3.3-.7.5-1.1.5s-.7-.1-.9-.3c-.2-.2-.2-.4-.1-.8,0-.1.2-.3.3-.4,1.6-1.6,2.9-3.2,3.9-5,.3-.4.6-.7,1-.8.4,0,.7,0,1,.2.3.2.3.5.2.9,0,.1-.1.3-.2.5h6c.4,0,.6,0,.8.2.1.1.2.4,0,.9,0,.3-.2.6-.4.7-.2.2-.6.4-1,.4h-.2c-.7,1.4-1.8,2.7-3.2,4,0,0-.2.1-.2.2.5.5,1,.8,1.5,1.1.7.4,1.1.6,1.2.7.2.2.3.5.2.8,0,.4-.3.6-.6.9-.3.2-.6.3-.9.3s-.6,0-.9-.2c-1-.4-1.9-1-2.8-2-.5.4-1.1.7-1.7,1,.2,0,.4.1.5.2.2.2.2.5.1.8l-.2.8h3.3ZM252,20.1c0,0,0,.2.1.3.3.8.7,1.6,1.2,2.4,1-.9,1.8-1.8,2.3-2.7h-3.7Z"/>
            <path class="st5" d="M268.4,16.4c.4,0,.7,0,.9.2.2.1.3.4.2.8-.1.4-.3.7-.4,1-.4.8-.9,1.7-1.4,2.5l-4.1,15.2c-.1.4-.3.7-.5.8-.2.2-.5.2-.9.2s-.6,0-.7-.2c-.1-.2-.2-.5,0-.8l2.5-9.3c-.3.4-.5.7-.7.9-.3.3-.6.4-1,.4s-.6-.1-.8-.3c-.1-.1-.2-.4,0-.7,0-.2.2-.5.4-.8,2.2-3,4.2-6.1,5.8-9.4.3-.4.6-.6.9-.7ZM270.4,19.4c.4,0,.6.1.7.3.1.2.2.4,0,.8l-3.4,12.7c0,.3-.2.5-.4.7-.2.3-.6.4-1,.4s-.6-.1-.7-.4c-.1-.2-.1-.4,0-.7l3.4-12.7c0-.3.3-.6.5-.8.2-.2.5-.3.9-.3h0ZM270.8,27.6h4l.2-.6c.1-.4.3-.7.6-.9.3-.2.6-.3.9-.3s.6.1.8.3c.2.2.2.5,0,.9l-.2.6h3.9c.4,0,.6,0,.7.2.1.1.1.4,0,.9,0,.4-.2.6-.3.8-.2.2-.6.3-.9.3h-2.8c.6,1.2,1.6,2.7,3,4.2.2.2.2.5.2.8,0,.3-.3.6-.6.8-.4.2-.8.3-1.2.3-.3,0-.6-.2-1.1-.6-.6-.9-1.2-2.2-1.8-3.8l-1.3,4.8c0,.3-.2.6-.4.8-.2.3-.6.4-1.1.4s-.6-.1-.8-.4c-.1-.2-.1-.5,0-.8l1.2-4.6c-.1.1-.3.3-.4.5-1.7,1.8-3,3-3.9,3.6-.3.2-.7.2-1,.2s-.6-.1-.8-.4c-.2-.3-.2-.6-.1-.9,0-.3.3-.5.6-.7,1.4-1,2.5-1.9,3.5-2.7.6-.5,1.1-1,1.6-1.5h-2.9c-.3,0-.5,0-.7-.2-.1-.2-.1-.5,0-.8.1-.4.3-.7.5-.9.2-.1.4-.2.8-.2h0ZM276,16.3c.3,0,.6,0,.7.1.3.1.4.4.3.9,0,.2-.1.4-.3.7h7.3c.4,0,.6,0,.7.2.1.1.1.4,0,.8,0,.3-.2.5-.3.7-.2.2-.5.3-.9.3h-.7c-.7,1.1-1.8,2.3-3.3,3.4,0,0-.1,0-.2.1.6.3,1.2.6,1.9.8.9.3,1.4.5,1.6.5.2.2.3.4.3.7,0,.3-.3.6-.6.9-.3.2-.6.4-.9.4-.4,0-.7,0-1-.2-1.2-.3-2.5-.9-3.7-1.7-1.1.6-2.3,1-3.5,1.4-.8.2-1.4.4-1.9.4-.4,0-.7-.1-.9-.4-.1-.2-.2-.5-.1-.7,0-.3.3-.6.6-.7,1.5-.4,2.9-.9,4.1-1.4-.5-.5-1-1-1.4-1.6-.2.2-.5.4-.7.6-.3.2-.7.4-1.1.4-.2,0-.5,0-.6-.2-.3-.1-.4-.4-.3-.8,0-.2.2-.4.4-.7.8-.7,1.5-1.4,2.1-2.1.7-.8,1.1-1.5,1.4-2,.3-.6.6-.8,1-.8h0ZM275.4,20.1h0c0,.1.2.3.4.6.5.6,1.1,1.2,1.9,1.8,1.3-.8,2.3-1.6,2.9-2.5h-5.1s0,0-.1.1Z"/>
            <path class="st5" d="M287,31.6c.3,0,.6,0,.8.2.2.1.2.4.1.7,0,.2-.2.5-.4.8-.8,1.2-1.3,2.1-1.7,2.5-.3.4-.7.6-1,.6s-.5,0-.7-.2c-.2-.2-.2-.4-.2-.7,0-.1.1-.3.3-.6.7-.9,1.3-1.8,1.9-2.9.1-.1.2-.2.3-.3.1,0,.3-.1.4-.1h0ZM287.2,28.8h9.9c.4,0,.6,0,.7.2.1.1.1.4,0,.8,0,.3-.2.6-.4.8-.2.2-.5.3-.9.3h-3.7l-1.3,4.9c-.3,1.1-1.4,1.6-3.2,1.6-.3,0-.5,0-.8,0-.2,0-.4,0-.5-.2-.2,0-.3-.2-.3-.4,0-.2,0-.3,0-.5.1-.4.3-.7.7-.9.4-.2,1-.3,1.8-.3s.2,0,.3-.3l1.1-4h-3.8c-.3,0-.5,0-.7-.2-.1-.1-.1-.4,0-.8,0-.4.2-.6.5-.8.2-.1.5-.2.8-.2h0ZM288.8,25.2h8.2c.3,0,.5,0,.6.2,0,.1,0,.3,0,.7,0,.3-.2.5-.4.7-.2.2-.5.3-.8.3h-8.2c-.3,0-.5,0-.6-.2-.1-.1-.1-.4,0-.8,0-.3.2-.5.4-.7.2-.1.5-.2.8-.2h0ZM290.2,18h3.5v-.4c.2-.4.4-.8.6-1,.2-.2.6-.3,1.1-.3s.8.1.9.3c.1.2.2.5,0,1v.4c-.1,0,3.4,0,3.4,0,.4,0,.6,0,.7.2.1.1.1.4,0,.8,0,.3-.2.6-.4.8-.2.2-.5.3-.9.3h-3.5l-.5,1.7h2.8c.3,0,.5,0,.6.2.1.1.1.3,0,.7,0,.3-.2.5-.4.7-.2.2-.5.3-.8.3h-8.4c-.3,0-.5,0-.6-.2-.1-.1-.1-.4,0-.8,0-.3.2-.6.4-.7.2-.1.4-.2.8-.2h3.1l.5-1.7h-3.5c-.3,0-.5,0-.7-.2-.1-.2-.1-.5,0-.8,0-.4.2-.6.5-.8.2-.1.5-.2.8-.2h0ZM294.6,31.6c.2,0,.4,0,.5,0,.2.2.4.5.5,1,.2.8.4,1.4.4,1.9,1.4-1.2,2.4-2.3,3.1-3.4.8-1.1,1.4-2.4,1.9-3.9l.7-2.7c.1-.4.3-.6.6-.8.3-.2.6-.3.9-.3s.7,0,.9.2c.2.1.2.4,0,.9l-.7,2.6c-.4,1.5-.5,2.7-.4,3.5.3,1.4,1,2.9,2.1,4.6.2.2.2.5.1.8-.1.3-.3.6-.5.8-.3.3-.7.4-1.1.4-.2,0-.4,0-.5-.2-.8-1-1.5-2.6-2.1-4.8,0,0,0,0-.1,0s0,0-.1,0c-1.5,2-3,3.5-4.4,4.6-.3.2-.6.4-.8.4-.4,0-.6-.2-.8-.5,0-.3-.1-.5,0-.7v-.2s0,0,0,0c-.3,0-.5-.1-.6-.4-.1-.9-.3-1.7-.5-2.5,0-.2-.1-.4,0-.6,0-.3.3-.5.5-.7.2,0,.4-.1.7-.1h0ZM303.5,16.2c.4,0,.6,0,.8.2.2.2.3.5.1.9-.2.6-.5,1.3-.9,2.1h4.6c.5,0,.8.1,1,.3.2.2.3.5.2,1,0,.2-.1.5-.3.8-.7,1.6-1.5,3.1-2.3,4.5-.1.1-.2.3-.4.4-.2.1-.4.2-.7.2s-.7-.1-.9-.3c-.1-.1-.2-.3-.1-.6,0-.1.2-.4.4-.7,1.1-1.8,1.6-2.9,1.7-3.1,0,0,0,0-.2,0h-4.2c-.9,1.5-1.6,2.9-2.3,3.9-.3.4-.7.6-1.2.6-.3,0-.5-.1-.8-.3-.1-.2-.1-.5,0-.8,0-.1.2-.4.4-.9,1.5-2.3,2.8-4.8,4-7.4.3-.4.6-.7,1.1-.7h0Z"/>
          </g>
          <g>
            <path class="st5" d="M13.2,23.6h-3.5l-3.5,12.9c-.2.5-.6.8-1.3.8-.7,0-.9-.3-.8-.8l5-18.8c.2-.7.6-1.1,1.3-1.1h6.2c.8,0,1,.3.9,1l-1.2,4.6c-.2.9-.7,1.3-1.5,1.3h-.7c.1.1.2.3.1.5,0,.1-.1.3-.3.5-.3.3-.7.7-1.2,1.1.2.2.3.4.5.6.3-.4.7-.7,1-1.1.3-.3.6-.4.9-.4s.4,0,.6.1c.2.1.3.3.2.6,0,.1-.1.2-.2.3-.8.9-1.9,1.8-3.2,2.9l1.7-.2c0-.1,0-.2,0-.3,0-.2,0-.3,0-.4,0-.2.2-.3.4-.5.2-.1.4-.2.5-.2s.3.1.4.3c.1.5.2.9.3,1.4h.6c.5-.5,1-.9,1.5-1.2-.4-.5-.8-1.1-1.4-1.6-.2-.2-.2-.4-.2-.7,0-.2.2-.4.4-.5.2-.2.4-.2.6-.2.3,0,.6,0,.8.2,0,0,0,0,0,0,.3-.3.6-.6.9-.9.1-.1.2-.2.3-.3h-.1c-.7,0-1-.4-.8-1.2l1.2-4.3c.2-.9.7-1.4,1.4-1.4h6.2c.9,0,1.2.5,1,1.4l-4.5,16.9c-.2.8-.5,1.4-.7,1.7-.4.4-.9.6-1.5.6-1.1,0-1.9-.1-2.2-.4-.3-.2-.4-.4-.4-.8.1-.4.3-.8.5-1,.3-.2.6-.3,1-.3,0,0,.2,0,.3,0,.3,0,.5,0,.7,0s.3-.1.4-.4l2.9-10.9h-4.3c.1.1.2.3.1.5,0,.1-.1.3-.3.5-.3.3-.7.6-1.3,1,.1.2.3.4.4.7.4-.4.8-.8,1.2-1.2.3-.3.6-.4.9-.4s.4,0,.5.1c.2.1.3.3.2.6,0,.1-.1.2-.2.3-.9.9-2,1.9-3.4,2.9l1.8-.2c0-.1,0-.3,0-.4,0-.2,0-.3,0-.4,0-.2.2-.4.4-.5.2,0,.3-.1.5-.1s.4,0,.5.2c.1.8.2,1.5.2,2.2,0,.2,0,.3,0,.5,0,.3-.2.4-.3.5-.1.1-.4.2-.6.2-.3,0-.4-.1-.5-.4,0-.2,0-.4,0-.5l-4.8.5c0,0-.1.1-.2.2-.1.1-.3.2-.5.2-.3,0-.5-.1-.5-.4,0-.2,0-.3,0-.5l-5,.6c-.3,0-.4,0-.5-.2s0-.3,0-.5c0-.2.1-.4.3-.5.2-.1.3-.2.5-.2h.6c.6-.5,1.1-.9,1.6-1.3-.4-.4-.9-.9-1.4-1.3-.2-.2-.2-.5-.2-.7,0-.3.2-.5.4-.6.2-.2.4-.2.6-.2s.5,0,.7,0c.4-.3.7-.7,1-1.1,0-.1.2-.2.3-.3h0ZM10.3,30.8c.6,0,.8.3.7.8l-.2.6c0,.2,0,.4.2.4h1.4c.1-.3.3-.7.4-1.2,0-.3.2-.5.4-.7.2-.1.4-.2.7-.2.3,0,.5,0,.6.2.1.1.1.3,0,.6-.1.5-.3.9-.4,1.3-.2.6-.5,1.1-.8,1.5-.5.9-1.2,1.6-2.1,2.2-.5.4-1,.6-1.6.6-.4,0-.7-.1-.7-.3-.1-.2-.1-.4,0-.6,0-.3.2-.5.3-.6.9-.4,1.5-.8,2-1.2h-1.6c-.8,0-1.1-.4-.9-1.3l.4-1.3c.1-.5.5-.8,1.1-.8h0ZM10.1,22h4.1l.3-1.1h-4.1l-.3,1.1ZM10.8,19.5h4.1l.3-1.2h-4.1l-.3,1.2ZM16.8,30.7c.4,0,.6,0,.6.2.1.1.2.4,0,.7l-.3,1.1h1.1c.1,0,.2,0,.2,0l.3-1.1c.1-.4.5-.6,1-.6s.8.2.7.6l-.5,1.8c-.2.7-.6,1-1.3,1h-2l-.5,1.7c0,.3-.2.5-.4.7-.2.2-.5.2-.8.2s-.6,0-.7-.2c-.1-.1-.1-.3,0-.7l1.2-4.4c0-.3.2-.5.4-.7.2-.1.4-.2.8-.2ZM25,22l.3-1.1h-4.4l-.2.9c0,.1,0,.2.1.2h4.2ZM21.3,19.5h4.4l.3-1c0-.1,0-.2-.2-.2h-3.9c-.1,0-.2,0-.2.2l-.3,1Z"/>
            <path class="st5" d="M37.9,16.2c.4,0,.7,0,.9.3.2.2.2.5.2.9l-.5,1.7h3c.3,0,.6,0,.7.2.2.1.2.5,0,.9-.1.4-.2.7-.4.8-.2.2-.6.4-1,.4h-4.6l-.7,2.7h3.4c.6,0,1,.1,1.3.4.2.2.3.8,0,1.6-.7,2.6-1.3,4.6-1.7,6-.7,2-1.4,3.4-2.2,4-.5.5-1.2.8-2,.8-1.2,0-2-.2-2.5-.5-.2-.2-.3-.6-.2-1.1,0-.2.3-.5.5-.7.2-.2.5-.3.7-.3s.2,0,.4,0c.4.2.8.2,1.2.2.6,0,1.1-.5,1.4-1.5.4-1.3,1-3.5,1.8-6.5,0-.2,0-.3,0-.3h-2.9c-.3.9-.6,1.8-.9,2.6-1.5,3.4-3,5.9-4.5,7.6-.3.3-.7.4-1.1.5-.4,0-.6,0-.7-.3-.1-.2-.1-.5,0-.8,0-.2.3-.5.6-1,2.1-2.8,3.6-5.8,4.5-8.8l1.3-4.8h-1.5c-.3,0-.6,0-.7-.3-.1-.1-.2-.5,0-.9s.3-.8.5-1c.2-.1.5-.2.8-.2h2.8l.5-1.7c0-.3.3-.6.6-.9.2-.2.6-.3,1-.3h0ZM41.5,30.3c.3,0,.7.1,1.1.4,1.7,1.5,2.8,2.6,3.3,3.3.3.2.4.5.3.9,0,.4-.3.7-.5.9-.3.3-.6.5-1,.5-.3,0-.6-.1-.8-.4-1-1.2-2.2-2.4-3.4-3.5-.3-.3-.4-.6-.3-1,.1-.4.3-.7.5-.9.2-.2.5-.3.9-.3h0ZM47.9,16.5c.5,0,.9.3,1.2.8.8,1.5,1.6,3.1,2.5,4.8.2.2.2.5,0,.9-.1.4-.3.7-.7.9s-.6.3-1,.3-.6-.2-.8-.5c-.5-.8-1-2-1.6-3.7-.1-.5-.3-.8-.5-.8s-.4.2-.7.5c-1.9,2-3.1,3.2-3.8,3.8-.6.5-1,.8-1.4.8s-.7-.1-.9-.5c-.1-.3-.1-.6,0-.8,0-.4.3-.6.5-.8,1.8-1.6,3.6-3.3,5.3-5,.6-.5,1.1-.7,1.6-.7h0ZM44.3,24.7c.2,0,.5.1.9.3,1.4,1.1,2.3,1.9,2.7,2.4.3.2.4.5.3.9,0,.4-.3.7-.5.9-.3.3-.6.5-1,.5-.3,0-.5-.1-.7-.3-.9-.9-1.8-1.8-2.8-2.6-.3-.3-.5-.6-.4-.9.1-.4.3-.7.6-.9.2-.2.5-.3.9-.3h0Z"/>
          </g>
          <g>
            <path class="st3" d="M74.7,12.5c.1-.4.3-.8.6-1,.3-.2.6-.4,1.1-.4s.7.1.8.4c.1.3.1.6,0,1l-7.3,22.3c-.1.4-.3.7-.6,1-.3.3-.7.4-1.1.4-.4,0-.7-.1-.8-.4-.1-.3-.1-.6,0-1l3.4-10.3h-11.8l-3.4,10.3c-.1.4-.3.7-.6,1-.3.3-.7.4-1.1.4-.4,0-.7-.1-.8-.4-.1-.3-.1-.6,0-1l7.3-22.3c.1-.4.3-.7.6-1,.3-.3.7-.4,1.1-.4s.7.1.8.4c.1.3.1.6,0,1l-3.2,9.6h11.8l3.2-9.6Z"/>
            <path class="st3" d="M91.1,10.7c1.6,0,2.9.3,3.9,1,1,.7,1.7,1.6,2.1,2.8.4,1.2.6,2.6.5,4.1-.1,1.6-.4,3.2-1,5-.6,1.8-1.3,3.4-2.2,5s-2,2.9-3.1,4.1c-1.2,1.2-2.5,2.1-3.9,2.8-1.4.7-3,1-4.6,1s-2.9-.3-3.9-1-1.7-1.6-2.1-2.8c-.4-1.2-.6-2.6-.5-4.1s.4-3.2,1-5,1.3-3.4,2.2-5,1.9-2.9,3.1-4.1c1.2-1.2,2.5-2.1,4-2.8,1.4-.7,3-1,4.6-1ZM83.4,34c1.2,0,2.3-.3,3.4-.8s2-1.2,2.9-2.1,1.7-2,2.4-3.2c.7-1.3,1.3-2.7,1.8-4.2s.7-2.7.9-4c.1-1.3,0-2.4-.2-3.4-.3-1-.8-1.8-1.5-2.3-.7-.6-1.7-.9-2.9-.9s-2.4.3-3.5.9-2.1,1.4-3,2.3c-.9,1-1.7,2.1-2.4,3.3-.7,1.2-1.3,2.6-1.7,3.9s-.7,2.6-.8,3.9c-.1,1.2,0,2.3.2,3.3s.7,1.8,1.5,2.3c.7.6,1.7.9,3,.9Z"/>
            <path class="st3" d="M98.5,34.8c-.1.4-.4.7-.7,1s-.7.4-1.1.4-.7-.1-.8-.4c-.1-.3-.1-.6,0-1l7.3-22.3c.1-.4.3-.7.6-1,.2-.3.6-.4,1-.4s.6.1.7.3.2.5.3.7l5.4,18.7,6-18.4c.1-.4.3-.7.6-1,.3-.3.6-.4,1.1-.4s.8.1.9.4,0,.6,0,1l-7.3,22.4c-.1.4-.3.7-.6,1-.2.3-.6.4-1,.4s-.5-.1-.7-.3c-.2-.2-.3-.5-.4-.8l-5.5-18.4-5.9,18.1Z"/>
            <path class="st3" d="M119.8,33.4h8.3c.3,0,.7,0,1,0,.3,0,.6,0,.8.1.2,0,.4.2.4.4s0,.4,0,.7c-.2.5-.4.8-.7,1-.3.2-.7.2-1.2.2h-10.4c-.5,0-.8-.1-1-.3-.2-.2-.2-.6,0-1.2l7-21.3c.2-.6.4-1,.7-1.2.3-.2.7-.3,1.3-.3h10.2c.5,0,.8,0,.9.3.2.2.2.5,0,1-.1.5-.4.8-.7.9-.3.2-.7.3-1.1.3h-9.1l-2.7,8.1h8.8c.5,0,.8,0,1,.3.2.2.1.5,0,1s-.4.8-.6.9-.6.2-1.1.2h-8.8l-2.9,8.9Z"/>
            <path class="st3" d="M140.8,34.8c-.1.5-.4.8-.6,1.1s-.6.4-1.1.4-.8-.1-.9-.4c0-.3,0-.6,0-1l3.2-9.8-2.1-11.6c0-.4,0-.8.1-1.2.2-.4.4-.6.7-.8.3-.2.7-.3,1-.2.3,0,.5.3.6.7l1.8,10.5,8.5-10.2c.2-.3.5-.5.7-.7.2-.2.4-.3.6-.3.2,0,.3,0,.5,0,.1,0,.2,0,.3.2.2.2.3.5.2.9s-.3.7-.7,1.2l-9.7,11.6-3.2,9.8Z"/>
            <path class="st3" d="M168.3,22.8c1.4.3,2.4.9,3.1,1.9.6,1,.6,2.4,0,4.3s-1.8,3.9-3.4,5.1c-1.5,1.2-3.4,1.8-5.4,1.8h-6.6c-.4,0-.7-.1-.9-.4s-.1-.6,0-1l7.1-21.6c.1-.4.4-.7.7-1,.3-.3.7-.4,1.1-.4h5.1c1.2,0,2.1.1,2.8.4.7.3,1.3.7,1.6,1.3.4.5.5,1.2.6,1.9,0,.7-.1,1.6-.4,2.5-.4,1.4-1.2,2.5-2.1,3.4-1,.9-2.1,1.5-3.3,1.8ZM161.9,21.7h3.9c1.3,0,2.5-.3,3.4-1,.9-.7,1.6-1.6,2-2.8s.3-2.1,0-2.8c-.4-.7-1.4-1.1-2.8-1.1h-3.9l-2.5,7.7ZM158,33.4h4.3c1.7,0,3.1-.4,4.2-1.1,1.1-.7,1.9-1.9,2.4-3.4.6-1.7.5-2.9-.3-3.6s-2.1-1.1-3.9-1.1h-3.6l-3,9.2Z"/>
            <path class="st3" d="M177.4,29.5l-2.7,4.1c-.2.3-.4.7-.6,1-.2.3-.4.6-.7.9s-.5.5-.7.6c-.2.2-.5.2-.7.2-.4,0-.7-.1-.8-.4-.1-.3,0-.9.5-1.7l13.9-21.8c.2-.4.5-.7.9-.9.3-.2.7-.3,1.2-.3s.8.1,1,.3c.2.2.3.5.3.9l-.4,21.9c0,.6-.2,1.1-.4,1.4-.3.4-.7.6-1.3.6-.4,0-.6,0-.8-.3s-.2-.6-.2-1v-5.5s-8.5,0-8.5,0ZM186.1,27l.3-12.2-7.7,12.2h7.3Z"/>
            <path class="st3" d="M198.3,34.8c-.1.5-.4.8-.6,1.1-.3.2-.6.4-1.1.4s-.8-.1-.9-.4c0-.3,0-.6,0-1l3.2-9.8-2.1-11.6c0-.4,0-.8.1-1.2.2-.4.4-.6.7-.8.3-.2.7-.3,1-.2.3,0,.5.3.6.7l1.8,10.5,8.5-10.2c.2-.3.5-.5.7-.7.2-.2.4-.3.6-.3.2,0,.3,0,.5,0,.1,0,.2,0,.3.2.2.2.3.5.2.9,0,.3-.3.7-.7,1.2l-9.7,11.6-3.2,9.8Z"/>
          </g>
        </g>
      </g>
    </g>
  </g>
</svg>