<?xml version="1.0" encoding="UTF-8"?>
<svg id="Layer_1" xmlns="http://www.w3.org/2000/svg" xmlns:xlink="http://www.w3.org/1999/xlink" version="1.1" viewBox="0 0 185.3 43.2">
  <!-- Generator: Adobe Illustrator 29.1.0, SVG Export Plug-In . SVG Version: 2.1.0 Build 142)  -->
  <defs>
    <style>
      .st0 {
        fill: url(#linear-gradient2);
      }

      .st1 {
        fill: url(#linear-gradient1);
      }

      .st2 {
        fill: url(#linear-gradient3);
      }

      .st3 {
        fill: #040403;
        opacity: .1;
      }

      .st3, .st4 {
        isolation: isolate;
      }

      .st5 {
        fill: url(#linear-gradient);
      }

      .st6 {
        fill: #fff;
      }
    </style>
    <linearGradient id="linear-gradient" x1="2.7" y1="19.8" x2="148.1" y2="19.8" gradientUnits="userSpaceOnUse">
      <stop offset="0" stop-color="#f9e0ac"/>
      <stop offset="1" stop-color="#f9b653"/>
    </linearGradient>
    <linearGradient id="linear-gradient1" x1="135.8" x2="181.7" xlink:href="#linear-gradient"/>
    <linearGradient id="linear-gradient2" x1="0" y1="25" x2="145.4" y2="25" gradientTransform="translate(0 44.8) scale(1 -1)" gradientUnits="userSpaceOnUse">
      <stop offset="0" stop-color="#f9b653"/>
      <stop offset="1" stop-color="#f9e0ac"/>
    </linearGradient>
    <linearGradient id="linear-gradient3" x1="133.1" x2="179" xlink:href="#linear-gradient2"/>
  </defs>
  <g class="st4">
    <g id="b">
      <g id="c">
        <g>
          <g>
            <path class="st3" d="M164.6,3.6h-27.9c11.4,0,20.7,8.9,20.7,19.8s-9.3,19.8-20.7,19.8h27.9c11.4,0,20.7-8.9,20.7-19.8s-9.3-19.8-20.7-19.8Z"/>
            <path class="st3" d="M24.3,43.1h106.8c11.4,0,20.7-8.9,20.7-19.8s-9.3-19.8-20.7-19.8H24.3c-11.4,0-20.7,8.9-20.7,19.8s9.3,19.8,20.7,19.8h0Z"/>
            <g>
              <g>
                <path class="st5" d="M148.1,19.8c0,10.9-9.3,19.8-20.7,19.8H23.4c-11.4,0-20.7-8.9-20.7-19.8S12,0,23.4,0h104.1C138.8,0,148.1,8.9,148.1,19.8Z"/>
                <path class="st1" d="M161,0h-25.2C147.2,0,156.5,8.9,156.5,19.8s-9.3,19.8-20.7,19.8h25.2c11.4,0,20.7-8.9,20.7-19.8S172.4,0,161,0Z"/>
              </g>
              <g>
                <g>
                  <path class="st0" d="M145.4,19.8c0,10.9-9.3,19.8-20.7,19.8H20.7C9.3,39.6,0,30.7,0,19.8S9.3,0,20.7,0h104.1C136.1,0,145.4,8.9,145.4,19.8Z"/>
                  <path class="st2" d="M158.3,0h-25.2C144.5,0,153.8,8.9,153.8,19.8s-9.3,19.8-20.7,19.8h25.2c11.4,0,20.7-8.9,20.7-19.8S169.7,0,158.3,0Z"/>
                </g>
                <path class="st6" d="M168.9,19c-2.7-2.8-5.4-5.5-8.1-8.2-1-1-2.6.6-1.6,1.6,2.4,2.5,4.9,5,7.4,7.4-2.4,2.5-4.9,5-7.4,7.5-1,1,.6,2.6,1.6,1.6,2.7-2.8,5.4-5.5,8.1-8.2.4-.4.4-1.1,0-1.6h0Z"/>
              </g>
            </g>
          </g>
          <g>
            <path class="st6" d="M23.6,23.7c.5,0,.6.2.5.7,0,.3-.3.6-.6.9-1,1.2-1.9,2.1-2.7,2.8-.2.1-.4.2-.6.2-.5,0-.6-.2-.5-.6,0-.2.1-.4.3-.6,1.1-.9,2-1.8,2.9-2.9.2-.3.4-.4.6-.4h0ZM29.9,18.8c.4,0,.5.2.4.5-.1.4-.4.6-.7.6h-2.8l-.4,1.6c1-.1,1.9-.2,2.7-.4.1,0,.3-.1.4-.1.3,0,.5.2.4.6,0,.3-.2.5-.5.6-1,.2-2.2.4-3.7.6-1.1.2-2.5.3-4.2.5-.4,0-.5-.3-.5-.7.1-.4.4-.6.8-.7,1.4,0,2.5-.2,3.4-.2l.5-1.8h-2.8c-.4,0-.5-.2-.4-.6,0-.4.3-.5.7-.5h2.8l.4-1.3c.1-.4.4-.6.8-.6s.6.2.5.6l-.4,1.3h2.8,0ZM32,11.4c.3,0,.5.2.4.5-.1.4-.3.6-.7.6h-3l-.4,1.4h3.5c.4,0,.5.2.4.5-.1.4-.4.6-.7.6h-1.8l-.3,1.2c0,.2,0,.3.1.3h1.8c.3,0,.4.2.3.5,0,.4-.3.5-.6.5h-2.2c-.7,0-1-.3-.8-1l.4-1.6h-2.4c-.2.6-.4,1.1-.7,1.4-.3.5-.7.8-1.1,1.1-.5.3-1.1.5-1.8.6h-.2c-.3,0-.5-.2-.4-.6.1-.3.3-.5.6-.5.5,0,.9-.1,1.2-.3.3-.2.6-.4.8-.7.1-.2.3-.5.4-.8h-1.6c-.4,0-.5-.2-.4-.6,0-.4.3-.5.7-.5h3.3l.4-1.4h-2.9c-.4,0-.5-.2-.4-.6,0-.4.3-.5.7-.5h2.9l.2-.9c.1-.5.4-.7.9-.7s.6.2.5.7l-.2.9h3,0ZM27.2,24c.3,0,.5.1.6.4,0,.5.1,1.4,0,2.6,0,.2,0,.4,0,.5-.1.4-.4.6-.9.6s-.5-.2-.5-.6c0-1.1,0-2,0-2.7v-.2c0-.4.4-.5.8-.5h0ZM33.9,12.6h1.5c.2-.7.4-1.4.6-2.1.1-.4.4-.6.8-.6s.7.2.5.6c-.2.7-.4,1.4-.6,2.1h1.5c.8,0,1.1.4.8,1.2l-1.3,4.8c-.2.7-.2,1.4,0,2.2,0,.1,0,.2.2.2s.4-.5.8-1.6c.1-.3.4-.5.8-.5.4,0,.5.2.4.7,0,.3-.3.8-.8,1.6s-.8,1.4-1.1,1.6c-.3.2-.5.4-.8.4s-.5-.1-.7-.3c-.3-.3-.4-.7-.5-1.2,0-.8,0-1.8.4-2.9l1.1-4.1c.1-.4,0-.6-.4-.6h-.9c-.3.9-.7,1.8-1.1,2.7-.2.4-.4.8-.6,1.1.2.4.3.9.5,1.3,0,.2,0,.3,0,.5-.1.5-.5.7-1,.7s-.2,0-.3-.1c0-.2-.1-.4-.2-.6-.8,1.3-1.8,2.5-2.9,3.7-.2.2-.4.3-.6.3-.5,0-.6-.2-.5-.7,0,0,.1-.2.3-.4,1.2-1.3,2.3-2.8,3.2-4.3-.3-.7-.5-1.4-.8-2,0-.1-.1-.2,0-.3.1-.4.4-.6.9-.6s.2,0,.3.2c.2.4.4.7.6,1.1,0,0,0,0,0-.1.3-.8.7-1.6,1-2.4h-1.4c-.4,0-.5-.2-.4-.6.1-.4.4-.6.8-.6h0ZM31.7,23.8c.3,0,.5.1.6.4,0,.6,0,1.5,0,2.7,0,.3,0,.4,0,.5-.1.4-.4.6-.9.6s-.5-.2-.4-.6c.1-1.1.1-2.1,0-2.9v-.3c0-.4.3-.5.7-.5ZM35.9,23.6c.1,0,.2,0,.3.2.7.9,1.3,1.9,1.9,3,0,.2,0,.3,0,.5-.1.5-.5.7-1,.7s-.2,0-.3-.2c-.5-1.1-1.2-2.1-1.8-3.1,0-.2,0-.3,0-.4.1-.5.5-.7,1-.7h0Z"/>
            <path class="st6" d="M45.5,19.1l-2.3,8.5c-.1.4-.4.6-.8.6s-.6-.2-.5-.6l4.1-15.5c.3-1.2,1.1-1.8,2.3-1.8h4c1,0,1.4.5,1.1,1.4l-1.6,5.9c-.3,1-.9,1.5-1.9,1.5h-4.5,0ZM51,15.3h-4.5l-.7,2.4h4.1c.3,0,.5-.1.5-.5,0,0,.5-2,.5-2ZM51,11.7h-2.9c-.4,0-.7.2-.8.6l-.5,1.9h4.5l.6-2.1c0-.3,0-.4-.3-.4h-.6,0ZM58.2,10.3h3.4c1.2,0,1.7.6,1.4,1.8l-3.8,14.2c-.3,1.2-1.1,1.9-2.3,1.9s-1.9-.1-3.2-.3c-.3-.1-.5-.4-.4-.7.1-.4.4-.7.8-.7.1,0,.3,0,.5,0,1.3.2,2.1.2,2.5.2s.6-.3.8-1l1.8-6.7h-5c-1,0-1.3-.5-1.1-1.5l1.6-5.9c.2-.9.9-1.4,1.9-1.4h1.2ZM60.1,17.8l.7-2.4h-5.1l-.5,1.9c0,.4,0,.5.3.5,0,0,4.6,0,4.6,0ZM55.9,14.2h5.1l.5-1.9c.1-.4,0-.6-.5-.6h-4c-.3,0-.5.2-.6.5l-.5,2h0Z"/>
            <path class="st6" d="M71.2,13.5c.5,0,.6.2.5.7-.1.5-.4.7-.9.7h-.9l-1,3.8c.3-.2.7-.4,1.1-.6.2,0,.2,0,.3,0,.5,0,.6.3.5.8,0,.1-.2.3-.4.5-.5.4-1.1.7-1.9,1.1l-1.6,6.1c-.3,1.1-1.1,1.7-2.4,1.7s-.7,0-1.1-.2c-.3-.1-.5-.4-.4-.7.1-.4.4-.7.8-.7,0,0,0,0,.2,0,.5.1.8.2.9.2.4,0,.6-.2.7-.6l1.3-5c-.5.2-.9.4-1.4.5-.1,0-.2,0-.3,0-.5,0-.7-.2-.5-.7.1-.4.4-.7.8-.8.7-.2,1.4-.4,1.9-.7l1.2-4.6h-1.3c-.5,0-.6-.2-.5-.7.1-.5.4-.7.9-.7h1.3l.7-2.7c.1-.5.4-.7.9-.7s.6.2.5.7l-.7,2.7h.9,0ZM73.2,12.7h2.7l.5-1.9c.1-.5.4-.7.9-.7s.6.2.5.7l-2.7,10c-.4,1.5-1.1,2.8-2.1,4.1-.8,1.1-1.9,2-3.1,2.9-.3.3-.6.5-.8.5-.6,0-.8-.3-.7-.9,0-.1.2-.3.3-.5,1.6-1.1,2.8-2.2,3.6-3.4.4-.5.7-1,.9-1.5-.3.2-.7.4-1.1.6-.9.4-1.8.8-2.5,1-.1,0-.2,0-.3,0-.5,0-.6-.3-.5-.8,0-.4.3-.6.8-.8.7-.2,1.3-.5,1.8-.7.5-.2,1.1-.5,2.1-1.1.2,0,.3,0,.3,0l.5-1.9h-2.6c-.5,0-.7-.2-.5-.7.1-.5.4-.7.9-.7h2.6l.8-2.8h-2.7c-.5,0-.6-.2-.5-.7.1-.5.4-.7.9-.7h0ZM80.6,10c.5,0,.7.2.6.7l-.5,1.9h3.3c.5,0,.6.2.5.7-.1.5-.4.7-.9.7h-3.3l-.7,2.7h2.9c.5,0,.7.2.5.7-.1.5-.4.7-.9.7h-2.9l-1,3.6h3.6c.5,0,.6.2.5.7-.1.5-.4.8-.9.8h-3.6l-1.1,4c-.1.5-.4.7-1,.7s-.6-.2-.5-.7l4.4-16.6c.1-.5.4-.7.9-.7h0Z"/>
            <path class="st6" d="M92.4,15.1c.2,0,.3,0,.5.2.1.1.2.3.1.5,0,0,0,.2-.2.4-.6.9-1.3,1.8-2.1,2.5l-2.4,8.9c-.1.5-.4.7-.9.7s-.6-.2-.5-.7l2-7.4c-.4.3-.8.6-1.2.8-.3.2-.5.3-.7.3-.5,0-.7-.2-.6-.7,0-.2.1-.3.3-.4,1-.6,1.9-1.2,2.7-1.9.9-.7,1.7-1.6,2.4-2.6.2-.3.4-.5.6-.5h0ZM93.4,10c.2,0,.4,0,.5.2.1.1.2.3,0,.5,0,0,0,.2-.2.4-.7,1-1.4,1.9-2.3,2.7-.8.7-1.6,1.4-2.5,2-.3.2-.4.3-.6.3-.5,0-.7-.2-.6-.6,0-.2.1-.3.3-.4.9-.6,1.7-1.2,2.5-1.9.8-.7,1.5-1.6,2.2-2.6.2-.3.3-.5.6-.5h0ZM105.1,15.4c.5,0,.6.2.5.7-.1.5-.4.7-.9.7h-2.9l-2.4,8.9c-.4,1.6-1.4,2.3-2.8,2.3s-2.1-.2-3.5-.6c-.3-.1-.4-.4-.4-.7.2-.5.4-.8.8-.8.1,0,.3,0,.6,0,1.5.4,2.5.6,3,.6s.7-.4.9-1.2l2.3-8.6h-6.2c-.5,0-.6-.2-.5-.7.1-.5.4-.7.9-.7h10.6ZM105.5,10.8c.5,0,.6.2.5.7s-.4.7-.9.7h-8.7c-.5,0-.6-.2-.5-.7s.4-.7.9-.7h8.7Z"/>
            <path class="st6" d="M115.6,13.3c.5,0,.6.2.5.7-.1.5-.4.7-.9.7h-1.6l-.2.8,1.1,3.5c0,.2,0,.4,0,.6-.1.5-.4.7-.9.7s-.3-.1-.4-.4l-.4-2.3-2.7,9.9c-.1.5-.4.7-.9.7s-.6-.2-.5-.7l2.5-9.3c0,0,0,.2,0,.2-.6,1.3-1.2,2.3-1.6,3-.6,1-1,1.8-1.3,2.2-.2.3-.5.4-.7.4-.5,0-.7-.2-.5-.6,0-.2.1-.4.3-.6,1.3-1.9,2.3-3.5,2.9-4.8.5-.9,1.1-2,1.6-3.3h-1.9c-.5,0-.6-.2-.5-.7.1-.5.4-.7.9-.7h2.2l.7-2.7c.1-.5.4-.7.9-.7s.6.2.5.7l-.7,2.7h1.6,0ZM121.1,16.8c.5,0,.7.2.6.7l-.4,1.4h4.8c.4,0,.6.2.5.6-.1.4-.4.6-.8.6h-7.5c-.1.6-.3,1-.4,1.5h5.9c.9,0,1.2.5.9,1.5-.3,1.1-.6,2.1-1,3-.4.8-.9,1.4-1.4,1.6-.6.3-1.4.4-2.4.4s-2.2-.2-3.5-.5c-.3-.2-.3-.4-.3-.6.2-.6.5-.9.9-.9,1.3.4,2.3.6,3.1.6s1.2,0,1.5-.2c.4-.2.7-.5.9-.9.2-.5.5-1.1.7-1.9.1-.5,0-.8-.4-.8h-5.4c-.2.3-.3.7-.5,1-.9,1.4-2.2,2.7-3.8,3.9-.2.2-.5.3-.7.3-.5,0-.7-.3-.6-.8,0,0,.1-.2.3-.5,1.5-1,2.7-2.2,3.6-3.4.6-1,1-2.1,1.3-3.2h-1.5c-.4,0-.6-.2-.5-.6.1-.4.4-.6.8-.6h4.1l.4-1.4c.1-.5.4-.7.9-.7h0ZM122.9,9.8c.5,0,.7.2.6.7l-.2.9h5.2c.4,0,.6.2.5.6-.1.5-.4.7-.8.7h-2.3l-1.3,2.1h1.5c.5,0,.9.2,1,.5.2.3.2.7,0,1.3,0,.4-.3.8-.5,1.3-.2.4-.5.5-.9.5s-.6-.2-.5-.7c.3-.6.5-.9.5-1.1.1-.4,0-.6-.4-.6h-7.9c-.3,0-.5.2-.6.5l-.4,1.4c-.1.4-.4.6-.9.6s-.6-.2-.4-.6l.6-2.1c.2-.7.7-1.1,1.4-1.1h1.6v-2.1c0,0-1.9,0-1.9,0-.4,0-.6-.2-.5-.7.1-.4.4-.6.8-.6h4.9l.2-.9c.1-.5.4-.7.9-.7h0ZM119.9,14.8h3.3l1.2-2.1h-4.4v2.1Z"/>
          </g>
        </g>
      </g>
    </g>
  </g>
</svg>