<?xml version="1.0" encoding="UTF-8"?>
<svg id="Layer_1" xmlns="http://www.w3.org/2000/svg" xmlns:xlink="http://www.w3.org/1999/xlink" version="1.1" viewBox="0 0 143.2 38">
  <!-- Generator: Adobe Illustrator 29.1.0, SVG Export Plug-In . SVG Version: 2.1.0 Build 142)  -->
  <defs>
    <style>
      .st0, .st1 {
        fill: none;
      }

      .st2 {
        fill: url(#linear-gradient2);
      }

      .st3 {
        fill: url(#linear-gradient1);
      }

      .st4 {
        fill: url(#linear-gradient3);
      }

      .st5 {
        fill: #040403;
        opacity: .1;
      }

      .st5, .st6 {
        isolation: isolate;
      }

      .st1 {
        clip-path: url(#clippath);
      }

      .st7 {
        fill: url(#linear-gradient);
      }

      .st8 {
        mix-blend-mode: multiply;
      }

      .st9 {
        clip-path: url(#clippath-1);
      }

      .st10 {
        fill: #fff;
      }
    </style>
    <linearGradient id="linear-gradient" x1="2.4" y1="17.4" x2="110.5" y2="17.4" gradientUnits="userSpaceOnUse">
      <stop offset="0" stop-color="#f9e0ac"/>
      <stop offset="1" stop-color="#f9b653"/>
    </linearGradient>
    <linearGradient id="linear-gradient1" x1="99.7" x2="140.1" xlink:href="#linear-gradient"/>
    <linearGradient id="linear-gradient2" x1="0" y1="21.4" x2="108.2" y2="21.4" gradientTransform="translate(0 38.8) scale(1 -1)" gradientUnits="userSpaceOnUse">
      <stop offset="0" stop-color="#f9b653"/>
      <stop offset="1" stop-color="#f9e0ac"/>
    </linearGradient>
    <linearGradient id="linear-gradient3" x1="97.3" x2="137.7" xlink:href="#linear-gradient2"/>
    <clipPath id="clippath">
      <polygon class="st0" points="-17.7 -26 -17.4 -26 -17.7 -25.8 -17.7 -26"/>
    </clipPath>
    <clipPath id="clippath-1">
      <polygon class="st1" points="-18.2 -26.5 -18.4 -26.5 -18.2 -26.8 -18.2 -26.5"/>
    </clipPath>
  </defs>
  <g class="st6">
    <g id="Layer_2">
      <g id="_層_1">
        <g>
          <g>
            <path class="st5" d="M125,3.2h-24.5c10,0,18.2,7.8,18.2,17.4s-8.2,17.4-18.2,17.4h24.5c10,0,18.2-7.8,18.2-17.4s-8.2-17.4-18.2-17.4Z"/>
            <path class="st5" d="M21.4,38h74.1c10,0,18.2-7.8,18.2-17.4S105.5,3.2,95.5,3.2H21.4C11.4,3.2,3.2,11,3.2,20.6s8.2,17.4,18.2,17.4h0Z"/>
            <g>
              <g>
                <path class="st7" d="M110.5,17.4c0,9.6-8.2,17.4-18.2,17.4H20.6c-10,0-18.2-7.8-18.2-17.4S10.6,0,20.6,0h71.7C102.3,0,110.5,7.8,110.5,17.4Z"/>
                <path class="st3" d="M121.9,0h-22.2C109.7,0,117.9,7.8,117.9,17.4s-8.2,17.4-18.2,17.4h22.2c10,0,18.2-7.8,18.2-17.4S131.9,0,121.9,0Z"/>
              </g>
              <g>
                <g>
                  <path class="st2" d="M108.1,17.4c0,9.6-8.2,17.4-18.2,17.4H18.2c-10,0-18.2-7.8-18.2-17.4S8.2,0,18.2,0h71.7C100,0,108.2,7.8,108.2,17.4h0Z"/>
                  <path class="st4" d="M119.5,0h-22.2C107.3,0,115.5,7.8,115.5,17.4s-8.2,17.4-18.2,17.4h22.2c10,0,18.2-7.8,18.2-17.4S129.5,0,119.5,0Z"/>
                </g>
                <path class="st10" d="M128.8,16.7c-2.4-2.4-4.8-4.8-7.2-7.3-.9-.9-2.3.5-1.4,1.4,2.2,2.2,4.3,4.4,6.5,6.6-2.2,2.2-4.3,4.4-6.5,6.6-.9.9.5,2.3,1.4,1.4,2.4-2.4,4.8-4.8,7.2-7.3.4-.4.4-1,0-1.4Z"/>
              </g>
            </g>
          </g>
          <g>
            <g class="st8">
              <g class="st9">
                <image class="st6" width="615" height="368" transform="translate(-91.7 -70.4) scale(.2)" xlink:href="popular-post-title-1.png"/>
              </g>
            </g>
            <g>
              <path class="st10" d="M20.8,20.9c.4,0,.6.2.5.6,0,.2-.2.5-.5.8-.9,1-1.6,1.8-2.3,2.4-.2,0-.4.1-.5.1-.4,0-.6-.2-.5-.5,0-.2.1-.3.3-.5.9-.8,1.8-1.6,2.5-2.5.2-.2.4-.3.6-.3ZM26.3,16.6c.3,0,.4.1.3.5-.1.4-.3.6-.6.6h-2.5l-.4,1.4c.9-.1,1.6-.2,2.3-.3.1,0,.2,0,.3,0,.3,0,.4.2.3.5,0,.2-.2.4-.5.5-.8.2-1.9.4-3.2.6-1,.1-2.2.3-3.6.4-.3,0-.5-.2-.4-.6,0-.3.3-.5.7-.6,1.2,0,2.2-.1,2.9-.2l.4-1.5h-2.5c-.3,0-.4-.2-.3-.6,0-.3.3-.5.6-.5h2.5l.3-1.1c.1-.4.3-.6.7-.6s.6.2.5.6l-.3,1.1h2.5,0ZM28.1,10.2c.3,0,.4.1.3.5-.1.4-.3.5-.6.5h-2.6l-.3,1.2h3.1c.3,0,.5.1.4.5-.1.4-.3.5-.6.5h-1.6l-.3,1c0,.2,0,.3.1.3h1.6c.3,0,.4.2.3.5,0,.3-.2.5-.5.5h-1.9c-.6,0-.9-.3-.7-.9l.4-1.4h-2c-.2.5-.4,1-.6,1.2-.3.4-.6.7-1,.9-.5.3-1,.4-1.5.5h-.2c-.3,0-.4-.2-.3-.6,0-.3.3-.4.5-.5.4,0,.7-.1,1-.3.3-.1.5-.4.7-.6.1-.2.2-.4.4-.7h-1.4c-.3,0-.4-.2-.3-.5,0-.3.3-.5.6-.5h2.9l.3-1.2h-2.5c-.3,0-.4-.2-.4-.5,0-.3.3-.5.6-.5h2.5l.2-.8c.1-.4.4-.6.8-.6s.6.2.5.6l-.2.8h2.6,0ZM23.9,21.1c.3,0,.5.1.5.3,0,.5,0,1.2,0,2.3,0,.2,0,.4,0,.5-.1.4-.4.5-.8.5s-.5-.2-.4-.5c0-.9,0-1.7,0-2.4v-.2c0-.3.3-.5.7-.5h0ZM29.7,11.3h1.3c.2-.6.4-1.2.5-1.8.1-.4.3-.5.7-.5s.6.2.5.5c-.2.6-.3,1.2-.5,1.8h1.3c.7,0,.9.4.7,1l-1.1,4.1c-.2.6-.2,1.2,0,1.9,0,.1,0,.1.1.1s.3-.5.7-1.4c.1-.3.3-.5.7-.5.3,0,.5.2.4.6,0,.2-.3.7-.7,1.4-.4.7-.7,1.2-1,1.4-.2.2-.5.3-.7.3s-.5,0-.6-.3c-.2-.2-.4-.6-.4-1.1,0-.7,0-1.5.3-2.5l1-3.5c0-.4,0-.5-.4-.5h-.8c-.3.8-.6,1.6-.9,2.4-.2.4-.3.7-.5,1,.1.4.3.8.4,1.1,0,.1,0,.3,0,.4-.1.4-.4.6-.9.6s-.2,0-.3-.1c0-.2-.1-.4-.2-.5-.7,1.1-1.5,2.2-2.5,3.2-.2.2-.4.3-.6.3-.4,0-.5-.2-.4-.6,0,0,0-.1.2-.3,1.1-1.1,2-2.4,2.8-3.8-.2-.6-.5-1.2-.7-1.8,0-.1-.1-.2,0-.2.1-.4.4-.6.8-.6s.2,0,.2.2c.2.3.4.6.5.9,0,0,0,0,0-.1.3-.7.6-1.4.8-2.1h-1.2c-.4,0-.5-.2-.4-.5.1-.4.3-.6.7-.6h0ZM27.9,21c.3,0,.5.1.5.3,0,.5,0,1.3,0,2.4,0,.2,0,.4,0,.5-.1.4-.4.5-.8.5s-.5-.2-.4-.5c0-1,.1-1.8,0-2.5v-.2c0-.3.3-.5.6-.5h0ZM31.5,20.8c.1,0,.2,0,.3.2.6.8,1.2,1.6,1.6,2.6,0,.2,0,.3,0,.4-.1.4-.4.6-.8.6s-.2,0-.3-.1c-.5-.9-1-1.8-1.6-2.7,0-.2,0-.3,0-.4.1-.4.4-.6.8-.6h0Z"/>
              <path class="st10" d="M39.8,16.9l-2,7.4c0,.4-.3.5-.7.5s-.5-.2-.4-.5l3.6-13.4c.3-1.1.9-1.6,2-1.6h3.5c.9,0,1.2.4,1,1.2l-1.4,5.1c-.2.9-.8,1.3-1.6,1.3h-3.9,0ZM44.6,13.6h-4l-.6,2.1h3.6c.2,0,.4-.1.5-.4,0,0,.5-1.7.5-1.7ZM44.6,10.4h-2.5c-.4,0-.6.2-.7.6l-.4,1.6h4l.5-1.8c0-.2,0-.4-.3-.4h-.5ZM50.9,9.3h2.9c1.1,0,1.5.5,1.2,1.6l-3.3,12.4c-.3,1.1-1,1.6-2,1.6s-1.6,0-2.8-.3c-.3-.1-.4-.3-.3-.6.1-.4.3-.6.7-.6,0,0,.2,0,.5,0,1.1.1,1.8.2,2.2.2s.5-.3.7-.9l1.6-5.8h-4.3c-.9,0-1.2-.4-.9-1.3l1.4-5.1c.2-.8.8-1.2,1.6-1.2,0,0,1,0,1,0ZM52.5,15.7l.6-2.1h-4.4l-.4,1.6c0,.3,0,.5.3.5h4ZM48.9,12.6h4.4l.4-1.6c0-.4,0-.6-.4-.6h-3.5c-.3,0-.5.1-.5.4l-.5,1.8Z"/>
              <path class="st10" d="M66.6,9c.3,0,.5.2.3.7,0,.3-.4.5-.8.6-.6,0-1.3.1-2.2.2l-.3,1.1h3c.3,0,.5.2.4.5,0,.4-.3.5-.7.5h-3l-.3,1h2.2c.7,0,.9.3.8.9l-.9,3.5c-.2.6-.6,1-1.3,1h-2.2l-.3,1.2h2.6c.4,0,.5.2.4.5,0,.4-.3.5-.7.5h-2.6l-.4,1.5c1-.1,1.9-.2,2.8-.4.4,0,.5.2.4.5-.1.4-.4.6-.8.6-2.7.5-5.2.8-7.5,1-.4,0-.5-.2-.4-.8.1-.4.4-.6.8-.6,1.2,0,2.4,0,3.5-.2l.4-1.6h-3c-.4,0-.5-.2-.4-.5,0-.4.3-.5.7-.5h3l.3-1.2h-2.5c-.6,0-.9-.3-.7-1l1-3.5c.2-.6.6-.9,1.2-.9h2.5l.3-1h-3.5c-.4,0-.5-.2-.4-.5,0-.4.3-.5.7-.5h3.5l.3-1c-1.3,0-2.2.1-2.8.1s-.6-.2-.5-.6c0-.4.3-.5.7-.5,1.1,0,2.1,0,3.1-.1,1.2,0,2.3-.2,3.4-.4h0ZM60.7,18.1l.3-1.1h-2.2l-.2.8c0,.3,0,.4.2.4h1.9ZM59,15.9h2.2l.3-1.1h-1.9c-.2,0-.4.1-.4.4,0,0-.2.7-.2.7ZM63.6,18.1c.3,0,.4-.1.5-.4l.2-.8h-2.1l-.3,1.1h1.7ZM62.8,14.8l-.3,1.1h2.1l.2-.7c0-.3,0-.4-.3-.4h-1.7,0ZM67.9,12.1h1.6c.3-.9.5-1.7.8-2.6,0-.4.3-.6.8-.6s.6.2.4.6c-.2.9-.5,1.7-.8,2.6h1.8c.8,0,1,.4.8,1.4-.7,2.5-1.3,4.7-2,6.8-.6,1.8-1.1,3-1.7,3.5-.5.6-1.1.9-1.9.9s-1-.1-1.5-.4c-.2-.1-.3-.3-.3-.5.1-.5.4-.8.8-.8.5.3.9.4,1.2.4s.8-.3,1.1-.8c.3-.5.7-1.5,1.2-2.9.5-1.6,1.1-3.5,1.7-5.8.1-.4,0-.6-.4-.6h-1.3c-.4,1.2-.8,2.3-1.2,3.4-1.2,2.9-2.8,5.4-4.6,7.7-.2.2-.4.3-.6.3-.5,0-.6-.2-.5-.7,0,0,0-.2.2-.4,1.7-2.1,3.2-4.6,4.3-7.3.4-1,.8-1.9,1.1-3h-1.5c-.4,0-.6-.2-.4-.6s.4-.6.8-.6h0Z"/>
              <path class="st10" d="M76.7,20.4c.2,0,.3,0,.4.1.1.1.2.2.1.4,0,0,0,.2-.2.3-.3.6-.6,1.1-.9,1.6-.3.4-.6.8-.9,1.2-.2.2-.4.3-.5.3-.5,0-.7-.2-.6-.6,0-.1.1-.3.2-.4.3-.3.6-.7.9-1.1.3-.4.6-.9.8-1.4.1-.3.3-.4.5-.4h0ZM78.8,12.7h4.3c.8,0,1,.4.8,1.1l-1.3,4.9c-.2.8-.8,1.2-1.6,1.2s-.8,0-1.3-.2c-.2,0-.3-.2-.2-.5.1-.4.3-.6.6-.6s.2,0,.3,0c.3.1.6.2.8.2s.3-.2.4-.6l.2-.8h-4.3l-.6,2.1c0,.4-.3.5-.8.5s-.5-.2-.4-.5l1.5-5.7c.2-.7.7-1.1,1.5-1.1h0ZM80.8,8.8c.2,0,.3,0,.4.2,0,.1,0,.3,0,.4,0,.1-.1.3-.2.4-.3.4-.7.7-1.1,1.1,0,0,0,0-.2.1,1.1,0,2.2-.2,3.2-.3,0-.1-.1-.2-.2-.3,0-.2,0-.3,0-.3.1-.4.4-.6.8-.6s.2,0,.3.2c.4.5.8,1.2,1.1,1.9,0,.2,0,.3,0,.4,0,.4-.3.6-.8.6s-.2,0-.3-.1c-.2-.3-.3-.6-.5-.8-2.2.3-4.3.5-6.2.7-.3,0-.4-.2-.3-.6,0-.3.3-.5.6-.5.2,0,.5,0,.7,0,.2-.2.4-.4.6-.5.5-.5.9-1,1.4-1.5.2-.2.4-.2.6-.2h0ZM77.7,16.5h4.3l.3-1h-4.3l-.3,1ZM79.4,20.2c.4,0,.6.2.4.6l-.5,1.9c-.1.4,0,.7.3.8.4.1,1.2.2,2.4.2s1.9,0,2.3,0c.3,0,.5,0,.6-.2.2,0,.3-.5.5-1.1.1-.4.4-.6.8-.6.4,0,.5.3.4.8,0,.3-.2.7-.4,1-.2.5-.6.8-1.1,1-.4.2-1.4.3-3,.3s-3.1-.1-3.6-.3c-.5-.3-.7-.8-.5-1.5l.6-2.1c.1-.4.4-.6.8-.6h0ZM78.2,14.6h4.3v-.4c.2-.4,0-.5-.3-.5h-3.3c-.3,0-.5.2-.6.5v.4ZM82.8,19.8c.2,0,.3,0,.4.2.2.5.4,1.2.5,1.9,0,.1,0,.3,0,.4,0,.4-.4.5-.8.5s-.3-.1-.4-.4c0-.8-.2-1.3-.3-1.8,0-.2,0-.3,0-.4,0-.3.3-.5.8-.5h0ZM85.4,14.4c.4,0,.6.2.4.6l-.3,1.1c.6,0,1.2-.1,1.7-.2.9-.1,1.8-.4,2.7-.8.4,0,.6.2.5.7,0,.2-.2.4-.5.5-.7.2-1.4.4-2.2.6-.9.1-1.7.2-2.5.3l-.2.6c-.1.4,0,.7.1.8.3.1.8.2,1.7.2s1.6,0,2,0c.3,0,.4-.1.5-.2.1-.1.3-.5.5-1.1,0-.4.3-.5.7-.5.4,0,.5.3.4.8,0,.3-.2.7-.4,1-.2.5-.5.8-1,1-.4.2-1.2.2-2.7.2s-2.4-.1-2.8-.3c-.4-.3-.5-.8-.3-1.5l.8-3.1c.1-.4.3-.6.7-.6h0ZM86.9,9c.4,0,.6.2.4.6l-.2.7c.6,0,1.2-.1,1.7-.2.9-.1,1.7-.3,2.7-.5.4,0,.6.2.5.7,0,.2-.2.4-.5.5-.7.2-1.4.3-2.1.4-.9.1-1.7.2-2.5.2v.5c-.2.4-.2.7,0,.8.3.1.8.2,1.6.2s1.8,0,2.2,0c.3,0,.4,0,.6-.2.2,0,.3-.4.4-.9.1-.4.3-.5.7-.6.4,0,.5.3.4.8,0,.3-.2.6-.4.9-.2.4-.5.7-1,.9-.4.1-1.3.2-2.8.2s-2.4-.1-2.8-.3c-.4-.3-.5-.8-.3-1.6l.7-2.4c.1-.4.3-.6.7-.6h0ZM88.3,20.5c.2,0,.3.1.5.3.4.8.7,1.7.8,2.7,0,.2,0,.3,0,.5,0,.4-.4.5-.9.5s-.3-.1-.3-.5c-.2-1.1-.4-2-.8-2.7,0-.2,0-.3,0-.4,0-.4.4-.5.8-.5Z"/>
            </g>
          </g>
        </g>
      </g>
    </g>
  </g>
</svg>