<?xml version="1.0" encoding="utf-8"?>
<!-- Generator: Adobe Illustrator 26.2.1, SVG Export Plug-In . SVG Version: 6.00 Build 0)  -->
<svg version="1.1" id="Layer_1" xmlns="http://www.w3.org/2000/svg" xmlns:xlink="http://www.w3.org/1999/xlink" x="0px" y="0px"
	 viewBox="0 0 20 18.6" style="enable-background:new 0 0 20 18.6;" xml:space="preserve">
<style type="text/css">
	.st0{fill:url(#SVGID_1_);}
	.st1{fill:url(#SVGID_00000036249015646802659230000002330305758481436087_);}
</style>
<g id="Layer_1_00000098917648203178557280000006896503324000428989_">
</g>
<g id="Layer_2_00000055709453191712861590000004331279790335898771_">
	<g id="_層_1">
		<g>
			
				<linearGradient id="SVGID_1_" gradientUnits="userSpaceOnUse" x1="12.505" y1="1.44" x2="12.505" y2="16.44" gradientTransform="matrix(1 0 0 -1 0 20)">
				<stop  offset="4.726487e-04" style="stop-color:#FF9800"/>
				<stop  offset="1" style="stop-color:#FFB033"/>
			</linearGradient>
			<path class="st0" d="M18.8,3.6H6.2C5.6,3.6,5,4.1,5,4.8v12.5c0,0.7,0.6,1.2,1.2,1.2h12.5c0.7,0,1.2-0.6,1.2-1.2V4.8
				C20,4.1,19.4,3.6,18.8,3.6L18.8,3.6z M18.7,7.8v5.1c0,0.6-0.5,1-1,1H7.3c-0.6,0-1-0.5-1-1v-7c0-0.6,0.5-1,1-1h10.4
				c0.6,0,1,0.5,1,1C18.7,5.9,18.7,7.8,18.7,7.8z"/>
			
				<linearGradient id="SVGID_00000033346056251559773500000014379546414193867142_" gradientUnits="userSpaceOnUse" x1="7.58" y1="2.6301" x2="7.58" y2="19.9999" gradientTransform="matrix(1 0 0 -1 0 20)">
				<stop  offset="4.726487e-04" style="stop-color:#FF9800"/>
				<stop  offset="1" style="stop-color:#FFB033"/>
			</linearGradient>
			<path style="fill:url(#SVGID_00000033346056251559773500000014379546414193867142_);" d="M4.5,14.4v-1.9l-0.3,0.1
				c-0.5,0.1-1.1-0.2-1.2-0.8l-0.4-2L2.5,9.5L2,7.2L1.9,6.8L1.5,4.9C1.4,4.4,1.7,3.8,2.3,3.7l10.2-2.2c0.6-0.1,1.1,0.2,1.2,0.8
				l0.2,0.9h1.3L14.7,1c-0.1-0.7-0.8-1.1-1.5-0.9L1,2.7C0.3,2.8-0.1,3.5,0,4.2l0.5,2.3l0.1,0.5l1.5,6.7L2.2,14l0.5,2.4
				c0.1,0.7,0.8,1.1,1.5,0.9l0.4-0.1c0-0.1-0.1-0.2-0.1-0.4L4.5,14.4L4.5,14.4z"/>
		</g>
	</g>
</g>
</svg>
