<?xml version="1.0" encoding="UTF-8"?>
<svg xmlns="http://www.w3.org/2000/svg" width="20" height="18.56" xmlns:xlink="http://www.w3.org/1999/xlink" viewBox="0 0 20 18.56">
  <defs>
    <style>
      .cls-1 {
        fill: url(#_增漸層色票-2);
      }

      .cls-2 {
        fill: url(#_增漸層色票);
      }
    </style>
    <linearGradient id="_增漸層色票" data-name="新增漸層色票" x1="12.5" y1="18.56" x2="12.5" y2="3.56" gradientTransform="matrix(1, 0, 0, 1, 0, 0)" gradientUnits="userSpaceOnUse">
      <stop offset="0" stop-color="#b0124f"/>
      <stop offset="1" stop-color="#e83d80"/>
    </linearGradient>
    <linearGradient id="_增漸層色票-2" data-name="新增漸層色票" x1="7.58" y1="17.38" x2="7.58" y2="0" xlink:href="#_增漸層色票"/>
  </defs>
  <g id="Layer_1" data-name="Layer 1"/>
  <g id="Layer_2" data-name="Layer 2">
    <g id="_層_1" data-name="圖層 1">
      <g>
        <path class="cls-2" d="M18.77,3.56H6.24c-.68,0-1.23,.56-1.23,1.23v12.53c0,.68,.56,1.24,1.23,1.24h12.53c.68,0,1.23-.56,1.23-1.24V4.8c0-.68-.56-1.23-1.23-1.23Zm-.04,4.22v5.12c0,.56-.46,1.03-1.03,1.03H7.3c-.56,0-1.03-.46-1.03-1.03V5.86c0-.56,.46-1.03,1.03-1.03h10.4c.56,0,1.03,.46,1.03,1.03v1.92Z"/>
        <path class="cls-1" d="M4.49,14.45v-1.91l-.28,.06c-.55,.12-1.1-.23-1.22-.78l-.43-1.99-.07-.32-.49-2.27-.09-.43-.41-1.88c-.12-.55,.23-1.1,.78-1.22L12.45,1.5c.55-.12,1.1,.23,1.22,.78l.19,.86h1.3l-.47-2.17c-.14-.66-.81-1.09-1.47-.94L.97,2.7C.31,2.84-.12,3.5,.03,4.17l.49,2.26,.11,.51,1.46,6.68,.08,.39,.52,2.39c.14,.66,.81,1.09,1.47,.94l.38-.08c-.04-.12-.06-.24-.06-.36v-2.45Z"/>
      </g>
    </g>
  </g>
</svg>