<?xml version="1.0" encoding="UTF-8"?>
<svg id="Layer_1" xmlns="http://www.w3.org/2000/svg" xmlns:xlink="http://www.w3.org/1999/xlink" version="1.1" viewBox="0 0 162.7 43.2">
  <!-- Generator: Adobe Illustrator 29.1.0, SVG Export Plug-In . SVG Version: 2.1.0 Build 142)  -->
  <defs>
    <style>
      .st0 {
        fill: url(#linear-gradient2);
      }

      .st1 {
        fill: url(#linear-gradient1);
      }

      .st2 {
        fill: url(#linear-gradient3);
      }

      .st3 {
        fill: #040403;
        opacity: .1;
      }

      .st3, .st4 {
        isolation: isolate;
      }

      .st5 {
        fill: url(#linear-gradient);
      }

      .st6 {
        fill: #fff;
      }
    </style>
    <linearGradient id="linear-gradient" x1="2.7" y1="19.8" x2="125.5" y2="19.8" gradientUnits="userSpaceOnUse">
      <stop offset="0" stop-color="#f9e0ac"/>
      <stop offset="1" stop-color="#f9b653"/>
    </linearGradient>
    <linearGradient id="linear-gradient1" x1="113.2" x2="159.1" xlink:href="#linear-gradient"/>
    <linearGradient id="linear-gradient2" x1="0" y1="25" x2="122.8" y2="25" gradientTransform="translate(0 44.8) scale(1 -1)" gradientUnits="userSpaceOnUse">
      <stop offset="0" stop-color="#f9b653"/>
      <stop offset="1" stop-color="#f9e0ac"/>
    </linearGradient>
    <linearGradient id="linear-gradient3" x1="110.5" x2="156.4" xlink:href="#linear-gradient2"/>
  </defs>
  <g class="st4">
    <g id="Layer_2">
      <g id="_圖層_1" data-name="圖層_1">
        <path class="st3" d="M142,3.6h-27.9c11.4,0,20.7,8.9,20.7,19.8s-9.3,19.8-20.7,19.8h27.9c11.4,0,20.7-8.9,20.7-19.8s-9.3-19.8-20.7-19.8Z"/>
        <path class="st3" d="M24.3,43.1h84.1c11.4,0,20.7-8.9,20.7-19.8S119.8,3.6,108.4,3.6H24.3C12.9,3.6,3.6,12.5,3.6,23.4s9.3,19.8,20.7,19.8Z"/>
        <path class="st5" d="M125.5,19.8c0,10.9-9.3,19.8-20.7,19.8H23.4c-11.4,0-20.7-8.9-20.7-19.8S12,0,23.4,0h81.5C116.2,0,125.5,8.9,125.5,19.8Z"/>
        <path class="st1" d="M138.4,0h-25.2C124.6,0,133.9,8.9,133.9,19.8s-9.3,19.8-20.7,19.8h25.2c11.4,0,20.7-8.9,20.7-19.8S149.8,0,138.4,0Z"/>
        <path class="st0" d="M122.8,19.8c0,10.9-9.3,19.8-20.7,19.8H20.7C9.3,39.6,0,30.7,0,19.8S9.3,0,20.7,0h81.4C113.5,0,122.8,8.9,122.8,19.8Z"/>
        <path class="st2" d="M135.7,0h-25.2C121.9,0,131.2,8.9,131.2,19.8s-9.3,19.8-20.7,19.8h25.2c11.4,0,20.7-8.9,20.7-19.8S147.1,0,135.7,0Z"/>
        <path class="st6" d="M146.3,19l-8.1-8.2c-.4-.4-1.2-.4-1.6,0-.4.4-.4,1.2,0,1.6h0l7.4,7.4-7.4,7.4c-1,1,.6,2.6,1.6,1.6l8.1-8.2c.4-.4.4-1.1,0-1.6Z"/>
        <path class="st6" d="M23.7,23.7c.5,0,.6.2.5.7-.1.3-.3.6-.6.9-.8,1-1.7,1.9-2.7,2.7-.2,0-.4.2-.6.2-.5,0-.6-.2-.5-.6,0-.2.2-.4.3-.6,1.1-.9,2-1.8,2.9-2.9.2-.2.4-.4.7-.4ZM30,18.8c.4,0,.5.2.4.5s-.4.6-.7.6h-2.9l-.4,1.6c1-.1,1.9-.2,2.7-.4.1,0,.2,0,.4-.1.3,0,.5.2.4.6,0,.3-.3.5-.5.6-1,.2-2.2.4-3.7.6-1.1.2-2.5.3-4.2.5-.4,0-.6-.2-.5-.7,0-.4.4-.7.8-.7,1.4,0,2.5-.2,3.4-.2l.5-1.7h-2.8c-.4,0-.5-.2-.4-.6,0-.3.3-.5.7-.5h2.8l.4-1.3c0-.4.4-.7.8-.6.5,0,.6.2.5.6l-.4,1.3h2.9ZM32,11.4c.4,0,.5.2.4.5s-.3.6-.7.6h-3l-.4,1.5h3.5c.4,0,.5.2.4.5,0,.4-.4.6-.7.6h-1.8l-.3,1.2c0,.2,0,.3.1.3h1.8c.3,0,.4.2.3.5s-.3.5-.6.5h-2.2c-.7,0-1-.3-.8-1l.4-1.6h-2.4c-.2.5-.4,1-.6,1.4-.3.4-.7.8-1.1,1.1-.5.3-1.1.5-1.8.6h-.2c-.3,0-.5-.2-.4-.6,0-.3.3-.5.6-.5.4,0,.8-.1,1.2-.3.3-.2.6-.4.8-.7.2-.3.3-.5.4-.8h-1.6c-.4,0-.5-.2-.4-.6,0-.3.3-.5.7-.5h3.3l.4-1.4h-2.9c-.4,0-.5-.2-.4-.6,0-.3.4-.6.7-.5h2.9l.2-.9c0-.4.5-.7.9-.7.5,0,.6.2.5.7l-.2.9h3ZM27.2,24c.3,0,.5.1.6.4.1.9.1,1.8,0,2.6,0,.2,0,.3,0,.5,0,.4-.5.7-.9.6-.4,0-.6-.2-.5-.6,0-.9,0-1.8,0-2.7v-.3c0-.3.4-.6.7-.5ZM33.9,12.6h1.5c.2-.7.4-1.4.6-2.1,0-.4.4-.7.8-.6.5,0,.7.2.5.6-.2.7-.4,1.4-.6,2.1h1.5c.8,0,1.1.4.8,1.2l-1.3,4.8c-.2.7-.2,1.4,0,2.2,0,.1,0,.2.2.2s.4-.5.8-1.6c.1-.3.4-.5.8-.5.4,0,.5.3.4.7-.2.6-.5,1.1-.8,1.6-.3.6-.7,1.1-1.1,1.6-.2.2-.5.3-.8.4-.3,0-.5,0-.7-.3-.3-.3-.5-.8-.5-1.2,0-1,0-2,.4-2.9l1.1-4.1c0-.4,0-.6-.5-.6h-.9c-.3.9-.7,1.8-1.1,2.7-.2.4-.4.8-.6,1.1.2.4.3.9.5,1.3,0,.1,0,.3,0,.4,0,.5-.5.8-1,.7-.1,0-.2,0-.3-.1,0-.2-.1-.4-.2-.6-.8,1.3-1.8,2.5-2.9,3.7-.2.2-.4.3-.6.3-.5,0-.6-.2-.5-.7,0-.1.2-.3.2-.4,1.2-1.3,2.3-2.8,3.3-4.4-.3-.7-.5-1.3-.8-2,0,0,0-.2,0-.3,0-.4.5-.7.9-.6,0,0,.2,0,.3.2.2.4.4.7.6,1.1,0,0,0,0,0-.1.3-.8.7-1.6,1-2.4h-1.4c-.4,0-.5-.2-.4-.6,0-.4.4-.7.8-.7h0ZM31.8,23.8c.3,0,.5.1.6.4,0,.9,0,1.8,0,2.7,0,.2,0,.4,0,.5,0,.4-.5.7-.9.6-.4,0-.5-.2-.4-.6.1-1,.1-1.9,0-2.9v-.3c0-.3.4-.5.7-.5ZM36,23.6c.1,0,.2,0,.3.2.7.9,1.4,1.9,1.9,3,0,.2,0,.3,0,.5,0,.5-.5.8-1,.7-.1,0-.2,0-.3-.2-.5-1.1-1.2-2.1-1.8-3.1,0-.1,0-.3,0-.4,0-.5.5-.8,1-.7Z"/>
        <path class="st6" d="M50,9.9c.2,0,.5.2.7.5l1.9,2.8c0,.2.1.4,0,.6-.1.4-.5.7-.9.7-.1,0-.2,0-.3-.2l-1.5-2.5c0-.1-.1-.2-.2-.2-.1,0-.2,0-.3.2-.9,1.1-1.9,2.1-3,3,.1,0,.2,0,.4,0h4.1c.4,0,.6.2.5.6,0,.4-.4.6-.8.6h-1.6l-.6,2.3h2.1c.4,0,.6.2.5.6,0,.4-.4.7-.8.7h-2.1l-1.6,6c.8-.2,1.4-.4,2-.5,0,0,.2,0,.3,0,.3,0,.5.2.4.5,0,.3-.3.5-.6.6-1,.4-2,.7-3,.9-1.1.3-2.2.5-3.3.6-.4,0-.5-.3-.4-.7,0-.4.4-.7.7-.7.8,0,1.7-.2,2.5-.4l1.7-6.2h-2.2c-.4,0-.5-.2-.4-.7,0-.4.4-.6.8-.6h2.3l.6-2.3h-1.3c-.4,0-.5-.2-.4-.6,0-.1,0-.2.1-.3l-.3.2c-.2.2-.5.3-.7.3-.5,0-.6-.3-.5-.7,0-.3.2-.5.5-.6,1.5-1,2.8-2.2,4-3.6.4-.5.7-.8,1-.8ZM44.6,20.3c.2,0,.5.1.5.4,0,0,0,0,0,0,0,1-.2,1.9-.3,2.9,0,.3,0,.5,0,.6,0,.4-.4.6-.8.5-.4,0-.5-.2-.5-.5.2-1.2.4-2.2.5-3.1v-.3c0-.3.4-.5.7-.5ZM49.6,20.5c.2,0,.3,0,.4.1.1,0,.2.2.2.3,0,.1-.1.3-.2.4-.5,1-1,1.9-1.4,2.7-.1.1-.3.2-.5.2-.5,0-.7-.1-.6-.5,0-.1,0-.2.2-.3.4-.7.8-1.6,1.3-2.7.1-.2.3-.3.6-.3h0ZM58.8,9.9c.5,0,.6.2.5.7l-1.3,4.7h2.7c.9,0,1.2.4,1,1.3l-2.7,9.9c-.2,1-1.1,1.8-2.2,1.7-.8,0-1.6-.2-2.3-.5-.2,0-.4-.3-.3-.5,0,0,0,0,0,0,.1-.5.4-.8.8-.8.2,0,.3,0,.5.1.5.2,1,.3,1.6.4.3,0,.5-.3.7-.8l.6-2.2h-6.5l-1,3.8c0,.4-.5.7-.9.7-.5,0-.6-.2-.5-.7l3-11c.2-.8.9-1.4,1.7-1.3h2.6l1.2-4.7c0-.4.4-.7.8-.7ZM52.1,22.6h6.6l.7-2.4h-6.6l-.7,2.4ZM54,10.7c.1,0,.3,0,.3.2.6.8,1.2,1.6,1.6,2.5,0,.2,0,.3,0,.5,0,.4-.5.6-.9.6-.1,0-.2,0-.3-.1-.5-.9-1.1-1.8-1.7-2.6,0-.1,0-.2,0-.4,0-.5.5-.8,1-.7ZM53.1,18.9h6.6l.5-1.8c0-.3,0-.5,0-.5h-6.1c-.2,0-.3.2-.4.5l-.4,1.8ZM63.2,10.5c.2,0,.4,0,.6.2.1,0,.2.3.1.4,0,.1-.1.3-.2.4-.9.9-1.8,1.8-2.9,2.6-.2.2-.4.3-.6.3-.6,0-.8-.2-.7-.6,0-.2.1-.3.2-.4,1-.8,2-1.6,2.8-2.5.1-.2.4-.4.6-.4h0Z"/>
        <path class="st6" d="M76.8,10c.5,0,.7.3.6.8l-.3,1.1h7.3c.4,0,.6.2.5.6,0,.4-.4.7-.8.7h-3.8l-1.5,2.3h3.1c.9,0,1.3.5,1,1.4l-2.4,9.1c-.2,1.2-1.3,2.1-2.5,2-.9,0-1.8-.1-2.7-.3-.2,0-.4-.3-.3-.5,0,0,0,0,0,0,.1-.5.4-.8.8-.8.2,0,.4,0,.6,0,.6.1,1.2.2,1.9.2.5,0,.9-.3.9-.8l2.2-8.4c.1-.4,0-.6-.4-.6h-3.6l-.4,1.4c0,.4,0,.6.3.6h2.6c.4,0,.6.2.4.6,0,.4-.4.6-.8.6h-2.8c-1,0-1.4-.5-1.1-1.6l.4-1.6h-2.4c-.2.6-.5,1.3-.9,1.8-.4.6-.9,1-1.5,1.4-.8.4-1.6.6-2.5.7h-.3c-.4,0-.5-.3-.4-.8,0-.3.4-.6.7-.6.6,0,1.3-.2,1.9-.5.4-.2.8-.5,1.1-.9.3-.3.5-.7.6-1.1h-3.4c-.4,0-.7.3-.7.6l-2.7,9.9c0,.4-.5.7-.9.7-.5,0-.6-.2-.5-.7l2.8-10.5c.2-.9,1-1.5,1.9-1.4h3.1l-.2-2.3h-3.8c-.4,0-.6-.2-.4-.7,0-.4.4-.7.8-.6h7.4l.3-1.1c0-.5.5-.8,1-.8ZM70.3,21.1h6.8c.7,0,.9.3.7,1l-.8,2.8c-.1.6-.7,1-1.2.9h-6.8c-.6,0-.9-.3-.7-.9l.8-2.8c0-.6.6-1,1.2-1ZM75.4,24.6c.3,0,.5-.2.6-.5l.3-1.3c0-.3,0-.5-.3-.5h-5.2c-.3,0-.5.2-.5.5l-.3,1.3c0,.3,0,.5.3.5h5.2ZM73.2,15.6h4.1l1.4-2.4h-5.7l.2,2.4Z"/>
        <path class="st6" d="M88.4,18.7h5.4c.8,0,1.1.4.9,1.1l-1.8,6.8c-.1.7-.8,1.2-1.5,1.2h-5.4c-.8,0-1.1-.4-.9-1.2l1.8-6.8c.1-.7.7-1.1,1.4-1.1ZM91,26.5c.4,0,.6-.2.7-.6l1.4-5.2c0-.4,0-.5-.4-.5h-3.9c-.3,0-.7.2-.7.5l-1.4,5.2c-.1.4,0,.6.4.6h3.9ZM92.8,10.5h10.6c.9,0,1.2.4,1,1.2l-1.1,4.2c-.1.8-.9,1.4-1.7,1.4h-10.6c-.9,0-1.2-.5-1-1.4l1.1-4.2c.1-.8.9-1.4,1.7-1.3h0ZM101.2,16c.5,0,.8-.3.9-.8l.7-2.7c.1-.5,0-.7-.5-.7h-9c-.4,0-.8.3-.9.7l-.7,2.7c-.1.5,0,.8.5.8h9ZM98.1,18.7h5.5c.8,0,1.1.4.9,1.1l-1.8,6.8c-.1.7-.8,1.2-1.5,1.2h-5.5c-.8,0-1.1-.4-.9-1.2l1.8-6.8c.1-.7.8-1.2,1.5-1.1h0ZM100.7,26.5c.4,0,.7-.3.7-.6l1.4-5.2c0-.4,0-.5-.4-.5h-3.9c-.3,0-.6.2-.7.5l-1.4,5.2c-.1.4,0,.6.4.6h3.9Z"/>
      </g>
    </g>
  </g>
</svg>