<?xml version="1.0" encoding="utf-8"?>
<!-- Generator: Adobe Illustrator 26.2.1, SVG Export Plug-In . SVG Version: 6.00 Build 0)  -->
<svg version="1.1" id="Layer_1" xmlns="http://www.w3.org/2000/svg" xmlns:xlink="http://www.w3.org/1999/xlink" x="0px" y="0px"
	 viewBox="0 0 152 51" style="enable-background:new 0 0 152 51;" xml:space="preserve">
<style type="text/css">
	.st0{clip-path:url(#SVGID_00000043438617706558161270000018436030337728937400_);}
	.st1{clip-path:url(#SVGID_00000116216534771767434460000014947703757617872319_);}
	.st2{fill:url(#SVGID_00000124856088452167977950000014948036821007071418_);}
	.st3{fill:#FFFFFF;}
</style>
<g>
	<g id="a">
	</g>
	<g id="b">
		<g id="c">
			<g>
				<g>
					<g>
						<defs>
							<polygon id="SVGID_1_" points="1,1 2,1 1,2 							"/>
						</defs>
						<defs>
							<polygon id="SVGID_00000010302640809116899270000005606677377267066791_" points="-1,-1 -2,-1 -1,-2 							"/>
						</defs>
						<clipPath id="SVGID_00000077324808986382019760000002968172086860876220_">
							<use xlink:href="#SVGID_1_"  style="overflow:visible;"/>
						</clipPath>
						
							<clipPath id="SVGID_00000011023448444370762610000015977523857028592062_" style="clip-path:url(#SVGID_00000077324808986382019760000002968172086860876220_);">
							<use xlink:href="#SVGID_00000010302640809116899270000005606677377267066791_"  style="overflow:visible;"/>
						</clipPath>
						
							<g style="opacity:0.7;clip-path:url(#SVGID_00000011023448444370762610000015977523857028592062_);enable-background:new    ;">
							
								<image style="overflow:visible;" width="152" height="51" xlink:href="3BC56FEB56192B26.png"  transform="matrix(1 0 0 1 -76 -25.5)">
							</image>
						</g>
					</g>
					<g>
						<g>
							<defs>
								<polygon id="SVGID_00000096048652444653560910000005667114555114940333_" points="11,10 12,10 11,11 								"/>
							</defs>
							<defs>
								<polygon id="SVGID_00000111149159418168825050000009129656121456260234_" points="9,8 8,8 9,7 								"/>
							</defs>
							<clipPath id="SVGID_00000177466326795540395750000010450220468096936358_">
								<use xlink:href="#SVGID_00000096048652444653560910000005667114555114940333_"  style="overflow:visible;"/>
							</clipPath>
							
								<clipPath id="SVGID_00000095298887092154907070000015445734809700689060_" style="clip-path:url(#SVGID_00000177466326795540395750000010450220468096936358_);">
								<use xlink:href="#SVGID_00000111149159418168825050000009129656121456260234_"  style="overflow:visible;"/>
							</clipPath>
							
								<g style="opacity:0.5;clip-path:url(#SVGID_00000095298887092154907070000015445734809700689060_);enable-background:new    ;">
								
									<image style="overflow:visible;" width="133" height="33" xlink:href="3BC56FEB56192B2A.png"  transform="matrix(1 0 0 1 -56.5 -7.5)">
								</image>
							</g>
						</g>
						
							<linearGradient id="SVGID_00000091695905460977778720000011332144337108510873_" gradientUnits="userSpaceOnUse" x1="74.75" y1="15.25" x2="74.75" y2="41.25" gradientTransform="matrix(1 0 0 -1 0 52)">
							<stop  offset="0" style="stop-color:#FF9800"/>
							<stop  offset="0.54" style="stop-color:#FFC369"/>
							<stop  offset="0.9995" style="stop-color:#FFDDA9"/>
						</linearGradient>
						<path style="fill:url(#SVGID_00000091695905460977778720000011332144337108510873_);" d="M24.5,10.8H125c7.2,0,13,5.8,13,13
							l0,0c0,7.2-5.8,13-13,13H24.5c-7.2,0-13-5.8-13-13l0,0C11.5,16.6,17.4,10.8,24.5,10.8z"/>
					</g>
				</g>
				<g>
					<path class="st3" d="M42.6,17.1c0.4,0,0.5,0.2,0.5,0.5v0.8h5.1c0.3,0,0.4,0.1,0.4,0.4c0,0.3-0.2,0.5-0.4,0.5h-2.7L45,21h2.2
						c0.7,0,1,0.3,1,1v6.4c0,1-0.5,1.4-1.4,1.4c-0.5,0-1.2-0.1-2-0.2c-0.2-0.1-0.3-0.2-0.3-0.4c0-0.4,0.1-0.5,0.4-0.5
						c0.1,0,0.3,0,0.4,0c0.6,0.1,1,0.2,1.4,0.2s0.5-0.2,0.5-0.6v-5.9c0-0.3-0.1-0.4-0.4-0.4h-2.6v1c0,0.3,0.1,0.4,0.3,0.4h1.8
						c0.3,0,0.4,0.1,0.4,0.4s-0.1,0.4-0.4,0.4h-2c-0.7,0-1.1-0.4-1.1-1.1V22h-1.7c0,0.6-0.2,1-0.3,1.3c-0.2,0.4-0.5,0.7-0.8,1
						c-0.4,0.3-1,0.4-1.6,0.5h-0.2c-0.3,0-0.4-0.2-0.4-0.5c0-0.2,0.1-0.4,0.4-0.4c0.5,0,0.9-0.1,1.2-0.3c0.3-0.2,0.5-0.4,0.6-0.6
						c0.1-0.2,0.2-0.5,0.2-0.8h-2.4c-0.3,0-0.4,0.1-0.4,0.4v6.9c0,0.3-0.2,0.5-0.5,0.5s-0.5-0.2-0.5-0.5V22c0-0.6,0.3-1,1-1h2.2
						l-0.5-1.6h-2.7c-0.3,0-0.4-0.2-0.4-0.5c0-0.3,0.2-0.4,0.4-0.4h5.2v-0.8C42.1,17.3,42.3,17.1,42.6,17.1L42.6,17.1z M40.2,24.9
						h4.8c0.5,0,0.7,0.2,0.7,0.7v2c0,0.4-0.2,0.7-0.7,0.7h-4.8c-0.4,0-0.7-0.2-0.7-0.7v-2C39.5,25.1,39.7,24.9,40.2,24.9z
						 M44.4,27.3c0.2,0,0.3-0.1,0.3-0.3v-0.9c0-0.2-0.1-0.3-0.3-0.3h-3.7c-0.2,0-0.3,0.1-0.3,0.3V27c0,0.2,0.1,0.3,0.3,0.3H44.4z
						 M41.2,21H44l0.6-1.6h-4L41.2,21z"/>
					<path class="st3" d="M52.4,23.2h3.8c0.6,0,0.8,0.3,0.8,0.8v4.8c0,0.5-0.3,0.8-0.8,0.8h-3.8c-0.6,0-0.8-0.3-0.8-0.8V24
						C51.6,23.5,51.8,23.2,52.4,23.2z M55.7,28.6c0.2,0,0.4-0.1,0.4-0.4v-3.7c0-0.2-0.1-0.4-0.4-0.4H53c-0.3,0-0.4,0.1-0.4,0.4v3.7
						c0,0.3,0.1,0.4,0.4,0.4H55.7z M54,17.5h7.4c0.6,0,0.9,0.3,0.9,0.9v3c0,0.6-0.3,0.9-0.9,0.9H54c-0.6,0-0.9-0.3-0.9-0.9v-3
						C53.1,17.8,53.4,17.5,54,17.5z M60.9,21.3c0.3,0,0.5-0.2,0.5-0.5v-1.9c0-0.3-0.2-0.5-0.5-0.5h-6.3c-0.3,0-0.5,0.2-0.5,0.5v1.9
						c0,0.4,0.2,0.5,0.5,0.5H60.9z M59.2,23.2h3.8c0.5,0,0.8,0.3,0.8,0.8v4.8c0,0.5-0.3,0.8-0.8,0.8h-3.8c-0.6,0-0.8-0.3-0.8-0.8V24
						C58.4,23.5,58.7,23.2,59.2,23.2z M62.5,28.6c0.3,0,0.4-0.1,0.4-0.4v-3.7c0-0.2-0.1-0.4-0.4-0.4h-2.7c-0.3,0-0.4,0.1-0.4,0.4
						v3.7c0,0.3,0.1,0.4,0.4,0.4H62.5z"/>
					<path class="st3" d="M72.4,19.3c0.3,0,0.5,0.2,0.5,0.5s-0.2,0.5-0.5,0.5H67c-0.3,0-0.5-0.2-0.5-0.5s0.2-0.5,0.5-0.5H72.4z
						 M68,25.1h3.4c0.6,0,0.9,0.3,0.9,0.9v2.6c0,0.6-0.3,0.9-0.9,0.9H68c-0.6,0-0.9-0.3-0.9-0.9V26C67.1,25.4,67.4,25.1,68,25.1z
						 M71.8,21.3c0.3,0,0.4,0.1,0.4,0.5c0,0.3-0.2,0.5-0.4,0.5h-4.2c-0.3,0-0.4-0.2-0.4-0.5c0-0.3,0.2-0.5,0.4-0.5H71.8z M71.8,23.3
						c0.3,0,0.4,0.1,0.4,0.4c0,0.3-0.2,0.5-0.4,0.5h-4.2c-0.3,0-0.4-0.2-0.4-0.5c0-0.3,0.2-0.4,0.4-0.4H71.8z M71.7,17.5
						c0.3,0,0.4,0.1,0.4,0.4c0,0.3-0.2,0.5-0.4,0.5h-4c-0.3,0-0.4-0.2-0.4-0.5c0-0.3,0.2-0.4,0.4-0.4H71.7z M71,28.6
						c0.2,0,0.4-0.1,0.4-0.4v-1.8c0-0.3-0.1-0.4-0.4-0.4h-2.5c-0.2,0-0.4,0.1-0.4,0.4v1.8c0,0.3,0.1,0.4,0.4,0.4H71z M78.9,17.5
						c0.3,0,0.5,0.2,0.5,0.5s-0.2,0.5-0.5,0.5h-1.4v9.7c0,1.1-0.6,1.6-1.9,1.6c-0.6,0-1.4-0.2-2.4-0.5c-0.3-0.1-0.4-0.2-0.4-0.5
						c0-0.4,0.2-0.5,0.4-0.5c0.1,0,0.2,0,0.4,0c1,0.3,1.7,0.5,2.1,0.5c0.5,0,0.7-0.3,0.7-0.8v-9.5h-3.1c-0.3,0-0.5-0.2-0.5-0.5
						s0.2-0.5,0.5-0.5L78.9,17.5L78.9,17.5z"/>
					<path class="st3" d="M82.6,17.5h2c0.5,0,0.8,0.2,0.8,0.7v7.3c0,0.4-0.2,0.6-0.5,0.7c0.1,0,0.1,0.1,0.1,0.2
						c0.1,1,0.3,1.9,0.6,2.7c0.1,0.1,0.1,0.2,0.1,0.3c0,0.1,0,0.2-0.1,0.3c-0.1,0.1-0.2,0.2-0.4,0.2c-0.1,0-0.3-0.1-0.4-0.2
						c-0.2-0.6-0.4-1.3-0.6-2.1c-0.1-0.5-0.1-0.9-0.1-1c0-0.1,0-0.2,0.1-0.3h-1c0,0,0.1,0.1,0.1,0.2c0,0.1,0,0.2,0,0.3
						c-0.3,1.1-0.6,2.1-0.9,3c-0.1,0.1-0.2,0.2-0.3,0.2c-0.3,0-0.5-0.1-0.5-0.4c0-0.1,0-0.2,0.1-0.2c0.3-0.8,0.6-1.7,0.9-2.9
						c0,0,0,0,0,0c-0.4,0-0.6-0.3-0.6-0.7v-7.3C81.9,17.8,82.2,17.5,82.6,17.5L82.6,17.5z M82.8,20h1.6v-1.4c0-0.2-0.1-0.3-0.3-0.3
						h-1c-0.2,0-0.3,0.1-0.3,0.3V20z M82.8,22.6h1.6v-1.8h-1.6V22.6z M84.2,25.3c0.2,0,0.3-0.1,0.3-0.4v-1.5h-1.6V25
						c0,0.2,0.1,0.4,0.3,0.4H84.2z M94,18c0.3,0,0.4,0.1,0.4,0.4c0,0.3-0.1,0.5-0.4,0.5h-1.8v0.7h1.5c0.2,0,0.4,0.1,0.4,0.4
						s-0.1,0.4-0.4,0.4h-1.5v0.9h2c0.2,0,0.4,0.1,0.4,0.4c0,0.3-0.1,0.4-0.4,0.4h-3.6V23h2.3c0.6,0,0.9,0.3,0.9,0.9v2.9h0.4
						c0.3,0,0.4,0.1,0.4,0.4c0,0.3-0.2,0.5-0.4,0.5h-0.4v0.9c0,0.9-0.5,1.3-1.5,1.3c-0.4,0-0.9-0.1-1.5-0.2
						c-0.2-0.1-0.3-0.2-0.3-0.4c0-0.4,0.1-0.5,0.4-0.5c0.1,0,0.2,0,0.3,0c0.4,0.1,0.8,0.2,1,0.2c0.5,0,0.7-0.2,0.7-0.6v-0.6h-5.4
						v1.8c0,0.3-0.2,0.4-0.5,0.4c-0.3,0-0.4-0.1-0.4-0.4v-1.8h-0.5c-0.3,0-0.4-0.1-0.4-0.5c0-0.3,0.2-0.4,0.4-0.4h0.5v-2.9
						c0-0.6,0.3-0.9,0.9-0.9h2.2v-0.9h-3.4c-0.3,0-0.4-0.1-0.4-0.4c0-0.3,0.1-0.4,0.4-0.4H88v-0.9h-1.4c-0.3,0-0.4-0.1-0.4-0.4
						s0.1-0.4,0.4-0.4H88v-0.7h-1.7c-0.3,0-0.4-0.1-0.4-0.5c0-0.2,0.1-0.4,0.4-0.4H88v-0.5c0-0.3,0.2-0.4,0.4-0.4
						c0.3,0,0.5,0.1,0.5,0.4V18h2.3v-0.5c0-0.3,0.2-0.5,0.5-0.5s0.5,0.2,0.5,0.5V18L94,18L94,18z M87.4,24.9h2.2v-1h-2
						c-0.1,0-0.2,0.1-0.2,0.3C87.4,24.1,87.4,24.9,87.4,24.9z M87.4,26.8h2.2v-1.1h-2.2V26.8z M91.2,19.6v-0.7h-2.3v0.7H91.2z
						 M91.2,21.3v-0.9h-2.3v0.9H91.2z M90.6,23.8v1h2.3v-0.7c0-0.2-0.1-0.3-0.2-0.3C92.7,23.8,90.6,23.8,90.6,23.8z M90.6,25.6v1.1
						h2.3v-1.1H90.6z"/>
					<path class="st3" d="M100.3,20.3c0,0.1-0.1,0.2-0.2,0.3c-0.3,0.2-0.7,0.4-1.2,0.6c-0.6,0.3-1.2,0.5-1.7,0.6c-0.1,0-0.2,0-0.2,0
						c-0.3,0-0.5-0.2-0.5-0.5c0-0.3,0.1-0.5,0.4-0.5c0.5-0.1,0.9-0.2,1.3-0.3c0.3-0.1,0.8-0.3,1.4-0.6l0.2,0
						C100.1,19.7,100.3,19.9,100.3,20.3z M100,17.9c0.3,0,0.4,0.1,0.4,0.4s-0.1,0.5-0.4,0.5h-2.7c-0.3,0-0.4-0.1-0.4-0.5
						s0.2-0.4,0.4-0.4H100z M98.4,22.1h9.5c0.5,0,0.8,0.2,0.8,0.7V27c0,0.5-0.2,0.7-0.8,0.7h-2.4c1.3,0.5,2.6,0.9,3.8,1.2
						c0.2,0.1,0.3,0.3,0.3,0.5c0,0.4-0.2,0.5-0.6,0.5c-0.2,0-1-0.2-2.4-0.7c-0.8-0.3-1.5-0.6-2.2-0.9c-0.1-0.2-0.2-0.3-0.2-0.4
						c0-0.1,0-0.2,0-0.2h-2.3c0,0.1,0.1,0.2,0.1,0.3c0,0.2-0.1,0.3-0.2,0.4c-1,0.5-2.3,0.9-4,1.3c-0.2,0-0.3,0.1-0.4,0.1
						c-0.4,0-0.6-0.2-0.6-0.5c0-0.2,0.1-0.3,0.3-0.4c1.5-0.3,2.8-0.7,3.8-1.1h-2.6c-0.5,0-0.8-0.2-0.8-0.7v-4.3
						C97.6,22.3,97.8,22.1,98.4,22.1L98.4,22.1z M98.6,23.8h9v-0.5c0-0.2-0.1-0.3-0.3-0.3h-8.5c-0.2,0-0.3,0.1-0.3,0.3V23.8z
						 M98.6,25.2h9v-0.7h-9V25.2z M107.3,26.9c0.2,0,0.3-0.1,0.3-0.3V26h-9v0.5c0,0.2,0.1,0.3,0.3,0.3H107.3z M104.6,18.4h-2.1
						c0,0,0,0.1,0,0.1c-0.2,0.4-0.5,0.8-0.8,1c-0.2,0.2-0.3,0.3-0.5,0.3c-0.4,0-0.6-0.2-0.6-0.5c0-0.1,0.1-0.2,0.2-0.3
						c0.4-0.3,0.6-0.5,0.8-0.8c0.2-0.3,0.2-0.6,0.3-1c0-0.3,0.2-0.4,0.4-0.4c0.3,0,0.5,0.1,0.5,0.4c0,0.1,0,0.3-0.1,0.4h5.7
						c0.6,0,0.9,0.3,0.9,0.9c0,0.1,0,0.2-0.1,0.4c-0.1,0.3-0.2,0.6-0.3,0.9c-0.1,0.1-0.3,0.2-0.4,0.2c-0.4,0-0.6-0.1-0.6-0.4
						c0-0.1,0-0.1,0.1-0.2c0.1-0.1,0.2-0.3,0.3-0.4c0,0,0-0.1,0-0.1c0-0.3-0.1-0.4-0.3-0.4h-2.5v0.7c0,0.2,0.1,0.5,0.2,0.6
						c0.1,0.2,0.4,0.4,0.7,0.5c0.3,0.2,0.8,0.3,1.4,0.4c0.4,0.1,0.8,0.2,1.3,0.2c0.2,0.1,0.3,0.2,0.3,0.4c0,0.4-0.2,0.5-0.4,0.5
						c-0.1,0-0.2,0-0.3,0c-0.9-0.1-1.7-0.3-2.3-0.6c-0.4-0.2-0.8-0.4-1-0.6c-0.2-0.2-0.3-0.4-0.4-0.6c-0.1,0.2-0.2,0.4-0.4,0.6
						c-0.2,0.2-0.5,0.4-0.9,0.6c-0.5,0.2-1.2,0.4-2.1,0.6c-0.1,0-0.2,0-0.3,0c-0.3,0-0.5-0.2-0.5-0.5c0-0.2,0.1-0.3,0.3-0.4
						c0.5-0.1,0.9-0.1,1.2-0.2c0.5-0.1,1-0.2,1.3-0.4c0.3-0.2,0.6-0.4,0.7-0.5c0.2-0.2,0.2-0.4,0.2-0.6L104.6,18.4L104.6,18.4z"/>
					<path class="st3" d="M116.8,19.3c0.3,0,0.5,0.2,0.5,0.5s-0.2,0.5-0.5,0.5h-4.4c-0.3,0-0.5-0.2-0.5-0.5s0.2-0.5,0.5-0.5H116.8z
						 M113.3,25.1h2.6c0.6,0,0.9,0.3,0.9,0.9v2.6c0,0.6-0.3,0.9-0.9,0.9h-2.6c-0.6,0-0.9-0.3-0.9-0.9V26
						C112.3,25.4,112.6,25.1,113.3,25.1z M116.3,21.3c0.3,0,0.4,0.1,0.4,0.5c0,0.3-0.2,0.5-0.4,0.5h-3.5c-0.3,0-0.4-0.2-0.4-0.5
						c0-0.3,0.2-0.5,0.4-0.5H116.3z M116.3,23.3c0.3,0,0.4,0.1,0.4,0.4c0,0.3-0.2,0.5-0.4,0.5h-3.5c-0.3,0-0.4-0.2-0.4-0.5
						c0-0.3,0.2-0.4,0.4-0.4H116.3z M116.2,17.5c0.3,0,0.4,0.1,0.4,0.4c0,0.3-0.1,0.5-0.4,0.5h-3.2c-0.3,0-0.4-0.2-0.4-0.5
						c0-0.3,0.2-0.4,0.4-0.4H116.2z M115.4,28.6c0.3,0,0.4-0.1,0.4-0.4v-1.8c0-0.3-0.1-0.4-0.4-0.4h-1.8c-0.2,0-0.4,0.1-0.4,0.4v1.8
						c0,0.3,0.1,0.4,0.4,0.4H115.4z M117.4,17.5h4.5c0.7,0,1,0.3,1,1v5c0,1.3,0.1,2.8,0.3,4.3c0,0.2,0.1,0.4,0.1,0.4
						c0.1,0,0.2-0.6,0.3-1.8c0-0.2,0.2-0.4,0.5-0.4c0.3,0,0.5,0.2,0.5,0.6c0,0.3-0.1,0.8-0.2,1.5c-0.2,0.7-0.3,1.2-0.5,1.5
						c-0.2,0.2-0.4,0.3-0.5,0.3c-0.2,0-0.4-0.1-0.5-0.4c-0.2-0.4-0.4-1-0.6-1.8c-0.2-1.1-0.3-2.5-0.3-4.1v-4.6
						c0-0.3-0.1-0.4-0.4-0.4h-1.6v4.1h1.2c0.3,0,0.4,0.1,0.4,0.5c0,0.3-0.2,0.5-0.4,0.5h-1.2v5.9c0,0.3-0.2,0.5-0.5,0.5
						s-0.5-0.2-0.5-0.5v-5.9h-1.3c-0.3,0-0.4-0.2-0.4-0.5c0-0.3,0.2-0.5,0.4-0.5h1.3v-4h-1.5c-0.3,0-0.5-0.2-0.5-0.5
						S117.1,17.5,117.4,17.5z"/>
				</g>
				<g>
					<rect x="20.2" y="29.7" class="st3" width="11.4" height="0.5"/>
					<polygon class="st3" points="20.5,29.4 21.2,27 22.7,28.2 					"/>
					<path class="st3" d="M21.3,26.8c0,0,1.5-2.4,2.5-3.7l2.1,1.7c0,0-2.5,2.9-3.1,3.3C22.9,28.1,21.3,26.8,21.3,26.8z"/>
					<polygon class="st3" points="28.4,17.2 32.1,17.2 26.1,24.5 24,22.9 					"/>
				</g>
			</g>
		</g>
	</g>
</g>
</svg>
