<?xml version="1.0" encoding="utf-8"?>
<!-- Generator: Adobe Illustrator 26.2.1, SVG Export Plug-In . SVG Version: 6.00 Build 0)  -->
<svg version="1.1" id="Layer_1" xmlns="http://www.w3.org/2000/svg" xmlns:xlink="http://www.w3.org/1999/xlink" x="0px" y="0px"
	 viewBox="0 0 153 51" style="enable-background:new 0 0 153 51;" xml:space="preserve">
<style type="text/css">
	.st0{clip-path:url(#SVGID_00000029758297675650748100000006970366064193294502_);}
	.st1{clip-path:url(#SVGID_00000020382606331178559030000005745867009678143362_);}
	.st2{fill:url(#SVGID_00000021798918134993754800000012532705451530781883_);}
	.st3{fill:#FFFFFF;}
</style>
<g>
	<g id="a">
	</g>
	<g id="b">
		<g id="c">
			<g>
				<g>
					<g>
						<defs>
							<polygon id="SVGID_1_" points="1,1 2,1 1,2 							"/>
						</defs>
						<defs>
							<polygon id="SVGID_00000165192400953760438590000015801131786725893050_" points="-1,-1 -2,-1 -1,-2 							"/>
						</defs>
						<clipPath id="SVGID_00000156554581425302116350000014250670610533163167_">
							<use xlink:href="#SVGID_1_"  style="overflow:visible;"/>
						</clipPath>
						
							<clipPath id="SVGID_00000080893473475296812400000013582238309224251269_" style="clip-path:url(#SVGID_00000156554581425302116350000014250670610533163167_);">
							<use xlink:href="#SVGID_00000165192400953760438590000015801131786725893050_"  style="overflow:visible;"/>
						</clipPath>
						
							<g style="opacity:0.7;clip-path:url(#SVGID_00000080893473475296812400000013582238309224251269_);enable-background:new    ;">
							
								<image style="overflow:visible;" width="153" height="51" xlink:href="3BCDDAF810277F71.png"  transform="matrix(1 0 0 1 -76.5 -25.5)">
							</image>
						</g>
					</g>
					<g>
						<g>
							<defs>
								<polygon id="SVGID_00000150086397339831854600000000026286360942969516_" points="10,10 11,10 10,11 								"/>
							</defs>
							<defs>
								<polygon id="SVGID_00000085968793796343261450000005210778575765141159_" points="8,8 7,8 8,7 								"/>
							</defs>
							<clipPath id="SVGID_00000093169312247996765570000001716505935601913517_">
								<use xlink:href="#SVGID_00000150086397339831854600000000026286360942969516_"  style="overflow:visible;"/>
							</clipPath>
							
								<clipPath id="SVGID_00000022542047854332465870000017117134200480756641_" style="clip-path:url(#SVGID_00000093169312247996765570000001716505935601913517_);">
								<use xlink:href="#SVGID_00000085968793796343261450000005210778575765141159_"  style="overflow:visible;"/>
							</clipPath>
							
								<g style="opacity:0.5;clip-path:url(#SVGID_00000022542047854332465870000017117134200480756641_);enable-background:new    ;">
								
									<image style="overflow:visible;" width="134" height="33" xlink:href="3BCDDAF810277F73.png"  transform="matrix(1 0 0 1 -58 -7.5)">
								</image>
							</g>
						</g>
						
							<linearGradient id="SVGID_00000029039251446371466140000009223468084180821655_" gradientUnits="userSpaceOnUse" x1="74.45" y1="15.25" x2="74.45" y2="41.25" gradientTransform="matrix(1 0 0 -1 0 52)">
							<stop  offset="0" style="stop-color:#FF9800"/>
							<stop  offset="0.54" style="stop-color:#FFC369"/>
							<stop  offset="0.9995" style="stop-color:#FFDDA9"/>
						</linearGradient>
						<path style="fill:url(#SVGID_00000029039251446371466140000009223468084180821655_);" d="M24.2,10.8h100.4c7.2,0,13,5.8,13,13
							l0,0c0,7.2-5.8,13-13,13H24.2c-7.2,0-13-5.8-13-13l0,0C11.2,16.6,17.1,10.8,24.2,10.8z"/>
					</g>
				</g>
				<g>
					<path class="st3" d="M42.3,17.1c0.4,0,0.5,0.2,0.5,0.5v0.8H48c0.3,0,0.4,0.1,0.4,0.4c0,0.3-0.2,0.5-0.4,0.5h-2.7L44.8,21h2.2
						c0.7,0,1,0.3,1,1v6.4c0,1-0.5,1.4-1.4,1.4c-0.5,0-1.2-0.1-2-0.2c-0.2-0.1-0.3-0.2-0.3-0.4c0-0.4,0.1-0.5,0.4-0.5
						c0.1,0,0.3,0,0.4,0c0.6,0.1,1,0.2,1.4,0.2s0.5-0.2,0.5-0.6v-5.9c0-0.3-0.1-0.4-0.4-0.4H44v1c0,0.3,0.1,0.4,0.3,0.4h1.8
						c0.3,0,0.4,0.1,0.4,0.4s-0.1,0.4-0.4,0.4h-2c-0.7,0-1.1-0.4-1.1-1.1V22h-1.7c0,0.6-0.2,1-0.3,1.3c-0.2,0.4-0.5,0.7-0.8,1
						c-0.4,0.3-1,0.4-1.6,0.5h-0.2c-0.3,0-0.4-0.2-0.4-0.5c0-0.2,0.1-0.4,0.4-0.4c0.5,0,0.9-0.1,1.2-0.3c0.3-0.2,0.5-0.4,0.6-0.6
						c0.1-0.2,0.2-0.5,0.2-0.8H38c-0.2,0-0.4,0.1-0.4,0.4v6.9c0,0.3-0.2,0.5-0.5,0.5s-0.5-0.2-0.5-0.5V22c0-0.6,0.3-1,1-1h2.2
						l-0.5-1.6h-2.7c-0.3,0-0.4-0.2-0.4-0.5c0-0.3,0.2-0.4,0.4-0.4h5.2v-0.8C41.8,17.3,42,17.1,42.3,17.1L42.3,17.1z M39.9,24.9h4.8
						c0.5,0,0.7,0.2,0.7,0.7v2c0,0.4-0.2,0.7-0.7,0.7h-4.8c-0.4,0-0.7-0.2-0.7-0.7v-2C39.2,25.1,39.4,24.9,39.9,24.9z M44.1,27.3
						c0.2,0,0.3-0.1,0.3-0.3v-0.9c0-0.2-0.1-0.3-0.3-0.3h-3.7c-0.2,0-0.3,0.1-0.3,0.3V27c0,0.2,0.1,0.3,0.3,0.3H44.1z M40.9,21h2.8
						l0.6-1.6h-4L40.9,21z"/>
					<path class="st3" d="M52.1,23.2h3.8c0.6,0,0.8,0.3,0.8,0.8v4.8c0,0.5-0.3,0.8-0.8,0.8h-3.8c-0.6,0-0.8-0.3-0.8-0.8V24
						C51.3,23.5,51.5,23.2,52.1,23.2z M55.4,28.6c0.2,0,0.4-0.1,0.4-0.4v-3.7c0-0.2-0.1-0.4-0.4-0.4h-2.7c-0.3,0-0.4,0.1-0.4,0.4
						v3.7c0,0.3,0.1,0.4,0.4,0.4H55.4z M53.7,17.5h7.4c0.6,0,0.9,0.3,0.9,0.9v3c0,0.6-0.3,0.9-0.9,0.9h-7.4c-0.6,0-0.9-0.3-0.9-0.9
						v-3C52.8,17.8,53.1,17.5,53.7,17.5z M60.6,21.3c0.3,0,0.5-0.2,0.5-0.5v-1.9c0-0.3-0.2-0.5-0.5-0.5h-6.3c-0.3,0-0.5,0.2-0.5,0.5
						v1.9c0,0.4,0.2,0.5,0.5,0.5H60.6z M58.9,23.2h3.8c0.5,0,0.8,0.3,0.8,0.8v4.8c0,0.5-0.3,0.8-0.8,0.8h-3.8
						c-0.6,0-0.8-0.3-0.8-0.8V24C58.1,23.5,58.4,23.2,58.9,23.2z M62.2,28.6c0.3,0,0.4-0.1,0.4-0.4v-3.7c0-0.2-0.1-0.4-0.4-0.4h-2.7
						c-0.3,0-0.4,0.1-0.4,0.4v3.7c0,0.3,0.1,0.4,0.4,0.4H62.2z"/>
					<path class="st3" d="M72.1,19.3c0.3,0,0.5,0.2,0.5,0.5s-0.2,0.5-0.5,0.5h-5.4c-0.3,0-0.5-0.2-0.5-0.5s0.2-0.5,0.5-0.5H72.1z
						 M67.7,25.1h3.4c0.6,0,0.9,0.3,0.9,0.9v2.6c0,0.6-0.3,0.9-0.9,0.9h-3.4c-0.6,0-0.9-0.3-0.9-0.9V26
						C66.8,25.4,67.1,25.1,67.7,25.1z M71.5,21.3c0.3,0,0.4,0.1,0.4,0.5c0,0.3-0.2,0.5-0.4,0.5h-4.2c-0.3,0-0.4-0.2-0.4-0.5
						c0-0.3,0.2-0.5,0.4-0.5H71.5z M71.5,23.3c0.3,0,0.4,0.1,0.4,0.4c0,0.3-0.2,0.5-0.4,0.5h-4.2c-0.3,0-0.4-0.2-0.4-0.5
						c0-0.3,0.2-0.4,0.4-0.4H71.5z M71.4,17.5c0.3,0,0.4,0.1,0.4,0.4c0,0.3-0.2,0.5-0.4,0.5h-4c-0.3,0-0.4-0.2-0.4-0.5
						c0-0.3,0.2-0.4,0.4-0.4H71.4z M70.7,28.6c0.2,0,0.4-0.1,0.4-0.4v-1.8c0-0.3-0.1-0.4-0.4-0.4h-2.5c-0.2,0-0.4,0.1-0.4,0.4v1.8
						c0,0.3,0.1,0.4,0.4,0.4H70.7z M78.6,17.5c0.3,0,0.5,0.2,0.5,0.5s-0.2,0.5-0.5,0.5h-1.4v9.7c0,1.1-0.6,1.6-1.9,1.6
						c-0.6,0-1.4-0.2-2.4-0.5c-0.3-0.1-0.4-0.2-0.4-0.5c0-0.4,0.2-0.5,0.4-0.5c0.1,0,0.2,0,0.4,0c1,0.3,1.7,0.5,2.1,0.5
						c0.5,0,0.7-0.3,0.7-0.8v-9.5h-3.1c-0.3,0-0.5-0.2-0.5-0.5s0.2-0.5,0.5-0.5L78.6,17.5L78.6,17.5z"/>
					<path class="st3" d="M83,20.9h9.3c0.6,0,0.9,0.3,0.9,0.9v3c0,0.6-0.3,0.9-0.9,0.9h-4.2v1h5.5c0.3,0,0.5,0.2,0.5,0.5
						s-0.2,0.5-0.5,0.5h-5.5v1.6c0,0.3-0.2,0.5-0.5,0.5s-0.5-0.2-0.5-0.5v-1.6h-5.3c-0.3,0-0.5-0.2-0.5-0.5s0.2-0.5,0.5-0.5h5.3v-1
						H83c-0.6,0-0.9-0.3-0.9-0.9v-3C82.1,21.2,82.4,20.9,83,20.9L83,20.9z M82.7,17.4h3.4c0.6,0,0.9,0.3,0.9,0.9v1.1
						c0,0.6-0.3,0.9-0.9,0.9h-3.4c-0.6,0-0.9-0.3-0.9-0.9v-1.1C81.8,17.7,82.1,17.4,82.7,17.4z M85.8,19.3c0.2,0,0.3-0.1,0.3-0.3
						v-0.4c0-0.2-0.1-0.3-0.3-0.3H83c-0.2,0-0.3,0.1-0.3,0.3V19c0,0.2,0.1,0.3,0.3,0.3H85.8z M83,22.9h4.1v-1h-3.8
						c-0.2,0-0.3,0.1-0.3,0.3V22.9L83,22.9z M87.1,24.8v-1.1H83v0.8c0,0.2,0.1,0.3,0.3,0.3H87.1z M88.1,21.8v1h4.2v-0.8
						c0-0.2-0.1-0.3-0.3-0.3L88.1,21.8L88.1,21.8z M92,24.8c0.2,0,0.3-0.1,0.3-0.3v-0.8h-4.2v1.1H92z M89.1,17.3h3.4
						c0.6,0,0.9,0.3,0.9,0.8v1.1c0,0.5-0.3,0.8-0.9,0.8h-3.4c-0.6,0-0.9-0.3-0.9-0.8v-1.1C88.2,17.6,88.5,17.3,89.1,17.3z
						 M92.2,19.3c0.2,0,0.3-0.1,0.3-0.3v-0.4c0-0.2-0.1-0.3-0.3-0.3h-2.7c-0.2,0-0.3,0.1-0.3,0.3v0.4c0,0.2,0.1,0.3,0.3,0.3H92.2z"
						/>
					<path class="st3" d="M100,20.3c0,0.1-0.1,0.2-0.2,0.3c-0.3,0.2-0.7,0.4-1.2,0.6c-0.6,0.3-1.2,0.5-1.7,0.6c-0.1,0-0.2,0-0.2,0
						c-0.3,0-0.5-0.2-0.5-0.5c0-0.3,0.1-0.5,0.4-0.5c0.5-0.1,0.9-0.2,1.3-0.3c0.3-0.1,0.8-0.3,1.4-0.6l0.2,0
						C99.9,19.7,100,19.9,100,20.3z M99.7,17.9c0.3,0,0.4,0.1,0.4,0.4s-0.1,0.5-0.4,0.5H97c-0.3,0-0.4-0.1-0.4-0.5s0.2-0.4,0.4-0.4
						H99.7z M98.1,22.1h9.5c0.5,0,0.8,0.2,0.8,0.7V27c0,0.5-0.2,0.7-0.8,0.7h-2.4c1.3,0.5,2.6,0.9,3.8,1.2c0.2,0.1,0.3,0.3,0.3,0.5
						c0,0.4-0.2,0.5-0.6,0.5c-0.2,0-1-0.2-2.4-0.7c-0.8-0.3-1.5-0.6-2.2-0.9c-0.1-0.2-0.2-0.3-0.2-0.4c0-0.1,0-0.2,0-0.2h-2.3
						c0,0.1,0.1,0.2,0.1,0.3c0,0.2-0.1,0.3-0.2,0.4c-1,0.5-2.3,0.9-4,1.3c-0.2,0-0.3,0.1-0.4,0.1c-0.4,0-0.6-0.2-0.6-0.5
						c0-0.2,0.1-0.3,0.3-0.4c1.5-0.3,2.8-0.7,3.8-1.1H98c-0.5,0-0.8-0.2-0.8-0.7v-4.3C97.3,22.3,97.5,22.1,98.1,22.1L98.1,22.1z
						 M98.3,23.8h9v-0.5c0-0.2-0.1-0.3-0.3-0.3h-8.5c-0.2,0-0.3,0.1-0.3,0.3V23.8z M98.3,25.2h9v-0.7h-9V25.2z M107,26.9
						c0.2,0,0.3-0.1,0.3-0.3V26h-9v0.5c0,0.2,0.1,0.3,0.3,0.3H107z M104.3,18.4h-2.1c0,0,0,0.1,0,0.1c-0.2,0.4-0.5,0.8-0.8,1
						c-0.2,0.2-0.3,0.3-0.5,0.3c-0.4,0-0.6-0.2-0.6-0.5c0-0.1,0.1-0.2,0.2-0.3c0.4-0.3,0.6-0.5,0.8-0.8c0.2-0.3,0.2-0.6,0.3-1
						c0-0.3,0.2-0.4,0.4-0.4c0.3,0,0.5,0.1,0.5,0.4c0,0.1,0,0.3-0.1,0.4h5.7c0.6,0,0.9,0.3,0.9,0.9c0,0.1,0,0.2-0.1,0.4
						c-0.1,0.3-0.2,0.6-0.3,0.9c-0.1,0.1-0.3,0.2-0.4,0.2c-0.4,0-0.6-0.1-0.6-0.4c0-0.1,0-0.1,0.1-0.2c0.1-0.1,0.2-0.3,0.3-0.4
						c0,0,0-0.1,0-0.1c0-0.3-0.1-0.4-0.3-0.4h-2.5v0.7c0,0.2,0.1,0.5,0.2,0.6c0.1,0.2,0.4,0.4,0.7,0.5c0.3,0.2,0.8,0.3,1.4,0.4
						c0.4,0.1,0.8,0.2,1.3,0.2c0.2,0.1,0.3,0.2,0.3,0.4c0,0.4-0.2,0.5-0.4,0.5c-0.1,0-0.2,0-0.3,0c-0.9-0.1-1.7-0.3-2.3-0.6
						c-0.4-0.2-0.8-0.4-1-0.6c-0.2-0.2-0.3-0.4-0.4-0.6c-0.1,0.2-0.2,0.4-0.4,0.6c-0.2,0.2-0.5,0.4-0.9,0.6
						c-0.5,0.2-1.2,0.4-2.1,0.6c-0.1,0-0.2,0-0.3,0c-0.3,0-0.5-0.2-0.5-0.5c0-0.2,0.1-0.3,0.3-0.4c0.5-0.1,0.9-0.1,1.2-0.2
						c0.5-0.1,1-0.2,1.3-0.4c0.3-0.2,0.6-0.4,0.7-0.5c0.2-0.2,0.2-0.4,0.2-0.6L104.3,18.4L104.3,18.4z"/>
					<path class="st3" d="M116.5,19.3c0.3,0,0.5,0.2,0.5,0.5s-0.2,0.5-0.5,0.5H112c-0.3,0-0.5-0.2-0.5-0.5s0.2-0.5,0.5-0.5H116.5z
						 M113,25.1h2.6c0.6,0,0.9,0.3,0.9,0.9v2.6c0,0.6-0.3,0.9-0.9,0.9H113c-0.6,0-0.9-0.3-0.9-0.9V26C112,25.4,112.3,25.1,113,25.1z
						 M116,21.3c0.3,0,0.4,0.1,0.4,0.5c0,0.3-0.2,0.5-0.4,0.5h-3.5c-0.3,0-0.4-0.2-0.4-0.5c0-0.3,0.2-0.5,0.4-0.5H116z M116,23.3
						c0.3,0,0.4,0.1,0.4,0.4c0,0.3-0.2,0.5-0.4,0.5h-3.5c-0.3,0-0.4-0.2-0.4-0.5c0-0.3,0.2-0.4,0.4-0.4H116z M115.9,17.5
						c0.3,0,0.4,0.1,0.4,0.4c0,0.3-0.1,0.5-0.4,0.5h-3.2c-0.3,0-0.4-0.2-0.4-0.5c0-0.3,0.2-0.4,0.4-0.4H115.9z M115.1,28.6
						c0.3,0,0.4-0.1,0.4-0.4v-1.8c0-0.3-0.1-0.4-0.4-0.4h-1.8c-0.2,0-0.4,0.1-0.4,0.4v1.8c0,0.3,0.1,0.4,0.4,0.4H115.1z M117.1,17.5
						h4.5c0.7,0,1,0.3,1,1v5c0,1.3,0.1,2.8,0.3,4.3c0,0.2,0.1,0.4,0.1,0.4c0.1,0,0.2-0.6,0.3-1.8c0-0.2,0.2-0.4,0.5-0.4
						c0.3,0,0.5,0.2,0.5,0.6c0,0.3-0.1,0.8-0.2,1.5c-0.2,0.7-0.3,1.2-0.5,1.5c-0.2,0.2-0.4,0.3-0.5,0.3c-0.2,0-0.4-0.1-0.5-0.4
						c-0.2-0.4-0.4-1-0.6-1.8c-0.2-1.1-0.3-2.5-0.3-4.1v-4.6c0-0.3-0.1-0.4-0.4-0.4h-1.6v4.1h1.2c0.3,0,0.4,0.1,0.4,0.5
						c0,0.3-0.2,0.5-0.4,0.5h-1.2v5.9c0,0.3-0.2,0.5-0.5,0.5s-0.5-0.2-0.5-0.5v-5.9h-1.3c-0.3,0-0.4-0.2-0.4-0.5
						c0-0.3,0.2-0.5,0.4-0.5h1.3v-4h-1.5c-0.3,0-0.5-0.2-0.5-0.5S116.8,17.5,117.1,17.5z"/>
				</g>
				<g>
					<path class="st3" d="M21.4,17.2c-0.4,0-0.8,0.4-0.8,0.8v11.5c0,0.4,0.4,0.8,0.8,0.8h6.9v-1.5c0-0.7,0.5-1.2,1.2-1.2h1.7V18
						c0-0.4-0.4-0.8-0.8-0.8L21.4,17.2L21.4,17.2z M29.2,24.3h-6.6v-0.5h6.6V24.3z M29.2,22.5h-6.6v-0.5h6.6V22.5z M29.2,20.6h-6.6
						v-0.5h6.6V20.6z"/>
					<path class="st3" d="M28.7,28.7V30l2.1-2h-1.4C29.1,28,28.7,28.3,28.7,28.7L28.7,28.7z"/>
				</g>
			</g>
		</g>
	</g>
</g>
</svg>
