<?xml version="1.0" encoding="UTF-8"?><svg xmlns="http://www.w3.org/2000/svg" xmlns:xlink="http://www.w3.org/1999/xlink" viewBox="0 0 25.14 25.14"><defs><style>.j{fill:url(#g);}.k{fill:url(#f);}.l{fill:url(#i);}.m{fill:url(#h);}.n{fill:none;}.o{fill:#000014;}.p{filter:url(#d);}</style><filter id="d" filterUnits="userSpaceOnUse"><feOffset dx="1" dy="1"/><feGaussianBlur result="e" stdDeviation=".5"/><feFlood flood-color="#000" flood-opacity=".75"/><feComposite in2="e" operator="in"/><feComposite in="SourceGraphic"/></filter><linearGradient id="f" x1="0" y1="12.57" x2="25.14" y2="12.57" gradientTransform="matrix(1, 0, 0, 1, 0, 0)" gradientUnits="userSpaceOnUse"><stop offset="0" stop-color="#f0cc7e"/><stop offset=".19" stop-color="#f4db8c"/><stop offset=".41" stop-color="#f9f3e5"/><stop offset=".73" stop-color="#c78a03"/><stop offset=".89" stop-color="#e3b75e"/><stop offset=".95" stop-color="#efca84"/></linearGradient><linearGradient id="g" x1="4.16" y1="16.27" x2="20.87" y2="16.27" xlink:href="#f"/><linearGradient id="h" x1="4.16" y1="19.06" x2="20.87" y2="19.06" xlink:href="#f"/><linearGradient id="i" x1="4.16" y1="9.83" x2="20.87" y2="9.83" xlink:href="#f"/></defs><g id="a"/><g id="b"><g id="c"><g class="p"><g><circle class="o" cx="12.57" cy="12.57" r="12"/><path class="k" d="M12.57,.57c6.63,0,12,5.37,12,12s-5.37,12-12,12S.57,19.2,.57,12.57,5.94,.57,12.57,.57m0-.57C5.64,0,0,5.64,0,12.57s5.64,12.57,12.57,12.57,12.57-5.64,12.57-12.57S19.5,0,12.57,0h0Z"/></g><g><path class="n" d="M7.73,9.84l-.16-1.86c-.52-.12-1.34-.14-1.62,.17-.21,.23-.2,.75,.04,1.47,.32,.97,1.26,1.52,2.17,1.82-.22-.49-.37-1.03-.42-1.6Z"/><path class="n" d="M17.57,7.98l-.16,1.86c-.05,.57-.2,1.1-.42,1.6,.9-.31,1.84-.85,2.17-1.82,.24-.72,.25-1.24,.04-1.47-.29-.31-1.1-.28-1.62-.17Z"/><path class="j" d="M12.57,14.87c-.33,0-.66-.02-.97-.05v2.9h1.94v-2.9c-.32,.03-.64,.05-.97,.05Z"/><path class="m" d="M15.55,18.34h-6.18c-.34,0-.63,.24-.69,.57l-.76,.86h9.07l-.76-.86c-.06-.33-.35-.57-.69-.57Z"/><path class="l" d="M20.16,7.24c-.68-.73-1.8-.71-2.48-.63l.11-1.25H7.35l.11,1.25c-.67-.09-1.79-.1-2.48,.63-.58,.62-.67,1.56-.25,2.8,.74,2.23,3.37,2.87,4.65,3.04,.86,.75,1.98,1.21,3.2,1.21s2.34-.46,3.2-1.21c1.28-.18,3.9-.81,4.65-3.04,.41-1.24,.33-2.18-.25-2.8Zm-14.18,2.38c-.24-.72-.25-1.24-.04-1.47,.29-.31,1.1-.28,1.62-.17l.16,1.86c.05,.57,.2,1.1,.42,1.6-.9-.31-1.84-.85-2.17-1.82Zm7.47,3.03c0,.4-.26,.66-.66,.66s-.65-.26-.65-.66v-3.91l-.51,.7c-.1,.14-.26,.22-.45,.24-.26,0-.4-.07-.54-.21-.11-.1-.18-.27-.18-.45,0-.14,.05-.28,.16-.44l1-1.42c.2-.28,.34-.44,.44-.53,.19-.16,.42-.23,.67-.23,.35,0,.72,.22,.72,.84v5.41Zm5.7-3.03c-.32,.97-1.26,1.52-2.17,1.82,.22-.49,.37-1.03,.42-1.6l.16-1.86c.52-.12,1.34-.14,1.62,.17,.21,.23,.2,.75-.04,1.47Z"/></g></g></g></g></svg>