<?xml version="1.0" encoding="UTF-8"?><svg xmlns="http://www.w3.org/2000/svg" xmlns:xlink="http://www.w3.org/1999/xlink" viewBox="0 0 25.2 25.2"><defs><style>.j{fill:url(#g);}.k{fill:url(#f);}.l{fill:url(#i);}.m{fill:url(#h);}.n{fill:none;}.o{fill:#1e1e1e;}.p{filter:url(#d);}</style><filter id="d" filterUnits="userSpaceOnUse"><feOffset dx="1" dy="1"/><feGaussianBlur result="e" stdDeviation=".5"/><feFlood flood-color="#000" flood-opacity=".75"/><feComposite in2="e" operator="in"/><feComposite in="SourceGraphic"/></filter><linearGradient id="f" x1="0" y1="12.6" x2="25.2" y2="12.6" gradientTransform="matrix(1, 0, 0, 1, 0, 0)" gradientUnits="userSpaceOnUse"><stop offset="0" stop-color="#5b100e"/><stop offset=".08" stop-color="#96501c"/><stop offset=".38" stop-color="#d3a14c"/><stop offset=".56" stop-color="#fff7e3"/><stop offset=".8" stop-color="#debd91"/><stop offset=".9" stop-color="#ba7d35"/><stop offset=".96" stop-color="#a55900"/></linearGradient><linearGradient id="g" x1="11.63" y1="16.3" x2="13.57" y2="16.3" xlink:href="#f"/><linearGradient id="h" x1="7.95" y1="19.09" x2="17.03" y2="19.09" xlink:href="#f"/><linearGradient id="i" x1="4.63" y1="10.33" x2="20.73" y2="8.93" gradientTransform="matrix(1, 0, 0, 1, 0, 0)" gradientUnits="userSpaceOnUse"><stop offset=".1" stop-color="#96501c"/><stop offset=".2" stop-color="#5b100e"/><stop offset=".35" stop-color="#d3a14c"/><stop offset=".7" stop-color="#fff7e3"/><stop offset=".83" stop-color="#debd91"/><stop offset=".91" stop-color="#ba7d35"/><stop offset=".96" stop-color="#a55900"/></linearGradient></defs><g id="a"/><g id="b"><g id="c"><g class="p"><g><circle class="o" cx="12.6" cy="12.6" r="12"/><path class="k" d="M12.6,.6c6.63,0,12,5.37,12,12s-5.37,12-12,12S.6,19.23,.6,12.6,5.97,.6,12.6,.6m0-.6C5.65,0,0,5.65,0,12.6s5.65,12.6,12.6,12.6,12.6-5.65,12.6-12.6S19.55,0,12.6,0h0Z"/></g><g><path class="n" d="M7.76,9.87l-.16-1.86c-.52-.12-1.34-.14-1.62,.17-.21,.23-.2,.75,.04,1.47,.32,.97,1.26,1.52,2.17,1.82-.22-.49-.37-1.03-.42-1.6Z"/><path class="n" d="M17.6,8.01l-.16,1.86c-.05,.57-.2,1.1-.42,1.6,.9-.31,1.84-.85,2.17-1.82,.24-.72,.25-1.24,.04-1.47-.29-.31-1.1-.28-1.62-.17Z"/><path class="j" d="M12.6,14.9c-.33,0-.66-.02-.97-.05v2.9h1.94v-2.9c-.32,.03-.64,.05-.97,.05Z"/><path class="m" d="M15.58,18.37h-6.18c-.34,0-.63,.24-.69,.57l-.76,.86h9.07l-.76-.86c-.06-.33-.35-.57-.69-.57Z"/><path class="l" d="M20.19,7.27c-.68-.73-1.8-.71-2.48-.63l.11-1.25H7.38l.11,1.25c-.67-.09-1.79-.1-2.48,.63-.58,.62-.67,1.56-.25,2.8,.74,2.23,3.37,2.87,4.65,3.04,.86,.75,1.98,1.21,3.2,1.21s2.34-.46,3.2-1.21c1.28-.18,3.9-.81,4.65-3.04,.41-1.24,.33-2.18-.25-2.8Zm-14.18,2.38c-.24-.72-.25-1.24-.04-1.47,.29-.31,1.1-.28,1.62-.17l.16,1.86c.05,.57,.2,1.1,.42,1.6-.9-.31-1.84-.85-2.17-1.82Zm8.24,3.1c-.42,.43-.97,.64-1.64,.64-1.14,0-1.7-.58-1.98-1.06-.18-.32-.27-.64-.27-.96,0-.42,.29-.7,.73-.7,.38,0,.66,.26,.69,.65,.03,.27,.14,.39,.22,.46,.31,.24,.93,.24,1.21-.04,.14-.14,.21-.33,.21-.59,0-.55-.21-.66-.61-.66h-.51c-.44,0-.73-.29-.73-.71s.29-.73,.73-.73h.52s.11,0,.24-.15c.13-.15,.19-.33,.19-.54,0-.17-.05-.3-.16-.4-.1-.11-.26-.16-.48-.16-.52,0-.61,.22-.65,.42-.13,.57-.81,.76-1.22,.39-.17-.17-.24-.39-.2-.63,.07-.5,.3-.91,.69-1.2,.36-.27,.82-.41,1.38-.41,.62,0,1.13,.2,1.52,.58,.37,.38,.55,.85,.55,1.41,0,.34-.08,.67-.25,.99-.06,.12-.12,.22-.19,.32,.11,.12,.22,.25,.31,.41,.2,.34,.3,.71,.3,1.07,0,.64-.21,1.18-.62,1.59Zm4.93-3.1c-.32,.97-1.26,1.52-2.17,1.82,.22-.49,.37-1.03,.42-1.6l.16-1.86c.52-.12,1.34-.14,1.62,.17,.21,.23,.2,.75-.04,1.47Z"/></g></g></g></g></svg>