<?xml version="1.0" encoding="UTF-8"?><svg xmlns="http://www.w3.org/2000/svg" xmlns:xlink="http://www.w3.org/1999/xlink" viewBox="0 0 20.4 20.4"><defs><style>.f{fill:#fad7e9;}.g{fill:#f19ec2;}.h{fill:#fff;}.i{filter:url(#d);}</style><filter id="d" filterUnits="userSpaceOnUse"><feOffset dx="1" dy="1"/><feGaussianBlur result="e" stdDeviation=".5"/><feFlood flood-color="#000" flood-opacity=".75"/><feComposite in2="e" operator="in"/><feComposite in="SourceGraphic"/></filter></defs><g id="a"/><g id="b"><g id="c"><g class="i"><g><circle class="g" cx="10.2" cy="10.2" r="9.6"/><path class="f" d="M10.2,1.2c4.97,0,9,4.03,9,9s-4.03,9-9,9S1.2,15.17,1.2,10.2,5.23,1.2,10.2,1.2m0-1.2C4.58,0,0,4.58,0,10.2s4.58,10.2,10.2,10.2,10.2-4.58,10.2-10.2S15.82,0,10.2,0h0Z"/></g><path class="h" d="M13.38,12.36c0,.35-.17,.52-.51,.52h-.82v2.15c0,.34-.17,.51-.51,.51s-.52-.17-.52-.51v-2.15h-3.42c-.39,0-.59-.15-.59-.46,0-.13,.06-.3,.17-.51l3.74-6.65c.21-.34,.42-.51,.65-.51,.32,0,.48,.2,.48,.6v6.52h.82c.34,0,.51,.16,.51,.48Zm-2.35-.48V6.97l-2.64,4.91h2.64Z"/></g></g></g></svg>