<?xml version="1.0" encoding="utf-8"?>
<!-- Generator: Adobe Illustrator 26.2.1, SVG Export Plug-In . SVG Version: 6.00 Build 0)  -->
<svg version="1.1" id="Layer_1" xmlns="http://www.w3.org/2000/svg" xmlns:xlink="http://www.w3.org/1999/xlink" x="0px" y="0px"
	 viewBox="0 0 20.4 20.4" style="enable-background:new 0 0 20.4 20.4;" xml:space="preserve">
<style type="text/css">
	.st0{fill:#F9B653;}
	.st1{fill:#FFDEB3;}
	.st2{fill:#FFFFFF;}
</style>
<g id="a">
</g>
<g id="b">
	<g id="c">
		<g>
			<g>
				<circle class="st0" cx="10.2" cy="10.2" r="9.6"/>
				<path class="st1" d="M10.2,1.2c5,0,9,4,9,9s-4,9-9,9s-9-4-9-9S5.2,1.2,10.2,1.2 M10.2,0C4.6,0,0,4.6,0,10.2s4.6,10.2,10.2,10.2
					s10.2-4.6,10.2-10.2S15.8,0,10.2,0L10.2,0z"/>
			</g>
			<path class="st2" d="M13.4,12.4c0,0.4-0.2,0.5-0.5,0.5h-0.8V15c0,0.3-0.2,0.5-0.5,0.5S11,15.4,11,15v-2.1H7.6
				c-0.4,0-0.6-0.1-0.6-0.5c0-0.1,0.1-0.3,0.2-0.5l3.7-6.7c0.2-0.3,0.4-0.5,0.6-0.5c0.3,0,0.5,0.2,0.5,0.6v6.5h0.8
				C13.2,11.9,13.4,12,13.4,12.4L13.4,12.4z M11,11.9V7l-2.6,4.9C8.4,11.9,11,11.9,11,11.9z"/>
		</g>
	</g>
</g>
</svg>
