<?xml version="1.0" encoding="utf-8"?>
<!-- Generator: Adobe Illustrator 26.2.1, SVG Export Plug-In . SVG Version: 6.00 Build 0)  -->
<svg version="1.1" id="Layer_1" xmlns="http://www.w3.org/2000/svg" xmlns:xlink="http://www.w3.org/1999/xlink" x="0px" y="0px"
	 viewBox="0 0 20.4 20.4" style="enable-background:new 0 0 20.4 20.4;" xml:space="preserve">
<style type="text/css">
	.st0{fill:#F9B653;}
	.st1{fill:#FFDEB3;}
	.st2{fill:#FFFFFF;}
</style>
<g id="a">
</g>
<g id="b">
	<g id="c">
		<g>
			<g>
				<circle class="st0" cx="10.2" cy="10.2" r="9.6"/>
				<path class="st1" d="M10.2,1.2c5,0,9,4,9,9s-4,9-9,9s-9-4-9-9S5.2,1.2,10.2,1.2 M10.2,0C4.6,0,0,4.6,0,10.2s4.6,10.2,10.2,10.2
					s10.2-4.6,10.2-10.2S15.8,0,10.2,0L10.2,0z"/>
			</g>
			<path class="st2" d="M13.4,11.9c0,1.1-0.3,1.9-1,2.6s-1.4,1-2.4,1c-1.3,0-2.3-0.5-2.8-1.6C7.1,13.7,7,13.5,7,13.3
				c0-0.4,0.2-0.5,0.5-0.5c0.2,0,0.4,0.1,0.5,0.4c0.1,0.4,0.3,0.6,0.6,0.9c0.4,0.3,0.9,0.4,1.4,0.4c0.6,0,1.2-0.2,1.7-0.7
				c0.4-0.5,0.7-1.1,0.7-1.9s-0.2-1.4-0.6-1.8c-0.4-0.4-0.9-0.6-1.6-0.6c-0.5,0-0.9,0.1-1.3,0.4c-0.2,0.2-0.5,0.4-0.8,0.8
				C7.9,10.9,7.8,11,7.6,11c-0.3,0-0.5-0.2-0.5-0.6V6.3c0-0.5,0.1-0.9,0.3-1.1C7.7,5,8,4.9,8.5,4.9h3.9c0.3,0,0.5,0.2,0.5,0.5
				c0,0.3-0.2,0.5-0.5,0.5H8.5C8.3,5.9,8.2,6,8.2,6.3v2.9c0.7-0.5,1.3-0.8,2-0.8c0.9,0,1.7,0.3,2.3,0.9C13.1,10,13.4,10.8,13.4,11.9
				L13.4,11.9z"/>
		</g>
	</g>
</g>
</svg>
