<?xml version="1.0" encoding="UTF-8"?><svg xmlns="http://www.w3.org/2000/svg" xmlns:xlink="http://www.w3.org/1999/xlink" viewBox="0 0 20.4 20.4"><defs><style>.f{fill:#fad7e9;}.g{fill:#f19ec2;}.h{fill:#fff;}.i{filter:url(#d);}</style><filter id="d" filterUnits="userSpaceOnUse"><feOffset dx="1" dy="1"/><feGaussianBlur result="e" stdDeviation=".5"/><feFlood flood-color="#000" flood-opacity=".75"/><feComposite in2="e" operator="in"/><feComposite in="SourceGraphic"/></filter></defs><g id="a"/><g id="b"><g id="c"><g class="i"><g><circle class="g" cx="10.2" cy="10.2" r="9.6"/><path class="f" d="M10.2,1.2c4.97,0,9,4.03,9,9s-4.03,9-9,9S1.2,15.17,1.2,10.2,5.23,1.2,10.2,1.2m0-1.2C4.58,0,0,4.58,0,10.2s4.58,10.2,10.2,10.2,10.2-4.58,10.2-10.2S15.82,0,10.2,0h0Z"/></g><path class="h" d="M13.39,11.87c0,1.07-.32,1.95-.96,2.63s-1.43,1.03-2.38,1.03c-1.34,0-2.29-.53-2.84-1.59-.14-.27-.21-.47-.21-.59,0-.35,.17-.52,.52-.52,.22,0,.38,.12,.48,.37,.13,.36,.34,.65,.63,.87,.38,.3,.86,.45,1.42,.45,.65,0,1.2-.24,1.66-.72,.44-.48,.66-1.12,.66-1.93s-.21-1.39-.62-1.8c-.38-.38-.91-.56-1.58-.56-.5,0-.93,.12-1.29,.37-.24,.17-.52,.45-.83,.83-.13,.18-.28,.27-.44,.27-.31,0-.46-.2-.46-.59V6.29c0-.52,.1-.89,.3-1.11,.21-.21,.55-.31,1.04-.31h3.87c.33,0,.49,.16,.49,.49,0,.35-.16,.52-.49,.52h-3.81c-.24,0-.37,.15-.37,.45v2.9c.67-.5,1.33-.75,2-.75,.95,0,1.71,.29,2.29,.87,.61,.62,.91,1.46,.91,2.52Z"/></g></g></g></svg>