<?xml version="1.0" encoding="utf-8"?>
<!-- Generator: Adobe Illustrator 26.2.1, SVG Export Plug-In . SVG Version: 6.00 Build 0)  -->
<svg version="1.1" id="Layer_1" xmlns="http://www.w3.org/2000/svg" xmlns:xlink="http://www.w3.org/1999/xlink" x="0px" y="0px"
	 viewBox="0 0 20.4 20.4" style="enable-background:new 0 0 20.4 20.4;" xml:space="preserve">
<style type="text/css">
	.st0{fill:#F9B653;}
	.st1{fill:#FFDEB3;}
	.st2{fill:#FFFFFF;}
</style>
<g id="a">
</g>
<g id="b">
	<g id="c">
		<g>
			<g>
				<circle class="st0" cx="10.2" cy="10.2" r="9.6"/>
				<path class="st1" d="M10.2,1.2c5,0,9,4,9,9s-4,9-9,9s-9-4-9-9S5.2,1.2,10.2,1.2 M10.2,0C4.6,0,0,4.6,0,10.2s4.6,10.2,10.2,10.2
					s10.2-4.6,10.2-10.2S15.8,0,10.2,0L10.2,0z"/>
			</g>
			<path class="st2" d="M13.4,7.3c0,0.3-0.2,0.5-0.6,0.5c-0.2,0-0.4-0.1-0.4-0.4c-0.3-1.1-1-1.6-2.1-1.6C9.6,5.7,9.1,6,8.7,6.5
				C8.3,7.1,8.1,8.1,8,9.5c0.7-0.7,1.5-1,2.3-1c0.9,0,1.6,0.3,2.2,1c0.6,0.7,0.8,1.5,0.8,2.6c0,0.9-0.2,1.7-0.7,2.4
				c-0.6,0.7-1.4,1.1-2.4,1.1c-1.1,0-1.9-0.4-2.5-1.2C7.2,13.6,7,12.3,7,10.5c0-1.9,0.2-3.3,0.7-4.2c0.5-1,1.4-1.5,2.6-1.5
				c1.4,0,2.4,0.6,2.9,1.8C13.3,6.9,13.4,7.1,13.4,7.3L13.4,7.3z M12.4,12.1c0-0.8-0.2-1.5-0.6-1.9c-0.4-0.4-0.8-0.6-1.4-0.6
				c-0.5,0-1,0.2-1.5,0.5C8.3,10.4,8,10.9,8,11.5c0,1,0.2,1.8,0.6,2.3c0.4,0.5,0.9,0.7,1.6,0.7s1.3-0.2,1.6-0.7
				C12.2,13.4,12.4,12.8,12.4,12.1L12.4,12.1z"/>
		</g>
	</g>
</g>
</svg>
