<?xml version="1.0" encoding="UTF-8"?><svg xmlns="http://www.w3.org/2000/svg" xmlns:xlink="http://www.w3.org/1999/xlink" viewBox="0 0 20.4 20.4"><defs><style>.f{fill:#fad7e9;}.g{fill:#f19ec2;}.h{fill:#fff;}.i{filter:url(#d);}</style><filter id="d" filterUnits="userSpaceOnUse"><feOffset dx="1" dy="1"/><feGaussianBlur result="e" stdDeviation=".5"/><feFlood flood-color="#000" flood-opacity=".75"/><feComposite in2="e" operator="in"/><feComposite in="SourceGraphic"/></filter></defs><g id="a"/><g id="b"><g id="c"><g class="i"><g><circle class="g" cx="10.2" cy="10.2" r="9.6"/><path class="f" d="M10.2,1.2c4.97,0,9,4.03,9,9s-4.03,9-9,9S1.2,15.17,1.2,10.2,5.23,1.2,10.2,1.2m0-1.2C4.58,0,0,4.58,0,10.2s4.58,10.2,10.2,10.2,10.2-4.58,10.2-10.2S15.82,0,10.2,0h0Z"/></g><path class="h" d="M13.41,7.27c0,.33-.19,.49-.56,.49-.23,0-.37-.13-.44-.39-.26-1.09-.97-1.63-2.11-1.63-.69,0-1.21,.27-1.56,.8-.39,.58-.63,1.58-.72,2.98,.7-.69,1.48-1.04,2.32-1.04,.9,0,1.64,.33,2.21,1,.56,.66,.84,1.52,.84,2.6,0,.94-.24,1.72-.73,2.35-.57,.73-1.39,1.1-2.45,1.1-1.12,0-1.95-.39-2.46-1.18-.51-.78-.76-2.06-.76-3.84,0-1.91,.23-3.32,.7-4.23,.52-1.02,1.38-1.53,2.6-1.53,1.41,0,2.37,.6,2.9,1.79,.14,.33,.21,.58,.21,.75Zm-1.03,4.81c0-.83-.2-1.48-.6-1.94-.37-.43-.84-.65-1.43-.65-.52,0-1.02,.17-1.5,.52-.55,.4-.83,.9-.83,1.48,0,.99,.21,1.77,.62,2.32,.36,.47,.89,.7,1.59,.7s1.26-.23,1.65-.7c.35-.43,.52-1.01,.52-1.73Z"/></g></g></g></svg>