<?xml version="1.0" encoding="UTF-8"?><svg xmlns="http://www.w3.org/2000/svg" xmlns:xlink="http://www.w3.org/1999/xlink" viewBox="0 0 20.4 20.4"><defs><style>.f{fill:#fad7e9;}.g{fill:#f19ec2;}.h{fill:#fff;}.i{filter:url(#d);}</style><filter id="d" filterUnits="userSpaceOnUse"><feOffset dx="1" dy="1"/><feGaussianBlur result="e" stdDeviation=".5"/><feFlood flood-color="#000" flood-opacity=".75"/><feComposite in2="e" operator="in"/><feComposite in="SourceGraphic"/></filter></defs><g id="a"/><g id="b"><g id="c"><g class="i"><g><circle class="g" cx="10.2" cy="10.2" r="9.6"/><path class="f" d="M10.2,1.2c4.97,0,9,4.03,9,9s-4.03,9-9,9S1.2,15.17,1.2,10.2,5.23,1.2,10.2,1.2m0-1.2C4.58,0,0,4.58,0,10.2s4.58,10.2,10.2,10.2,10.2-4.58,10.2-10.2S15.82,0,10.2,0h0Z"/></g><path class="h" d="M13.42,5.36c0,.12-.07,.31-.2,.58l-4.82,9.32c-.09,.19-.23,.28-.42,.28-.13,0-.25-.05-.37-.15-.12-.09-.18-.21-.18-.35,0-.08,.03-.17,.08-.25L11.94,6.31c.08-.17,.13-.26,.13-.28,0-.1-.07-.15-.21-.15H7.49c-.34,0-.51-.16-.51-.49,0-.35,.17-.52,.51-.52h5.39c.37,0,.55,.16,.55,.49Z"/></g></g></g></svg>