<?xml version="1.0" encoding="utf-8"?>
<!-- Generator: Adobe Illustrator 26.2.1, SVG Export Plug-In . SVG Version: 6.00 Build 0)  -->
<svg version="1.1" id="Layer_1" xmlns="http://www.w3.org/2000/svg" xmlns:xlink="http://www.w3.org/1999/xlink" x="0px" y="0px"
	 viewBox="0 0 20.4 20.4" style="enable-background:new 0 0 20.4 20.4;" xml:space="preserve">
<style type="text/css">
	.st0{fill:#F9B653;}
	.st1{fill:#FFDEB3;}
	.st2{fill:#FFFFFF;}
</style>
<g id="a">
</g>
<g id="b">
	<g id="c">
		<g>
			<g>
				<circle class="st0" cx="10.2" cy="10.2" r="9.6"/>
				<path class="st1" d="M10.2,1.2c5,0,9,4,9,9s-4,9-9,9s-9-4-9-9S5.2,1.2,10.2,1.2 M10.2,0C4.6,0,0,4.6,0,10.2s4.6,10.2,10.2,10.2
					s10.2-4.6,10.2-10.2S15.8,0,10.2,0L10.2,0z"/>
			</g>
			<path class="st2" d="M13.4,12.7c0,1-0.3,1.7-1,2.2c-0.6,0.4-1.3,0.6-2.2,0.6c-1,0-1.7-0.2-2.3-0.7C7.3,14.3,7,13.6,7,12.7
				c0-1.2,0.5-2.1,1.4-2.7C7.6,9.4,7.2,8.6,7.2,7.5c0-1,0.3-1.7,0.9-2.2c0.5-0.4,1.2-0.6,2-0.6c0.9,0,1.6,0.2,2.2,0.7
				c0.5,0.5,0.8,1.2,0.8,2.1c0,1.1-0.4,1.9-1.2,2.4C12.9,10.5,13.4,11.4,13.4,12.7L13.4,12.7z M12.4,12.7c0-0.8-0.2-1.3-0.8-1.7
				c-0.4-0.3-0.9-0.5-1.5-0.5c-0.7,0-1.2,0.2-1.6,0.6S8,12,8,12.7c0,1.2,0.7,1.9,2.2,1.9S12.4,13.9,12.4,12.7L12.4,12.7z M12.1,7.5
				c0-1.2-0.6-1.8-1.9-1.8S8.3,6.3,8.3,7.5c0,1.3,0.6,1.9,1.9,1.9S12.1,8.8,12.1,7.5z"/>
		</g>
	</g>
</g>
</svg>
