<?xml version="1.0" encoding="UTF-8"?><svg xmlns="http://www.w3.org/2000/svg" xmlns:xlink="http://www.w3.org/1999/xlink" viewBox="0 0 20.4 20.4"><defs><style>.f{fill:#fad7e9;}.g{fill:#f19ec2;}.h{fill:#fff;}.i{filter:url(#d);}</style><filter id="d" filterUnits="userSpaceOnUse"><feOffset dx="1" dy="1"/><feGaussianBlur result="e" stdDeviation=".5"/><feFlood flood-color="#000" flood-opacity=".75"/><feComposite in2="e" operator="in"/><feComposite in="SourceGraphic"/></filter></defs><g id="a"/><g id="b"><g id="c"><g class="i"><g><circle class="g" cx="10.2" cy="10.2" r="9.6"/><path class="f" d="M10.2,1.2c4.97,0,9,4.03,9,9s-4.03,9-9,9S1.2,15.17,1.2,10.2,5.23,1.2,10.2,1.2m0-1.2C4.58,0,0,4.58,0,10.2s4.58,10.2,10.2,10.2,10.2-4.58,10.2-10.2S15.82,0,10.2,0h0Z"/></g><path class="h" d="M13.42,12.66c0,.97-.33,1.71-1,2.22-.58,.43-1.32,.65-2.22,.65-.96,0-1.72-.23-2.29-.7-.62-.51-.93-1.23-.93-2.17,0-1.21,.48-2.12,1.43-2.74-.78-.5-1.17-1.3-1.17-2.4,0-.96,.31-1.68,.94-2.17,.52-.4,1.19-.6,2.01-.6,.91,0,1.63,.23,2.17,.7,.53,.47,.79,1.16,.79,2.07,0,1.11-.39,1.91-1.17,2.4,.96,.62,1.43,1.53,1.43,2.74Zm-1.01,0c0-.76-.25-1.34-.75-1.74-.4-.34-.89-.51-1.46-.51-.67,0-1.2,.21-1.6,.62s-.6,.96-.6,1.63c0,1.24,.74,1.86,2.21,1.86s2.21-.62,2.21-1.86Zm-.28-5.15c0-1.18-.64-1.77-1.93-1.77s-1.93,.59-1.93,1.77c0,1.25,.64,1.87,1.93,1.87s1.93-.62,1.93-1.87Z"/></g></g></g></svg>