<?xml version="1.0" encoding="UTF-8"?><svg xmlns="http://www.w3.org/2000/svg" xmlns:xlink="http://www.w3.org/1999/xlink" viewBox="0 0 20.4 20.4"><defs><style>.f{fill:#fad7e9;}.g{fill:#f19ec2;}.h{fill:#fff;}.i{filter:url(#d);}</style><filter id="d" filterUnits="userSpaceOnUse"><feOffset dx="1" dy="1"/><feGaussianBlur result="e" stdDeviation=".5"/><feFlood flood-color="#000" flood-opacity=".75"/><feComposite in2="e" operator="in"/><feComposite in="SourceGraphic"/></filter></defs><g id="a"/><g id="b"><g id="c"><g class="i"><g><circle class="g" cx="10.2" cy="10.2" r="9.6"/><path class="f" d="M10.2,1.2c4.97,0,9,4.03,9,9s-4.03,9-9,9S1.2,15.17,1.2,10.2,5.23,1.2,10.2,1.2m0-1.2C4.58,0,0,4.58,0,10.2s4.58,10.2,10.2,10.2,10.2-4.58,10.2-10.2S15.82,0,10.2,0h0Z"/></g><path class="h" d="M13.41,9.75c0,1.91-.23,3.32-.7,4.23-.52,1.03-1.38,1.55-2.6,1.55-1.46,0-2.43-.53-2.9-1.59-.14-.33-.21-.58-.21-.75,0-.32,.17-.48,.52-.48,.26,0,.42,.13,.48,.39,.23,.94,.94,1.41,2.11,1.41,.69,0,1.21-.26,1.56-.79,.39-.59,.63-1.58,.7-2.98-.69,.68-1.46,1.03-2.31,1.03-.9,0-1.64-.33-2.21-.98-.56-.67-.84-1.54-.84-2.62,0-.94,.24-1.72,.73-2.35,.57-.72,1.39-1.08,2.45-1.08,1.12,0,1.94,.38,2.43,1.15,.53,.8,.79,2.08,.79,3.85Zm-1.01-.98c0-.99-.21-1.77-.62-2.32-.36-.47-.89-.7-1.59-.7s-1.26,.23-1.65,.7c-.36,.44-.53,1.02-.53,1.73,0,.83,.21,1.49,.62,1.96,.37,.43,.84,.65,1.43,.65,.52,0,1.02-.18,1.5-.53,.55-.4,.83-.9,.83-1.48Z"/></g></g></g></svg>