<?xml version="1.0" encoding="utf-8"?>
<!-- Generator: Adobe Illustrator 26.2.1, SVG Export Plug-In . SVG Version: 6.00 Build 0)  -->
<svg version="1.1" id="Layer_1" xmlns="http://www.w3.org/2000/svg" xmlns:xlink="http://www.w3.org/1999/xlink" x="0px" y="0px"
	 viewBox="0 0 20.4 20.4" style="enable-background:new 0 0 20.4 20.4;" xml:space="preserve">
<style type="text/css">
	.st0{fill:#F9B653;}
	.st1{fill:#FFDEB3;}
	.st2{fill:#FFFFFF;}
</style>
<g id="a">
</g>
<g id="b">
	<g id="c">
		<g>
			<g>
				<circle class="st0" cx="10.2" cy="10.2" r="9.6"/>
				<path class="st1" d="M10.2,1.2c5,0,9,4,9,9s-4,9-9,9s-9-4-9-9S5.2,1.2,10.2,1.2 M10.2,0C4.6,0,0,4.6,0,10.2s4.6,10.2,10.2,10.2
					s10.2-4.6,10.2-10.2S15.8,0,10.2,0L10.2,0z"/>
			</g>
			<path class="st2" d="M13.4,9.8c0,1.9-0.2,3.3-0.7,4.2c-0.5,1-1.4,1.6-2.6,1.6c-1.5,0-2.4-0.5-2.9-1.6C7.1,13.6,7,13.4,7,13.2
				c0-0.3,0.2-0.5,0.5-0.5c0.3,0,0.4,0.1,0.5,0.4c0.2,0.9,0.9,1.4,2.1,1.4c0.7,0,1.2-0.3,1.6-0.8c0.4-0.6,0.6-1.6,0.7-3
				c-0.7,0.7-1.5,1-2.3,1c-0.9,0-1.6-0.3-2.2-1C7.3,10.1,7,9.2,7,8.2c0-0.9,0.2-1.7,0.7-2.3c0.6-0.7,1.4-1.1,2.5-1.1
				c1.1,0,1.9,0.4,2.4,1.2C13.1,6.7,13.4,8,13.4,9.8L13.4,9.8z M12.4,8.8c0-1-0.2-1.8-0.6-2.3c-0.4-0.5-0.9-0.7-1.6-0.7
				S8.9,6,8.5,6.5C8.2,6.9,8,7.5,8,8.2c0,0.8,0.2,1.5,0.6,2c0.4,0.4,0.8,0.6,1.4,0.6c0.5,0,1-0.2,1.5-0.5
				C12.1,9.9,12.4,9.4,12.4,8.8L12.4,8.8z"/>
		</g>
	</g>
</g>
</svg>
