<?xml version="1.0" encoding="UTF-8"?>
<svg id="Layer_1" xmlns="http://www.w3.org/2000/svg" xmlns:xlink="http://www.w3.org/1999/xlink" version="1.1" viewBox="0 0 190.9 56.3">
  <!-- Generator: Adobe Illustrator 29.1.0, SVG Export Plug-In . SVG Version: 2.1.0 Build 142)  -->
  <defs>
    <style>
      .st0 {
        fill: url(#linear-gradient29);
        fill-rule: evenodd;
      }

      .st1 {
        fill: url(#linear-gradient1);
      }

      .st2 {
        fill: url(#linear-gradient9);
      }

      .st3 {
        fill: url(#linear-gradient8);
      }

      .st4 {
        fill: url(#linear-gradient7);
      }

      .st5 {
        fill: #f9b653;
      }

      .st5, .st6, .st7, .st8, .st9 {
        display: none;
      }

      .st10 {
        fill: url(#radial-gradient1);
      }

      .st10, .st11, .st12, .st13, .st14, .st15, .st16, .st17, .st18 {
        isolation: isolate;
      }

      .st10, .st18 {
        mix-blend-mode: color-burn;
      }

      .st19 {
        fill: url(#linear-gradient31);
      }

      .st20 {
        fill: url(#linear-gradient30);
      }

      .st21 {
        fill: url(#linear-gradient32);
      }

      .st22 {
        fill: url(#linear-gradient34);
      }

      .st23 {
        fill: url(#linear-gradient33);
      }

      .st24 {
        fill: url(#linear-gradient28);
      }

      .st25 {
        fill: url(#linear-gradient18);
      }

      .st26 {
        fill: url(#linear-gradient13);
      }

      .st27 {
        fill: url(#linear-gradient12);
      }

      .st28 {
        fill: url(#linear-gradient15);
      }

      .st29 {
        fill: url(#linear-gradient16);
      }

      .st30 {
        fill: url(#linear-gradient11);
      }

      .st31 {
        fill: url(#linear-gradient10);
      }

      .st32 {
        fill: url(#linear-gradient17);
      }

      .st33 {
        fill: url(#linear-gradient14);
      }

      .st34 {
        fill: url(#linear-gradient19);
      }

      .st35 {
        fill: url(#linear-gradient23);
      }

      .st36 {
        fill: url(#linear-gradient22);
      }

      .st37 {
        fill: url(#linear-gradient24);
      }

      .st38 {
        fill: url(#linear-gradient25);
      }

      .st39 {
        fill: url(#linear-gradient21);
      }

      .st40 {
        fill: url(#linear-gradient20);
      }

      .st41 {
        fill: url(#linear-gradient27);
      }

      .st42 {
        fill: url(#linear-gradient26);
      }

      .st6 {
        filter: url(#drop-shadow-3);
      }

      .st6, .st7, .st8, .st43, .st44 {
        fill: #fff;
      }

      .st6, .st7, .st44 {
        font-family: HiraMaruProN-W4-83pv-RKSJ-H, 'Hiragino Maru Gothic ProN';
        font-size: 23.8px;
        letter-spacing: 0em;
        stroke: #fff;
        stroke-miterlimit: 10;
        stroke-width: .2px;
      }

      .st7 {
        filter: url(#drop-shadow-2);
      }

      .st45 {
        fill: url(#linear-gradient);
      }

      .st46 {
        mix-blend-mode: multiply;
      }

      .st12 {
        fill: url(#linear-gradient4);
      }

      .st12, .st13, .st14, .st15, .st16, .st17 {
        mix-blend-mode: color-dodge;
      }

      .st13 {
        fill: url(#linear-gradient5);
      }

      .st14 {
        fill: url(#linear-gradient3);
      }

      .st15 {
        fill: url(#linear-gradient6);
      }

      .st16 {
        fill: url(#linear-gradient2);
      }

      .st17 {
        fill: url(#radial-gradient2);
      }

      .st18 {
        fill: url(#radial-gradient);
      }

      .st44 {
        filter: url(#drop-shadow-1);
      }
    </style>
    <linearGradient id="linear-gradient" x1="33.9" y1="25.6" x2="168.1" y2="25.6" gradientUnits="userSpaceOnUse">
      <stop offset="0" stop-color="#f9b653"/>
      <stop offset="1" stop-color="#ff895c"/>
    </linearGradient>
    <linearGradient id="linear-gradient1" x1="33.2" y1="46" x2="33.2" y2="13.6" gradientTransform="translate(0 56.8) scale(1 -1)" gradientUnits="userSpaceOnUse">
      <stop offset="0" stop-color="#d4d4d4"/>
      <stop offset="1" stop-color="#737373"/>
    </linearGradient>
    <radialGradient id="radial-gradient" cx="33.2" cy="31.2" fx="33.2" fy="31.2" r="18.8" gradientTransform="translate(0 56.8) scale(1 -1)" gradientUnits="userSpaceOnUse">
      <stop offset=".8" stop-color="#fff"/>
      <stop offset=".8" stop-color="#f9f9f9"/>
      <stop offset=".9" stop-color="#e8e8e8"/>
      <stop offset=".9" stop-color="#ccc"/>
      <stop offset=".9" stop-color="#c7c7c7"/>
      <stop offset="1" stop-color="#fff"/>
    </radialGradient>
    <radialGradient id="radial-gradient1" cx="33.2" cy="31.2" fx="33.2" fy="31.2" r="18.8" gradientTransform="translate(0 56.8) scale(1 -1)" gradientUnits="userSpaceOnUse">
      <stop offset=".8" stop-color="#fff"/>
      <stop offset=".9" stop-color="#f9f9f9"/>
      <stop offset=".9" stop-color="#f0f0f0"/>
      <stop offset="1" stop-color="#fff"/>
    </radialGradient>
    <radialGradient id="radial-gradient2" cx="41.6" cy="10.1" fx="41.6" fy="10.1" r="41.6" gradientTransform="translate(0 56.8) scale(1 -1)" gradientUnits="userSpaceOnUse">
      <stop offset="0" stop-color="#a8a8a8"/>
      <stop offset="0" stop-color="#888"/>
      <stop offset=".2" stop-color="#5f5f5f"/>
      <stop offset=".4" stop-color="#3c3c3c"/>
      <stop offset=".5" stop-color="#222"/>
      <stop offset=".7" stop-color="#0f0f0f"/>
      <stop offset=".8" stop-color="#030303"/>
      <stop offset="1" stop-color="#000"/>
    </radialGradient>
    <linearGradient id="linear-gradient2" x1="32.2" y1="30.2" x2="16" y2="16.2" gradientTransform="translate(0 56.8) scale(1 -1)" gradientUnits="userSpaceOnUse">
      <stop offset="0" stop-color="#000"/>
      <stop offset=".1" stop-color="#070707"/>
      <stop offset=".3" stop-color="#1a1a1a"/>
      <stop offset=".5" stop-color="#3b3b3b"/>
      <stop offset=".8" stop-color="#686868"/>
      <stop offset="1" stop-color="#949494"/>
    </linearGradient>
    <linearGradient id="linear-gradient3" x1="38.8" y1="37.2" x2="53.5" y2="51.6" gradientTransform="translate(0 56.8) scale(1 -1)" gradientUnits="userSpaceOnUse">
      <stop offset="0" stop-color="#000"/>
      <stop offset=".1" stop-color="#070707"/>
      <stop offset=".3" stop-color="#1a1a1a"/>
      <stop offset=".5" stop-color="#3b3b3b"/>
      <stop offset=".8" stop-color="#686868"/>
      <stop offset="1" stop-color="#949494"/>
    </linearGradient>
    <linearGradient id="linear-gradient4" x1="15.6" y1="37.9" x2="27.6" y2="30.7" gradientTransform="translate(0 56.8) scale(1 -1)" gradientUnits="userSpaceOnUse">
      <stop offset="0" stop-color="#000"/>
      <stop offset=".1" stop-color="#070707"/>
      <stop offset=".3" stop-color="#1a1a1a"/>
      <stop offset=".5" stop-color="#3b3b3b"/>
      <stop offset=".8" stop-color="#686868"/>
      <stop offset="1" stop-color="#949494"/>
    </linearGradient>
    <linearGradient id="linear-gradient5" x1="36.1" y1="30.4" x2="57.4" y2="19.7" gradientTransform="translate(0 56.8) scale(1 -1)" gradientUnits="userSpaceOnUse">
      <stop offset="0" stop-color="#000"/>
      <stop offset=".1" stop-color="#070707"/>
      <stop offset=".3" stop-color="#1a1a1a"/>
      <stop offset=".5" stop-color="#3b3b3b"/>
      <stop offset=".8" stop-color="#686868"/>
      <stop offset="1" stop-color="#949494"/>
    </linearGradient>
    <linearGradient id="linear-gradient6" x1="32.1" y1="36.6" x2="26.6" y2="49.8" gradientTransform="translate(0 56.8) scale(1 -1)" gradientUnits="userSpaceOnUse">
      <stop offset="0" stop-color="#000"/>
      <stop offset=".1" stop-color="#070707"/>
      <stop offset=".3" stop-color="#1a1a1a"/>
      <stop offset=".5" stop-color="#3b3b3b"/>
      <stop offset=".8" stop-color="#686868"/>
      <stop offset="1" stop-color="#949494"/>
    </linearGradient>
    <linearGradient id="linear-gradient7" x1="19.8" y1="31.1" x2="46.8" y2="31.1" gradientTransform="translate(0 56.8) scale(1 -1)" gradientUnits="userSpaceOnUse">
      <stop offset="0" stop-color="#f9b653"/>
      <stop offset="1" stop-color="#f9e0ac"/>
    </linearGradient>
    <linearGradient id="linear-gradient8" x1="32.2" y1="15.5" x2="34.5" y2="15.5" xlink:href="#linear-gradient"/>
    <linearGradient id="linear-gradient9" x1="32.2" y1="36" x2="34.5" y2="36" xlink:href="#linear-gradient"/>
    <linearGradient id="linear-gradient10" x1="21.7" y1="25.8" x2="24.4" y2="25.8" xlink:href="#linear-gradient"/>
    <linearGradient id="linear-gradient11" x1="45" y1="25.7" x2="45" y2="25.7" xlink:href="#linear-gradient"/>
    <linearGradient id="linear-gradient12" x1="42.3" y1="25.8" x2="45" y2="25.8" xlink:href="#linear-gradient"/>
    <linearGradient id="linear-gradient13" x1="24.3" y1="33" x2="27.9" y2="33" xlink:href="#linear-gradient"/>
    <linearGradient id="linear-gradient14" x1="42.3" y1="18.4" x2="42.3" y2="18.4" xlink:href="#linear-gradient"/>
    <linearGradient id="linear-gradient15" x1="38.8" y1="18.5" x2="42.3" y2="18.5" xlink:href="#linear-gradient"/>
    <linearGradient id="linear-gradient16" x1="24.3" y1="18.5" x2="27.8" y2="18.5" xlink:href="#linear-gradient"/>
    <linearGradient id="linear-gradient17" x1="38.8" y1="33" x2="42.3" y2="33" xlink:href="#linear-gradient"/>
    <linearGradient id="linear-gradient18" x1="27.8" y1="35.2" x2="31" y2="35.2" xlink:href="#linear-gradient"/>
    <linearGradient id="linear-gradient19" x1="35.7" y1="16.3" x2="38.8" y2="16.3" xlink:href="#linear-gradient"/>
    <linearGradient id="linear-gradient20" x1="22.2" y1="21.8" x2="25.5" y2="21.8" xlink:href="#linear-gradient"/>
    <linearGradient id="linear-gradient21" x1="41.1" y1="29.7" x2="44.5" y2="29.7" xlink:href="#linear-gradient"/>
    <linearGradient id="linear-gradient22" x1="22.2" y1="29.7" x2="25.5" y2="29.7" xlink:href="#linear-gradient"/>
    <linearGradient id="linear-gradient23" x1="41.1" y1="21.8" x2="44.5" y2="21.8" xlink:href="#linear-gradient"/>
    <linearGradient id="linear-gradient24" x1="30" y1="14.6" x2="30" y2="14.6" xlink:href="#linear-gradient"/>
    <linearGradient id="linear-gradient25" x1="27.8" y1="16.3" x2="31" y2="16.3" xlink:href="#linear-gradient"/>
    <linearGradient id="linear-gradient26" x1="35.7" y1="35.2" x2="38.8" y2="35.2" xlink:href="#linear-gradient"/>
    <linearGradient id="linear-gradient27" x1="24.9" y1="31.1" x2="41.7" y2="31.1" gradientTransform="translate(0 56.8) scale(1 -1)" xlink:href="#linear-gradient"/>
    <linearGradient id="linear-gradient28" x1="32.1" y1="31.1" x2="34.6" y2="31.1" gradientTransform="translate(0 56.8) scale(1 -1)" xlink:href="#linear-gradient"/>
    <filter id="drop-shadow-1" filterUnits="userSpaceOnUse">
      <feOffset dx="2.8" dy="0"/>
      <feGaussianBlur result="blur" stdDeviation="1.4"/>
      <feFlood flood-color="#000" flood-opacity=".4"/>
      <feComposite in2="blur" operator="in"/>
      <feComposite in="SourceGraphic"/>
    </filter>
    <filter id="drop-shadow-2" filterUnits="userSpaceOnUse">
      <feOffset dx="2.8" dy="0"/>
      <feGaussianBlur result="blur1" stdDeviation="1.4"/>
      <feFlood flood-color="#000" flood-opacity=".4"/>
      <feComposite in2="blur1" operator="in"/>
      <feComposite in="SourceGraphic"/>
    </filter>
    <filter id="drop-shadow-3" filterUnits="userSpaceOnUse">
      <feOffset dx="2.8" dy="0"/>
      <feGaussianBlur result="blur2" stdDeviation="1.4"/>
      <feFlood flood-color="#000" flood-opacity=".4"/>
      <feComposite in2="blur2" operator="in"/>
      <feComposite in="SourceGraphic"/>
    </filter>
    <linearGradient id="linear-gradient29" x1="33" y1="21.1" x2="33" y2="42.7" gradientTransform="translate(0 56.8) scale(1 -1)" gradientUnits="userSpaceOnUse">
      <stop offset="0" stop-color="#f99e27"/>
      <stop offset="1" stop-color="#ff6408"/>
    </linearGradient>
    <linearGradient id="linear-gradient30" x1="24.3" y1="32.6" x2="32.7" y2="32.6" gradientTransform="matrix(1,0,0,1,0,0)" xlink:href="#linear-gradient29"/>
    <linearGradient id="linear-gradient31" x1="23" y1="24.3" x2="32.7" y2="24.3" gradientTransform="matrix(1,0,0,1,0,0)" xlink:href="#linear-gradient29"/>
    <linearGradient id="linear-gradient32" x1="26.2" y1="17.7" x2="40.7" y2="17.7" gradientTransform="matrix(1,0,0,1,0,0)" xlink:href="#linear-gradient29"/>
    <linearGradient id="linear-gradient33" x1="34.1" y1="32.7" x2="42.4" y2="32.7" gradientTransform="matrix(1,0,0,1,0,0)" xlink:href="#linear-gradient29"/>
    <linearGradient id="linear-gradient34" x1="34.1" y1="24.3" x2="43.8" y2="24.3" gradientTransform="matrix(1,0,0,1,0,0)" xlink:href="#linear-gradient29"/>
  </defs>
  <g class="st11">
    <g id="b">
      <g id="c">
        <g>
          <g>
            <g class="st46">
              <image class="st11" width="225" height="110" transform="translate(15.8 -16.5) scale(.8)" xlink:href="ranking-title-3-1.png"/>
            </g>
            <path class="st45" d="M33.9,6.9v37.5h114.6c10.8,0,19.6-8.4,19.6-18.7h0c0-10.3-8.8-18.7-19.6-18.7H33.9Z"/>
            <g>
              <circle class="st1" cx="33.2" cy="25.6" r="18.7"/>
              <circle class="st18" cx="33.2" cy="25.6" r="18.7"/>
              <path class="st10" d="M51.9,25.6c0,10.4-8.4,18.8-18.8,18.8s-14.7-4.9-17.5-11.9c-.8-2.1-1.3-4.4-1.3-6.8,0-10.3,8.4-18.8,18.8-18.8s18.5,8.1,18.7,18.2v.5h0Z"/>
              <path class="st17" d="M51.9,25.6c0,10.4-8.4,18.8-18.8,18.8s-14.7-4.9-17.5-11.9c4.7-5.7,13.5-9.5,23.6-9.5s8.8.8,12.6,2.2v.5h0Z"/>
              <path class="st16" d="M37.1,41.3c-10.9,0-19.8-8.9-19.8-19.8s.2-3.6.7-5.3c-1.6,2.7-2.6,5.8-2.6,9.2,0,9.8,8,17.8,17.8,17.8s6.5-.9,9.2-2.6c-1.7.5-3.5.7-5.3.7h0Z"/>
              <path class="st14" d="M46.3,19.3h3.8c-1.8-4.9-5.7-8.9-10.8-10.9l-1.2,3.2c3.7,1.4,6.6,4.2,8.3,7.6Z"/>
              <path class="st12" d="M20,24c.2-3.3,1.5-6.2,3.5-8.5l-2.2-2.4c-2.6,2.8-4.3,6.5-4.5,10.7-.1,1.9,0,3.7.5,5.4l2.9-1.7c-.2-1.1-.3-2.3-.2-3.5Z"/>
              <path class="st13" d="M51,24.5l-3.4-.8c-.3,5-3,9.4-7,12l1.6,3.1c4.9-3,8.3-8.2,8.8-14.2h0Z"/>
              <path class="st15" d="M24.6,10.8l2.1,3c1.5-1.2,3-1.8,4.9-2.3l-.8-3c-1.8,0-4.3.9-6.2,2.2h0Z"/>
            </g>
          </g>
          <g>
            <g>
              <g>
                <path class="st4" d="M46.8,25.7c0,7.5-6,13.5-13.5,13.5s-13.5-6-13.5-13.5,6-13.5,13.5-13.5,13.5,6,13.5,13.5Z"/>
                <path class="st43" d="M45.7,25.7c0,6.9-5.6,12.4-12.4,12.4s-12.4-5.6-12.4-12.4,5.6-12.4,12.4-12.4,12.4,5.6,12.4,12.4Z"/>
                <path class="st43" d="M45.2,25.7c0,.4,0,.8,0,1.2,0,.8-.2,1.5-.4,2.2-.2.8-.5,1.5-.9,2.2-.4.7-.8,1.3-1.3,1.9-.5.6-1.1,1.2-1.7,1.7-.6.5-1.2.9-1.9,1.2-.7.4-1.4.7-2.2.9-.7.2-1.5.4-2.2.4-.4,0-.8,0-1.2,0s-.8,0-1.2,0c-.8,0-1.5-.2-2.2-.4-.8-.2-1.5-.5-2.2-.9-.7-.4-1.3-.8-1.9-1.3-.6-.5-1.2-1.1-1.7-1.7-.5-.6-.9-1.2-1.3-1.9-.4-.7-.7-1.4-.9-2.2-.2-.7-.4-1.5-.5-2.2,0-.4,0-.8,0-1.2s0-.8,0-1.2c0-.8.2-1.5.4-2.2.2-.8.5-1.5.9-2.2.4-.7.8-1.3,1.3-1.9.5-.6,1.1-1.2,1.7-1.7.6-.5,1.2-.9,1.9-1.3.7-.4,1.4-.7,2.2-.9.7-.2,1.5-.4,2.2-.5s.8,0,1.2,0,.8,0,1.2,0c.8,0,1.5.2,2.2.4.8.2,1.5.5,2.2.9.7.4,1.3.8,1.9,1.3.6.5,1.2,1.1,1.7,1.7.5.6.9,1.2,1.3,1.9.4.7.7,1.4.9,2.2.2.7.4,1.5.4,2.2,0,.4,0,.8,0,1.2h0Z"/>
                <path class="st43" d="M45,25.7c0,.4,0,.8,0,1.2,0,.7-.2,1.5-.4,2.2-.2.8-.5,1.5-.9,2.2-.3.7-.8,1.3-1.2,1.8-.5.6-1,1.2-1.7,1.7-.6.5-1.2.9-1.8,1.2-.7.4-1.4.7-2.2.9-.7.2-1.4.4-2.2.4-.4,0-.8,0-1.2,0s-.8,0-1.2,0c-.7,0-1.5-.2-2.2-.4-.8-.2-1.5-.5-2.2-.9-.7-.3-1.3-.8-1.8-1.2-.6-.5-1.2-1-1.7-1.7-.5-.6-.9-1.2-1.2-1.8-.4-.7-.7-1.4-.9-2.2-.2-.7-.4-1.4-.4-2.2,0-.4,0-.8,0-1.2s0-.8,0-1.2c0-.8.2-1.5.4-2.2.2-.8.5-1.5.9-2.2.3-.7.8-1.3,1.2-1.9.5-.6,1-1.2,1.7-1.7.6-.5,1.2-.9,1.8-1.2.7-.4,1.4-.7,2.2-.9.7-.2,1.4-.4,2.2-.4.4,0,.8,0,1.2,0s.8,0,1.2,0c.8,0,1.5.2,2.2.4.8.2,1.5.5,2.2.9.7.4,1.3.8,1.9,1.2.6.5,1.2,1,1.7,1.7.5.6.9,1.2,1.2,1.8.4.7.7,1.4.9,2.2.2.7.4,1.4.4,2.2,0,.4,0,.8,0,1.2h0Z"/>
                <g>
                  <path class="st3" d="M32.2,14.2v2.6c0,0,.2,0,.3,0,.3,0,.6,0,.9,0s.6,0,.9,0c0,0,.2,0,.3,0v-2.6c-.4,0-.8,0-1.2,0s-.8,0-1.2,0Z"/>
                  <path class="st2" d="M33.3,34.7c-.3,0-.6,0-.9,0,0,0-.2,0-.3,0v2.6c.4,0,.8,0,1.2,0s.8,0,1.2,0v-2.6c0,0-.2,0-.3,0-.3,0-.6,0-.9,0Z"/>
                  <path class="st31" d="M24.4,26.7h0c0-.3,0-.6,0-.9s0-.6,0-.9c0,0,0-.2,0-.3h-2.6c0,.4,0,.8,0,1.2s0,.8,0,1.2h2.6c0,0,0-.2,0-.3Z"/>
                  <polygon class="st30" points="45 25.7 45 25.7 45 25.7 45 25.7"/>
                  <path class="st27" d="M42.3,24.6c0,0,0,.2,0,.3,0,.3,0,.6,0,.9s0,.6,0,.9c0,0,0,.2,0,.3h2.7c0-.4,0-.8,0-1.2,0-.4,0-.8,0-1.2h-2.6Z"/>
                  <path class="st26" d="M27.6,32.7h0c-.5-.4-.9-.8-1.3-1.3,0,0-.1-.1-.2-.2l-1.9,1.9c.5.6,1,1.2,1.7,1.7l1.9-1.9c0,0-.1-.1-.2-.2Z"/>
                  <polygon class="st33" points="42.3 18.4 42.3 18.4 42.3 18.4 42.3 18.4"/>
                  <path class="st28" d="M39,18.8c.5.4.9.8,1.3,1.3,0,0,.1.1.2.2l1.9-1.9c-.5-.6-1-1.2-1.7-1.7l-1.9,1.9c0,0,.1.1.2.2Z"/>
                  <path class="st29" d="M26.3,20c.4-.5.8-.9,1.3-1.3,0,0,.1-.1.2-.2l-1.9-1.9h0c-.6.5-1.2,1-1.7,1.7l1.9,1.9c0,0,.1-.1.2-.2Z"/>
                  <path class="st32" d="M40.5,31.2c0,0-.1.1-.2.2-.4.5-.8.9-1.3,1.3,0,0-.1.1-.2.2l1.9,1.9c.6-.5,1.2-1,1.7-1.7h0l-1.9-1.9Z"/>
                  <path class="st25" d="M29.1,33.7c0,0-.2,0-.2-.1l-1,2.5c.7.4,1.4.7,2.2.9l1-2.5c0,0-.2,0-.3,0-.6-.2-1.2-.4-1.7-.7Z"/>
                  <path class="st34" d="M37.6,17.8c0,0,.1,0,.2.1l1-2.5h0c-.7-.4-1.4-.7-2.2-.9l-1,2.5c0,0,.2,0,.3,0,.6.2,1.1.4,1.7.7Z"/>
                  <path class="st40" d="M24.7,23.2c.2-.6.4-1.1.7-1.7,0,0,0-.1.1-.2l-2.4-1h0c-.4.7-.7,1.4-.9,2.2l2.5,1c0,0,0-.2,0-.3Z"/>
                  <path class="st39" d="M42,28.1c0,0,0,.2,0,.2-.2.6-.4,1.1-.7,1.7,0,0,0,.2-.1.2l2.5,1c.4-.7.7-1.4.9-2.2h0s-2.4-1-2.4-1Z"/>
                  <path class="st36" d="M25.4,30c-.3-.5-.5-1.1-.7-1.7,0,0,0-.2,0-.2l-2.4,1c.2.8.5,1.5.9,2.2l2.4-1c0,0,0-.2-.1-.2Z"/>
                  <path class="st35" d="M41.3,21.5c.3.5.5,1.1.7,1.7,0,0,0,.2,0,.3l2.4-1h0c-.2-.8-.5-1.5-.9-2.2l-2.4,1c0,0,0,.2.1.2Z"/>
                  <polygon class="st37" points="30 14.6 30 14.6 30 14.6 30 14.6"/>
                  <path class="st38" d="M28.8,17.9c0,0,.1,0,.2-.1.5-.3,1.1-.5,1.7-.7,0,0,.2,0,.2,0l-1-2.4c-.7.2-1.5.5-2.2.9l1,2.4Z"/>
                  <path class="st42" d="M37.6,33.7c-.5.3-1.1.5-1.7.7,0,0-.2,0-.3,0l1,2.4c.8-.2,1.5-.5,2.2-.9l-1-2.4c0,0-.2,0-.2.1Z"/>
                </g>
                <path class="st43" d="M42.3,25.7c0,.3,0,.6,0,.9,0,.6-.2,1.1-.3,1.7-.2.6-.4,1.2-.7,1.7-.3.5-.6,1-1,1.4-.4.5-.8.9-1.3,1.3-.4.4-.9.7-1.4,1-.5.3-1.1.5-1.7.7-.5.2-1.1.3-1.7.3-.3,0-.6,0-.9,0s-.6,0-.9,0c-.6,0-1.1-.2-1.7-.3-.6-.2-1.2-.4-1.7-.7-.5-.3-1-.6-1.4-1-.5-.4-.9-.8-1.3-1.3-.4-.4-.7-.9-1-1.4-.3-.5-.5-1.1-.7-1.7-.2-.5-.3-1.1-.3-1.7,0-.3,0-.6,0-.9s0-.6,0-.9c0-.6.2-1.1.3-1.7.2-.6.4-1.2.7-1.7.3-.5.6-1,1-1.4.4-.5.8-.9,1.3-1.3.4-.4.9-.7,1.4-1,.5-.3,1.1-.5,1.7-.7.5-.2,1.1-.3,1.7-.3.3,0,.6,0,.9,0s.6,0,.9,0c.6,0,1.1.2,1.7.3.6.2,1.2.4,1.7.7.5.3,1,.6,1.4,1,.5.4.9.8,1.3,1.3.4.4.7.9,1,1.4.3.5.5,1.1.7,1.7.2.5.3,1.1.3,1.7,0,.3,0,.6,0,.9h0Z"/>
                <path class="st41" d="M41.7,25.7c0,.3,0,.6,0,.9,0,.5-.2,1.1-.3,1.6-.2.5-.4,1.1-.7,1.6-.3.5-.5.9-.9,1.3-.4.4-.8.8-1.2,1.2-.4.3-.8.6-1.3.9-.5.3-1,.5-1.6.7-.5.2-1,.3-1.6.3-.3,0-.6,0-.8,0s-.6,0-.8,0c-.5,0-1.1-.2-1.6-.3-.5-.2-1.1-.4-1.6-.6-.5-.2-.9-.5-1.3-.9-.4-.4-.8-.8-1.2-1.2-.3-.4-.6-.8-.9-1.3-.3-.5-.5-1-.7-1.6-.2-.5-.3-1-.3-1.6,0-.3,0-.6,0-.9s0-.6,0-.8c0-.5.2-1.1.3-1.6.2-.5.4-1.1.6-1.6.2-.5.5-.9.9-1.3.4-.4.8-.8,1.2-1.2.4-.3.8-.6,1.3-.9.5-.3,1-.5,1.6-.7.5-.2,1-.3,1.6-.3.3,0,.6,0,.8,0s.6,0,.8,0c.5,0,1.1.2,1.6.3.5.2,1.1.4,1.6.7.5.3.9.6,1.3.9.4.4.8.8,1.2,1.2.3.4.6.8.9,1.3.3.5.5,1,.7,1.6.2.5.3,1,.3,1.6,0,.3,0,.5,0,.8h0Z"/>
                <path class="st43" d="M35.2,25.7v.2c0,.1,0,.2,0,.4,0,.1,0,.2-.2.4,0,.1-.1.2-.2.3,0,0-.2.2-.3.3,0,0-.2.1-.3.2s-.2.1-.4.2c-.1,0-.2,0-.4,0h-.4c-.1,0-.2,0-.3,0-.1,0-.2,0-.4-.2-.1,0-.2-.1-.3-.2,0,0-.2-.2-.3-.3,0,0-.1-.2-.2-.3s-.1-.2-.2-.4c0-.1,0-.2,0-.4v-.4c0-.1,0-.2,0-.4,0-.1,0-.2.2-.4,0-.1.1-.2.2-.3,0,0,.2-.2.3-.3,0,0,.2-.1.3-.2s.2-.1.4-.2c.1,0,.2,0,.4,0h.4c.1,0,.2,0,.4,0,.1,0,.2,0,.4.2.1,0,.2.1.3.2,0,0,.2.2.3.3,0,0,.1.2.2.3s.1.2.2.4c0,.1,0,.2,0,.4v.2h0Z"/>
                <g>
                  <g>
                    <rect class="st43" x="33.1" y="19.6" width=".5" height="12.4" transform="translate(-8.4 31.1) rotate(-45)"/>
                    <path class="st43" d="M29.3,21c.2.2.2.5,0,.6-.2.2-.5.2-.6,0-.2-.2-.2-.5,0-.6.2-.2.5-.2.6,0Z"/>
                    <path class="st43" d="M38,29.8c.2.2.2.5,0,.6-.2.2-.5.2-.6,0-.2-.2-.2-.5,0-.6.2-.2.5-.2.6,0Z"/>
                  </g>
                  <g>
                    <rect class="st43" x="27.2" y="25.5" width="12.4" height=".5" transform="translate(-8.4 31.1) rotate(-45)"/>
                    <path class="st43" d="M38,21.7c-.2.2-.5.2-.6,0-.2-.2-.2-.5,0-.6.2-.2.5-.2.6,0,.2.2.2.5,0,.6Z"/>
                    <path class="st43" d="M29.3,30.4c-.2.2-.5.2-.6,0-.2-.2-.2-.5,0-.6.2-.2.5-.2.6,0,.2.2.2.5,0,.6Z"/>
                  </g>
                </g>
                <path class="st24" d="M34.6,25.7c0,.7-.5,1.2-1.2,1.2s-1.2-.5-1.2-1.2.5-1.2,1.2-1.2,1.2.5,1.2,1.2Z"/>
                <path class="st43" d="M34,25.7c0,.4-.3.7-.7.7s-.7-.3-.7-.7.3-.7.7-.7.7.3.7.7Z"/>
              </g>
              <circle class="st8" cx="39.9" cy="32.7" r=".7"/>
            </g>
            <circle class="st5" cx="33.3" cy="25.7" r="13.5"/>
          </g>
        </g>
      </g>
    </g>
  </g>
  <text class="st44" transform="translate(64 34.7) scale(1) skewX(-16.7)"><tspan x="0" y="0">收禮榜</tspan></text>
  <text class="st7" transform="translate(64 34.7) scale(1) skewX(-16.7)"><tspan x="0" y="0">活動榜</tspan></text>
  <text class="st6" transform="translate(64 34.7) scale(1) skewX(-16.7)"><tspan x="0" y="0">帶貨榜</tspan></text>
  <g id="Layer_2" class="st9">
    <g id="_層_1">
      <path class="st0" d="M41.8,16.4c0-1.5-1-2.3-2-2.3h-13.7c-1,0-1.9.8-2.1,2.3,0,1.5-1.5,16.4-1.5,17.6,0,1.1.8,1.7,2.1,1.7h16.6c1.4,0,2.3-.6,2.2-1.7,0-1.2-1.5-16.1-1.6-17.6h0ZM28.7,18.4c0,.6-.4,1-.9,1s-1-.4-1-1,.4-.9,1-.9.9.4.9.9h0ZM37.1,18.4c0,.6.4,1,1,1s.9-.4.9-1-.4-.9-.9-.9-1,.4-1,.9h0ZM32.9,28.9h-.2c-1.4,0-2.6-.5-3.4-1.4-1.8-2-2.2-5.2-2.3-7.2-.8-.3-1.4-1-1.4-1.9s.9-2,2.1-2,2,.9,2,2-.6,1.6-1.4,1.9c0,1.8.4,4.7,2,6.2.7.8,1.5,1.2,2.6,1.2s1.9-.4,2.6-1.2c1.5-1.5,1.9-4.4,2-6.2-.8-.3-1.3-1-1.3-1.9s.9-2,2-2,2,.9,2,2-.6,1.6-1.4,1.9c0,2-.4,5.2-2.3,7.2-.9.9-2.1,1.4-3.4,1.4h0,0Z"/>
    </g>
  </g>
  <g id="Layer_21" data-name="Layer_2" class="st9">
    <g id="_層_11" data-name="_層_1">
      <g>
        <rect class="st20" x="24.3" y="28.5" width="8.3" height="8.3"/>
        <polygon class="st19" points="32.7 24.1 32.7 27.1 23 27.1 23 21.6 31.3 21.6 32.7 21.6 32.7 24.1"/>
        <path class="st21" d="M33,20.5c-.6,0-1-.5-1-1h0c0-.3,0-.5.2-.7-.5-.5-2.9-2.8-4-1.4-1.2,1.6,2.6,3.1,2.6,3.1-6.3,0-4.9-4-3.5-5.2,1.4-1.2,2-.2,2-.2l3.1,3.4c.2-.1.4-.2.6-.2h.9c.2,0,.4,0,.6.2l3.1-3.4s.6-1.1,2,.2,2.8,5.2-3.5,5.2c0,0,3.8-1.5,2.6-3.1-1.1-1.5-3.5.9-4,1.4.1.2.2.4.2.6h0c0,.6-.5,1.1-1,1.1h-.9Z"/>
        <rect class="st23" x="34.1" y="28.6" width="8.3" height="8.3"/>
        <polygon class="st22" points="43.8 27.1 34.1 27.1 34.1 24.1 34.1 21.6 35.4 21.6 43.8 21.6 43.8 27.1"/>
      </g>
    </g>
  </g>
</svg>