<?xml version="1.0" encoding="UTF-8"?><svg xmlns="http://www.w3.org/2000/svg" viewBox="0 0 33 37.81"><defs><style>.d{fill:#e9528e;}</style></defs><g id="a"/><g id="b"><g id="c"><path class="d" d="M31.08,.44c-.43-.23-.89-.38-1.37-.43-.12-.01-.25-.02-.37-.02H5.73C3.71,0,2.06,1.65,2.06,3.67v1.83H.67c-.37,0-.67,.3-.67,.67v3.37c0,.37,.3,.67,.67,.67h1.39v2.53H.67c-.37,0-.67,.3-.67,.67v3.37c0,.37,.3,.67,.67,.67h1.39v2.53H.67c-.37,0-.67,.3-.67,.67v3.37c0,.37,.3,.67,.67,.67h1.39v2.53H.67c-.37,0-.67,.3-.67,.67v3.37c0,.37,.3,.67,.67,.67h1.39v2.2c0,2.02,1.65,3.67,3.67,3.67H29.33c.13,0,.25,0,.37-.02,.48-.05,.95-.19,1.37-.42,.31-.17,.59-.38,.85-.63,.69-.69,1.07-1.61,1.07-2.59V3.67c0-.98-.38-1.9-1.08-2.59-.25-.25-.54-.46-.85-.63Zm-4.36,7.32c-.15-.15-.33-.25-.57-.24-.22,0-.42,.09-.57,.24l-2.69,2.71-.02-9.12h6.51l.02,9.14-2.68-2.72Z"/></g></g></svg>