<?xml version="1.0" encoding="UTF-8"?>
<svg id="Layer_1" xmlns="http://www.w3.org/2000/svg" version="1.1" viewBox="0 0 33 37.8">
  <!-- Generator: Adobe Illustrator 29.1.0, SVG Export Plug-In . SVG Version: 2.1.0 Build 142)  -->
  <defs>
    <style>
      .st0 {
        fill: #f9b653;
      }
    </style>
  </defs>
  <g id="b">
    <g id="c">
      <path class="st0" d="M31.1.4c-.4-.2-.9-.4-1.4-.4-.1,0-.2,0-.4,0H5.7C3.7,0,2.1,1.6,2.1,3.7v1.8H.7c-.4,0-.7.3-.7.7v3.4c0,.4.3.7.7.7h1.4v2.5H.7c-.4,0-.7.3-.7.7v3.4c0,.4.3.7.7.7h1.4v2.5H.7c-.4,0-.7.3-.7.7v3.4c0,.4.3.7.7.7h1.4v2.5H.7c-.4,0-.7.3-.7.7v3.4c0,.4.3.7.7.7h1.4v2.2c0,2,1.7,3.7,3.7,3.7h23.6c.1,0,.2,0,.4,0,.5,0,1-.2,1.4-.4.3-.2.6-.4.9-.6.7-.7,1.1-1.6,1.1-2.6V3.7c0-1-.4-1.9-1.1-2.6-.2-.2-.5-.5-.9-.6h0ZM26.7,7.8c-.1-.2-.3-.2-.6-.2-.2,0-.4,0-.6.2l-2.7,2.7V1.3s6.5,0,6.5,0v9.1s-2.7-2.7-2.7-2.7h0Z"/>
    </g>
  </g>
</svg>