<?xml version="1.0" encoding="UTF-8"?><svg xmlns="http://www.w3.org/2000/svg" viewBox="0 0 22.83 22.73"><defs><style>.d{fill:#fff;}</style></defs><g id="a"/><g id="b"><g id="c"><path class="d" d="M22.12,7.34c-.49-1.33-1.21-2.51-2.09-3.52l1.71-1.82-4.27-1L13.2,0V.05l1.27,4.15,.03,.08,1.24,4.11,1.72-1.83c.48,.61,.88,1.31,1.17,2.08,1.47,3.97-.56,8.4-4.53,9.88-3.97,1.47-8.4-.56-9.88-4.53-1.47-3.97,.56-8.4,4.53-9.88,.03,0,.05-.01,.08-.02L7.81,.49c-.12,.04-.25,.08-.37,.13C1.54,2.8-1.48,9.38,.71,15.29c2.19,5.9,8.77,8.92,14.67,6.73,5.9-2.19,8.92-8.77,6.73-14.67Z"/></g></g></svg>