<?xml version="1.0" encoding="UTF-8"?>
<svg xmlns="http://www.w3.org/2000/svg" width="130" height="41" xmlns:xlink="http://www.w3.org/1999/xlink" viewBox="0 0 130 41">
  <defs>
    <style>
      .cls-1 {
        fill: url(#_命名漸層_12);
        filter: url(#drop-shadow-1);
        mix-blend-mode: soft-light;
      }

      .cls-2 {
        fill: #d6226d;
      }

      .cls-3 {
        fill: url(#_命名漸層_59);
        filter: url(#drop-shadow-2);
        mix-blend-mode: hard-light;
      }

      .cls-4 {
        isolation: isolate;
      }
    </style>
    <linearGradient id="_命名漸層_12" data-name="未命名漸層 12" x1="63.46" y1="33.62" x2="63.46" y2="2.62" gradientTransform="matrix(1, 0, 0, 1, 0, 0)" gradientUnits="userSpaceOnUse">
      <stop offset="0" stop-color="#8e888b"/>
      <stop offset=".22" stop-color="#c6c3c4"/>
      <stop offset=".39" stop-color="#eaeaea"/>
      <stop offset=".48" stop-color="#f9f9f9"/>
      <stop offset="1" stop-color="#eae7e3"/>
      <stop offset="1" stop-color="#f0eeeb"/>
    </linearGradient>
    <filter id="drop-shadow-1" filterUnits="userSpaceOnUse">
      <feOffset dx="2" dy="2"/>
      <feGaussianBlur result="blur" stdDeviation="1.5"/>
      <feFlood flood-color="#000" flood-opacity=".5"/>
      <feComposite in2="blur" operator="in"/>
      <feComposite in="SourceGraphic"/>
    </filter>
    <linearGradient id="_命名漸層_59" data-name="未命名漸層 59" x1="63.46" y1="33.62" x2="63.46" y2="2.62" gradientTransform="matrix(1, 0, 0, 1, 0, 0)" gradientUnits="userSpaceOnUse">
      <stop offset="0" stop-color="#8e888b"/>
      <stop offset=".02" stop-color="#979194"/>
      <stop offset=".12" stop-color="#bab6b8"/>
      <stop offset=".22" stop-color="#d5d3d4"/>
      <stop offset=".31" stop-color="#e9e8e8"/>
      <stop offset=".41" stop-color="#f5f4f4"/>
      <stop offset=".5" stop-color="#f9f9f9"/>
      <stop offset="1" stop-color="#eae7e3"/>
      <stop offset="1" stop-color="#f0eeeb"/>
    </linearGradient>
    <filter id="drop-shadow-2" filterUnits="userSpaceOnUse">
      <feOffset dx="2" dy="2"/>
      <feGaussianBlur result="blur-2" stdDeviation="1.5"/>
      <feFlood flood-color="#000" flood-opacity=".5"/>
      <feComposite in2="blur-2" operator="in"/>
      <feComposite in="SourceGraphic"/>
    </filter>
  </defs>
  <g class="cls-4">
    <g id="Layer_1" data-name="Layer 1"/>
    <g id="Layer_2" data-name="Layer 2">
      <g id="_層_1" data-name="圖層 1">
        <g>
          <rect class="cls-1" x="3.46" y="2.62" width="120" height="31" rx="15.5" ry="15.5"/>
          <rect class="cls-3" x="3.46" y="2.62" width="120" height="31" rx="15.5" ry="15.5"/>
          <g>
            <path class="cls-2" d="M40.38,15.29c.12,0,.25,.06,.4,.18,.63,.49,1.23,1.06,1.79,1.69,.1,.15,.14,.27,.14,.37,0,.4-.21,.6-.64,.6-.14,0-.27-.04-.39-.13-.57-.61-1.18-1.2-1.82-1.76-.09-.15-.13-.25-.13-.31,0-.43,.21-.64,.64-.64Zm2,4.12c.4,0,.6,.22,.6,.64-.12,.87-.31,1.72-.58,2.55-.29,.85-.66,1.68-1.11,2.48-.13,.26-.32,.39-.56,.39-.43,0-.64-.19-.64-.58,0-.05,.04-.15,.13-.27,.54-.99,.87-1.73,1-2.22,.26-.73,.48-1.6,.66-2.61,.06-.25,.24-.37,.52-.37Zm-.95-8.44c.11,0,.23,.06,.37,.19,.59,.45,1.15,.96,1.69,1.53,.09,.15,.13,.28,.13,.4,0,.39-.21,.58-.64,.58-.13,0-.26-.05-.4-.15-.54-.53-1.11-1.04-1.72-1.55-.09-.17-.13-.3-.13-.37,0-.43,.24-.64,.71-.64Zm12.38,.71c.33,0,.5,.17,.5,.5s-.17,.52-.5,.52h-4v.9h3.35c.29,0,.44,.15,.44,.45,0,.35-.15,.53-.44,.53h-3.35v.84h4.32c.34,0,.52,.17,.52,.52s-.17,.52-.52,.52h-10.07c-.33,0-.5-.17-.5-.52s.17-.52,.5-.52h4.53v-.84h-3.61c-.31,0-.47-.18-.47-.53,0-.3,.16-.45,.47-.45h3.61v-.9h-4.25c-.35,0-.53-.17-.53-.52s.18-.5,.53-.5h4.25v-.64c0-.39,.19-.58,.58-.58,.43,0,.64,.19,.64,.58v.64h4Zm-8.06,5.8h6.83c.77,0,1.16,.39,1.16,1.16v5.35c0,1.12-.62,1.68-1.87,1.68-.5,0-1.11-.06-1.82-.19-.25-.11-.37-.28-.37-.52,0-.43,.15-.64,.44-.64,.12,0,.25,.01,.4,.03,.53,.1,.93,.15,1.22,.15,.56,0,.84-.22,.84-.64v-.95h-6.9v2.26c0,.39-.19,.58-.58,.58s-.6-.19-.6-.58v-6.51c0-.77,.41-1.16,1.24-1.16Zm-.06,2.18h6.9v-.64c0-.29-.11-.44-.34-.44h-6.25c-.2,0-.31,.15-.31,.44v.64Zm0,2.19h6.9v-1.14h-6.9v1.14Z"/>
            <path class="cls-2" d="M70.64,19.22c.4,0,.6,.19,.6,.56s-.2,.58-.6,.58h-5.08v3.63h6.25c.39,0,.58,.19,.58,.56,0,.4-.19,.6-.58,.6h-13.62c-.39,0-.58-.2-.58-.6,0-.38,.19-.56,.58-.56h6.14v-3.63h-5.09c-.39,0-.58-.19-.58-.58s.19-.56,.58-.56h11.39Zm-5.72-8.89c.43,0,.64,.22,.64,.64v.84h5.35c.47,0,.83,.16,1.06,.48,.19,.24,.29,.61,.29,1.11,0,.45-.05,.97-.14,1.55-.09,.34-.32,.52-.71,.52-.43,0-.64-.21-.64-.64,.14-.71,.21-1.16,.21-1.35,0-.39-.15-.58-.45-.58h-3.54v3.22c0,.31,.12,.47,.37,.47h4.12c.39,0,.58,.17,.58,.5,0,.39-.19,.58-.58,.58h-4.5c-.78,0-1.18-.38-1.18-1.14v-3.63h-6.43c-.27,0-.4,.13-.4,.4v1.72c0,.39-.22,.58-.64,.58-.39,0-.58-.19-.58-.58v-2.06c0-.76,.39-1.14,1.16-1.14h5.37v-.84c0-.43,.21-.64,.64-.64Zm-1.82,3.21c.16,0,.3,.05,.42,.16,.11,.11,.16,.23,.16,.35,0,.18-.04,.34-.11,.47-.46,.63-.86,1.11-1.19,1.43-.39,.41-.8,.76-1.24,1.06-.55,.38-1.13,.73-1.76,1.05-.17,.09-.33,.13-.47,.13-.13,0-.25-.06-.36-.19s-.16-.28-.16-.47c0-.19,.13-.36,.4-.52,.62-.3,1.17-.61,1.64-.93,.42-.3,.81-.63,1.18-1,.31-.31,.68-.76,1.11-1.34,.1-.14,.22-.21,.37-.21Z"/>
            <path class="cls-2" d="M80.04,11.1c.34,0,.52,.17,.52,.52s-.17,.5-.52,.5h-.34v13.04c0,.34-.17,.52-.5,.52s-.52-.17-.52-.52v-1.77c-.35,.15-.79,.29-1.32,.42-.46,.15-1.03,.28-1.71,.39-.33-.02-.51-.24-.52-.64,0-.33,.14-.53,.43-.58,.19-.02,.37-.04,.52-.06V12.12h-.37c-.34,0-.52-.17-.52-.5s.17-.52,.52-.52h4.32Zm-2.84,3.72h1.48v-2.71h-1.48v2.71Zm0,3.75h1.48v-2.77h-1.48v2.77Zm0,4.11c.49-.12,.92-.24,1.29-.37,.06-.03,.13-.05,.19-.06v-2.71h-1.48v3.14Zm7.98-11.92c.34,0,.52,.19,.52,.58,0,.29-.12,.47-.37,.53l-1.95,.21c-.73,.09-1.1,.4-1.1,.95v7.62c.35-.18,.81-.47,1.35-.87,.06-.02,.11-.03,.13-.03,.1-.45,.15-.89,.15-1.32v-4.83c0-.38,.17-.56,.5-.56,.39,0,.58,.19,.58,.56v4.83c0,1.44-.31,2.78-.92,4.01-.53,1.07-1.27,2.01-2.22,2.82-.17,.23-.34,.34-.52,.34-.45-.02-.69-.24-.71-.64,0-.12,.06-.25,.18-.4,1.17-1.01,1.99-2.05,2.47-3.13-.12,.06-.23,.13-.34,.19-.66,.38-1.28,.67-1.87,.89-.1,.03-.18,.05-.26,.05-.39,0-.58-.19-.58-.56,0-.33,.16-.55,.47-.64,.15-.05,.3-.11,.45-.18V12.45c0-.45,.11-.75,.32-.9,.25-.2,.86-.38,1.85-.53,1-.17,1.62-.26,1.87-.26Zm1.87,.77h1.95c.68,0,1.01,.31,1.01,.92v9.15c0,.95-.42,1.42-1.27,1.42-.26,0-.56-.02-.92-.06-.25-.11-.37-.28-.37-.53,0-.43,.14-.64,.43-.64,.04,0,.11,0,.19,.02,.23,.03,.4,.05,.52,.05,.23,0,.34-.21,.34-.64V12.95c0-.25-.09-.37-.26-.37h-1.35c-.14,0-.21,.12-.21,.37v12.13c0,.34-.19,.52-.58,.52-.33,0-.5-.17-.5-.52V12.45c0-.61,.34-.92,1.01-.92Z"/>
            <path class="cls-2" d="M97.86,11.1c.34,0,.52,.17,.52,.52s-.17,.5-.52,.5h-.34v13.04c0,.34-.17,.52-.5,.52s-.52-.17-.52-.52v-1.77c-.35,.15-.79,.29-1.32,.42-.46,.15-1.03,.28-1.71,.39-.33-.02-.5-.24-.52-.64,0-.33,.15-.53,.44-.58,.19-.02,.37-.04,.52-.06V12.12h-.37c-.34,0-.52-.17-.52-.5s.17-.52,.52-.52h4.32Zm-2.84,3.72h1.48v-2.71h-1.48v2.71Zm0,3.75h1.48v-2.77h-1.48v2.77Zm0,4.11c.49-.12,.92-.24,1.29-.37,.06-.03,.13-.05,.19-.06v-2.71h-1.48v3.14Zm7.98-11.92c.34,0,.52,.19,.52,.58,0,.29-.12,.47-.37,.53l-1.95,.21c-.73,.09-1.1,.4-1.1,.95v7.62c.35-.18,.81-.47,1.35-.87,.06-.02,.11-.03,.13-.03,.1-.45,.14-.89,.14-1.32v-4.83c0-.38,.17-.56,.5-.56,.39,0,.58,.19,.58,.56v4.83c0,1.44-.31,2.78-.92,4.01-.53,1.07-1.27,2.01-2.22,2.82-.17,.23-.34,.34-.52,.34-.45-.02-.69-.24-.71-.64,0-.12,.06-.25,.18-.4,1.17-1.01,1.99-2.05,2.46-3.13-.12,.06-.23,.13-.34,.19-.66,.38-1.28,.67-1.87,.89-.1,.03-.18,.05-.26,.05-.39,0-.58-.19-.58-.56,0-.33,.16-.55,.47-.64,.15-.05,.3-.11,.45-.18V12.45c0-.45,.11-.75,.32-.9,.25-.2,.87-.38,1.85-.53,1-.17,1.62-.26,1.87-.26Zm1.87,.77h1.95c.68,0,1.02,.31,1.02,.92v9.15c0,.95-.42,1.42-1.27,1.42-.26,0-.56-.02-.92-.06-.25-.11-.37-.28-.37-.53,0-.43,.15-.64,.44-.64,.04,0,.11,0,.19,.02,.23,.03,.4,.05,.52,.05,.23,0,.34-.21,.34-.64V12.95c0-.25-.09-.37-.26-.37h-1.35c-.14,0-.21,.12-.21,.37v12.13c0,.34-.19,.52-.58,.52-.33,0-.5-.17-.5-.52V12.45c0-.61,.34-.92,1.02-.92Z"/>
          </g>
          <g>
            <path class="cls-2" d="M19.83,13.58h0l.71,.59v11.28c0,.55,.45,1,1,1h9.51c.55,0,1-.45,1-1V14.18l.71-.59h0v-.99h-12.94v.99Zm8.73,1.56h1.21v9.7h-1.21V15.15Zm-2.86,0h1.21v9.7h-1.21V15.15Zm-2.86,0h1.21v9.7h-1.21V15.15Z"/>
            <path class="cls-2" d="M32.56,11.17h-4.21v-.99c0-.22-.18-.41-.41-.41h-3.27c-.22,0-.41,.18-.41,.41v.99h-4.21c-.13,0-.24,.11-.24,.24v.78h13v-.78c0-.13-.11-.24-.24-.24Zm-4.96-.25h-2.6v-.27c0-.07,.06-.13,.13-.13h2.34c.07,0,.13,.06,.13,.13v.27Z"/>
          </g>
        </g>
      </g>
    </g>
  </g>
</svg>