<?xml version="1.0" encoding="utf-8"?>
<!-- Generator: Adobe Illustrator 26.2.1, SVG Export Plug-In . SVG Version: 6.00 Build 0)  -->
<svg version="1.1" id="Layer_1" xmlns="http://www.w3.org/2000/svg" xmlns:xlink="http://www.w3.org/1999/xlink" x="0px" y="0px"
	 viewBox="0 0 130 41" style="enable-background:new 0 0 130 41;" xml:space="preserve">
<style type="text/css">
	.st0{fill:url(#SVGID_1_);}
	.st1{fill:url(#SVGID_00000014595769260696431080000012197773253082538903_);}
	.st2{fill:#FF932C;}
</style>
<g>
	<g id="Layer_1_00000037650974390858575690000017547924293181459367_">
	</g>
	<g id="Layer_2_00000070810621402750386120000009398248971356031621_">
		<g id="_層_1">
			<g>
				
					<linearGradient id="SVGID_1_" gradientUnits="userSpaceOnUse" x1="63.46" y1="8.38" x2="63.46" y2="39.38" gradientTransform="matrix(1 0 0 -1 0 42)">
					<stop  offset="0" style="stop-color:#8E888B"/>
					<stop  offset="0.22" style="stop-color:#C6C3C4"/>
					<stop  offset="0.39" style="stop-color:#EAEAEA"/>
					<stop  offset="0.48" style="stop-color:#F9F9F9"/>
					<stop  offset="1" style="stop-color:#EAE7E3"/>
					<stop  offset="1" style="stop-color:#F0EEEB"/>
				</linearGradient>
				<path class="st0" d="M19,2.6h89c8.6,0,15.5,6.9,15.5,15.5l0,0c0,8.6-6.9,15.5-15.5,15.5H19c-8.6,0-15.5-6.9-15.5-15.5l0,0
					C3.5,9.6,10.4,2.6,19,2.6z"/>
				
					<linearGradient id="SVGID_00000060030517942159689240000008807286172466462603_" gradientUnits="userSpaceOnUse" x1="63.46" y1="8.38" x2="63.46" y2="39.38" gradientTransform="matrix(1 0 0 -1 0 42)">
					<stop  offset="0" style="stop-color:#8E888B"/>
					<stop  offset="2.000000e-02" style="stop-color:#979194"/>
					<stop  offset="0.12" style="stop-color:#BAB6B8"/>
					<stop  offset="0.22" style="stop-color:#D5D3D4"/>
					<stop  offset="0.31" style="stop-color:#E9E8E8"/>
					<stop  offset="0.41" style="stop-color:#F5F4F4"/>
					<stop  offset="0.5" style="stop-color:#F9F9F9"/>
					<stop  offset="1" style="stop-color:#EAE7E3"/>
					<stop  offset="1" style="stop-color:#F0EEEB"/>
				</linearGradient>
				<path style="fill:url(#SVGID_00000060030517942159689240000008807286172466462603_);" d="M19,2.6h89c8.6,0,15.5,6.9,15.5,15.5
					l0,0c0,8.6-6.9,15.5-15.5,15.5H19c-8.6,0-15.5-6.9-15.5-15.5l0,0C3.5,9.6,10.4,2.6,19,2.6z"/>
				<g>
					<path class="st2" d="M40.4,15.3c0.1,0,0.2,0.1,0.4,0.2c0.6,0.5,1.2,1.1,1.8,1.7c0.1,0.1,0.1,0.3,0.1,0.4c0,0.4-0.2,0.6-0.6,0.6
						c-0.1,0-0.3,0-0.4-0.1c-0.6-0.6-1.2-1.2-1.8-1.8c-0.1-0.1-0.1-0.2-0.1-0.3C39.7,15.5,39.9,15.3,40.4,15.3L40.4,15.3z
						 M42.4,19.4c0.4,0,0.6,0.2,0.6,0.6c-0.1,0.9-0.3,1.7-0.6,2.5c-0.3,0.9-0.7,1.7-1.1,2.5c-0.1,0.3-0.3,0.4-0.6,0.4
						c-0.4,0-0.6-0.2-0.6-0.6c0,0,0-0.1,0.1-0.3c0.5-1,0.9-1.7,1-2.2c0.3-0.7,0.5-1.6,0.7-2.6C41.9,19.5,42.1,19.4,42.4,19.4
						L42.4,19.4z M41.4,11c0.1,0,0.2,0.1,0.4,0.2c0.6,0.4,1.2,1,1.7,1.5c0.1,0.1,0.1,0.3,0.1,0.4c0,0.4-0.2,0.6-0.6,0.6
						c-0.1,0-0.3-0.1-0.4-0.1c-0.5-0.5-1.1-1-1.7-1.6c-0.1-0.2-0.1-0.3-0.1-0.4C40.7,11.2,41,11,41.4,11L41.4,11z M53.8,11.7
						c0.3,0,0.5,0.2,0.5,0.5s-0.2,0.5-0.5,0.5h-4v0.9h3.3c0.3,0,0.4,0.1,0.4,0.4c0,0.4-0.2,0.5-0.4,0.5h-3.3v0.8h4.3
						c0.3,0,0.5,0.2,0.5,0.5s-0.2,0.5-0.5,0.5H44.1c-0.3,0-0.5-0.2-0.5-0.5s0.2-0.5,0.5-0.5h4.5v-0.8H45c-0.3,0-0.5-0.2-0.5-0.5
						c0-0.3,0.2-0.4,0.5-0.4h3.6v-0.9h-4.2c-0.3,0-0.5-0.2-0.5-0.5s0.2-0.5,0.5-0.5h4.2V11c0-0.4,0.2-0.6,0.6-0.6
						c0.4,0,0.6,0.2,0.6,0.6v0.6H53.8z M45.8,17.5h6.8c0.8,0,1.2,0.4,1.2,1.2V24c0,1.1-0.6,1.7-1.9,1.7c-0.5,0-1.1-0.1-1.8-0.2
						c-0.2-0.1-0.4-0.3-0.4-0.5c0-0.4,0.2-0.6,0.4-0.6c0.1,0,0.2,0,0.4,0c0.5,0.1,0.9,0.1,1.2,0.1c0.6,0,0.8-0.2,0.8-0.6v-1h-6.9
						v2.3c0,0.4-0.2,0.6-0.6,0.6s-0.6-0.2-0.6-0.6v-6.5C44.5,17.9,44.9,17.5,45.8,17.5L45.8,17.5z M45.7,19.7h6.9V19
						c0-0.3-0.1-0.4-0.3-0.4H46c-0.2,0-0.3,0.1-0.3,0.4V19.7z M45.7,21.9h6.9v-1.1h-6.9V21.9z"/>
					<path class="st2" d="M70.6,19.2c0.4,0,0.6,0.2,0.6,0.6s-0.2,0.6-0.6,0.6h-5.1V24h6.2c0.4,0,0.6,0.2,0.6,0.6
						c0,0.4-0.2,0.6-0.6,0.6H58.2c-0.4,0-0.6-0.2-0.6-0.6c0-0.4,0.2-0.6,0.6-0.6h6.1v-3.6h-5.1c-0.4,0-0.6-0.2-0.6-0.6
						s0.2-0.6,0.6-0.6L70.6,19.2L70.6,19.2z M64.9,10.3c0.4,0,0.6,0.2,0.6,0.6v0.8h5.3c0.5,0,0.8,0.2,1.1,0.5
						c0.2,0.2,0.3,0.6,0.3,1.1c0,0.4-0.1,1-0.1,1.6c-0.1,0.3-0.3,0.5-0.7,0.5c-0.4,0-0.6-0.2-0.6-0.6c0.1-0.7,0.2-1.2,0.2-1.4
						c0-0.4-0.2-0.6-0.4-0.6H67v3.2c0,0.3,0.1,0.5,0.4,0.5h4.1c0.4,0,0.6,0.2,0.6,0.5c0,0.4-0.2,0.6-0.6,0.6H67
						c-0.8,0-1.2-0.4-1.2-1.1v-3.6h-6.4c-0.3,0-0.4,0.1-0.4,0.4V15c0,0.4-0.2,0.6-0.6,0.6c-0.4,0-0.6-0.2-0.6-0.6V13
						c0-0.8,0.4-1.1,1.2-1.1h5.4V11C64.3,10.5,64.5,10.3,64.9,10.3L64.9,10.3z M63.1,13.5c0.2,0,0.3,0.1,0.4,0.2
						c0.1,0.1,0.2,0.2,0.2,0.4c0,0.2,0,0.3-0.1,0.5c-0.5,0.6-0.9,1.1-1.2,1.4c-0.4,0.4-0.8,0.8-1.2,1.1c-0.5,0.4-1.1,0.7-1.8,1
						c-0.2,0.1-0.3,0.1-0.5,0.1c-0.1,0-0.2-0.1-0.4-0.2s-0.2-0.3-0.2-0.5c0-0.2,0.1-0.4,0.4-0.5c0.6-0.3,1.2-0.6,1.6-0.9
						c0.4-0.3,0.8-0.6,1.2-1c0.3-0.3,0.7-0.8,1.1-1.3C62.8,13.6,62.9,13.5,63.1,13.5L63.1,13.5z"/>
					<path class="st2" d="M80,11.1c0.3,0,0.5,0.2,0.5,0.5s-0.2,0.5-0.5,0.5h-0.3v13c0,0.3-0.2,0.5-0.5,0.5s-0.5-0.2-0.5-0.5v-1.8
						c-0.3,0.1-0.8,0.3-1.3,0.4c-0.5,0.1-1,0.3-1.7,0.4c-0.3,0-0.5-0.2-0.5-0.6c0-0.3,0.1-0.5,0.4-0.6c0.2,0,0.4,0,0.5-0.1V12.1
						h-0.4c-0.3,0-0.5-0.2-0.5-0.5s0.2-0.5,0.5-0.5H80L80,11.1z M77.2,14.8h1.5v-2.7h-1.5V14.8z M77.2,18.6h1.5v-2.8h-1.5V18.6z
						 M77.2,22.7c0.5-0.1,0.9-0.2,1.3-0.4c0.1,0,0.1,0,0.2-0.1v-2.7h-1.5V22.7z M85.2,10.8c0.3,0,0.5,0.2,0.5,0.6
						c0,0.3-0.1,0.5-0.4,0.5l-1.9,0.2c-0.7,0.1-1.1,0.4-1.1,0.9v7.6c0.3-0.2,0.8-0.5,1.3-0.9c0.1,0,0.1,0,0.1,0
						c0.1-0.5,0.2-0.9,0.2-1.3v-4.8c0-0.4,0.2-0.6,0.5-0.6c0.4,0,0.6,0.2,0.6,0.6v4.8c0,1.4-0.3,2.8-0.9,4c-0.5,1.1-1.3,2-2.2,2.8
						c-0.2,0.2-0.3,0.3-0.5,0.3c-0.4,0-0.7-0.2-0.7-0.6c0-0.1,0.1-0.2,0.2-0.4c1.2-1,2-2,2.5-3.1c-0.1,0.1-0.2,0.1-0.3,0.2
						c-0.7,0.4-1.3,0.7-1.9,0.9c-0.1,0-0.2,0-0.3,0c-0.4,0-0.6-0.2-0.6-0.6c0-0.3,0.2-0.5,0.5-0.6c0.2,0,0.3-0.1,0.4-0.2v-8.7
						c0-0.4,0.1-0.8,0.3-0.9c0.2-0.2,0.9-0.4,1.8-0.5C84.3,10.9,84.9,10.8,85.2,10.8z M87.1,11.5H89c0.7,0,1,0.3,1,0.9v9.1
						c0,1-0.4,1.4-1.3,1.4c-0.3,0-0.6,0-0.9-0.1c-0.2-0.1-0.4-0.3-0.4-0.5c0-0.4,0.1-0.6,0.4-0.6c0,0,0.1,0,0.2,0c0.2,0,0.4,0,0.5,0
						c0.2,0,0.3-0.2,0.3-0.6v-8.3c0-0.2-0.1-0.4-0.3-0.4h-1.3c-0.1,0-0.2,0.1-0.2,0.4v12.1c0,0.3-0.2,0.5-0.6,0.5
						c-0.3,0-0.5-0.2-0.5-0.5V12.4C86,11.8,86.4,11.5,87.1,11.5L87.1,11.5z"/>
					<path class="st2" d="M97.9,11.1c0.3,0,0.5,0.2,0.5,0.5s-0.2,0.5-0.5,0.5h-0.3v13c0,0.3-0.2,0.5-0.5,0.5s-0.5-0.2-0.5-0.5v-1.8
						c-0.3,0.1-0.8,0.3-1.3,0.4c-0.5,0.1-1,0.3-1.7,0.4c-0.3,0-0.5-0.2-0.5-0.6c0-0.3,0.2-0.5,0.4-0.6c0.2,0,0.4,0,0.5-0.1V12.1
						h-0.4c-0.3,0-0.5-0.2-0.5-0.5s0.2-0.5,0.5-0.5C93.5,11.1,97.9,11.1,97.9,11.1z M95,14.8h1.5v-2.7H95V14.8z M95,18.6h1.5v-2.8
						H95V18.6z M95,22.7c0.5-0.1,0.9-0.2,1.3-0.4c0.1,0,0.1,0,0.2-0.1v-2.7H95V22.7z M103,10.8c0.3,0,0.5,0.2,0.5,0.6
						c0,0.3-0.1,0.5-0.4,0.5l-1.9,0.2c-0.7,0.1-1.1,0.4-1.1,0.9v7.6c0.3-0.2,0.8-0.5,1.3-0.9c0.1,0,0.1,0,0.1,0
						c0.1-0.5,0.1-0.9,0.1-1.3v-4.8c0-0.4,0.2-0.6,0.5-0.6c0.4,0,0.6,0.2,0.6,0.6v4.8c0,1.4-0.3,2.8-0.9,4c-0.5,1.1-1.3,2-2.2,2.8
						c-0.2,0.2-0.3,0.3-0.5,0.3c-0.4,0-0.7-0.2-0.7-0.6c0-0.1,0.1-0.2,0.2-0.4c1.2-1,2-2,2.5-3.1c-0.1,0.1-0.2,0.1-0.3,0.2
						c-0.7,0.4-1.3,0.7-1.9,0.9c-0.1,0-0.2,0-0.3,0c-0.4,0-0.6-0.2-0.6-0.6c0-0.3,0.2-0.5,0.5-0.6c0.2,0,0.3-0.1,0.4-0.2v-8.7
						c0-0.4,0.1-0.8,0.3-0.9c0.2-0.2,0.9-0.4,1.8-0.5C102.1,10.9,102.7,10.8,103,10.8L103,10.8z M104.9,11.5h1.9c0.7,0,1,0.3,1,0.9
						v9.1c0,1-0.4,1.4-1.3,1.4c-0.3,0-0.6,0-0.9-0.1c-0.2-0.1-0.4-0.3-0.4-0.5c0-0.4,0.2-0.6,0.4-0.6c0,0,0.1,0,0.2,0
						c0.2,0,0.4,0,0.5,0c0.2,0,0.3-0.2,0.3-0.6v-8.3c0-0.2-0.1-0.4-0.3-0.4h-1.3c-0.1,0-0.2,0.1-0.2,0.4v12.1c0,0.3-0.2,0.5-0.6,0.5
						c-0.3,0-0.5-0.2-0.5-0.5V12.4C103.9,11.8,104.2,11.5,104.9,11.5L104.9,11.5z"/>
				</g>
				<g>
					<path class="st2" d="M19.8,13.6L19.8,13.6l0.7,0.6v11.3c0,0.5,0.5,1,1,1H31c0.5,0,1-0.5,1-1V14.2l0.7-0.6l0,0v-1H19.8
						L19.8,13.6L19.8,13.6z M28.6,15.1h1.2v9.7h-1.2L28.6,15.1L28.6,15.1z M25.7,15.1h1.2v9.7h-1.2L25.7,15.1L25.7,15.1z M22.8,15.1
						H24v9.7h-1.2L22.8,15.1L22.8,15.1z"/>
					<path class="st2" d="M32.6,11.2h-4.2v-1c0-0.2-0.2-0.4-0.4-0.4h-3.3c-0.2,0-0.4,0.2-0.4,0.4v1h-4.2c-0.1,0-0.2,0.1-0.2,0.2v0.8
						h13v-0.8C32.8,11.3,32.7,11.2,32.6,11.2L32.6,11.2z M27.6,10.9H25v-0.3c0-0.1,0.1-0.1,0.1-0.1h2.3c0.1,0,0.1,0.1,0.1,0.1
						C27.6,10.6,27.6,10.9,27.6,10.9z"/>
				</g>
			</g>
		</g>
	</g>
</g>
</svg>
