<?xml version="1.0" encoding="UTF-8"?>
<svg id="Layer_1" xmlns="http://www.w3.org/2000/svg" xmlns:xlink="http://www.w3.org/1999/xlink" version="1.1" viewBox="0 0 143.1 38">
  <!-- Generator: Adobe Illustrator 29.1.0, SVG Export Plug-In . SVG Version: 2.1.0 Build 142)  -->
  <defs>
    <style>
      .st0 {
        fill: url(#linear-gradient2);
      }

      .st1 {
        fill: url(#linear-gradient1);
      }

      .st2 {
        fill: url(#linear-gradient3);
      }

      .st3 {
        fill: #040403;
        opacity: .1;
      }

      .st3, .st4 {
        isolation: isolate;
      }

      .st5 {
        fill: url(#linear-gradient);
      }

      .st6 {
        letter-spacing: .1em;
      }

      .st7, .st8 {
        fill: #fff;
      }

      .st8 {
        font-family: HiraMaruProN-W4-83pv-RKSJ-H, 'Hiragino Maru Gothic ProN';
        font-size: 18px;
        stroke: #ffcf8f;
        stroke-miterlimit: 10;
        stroke-width: .2px;
      }

      .st9 {
        letter-spacing: 0em;
      }
    </style>
    <linearGradient id="linear-gradient" x1="2.4" y1="17.4" x2="110.4" y2="17.4" gradientUnits="userSpaceOnUse">
      <stop offset="0" stop-color="#f9e0ac"/>
      <stop offset="1" stop-color="#f9b653"/>
    </linearGradient>
    <linearGradient id="linear-gradient1" x1="99.6" x2="140" xlink:href="#linear-gradient"/>
    <linearGradient id="linear-gradient2" x1="0" y1="21.4" x2="108.1" y2="21.4" gradientTransform="translate(0 38.8) scale(1 -1)" gradientUnits="userSpaceOnUse">
      <stop offset="0" stop-color="#f9b653"/>
      <stop offset="1" stop-color="#f9e0ac"/>
    </linearGradient>
    <linearGradient id="linear-gradient3" x1="97.2" x2="137.6" xlink:href="#linear-gradient2"/>
  </defs>
  <g class="st4">
    <g id="b">
      <g id="c">
        <g>
          <path class="st3" d="M124.9,3.2h-24.5c10,0,18.2,7.8,18.2,17.4s-8.2,17.4-18.2,17.4h24.5c10,0,18.2-7.8,18.2-17.4s-8.2-17.4-18.2-17.4Z"/>
          <path class="st3" d="M21.4,38h74c10,0,18.2-7.8,18.2-17.4S105.4,3.2,95.4,3.2H21.4C11.4,3.2,3.2,11,3.2,20.6s8.2,17.4,18.2,17.4h0Z"/>
          <g>
            <g>
              <path class="st5" d="M110.4,17.4c0,9.6-8.2,17.4-18.2,17.4H20.6c-10,0-18.2-7.8-18.2-17.4S10.6,0,20.6,0h71.6C102.2,0,110.4,7.8,110.4,17.4Z"/>
              <path class="st1" d="M121.8,0h-22.2C109.6,0,117.8,7.8,117.8,17.4s-8.2,17.4-18.2,17.4h22.2c10,0,18.2-7.8,18.2-17.4S131.8,0,121.8,0Z"/>
            </g>
            <g>
              <g>
                <path class="st0" d="M108.1,17.4c0,9.6-8.2,17.4-18.2,17.4H18.2c-10,0-18.2-7.8-18.2-17.4S8.2,0,18.2,0h71.6C99.8,0,108,7.8,108.1,17.4Z"/>
                <path class="st2" d="M119.4,0h-22.2C107.2,0,115.4,7.8,115.4,17.4s-8.2,17.4-18.2,17.4h22.2c10,0,18.2-7.8,18.2-17.4S129.4,0,119.4,0Z"/>
              </g>
              <path class="st7" d="M128.7,16.7c-2.4-2.4-4.8-4.8-7.2-7.3-.9-.9-2.3.5-1.4,1.4,2.2,2.2,4.3,4.4,6.5,6.6-2.2,2.2-4.3,4.4-6.5,6.6-.9.9.5,2.3,1.4,1.4,2.4-2.4,4.8-4.8,7.2-7.3.4-.4.4-1,0-1.4Z"/>
            </g>
          </g>
        </g>
      </g>
    </g>
  </g>
  <text class="st8" transform="translate(14.7 23.9) scale(1) skewX(-17.1)"><tspan class="st6" x="0" y="0">踢</tspan><tspan class="st9" x="20.3" y="0">除名單</tspan></text>
</svg>