<?xml version="1.0" encoding="UTF-8"?>
<svg id="Layer_1" xmlns="http://www.w3.org/2000/svg" xmlns:xlink="http://www.w3.org/1999/xlink" version="1.1" viewBox="0 0 200 45.7">
  <!-- Generator: Adobe Illustrator 29.1.0, SVG Export Plug-In . SVG Version: 2.1.0 Build 142)  -->
  <defs>
    <style>
      .st0 {
        fill: url(#linear-gradient2);
      }

      .st1 {
        fill: url(#linear-gradient1);
      }

      .st2 {
        fill: url(#linear-gradient3);
      }

      .st3 {
        fill: #040403;
        opacity: .1;
      }

      .st3, .st4 {
        isolation: isolate;
      }

      .st5 {
        fill: url(#linear-gradient);
      }

      .st6 {
        fill: #fff;
      }
    </style>
    <linearGradient id="linear-gradient" x1="2.9" y1="21" x2="160.6" y2="21" gradientUnits="userSpaceOnUse">
      <stop offset="0" stop-color="#f9e0ac"/>
      <stop offset="1" stop-color="#f9b653"/>
    </linearGradient>
    <linearGradient id="linear-gradient1" x1="147.6" x2="196.2" xlink:href="#linear-gradient"/>
    <linearGradient id="linear-gradient2" x1="0" y1="25.8" x2="157.8" y2="25.8" gradientTransform="translate(0 46.8) scale(1 -1)" gradientUnits="userSpaceOnUse">
      <stop offset="0" stop-color="#f9b653"/>
      <stop offset="1" stop-color="#f9e0ac"/>
    </linearGradient>
    <linearGradient id="linear-gradient3" x1="144.7" x2="193.3" xlink:href="#linear-gradient2"/>
  </defs>
  <g class="st4">
    <g id="b">
      <g id="c">
        <g>
          <g>
            <path class="st3" d="M178.1,3.8h-29.5c12.1,0,21.9,9.4,21.9,21s-9.9,21-21.9,21h29.5c12.1,0,21.9-9.4,21.9-21s-9.9-21-21.9-21Z"/>
            <path class="st3" d="M25.7,45.7h116.8c12.1,0,21.9-9.4,21.9-21s-9.9-21-21.9-21H25.7c-12,0-21.9,9.4-21.9,21s9.9,21,21.9,21Z"/>
            <g>
              <g>
                <path class="st5" d="M160.6,21c0,11.5-9.9,21-21.9,21H24.8c-12.1,0-21.9-9.4-21.9-21S12.7,0,24.8,0h113.9C150.8,0,160.6,9.4,160.6,21h0Z"/>
                <path class="st1" d="M174.3,0h-26.7C159.7,0,169.5,9.4,169.5,21s-9.9,21-21.9,21h26.7c12.1,0,21.9-9.4,21.9-21S186.3,0,174.3,0Z"/>
              </g>
              <g>
                <g>
                  <path class="st0" d="M157.8,21c0,11.5-9.9,21-21.9,21H21.9C9.9,41.9,0,32.5,0,21S9.9,0,21.9,0h113.9C147.9,0,157.8,9.4,157.8,21h0Z"/>
                  <path class="st2" d="M171.4,0h-26.7C156.8,0,166.6,9.4,166.6,21s-9.9,21-21.9,21h26.7c12.1,0,21.9-9.4,21.9-21S183.5,0,171.4,0Z"/>
                </g>
                <path class="st6" d="M182.6,20.1c-2.9-2.9-5.7-5.8-8.6-8.7-1.1-1.1-2.8.6-1.7,1.7,2.6,2.6,5.2,5.3,7.8,7.9-2.6,2.6-5.2,5.3-7.8,7.9-1.1,1.1.6,2.8,1.7,1.7,2.9-2.9,5.7-5.8,8.6-8.7.5-.5.5-1.2,0-1.7Z"/>
              </g>
            </g>
          </g>
          <g>
            <path class="st6" d="M33.6,22.5c.3,0,.6,0,.7.2.2.1.2.4,0,.8,0,0,0,.3-.2.7-.7,1.9-1.3,3.3-1.8,4.4-.2.4-.5.6-1,.6-.4,0-.7-.1-.9-.3-.1-.2-.2-.4-.1-.7,0,0,.1-.4.4-.9.4-.9,1-2.1,1.6-3.9.3-.5.7-.8,1.2-.8h0ZM39.3,9c.2,0,.5,0,.7.2.2.2.3.4.2.8,0,.3-.2.6-.5,1-.5.8-1.3,1.7-2.3,2.8.3.4.6.9.9,1.3.9-1,1.7-2.1,2.5-3.2.3-.4.7-.7,1-.7s.5,0,.8.2c.3.2.3.4.3.8-.1.5-.5,1.2-1.2,2-1.2,1.4-2.8,3.1-5,5.1,1-.1,2-.3,2.9-.6,0-.4.1-.7.1-1,0-.2,0-.3,0-.3.1-.5.5-.8,1.1-.8.5,0,.8.2.9.6,0,1.1-.3,2.3-.7,3.7-.2.6-.6.9-1.3.9-.5,0-.8-.3-.7-.8,0-.1,0-.2,0-.4-.4.1-.8.3-1.2.4l-2.1,8c0,.4-.3.6-.5.8-.2.2-.5.3-.9.3s-.6-.1-.8-.3c-.1-.1-.1-.4,0-.8l2-7.5c-.9.1-1.7.2-2.5.2-.4,0-.6-.1-.8-.3-.1-.2-.2-.5,0-.9,0-.3.2-.6.4-.8.2-.2.5-.3.8-.3s.2,0,.3,0c1-.8,1.9-1.7,2.8-2.6-.6-.8-1.3-1.7-2-2.6-.3-.3-.4-.6-.3-.9,0-.3.3-.5.5-.7.3-.2.5-.3.8-.3s.3,0,.4,0c.9-.9,1.7-1.9,2.5-3.1.3-.4.7-.5,1-.5h0ZM39.1,22.4c.5,0,.8.2.9.6,0,1.1-.2,2.2-.5,3.5-.2.6-.6.9-1.3.9-.5,0-.8-.3-.7-.8.3-1.3.4-2.3.5-3.1,0-.2,0-.3,0-.3.1-.5.5-.8,1.1-.8h0ZM42.3,21.3h9.7c.3,0,.5,0,.7.2.2.1.2.4,0,.9,0,.4-.2.6-.3.7-.2.2-.6.4-.9.4h-3.7l-1,3.9h4c.4,0,.7,0,.8.2.1.1.1.4,0,.9,0,.3-.2.6-.4.8-.2.2-.6.3-1,.3h-10.2c-.3,0-.6,0-.8-.2-.1-.1-.2-.4,0-.8,0-.4.3-.7.5-.9.2-.1.5-.2.9-.2h3.9l1-3.9h-3.6c-.3,0-.5,0-.7-.2-.1-.2-.2-.5,0-.8.1-.4.3-.7.5-.9.2-.1.4-.2.8-.2h0ZM45.8,13.2c.3,0,.6,0,.8.2.2.1.3.4.3.6-.1.4-.6,1.3-1.5,2.6-.2.2-.2.4-.2.4,0,.1,0,.3,0,.4.5,1,.6,1.8.4,2.5,0,.3-.2.5-.5.7-.2.1-.5.2-.8.2s-.5-.1-.5-.4c-.2-.9-.5-1.7-.7-2.5,0-.3,0-.6,0-.9,0-.2.2-.5.4-.9.6-.8,1.1-1.7,1.5-2.5.3-.3.6-.5.9-.5h0ZM45.3,10.4h9.6c.4,0,.7,0,.8.3.1.1.1.4,0,.8,0,.4-.2.6-.4.8-.3.2-.6.4-1,.4h-9.6c-.4,0-.6,0-.8-.3-.1-.1-.1-.4,0-.8,0-.4.2-.6.5-.8.2-.2.5-.2.9-.2h0ZM49.3,13.2c.3,0,.6,0,.8.2.2.1.3.4.3.6-.1.4-.6,1.2-1.5,2.4-.2.2-.2.4-.2.4,0,.1,0,.2,0,.3.5,1,.6,1.8.5,2.5,0,.3-.2.5-.5.7-.2.1-.5.2-.8.2s-.5-.1-.5-.4c-.3-.8-.5-1.7-.8-2.4,0-.3,0-.6,0-.8,0-.2.2-.5.4-.8.5-.8,1.1-1.6,1.5-2.3.3-.3.6-.5.8-.5h0ZM52.9,13.2c.4,0,.6,0,.8.2.2.1.3.4.3.6-.1.4-.6,1.2-1.6,2.3-.2.2-.3.4-.3.4,0,.1,0,.2,0,.3.7,1,1,1.9.8,2.6,0,.3-.2.5-.5.7-.2.1-.5.2-.7.2s-.6-.1-.7-.4c-.3-.9-.6-1.7-.9-2.5-.1-.3-.2-.6,0-.9,0-.2.2-.5.5-.8.6-.8,1.1-1.5,1.7-2.3.3-.3.6-.5.8-.5h0Z"/>
            <path class="st6" d="M63.3,25.6c.3,0,.6,0,.8.3.3.3.3.6.2,1,0,.3-.3.6-.6.8-.6.3-1.2.6-1.8.9-1.6.7-3.1,1.2-4.4,1.6-.5.1-.8.2-1.2.2-.5,0-.8-.1-1-.4-.1-.3-.2-.6,0-.9.1-.4.4-.7.9-1,2.3-.7,4.2-1.4,5.5-2,.7-.3,1-.5,1.2-.5.2,0,.3,0,.5,0h0ZM63,12.5h3.3l.6-2.3c0-.4.3-.6.5-.8.2-.2.5-.3.9-.3s.7,0,.8.2c.2.2.2.5,0,.8l-.6,2.3h2.9l.6-2.3c0-.4.3-.6.5-.8.2-.2.5-.3.9-.3s.7,0,.8.2c.1.2.2.5,0,.8l-.6,2.3h3.2c1.2,0,1.6.6,1.2,1.9l-2.3,8.4c0,0,0,.1,0,.2h.8c.4,0,.7.1.8.3.1.1.1.4,0,.9,0,.4-.2.6-.4.8-.3.3-.6.4-1.1.4h-18.6c-.4,0-.7,0-.8-.3-.2-.2-.2-.5,0-.9.1-.4.3-.7.5-.9.3-.2.6-.3,1-.3h.5c0,0,0-.1,0-.2l2.3-8.4c.3-1.3,1.1-1.9,2.2-1.9h0ZM61,23h2.5l.8-2.8h-2.5l-.7,2.6c0,0,0,.1,0,.2h0ZM62.4,17.9h2.5l.8-3.1h-2.2c-.2,0-.3,0-.3.2l-.8,2.9h0ZM65.8,23h2.9l.8-2.8h-2.9l-.8,2.8ZM68,14.8l-.8,3.1h2.9l.8-3.1h-2.9ZM70,25.6c.2,0,.4,0,.7.2.1,0,.3.1.6.3,1.2.7,2.6,1.3,4.2,2,.2,0,.3.1.4.2.2.2.2.4.1.6-.1.5-.4.8-.9,1.1-.3.2-.7.3-1.2.3s-.8-.1-1.1-.4c-.9-.4-2.3-1.3-4.3-2.7-.2-.2-.2-.4-.2-.6,0-.3.3-.6.7-.8.4-.2.7-.3,1-.3h0ZM71,23h2.5c0,0,0-.1,0-.2l.7-2.6h-2.5l-.8,2.8h0ZM73.2,14.8l-.8,3.1h2.5l.8-2.9c0-.2,0-.2-.3-.2h-2.2Z"/>
            <path class="st6" d="M88.5,10.5h14.2c1.3,0,1.7.6,1.4,1.9l-3.9,14.6c-.3,1.3-1.1,1.9-2.4,1.9h-14.2c-1.3,0-1.7-.6-1.4-1.9l3.9-14.6c.3-1.3,1.1-1.9,2.4-1.9ZM97.3,26.5c.4,0,.7-.2.8-.7l3.3-12.4c.1-.4,0-.6-.5-.6h-12c-.4,0-.7.2-.8.6l-3.3,12.4c-.1.4,0,.7.5.7h12ZM92.1,15.5h4.3c1.3,0,1.8.7,1.5,2l-1.2,4.5c-.4,1.3-1.2,2-2.5,2h-4.3c-1.3,0-1.8-.7-1.5-2l1.2-4.5c.4-1.3,1.2-2,2.5-2ZM93.6,21.8c.5,0,.8-.2.9-.7l.7-2.7c.1-.5,0-.7-.5-.7h-2.2c-.5,0-.8.2-.9.7l-.7,2.7c-.1.5,0,.7.6.7h2.2Z"/>
            <path class="st6" d="M122.7,10h7.9c.3,0,.6,0,.7.2.1.1.1.4,0,.9-.1.4-.2.6-.3.8-.2.2-.5.3-.9.3h-2.8l-.8,1.6h1.8c1.1,0,1.5.6,1.2,1.7l-2.4,9c-.3,1.1-.9,1.6-1.9,1.7,0,0,0,.1.1.2.2.6.6,1.2,1,1.8.1.1.2.3.2.3.1.2.2.4,0,.6,0,.3-.3.6-.6.8-.3.2-.7.4-1,.4s-.3,0-.4-.2c-.5-.6-.9-1.3-1.2-2.1,0-.2-.2-.4-.2-.5,0-.2,0-.5,0-.8,0-.2.2-.4.4-.6h-2.2c0,.1,0,.2,0,.4,0,.2-.2.4-.3.5-.9,1.1-1.9,2.1-3.1,3-.2.2-.5.3-.6.3-.3,0-.6-.1-.8-.4,0-.1-.1-.3-.1-.4-.2.3-.5.5-.9.5h-5.2c-1.3,0-1.7-.6-1.4-1.9l1.1-4.2c-.3,0-.5,0-.6-.1-.2.6-.4,1.2-.7,1.8-.7,1.8-1.3,3.1-1.8,4-.2.3-.6.5-1,.5s-.5,0-.7-.3c-.1-.2-.2-.4,0-.6,0-.3.2-.6.4-1,1.4-3,2.4-5.8,3.2-8.4l2.1-7.7c.2-.6.4-1.1.8-1.3.3-.2.8-.3,1.3-.3,3-.3,5.3-.6,6.8-1,.4,0,.6-.1.8-.1.2,0,.4.1.5.3,0,.2.1.4,0,.6-.1.5-.4.9-.9,1-.7.2-1.5.4-2.6.6-1.4.2-2.8.4-4.2.4s-.5.1-.6.4v.5c-.1,0,6.8,0,6.8,0,.8,0,1.1.3,1,.9l-.8,2.8c-.2.8-.7,1.2-1.4,1.2h-.2c0,.1,0,.2,0,.4,0,0,0,.1,0,.2-.1.3-.3.6-.4,1h.9c.3,0,.6,0,.6.2.1.1.1.4,0,.7,0,.3-.2.5-.3.6-.2.2-.5.3-.8.3h-1.4l-.3,1.1h1.1c.3,0,.5,0,.6.2.1.1.2.4,0,.7,0,.3-.2.5-.3.6-.2.2-.5.3-.8.3h-1.1l-.3,1h1.1c.3,0,.5,0,.6.2.1.1.2.4,0,.7,0,.3-.2.5-.3.6-.2.2-.5.3-.8.3h-1.1l-.3,1.2h1.4c.5,0,.7.2.7.5,0,0,.1-.1.2-.2.2-.1.5-.4.9-.7.6-.5,1.3-1,1.9-1.6-1.1,0-1.4-.6-1.2-1.7l2.4-9c.3-1.1,1-1.7,2.2-1.7h1l.8-1.6h-2.6c-.3,0-.5,0-.7-.2-.1-.1-.2-.4,0-.8.1-.4.3-.7.5-.9.2-.1.4-.2.8-.2h0ZM111,17.9l-.5,1.7c-.2.6-.3,1.2-.5,1.8.9-1.1,1.7-2.2,2.4-3.4,0,0,0-.1.1-.2h-1.5ZM112.5,28.1l.3-1.2h-1.8l-.2.9c0,.2,0,.3.2.3h1.5,0ZM111.8,14.8l-.4,1.3h5.7c.2,0,.3,0,.4-.2l.2-.8c0-.2,0-.3-.2-.3h-5.7ZM113.3,25.2l.3-1h-1.8l-.3,1h1.8ZM114,22.4l.3-1.1h-1.8s0,0,0,0l-.3,1h1.8ZM113.7,19.5h1.4c.2-.5.4-.9.6-1.4,0,0,0-.1.1-.2h-1.6c0,.1,0,.3,0,.6,0,.2-.1.3-.2.5,0,.2-.2.3-.3.5h0ZM124.3,24.3c.3,0,.6-.2.7-.5l.3-1.1h-4.2l-.3,1.1c0,.4,0,.5.4.5h3.2ZM121.5,20.9h4.2l.5-1.7h-4.2l-.5,1.7ZM122.4,17.5h4.2l.3-1.3c0-.4,0-.5-.4-.5h-3.2c-.3,0-.6.2-.7.5,0,0-.3,1.3-.3,1.3Z"/>
          </g>
        </g>
      </g>
    </g>
  </g>
</svg>