<?xml version="1.0" encoding="UTF-8"?><svg xmlns="http://www.w3.org/2000/svg" xmlns:xlink="http://www.w3.org/1999/xlink" viewBox="0 0 24 24"><defs><style>.k{fill:url(#d);}.l{fill:url(#g);}.m{fill:url(#i);}.n{fill:url(#h);}.o{fill:url(#j);}.p{filter:url(#e);}</style><radialGradient id="d" cx="12" cy="12" fx="12" fy="12" r="12" gradientTransform="matrix(1, 0, 0, 1, 0, 0)" gradientUnits="userSpaceOnUse"><stop offset="0" stop-color="#fffcd1"/><stop offset=".11" stop-color="#fcf5bf"/><stop offset=".33" stop-color="#f4e493"/><stop offset=".37" stop-color="#f3e18b"/><stop offset=".69" stop-color="#f1c500"/><stop offset="1" stop-color="#cb9b0c"/></radialGradient><filter id="e" filterUnits="userSpaceOnUse"><feOffset dx="1.2" dy="1.2"/><feGaussianBlur result="f" stdDeviation="1.2"/><feFlood flood-color="#000" flood-opacity=".5"/><feComposite in2="f" operator="in"/><feComposite in="SourceGraphic"/></filter><linearGradient id="g" x1="4.87" y1="16.97" x2="8.08" y2="16.97" gradientTransform="matrix(1, 0, 0, 1, 0, 0)" gradientUnits="userSpaceOnUse"><stop offset="0" stop-color="#ebeced"/><stop offset=".25" stop-color="#fffeea"/><stop offset=".43" stop-color="#f0ecdd"/><stop offset=".6" stop-color="#e0dacf"/><stop offset=".79" stop-color="#f4f4f4"/><stop offset="1" stop-color="#e1dec6"/></linearGradient><linearGradient id="h" x1="15.92" y1="16.98" x2="19.13" y2="16.98" xlink:href="#g"/><linearGradient id="i" x1="10.86" y1="16.88" x2="13.14" y2="16.88" xlink:href="#g"/><linearGradient id="j" x1="8.47" y1="12" x2="15.53" y2="12" xlink:href="#g"/></defs><g id="a"/><g id="b"><g id="c"><g><circle class="k" cx="12" cy="12" r="12"/><g class="p"><path class="l" d="M5.28,17.19c-.24,.15-.41,.43-.41,.74,0,.48,.39,.88,.87,.88,0,0,0,0,.01,0h2.33v-3.66l-2.82,2.04h0Z"/><path class="n" d="M18.6,17.12h.01l-2.69-1.97v3.65h2.24s0-.01,0-.01c.04,0,.07,.01,.11,.01,.48,0,.87-.39,.87-.88,0-.36-.22-.67-.54-.81Z"/><path class="m" d="M12.51,15.18h-1.02c-.17,0-.33,.07-.44,.18-.11,.11-.18,.27-.18,.44v2.16c0,.17,.07,.33,.18,.44,.11,.11,.27,.18,.44,.18h1.02c.17,0,.33-.07,.44-.18,.11-.11,.18-.27,.18-.44v-2.16c0-.17-.07-.33-.18-.44-.11-.11-.27-.18-.44-.18Z"/><path class="o" d="M15.46,8.98h.01l-2.65-5.29c-.02-.06-.05-.12-.09-.17h0c-.15-.23-.41-.38-.7-.38-.3,0-.57,.16-.72,.41h0s-.04,.08-.06,.12l-2.59,5.14c-.11,.16-.18,.35-.18,.56v10.11c0,.58,.47,1.06,1.06,1.06h.91l.11,.34h2.89l.11-.34h.93c.59,0,1.06-.47,1.06-1.06V9.37c0-.14-.03-.26-.08-.38Zm-2.04,8.98c0,.5-.4,.9-.9,.9h-1.02c-.5,0-.9-.41-.9-.9v-2.16c0-.5,.4-.9,.9-.9h1.02c.5,0,.9,.4,.9,.9v2.16Zm-1.41-5.28c-.9,0-1.63-.73-1.63-1.63,0-.9,.73-1.63,1.63-1.62,.9,0,1.62,.73,1.62,1.62,0,.9-.73,1.63-1.62,1.63Z"/></g></g></g></g></svg>