<?xml version="1.0" encoding="UTF-8"?>
<svg xmlns="http://www.w3.org/2000/svg" width="26" height="26" viewBox="0 0 26 26">
  <defs>
    <style>
      .cls-1 {
        fill: #fff;
      }

      .cls-2 {
        fill: #a0a0a0;
      }
    </style>
  </defs>
  <g id="Layer_1" data-name="Layer 1"/>
  <g id="Layer_2" data-name="Layer 2">
    <g id="_註" data-name="標註">
      <g>
        <circle class="cls-2" cx="13" cy="13" r="13"/>
        <g>
          <path class="cls-1" d="M20.12,9.66c-.47-.11-.94,.19-1.05,.66l-1.01,4.4-7.63-.07-1.84-7.35c-.06-.24-.21-.44-.43-.56l-1.67-.92c-.42-.23-.96-.08-1.19,.35-.23,.42-.08,.96,.35,1.19l1.33,.73,1.87,7.49-1.01,.8c-.12,.1-.19,.24-.19,.39v1.25c0,.27,.22,.5,.49,.5l1.41,.02c-.2,.18-.32,.44-.32,.73,0,.55,.45,1,1,1s1-.45,1-1c0-.28-.11-.53-.3-.71l6.61,.09c-.14,.17-.22,.38-.22,.62,0,.55,.45,1,1,1s1-.45,1-1c0-.22-.08-.43-.2-.6h.87c.27,.01,.5-.21,.5-.48,0-.28-.22-.5-.49-.51l-11.35-.16v-.52l.83-.66c.08,.02,.16,.04,.24,.04l9.01,.08h0c.41,0,.76-.28,.85-.68l1.17-5.09c.11-.47-.19-.94-.66-1.05Z"/>
          <path class="cls-1" d="M16.33,10.02h-.81v-2.36c0-.29-.23-.52-.52-.52h-1.57c-.29,0-.52,.23-.52,.52v2.36h-.81c-.36,0-.48,.24-.26,.53l.61,.81c.22,.29,.57,.76,.78,1.05l.61,.81c.22,.29,.57,.29,.78,0l.61-.81c.22-.29,.57-.76,.78-1.05l.61-.81c.21-.29,.1-.53-.26-.53Z"/>
        </g>
      </g>
    </g>
  </g>
</svg>