<?xml version="1.0" encoding="UTF-8"?>
<svg id="Layer_1" xmlns="http://www.w3.org/2000/svg" version="1.1" viewBox="0 0 27 27">
  <!-- Generator: Adobe Illustrator 29.1.0, SVG Export Plug-In . SVG Version: 2.1.0 Build 142)  -->
  <defs>
    <style>
      .st0 {
        fill: none;
        stroke: #f9b653;
        stroke-miterlimit: 10;
      }

      .st1 {
        fill: #f9b653;
      }
    </style>
  </defs>
  <g id="Layer_2">
    <g id="_註">
      <g>
        <circle class="st0" cx="13.5" cy="13.5" r="13"/>
        <g>
          <path class="st1" d="M20.6,10.2c-.5-.1-.9.2-1,.7l-1,4.4h-7.6c0,0-1.8-7.4-1.8-7.4,0-.2-.2-.4-.4-.6l-1.7-.9c-.4-.2-1,0-1.2.3-.2.4,0,1,.3,1.2l1.3.7,1.9,7.5-1,.8c-.1.1-.2.2-.2.4v1.2c0,.3.2.5.5.5h1.4c-.2.2-.3.5-.3.8,0,.5.4,1,1,1s1-.5,1-1-.1-.5-.3-.7h6.6c-.1.3-.2.5-.2.7,0,.5.5,1,1,1s1-.5,1-1,0-.4-.2-.6h.9c.3,0,.5-.2.5-.5s-.2-.5-.5-.5l-11.4-.2v-.5l.8-.7c0,0,.2,0,.2,0h9c.4,0,.8-.2.9-.6l1.2-5.1c.1-.5-.2-.9-.7-1.1h0Z"/>
          <path class="st1" d="M16.8,10.5h-.8v-2.4c0-.3-.2-.5-.5-.5h-1.6c-.3,0-.5.2-.5.5v2.4h-.8c-.4,0-.5.2-.3.5l.6.8c.2.3.6.8.8,1.1l.6.8c.2.3.6.3.8,0l.6-.8c.2-.3.6-.8.8-1.1l.6-.8c.2-.3.1-.5-.3-.5h0Z"/>
        </g>
      </g>
    </g>
  </g>
</svg>