<?xml version="1.0" encoding="UTF-8"?>
<svg id="Layer_1" xmlns="http://www.w3.org/2000/svg" version="1.1" viewBox="0 0 17 19.4">
  <!-- Generator: Adobe Illustrator 29.1.0, SVG Export Plug-In . SVG Version: 2.1.0 Build 142)  -->
  <defs>
    <style>
      .st0 {
        fill: #f9b653;
      }
    </style>
  </defs>
  <g id="b">
    <g id="c">
      <g>
        <path class="st0" d="M8.5,0h0c-.5,0-1.7.4-3.2,1-1.5.6-3,.8-4.3,1.1C-.2,2.4,0,3.9,0,3.9,0,3.9.5,9.9.7,10.9c.9,4.7,7.7,8.5,7.7,8.5h0s7-3.7,7.9-8.5c.2-1,.7-7.2.7-7.2,0,0,.2-1.5-1.1-1.8-1.3-.3-2.8-.5-4.4-1C10,.3,9,0,8.5,0h0ZM11,2.2c1.2.4,2.3.7,3.4.8,0,0,.9.2,1.1.3,0,0,0,0,0,.2,0,0,0,0,0,0-.2,2.3-.5,6.3-.7,7-.4,2.1-2.3,4-3.8,5.2-1,.8-2,1.5-2.6,1.9-.6-.4-1.6-1-2.5-1.9-1.5-1.3-3.3-3.2-3.7-5.2-.1-.7-.5-4.6-.6-6.9h0c0-.2,0-.3,0-.4.3,0,.7-.2,1.1-.2,1-.2,2.1-.5,3.3-.9,1.3-.5,2.3-.8,2.6-.8.2,0,.9.2,2.5.8h0Z"/>
        <path class="st0" d="M13.2,4.4c-.8-.2-1.8-.3-2.8-.7-1-.4-1.6-.6-1.9-.6h0c-.3,0-1.1.2-2,.6-1,.4-1.9.5-2.7.8-.8.2-.6,1.2-.6,1.2,0,0,.3,4,.4,4.7.6,3.2,4.9,5.7,4.9,5.7h0s4.4-2.5,5-5.7c.1-.7.4-4.8.4-4.8,0,0,.1-1-.7-1.2ZM11.2,7.4h-2.1v5.3c0,.3-.3.6-.6.6s-.6-.3-.6-.6v-5.3h-2.1c-.3,0-.6-.3-.6-.6s.3-.6.6-.6h5.3c.3,0,.6.3.6.6s-.3.6-.6.6h0Z"/>
      </g>
    </g>
  </g>
</svg>