<?xml version="1.0" encoding="UTF-8"?><svg xmlns="http://www.w3.org/2000/svg" viewBox="0 0 17.01 19.43"><defs><style>.d{fill:#d6226d;}</style></defs><g id="a"/><g id="b"><g id="c"><g><path class="d" d="M8.51,0h-.01c-.47,.05-1.68,.38-3.2,.96-1.53,.59-3.02,.8-4.27,1.12C-.21,2.41,.02,3.89,.02,3.89,.02,3.89,.48,9.91,.67,10.9c.9,4.73,7.73,8.54,7.73,8.54h0s6.96-3.69,7.9-8.51c.2-1.01,.68-7.17,.68-7.17,0,0,.24-1.53-1.06-1.83-1.3-.3-2.84-.48-4.39-1.04C10.01,.34,8.98,.04,8.52,0h-.01Zm2.46,2.21c1.19,.43,2.35,.65,3.37,.85,0,0,.92,.22,1.08,.26,0,0,.04,0,.03,.25,0,.04,0,.05-.01,.09-.18,2.35-.53,6.32-.66,7-.4,2.07-2.28,3.99-3.78,5.23-.99,.82-1.96,1.46-2.6,1.86-.63-.4-1.57-1.04-2.54-1.87-1.49-1.26-3.33-3.18-3.73-5.24-.13-.67-.46-4.57-.64-6.87,0-.04,0-.05,0-.09,0-.09,0-.2,.02-.28,.33-.08,.68-.16,1.06-.24,.99-.21,2.12-.46,3.29-.91,1.32-.51,2.26-.76,2.64-.83,.25,.05,.9,.22,2.47,.78Z"/><path class="d" d="M13.16,4.37c-.82-.2-1.79-.33-2.77-.71-.97-.37-1.62-.58-1.91-.6h-.02c-.29,.03-1.07,.25-2.02,.64-.97,.39-1.92,.53-2.71,.75-.79,.21-.64,1.21-.64,1.21,0,0,.3,4.04,.42,4.71,.57,3.18,4.9,5.72,4.9,5.72h0s4.39-2.48,4.98-5.71c.12-.68,.43-4.79,.43-4.79,0,0,.15-1.02-.66-1.22Zm-1.99,3.01h-2.07v5.29c0,.33-.27,.6-.6,.6s-.6-.27-.6-.6V7.37h-2.07c-.33,0-.6-.27-.6-.6s.27-.6,.6-.6h5.33c.33,0,.6,.27,.6,.6s-.27,.6-.6,.6Z"/></g></g></g></svg>