<?xml version="1.0" encoding="UTF-8"?>
<svg id="Layer_2" data-name="Layer 2" xmlns="http://www.w3.org/2000/svg" width="82" height="33" xmlns:xlink="http://www.w3.org/1999/xlink" viewBox="0 0 82 33">
  <defs>
    <style>
      .cls-1 {
        filter: url(#outer-glow-1);
        stroke-width: .8px;
      }

      .cls-1, .cls-2 {
        fill: none;
        stroke: #f9b653;
        stroke-miterlimit: 10;
      }

      .cls-2 {
        filter: url(#outer-glow-2);
        stroke-width: .5px;
      }

      .cls-3, .cls-4 {
        isolation: isolate;
      }

      .cls-4 {
        fill: #f9b653;
        font-family: HiraMaruProN-W4-83pv-RKSJ-H, 'Hiragino Maru Gothic ProN';
        font-size: 14.08px;
      }
    </style>
    <filter id="outer-glow-1" x="0" y="0" width="82" height="33" filterUnits="userSpaceOnUse">
      <feOffset dx="0" dy="0"/>
      <feGaussianBlur result="blur" stdDeviation="1.42"/>
      <feFlood flood-color="#f4d3a8" flood-opacity=".9"/>
      <feComposite in2="blur" operator="in"/>
      <feComposite in="SourceGraphic"/>
    </filter>
    <filter id="outer-glow-2" x="0" y="0" width="82" height="33" filterUnits="userSpaceOnUse">
      <feOffset dx="0" dy="0"/>
      <feGaussianBlur result="blur-2" stdDeviation="1.42"/>
      <feFlood flood-color="#f4d3a8" flood-opacity=".9"/>
      <feComposite in2="blur-2" operator="in"/>
      <feComposite in="SourceGraphic"/>
    </filter>
  </defs>
  <g id="Layer_1-2" data-name="Layer 1">
    <g class="cls-3">
      <g id="Layer_1-3" data-name="Layer 1">
        <g id="Layer_2-2" data-name="Layer 2">
          <g id="_層1" data-name=" 層1">
            <g>
              <path class="cls-1" d="M16.15,4.75h49c6.4,0,11.5,5.1,11.5,11.5h0c0,6.4-5.1,11.5-11.5,11.5H16.15c-6.4,0-11.5-5.1-11.5-11.5h0c0-6.4,5.1-11.5,11.5-11.5Z"/>
              <path class="cls-2" d="M16.15,4.75h49c6.4,0,11.5,5.1,11.5,11.5h0c0,6.4-5.1,11.5-11.5,11.5H16.15c-6.4,0-11.5-5.1-11.5-11.5h0c0-6.4,5.1-11.5,11.5-11.5Z"/>
            </g>
          </g>
        </g>
        <g class="cls-3">
          <text class="cls-4" transform="translate(14.05 20.85) scale(.88 .97) skewX(-14.7)"><tspan x="0" y="0">發現更多</tspan></text>
        </g>
      </g>
    </g>
  </g>
</svg>