<?xml version="1.0" encoding="UTF-8"?><svg xmlns="http://www.w3.org/2000/svg" xmlns:xlink="http://www.w3.org/1999/xlink" viewBox="0 0 110 47"><defs><style>.f{filter:url(#d);}.f,.g{fill:none;stroke:#f0a0c3;stroke-miterlimit:10;stroke-width:1.2px;}.h{fill:#f0a0c3;}</style><filter id="d" filterUnits="userSpaceOnUse"><feOffset dx="0" dy="0"/><feGaussianBlur result="e" stdDeviation="2.5"/><feFlood flood-color="#fa00c3" flood-opacity="1"/><feComposite in2="e" operator="in"/><feComposite in="SourceGraphic"/></filter></defs><g id="a"/><g id="b"><g id="c"><g><g><rect class="f" x="8.66" y="8.55" width="92.31" height="30" rx="15" ry="15"/><g><path class="h" d="M29.89,17.35h3.51c.27,0,.43,.09,.48,.27,.12-.18,.3-.27,.52-.27,.1,0,.19,.04,.26,.13,.26,.49,.57,.94,.91,1.34,.81-.52,1.48-1.01,2.01-1.47,.16-.15,.29-.23,.39-.23,.35,0,.48,.16,.4,.47-.04,.16-.16,.31-.35,.45-.56,.45-1.21,.9-1.93,1.33,.24,.21,.5,.41,.79,.61,.75-.49,1.39-.95,1.9-1.39,.16-.15,.3-.23,.4-.23,.34,0,.47,.16,.38,.47-.04,.16-.16,.31-.35,.45-.49,.39-1.04,.76-1.64,1.12,.09,.06,.18,.11,.27,.16,.42,.21,1,.42,1.76,.65,.28,.05,.38,.22,.3,.51-.11,.42-.37,.62-.79,.62-.66-.2-1.22-.42-1.68-.65-.14-.08-.27-.15-.4-.21l-.03,.11-.4,1.49c-.03,.09-.01,.17,.04,.23,.04,.03,.17,.04,.38,.04,.24,0,.41-.02,.51-.06,.1-.02,.17-.08,.2-.17l.15-.4c.08-.22,.24-.33,.48-.33,.32,.02,.44,.19,.37,.51-.11,.4-.24,.69-.39,.88-.13,.15-.31,.27-.53,.35-.23,.08-.5,.13-.8,.13h-.68c-.68,0-.93-.34-.74-1.03l.36-1.34c.02-.08-.09-.11-.32-.11h-1.06c-.2,0-.31,.04-.33,.11l-.18,.68c-.12,.43-.31,.79-.57,1.08-.33,.32-.72,.59-1.15,.82-.27,.12-.48,.18-.64,.18-.32-.02-.45-.16-.39-.44,.05-.16,.15-.29,.29-.4,.58-.26,.94-.47,1.09-.62,.23-.19,.39-.45,.48-.79l.22-.81c.13-.49,.42-.74,.88-.74h1.78c-.23-.16-.43-.33-.6-.51-.67-.62-1.2-1.3-1.58-2.02-.04-.08-.07-.14-.09-.2-.12,.23-.33,.48-.63,.75-.61,.57-1.46,1.18-2.55,1.85-.21,.12-.42,.25-.62,.37h1.39c.56,0,.76,.26,.62,.79l-.39,1.46c-.14,.54-.49,.81-1.05,.81h-2.33c-.22,0-.44,.43-.67,1.3-.03,.11,.03,.17,.18,.17h2.59c.45,0,.6,.3,.44,.91-.1,.38-.28,.87-.54,1.49-.35,.81-.66,1.37-.94,1.67-.3,.39-.8,.58-1.5,.58-.58,0-1.45-.1-2.62-.3-.25-.05-.34-.22-.26-.51,.09-.33,.3-.5,.64-.5,.97,.19,1.81,.28,2.51,.28,.36,0,.64-.24,.85-.71,.31-.67,.53-1.23,.65-1.67,.06-.23,0-.34-.19-.34h-2.43c-.49,0-.66-.27-.52-.81,.14-.52,.33-1.06,.57-1.61,.25-.58,.54-.88,.87-.88h2.43c.24,0,.39-.13,.46-.4l.12-.44c.07-.27,0-.41-.24-.41h-2.21c-.07,0-.13,0-.18-.01-.33,.15-.66,.29-.99,.42-.25,.11-.45,.17-.61,.17-.38,0-.52-.17-.43-.52,.06-.23,.2-.4,.41-.51,1.17-.41,2.06-.76,2.66-1.06-.32-.28-.59-.51-.82-.68-.2-.13-.43-.26-.7-.4-.07-.14-.08-.28-.05-.41,.08-.3,.27-.45,.57-.45,.08,0,.18,.04,.29,.13,.27,.16,.51,.32,.72,.47,.33,.23,.61,.49,.87,.78,.04,.04,.06,.07,.06,.08,.54-.29,1.03-.59,1.47-.91,.55-.37,.84-.61,.87-.72,.02-.07-.04-.1-.16-.1h-2.76c-.31,0-.43-.16-.34-.47,.08-.3,.28-.45,.59-.45Zm2.11,7.54h4.98c.38,0,.51,.21,.4,.62-.1,.37-.34,.77-.72,1.22-.38,.45-.97,.95-1.77,1.5,.12,.08,.24,.16,.37,.24,.45,.25,1.09,.51,1.91,.78,.16,.11,.22,.25,.18,.4-.11,.42-.36,.62-.73,.62-.09,0-.26-.03-.5-.1-.72-.26-1.33-.55-1.83-.86-.19-.11-.37-.24-.55-.37-.73,.4-1.48,.73-2.26,.99-.62,.23-1.02,.34-1.21,.34-.38,0-.52-.19-.41-.57,.08-.28,.27-.43,.59-.45,1.02-.28,1.88-.6,2.57-.95-.09-.11-.18-.23-.28-.34-.34-.48-.57-1.19-.69-2.12h-.3c-.3,0-.41-.16-.32-.5,.08-.3,.27-.45,.57-.45Zm1.19,.95c.14,.61,.36,1.12,.67,1.51,.08,.09,.16,.19,.25,.28,.65-.42,1.22-.85,1.71-1.3,.19-.19,.3-.33,.33-.42,.01-.05-.02-.07-.09-.07h-2.86Z"/><path class="h" d="M47.23,17.59c.34,0,.46,.17,.37,.51-.09,.33-.3,.5-.64,.5h-1.25l-.96,3.57h1.13c.33,0,.45,.17,.36,.51-.09,.35-.31,.52-.64,.52h-1.13l-1.05,3.93c.48-.22,1.07-.51,1.75-.88l.26-.06c.33,0,.44,.19,.34,.57-.03,.12-.16,.26-.37,.42-.51,.32-1.17,.66-1.99,1.02-1,.43-1.93,.78-2.78,1.03-.14,.05-.25,.07-.36,.07-.33,0-.44-.19-.34-.58,.08-.28,.25-.47,.53-.57,.69-.19,1.29-.38,1.81-.57l1.18-4.4h-1.2c-.34,0-.46-.17-.37-.52,.09-.34,.31-.51,.65-.51h1.2l.96-3.57h-1.3c-.35,0-.48-.17-.39-.5,.09-.34,.31-.51,.66-.51h3.57Zm3.13,7.7h-1.46c-.08,.27-.22,.63-.42,1.08-.23,.53-.51,1.03-.84,1.5-.45,.58-.91,1.03-1.39,1.37-.56,.4-1.16,.72-1.8,.98-.09,.04-.18,.06-.24,.06-.42,0-.57-.19-.47-.57,.06-.21,.2-.36,.42-.45,.66-.28,1.21-.58,1.64-.89,.42-.3,.79-.67,1.12-1.12,.34-.47,.66-1.12,.95-1.95h-.78c-.61,0-.84-.3-.68-.91l1.62-6.06c.15-.57,.53-.85,1.15-.85h5.43c.59,0,.82,.28,.66,.85l-1.62,6.06c-.16,.6-.54,.91-1.13,.91h-1.13l-.83,3.11c-.07,.25-.06,.42,.03,.52,.1,.1,.39,.16,.86,.16,.34,0,.55-.05,.65-.14,.12-.11,.19-.25,.23-.4l.25-.95c.11-.36,.33-.55,.66-.57,.32,.02,.42,.25,.32,.69-.26,.98-.46,1.55-.59,1.71-.11,.21-.29,.37-.54,.5-.23,.1-.65,.16-1.26,.16-.89,0-1.43-.11-1.64-.34-.2-.22-.22-.61-.07-1.17l.88-3.28Zm1.91-.96c.26,0,.44-.16,.52-.47l.25-.95h-5.22l-.25,.95c-.08,.31,.01,.47,.29,.47h4.41Zm-4.2-2.33h5.22l.36-1.34h-5.22l-.36,1.34Zm.61-2.26h5.22l.24-.89c.07-.27-.02-.41-.29-.41h-4.41c-.27,0-.45,.14-.52,.41l-.24,.89Z"/><path class="h" d="M71.48,17.59c.3,0,.41,.15,.33,.45-.09,.33-.28,.5-.59,.5h-5.43l-.33,1.25h3.96c.6,0,.83,.27,.69,.81l-1.04,3.89c-.15,.58-.53,.86-1.14,.86h-4c-.46,1.3-1.08,2.29-1.85,2.96,.65,.18,1.42,.33,2.3,.44,.64,.09,2.03,.17,4.17,.23,.33,.02,.45,.18,.38,.5-.13,.42-.39,.62-.79,.62-.65-.02-1.45-.07-2.42-.14-1.01-.07-1.95-.19-2.83-.37-.72-.14-1.35-.31-1.9-.5-1.12,.57-2.74,.96-4.85,1.19-.38,0-.52-.17-.43-.51,.07-.27,.26-.44,.55-.51,1.42-.17,2.58-.42,3.48-.74-.83-.43-1.48-.98-1.95-1.64-.04-.13-.04-.27,0-.41,.09-.33,.3-.5,.64-.5,.1,0,.2,.08,.29,.23,.59,.77,1.34,1.34,2.26,1.71h.03c.1-.08,.21-.16,.32-.25,.64-.55,1.14-1.32,1.52-2.31h-4.2c-.56,0-.76-.29-.6-.86l1.04-3.89c.14-.54,.49-.81,1.05-.81h4.24l.33-1.25h-5.55c-.3,0-.41-.17-.32-.5,.08-.3,.27-.45,.57-.45h12.07Zm-8.34,6.79l.36-1.36h-4l-.25,.95c-.07,.27-.02,.41,.16,.41h3.74Zm-3.38-2.33h4l.34-1.29h-3.74c-.18,0-.3,.11-.36,.34l-.25,.95Zm7.92,2.33c.22,0,.36-.14,.44-.41l.25-.95h-3.78l-.36,1.36h3.45Zm-2.48-3.62l-.34,1.29h3.78l.25-.95c.06-.23-.02-.34-.23-.34h-3.45Z"/><path class="h" d="M79.72,24.65c-.41,.25-.82,.47-1.25,.67-1.03,.48-2.32,.92-3.88,1.32-.17,.05-.32,.07-.43,.07-.34,0-.46-.19-.36-.57,.04-.14,.16-.28,.38-.41,1.76-.42,3.12-.87,4.06-1.33,.75-.35,1.56-.84,2.42-1.49,.16-.16,.31-.24,.45-.24,.38,0,.52,.17,.43,.52-.03,.1-.09,.22-.19,.34l-.29,.23h3.44c.69,0,.96,.28,.81,.83-.14,.51-.43,1.04-.9,1.6-.62,.77-1.4,1.41-2.32,1.91-1.08,.6-2.25,1.06-3.52,1.37-1.56,.4-3.34,.64-5.35,.74-.5,0-.7-.19-.6-.57,.09-.33,.3-.5,.65-.51,1.61-.05,2.89-.15,3.86-.31,.78-.12,1.5-.28,2.15-.48-.27-.38-.5-.68-.69-.92-.19-.21-.41-.43-.66-.67-.08-.13-.1-.27-.06-.41,.08-.29,.26-.44,.56-.44,.1,0,.21,.04,.32,.11,.26,.25,.49,.49,.68,.74,.31,.34,.59,.74,.83,1.19,.02,0,.02,.02,.02,.03,1.13-.45,2.07-1.04,2.8-1.75,.56-.5,.89-.94,.99-1.33,.04-.16,0-.24-.15-.24h-4.22Zm-.55-5.55c-.3,.18-.61,.34-.91,.5-.83,.42-1.87,.81-3.13,1.16-.15,.03-.27,.04-.35,.04-.35,0-.47-.19-.37-.57,.04-.14,.17-.27,.4-.38,1.39-.37,2.46-.75,3.2-1.16,.6-.29,1.24-.72,1.93-1.29,.15-.15,.31-.23,.46-.23,.38,0,.52,.17,.43,.52-.03,.1-.1,.22-.22,.34-.06,.06-.12,.11-.19,.17h4.84c.45,0,.62,.21,.51,.62-.1,.37-.54,.84-1.33,1.42-1.04,.8-2.3,1.52-3.79,2.16-1.36,.6-2.92,1.08-4.67,1.44-1.18,.27-2.13,.41-2.85,.41-.38,0-.52-.19-.41-.57,.08-.3,.28-.47,.59-.51,1.29-.09,2.26-.2,2.9-.31,.86-.19,1.68-.41,2.47-.65-.21-.32-.38-.57-.53-.76-.15-.17-.32-.35-.49-.55-.09-.12-.12-.25-.08-.38,.08-.3,.27-.45,.57-.45,.09,0,.2,.03,.33,.1,.2,.21,.38,.41,.55,.59,.26,.27,.48,.59,.68,.95,.03,.05,.06,.09,.08,.13,.21-.08,.43-.16,.65-.25,.93-.42,1.84-.92,2.72-1.49,.71-.43,1.08-.71,1.11-.82,.03-.12-.03-.18-.18-.18h-4.9Z"/></g></g><rect class="g" x="8.66" y="8.55" width="92.31" height="30" rx="15" ry="15"/></g></g></g></svg>