<?xml version="1.0" encoding="UTF-8"?>
<svg id="Layer_1" xmlns="http://www.w3.org/2000/svg" version="1.1" viewBox="0 0 39 39">
  <!-- Generator: Adobe Illustrator 29.1.0, SVG Export Plug-In . SVG Version: 2.1.0 Build 142)  -->
  <defs>
    <style>
      .st0 {
        fill: #f9b653;
      }
    </style>
  </defs>
  <g id="b">
    <g id="c">
      <g>
        <path class="st0" d="M7.9,19.5c0,6.4,5.2,11.6,11.6,11.6s11.6-5.2,11.6-11.6-5.2-11.6-11.6-11.6-11.6,5.2-11.6,11.6ZM27.6,18.8c.4,4.5-2.9,8.4-7.4,8.8-4.5.4-8.4-2.9-8.8-7.4-.4-4.5,2.9-8.4,7.4-8.8,4.5-.4,8.4,2.9,8.8,7.4Z"/>
        <path class="st0" d="M35.4,25.9h1.9c.5,0,.9-.4,1-.9l.6-3c0-.4-.2-1-.6-1.2l-1.7-.8c-.4-.2-.7-.7-.7-1.2,0,0,0-.2,0-.8v-.2c0-.2.2-.5.6-.8l1.6-1c.4-.2.6-.8.5-1.2l-1-2.9c-.2-.4-.7-.7-1.1-.7h-1.9c-.5.2-1,0-1.2-.4s-.6-1.5-.4-1.9l.9-1.7c.2-.4.1-1-.2-1.3l-2.3-2.1c-.4-.3-.9-.3-1.3,0l-1.6,1.1c-.4.2-1,.3-1.3.1-.3-.2-1.3-1-1.3-1.4v-1.9c-.1-.4-.5-.9-.9-1L22,0c-.4,0-1,.2-1.2.6l-.8,1.7c-.2.4-.7.7-1.2.7,0,0-.2,0-.8,0h-.2c-.2,0-.5-.2-.8-.6l-1-1.6c-.2-.4-.8-.6-1.2-.5l-2.9,1c-.4.2-.7.7-.7,1.1v1.9c.2.4,0,1-.4,1.2s-1.5.6-1.9.4l-1.7-.9c-.4-.2-1-.1-1.3.2l-2.1,2.3c-.3.3-.3.9,0,1.3l1.1,1.6c.2.4.3.9.1,1.3-.2.3-1,1.3-1.4,1.3h-1.9c-.4,0-.9.4-1,.9l-.6,3.1c0,.4.2,1,.6,1.2l1.7.8c.4.2.7.7.7,1.2,0,0,0,.2,0,.8v.2c0,.2-.2.5-.6.8l-1.6,1c-.4.2-.6.8-.5,1.2l1,3c.2.4.7.7,1.1.7h1.9c.4-.2,1,0,1.2.4.2.3.6,1.5.4,1.9l-.9,1.7c-.2.4-.1,1,.2,1.3l2.3,2.1c.3.3.9.3,1.3,0l1.6-1.1c.4-.2.9-.3,1.3-.1.3.2,1.3,1,1.3,1.4v1.9c.1.5.5.9.9,1l3,.6c.4,0,1-.2,1.2-.6l.8-1.7c.2-.4.7-.7,1.2-.7,0,0,.2,0,.8,0h.2c.2,0,.5.2.8.6l1,1.6c.2.4.8.6,1.2.5l3-1c.4-.2.7-.7.7-1.1v-1.9c-.2-.5,0-1,.4-1.2.3-.2,1.5-.6,1.9-.4l1.7.9c.4.2,1,.1,1.3-.2l2.1-2.3c.3-.4.3-.9,0-1.3l-1.1-1.6c-.2-.4-.3-1-.1-1.3.2-.3,1-1.3,1.4-1.3h0ZM19.5,32.7c-7.3,0-13.2-5.9-13.2-13.2s5.9-13.2,13.2-13.2,13.2,5.9,13.2,13.2-5.9,13.2-13.2,13.2h0Z"/>
      </g>
    </g>
  </g>
</svg>