<?xml version="1.0" encoding="UTF-8"?><svg xmlns="http://www.w3.org/2000/svg" viewBox="0 0 39 39"><defs><style>.d{fill:#e9528e;}</style></defs><g id="a"/><g id="b"><g id="c"><g><path class="d" d="M7.89,19.5c0,6.4,5.21,11.61,11.61,11.61s11.61-5.21,11.61-11.61-5.21-11.61-11.61-11.61S7.89,13.1,7.89,19.5Zm19.69-.71c.39,4.47-2.92,8.4-7.38,8.79-4.47,.39-8.4-2.92-8.79-7.38-.39-4.47,2.91-8.4,7.38-8.79,4.47-.39,8.4,2.92,8.79,7.38Z"/><path class="d" d="M35.42,25.92l1.92-.07c.45-.02,.91-.38,1.03-.82l.63-3.04c.06-.44-.21-.96-.61-1.16l-1.73-.84c-.4-.2-.74-.72-.74-1.17,0,0,0-.22-.05-.75v-.18c-.04-.2,.25-.55,.63-.79l1.63-1.03c.38-.24,.59-.79,.48-1.22l-.96-2.95c-.17-.42-.66-.73-1.11-.7l-1.92,.14c-.45,.03-.98-.21-1.18-.54-.2-.33-.62-1.48-.41-1.88l.89-1.7c.21-.4,.12-.98-.19-1.3l-2.31-2.07c-.35-.28-.94-.3-1.31-.05l-1.59,1.08c-.37,.25-.95,.3-1.29,.12-.34-.19-1.28-.98-1.29-1.43l-.08-1.92c-.02-.45-.38-.91-.82-1.03L21.99,0c-.44-.07-.96,.21-1.16,.61l-.84,1.73c-.2,.4-.72,.74-1.17,.74,0,0-.22,0-.75,.05l-.18,.02c-.2,.02-.55-.26-.79-.64l-1.03-1.63c-.24-.38-.79-.59-1.22-.48l-2.95,.96c-.42,.16-.73,.66-.7,1.11l.14,1.92c.03,.45-.21,.98-.54,1.18-.33,.2-1.48,.62-1.88,.41l-1.7-.9c-.4-.21-.98-.12-1.3,.19l-2.07,2.31c-.28,.35-.3,.94-.05,1.31l1.08,1.59c.25,.37,.3,.95,.12,1.29-.19,.34-.98,1.28-1.43,1.29l-1.92,.07c-.45,.02-.91,.38-1.03,.82L0,17.02c-.06,.44,.21,.96,.61,1.16l1.73,.84c.4,.19,.74,.72,.74,1.17,0,0,0,.22,.05,.75l.02,.18c.02,.2-.26,.55-.64,.79l-1.63,1.03c-.38,.24-.59,.79-.48,1.22l.96,2.95c.17,.42,.66,.73,1.11,.7l1.92-.14c.45-.03,.98,.21,1.18,.54,.2,.33,.62,1.48,.41,1.88l-.89,1.7c-.21,.4-.12,.98,.19,1.3l2.31,2.07c.35,.28,.94,.3,1.31,.05l1.59-1.08c.37-.25,.95-.3,1.29-.12,.34,.19,1.28,.98,1.29,1.43l.08,1.92c.02,.45,.38,.91,.82,1.03l3.04,.63c.44,.06,.96-.21,1.16-.61l.84-1.73c.19-.4,.72-.74,1.17-.74,0,0,.22,0,.75-.05l.18-.02c.2-.03,.55,.26,.79,.64l1.03,1.63c.24,.38,.79,.6,1.22,.48l2.95-.96c.42-.16,.73-.66,.7-1.11l-.14-1.92c-.03-.45,.21-.98,.54-1.18,.33-.2,1.48-.62,1.88-.41l1.7,.89c.4,.21,.98,.12,1.3-.19l2.07-2.31c.28-.35,.3-.94,.05-1.31l-1.08-1.59c-.25-.37-.3-.95-.12-1.29,.19-.34,.98-1.28,1.43-1.29Zm-15.92,6.81c-7.29,0-13.23-5.93-13.23-13.23S12.21,6.28,19.5,6.28s13.23,5.93,13.23,13.23-5.93,13.23-13.23,13.23Z"/></g></g></g></svg>