<?xml version="1.0" encoding="UTF-8"?><svg xmlns="http://www.w3.org/2000/svg" xmlns:xlink="http://www.w3.org/1999/xlink" viewBox="0 0 72 33"><defs><style>.g{fill:#d6226d;}.h{fill:url(#d);filter:url(#e);mix-blend-mode:hard-light;opacity:.9;}.i{isolation:isolate;}</style><linearGradient id="d" x1="34.39" y1="27.48" x2="34.39" y2="1.48" gradientTransform="matrix(1, 0, 0, 1, 0, 0)" gradientUnits="userSpaceOnUse"><stop offset="0" stop-color="#8e888b"/><stop offset=".02" stop-color="#979194"/><stop offset=".12" stop-color="#bab6b8"/><stop offset=".22" stop-color="#d5d3d4"/><stop offset=".31" stop-color="#e9e8e8"/><stop offset=".41" stop-color="#f5f4f4"/><stop offset=".5" stop-color="#f9f9f9"/><stop offset="1" stop-color="#eae7e3"/><stop offset="1" stop-color="#f0eeeb"/></linearGradient><filter id="e" filterUnits="userSpaceOnUse"><feOffset dx="1.44" dy="1.44"/><feGaussianBlur result="f" stdDeviation=".96"/><feFlood flood-color="#000" flood-opacity=".5"/><feComposite in2="f" operator="in"/><feComposite in="SourceGraphic"/></filter></defs><g class="i"><g id="a"/><g id="b"><g id="c"><g><rect class="h" x="1.68" y="1.48" width="65.42" height="26" rx="13" ry="13"/><g><path class="g" d="M29.72,9.31c.13,0,.24,.04,.33,.11,.11,.07,.16,.18,.16,.31,0,.09-.02,.21-.05,.34-.21,.75-.47,1.39-.78,1.91-.3,.57-.66,1.1-1.08,1.57-.34,.42-.74,.79-1.22,1.11-.1,.07-.21,.11-.31,.11-.14,0-.26-.05-.36-.16-.09-.12-.14-.25-.14-.38,0-.15,.05-.28,.15-.4,.43-.3,.8-.63,1.12-1,.37-.46,.7-.94,.98-1.45,.26-.49,.5-1.08,.7-1.76,.06-.21,.23-.31,.49-.31Zm-.23,3.77h6.58c.65,0,.97,.38,.97,1.15,0,1.39-.06,2.67-.18,3.81-.11,1-.36,1.66-.74,1.98-.4,.33-.98,.49-1.75,.49-.67,0-1.39-.16-2.19-.49-.26-.12-.4-.28-.4-.49,0-.4,.18-.6,.55-.6,.87,.36,1.53,.55,1.98,.55,.53,0,.9-.14,1.11-.41,.23-.26,.38-.75,.46-1.49,.08-.82,.12-1.81,.12-2.97,0-.36-.16-.55-.49-.55h-2.9c-.14,1.1-.36,2.04-.66,2.8-.36,.89-.91,1.61-1.64,2.16-.7,.56-1.69,1.03-2.95,1.41l-.16,.03c-.36,0-.55-.2-.55-.6,0-.21,.1-.36,.31-.44,1.17-.32,2.08-.74,2.75-1.27,.53-.42,.96-1,1.29-1.74,.26-.57,.44-1.36,.56-2.35h-2.08c-.32,0-.48-.16-.48-.49s.16-.49,.48-.49Zm1.53-4.92h3.79c.55,0,.93,.27,1.15,.82,.32,.99,.68,1.8,1.08,2.41,.27,.44,.62,.87,1.03,1.29,.23,.25,.58,.57,1.07,.96,.1,.13,.15,.27,.15,.44-.02,.31-.2,.47-.55,.49-.11,0-.23-.06-.37-.18-.52-.38-.93-.74-1.22-1.08-.46-.47-.89-1.02-1.27-1.64-.36-.64-.67-1.37-.9-2.19-.06-.23-.21-.34-.44-.34h-3.51c-.33,0-.49-.16-.49-.49s.16-.48,.49-.48Z"/><path class="g" d="M53.75,16.67c.29,0,.44,.15,.44,.45,0,.33-.15,.49-.44,.49h-4.96c.1,.44,.15,.88,.15,1.31,0,.29-.08,.58-.25,.88-.14,.25-.32,.42-.55,.53-.21,.12-.46,.18-.75,.18-.6,0-1.29-.13-2.06-.38-.28-.1-.43-.27-.44-.51,0-.35,.15-.53,.44-.55,1.08,.3,1.75,.45,2.01,.45,.09,0,.18-.02,.27-.07,.1-.05,.18-.12,.25-.22,.05-.1,.08-.21,.08-.31,0-.47-.04-.88-.11-1.23l-.03-.08h-5.81c-.3,0-.45-.16-.45-.49,0-.3,.15-.45,.45-.45h5.4c-.11-.15-.22-.27-.34-.38-.06-.05-.1-.11-.1-.16,.03-.31,.21-.47,.55-.49,.07,0,.16,.05,.26,.14,.18,.17,.35,.37,.49,.59,.03-.02,.05-.04,.08-.05,.52-.15,.92-.27,1.19-.38,.38-.14,.72-.29,1-.46,.22-.13,.33-.21,.33-.25,0-.08-.05-.12-.16-.12h-7.55c-.3,0-.45-.14-.45-.42s.15-.44,.45-.44h8.41c.52,0,.78,.18,.78,.55,0,.14-.1,.3-.29,.48-.3,.28-.73,.59-1.3,.93-.31,.19-.63,.36-.96,.49h3.96Zm-5.96-8.75c.4,0,.6,.18,.6,.55v.55h5.25c.29,0,.44,.15,.44,.45,0,.33-.15,.49-.44,.49h-11.61c-.29,0-.44-.16-.44-.49,0-.3,.15-.45,.44-.45h5.21v-.55c0-.36,.18-.55,.55-.55Zm-4.16,2.8h8.31c.46,0,.7,.21,.7,.64v1.44c0,.44-.23,.66-.7,.66h-8.31c-.47,0-.71-.22-.71-.66v-1.44c0-.43,.24-.64,.71-.64Zm7.77,1.85c.18,0,.27-.1,.27-.31v-.33c0-.23-.09-.34-.27-.34h-7.22c-.19,0-.29,.11-.29,.34v.33c0,.21,.1,.31,.29,.31h7.22Z"/></g><path class="g" d="M17.58,11.57c.35,.23,.77,.36,1.21,.36,1.24,0,2.24-1.01,2.24-2.25s-1.01-2.25-2.24-2.25-2.24,1.01-2.24,2.25c0,.21,.03,.41,.08,.6l-1.33,.95-2.11,1.5c-.31-.17-.67-.26-1.05-.26-1.24,0-2.24,1.01-2.24,2.25s1.01,2.25,2.24,2.25c.53,0,1.02-.19,1.41-.5l1.75,1.25,1.33,.95c-.05,.19-.08,.39-.08,.6,0,1.24,1.01,2.25,2.24,2.25s2.24-1.01,2.24-2.25-1.01-2.25-2.24-2.25c-.45,0-.86,.13-1.22,.36l-1.9-1.36-1.32-.94c.02-.12,.03-.24,.03-.36,0-.27-.05-.53-.14-.77l1.43-1.02,1.91-1.36Z"/></g></g></g></g></svg>