<?xml version="1.0" encoding="utf-8"?>
<!-- Generator: Adobe Illustrator 26.2.1, SVG Export Plug-In . SVG Version: 6.00 Build 0)  -->
<svg version="1.1" id="Layer_1" xmlns="http://www.w3.org/2000/svg" xmlns:xlink="http://www.w3.org/1999/xlink" x="0px" y="0px"
	 viewBox="0 0 20 25.2" style="enable-background:new 0 0 20 25.2;" xml:space="preserve">
<style type="text/css">
	.st0{fill:#F9B653;}
</style>
<g id="a">
</g>
<g id="b">
	<g id="c">
		<path class="st0" d="M13.8,7.4c0.6,0.4,1.4,0.6,2.2,0.6c2.2,0,4-1.8,4-4s-1.8-4-4-4s-4,1.8-4,4c0,0.4,0.1,0.7,0.1,1.1L9.7,6.8
			L5.9,9.5C5.3,9.2,4.7,9,4,9c-2.2,0-4,1.8-4,4s1.8,4,4,4c1,0,1.8-0.3,2.5-0.9l3.1,2.2l2.4,1.7c-0.1,0.3-0.1,0.7-0.1,1.1
			c0,2.2,1.8,4,4,4s4-1.8,4-4s-1.8-4-4-4c-0.8,0-1.6,0.2-2.2,0.6l-3.4-2.4L8,13.7C8,13.5,8,13.3,8,13.1c0-0.5-0.1-0.9-0.2-1.4
			l2.6-1.8L13.8,7.4L13.8,7.4z"/>
	</g>
</g>
</svg>
