<?xml version="1.0" encoding="UTF-8"?><svg xmlns="http://www.w3.org/2000/svg" viewBox="0 0 19.95 25.25"><defs><style>.d{fill:#fff;}</style></defs><g id="a"/><g id="b"><g id="c"><path class="d" d="M13.75,7.42c.63,.41,1.37,.65,2.17,.65,2.22,0,4.02-1.81,4.02-4.04S18.14,0,15.93,0s-4.02,1.81-4.02,4.04c0,.37,.06,.73,.15,1.08l-2.38,1.7-3.77,2.69c-.56-.3-1.2-.47-1.88-.47-2.22,0-4.02,1.81-4.02,4.04s1.8,4.04,4.02,4.04c.96,0,1.83-.34,2.52-.9l3.13,2.23,2.38,1.7c-.1,.34-.15,.71-.15,1.08,0,2.23,1.8,4.04,4.02,4.04s4.02-1.81,4.02-4.04-1.8-4.04-4.02-4.04c-.8,0-1.55,.24-2.18,.65l-3.41-2.43-2.36-1.68c.03-.21,.06-.42,.06-.65,0-.49-.09-.95-.25-1.39l2.55-1.82,3.41-2.43Z"/></g></g></svg>