<?xml version="1.0" encoding="UTF-8"?>
<svg xmlns="http://www.w3.org/2000/svg" width="41.05" height="47.23" viewBox="0 0 41.05 47.23">
  <defs>
    <style>
      .cls-1 {
        fill: #fff;
      }
    </style>
  </defs>
  <g id="Layer_1" data-name="Layer 1"/>
  <g id="Layer_2" data-name="Layer 2">
    <g id="_層1" data-name="圖層1">
      <g>
        <path class="cls-1" d="M26.18,39.51h2.72c.14-.62,.42-1.24,.77-1.73h-3.49v1.73Z"/>
        <rect class="cls-1" x="19.2" y="37.79" width="6.14" height="3.45"/>
        <path class="cls-1" d="M33.58,28.26c-.7,0-1.33,.55-1.33,1.31s.56,1.31,1.33,1.31h4.61l-.98-2.62h-3.63Z"/>
        <path class="cls-1" d="M10.05,3.93c.7,0,1.33-.55,1.33-1.31s-.63-1.31-1.33-1.31-1.33,.55-1.33,1.31,.56,1.31,1.33,1.31Z"/>
        <path class="cls-1" d="M37.49,8.21c.98,0,1.75-.76,1.75-1.73s-.77-1.73-1.75-1.73-1.74,.76-1.74,1.73,.77,1.73,1.74,1.73Z"/>
        <path class="cls-1" d="M33.16,36.06c.98,0,1.88,.35,2.58,.9h3.49v-3.8l-.7-1.38h-4.96c-1.19,0-2.16-.97-2.16-2.14s.98-2.14,2.16-2.14h3.28l-.98-2.62h-6.21v12.08h.91c.7-.62,1.61-.9,2.58-.9Zm-.42-2.62h.91c.21,0,.42,.21,.42,.41s-.21,.41-.42,.41h-.91c-.21,0-.42-.21-.42-.41s.14-.41,.42-.41Z"/>
        <path class="cls-1" d="M18.29,39.51v-1.73h-5.24c.35,.48,.63,1.1,.77,1.73h4.47Z"/>
        <path class="cls-1" d="M40.14,37.79h-3.49c.35,.48,.63,1.1,.77,1.73h2.72c.49,0,.91-.41,.91-.9s-.42-.83-.91-.83Z"/>
        <path class="cls-1" d="M2.58,39.51h2.72c.14-.62,.42-1.24,.77-1.73H2.58c-.49,0-.91,.41-.91,.9s.42,.83,.91,.83Z"/>
        <path class="cls-1" d="M39.02,43.65h-4.75c1.4-.48,2.37-1.73,2.37-3.31,0-1.93-1.54-3.45-3.49-3.45s-3.49,1.52-3.49,3.45c0,1.52,.98,2.83,2.37,3.31H10.68c1.4-.48,2.37-1.73,2.37-3.31,0-1.93-1.54-3.45-3.49-3.45s-3.49,1.52-3.49,3.45c0,1.52,.98,2.83,2.37,3.31H2.63c-.21,0-.42,.21-.42,.41s.21,.41,.42,.41H38.95c.21,0,.42-.21,.42-.41s-.14-.41-.35-.41Zm-5.86-4.14c.49,0,.91,.41,.91,.9s-.42,.9-.91,.9-.91-.41-.91-.9,.42-.9,.91-.9Zm-23.59,0c.49,0,.91,.41,.91,.9s-.42,.9-.91,.9-.91-.41-.91-.9,.42-.9,.91-.9Z"/>
        <path class="cls-1" d="M22.27,5.18c.5,0,.91,.4,.91,.9s-.41,.9-.91,.9-.91-.4-.91-.9,.41-.9,.91-.9Z"/>
        <path class="cls-1" d="M37.97,.83c.5,0,.91,.4,.91,.9s-.41,.9-.91,.9-.91-.4-.91-.9,.41-.9,.91-.9Z"/>
        <path class="cls-1" d="M30.99,4.28c.5,0,.91,.4,.91,.9s-.41,.9-.91,.9-.91-.4-.91-.9,.41-.9,.91-.9Z"/>
        <path class="cls-1" d="M14.38,0c.5,0,.91,.4,.91,.9s-.41,.9-.91,.9-.91-.4-.91-.9,.41-.9,.91-.9Z"/>
        <path class="cls-1" d="M3.91,4.28c.5,0,.91,.4,.91,.9s-.41,.9-.91,.9-.91-.4-.91-.9,.41-.9,.91-.9Z"/>
        <path class="cls-1" d="M17.03,6.49h2.65c.21,0,.42-.21,.42-.41s-.21-.41-.42-.41h-2.65c-.21,0-.42,.21-.42,.41-.07,.21,.14,.41,.42,.41Z"/>
        <path class="cls-1" d="M20.66,46.4H.42c-.21,0-.42,.21-.42,.41s.21,.41,.42,.41H20.66c.21,0,.42-.21,.42-.41s-.21-.41-.42-.41Z"/>
        <g>
          <rect class="cls-1" x="15.67" y="19.84" width="3.97" height="11.6"/>
          <rect class="cls-1" x="8.59" y="19.84" width="5.22" height="11.6"/>
          <path class="cls-1" d="M21.42,12.69c.37-.37,.58-.71,.58-1.17,0-1.33-1.12-1.76-1.82-1.64-1.85,.3-1.78,3.25-1.78,3.53,.28,0,2.33-.02,3.03-.71Z"/>
          <rect class="cls-1" x="21.39" y="19.84" width="5.22" height="11.6"/>
          <polygon class="cls-1" points="14.94 18.14 20.16 18.14 26.73 18.14 28.72 18.14 28.72 14.7 6.48 14.7 6.48 18.14 8.47 18.14 14.94 18.14"/>
          <path class="cls-1" d="M16.99,13.4c0-.28,.12-2.17-.66-2.97-.28-.28-.58-.46-1.14-.46-1.48,0-2.28,1.98-.93,2.87,.89,.62,2.45,.56,2.73,.56Z"/>
        </g>
        <rect class="cls-1" x="-.71" y="29.56" width="10.28" height="2.52" rx="1.26" ry="1.26" transform="translate(35.25 26.39) rotate(90)"/>
        <rect class="cls-1" x="0" y="33.96" width="30.71" height="2" rx="1" ry="1"/>
        <rect class="cls-1" x="27.6" y="21.69" width="10.34" height="1.73" rx=".86" ry=".86"/>
      </g>
    </g>
  </g>
</svg>