<?xml version="1.0" encoding="UTF-8"?>
<svg id="Layer_1" xmlns="http://www.w3.org/2000/svg" xmlns:xlink="http://www.w3.org/1999/xlink" version="1.1" viewBox="0 0 154 87.1">
  <!-- Generator: Adobe Illustrator 29.1.0, SVG Export Plug-In . SVG Version: 2.1.0 Build 142)  -->
  <defs>
    <style>
      .st0, .st1, .st2 {
        fill: none;
      }

      .st1 {
        clip-path: url(#clippath-2);
      }

      .st3 {
        fill: url(#linear-gradient2);
      }

      .st4 {
        fill: url(#linear-gradient1);
      }

      .st5 {
        fill: url(#linear-gradient3);
      }

      .st6 {
        fill: #040403;
        opacity: .1;
      }

      .st6, .st7 {
        isolation: isolate;
      }

      .st2 {
        clip-path: url(#clippath);
      }

      .st8 {
        fill: url(#linear-gradient);
      }

      .st9 {
        mix-blend-mode: multiply;
      }

      .st10 {
        clip-path: url(#clippath-1);
      }

      .st11 {
        clip-path: url(#clippath-3);
      }

      .st12 {
        fill: #fff;
      }
    </style>
    <linearGradient id="linear-gradient" x1="2.1" y1="42.5" x2="99.7" y2="42.5" gradientUnits="userSpaceOnUse">
      <stop offset="0" stop-color="#f9e0ac"/>
      <stop offset="1" stop-color="#f9b653"/>
    </linearGradient>
    <linearGradient id="linear-gradient1" x1="90" x2="126.1" xlink:href="#linear-gradient"/>
    <linearGradient id="linear-gradient2" x1="0" y1="46.3" x2="97.6" y2="46.3" gradientTransform="translate(0 88.8) scale(1 -1)" gradientUnits="userSpaceOnUse">
      <stop offset="0" stop-color="#f9b653"/>
      <stop offset="1" stop-color="#f9e0ac"/>
    </linearGradient>
    <linearGradient id="linear-gradient3" x1="87.9" x2="124" xlink:href="#linear-gradient2"/>
    <clipPath id="clippath">
      <polygon class="st0" points="73.8 .2 74 .2 73.8 .5 73.8 .2"/>
    </clipPath>
    <clipPath id="clippath-1">
      <polygon class="st2" points="73.3 -.2 73.1 -.2 73.3 -.5 73.3 -.2"/>
    </clipPath>
    <clipPath id="clippath-2">
      <polygon class="st0" points="-21.4 0 -20.4 0 -21.4 1 -21.4 0"/>
    </clipPath>
    <clipPath id="clippath-3">
      <polygon class="st1" points="-23.4 -2 -24.4 -2 -23.4 -3 -23.4 -2"/>
    </clipPath>
  </defs>
  <g class="st7">
    <g id="Layer_2">
      <g id="Layer_1-2">
        <g>
          <g>
            <path class="st6" d="M112.7,29.7h-22c9,0,16.3,7,16.3,15.6s-7.3,15.6-16.3,15.6h22c9,0,16.3-7,16.3-15.6s-7.3-15.6-16.3-15.6Z"/>
            <path class="st6" d="M19.1,60.9h67.1c9,0,16.3-7,16.3-15.6s-7.3-15.6-16.3-15.6H19.1c-9,0-16.3,7-16.3,15.6s7.3,15.6,16.3,15.6Z"/>
            <g>
              <g>
                <path class="st8" d="M99.7,42.5c0,8.6-7.3,15.6-16.3,15.6H18.4c-9,0-16.3-7-16.3-15.6s7.3-15.6,16.3-15.6h65c9,0,16.3,7,16.3,15.6Z"/>
                <path class="st4" d="M109.8,26.9h-19.8c9,0,16.3,7,16.3,15.6s-7.3,15.6-16.3,15.6h19.8c9,0,16.3-7,16.3-15.6s-7.3-15.6-16.3-15.6Z"/>
              </g>
              <g>
                <g>
                  <path class="st3" d="M97.6,42.5c0,8.6-7.3,15.6-16.3,15.6H16.3c-9,0-16.3-7-16.3-15.6s7.3-15.6,16.3-15.6h65c9,0,16.3,7,16.3,15.6Z"/>
                  <path class="st5" d="M107.7,26.9h-19.8c9,0,16.3,7,16.3,15.6s-7.3,15.6-16.3,15.6h19.8c9,0,16.3-7,16.3-15.6s-7.3-15.6-16.3-15.6Z"/>
                </g>
                <g class="st9">
                  <g class="st10">
                    <image class="st7" width="335" height="363" transform="translate(33.4 -43.6) scale(.2)" xlink:href="stream-title_1-1.png"/>
                  </g>
                </g>
                <path class="st12" d="M116.6,41.9c-2.1-2.2-4.3-4.3-6.4-6.5-.8-.8-2.1.4-1.2,1.2,1.9,2,3.9,3.9,5.8,5.9-1.9,2-3.9,3.9-5.8,5.9-.8.8.4,2.1,1.2,1.2,2.1-2.2,4.3-4.3,6.4-6.5.3-.3.3-.9,0-1.2h0Z"/>
              </g>
            </g>
          </g>
          <g>
            <g class="st9">
              <g class="st11">
                <image class="st7" width="144" height="88" transform="translate(-94.4 -45)" xlink:href="stream-title_1-2.png"/>
              </g>
            </g>
            <g>
              <path class="st12" d="M19.7,38.2h3.3c0,0,.1-.2.2-.4.2-.3.4-.7.5-1h-6c-.4,0-.5-.2-.4-.6.1-.4.4-.6.7-.6h6.3c.2-.4.4-.7.5-1,.2-.3.4-.4.6-.4.5,0,.6.2.5.6,0,.1-.1.2-.2.4,0,.2-.1.3-.2.5h5.9c.4,0,.5.2.4.6s-.4.6-.7.6h-6.2c-.2.4-.5.9-.7,1.3h4.2c.7,0,1,.3.8,1l-2.2,8.3h1.6c.4,0,.5.2.4.6-.1.4-.4.6-.7.6h-14.1c-.4,0-.5-.2-.4-.6.1-.4.4-.6.7-.6h1.6l2.2-8.3c.2-.7.6-1,1.3-1h0ZM17.4,47.5h8.4l.4-1.4h-8.4s-.4,1.4-.4,1.4ZM18.1,45.2h8.4l.3-1.3h-8.4s-.3,1.3-.3,1.3ZM18.7,42.9h8.4l.3-1.3h-8.4l-.3,1.3ZM19.3,40.7h8.4l.2-1c0-.3,0-.4-.3-.4h-7.7c-.2,0-.3.1-.4.4l-.2,1h0Z"/>
              <path class="st12" d="M38.4,37.2c.4,0,.5.2.4.6-.1.4-.3.6-.7.6h-.8l-.7,2.8c.3-.2.6-.4.9-.6h.2c.4,0,.5.2.4.6,0,.1-.2.3-.3.4-.4.3-.9.6-1.6,1l-1.4,5.2c-.2.9-.9,1.4-2,1.4s-.4,0-.7-.2c-.3,0-.4-.3-.3-.6.1-.4.3-.6.6-.6,0,0,0,0,.1,0,.3.1.5.2.6.2.3,0,.5-.2.6-.5l1.2-4.3c-.3.2-.7.3-1,.4-.1,0-.2,0-.3,0-.4,0-.5-.2-.4-.6,0-.3.3-.6.6-.6.5-.2,1-.4,1.4-.6l.9-3.5h-1c-.4,0-.5-.2-.4-.6,0-.4.3-.6.7-.6h1l.6-2.2c.1-.4.3-.6.7-.6s.5.2.4.6l-.6,2.2h.8,0ZM39.6,42.5h6.4c.6,0,.9.3.7.9l-1.2,4.6c-.2.6-.6.9-1.2.9h-6.4c-.6,0-.9-.3-.7-.9l1.2-4.6c.2-.6.6-.9,1.2-.9ZM48.8,34.5c.3,0,.5.2.3.6,0,.3-.3.5-.8.5-.8.1-1.9.2-3.2.3l-.6,2.2h.7c.2-.2.3-.3.5-.5.3-.4.7-.8,1-1.2.2-.2.3-.2.6-.2s.3,0,.3.1c0,0,0,.2,0,.4,0,.1,0,.2-.2.4-.2.3-.5.5-.7.8,0,0-.1.1-.2.2h1.8c.3,0,.5.2.4.5,0,.3-.3.5-.6.5h-3.5c.3.3.8.7,1.2,1,.8.5,1.5.9,2.2,1.2.2.1.3.3.2.6,0,.1-.1.3-.2.4s-.3.2-.5.2-.3,0-.4-.1c-.6-.3-1.1-.7-1.7-1.1-.5-.3-.9-.7-1.3-1.2l-.5,1.7c0,.4-.3.6-.8.6s-.5-.2-.4-.6l.5-1.8c-.5.4-1,.7-1.5,1-.8.5-1.8,1-3,1.5-.2,0-.3,0-.3,0-.3,0-.4-.2-.3-.6,0-.2.2-.4.5-.5,1.3-.5,2.4-1,3.2-1.5.4-.2.9-.5,1.3-.8h-3.7c-.3,0-.5-.2-.4-.5,0-.3.3-.5.6-.5h2c0-.1-.1-.2-.2-.3-.1-.1-.2-.3-.4-.4,0-.1-.1-.3,0-.4,0-.3.3-.5.6-.5s.2,0,.4,0c.1.2.3.3.4.5.2.2.3.5.5.8,0,.2,0,.3,0,.3h.9l.6-2.2c-1.8.1-3,.2-3.7.2s-.6-.2-.5-.6c0-.3.3-.5.7-.5,1.4,0,2.7,0,4-.1,1.5,0,3-.2,4.3-.5h0ZM40.8,47.9l.5-1.8h-2.5l-.4,1.3c0,.3,0,.5.2.5h2.1ZM39.1,45.1h2.5l.5-1.6h-2.1c-.2,0-.4.1-.5.4l-.3,1.2h0ZM44,47.9c.2,0,.4-.2.5-.5l.4-1.3h-2.3l-.5,1.8h2,0ZM43.2,43.5l-.5,1.6h2.3l.3-1.2c0-.3,0-.4-.2-.4h-1.9Z"/>
              <path class="st12" d="M52.3,43.7h3c.7,0,1,.3.8,1l-.8,3.1c-.2.7-.7,1.1-1.4,1.1h-3c-.7,0-1-.4-.8-1.1l.8-3.1c.2-.7.6-1,1.4-1ZM53.6,47.8c.3,0,.5-.2.6-.5l.5-2c0-.3,0-.5-.3-.5h-1.9c-.3,0-.5.2-.6.5l-.5,2c0,.3,0,.5.3.5h1.9ZM56.4,41.5c.3,0,.5.2.4.5,0,.4-.3.6-.7.6h-4c-.3,0-.5-.2-.4-.6,0-.3.3-.5.7-.5h4ZM58.1,36.9c.4,0,.5.2.4.6,0,.4-.3.6-.7.6h-5c-.4,0-.5-.2-.4-.6,0-.4.3-.6.8-.6h5ZM57,39.2c.3,0,.5.2.4.5,0,.4-.3.6-.7.6h-4c-.3,0-.5-.2-.4-.6,0-.3.3-.5.7-.5h4,0ZM58,34.8c.3,0,.5.2.4.5,0,.4-.3.6-.7.6h-3.8c-.3,0-.5-.2-.4-.6,0-.3.3-.5.7-.5h3.8,0ZM58.5,41h6.4c.6,0,.8.3.7.8,0,.2-.3.6-.7,1.1-.8,1-1.7,1.9-2.5,2.7-.3.3-.6.5-.9.8.1.1.3.3.4.4.5.5,1.2.9,2.2,1.3.2.1.3.3.2.5-.1.5-.4.7-.8.7s-.3,0-.6-.2c-.8-.4-1.5-.9-2.1-1.4-.2-.2-.4-.3-.6-.5-.2,0-.3.2-.5.3-1.2.7-2.3,1.3-3.3,1.6-.4.2-.7.2-.8.2-.5,0-.6-.2-.5-.7,0-.3.3-.5.7-.6,1-.3,1.9-.7,2.5-1,.4-.2.8-.4,1.2-.7-.2-.2-.3-.5-.5-.8-.4-.8-.6-1.9-.6-3.5h-.3c-.3,0-.5-.2-.4-.6,0-.3.3-.5.7-.5h0ZM61.6,34.6h3.1c.8,0,1.1.4.9,1.2l-.8,3.1c0,.1,0,.2,0,.3,0,0,.2,0,.5,0s.3,0,.4-.1c0,0,.1-.2.2-.5l.3-1c0-.3.3-.4.6-.4.4,0,.5.2.4.6-.2.7-.4,1.3-.6,1.6-.2.3-.4.5-.6.7-.2.2-.5.2-.8.2h-.8c-.8,0-1.1-.4-.9-1.2l.8-3.2c0-.1,0-.2-.4-.2h-2c-.3,0-.4,0-.4.2l-.4,1.5c-.2.7-.4,1.2-.8,1.7-.4.5-.8.9-1.3,1.3-.3.2-.5.3-.7.3-.4,0-.5-.2-.4-.6,0-.2.2-.3.3-.4.6-.4,1-.8,1.2-1,.2-.3.5-.8.6-1.3l.4-1.4c.2-.8.6-1.2,1.2-1.2h0ZM59.7,42c0,1.1.3,2,.7,2.7.1.3.2.5.4.7.1,0,.3-.2.4-.3.8-.7,1.7-1.5,2.5-2.6.2-.3.4-.5.4-.6,0,0-4.4,0-4.4,0Z"/>
              <path class="st12" d="M70.6,46.7c-.6.8-1.3,1.5-2.2,2.2-.2.2-.4.3-.6.3-.5,0-.6-.2-.5-.7,0,0,0-.2.2-.4,1.3-.9,2.3-2,3-3.2.5-.9.9-1.9,1.2-3,0-.3.3-.5.7-.5s.5.2.4.6c-.3,1.2-.8,2.3-1.3,3.4,0,.1-.1.3-.2.4.2.4.5.7.9.9.5.4,1.2.6,2.1.8l2-7.5h-3.8c-.4,0-.5-.2-.4-.6,0-.4.3-.6.7-.6h8.6c.4,0,.5.2.4.6,0,.4-.3.6-.8.6h-3.6l-.8,2.9h4.7c.4,0,.5.2.4.6,0,.4-.3.6-.7.6h-4.7l-1,3.6c1.2.1,3.4.2,6.4.2.3,0,.5.3.4.6-.1.3-.4.5-.8.6-4.1,0-6.7-.2-7.9-.5-.9-.2-1.6-.6-2.1-1-.3-.2-.6-.5-.8-.8h0ZM78.4,34.1c.4,0,.6.2.5.6l-.2.9h5.3c.5,0,.8.2.9.5.1.2.1.6,0,1.2-.1.5-.3,1.1-.5,1.7-.2.3-.5.5-.8.5s-.6-.2-.4-.6c.3-.8.5-1.3.5-1.5,0-.4,0-.6-.3-.6h-10.8c-.3,0-.5.2-.6.5l-.3,1.3c0,.4-.4.6-.8.6s-.5-.2-.4-.6l.5-1.8c.2-.8.7-1.2,1.4-1.2h5.2l.2-.9c.1-.4.4-.6.8-.6h0Z"/>
            </g>
          </g>
        </g>
      </g>
    </g>
  </g>
</svg>