<?xml version="1.0" encoding="UTF-8"?>
<svg id="Layer_1" xmlns="http://www.w3.org/2000/svg" version="1.1" viewBox="0 0 104 37">
  <!-- Generator: Adobe Illustrator 29.1.0, SVG Export Plug-In . SVG Version: 2.1.0 Build 142)  -->
  <defs>
    <style>
      .st0 {
        fill: #f4c57a;
      }

      .st1 {
        fill: #fff;
      }

      .st2 {
        fill: #f9b653;
      }
    </style>
  </defs>
  <g id="Layer_2">
    <g id="_層_1">
      <g>
        <polygon class="st2" points="99.6 2 103.6 12 96.6 12 99.6 2"/>
        <g>
          <path class="st0" d="M86.9,32H7.3c-3.3,0-5.8-3.2-4.8-6.4L9.6,2h90l-7.9,26.4c-.6,2.1-2.6,3.6-4.8,3.6Z"/>
          <g>
            <path class="st1" d="M20.4,9.2c.6,0,.9.3.7.8l-1.2,4.4c-.2.7-.6,1.1-1.2,1.1h-3.6l-2.4,8.9c-.1.5-.5.7-1.1.7-.6,0-.8-.3-.7-.7l3.9-14.4c.2-.6.6-.9,1.2-.9h4.5ZM16.9,16.5h6.9c.3,0,.4,0,.5.2,0,0,0,.3,0,.5,0,.2-.1.4-.2.5-.1.1-.4.2-.6.2h-1l-.5,2h1.4c.3,0,.5,0,.6.2s0,.3,0,.6c0,.2-.2.4-.3.5-.2.2-.4.2-.7.2h-1.4l-.8,2.8c0,.3-.2.5-.3.6-.2.1-.4.2-.6.2s-.4,0-.5-.2c0-.1-.1-.3,0-.6l.8-2.8h-1.9s0,0,0,.1c-.5,1.2-1.3,2.2-2.1,3-.4.3-.8.4-1.2.4-.3,0-.5,0-.6-.2,0-.1,0-.3,0-.4,0-.2.1-.4.3-.5.9-.8,1.6-1.5,2.1-2.4h-1.1c-.3,0-.4,0-.6-.2,0-.1,0-.3,0-.6,0-.3.2-.5.3-.6.2-.1.4-.2.6-.2h1.4c.2-.5.4-1.2.6-2h-1.2c-.2,0-.4,0-.5-.2,0,0-.1-.3,0-.5,0-.2.2-.4.3-.5.2-.1.4-.2.6-.2h0ZM15.5,14.1h2.7l.3-1h-2.7l-.3,1ZM16.2,11.7h2.7l.2-.9h-2.7l-.2.9ZM20.4,19.9l.5-2h-1.6c-.2.6-.3,1.1-.5,1.5,0,.2,0,.3-.1.4h1.7ZM28.6,9.1c.8,0,1.1.3.9.9l-3.6,13.4c-.3,1.1-1,1.6-2,1.6-.7,0-1.2,0-1.5-.2-.4-.2-.6-.5-.5-.8,0-.3.2-.5.3-.7.2-.2.5-.4.7-.4s.2,0,.3,0c.3.1.5.2.7.2s.2,0,.2-.2l2-7.6h-3.7c-.5,0-.7-.3-.5-.9l1.2-4.6c.1-.6.5-.9,1.1-.9h4.4ZM26.6,14l.3-1h-2.7l-.3,1h2.7ZM24.5,11.6h2.7l.2-.9h-2.7l-.2.9Z"/>
            <path class="st1" d="M33.7,12.3h1l.7-2.8c.1-.5.5-.8,1-.8.6,0,.8.3.7.8l-.7,2.8h.8c.3,0,.5,0,.6.2.1.1.1.4,0,.7,0,.3-.2.5-.3.6-.2.2-.5.3-.8.3h-.8l-.8,3.2c.1,0,.2-.1.4-.2.2-.1.3-.2.5-.2,0,0,.1,0,.2,0,0-.2.2-.4.5-.6,1.6-.6,2.9-1.1,3.7-1.7h-2.1c-.2,0-.4,0-.5-.2,0-.1,0-.3,0-.5,0-.2.2-.4.3-.6.2,0,.3-.1.6-.1h.7c-.1-.3-.2-.6-.4-.9,0-.1,0-.2,0-.3,0-.2.2-.4.5-.6.2,0,.4-.1.5-.1.1,0,.3,0,.4.2.1,0,.2.3.4.5.2.5.4.9.3,1.2h1.1l.6-2.3c-1,0-2.1.1-3.2.2-.5,0-.6-.4-.5-.9.1-.3.4-.5.9-.6,2.8,0,5.4-.3,7.9-.7.2,0,.3,0,.4,0,.2,0,.4,0,.5.2,0,.2,0,.4,0,.5,0,.3-.3.6-.7.7-.7.1-1.8.3-3.4.5l-.7,2.5h1.1c0,0,0-.1.1-.2.7-.7,1.2-1.3,1.5-1.8,0-.1.2-.2.2-.2.1,0,.2,0,.3,0,.2,0,.4,0,.6.2.2.1.2.3.2.5,0,.1-.1.3-.3.5-.3.4-.6.8-.9,1.1h1.3c.2,0,.4,0,.5.1,0,0,0,.3,0,.6,0,.2-.1.4-.2.5-.2.2-.4.2-.7.2h-2.8c.8.6,1.9,1.2,3.1,1.7.1.2.2.4.1.6,0,.3-.2.5-.5.6-.2.1-.4.2-.8.2-.5,0-.9-.2-1.3-.5-.8-.6-1.5-1.3-2.2-2.1l-.5,1.9c0,.3-.2.5-.4.6h2.9c.9,0,1.3.5,1,1.4l-1.1,4.2c-.2.9-.8,1.4-1.8,1.4h-7c-.9,0-1.3-.5-1-1.4l1.1-4.2c.2-.9.8-1.4,1.8-1.4h2.8c-.1-.1-.1-.3,0-.6l.5-1.9c-1.2,1-2.5,1.8-3.9,2.3-.2,0-.5.1-.7.1-.1,0-.2,0-.3,0,0,0,0,.2,0,.2,0,.2-.2.5-.4.6-.5.3-1,.6-1.7,1l-1.2,4.3c-.1.5-.3.8-.6,1-.3.2-.7.4-1.1.4h-1c-.3,0-.6-.2-.7-.4,0-.1-.1-.3,0-.5,0-.3.2-.5.4-.6.2-.2.4-.3.8-.3h.4c.2,0,.3,0,.4-.2l.8-2.9c-.3,0-.6.1-.8.1-.6,0-.9-.3-.8-.9.1-.5.4-.7.9-.8.4-.1.9-.3,1.2-.4l1.1-4.1h-1c-.2,0-.4,0-.5-.2-.1-.1-.2-.4,0-.7,0-.4.2-.6.5-.8.2-.1.4-.2.6-.2h0ZM39.5,23.2l.4-1.3h-2.2l-.3,1.1c0,.2,0,.3.2.3h2ZM37.9,20.5h2.2l.3-1.3h-2c-.2,0-.3,0-.3.3l-.3,1h0ZM43.2,23.2c.2,0,.3,0,.3-.3l.3-1.1h-2.4l-.4,1.3h2.1,0ZM42.2,19.3l-.3,1.3h2.4l.3-1c0-.2,0-.3-.2-.3h-2.1Z"/>
            <path class="st1" d="M65.3,16.8c.3,0,.6,0,.7.2.1.1.2.3,0,.6-.1.5-.5,1-1.1,1.7-1.1,1.2-2.5,2.3-4.2,3.1-2.1,1-4.5,1.8-7.2,2.3-1.3.2-2.4.4-3.5.4s-.6,0-.7-.2c-.1-.2-.1-.4,0-.6,0-.4.3-.6.7-.8,4.2-.4,7.5-1.2,10-2.4,2-.9,3.4-2.1,4.1-3.5,0-.3.2-.5.4-.6.2-.1.4-.2.7-.2h0ZM54.9,16.7c.3,0,.5,0,.7.2.2.1.2.4.2.7,0,.2-.2.5-.5.8-1,1.2-1.8,2-2.3,2.4-.3.4-.7.6-1,.6s-.5,0-.7-.2c-.2-.1-.2-.4-.2-.7,0-.1.2-.3.4-.5,1-.9,1.8-1.8,2.7-2.8,0-.1.2-.2.3-.3.1,0,.2-.1.4-.1h0ZM62.3,8.8c.3,0,.6,0,.7.2.2.2.2.4.1.6l-.3,1.1h4.6c.3,0,.5,0,.6.2.1.1.1.3,0,.7,0,.2-.2.4-.3.6-.2.2-.4.3-.8.3h-4.6l-.5,2h5.2c.3,0,.5,0,.6.2,0,.1.1.3,0,.6,0,.3-.2.5-.3.6-.2.2-.4.3-.8.3h-5l-1,3.8c-.3.9-1.3,1.3-3.2,1.3-.2,0-.4,0-.6,0-.2,0-.3,0-.5-.2-.1,0-.2-.2-.3-.4,0-.2,0-.3,0-.5,0-.3.3-.5.6-.6.4-.2,1-.3,1.9-.3s.2,0,.2-.2l.8-3h-7.3c-.3,0-.5,0-.6-.2,0-.1-.1-.4,0-.7,0-.3.2-.5.4-.7.2-.1.4-.2.7-.2h2.1l1-3.7c0-.2.2-.4.4-.6.2-.1.4-.2.7-.2s.5,0,.6.2c.2.1.2.3.1.6l-1,3.7h3.1l1.3-4.8c0-.2.2-.4.4-.6.2-.1.4-.2.8-.2h0Z"/>
            <path class="st1" d="M70.6,19.7c.2,0,.3,0,.4,0,0,0,.1.2,0,.4,0,0,0,.2-.2.5-.6,1.5-1,2.6-1.4,3.5-.1.2-.3.3-.6.4-.2,0-.4,0-.5-.2,0-.1,0-.2,0-.4,0,0,.1-.3.3-.7.3-.7.7-1.7,1.3-3.1.2-.3.3-.4.6-.4h0ZM71.8,19.8c.3,0,.4,0,.5.3-.2,1.1-.5,2.4-.8,3.9,0,.3-.3.5-.8.5-.3,0-.4-.2-.4-.4.4-1.4.7-2.5.9-3.5,0-.2,0-.3,0-.3,0-.3.2-.4.6-.4h0ZM78.7,9.4c.4,0,.6.3.5.8-.2.5-.5.7-.9.8h-1.2l-.4,1.3h1c.3,0,.4,0,.5.1,0,0,0,.3,0,.6,0,.2-.1.4-.2.5-.2.2-.4.2-.7.2h-1l-.3,1.2h.9c.3,0,.4,0,.5.2,0,.1,0,.3,0,.5,0,.2-.1.4-.2.5-.2.2-.4.2-.7.2h-.9l-.3,1.2h.6c.6,0,1,0,1.2.3.2.1.2.5,0,1.1-.3,1.1-.6,2.2-1,3.2-.3,1-.7,1.8-1.2,2.2-.4.5-1.1.8-1.8.8s-.8,0-1.1-.3c-.1-.1-.2-.3-.2-.6,0-.3.2-.5.4-.7-.3,0-.4-.1-.4-.4.3-1.1.4-2,.6-2.7,0-.1,0-.2,0-.3,0-.3.2-.4.5-.4.3,0,.4,0,.5.3,0,.9-.2,2-.5,3.1,0,0,0,0,0,.1h0s0,0,.2,0c.2,0,.4.1.7.1.2,0,.4-.2.6-.6.2-.6.6-1.8,1.1-3.5,0-.2,0-.3-.3-.3h-3.6c-.7,0-.9-.5-.7-1.4l1.9-7.3c.2-.6.6-1,1.3-1,0,0,4.6,0,4.6,0ZM73.8,17.5l.3-1.2h-1.3l-.2.9c0,.2,0,.3.1.3h1.1ZM74.5,14.9l.3-1.2h-1.3l-.3,1.2h1.3ZM74.2,19.7c.2,0,.4,0,.4.3,0,.7,0,1.5-.3,2.4,0,.2-.3.3-.6.4-.2,0-.3-.1-.3-.4.2-.9.2-1.6.3-2.1,0-.1,0-.2,0-.2,0-.2.2-.3.5-.4h0ZM75.2,12.3l.4-1.3h-1.1c-.1,0-.2,0-.3.3l-.3,1.1h1.3,0ZM80.4,9.1h3.8c.2,0,.4,0,.5.2,0,0,0,.2,0,.4h0c.2-.1.3-.2.5-.2h2.3c.4,0,.7,0,.8.2.1.2.2.4,0,.8-.2.9-.7,1.8-1.2,2.7-.2.4-.5.7-.7,1,.1.4.2.7.3,1.1.1.3.2.5.1.8,0,.2-.2.4-.4.5-.2.1-.4.2-.7.2-.3,0-.5-.1-.5-.4,0-.3-.2-.5-.2-.8-.3.3-.6.5-.9.8-.4.3-.7.5-.9.5-.3,0-.5,0-.6-.2,0-.1,0-.3,0-.4,0-.2.1-.4.3-.5.7-.4,1.3-.9,1.8-1.4-.2-.5-.4-1-.6-1.4-.1-.3-.2-.5-.1-.6,0-.2.2-.4.4-.5.2-.1.4-.2.6-.2s.3,0,.4.3c.2.4.3.7.5,1.1.4-.6.7-1.2.9-1.9,0,0,0-.1-.2-.1h-1.8c-.2,0-.3,0-.4-.2,0-.1,0-.3,0-.5,0,0-.2.1-.3.2l-1.7,6.4c0,.2-.2.4-.3.5.9-.1,1.7-.2,2.4-.3.3,0,.5,0,.7,0s.4,0,.6.2c.1.2.1.4,0,.6,0,.2-.2.4-.4.6-.7.1-1.7.2-2.8.4l-1.3,4.9c.4-.6.8-1.2,1.2-1.8.4-.8.8-1.4,1-2,.2-.4.4-.6.8-.6s.4,0,.5,0c.2.1.3.4.2.7,0,.2-.2.6-.5,1.1,0,.2-.2.3-.3.5.2.6.5,1.1.8,1.7.2.1.2.3.1.6,0,.2-.2.4-.3.6-.2.2-.4.3-.7.3s-.6-.5-.8-1.5c-.4.7-.8,1.2-1.2,1.5-.2.2-.5.3-.8.3s-.3,0-.4-.1c0,0,0,0-.1-.1,0,0,0,0,0,0-.2.1-.4.2-.7.2s-.5,0-.6-.2c0,0-.1-.3,0-.5-.2.1-.4.2-.6.2s-.5-.5-.8-1.4c-.5.8-.9,1.3-1.3,1.6-.2.2-.5.3-.8.3-.2,0-.3,0-.4-.1-.2-.1-.2-.3-.2-.6,0,0,0-.2.2-.4.6-.7,1.1-1.3,1.5-2,.5-.8.8-1.4,1-1.9.2-.4.4-.6.8-.6s.4,0,.5,0c.2.1.3.4.2.7,0,.2-.2.6-.5,1.1,0,.1-.1.2-.2.4.2.5.4,1,.7,1.5,0,0,0,0,0,0l1.1-4.2c-1,0-1.9.1-2.6.1-.5,0-.7-.3-.6-.8,0-.4.3-.6.7-.6,1,0,1.9-.1,2.8-.2,0,0,0,0-.1,0,0-.1,0-.3,0-.5-1,.2-2,.3-2.8.4-.2,0-.4,0-.4-.1,0-.1-.1-.3,0-.6,0-.2.2-.4.3-.5.1-.1.3-.2.5-.2l1.4-5.3c-.1,0-.2,0-.3-.1,0,0,0-.3,0-.6,0-.2.2-.4.3-.5.2-.1.4-.2.6-.2h0ZM79.8,15.7c.5,0,1,0,1.4-.1l.2-.8h-1.4l-.2.9ZM80.4,13.5h1.4l.2-.8h-1.4l-.2.8ZM81,11.4h1.4l.2-.8h-1.4l-.2.8Z"/>
          </g>
        </g>
      </g>
    </g>
  </g>
</svg>