<?xml version="1.0" encoding="UTF-8"?>
<svg id="Layer_1" xmlns="http://www.w3.org/2000/svg" xmlns:xlink="http://www.w3.org/1999/xlink" version="1.1" viewBox="0 0 230 61">
  <!-- Generator: Adobe Illustrator 29.1.0, SVG Export Plug-In . SVG Version: 2.1.0 Build 142)  -->
  <defs>
    <style>
      .st0 {
        fill: url(#linear-gradient2);
      }

      .st1 {
        fill: url(#linear-gradient1);
      }

      .st2 {
        fill: url(#linear-gradient3);
      }

      .st3 {
        fill: #040403;
        opacity: .1;
      }

      .st3, .st4 {
        isolation: isolate;
      }

      .st5 {
        fill: url(#linear-gradient);
      }

      .st6 {
        fill: #fff;
      }
    </style>
    <linearGradient id="linear-gradient" x1="3.8" y1="28" x2="177.5" y2="28" gradientUnits="userSpaceOnUse">
      <stop offset="0" stop-color="#f9e0ac"/>
      <stop offset="1" stop-color="#f9b653"/>
    </linearGradient>
    <linearGradient id="linear-gradient1" x1="160.1" x2="224.9" xlink:href="#linear-gradient"/>
    <linearGradient id="linear-gradient2" x1="0" y1="34.8" x2="173.6" y2="34.8" gradientTransform="translate(0 62.8) scale(1 -1)" gradientUnits="userSpaceOnUse">
      <stop offset="0" stop-color="#f9b653"/>
      <stop offset="1" stop-color="#f9e0ac"/>
    </linearGradient>
    <linearGradient id="linear-gradient3" x1="156.3" x2="221.1" xlink:href="#linear-gradient2"/>
  </defs>
  <g class="st4">
    <g id="Layer_2">
      <g id="_圖層_1" data-name="圖層_1">
        <path class="st3" d="M200.8,5.1h-39.4c16.1,0,29.2,12.6,29.2,28s-13.1,28-29.2,28h39.4c16.1,0,29.2-12.6,29.2-28s-13.2-28-29.2-28Z"/>
        <path class="st3" d="M34.3,61h119c16.1,0,29.2-12.6,29.2-28s-13.1-28-29.2-28H34.3c-16.1,0-29.2,12.6-29.2,28s13.2,28,29.2,28Z"/>
        <path class="st5" d="M177.5,28c0,15.4-13.2,28-29.2,28H33c-16,0-29.2-12.7-29.2-28S17,0,33,0h115.2C164.3,0,177.5,12.6,177.5,28Z"/>
        <path class="st1" d="M195.7,0h-35.6C176.2,0,189.3,12.6,189.3,28s-13.1,28-29.2,28h35.6c16.1,0,29.2-12.6,29.2-28S211.8,0,195.7,0Z"/>
        <path class="st0" d="M173.6,28c0,15.4-13.2,28-29.2,28H29.2c-16.1,0-29.2-12.7-29.2-28S13.2,0,29.2,0h115.2C160.5,0,173.6,12.6,173.6,28Z"/>
        <path class="st2" d="M191.9,0h-35.6C172.4,0,185.5,12.6,185.5,28s-13.2,28-29.2,28h35.6c16.1,0,29.2-12.6,29.2-28S208,0,191.9,0Z"/>
        <path class="st6" d="M206.8,26.8c-3.8-3.9-7.7-7.8-11.5-11.6-1.4-1.5-3.7.8-2.2,2.2l10.4,10.6-10.4,10.5c-1.4,1.5.8,3.7,2.2,2.2,3.8-3.9,7.7-7.8,11.5-11.6.6-.6.6-1.6,0-2.3Z"/>
        <path class="st6" d="M47,18.3h2.1l1.3-4.9c.2-.8,1-1.4,1.9-1.3,1,0,1.4.4,1.2,1.3l-1.3,4.9h1.3c.4,0,.7,0,1,.3.2.2.2.5,0,1.1,0,.4-.3.8-.5,1.1-.4.3-.9.5-1.4.5h-1.3l-1.5,5.5c.2,0,.5-.2.7-.3.2-.2.5-.3.8-.3.4,0,.8,0,1,.4.2.4.3.8.1,1.2-.2.4-.4.8-.8,1-.9.6-1.8,1.1-2.8,1.6l-2,7.5c-.1.7-.5,1.3-1,1.8-.6.4-1.3.7-2,.8h-1.8c-.5,0-1-.2-1.3-.6-.1-.3-.2-.6,0-.9,0-.4.3-.8.6-1.2.4-.3.8-.5,1.3-.5h.8c.3,0,.5-.1.6-.3l1.3-5c-.6.2-1.3.3-1.9.4-1.1,0-1.5-.6-1.3-1.6.2-.7.8-1.3,1.5-1.5.9-.2,1.8-.5,2.6-.8l1.9-7h-2.1c-.3,0-.7,0-.9-.3-.2-.2-.3-.6,0-1.2,0-.5.3-.9.7-1.2.3-.2.7-.3,1.1-.2ZM63,12.3c.4,0,.8,0,1.1.3.3.2.3.6.2.9l-3.8,14c-.3,1.2-.7,2.4-1.2,3.5-.6,1.4-1.3,2.8-2.1,4-1.2,1.7-2.7,3.3-4.4,4.6-.4.3-.9.5-1.5.5-.3,0-.6-.2-.8-.5-.2-.3-.3-.7-.2-1.1,0-.3.2-.5.4-.7.3-.4.6-.7.9-.9,1.3-1.1,2.5-2.4,3.5-3.8l-1,.3c-.9.3-1.9.5-2.8.6-1,0-1.4-.6-1.1-1.8.3-.8,1.1-1.3,1.9-1.3,1.6-.2,3.1-.5,4.6-1,.3-.7.5-1.5.7-2.3l.2-.9h-2.9c-.4,0-.7,0-1-.4-.2-.4-.2-.8,0-1.2.1-.4.4-.8.7-1.1.3-.2.7-.3,1.1-.2h2.9l1.1-4h-3.3c-.5,0-.8-.1-1-.4-.2-.4-.2-.8,0-1.2,0-.5.3-.9.7-1.2.3-.2.7-.3,1.1-.3h3.3l.8-3.2c.1-.3.3-.6.6-.8.3-.3.8-.4,1.2-.4h0ZM68.6,12.3c.4,0,.8.1,1,.4.2.3.3.7.2,1l-.8,2.9h3.4c.5,0,.9.1,1,.3s.2.6,0,1.1c0,.4-.3.8-.6,1.1-.3.4-.8.5-1.3.5h-3.4l-1.1,4h3c.6,0,.9.1,1,.3s.2.5,0,1.1c0,.4-.2.8-.5,1.1-.4.4-.9.5-1.4.5h-3l-1.1,4.1h3.5c.5,0,.8.1,1,.3s.2.6,0,1.1c0,.4-.3.7-.5,1-.4.4-.8.6-1.3.5h-3.5l-1.3,5c0,.3-.3.7-.5.9-.4.4-.9.6-1.4.5-.4,0-.8-.2-1-.5-.2-.3-.2-.6,0-.9l6.7-25c.1-.4.4-.8.7-1,.3-.3.7-.5,1.2-.5h0Z"/>
        <path class="st6" d="M87.3,18.8c.4,0,.8.2,1.1.4.3.3.4.7.3,1,0,.3-.2.6-.4.9-1.1,1.3-2.3,2.5-3.6,3.5l-3.7,14c-.1.5-.4.9-.8,1.2-.4.3-.8.4-1.3.4-.5,0-.9-.1-1-.4-.3-.2-.3-.6-.2-1.2l2.8-10.3c-.6.5-1.2.9-1.8,1.3-.3.2-.8.4-1.2.4-.4,0-.7-.3-.9-.6-.3-.3-.3-.7-.2-1.1,0-.3.3-.6.5-.8.3-.4,2-1.8,4.9-4.3,2.7-2.2,4.3-3.5,4.8-3.9.2-.3.5-.4.8-.4ZM87.9,12.3c.4,0,.8.2,1.1.5.3.3.5.8.3,1.3,0,.2-.2.4-.4.6-1,1.2-2.2,2.2-3.5,3.1-1.4,1.3-3,2.5-4.7,3.5-.3.2-.8.4-1.2.4-.4,0-.7-.2-.9-.5-.3-.3-.3-.8-.2-1.2.1-.3.3-.6.5-.9.3-.3,1.7-1.4,4.2-3.3,2.2-1.7,3.6-2.7,4.1-3.1.2-.2.4-.4.7-.4ZM90.1,22.1h14.6c.4,0,.8,0,1.2.3.2.2.2.6,0,1.2,0,.4-.3.8-.6,1.1-.4.3-.9.5-1.4.5h-3.6l-3.2,12.2c-.2.7-.6,1.3-1.2,1.8-.6.4-1.4.7-2.2.8-1.3,0-2.6-.1-3.9-.5-1.1-.2-2.1-.6-2.9-1.3-.4-.2-.5-.7-.4-1.5.1-.9.8-1.6,1.7-1.8.3,0,.7.2,1,.3,1.3.8,2.8,1.2,4.3,1.3.3,0,.6-.2.6-.5l3-11h-7.8c-.4,0-.8-.1-1.1-.4-.2-.4-.2-.9,0-1.3.1-1,1-1.7,2-1.6h0ZM94,13.4h12.3c.4,0,.8,0,1.1.4.2.2.2.6,0,1.2,0,.4-.3.8-.6,1.1-.4.3-.9.5-1.4.5h-12.2c-.4,0-.8,0-1.1-.4-.2-.2-.2-.6,0-1.2.1-.5.3-.9.7-1.2.4-.2.8-.4,1.2-.4Z"/>
        <path class="st6" d="M117,27.6l-3,11.3c0,.4-.3.7-.6.9-.4.4-.9.6-1.4.5-.4,0-.8-.1-1-.5-.2-.3-.2-.7-.1-1l2.8-10.5c-.9,1.8-2,3.4-3.3,4.9-.4.3-.8.4-1.3.4-.3,0-.6-.1-.8-.4-.2-.3-.2-.7,0-1,.2-.6.4-1.2.8-1.7,2.4-3.2,4.6-6.5,6.6-10h-2.2c-.4,0-.7-.1-.9-.4-.2-.2-.3-.6,0-1.2,0-.5.3-.9.7-1.1.3-.2.7-.3,1.1-.3h2.4l1.1-4.2c.1-.4.4-.8.7-1.1.3-.2.7-.4,1.1-.4.4,0,.7.1,1,.4.2.3.3.7.2,1.1l-1.1,4.2h1.9c.4,0,.7,0,1,.3.2.2.2.5,0,1.1,0,.4-.3.8-.5,1.1-.4.4-.9.5-1.4.5h-1.9l-.3,1.2c.2,0,.4,0,.5.1.3.8.5,1.6.6,2.4.3,1.8.3,3.7,0,5.5,0,.3-.3.6-.5.9-.4.3-.8.4-1.2.4-.4,0-.7-.3-.8-.6v-2.8ZM129.5,23.6c.4,0,.9,0,1.2.3.3.3.4.7.2,1.1l-.4,1.3h5.9c.3,0,.7,0,.9.3.1.2.2.5,0,1.1,0,.3-.3.7-.5.9-.3.3-.7.4-1.2.4h-9c-.3.8-.6,1.6-1,2.4h7.9c.5,0,1.1.1,1.5.5.3.4.4,1,.2,1.5-.4,1.9-1.2,3.7-2.2,5.4-.9,1.1-2.3,1.7-3.7,1.6-2,0-3.3-.4-3.8-1-.3-.2-.4-.6-.4-1,.1-.4.3-.8.7-1,.3-.3.6-.4,1-.4.2,0,.4,0,.5.1.7.3,1.4.5,2.1.5.6,0,1.2-.3,1.5-.8.4-.7.7-1.5.9-2.4,0-.3,0-.5-.4-.5h-7.1s0,0,0,.1c-1.5,2.3-3.4,4.2-5.7,5.5-.5.3-1,.6-1.6.6-.5,0-.9-.2-1.2-.6-.2-.3-.3-.7-.2-1.1.1-.4.4-.8.7-1.1,1.9-1,3.5-2.3,4.9-3.9,1-1.4,1.8-2.9,2.3-4.6h-2.5c-.3,0-.7,0-.9-.3-.2-.2-.2-.5,0-1,.1-.4.3-.8.7-1.1.3-.2.6-.3,1-.3h5.1l.4-1.4c.1-.5.4-.9.8-1.1.4-.2.8-.3,1.3-.3h0ZM132.9,12.1c.4,0,.8,0,1.1.3.2.3.3.7.2,1.1l-.3,1h6.1c.3,0,.6,0,.8.3.2.1.2.5,0,1.1,0,.3-.2.6-.4.9-.3.3-.7.4-1.1.4h-2.3l-1.6,2.9h2.3c1.4,0,2,.7,1.6,2.2l-.6,2.2c0,.4-.3.8-.7,1-.4.3-.8.4-1.3.4-.6,0-1-.1-1.2-.5-.1-.3-.1-.7,0-1l.4-1.5c0-.2,0-.4-.4-.4h-10.8c-.2,0-.4.1-.5.4l-.4,1.5c0,.4-.3.7-.6,1-.4.3-.9.4-1.4.4-.4,0-.8,0-1.1-.3-.2-.3-.2-.8,0-1.1l.6-2.2c.2-1.3,1.4-2.3,2.8-2.2h2.1v-2.9h-2.2c-.3,0-.6,0-.8-.3-.2-.2-.2-.5,0-1,0-.4.3-.8.6-1.1.3-.2.7-.3,1-.2h5.7l.3-1c.1-.4.4-.8.8-1.1.4-.2.8-.3,1.3-.3h0ZM129.4,20.1h3l1.6-2.9h-4.8l.2,2.9Z"/>
      </g>
    </g>
  </g>
</svg>