<?xml version="1.0" encoding="UTF-8"?><svg xmlns="http://www.w3.org/2000/svg" xmlns:xlink="http://www.w3.org/1999/xlink" viewBox="0 0 45 20.87"><defs><style>.f{fill:url(#e);}.g{fill:url(#d);}.h{fill:#fff;}</style><linearGradient id="d" x1="3.99" y1="24.86" x2="34.68" y2="-5.84" gradientTransform="matrix(1, 0, 0, 1, 0, 0)" gradientUnits="userSpaceOnUse"><stop offset="0" stop-color="#960000"/><stop offset=".4" stop-color="#c80000"/><stop offset=".56" stop-color="#d00000"/><stop offset=".81" stop-color="#e90000"/><stop offset="1" stop-color="red"/></linearGradient><linearGradient id="e" x1="39.88" y1="5.49" x2="42.95" y2="2.42" gradientTransform="matrix(1, 0, 0, 1, 0, 0)" gradientUnits="userSpaceOnUse"><stop offset="0" stop-color="#960000"/><stop offset="1" stop-color="#c80000"/></linearGradient></defs><g id="a"/><g id="b"><g id="c"><g><polygon class="g" points="36.82 20.87 0 20.87 0 0 40.52 0 36.82 20.87"/><g><path class="h" d="M9.67,6.52h-1.52V14.65c0,.52-.27,.78-.8,.78-.5,0-.75-.27-.75-.8V6.52h-1.46c-.47,0-.71-.23-.71-.7s.24-.69,.71-.69h4.56c.42,0,.63,.24,.63,.71,0,.45-.22,.67-.66,.67Z"/><path class="h" d="M14.66,15.44c-2.12,0-3.18-1.76-3.18-5.27s1.06-5.29,3.18-5.29,3.18,1.75,3.18,5.25-1.06,5.31-3.18,5.31Zm0-9.22c-1.09,0-1.63,1.31-1.63,3.94s.54,3.92,1.63,3.92,1.63-1.32,1.63-3.96-.55-3.9-1.63-3.9Z"/><path class="h" d="M23.01,11.41h-1.5v3.3c0,.48-.26,.73-.78,.73-.47,0-.71-.25-.71-.74V6.12c0-.66,.33-.99,1-.99h1.99c.99,0,1.75,.28,2.27,.84,.52,.55,.78,1.33,.78,2.32s-.26,1.75-.79,2.29c-.52,.55-1.27,.82-2.25,.82Zm-.29-4.89h-1.21v3.52h1.5c.47,0,.84-.18,1.09-.53,.22-.32,.33-.72,.33-1.21,0-.61-.13-1.06-.4-1.34-.26-.29-.7-.44-1.32-.44Z"/><path class="h" d="M33.04,9.38c-.7,.98-1.47,1.94-2.29,2.87-.46,.5-.79,1.02-1,1.57h3.11c.47,0,.7,.22,.7,.67s-.25,.69-.74,.69h-3.56c-.68,0-1.02-.32-1.02-.96,0-.85,.33-1.67,1-2.47,.8-.96,1.51-1.85,2.12-2.66,.43-.58,.65-1.12,.65-1.63,0-.81-.37-1.21-1.12-1.21-.62,0-.99,.45-1.13,1.36-.06,.34-.14,.56-.22,.66-.12,.13-.34,.2-.65,.2-.51,0-.76-.3-.76-.91,0-.83,.25-1.48,.74-1.95,.49-.47,1.15-.7,1.96-.7s1.51,.23,2.03,.7c.5,.47,.75,1.12,.75,1.95,0,.68-.19,1.29-.57,1.83Z"/></g><polygon class="f" points="45 5.22 39.6 5.22 40.52 0 45 5.22"/></g></g></g></svg>