<?xml version="1.0" encoding="UTF-8"?><svg xmlns="http://www.w3.org/2000/svg" xmlns:xlink="http://www.w3.org/1999/xlink" viewBox="0 0 45 20.87"><defs><style>.f{fill:url(#e);}.g{fill:url(#d);}.h{fill:#fff;}</style><linearGradient id="d" x1="3.99" y1="24.86" x2="34.68" y2="-5.84" gradientTransform="matrix(1, 0, 0, 1, 0, 0)" gradientUnits="userSpaceOnUse"><stop offset="0" stop-color="#960000"/><stop offset=".4" stop-color="#c80000"/><stop offset=".56" stop-color="#d00000"/><stop offset=".81" stop-color="#e90000"/><stop offset="1" stop-color="red"/></linearGradient><linearGradient id="e" x1="39.88" y1="5.49" x2="42.95" y2="2.42" gradientTransform="matrix(1, 0, 0, 1, 0, 0)" gradientUnits="userSpaceOnUse"><stop offset="0" stop-color="#960000"/><stop offset="1" stop-color="#c80000"/></linearGradient></defs><g id="a"/><g id="b"><g id="c"><g><polygon class="g" points="36.82 20.87 0 20.87 0 0 40.52 0 36.82 20.87"/><g><path class="h" d="M9.67,6.52h-1.52V14.65c0,.52-.27,.78-.8,.78-.5,0-.75-.27-.75-.8V6.52h-1.46c-.47,0-.71-.23-.71-.7s.24-.69,.71-.69h4.56c.42,0,.63,.24,.63,.71,0,.45-.22,.67-.66,.67Z"/><path class="h" d="M14.66,15.44c-2.12,0-3.18-1.76-3.18-5.27s1.06-5.29,3.18-5.29,3.18,1.75,3.18,5.25-1.06,5.31-3.18,5.31Zm0-9.22c-1.09,0-1.63,1.31-1.63,3.94s.54,3.92,1.63,3.92,1.63-1.32,1.63-3.96-.55-3.9-1.63-3.9Z"/><path class="h" d="M23.01,11.41h-1.5v3.3c0,.48-.26,.73-.78,.73-.47,0-.71-.25-.71-.74V6.12c0-.66,.33-.99,1-.99h1.99c.99,0,1.75,.28,2.27,.84,.52,.55,.78,1.33,.78,2.32s-.26,1.75-.79,2.29c-.52,.55-1.27,.82-2.25,.82Zm-.29-4.89h-1.21v3.52h1.5c.47,0,.84-.18,1.09-.53,.22-.32,.33-.72,.33-1.21,0-.61-.13-1.06-.4-1.34-.26-.29-.7-.44-1.32-.44Z"/><path class="h" d="M30.76,15.44c-.77,0-1.43-.23-1.98-.69-.56-.47-.84-1.08-.84-1.83,0-.59,.25-.88,.74-.88,.39,0,.61,.17,.66,.5,.19,1.02,.68,1.53,1.46,1.53,.91,0,1.36-.58,1.36-1.74,0-.51-.18-.91-.54-1.19-.33-.25-.76-.38-1.29-.38-.44,0-.66-.23-.66-.7,0-.44,.19-.66,.57-.66,.59,0,1.02-.13,1.28-.4,.26-.25,.4-.67,.4-1.28,0-.99-.37-1.49-1.12-1.49s-1.1,.36-1.16,1.08c-.02,.29-.09,.49-.21,.61-.11,.12-.3,.18-.58,.18-.49,0-.74-.3-.74-.9,0-.7,.26-1.27,.78-1.7,.49-.42,1.09-.63,1.81-.63,.83,0,1.51,.22,2.03,.67,.55,.47,.83,1.13,.83,1.95,0,.92-.44,1.78-1.31,2.57,.47,.23,.84,.53,1.12,.91,.29,.38,.44,.77,.44,1.19,0,2.18-1.01,3.27-3.03,3.27Z"/></g><polygon class="f" points="45 5.22 39.6 5.22 40.52 0 45 5.22"/></g></g></g></svg>