<?xml version="1.0" encoding="UTF-8"?><svg xmlns="http://www.w3.org/2000/svg" xmlns:xlink="http://www.w3.org/1999/xlink" viewBox="0 0 43.13 20"><defs><style>.f{fill:url(#e);}.g{fill:url(#d);}.h{fill:#fff;}</style><linearGradient id="d" x1="3.82" y1="23.82" x2="33.24" y2="-5.59" gradientTransform="matrix(1, 0, 0, 1, 0, 0)" gradientUnits="userSpaceOnUse"><stop offset="0" stop-color="#960000"/><stop offset=".4" stop-color="#c80000"/><stop offset=".56" stop-color="#d00000"/><stop offset=".81" stop-color="#e90000"/><stop offset="1" stop-color="red"/></linearGradient><linearGradient id="e" x1="38.21" y1="5.27" x2="41.16" y2="2.32" gradientTransform="matrix(1, 0, 0, 1, 0, 0)" gradientUnits="userSpaceOnUse"><stop offset="0" stop-color="#960000"/><stop offset="1" stop-color="#c80000"/></linearGradient></defs><g id="a"/><g id="b"><g id="c"><g><polygon class="g" points="35.29 20 0 20 0 0 38.83 0 35.29 20"/><g><path class="h" d="M9.29,6.21h-1.46v7.83c0,.5-.26,.75-.77,.75-.48,0-.72-.26-.72-.77V6.21h-1.41c-.46,0-.69-.22-.69-.67s.23-.66,.69-.66h4.39c.41,0,.61,.23,.61,.69,0,.43-.21,.65-.63,.65Z"/><path class="h" d="M14.1,14.81c-2.04,0-3.06-1.69-3.06-5.08s1.02-5.09,3.06-5.09,3.06,1.68,3.06,5.05-1.02,5.12-3.06,5.12Zm0-8.87c-1.05,0-1.57,1.27-1.57,3.8s.52,3.77,1.57,3.77,1.57-1.27,1.57-3.81-.52-3.76-1.57-3.76Z"/><path class="h" d="M22.14,10.92h-1.45v3.17c0,.47-.25,.7-.75,.7-.46,0-.69-.24-.69-.71V5.83c0-.63,.32-.95,.96-.95h1.92c.96,0,1.68,.27,2.18,.81,.5,.53,.75,1.28,.75,2.23s-.25,1.68-.76,2.21c-.5,.52-1.22,.79-2.17,.79Zm-.28-4.71h-1.17v3.39h1.45c.46,0,.81-.17,1.05-.51,.21-.3,.32-.69,.32-1.17,0-.59-.13-1.02-.38-1.29-.25-.28-.68-.42-1.27-.42Z"/><path class="h" d="M32.34,7.23l-1.75,7.03c-.09,.36-.38,.53-.85,.53s-.69-.22-.69-.65c0-.03,.01-.1,.04-.2l1.7-6.63c.08-.32,.13-.52,.13-.6,0-.36-.22-.53-.66-.53h-1.13c-.49,0-.74,.25-.74,.75v.62c0,.44-.26,.66-.77,.66s-.76-.22-.76-.67v-1.6c0-.35,.14-.62,.42-.81,.24-.17,.54-.25,.9-.25h3.08c.38,0,.69,.1,.94,.29,.23,.19,.34,.47,.34,.84,0,.24-.07,.64-.2,1.22Z"/></g><polygon class="f" points="43.13 5 37.95 5 38.83 0 43.13 5"/></g></g></g></svg>