<?xml version="1.0" encoding="UTF-8"?><svg xmlns="http://www.w3.org/2000/svg" xmlns:xlink="http://www.w3.org/1999/xlink" viewBox="0 0 43.13 20"><defs><style>.f{fill:url(#e);}.g{fill:url(#d);}.h{fill:#fff;}</style><linearGradient id="d" x1="3.82" y1="23.82" x2="33.24" y2="-5.59" gradientTransform="matrix(1, 0, 0, 1, 0, 0)" gradientUnits="userSpaceOnUse"><stop offset="0" stop-color="#960000"/><stop offset=".4" stop-color="#c80000"/><stop offset=".56" stop-color="#d00000"/><stop offset=".81" stop-color="#e90000"/><stop offset="1" stop-color="red"/></linearGradient><linearGradient id="e" x1="38.21" y1="5.27" x2="41.16" y2="2.32" gradientTransform="matrix(1, 0, 0, 1, 0, 0)" gradientUnits="userSpaceOnUse"><stop offset="0" stop-color="#960000"/><stop offset="1" stop-color="#c80000"/></linearGradient></defs><g id="a"/><g id="b"><g id="c"><g><polygon class="g" points="35.29 20 0 20 0 0 38.83 0 35.29 20"/><g><path class="h" d="M9.29,6.21h-1.46v7.83c0,.5-.26,.75-.77,.75-.48,0-.72-.26-.72-.77V6.21h-1.41c-.46,0-.69-.22-.69-.67s.23-.66,.69-.66h4.39c.41,0,.61,.23,.61,.69,0,.43-.21,.65-.63,.65Z"/><path class="h" d="M14.1,14.81c-2.04,0-3.06-1.69-3.06-5.08s1.02-5.09,3.06-5.09,3.06,1.68,3.06,5.05-1.02,5.12-3.06,5.12Zm0-8.87c-1.05,0-1.57,1.27-1.57,3.8s.52,3.77,1.57,3.77,1.57-1.27,1.57-3.81-.52-3.76-1.57-3.76Z"/><path class="h" d="M22.14,10.92h-1.45v3.17c0,.47-.25,.7-.75,.7-.46,0-.69-.24-.69-.71V5.83c0-.63,.32-.95,.96-.95h1.92c.96,0,1.68,.27,2.18,.81,.5,.53,.75,1.28,.75,2.23s-.25,1.68-.76,2.21c-.5,.52-1.22,.79-2.17,.79Zm-.28-4.71h-1.17v3.39h1.45c.46,0,.81-.17,1.05-.51,.21-.3,.32-.69,.32-1.17,0-.59-.13-1.02-.38-1.29-.25-.28-.68-.42-1.27-.42Z"/><path class="h" d="M29.7,14.81c-.91,0-1.63-.27-2.15-.8-.51-.52-.76-1.25-.76-2.17,0-.44,.1-.88,.29-1.31,.23-.49,.56-.85,.99-1.07-.4-.19-.7-.51-.91-.98-.17-.41-.25-.82-.25-1.22,0-.84,.25-1.49,.76-1.94,.52-.46,1.19-.69,2.03-.69s1.52,.23,2.04,.69c.51,.46,.76,1.1,.76,1.94,0,.39-.09,.8-.27,1.22-.22,.47-.52,.8-.91,.98,.44,.22,.77,.58,1,1.07,.19,.42,.28,.86,.28,1.31,0,.92-.26,1.65-.77,2.17-.51,.53-1.22,.8-2.13,.8Zm0-4.9c-.49,0-.87,.21-1.13,.63-.22,.36-.33,.8-.33,1.32,0,.44,.13,.82,.39,1.13,.28,.34,.63,.51,1.07,.51s.79-.16,1.07-.48c.27-.32,.41-.71,.41-1.16,0-.52-.11-.96-.34-1.32-.26-.42-.64-.63-1.13-.63Zm0-3.96c-.4,0-.71,.12-.94,.36-.22,.24-.33,.55-.33,.95,0,1.02,.42,1.54,1.27,1.54,.42,0,.75-.16,.99-.47,.19-.27,.29-.63,.29-1.07,0-.4-.11-.71-.34-.95-.23-.24-.54-.36-.94-.36Z"/></g><polygon class="f" points="43.13 5 37.95 5 38.83 0 43.13 5"/></g></g></g></svg>