<svg xmlns="http://www.w3.org/2000/svg" xmlns:xlink="http://www.w3.org/1999/xlink" viewBox="0 0 175 32.02"><defs><style>.cls-1{fill:url(#未命名漸層_15);}.cls-2{fill:#fff;}</style><linearGradient id="未命名漸層_15" x1="87.5" y1="32.02" x2="87.5" gradientUnits="userSpaceOnUse"><stop offset="0" stop-color="#e5006e"/><stop offset="0.46" stop-color="#e85298"/><stop offset="0.57" stop-color="#e95b9d"/><stop offset="0.75" stop-color="#ec73aa"/><stop offset="0.98" stop-color="#f19bc0"/><stop offset="1" stop-color="#f19ec2"/></linearGradient></defs><g id="Layer_2" data-name="Layer 2"><g id="圖層_1" data-name="圖層 1"><rect class="cls-1" width="175" height="32.02" rx="16.01"/><path class="cls-2" d="M37.36,10.47a.5.5,0,0,1-.56.57H34.35V21.22a.49.49,0,0,1-.55.56.51.51,0,0,1-.58-.56V11H30.77a.49.49,0,0,1-.56-.54.5.5,0,0,1,.56-.58h6A.49.49,0,0,1,37.36,10.47Z"/><path class="cls-2" d="M43.63,21.22a.49.49,0,0,1-.55.56.51.51,0,0,1-.58-.56V10.33c0-.37.2-.55.58-.55a.48.48,0,0,1,.55.55Z"/><path class="cls-2" d="M55.92,21.22a.51.51,0,0,1-.18.39.58.58,0,0,1-.41.17.51.51,0,0,1-.44-.25l-3.72-5.25-1.28,1.64v3.3a.56.56,0,1,1-1.12,0V10.33a.56.56,0,0,1,1.12,0v5.76L54.66,10a.55.55,0,0,1,.45-.22.62.62,0,0,1,.41.17.52.52,0,0,1,.17.38.58.58,0,0,1-.13.37l-3.65,4.66,3.9,5.51A.6.6,0,0,1,55.92,21.22Z"/><path class="cls-2" d="M65.2,21.22a.51.51,0,0,1-.18.39.58.58,0,0,1-.41.17.51.51,0,0,1-.44-.25l-3.72-5.25-1.28,1.64v3.3a.56.56,0,0,1-1.12,0V10.33a.56.56,0,0,1,1.12,0v5.76L63.94,10a.55.55,0,0,1,.45-.22.62.62,0,0,1,.41.17.52.52,0,0,1,.17.38.58.58,0,0,1-.13.37l-3.65,4.66,3.9,5.51A.6.6,0,0,1,65.2,21.22Z"/><path class="cls-2" d="M74.62,21.23c0,.38-.19.56-.59.56a.47.47,0,0,1-.51-.39l-.74-2.65H69l-.73,2.62a.5.5,0,0,1-.52.42.58.58,0,0,1-.41-.17.5.5,0,0,1-.18-.4.41.41,0,0,1,0-.16l3.09-10.81a.61.61,0,0,1,1.19,0l3.09,10.82A.4.4,0,0,1,74.62,21.23Zm-2.17-3.62L71,12.51c0-.16-.08-.25-.12-.25s-.09.09-.14.25l-1.41,5.1Z"/><path class="cls-2" d="M77.87,17.56a.49.49,0,0,1,.55.56,14.21,14.21,0,0,1-.48,3.77.64.64,0,0,1-.69.5.39.39,0,0,1-.44-.44,2.14,2.14,0,0,1,0-.45A12.12,12.12,0,0,0,77.44,18C77.45,17.71,77.59,17.56,77.87,17.56ZM79.8,8.75a.73.73,0,0,1,.43.12.44.44,0,0,1,.19.33,1,1,0,0,1-.06.3,13.59,13.59,0,0,1-1.61,2.67,7.85,7.85,0,0,1,1,1.14,27.34,27.34,0,0,0,1.42-2.61.58.58,0,0,1,.44-.19.56.56,0,0,1,.36.14.47.47,0,0,1,.15.35.52.52,0,0,1-.12.33,30.13,30.13,0,0,1-1.61,2.76,12,12,0,0,1-1.08,1.41,18.65,18.65,0,0,0,1.89-.31A3.24,3.24,0,0,0,81,14.7a.77.77,0,0,1-.11-.31c0-.25.17-.38.5-.38q.16,0,.3.24a9.5,9.5,0,0,1,.89,1.87,1.43,1.43,0,0,1,.06.39c0,.28-.21.43-.62.43q-.27,0-.39-.36c0-.14-.06-.27-.1-.41l-.14,0-1,.23v6.41c0,.33-.19.5-.56.5a.44.44,0,0,1-.49-.5V16.62c-.65.11-1.27.19-1.87.25-.39,0-.58-.23-.58-.68s.19-.56.58-.57l.65,0a17.14,17.14,0,0,0,1.13-1.45A.8.8,0,0,1,79,14a14.8,14.8,0,0,0-1.08-1.2c-.25-.24-.53-.49-.85-.75a.62.62,0,0,1-.19-.44q0-.48.51-.48a.76.76,0,0,1,.36.12l.27.22A20.12,20.12,0,0,0,79.37,9,.41.41,0,0,1,79.8,8.75Zm1.51,8.64a.5.5,0,0,1,.49.31A14.92,14.92,0,0,1,82.25,20a3.43,3.43,0,0,1,0,.44c0,.28-.17.42-.5.42s-.47-.14-.49-.42A19.72,19.72,0,0,0,80.9,18l0-.21C80.87,17.51,81,17.39,81.31,17.39Zm1.86-.63h2c.47,0,.7.25.7.74a2.82,2.82,0,0,1-.26,1,7.87,7.87,0,0,1-1,1.88,7.25,7.25,0,0,1-2.09,1.92.81.81,0,0,1-.31.14c-.39,0-.58-.21-.58-.62q0-.34.45-.57A6.24,6.24,0,0,0,83.55,20a8.24,8.24,0,0,0,1-1.72,1.24,1.24,0,0,0,.1-.36s0-.06-.07-.06H83.17a.5.5,0,0,1-.55-.57C82.62,16.93,82.81,16.76,83.17,16.76Zm3.64-8.25a.57.57,0,0,1,.39.16.53.53,0,0,1,.17.41.6.6,0,0,1-.12.36c-.09.18-.18.35-.28.51h3.15c.66,0,1,.31,1,.92v3.38c0,.63-.33.95-1,.95h-2.5v.7a16.7,16.7,0,0,0,.8,2.21,1,1,0,0,0,.11.17,15.57,15.57,0,0,0,1.66-1.89c.13-.18.26-.27.37-.27.37,0,.55.17.55.52a.7.7,0,0,1-.24.5,14.82,14.82,0,0,1-1.84,2l.55.77a9.36,9.36,0,0,0,1.79,1.76c.2.15.3.29.3.44a.56.56,0,0,1-.56.62,1.53,1.53,0,0,1-.63-.18,11.44,11.44,0,0,1-2-2.35,8.47,8.47,0,0,1-.85-1.67v3.58c0,.71-.33,1.06-1,1.06a6.57,6.57,0,0,1-2.14-.44.5.5,0,0,1-.42-.51.49.49,0,0,1,.5-.55,12.81,12.81,0,0,0,1.8.44c.13,0,.2-.09.2-.25V15.2H83.8a.83.83,0,0,1-.93-.95V10.87A.82.82,0,0,1,83.8,10h2l.12-.22a9.55,9.55,0,0,0,.4-1A.6.6,0,0,1,86.81,8.51Zm-2.87,3.55h6.12v-.73a.34.34,0,0,0-.39-.39H84.25c-.21,0-.31.13-.31.39Zm5.73,2.13q.39,0,.39-.36V13H83.94v.83c0,.24.1.36.31.36Z"/><path class="cls-2" d="M100.45,8.75a.55.55,0,0,1,.63.62V13h6.14a.49.49,0,0,1,.54.56q0,.63-.54.63h-6.14v7.37h7.07a.51.51,0,0,1,.57.58.5.5,0,0,1-.57.56H94.83a.5.5,0,0,1-.57-.56.51.51,0,0,1,.57-.58h5V9.37A.54.54,0,0,1,100.45,8.75Z"/><path class="cls-2" d="M114.17,8.64a.88.88,0,0,1,.44.12.59.59,0,0,1,.18.44,1.37,1.37,0,0,1,0,.3,23.5,23.5,0,0,1-.82,3.15V22.76a.5.5,0,0,1-.56.57.51.51,0,0,1-.58-.57V15.29a8.46,8.46,0,0,1-.43.79c-.16.15-.28.23-.36.23q-.63,0-.63-.48a.71.71,0,0,1,.11-.39,17.78,17.78,0,0,0,1.28-2.74,20.6,20.6,0,0,0,1-3.7A.44.44,0,0,1,114.17,8.64Zm4.45,2.5c.33,0,.5.16.5.48s-.17.57-.5.57h-3.44c-.33,0-.5-.19-.5-.57s.17-.48.5-.48Zm-.12,2.19c.32,0,.48.16.48.5a.42.42,0,0,1-.48.48h-3.19c-.35,0-.52-.16-.52-.48s.17-.5.52-.5Zm0,2c.32,0,.48.16.48.5a.42.42,0,0,1-.48.48h-3.13q-.51,0-.51-.48a.44.44,0,0,1,.51-.5Zm-2.69,2h2.25c.61,0,.92.28.92.86v3.89c0,.57-.31.86-.92.86h-2.25c-.6,0-.89-.29-.89-.86V18.19C114.92,17.61,115.21,17.33,115.81,17.33Zm2.55-8.19c.33,0,.5.16.5.48a.44.44,0,0,1-.5.5h-2.49a.44.44,0,0,1-.5-.5c0-.32.17-.48.5-.48ZM117.54,22a.34.34,0,0,0,.39-.39V18.7a.34.34,0,0,0-.39-.39h-1.25c-.2,0-.29.13-.29.39v2.86c0,.26.09.39.29.39Zm6.33-11.76a.53.53,0,0,1,.31.07c.11-.27.21-.56.32-.89a.44.44,0,0,1,.48-.29.52.52,0,0,1,.36.11.36.36,0,0,1,.16.31,1.4,1.4,0,0,1-.07.33,13,13,0,0,1-1.36,3.11h1.43a.44.44,0,0,1,.5.5.45.45,0,0,1-.5.51h-2.07a12.72,12.72,0,0,1-1.36,1.67,3,3,0,0,1-.28.33h2.57c.63,0,1,.29,1,.86v5.33c0,.57-.32.86-1,.86H121a.77.77,0,0,1-.87-.86V17.25l-.3.19a.68.68,0,0,1-.37.12.46.46,0,0,1-.36-.16A.55.55,0,0,1,119,17a.42.42,0,0,1,.2-.36,11.86,11.86,0,0,0,2.11-1.74c.28-.31.55-.63.82-1h-2.3a.44.44,0,0,1-.5-.51.44.44,0,0,1,.5-.5h1.8V11.2h-1.49a.45.45,0,0,1-.51-.5.45.45,0,0,1,.51-.51h1.49v-1a.45.45,0,0,1,.51-.5c.38,0,.56.17.56.5v1Zm-2.62,8.68h3V17.33q0-.39-.36-.39h-2.33c-.2,0-.29.13-.29.39ZM123.87,22q.36,0,.36-.39V19.89h-3v1.73c0,.26.09.39.29.39Zm-1.05-9.07.35-.52a11.63,11.63,0,0,0,.64-1.22h-1.13v1.74Z"/><path class="cls-2" d="M131.71,8.75a.6.6,0,0,1,.41.14.59.59,0,0,1,.2.44,1,1,0,0,1-.06.29,19.26,19.26,0,0,1-.87,3.13v10a.57.57,0,1,1-1.13,0V15.2c-.18.33-.36.64-.55.92a.83.83,0,0,1-.43.27c-.42,0-.63-.19-.63-.56a.52.52,0,0,1,.11-.33,16.44,16.44,0,0,0,1.41-2.71,21.08,21.08,0,0,0,1.11-3.65A.41.41,0,0,1,131.71,8.75Zm10.61,1.5c.35,0,.52.16.52.5s-.17.58-.52.58H138.2v1.12h2.69c.71,0,1.07.33,1.07,1v8.39h.82c.33,0,.5.16.5.48s-.17.56-.5.56H132.53c-.34,0-.5-.18-.5-.56s.16-.48.5-.48h.75V13.44c0-.66.34-1,1-1H137V11.33h-3.86c-.33,0-.5-.2-.5-.58a.44.44,0,0,1,.5-.5H137v-1c0-.34.19-.51.56-.51s.63.17.63.51v1ZM134.4,14.7h6.42v-.81q0-.39-.36-.39h-5.7q-.36,0-.36.39Zm0,2.3h6.42V15.7H134.4Zm0,2.39h6.42V18H134.4Zm0,2.44h6.42V20.39H134.4Z"/><circle class="cls-2" cx="19" cy="16.01" r="3.21"/><circle class="cls-2" cx="155.6" cy="16.01" r="3.21"/></g></g></svg>