<?xml version="1.0" encoding="UTF-8"?>
<svg id="Layer_1" xmlns="http://www.w3.org/2000/svg" xmlns:xlink="http://www.w3.org/1999/xlink" version="1.1" viewBox="0 0 216.5 32">
  <!-- Generator: Adobe Illustrator 29.6.1, SVG Export Plug-In . SVG Version: 2.1.1 Build 9)  -->
  <defs>
    <style>
      .st0 {
        fill: url(#linear-gradient);
      }

      .st1 {
        stroke: #fff;
        stroke-miterlimit: 10;
        stroke-width: .2px;
      }

      .st1, .st2 {
        fill: #fff;
      }
    </style>
    <linearGradient id="linear-gradient" x1="108.2" y1="839.9" x2="108.2" y2="807.9" gradientTransform="translate(0 -807.9)" gradientUnits="userSpaceOnUse">
      <stop offset="0" stop-color="#ff9800"/>
      <stop offset=".5" stop-color="#ffc369"/>
      <stop offset="1" stop-color="#ffdda9"/>
    </linearGradient>
  </defs>
  <g id="Layer_2">
    <g id="_圖層_1" data-name="圖層_1">
      <path class="st0" d="M16,0h184.5C209.3,0,216.5,7.2,216.5,16h0c0,8.8-7.2,16-16,16H16C7.2,32,0,24.9,0,16h0C0,7.2,7.2,0,16,0Z"/>
      <path class="st2" d="M123.2,17.6c.3,0,.5.2.6.4h0c0,1.4-.2,2.6-.5,3.9,0,.3-.4.5-.7.5s-.4-.1-.4-.3h0v-.6c.4-1.1.6-2.3.6-3.5,0-.3,0-.4.4-.4ZM125.1,8.8c.2,0,.3,0,.4.1s.2.2.2.3,0,.2,0,.3c-.4.9-1,1.8-1.6,2.7.4.3.7.7,1,1.1.5-.8,1-1.7,1.4-2.6,0-.1.3-.2.4-.2s.3.1.4.1c0,.1.2.2.2.4s0,.2,0,.3c-.5.9-1,1.9-1.6,2.8-.3.5-.7,1-1.1,1.4.6-.1,1.3-.2,1.9-.3,0-.2,0-.3-.2-.5,0-.1,0-.2,0-.3,0-.2.2-.4.5-.4s.2.1.3.2c.4.6.7,1.2.9,1.9,0,.1,0,.3,0,.4,0,.3-.2.4-.6.4s-.3-.1-.4-.4c0-.1,0-.3,0-.4h0l-1,.2v6.4c0,.3-.2.5-.6.5s-.5-.1-.5-.4h0v-6.3c-.7.1-1.3.2-1.9.2s-.6-.2-.6-.7.2-.6.6-.6h.7c.4-.5.8-.9,1.1-1.4,0,0-.2-.1-.2-.2-.3-.4-.7-.8-1.1-1.2-.2-.2-.5-.5-.8-.8,0-.1-.2-.3-.2-.4,0-.3.2-.5.5-.5s.3.1.4.1l.3.2c.5-.8,1-1.6,1.4-2.5-.2,0,0,0,.2,0ZM126.6,17.4c.2,0,.4.1.5.3.2.8.4,1.5.4,2.3v.4c0,.3-.2.4-.5.4s-.5-.1-.5-.4c0-.8-.2-1.6-.4-2.4v-.2c0-.3.2-.4.5-.4ZM128.5,16.8h2c.5,0,.7.2.7.7s0,.7-.3,1c-.2.7-.6,1.3-1,1.9-.6.8-1.3,1.4-2.1,1.9,0,.1-.2.1-.3.1-.4,0-.6-.2-.6-.6s.2-.4.4-.6c.6-.3,1-.8,1.5-1.2.4-.5.7-1.1,1-1.7,0-.1,0-.2,0-.4,0,0,0-.1,0-.1h-1.4c-.3,0-.5-.2-.6-.4h0c.1-.5.3-.6.7-.6ZM132.1,8.5c0,0,.3.1.4.2,0,.1.2.3.2.4s0,.3,0,.4c0,.2-.2.4-.3.5h3.2c.7,0,1,.3,1,.9v3.4c0,.6-.3.9-1,.9h-2.5v.7c.2.8.5,1.5.8,2.2,0,.1,0,.1,0,.2.6-.6,1.2-1.2,1.7-1.9,0-.2.3-.3.4-.3.4,0,.6.2.6.5s0,.4-.2.5c-.6.7-1.2,1.4-1.8,2l.6.8c.5.7,1.1,1.3,1.8,1.8.2.1.3.3.3.4,0,.3-.2.6-.5.6h0c-.2,0-.4-.1-.6-.2-.8-.7-1.4-1.5-2-2.4-.3-.5-.6-1.1-.8-1.7v3.6c0,.7-.3,1.1-1,1.1s-1.5-.2-2.1-.4c-.2,0-.4-.3-.4-.5,0-.3.2-.5.4-.5h0c.6.2,1.2.3,1.8.4,0,0,.2-.1.2-.2v-6.7h-2.8c-.5.1-.9-.3-.9-.7v-3.6c0-.5.3-.8.8-.9h2.2v-.2c.3-.3.4-.7.5-1-.4-.2-.2-.3,0-.3ZM129.2,12.1h6.1v-.7c0-.2,0-.4-.3-.4h-5.5c-.2,0-.3.1-.3.4,0,0,0,.7,0,.7ZM135,14.2c.3,0,.4-.1.4-.4v-.8h-6.1v.8c0,.2,0,.4.3.4h5.4Z"/>
      <path class="st2" d="M145.7,8.8c.3,0,.6.2.6.5v3.7h6.1c.3,0,.5.2.5.4h0c0,.5-.2.7-.5.7h-6.1v7.4h7.1c.3,0,.5.2.6.4h0c0,.4-.2.6-.4.7h-13.5c-.3,0-.5-.1-.6-.4h0c0-.4.2-.6.4-.7h5.1v-12.1c0-.3.2-.6.4-.6.2,0,.3,0,.3,0Z"/>
      <path class="st2" d="M159.5,8.6c.2,0,.3,0,.4.1s.2.3.2.4v.3c-.2,1.1-.5,2.1-.8,3.1v10.1c0,.3,0,.5-.4.6h0c-.3,0-.5-.2-.6-.4h0v-7.6c0,.3-.3.5-.4.8-.2.1-.3.2-.4.2-.4,0-.6-.2-.6-.5s0-.3,0-.4c.5-.9.9-1.8,1.3-2.7.4-1.2.8-2.4,1-3.7,0-.1.1-.2.3-.3ZM163.9,11.1c.3,0,.5.2.5.5s-.2.6-.5.6h-3.4c-.3,0-.5-.2-.5-.6s.2-.5.5-.5h3.4ZM163.8,13.3c.3,0,.5.2.5.5s0,.4-.3.5h-3.3c-.3,0-.5-.2-.5-.5s.2-.5.5-.5h3.1ZM163.8,15.3c.3,0,.5.2.5.5s0,.4-.3.5h-3.2c-.3,0-.5-.2-.5-.5s0-.5.4-.5h0s3,0,3,0ZM161.1,17.3h2.2c.6,0,.9.3.9.9v3.9c0,.6-.3.9-.9.9h-2.2c-.6,0-.9-.3-.9-.9v-3.9c0-.6.3-.9.9-.9ZM163.7,9.1c.3,0,.5.2.5.5s0,.5-.4.5h-2.6c-.2,0-.5-.1-.5-.4h0c0-.4.2-.6.5-.6h2.5ZM162.8,22c.2,0,.4-.1.4-.3h0v-3c0-.2,0-.4-.3-.4h-1.3c-.2,0-.3.1-.3.4v2.9c0,.3,0,.4.3.4h1.2ZM169.2,10.2c0,0,.2,0,.3.1,0-.3.2-.6.3-.9,0-.2.3-.3.5-.3s.3,0,.4.1.2.2.2.3,0,.2,0,.3c-.3,1.1-.8,2.1-1.4,3.1h1.4c.2,0,.5.1.5.4h0c0,.3,0,.6-.4.6h-2.2c-.4.6-.9,1.2-1.4,1.7,0,.1-.2.2-.3.3h2.6c.6,0,1,.3,1,.9v5.3c0,.6-.3.9-1,.9h-3.3c-.4.1-.8-.2-.9-.7v-5.1l-.3.2c0,.1-.2.1-.4.1s-.3-.1-.4-.2,0-.3,0-.4,0-.3.2-.4c.8-.5,1.5-1.1,2.1-1.7.3-.3.6-.6.8-1h-2.3c-.2,0-.5-.1-.5-.4h0c0-.3,0-.6.4-.6h1.9v-1.7h-1.5c-.2,0-.5-.1-.5-.4h0c0-.3,0-.6.4-.6h1.6v-1c0-.2,0-.5.4-.5h0c.4,0,.6.2.6.5v1h1.3ZM166.5,18.9h3v-1.6c0-.3,0-.4-.4-.4h-2.3c-.2,0-.3.1-.3.4v1.6ZM169.2,22c.2,0,.4-.1.4-.4v-1.7h-3v1.7c0,.3,0,.4.3.4h2.3ZM168.1,12.9l.3-.5c.2-.4.5-.8.6-1.2h-1.1v1.7h.2Z"/>
      <path class="st2" d="M177,8.8c.1,0,.3,0,.4.1.1.1.2.3.2.4s0,.2-.1.3c-.2,1.1-.5,2.1-.9,3.1v10c0,.3-.2.6-.5.6s-.6-.2-.6-.5v-7.8c-.2.3-.4.6-.6.9-.1.1-.3.2-.4.3-.4,0-.6-.2-.6-.6s0-.2.1-.3c.6-.9,1-1.8,1.4-2.7.5-1.2.9-2.4,1.1-3.6.1,0,.3-.3.5-.2q0-.1,0,0ZM187.6,10.2c.4,0,.5.2.5.5s-.2.6-.5.6h-4.1v1.1h2.7c.7,0,1.1.3,1.1,1v8.4h.8c.3,0,.5.2.5.5s-.2.6-.5.6h-10.3c-.3,0-.5-.2-.5-.6s.2-.5.5-.5h.8v-8.4c0-.7.3-1,1-1h2.7v-1.1h-3.9c-.3,0-.5-.2-.5-.6s.1-.5.4-.5h4v-1c0-.3.2-.5.6-.5s.6.2.6.5v1s4.1,0,4.1,0ZM179.7,14.7h6.4v-.8c0-.3-.1-.4-.4-.4h-5.7c-.2,0-.4.1-.4.4v.8h0ZM179.7,17h6.4v-1.3h-6.4v1.3ZM179.7,19.4h6.4v-1.4h-6.4v1.4ZM179.7,21.8h6.4v-1.4h-6.4v1.4Z"/>
      <circle class="st2" cx="19" cy="16" r="3.2"/>
      <circle class="st2" cx="196.9" cy="16" r="3.2"/>
    </g>
  </g>
  <g>
    <path class="st1" d="M37.2,10.2c0-.2,0-.4.1-.5,0-.1.3-.2.5-.2s.4,0,.5.2c.1.1.2.3.2.5v11.3c0,.2,0,.4-.2.5-.1.1-.3.2-.5.2-.2,0-.4,0-.5-.2-.1-.1-.2-.3-.2-.5v-5.2h-5.9v5.2c0,.2,0,.4-.2.5-.1.1-.3.2-.5.2-.2,0-.4,0-.5-.2-.1-.1-.2-.3-.2-.5v-11.3c0-.2,0-.4.2-.5.1-.1.3-.2.5-.2s.4,0,.5.2c.1.1.2.3.2.5v4.9h5.9v-4.9Z"/>
    <path class="st1" d="M46.2,9.3c.8,0,1.5.2,2.1.5.6.3,1.1.8,1.5,1.4.4.6.7,1.3.9,2.1.2.8.3,1.6.3,2.5s-.1,1.7-.3,2.5-.5,1.5-.9,2.1c-.4.6-.9,1.1-1.5,1.4-.6.3-1.3.5-2.2.5s-1.5-.2-2.1-.5-1.1-.8-1.5-1.4c-.4-.6-.7-1.3-.9-2.1s-.3-1.6-.3-2.5,0-1.7.3-2.5.5-1.5.9-2.1c.4-.6.9-1.1,1.5-1.4.6-.3,1.3-.5,2.2-.5ZM46.2,21c.6,0,1.1-.1,1.6-.4s.8-.6,1.1-1.1.5-1,.7-1.6c.2-.6.2-1.3.2-2.1s0-1.4-.2-2c-.1-.6-.4-1.2-.7-1.7-.3-.5-.7-.9-1.1-1.2-.5-.3-1-.4-1.6-.4s-1.2.1-1.6.4-.8.7-1.1,1.2c-.3.5-.5,1-.7,1.7-.1.6-.2,1.3-.2,2s0,1.3.2,1.9c.1.6.4,1.2.6,1.7s.7.9,1.1,1.2c.5.3,1,.4,1.6.4Z"/>
    <path class="st1" d="M55.1,21.4c0,.2,0,.4-.2.5s-.3.2-.5.2-.4,0-.5-.2c-.1-.1-.2-.3-.2-.5v-11.3c0-.2,0-.4.1-.5,0-.1.2-.2.4-.2s.3,0,.4.2.2.2.3.4l5.8,9.4v-9.3c0-.2,0-.4.1-.5,0-.1.3-.2.5-.2s.4,0,.5.2.1.3.1.5v11.3c0,.2,0,.4-.1.5,0,.1-.2.2-.4.2s-.3,0-.4-.2c-.1-.1-.2-.2-.3-.4l-5.8-9.3v9.1Z"/>
    <path class="st1" d="M66.7,20.7h4.2c.2,0,.3,0,.5,0,.2,0,.3,0,.4,0,.1,0,.2,0,.3.2s.1.2.1.4c0,.3,0,.4-.2.5-.1,0-.3.1-.6.1h-5.2c-.2,0-.4,0-.6-.2-.1-.1-.2-.3-.2-.6v-10.8c0-.3,0-.5.2-.6.1-.1.3-.2.6-.2h5.1c.2,0,.4,0,.5.1.1,0,.2.3.2.5,0,.2,0,.4-.2.5-.1,0-.3.1-.5.1h-4.6v4.1h4.4c.2,0,.4,0,.5.1.1,0,.2.3.2.5s0,.4-.2.5-.3.1-.5.1h-4.4v4.5Z"/>
    <path class="st1" d="M78.6,21.4c0,.2,0,.4-.1.5s-.3.2-.5.2-.4,0-.5-.2c0-.1-.1-.3-.1-.5v-5l-3-5.9c-.1-.2-.2-.4-.1-.6,0-.2,0-.3.2-.4.1,0,.3-.1.5-.1.2,0,.3.1.4.4l2.7,5.3,2.6-5.2c0-.1.2-.3.3-.3,0,0,.2-.1.3-.2,0,0,.2,0,.2,0,0,0,.1,0,.2,0,.2.1.2.3.2.4s0,.4-.2.6l-3,5.9v5Z"/>
    <path class="st1" d="M93.7,15.4c.8.1,1.4.5,1.9,1,.5.5.7,1.2.7,2.2s-.3,1.9-.9,2.6c-.6.6-1.4.9-2.4.9h-3.3c-.2,0-.4,0-.5-.2s-.2-.3-.2-.5v-10.9c0-.2,0-.4.2-.5.1-.1.3-.2.5-.2h2.6c.6,0,1.1,0,1.5.2.4.2.8.4,1,.6.3.3.5.6.6,1,.1.4.2.8.2,1.3,0,.7-.2,1.2-.5,1.7-.4.4-.8.7-1.4.9ZM90.3,14.8h2c.7,0,1.2-.2,1.6-.5.4-.3.5-.8.5-1.4s-.2-1-.5-1.4c-.3-.4-.9-.5-1.6-.5h-2v3.9ZM90.3,20.7h2.2c.9,0,1.5-.2,1.9-.5.4-.4.6-.9.6-1.7s-.2-1.5-.7-1.8-1.2-.5-2.2-.5h-1.8v4.7Z"/>
    <path class="st1" d="M100.5,18.7l-.7,2.1c0,.2-.1.3-.2.5,0,.2-.1.3-.2.4s-.2.2-.2.3c0,0-.2.1-.3.1-.2,0-.4,0-.5-.2-.1-.2-.1-.4,0-.8l3.4-11c0-.2.1-.3.3-.5.1-.1.3-.2.5-.2s.4,0,.6.2c.1.1.2.3.3.5l3.4,11c0,.3,0,.5,0,.7,0,.2-.3.3-.5.3-.2,0-.3,0-.4-.2s-.2-.3-.3-.5l-.9-2.8h-4.3ZM104.5,17.5l-1.8-6.2-1.8,6.2h3.7Z"/>
    <path class="st1" d="M113,21.4c0,.2,0,.4-.1.5,0,.1-.3.2-.5.2s-.4,0-.5-.2c0-.1-.1-.3-.1-.5v-5l-3-5.9c-.1-.2-.2-.4-.1-.6,0-.2,0-.3.2-.4.1,0,.3-.1.5-.1.2,0,.3.1.4.4l2.7,5.3,2.6-5.2c0-.1.2-.3.3-.3,0,0,.2-.1.3-.2,0,0,.2,0,.2,0,0,0,.1,0,.2,0,.2.1.2.3.2.4,0,.2,0,.4-.2.6l-3,5.9v5Z"/>
  </g>
</svg>