<?xml version="1.0" encoding="utf-8"?>
<!-- Generator: Adobe Illustrator 26.2.1, SVG Export Plug-In . SVG Version: 6.00 Build 0)  -->
<svg version="1.1" id="Layer_1" xmlns="http://www.w3.org/2000/svg" xmlns:xlink="http://www.w3.org/1999/xlink" x="0px" y="0px"
	 viewBox="0 0 175 32" style="enable-background:new 0 0 175 32;" xml:space="preserve">
<style type="text/css">
	.st0{fill:url(#SVGID_1_);}
	.st1{fill:#FFFFFF;}
</style>
<g id="Layer_2_00000113347162613767207620000012828247793712350872_">
	<g id="圖層_1">
		
			<linearGradient id="SVGID_1_" gradientUnits="userSpaceOnUse" x1="87.5" y1="1.98" x2="87.5" y2="34" gradientTransform="matrix(1 0 0 -1 0 34)">
			<stop  offset="0" style="stop-color:#FF9800"/>
			<stop  offset="0.54" style="stop-color:#FFC369"/>
			<stop  offset="0.9995" style="stop-color:#FFDDA9"/>
		</linearGradient>
		<path class="st0" d="M16,0h143c8.8,0,16,7.2,16,16l0,0c0,8.8-7.2,16-16,16H16C7.2,32,0,24.9,0,16l0,0C0,7.2,7.2,0,16,0z"/>
		<path class="st1" d="M37.4,10.5c0,0.3-0.1,0.5-0.4,0.6c0,0-0.1,0-0.1,0h-2.5v10.2c0,0.3-0.1,0.5-0.4,0.6c0,0-0.1,0-0.1,0
			c-0.3,0-0.5-0.2-0.6-0.4c0,0,0-0.1,0-0.1V11h-2.4c-0.3,0-0.5-0.1-0.6-0.4c0,0,0-0.1,0-0.1c0-0.3,0.1-0.5,0.4-0.6
			c0.1,0,0.1,0,0.2,0h6c0.3-0.1,0.5,0.1,0.6,0.4C37.4,10.3,37.4,10.4,37.4,10.5z"/>
		<path class="st1" d="M43.6,21.2c0,0.3-0.1,0.5-0.4,0.6c0,0-0.1,0-0.1,0c-0.3,0-0.5-0.2-0.6-0.4c0,0,0-0.1,0-0.1V10.3
			c0-0.4,0.2-0.6,0.6-0.6c0.3,0,0.5,0.1,0.5,0.4c0,0.1,0,0.1,0,0.2V21.2z"/>
		<path class="st1" d="M55.9,21.2c0,0.2-0.1,0.3-0.2,0.4c-0.1,0.1-0.3,0.2-0.4,0.2c-0.2,0-0.3-0.1-0.4-0.2l-3.7-5.2l-1.3,1.6v3.3
			c0,0.3-0.2,0.6-0.6,0.6c-0.3,0-0.6-0.2-0.6-0.6c0,0,0,0,0,0V10.3c0-0.3,0.3-0.6,0.6-0.6c0.3,0,0.6,0.3,0.6,0.6v5.8l4.8-6.1
			c0.1-0.1,0.3-0.2,0.5-0.2c0.2,0,0.3,0.1,0.4,0.2c0.1,0.1,0.2,0.2,0.2,0.4c0,0.1,0,0.3-0.1,0.4l-3.7,4.7l3.9,5.5
			C55.9,21,55.9,21.1,55.9,21.2z"/>
		<path class="st1" d="M65.2,21.2c0,0.2-0.1,0.3-0.2,0.4c-0.1,0.1-0.3,0.2-0.4,0.2c-0.2,0-0.3-0.1-0.4-0.2l-3.7-5.2l-1.3,1.6v3.3
			c0,0.3-0.3,0.6-0.6,0.6c-0.3,0-0.6-0.3-0.6-0.6V10.3c0-0.3,0.3-0.6,0.6-0.6c0.3,0,0.6,0.3,0.6,0.6v5.8l4.8-6.1
			c0.1-0.1,0.3-0.2,0.5-0.2c0.2,0,0.3,0.1,0.4,0.2c0.1,0.1,0.2,0.2,0.2,0.4c0,0.1,0,0.3-0.1,0.4l-3.7,4.7l3.9,5.5
			C65.2,21,65.2,21.1,65.2,21.2z"/>
		<path class="st1" d="M74.6,21.2c0,0.4-0.2,0.6-0.6,0.6c-0.2,0-0.5-0.1-0.5-0.4l-0.7-2.6H69l-0.7,2.6c0,0.3-0.3,0.4-0.5,0.4
			c-0.2,0-0.3-0.1-0.4-0.2c-0.1-0.1-0.2-0.2-0.2-0.4c0-0.1,0-0.1,0-0.2l3.1-10.8c0.1-0.3,0.4-0.5,0.7-0.5c0.2,0.1,0.4,0.2,0.5,0.5
			l3.1,10.8C74.6,21.1,74.6,21.2,74.6,21.2z M72.5,17.6L71,12.5c0-0.2-0.1-0.2-0.1-0.2s-0.1,0.1-0.1,0.2l-1.4,5.1H72.5z"/>
		<path class="st1" d="M77.9,17.6c0.3,0,0.5,0.2,0.6,0.4c0,0,0,0.1,0,0.1c0,1.3-0.2,2.5-0.5,3.8c-0.1,0.3-0.4,0.5-0.7,0.5
			c-0.2,0-0.4-0.1-0.4-0.3c0,0,0-0.1,0-0.1c0-0.1,0-0.3,0-0.5c0.4-1.1,0.6-2.3,0.6-3.5C77.4,17.7,77.6,17.6,77.9,17.6z M79.8,8.8
			c0.2,0,0.3,0,0.4,0.1c0.1,0.1,0.2,0.2,0.2,0.3c0,0.1,0,0.2-0.1,0.3c-0.4,0.9-1,1.8-1.6,2.7c0.4,0.3,0.7,0.7,1,1.1
			c0.5-0.8,1-1.7,1.4-2.6c0.1-0.1,0.3-0.2,0.4-0.2c0.1,0,0.3,0.1,0.4,0.1c0.1,0.1,0.2,0.2,0.2,0.4c0,0.1,0,0.2-0.1,0.3
			c-0.5,0.9-1,1.9-1.6,2.8c-0.3,0.5-0.7,1-1.1,1.4c0.6-0.1,1.3-0.2,1.9-0.3c-0.1-0.2-0.1-0.3-0.2-0.5c-0.1-0.1-0.1-0.2-0.1-0.3
			c0-0.2,0.2-0.4,0.5-0.4c0.1,0,0.2,0.1,0.3,0.2c0.4,0.6,0.7,1.2,0.9,1.9c0,0.1,0.1,0.3,0.1,0.4c0,0.3-0.2,0.4-0.6,0.4
			c-0.2,0-0.3-0.1-0.4-0.4c0-0.1-0.1-0.3-0.1-0.4h-0.1l-1,0.2v6.4c0,0.3-0.2,0.5-0.6,0.5c-0.2,0-0.5-0.1-0.5-0.4c0,0,0-0.1,0-0.1
			v-6.2c-0.7,0.1-1.3,0.2-1.9,0.2c-0.4,0-0.6-0.2-0.6-0.7s0.2-0.6,0.6-0.6h0.7c0.4-0.5,0.8-0.9,1.1-1.4c-0.1,0-0.2-0.1-0.2-0.2
			c-0.3-0.4-0.7-0.8-1.1-1.2c-0.2-0.2-0.5-0.5-0.8-0.8c-0.1-0.1-0.2-0.3-0.2-0.4c0-0.3,0.2-0.5,0.5-0.5c0.1,0,0.3,0.1,0.4,0.1
			l0.3,0.2c0.5-0.8,1-1.6,1.4-2.5C79.4,8.8,79.6,8.7,79.8,8.8z M81.3,17.4c0.2,0,0.4,0.1,0.5,0.3c0.2,0.8,0.4,1.5,0.4,2.3
			c0,0.1,0,0.3,0,0.4c0,0.3-0.2,0.4-0.5,0.4s-0.5-0.1-0.5-0.4c-0.1-0.8-0.2-1.6-0.4-2.4v-0.2C80.9,17.5,81,17.4,81.3,17.4z
			 M83.2,16.8h2c0.5,0,0.7,0.2,0.7,0.7c0,0.3-0.1,0.7-0.3,1c-0.2,0.7-0.6,1.3-1,1.9c-0.6,0.8-1.3,1.4-2.1,1.9
			c-0.1,0.1-0.2,0.1-0.3,0.1c-0.4,0-0.6-0.2-0.6-0.6c0-0.2,0.2-0.4,0.4-0.6c0.6-0.3,1-0.8,1.5-1.2c0.4-0.5,0.7-1.1,1-1.7
			c0.1-0.1,0.1-0.2,0.1-0.4c0,0,0-0.1-0.1-0.1h-1.4c-0.3,0-0.5-0.2-0.6-0.4c0,0,0-0.1,0-0.1C82.6,16.9,82.8,16.8,83.2,16.8z
			 M86.8,8.5c0.1,0,0.3,0.1,0.4,0.2c0.1,0.1,0.2,0.3,0.2,0.4c0,0.1,0,0.3-0.1,0.4c-0.1,0.2-0.2,0.4-0.3,0.5h3.2c0.7,0,1,0.3,1,0.9
			v3.4c0,0.6-0.3,0.9-1,0.9h-2.5v0.7c0.2,0.8,0.5,1.5,0.8,2.2c0,0.1,0.1,0.1,0.1,0.2c0.6-0.6,1.2-1.2,1.7-1.9
			c0.1-0.2,0.3-0.3,0.4-0.3c0.4,0,0.6,0.2,0.6,0.5c0,0.2-0.1,0.4-0.2,0.5c-0.6,0.7-1.2,1.4-1.8,2l0.6,0.8c0.5,0.7,1.1,1.3,1.8,1.8
			c0.2,0.1,0.3,0.3,0.3,0.4c0,0.3-0.2,0.6-0.5,0.6c0,0,0,0-0.1,0c-0.2,0-0.4-0.1-0.6-0.2c-0.8-0.7-1.4-1.5-2-2.4
			c-0.3-0.5-0.6-1.1-0.8-1.7v3.6c0,0.7-0.3,1.1-1,1.1c-0.7,0-1.5-0.2-2.1-0.4c-0.2,0-0.4-0.3-0.4-0.5c0-0.3,0.2-0.5,0.4-0.5
			c0,0,0,0,0.1,0c0.6,0.2,1.2,0.3,1.8,0.4c0.1,0,0.2-0.1,0.2-0.2v-6.7h-2.8c-0.5,0.1-0.9-0.3-0.9-0.7c0-0.1,0-0.2,0-0.2v-3.4
			c0-0.5,0.3-0.8,0.8-0.9c0.1,0,0.1,0,0.2,0h2l0.1-0.2c0.2-0.3,0.3-0.7,0.4-1C86.4,8.6,86.6,8.5,86.8,8.5z M83.9,12.1h6.1v-0.7
			c0-0.2-0.1-0.4-0.3-0.4c0,0-0.1,0-0.1,0h-5.4c-0.2,0-0.3,0.1-0.3,0.4V12.1z M89.7,14.2c0.3,0,0.4-0.1,0.4-0.4V13h-6.1v0.8
			c0,0.2,0.1,0.4,0.3,0.4L89.7,14.2z"/>
		<path class="st1" d="M100.4,8.8c0.3,0,0.6,0.2,0.6,0.5c0,0.1,0,0.1,0,0.2V13h6.1c0.3,0,0.5,0.2,0.5,0.4c0,0,0,0.1,0,0.1
			c0,0.4-0.2,0.6-0.5,0.6h-6.1v7.4h7.1c0.3,0,0.5,0.2,0.6,0.4c0,0,0,0.1,0,0.1c0,0.3-0.2,0.5-0.4,0.6c0,0-0.1,0-0.1,0H94.8
			c-0.3,0-0.5-0.1-0.6-0.4c0,0,0-0.1,0-0.1c0-0.3,0.2-0.5,0.4-0.6c0,0,0.1,0,0.1,0h5V9.4c0-0.3,0.2-0.6,0.4-0.6
			C100.3,8.7,100.4,8.7,100.4,8.8z"/>
		<path class="st1" d="M114.2,8.6c0.2,0,0.3,0,0.4,0.1c0.1,0.1,0.2,0.3,0.2,0.4c0,0.1,0,0.2,0,0.3c-0.2,1.1-0.5,2.1-0.8,3.1v10.1
			c0,0.3-0.1,0.5-0.4,0.6c0,0-0.1,0-0.1,0c-0.3,0-0.5-0.2-0.6-0.4c0,0,0-0.1,0-0.1v-7.5c-0.1,0.3-0.3,0.5-0.4,0.8
			c-0.2,0.1-0.3,0.2-0.4,0.2c-0.4,0-0.6-0.2-0.6-0.5c0-0.1,0-0.3,0.1-0.4c0.5-0.9,0.9-1.8,1.3-2.7c0.4-1.2,0.8-2.4,1-3.7
			C113.8,8.8,114,8.7,114.2,8.6z M118.6,11.1c0.3,0,0.5,0.2,0.5,0.5s-0.2,0.6-0.5,0.6h-3.4c-0.3,0-0.5-0.2-0.5-0.6s0.2-0.5,0.5-0.5
			H118.6z M118.5,13.3c0.3,0,0.5,0.2,0.5,0.5c0,0.2-0.1,0.4-0.3,0.5c0,0-0.1,0-0.1,0h-3.2c-0.3,0-0.5-0.2-0.5-0.5s0.2-0.5,0.5-0.5
			H118.5z M118.5,15.3c0.3,0,0.5,0.2,0.5,0.5c0,0.2-0.1,0.4-0.3,0.5c0,0-0.1,0-0.1,0h-3.1c-0.3,0-0.5-0.2-0.5-0.5
			c0-0.2,0.1-0.5,0.4-0.5c0,0,0.1,0,0.1,0H118.5z M115.8,17.3h2.2c0.6,0,0.9,0.3,0.9,0.9v3.9c0,0.6-0.3,0.9-0.9,0.9h-2.2
			c-0.6,0-0.9-0.3-0.9-0.9v-3.9C114.9,17.6,115.2,17.3,115.8,17.3z M118.4,9.1c0.3,0,0.5,0.2,0.5,0.5c0,0.2-0.1,0.5-0.4,0.5
			c0,0-0.1,0-0.1,0h-2.5c-0.2,0-0.5-0.1-0.5-0.4c0,0,0-0.1,0-0.1c0-0.3,0.2-0.5,0.5-0.5H118.4z M117.5,22c0.2,0,0.4-0.1,0.4-0.3
			c0,0,0-0.1,0-0.1v-2.9c0-0.2-0.1-0.4-0.3-0.4c0,0-0.1,0-0.1,0h-1.2c-0.2,0-0.3,0.1-0.3,0.4v2.9c0,0.3,0.1,0.4,0.3,0.4L117.5,22z
			 M123.9,10.2c0.1,0,0.2,0,0.3,0.1c0.1-0.3,0.2-0.6,0.3-0.9c0.1-0.2,0.3-0.3,0.5-0.3c0.1,0,0.3,0,0.4,0.1c0.1,0.1,0.2,0.2,0.2,0.3
			c0,0.1,0,0.2-0.1,0.3c-0.3,1.1-0.8,2.1-1.4,3.1h1.4c0.2,0,0.5,0.1,0.5,0.4c0,0,0,0.1,0,0.1c0,0.2-0.1,0.5-0.4,0.5c0,0-0.1,0-0.1,0
			h-2.1c-0.4,0.6-0.9,1.2-1.4,1.7c-0.1,0.1-0.2,0.2-0.3,0.3h2.6c0.6,0,1,0.3,1,0.9v5.3c0,0.6-0.3,0.9-1,0.9H121
			c-0.4,0.1-0.8-0.2-0.9-0.7c0-0.1,0-0.1,0-0.2v-4.9l-0.3,0.2c-0.1,0.1-0.2,0.1-0.4,0.1c-0.1,0-0.3-0.1-0.4-0.2
			c-0.1-0.1-0.1-0.3-0.1-0.4c0-0.1,0.1-0.3,0.2-0.4c0.8-0.5,1.5-1.1,2.1-1.7c0.3-0.3,0.6-0.6,0.8-1h-2.3c-0.2,0-0.5-0.1-0.5-0.4
			c0,0,0-0.1,0-0.1c0-0.2,0.1-0.5,0.4-0.5c0,0,0.1,0,0.1,0h1.8v-1.7h-1.5c-0.2,0-0.5-0.1-0.5-0.4c0,0,0-0.1,0-0.1
			c0-0.2,0.1-0.5,0.4-0.5c0,0,0.1,0,0.1,0h1.5v-1c0-0.2,0.1-0.5,0.4-0.5c0,0,0.1,0,0.1,0c0.4,0,0.6,0.2,0.6,0.5v1L123.9,10.2z
			 M121.2,18.9h3v-1.6c0-0.3-0.1-0.4-0.4-0.4h-2.3c-0.2,0-0.3,0.1-0.3,0.4L121.2,18.9z M123.9,22c0.2,0,0.4-0.1,0.4-0.4v-1.7h-3v1.7
			c0,0.3,0.1,0.4,0.3,0.4L123.9,22z M122.8,12.9l0.3-0.5c0.2-0.4,0.5-0.8,0.6-1.2h-1.1v1.7L122.8,12.9z"/>
		<path class="st1" d="M131.7,8.8c0.1,0,0.3,0,0.4,0.1c0.1,0.1,0.2,0.3,0.2,0.4c0,0.1,0,0.2-0.1,0.3c-0.2,1.1-0.5,2.1-0.9,3.1v10
			c0,0.3-0.2,0.6-0.5,0.6c-0.3,0-0.6-0.2-0.6-0.5c0,0,0-0.1,0-0.2v-7.6c-0.2,0.3-0.4,0.6-0.6,0.9c-0.1,0.1-0.3,0.2-0.4,0.3
			c-0.4,0-0.6-0.2-0.6-0.6c0-0.1,0-0.2,0.1-0.3c0.6-0.9,1-1.8,1.4-2.7c0.5-1.2,0.9-2.4,1.1-3.6C131.3,8.9,131.5,8.7,131.7,8.8
			C131.7,8.7,131.7,8.7,131.7,8.8z M142.3,10.2c0.4,0,0.5,0.2,0.5,0.5s-0.2,0.6-0.5,0.6h-4.1v1.1h2.7c0.7,0,1.1,0.3,1.1,1v8.4h0.8
			c0.3,0,0.5,0.2,0.5,0.5s-0.2,0.6-0.5,0.6h-10.3c-0.3,0-0.5-0.2-0.5-0.6s0.2-0.5,0.5-0.5h0.8v-8.4c0-0.7,0.3-1,1-1h2.7v-1.1h-3.9
			c-0.3,0-0.5-0.2-0.5-0.6c0-0.2,0.1-0.5,0.4-0.5c0,0,0.1,0,0.1,0h3.9v-1c0-0.3,0.2-0.5,0.6-0.5s0.6,0.2,0.6,0.5v1H142.3z
			 M134.4,14.7h6.4v-0.8c0-0.3-0.1-0.4-0.4-0.4h-5.7c-0.2,0-0.4,0.1-0.4,0.4V14.7z M134.4,17h6.4v-1.3h-6.4V17z M134.4,19.4h6.4V18
			h-6.4V19.4z M134.4,21.8h6.4v-1.4h-6.4V21.8z"/>
		<circle class="st1" cx="19" cy="16" r="3.2"/>
		<circle class="st1" cx="155.6" cy="16" r="3.2"/>
	</g>
</g>
</svg>
