<?xml version="1.0" encoding="UTF-8"?><svg xmlns="http://www.w3.org/2000/svg" viewBox="0 0 14 14.94"><defs><style>.d{fill:#fff;}</style></defs><g id="a"/><g id="b"><g id="c"><g><g><g><rect class="d" x="3.85" y="10.75" width="5.62" height="1.48"/><polygon class="d" points=".93 13.09 .93 14.94 2.78 14.94 .93 13.09"/><polygon class="d" points="2.74 8.17 .93 8.17 .93 9.98 2.74 8.17"/><polygon class="d" points="12.21 9.97 12.21 8.17 10.41 8.17 12.21 9.97"/><path class="d" d="M10.38,14.94h1.84v-1.84c-.61,.61-1.22,1.23-1.84,1.84Z"/></g><path class="d" d="M.34,6.03c.05,.41,.15,.82,.3,1.22l.28,.73,2.16-.84c-.92-.36-1.85-.69-2.75-1.1Z"/><path class="d" d="M9.48,4.63l1.96-.77-.28-.72c-.19-.47-.43-.9-.73-1.28-.36,.9-.66,1.83-.94,2.77Z"/><path class="d" d="M.21,6.67c-.02-.06-.09-.09-.15-.06-.05,.02-.08,.09-.06,.14l.43,1.08c-.09,.03-.15,.11-.15,.21,0,.13,.1,.23,.23,.23,0,0,0,1.13,0,1.13,0,.06,.05,.11,.11,.11s.11-.05,.11-.11v-1.36S.21,6.67,.21,6.67Z"/><path class="d" d="M11.91,4.05c.02,.07,0,.15-.07,.17-.07,.03-.14,0-.17-.07l-.6-1.47c-.03-.06,0-.14,.07-.17,.07-.02,.15,0,.17,.07l.6,1.47Z"/><path class="d" d="M12.64,9.65c0,.08-.06,.15-.15,.15-.08,0-.14-.07-.14-.15v-1.76c0-.08,.07-.14,.15-.14s.15,.06,.15,.15v1.76Z"/><path class="d" d="M12.42,5.4l.43-.76c.21-.37,.07-.84-.29-1.04-.37-.21-.84-.08-1.05,.29l-.28,.52,.24,.14,.28-.52c.13-.23,.43-.32,.66-.19,.23,.13,.32,.43,.19,.66l-.43,.76-.27-.15-.34,.61c-.33,.58-.12,1.31,.46,1.64,.58,.33,1.31,.12,1.64-.46l.34-.61-1.58-.89Zm.52,.99c-.06,.1-.17,.16-.28,.15l-.18,.51-.38-.21,.35-.42c-.06-.09-.07-.21-.01-.3,.08-.14,.25-.19,.4-.11,.14,.08,.19,.26,.11,.4Z"/><path class="d" d="M10.17,8.17H2.98L.93,10.22v2.63c.7,.69,1.39,1.39,2.09,2.09h7.13c.69-.69,1.38-1.38,2.07-2.08v-2.66l-2.04-2.04Zm-1.51,.68c.11,0,.2,.09,.2,.2s-.09,.2-.2,.2-.2-.09-.2-.2,.09-.2,.2-.2Zm-2.72,0c.11,0,.2,.09,.2,.2s-.09,.2-.2,.2-.2-.09-.2-.2,.09-.2,.2-.2Zm-2.72,0c.11,0,.19,.09,.19,.2s-.08,.2-.19,.2-.2-.09-.2-.2,.09-.2,.2-.2Zm-1.39,2.94c-.11,0-.2-.09-.2-.2s.09-.2,.2-.2,.2,.09,.2,.2-.09,.2-.2,.2Zm1.39,2.52c-.11,0-.2-.09-.2-.2s.09-.19,.2-.19,.19,.08,.19,.19-.08,.2-.19,.2Zm2.72,0c-.11,0-.2-.09-.2-.2s.09-.19,.2-.19,.2,.08,.2,.19-.09,.2-.2,.2Zm2.72,0c-.11,0-.2-.09-.2-.2s.09-.19,.2-.19,.2,.08,.2,.19-.09,.2-.2,.2Zm2.09-.77H2.46v-4.02H10.75v4.02Zm.64-.38c-.11,0-.2-.09-.2-.2s.08-.2,.2-.2,.2,.08,.2,.2-.09,.2-.2,.2Zm0-2.72c-.11,0-.2-.09-.2-.2s.08-.2,.2-.2,.2,.09,.2,.2-.09,.2-.2,.2Z"/><path class="d" d="M4.75,.34l-1.3,.51C1.37,1.66,.16,3.72,.32,5.84c.98,.45,1.99,.81,2.99,1.2l5.96-2.34c.3-1.01,.62-2.01,1.02-2.98C8.97,.17,6.76-.44,4.75,.34ZM1.65,5.93c-.13-1.53,.76-3.04,2.26-3.63l1.44-.56c1.51-.59,3.18-.09,4.13,1.13L1.65,5.93Z"/></g><path class="d" d="M5.19,7.44c.04,.13-.21,.33-.56,.44-.35,.12-.67,.12-.72,0-.04-.13,.21-.33,.56-.45s.67-.11,.72,.01Z"/><path class="d" d="M7.61,7.78c0,.1-.23,.19-.51,.19s-.5-.08-.5-.18,.22-.18,.5-.19c.28,0,.5,.08,.51,.18Z"/><path class="d" d="M8.87,7.36c0,.1-.24,.15-.52,.11-.28-.03-.49-.15-.47-.25,0-.1,.24-.15,.52-.11,.28,.04,.49,.15,.47,.25Z"/><path class="d" d="M7.03,6.81c0,.1-.21,.2-.49,.22-.28,.02-.51-.04-.52-.14,0-.1,.21-.2,.48-.22,.28-.02,.51,.04,.52,.14Z"/><path class="d" d="M6.24,7.85c0,.1-.23,.19-.52,.2-.29,0-.52-.07-.52-.18,0-.11,.23-.2,.52-.2,.28,0,.52,.08,.52,.18Z"/><path class="d" d="M7.68,7.19c0,.1-.21,.21-.5,.23-.28,.02-.52-.03-.53-.14,0-.11,.21-.21,.5-.24,.29-.02,.53,.04,.54,.14Z"/><path class="d" d="M8.61,7.88c-.04,.1-.29,.09-.56-.01-.27-.1-.45-.27-.42-.36,.03-.1,.28-.09,.55,.01,.27,.1,.45,.26,.42,.36Z"/><path class="d" d="M9.69,7.94c-.03,.1-.28,.11-.55,.02-.28-.08-.47-.23-.44-.33,.03-.1,.28-.11,.55-.02,.28,.08,.47,.23,.44,.33Z"/><path class="d" d="M6.59,7.45c-.03,.12-.33,.16-.67,.07-.34-.08-.59-.24-.56-.37,.03-.13,.33-.16,.67-.08,.34,.08,.59,.24,.56,.37Z"/><polygon class="d" points="9.03 6.67 9.13 7.01 9.47 7.11 9.13 7.21 9.03 7.55 8.93 7.21 8.59 7.11 8.93 7.01 9.03 6.67"/><polygon class="d" points="5.24 6.36 5.34 6.98 5.96 7.09 5.34 7.19 5.24 7.81 5.13 7.19 4.5 7.09 5.13 6.98 5.24 6.36"/><polygon class="d" points="6.79 6 6.88 6.53 7.41 6.62 6.88 6.71 6.79 7.23 6.7 6.71 6.17 6.62 6.7 6.53 6.79 6"/><polygon class="d" points="3.85 7.2 3.93 7.66 4.39 7.74 3.93 7.82 3.85 8.28 3.77 7.82 3.31 7.74 3.77 7.66 3.85 7.2"/></g></g></g></svg>