<?xml version="1.0" encoding="UTF-8"?><svg xmlns="http://www.w3.org/2000/svg" viewBox="0 0 36 36"><defs><style>.d{fill:#0cf;}.e{fill:#fff;}</style></defs><g id="a"/><g id="b"><g id="c"><g><rect class="d" x="0" y="0" width="36" height="36" rx="9.11" ry="9.11"/><path class="e" d="M27.82,12.03c-.62,.28-1.3,.45-1.96,.56,.32-.05,.78-.62,.96-.85,.28-.35,.52-.75,.65-1.19,.02-.03,.03-.08,0-.1-.04-.02-.07,0-.1,0-.74,.4-1.51,.69-2.33,.89-.07,.02-.12,0-.16-.04-.07-.08-.13-.15-.2-.21-.34-.29-.71-.52-1.13-.69-.55-.22-1.14-.32-1.73-.28-.57,.04-1.13,.2-1.64,.46-.51,.27-.96,.63-1.32,1.08-.37,.46-.65,1-.79,1.58-.14,.56-.12,1.11-.04,1.67,.01,.09,0,.11-.08,.09-3.19-.48-5.84-1.62-7.99-4.07-.09-.11-.14-.11-.22,0-.94,1.41-.48,3.67,.69,4.79,.16,.15,.32,.3,.49,.43-.06,.01-.85-.07-1.54-.43-.09-.06-.14-.03-.15,.08,0,.15,0,.29,.03,.46,.18,1.43,1.17,2.75,2.53,3.27,.16,.07,.34,.13,.51,.16-.31,.07-.63,.12-1.51,.05-.11-.02-.15,.03-.11,.14,.67,1.81,2.1,2.35,3.18,2.66,.14,.03,.29,.03,.43,.06,0,.01-.02,.01-.03,.03-.36,.54-1.59,.95-2.17,1.15-1.05,.37-2.19,.53-3.3,.42-.18-.03-.21-.02-.26,0-.05,.03,0,.07,.05,.12,.22,.15,.45,.28,.69,.41,.7,.37,1.44,.67,2.2,.88,3.96,1.09,8.42,.29,11.39-2.66,2.33-2.32,3.15-5.52,3.15-8.72,0-.13,.15-.19,.24-.26,.61-.46,1.1-1,1.55-1.61,.1-.14,.1-.26,.1-.31v-.02c0-.05,0-.04-.08,0Z"/></g></g></g></svg>