<?xml version="1.0" encoding="UTF-8"?>
<svg id="Layer_1" xmlns="http://www.w3.org/2000/svg" xmlns:xlink="http://www.w3.org/1999/xlink" version="1.1" viewBox="0 0 457 459.1">
  <!-- Generator: Adobe Illustrator 29.1.0, SVG Export Plug-In . SVG Version: 2.1.0 Build 142)  -->
  <defs>
    <style>
      .st0, .st1 {
        fill: none;
      }

      .st2 {
        fill: #f4c57a;
      }

      .st3 {
        fill: #f9e1ac;
      }

      .st1 {
        clip-path: url(#clippath);
      }

      .st4 {
        isolation: isolate;
      }

      .st5 {
        mix-blend-mode: multiply;
      }

      .st6 {
        clip-path: url(#clippath-1);
      }

      .st7 {
        fill: #fff;
      }

      .st8 {
        fill: #fcf0d5;
      }

      .st9 {
        fill: #f4a01e;
      }
    </style>
    <clipPath id="clippath">
      <polygon class="st0" points="286 287.1 287 287.1 286 288.1 286 287.1"/>
    </clipPath>
    <clipPath id="clippath-1">
      <polygon class="st1" points="284 285.1 283 285.1 284 284.1 284 285.1"/>
    </clipPath>
  </defs>
  <g class="st4">
    <g id="b">
      <g id="c">
        <g>
          <g class="st5">
            <g class="st6">
              <image class="st4" width="172" height="173" transform="translate(199 199.6)" xlink:href="upload-avatar-bg-1.png"/>
            </g>
          </g>
          <circle class="st2" cx="366.8" cy="368.5" r="50"/>
          <g>
            <path class="st7" d="M342.5,346.5c-1.4,0-2.6,1.1-2.6,2.6v1h11.9v-1c0-1.4-1.1-2.6-2.6-2.6h-6.7Z"/>
            <g>
              <path class="st0" d="M354.6,371.6c0,6.7,5.5,12.2,12.2,12.2s12.2-5.5,12.2-12.2-5.5-12.2-12.2-12.2-12.2,5.5-12.2,12.2ZM376.8,371.6c0,2.8-1.1,5.3-2.9,7.1-1.8,1.8-4.3,2.9-7.1,2.9s-5.3-1.1-7.1-2.9c-1.8-1.8-2.9-4.3-2.9-7.1s1.1-5.3,2.9-7.1c1.8-1.8,4.3-2.9,7.1-2.9s5.3,1.1,7.1,2.9c1.8,1.8,2.9,4.3,2.9,7.1Z"/>
              <path class="st7" d="M361.8,366.6c-1.3,1.3-2.1,3-2.1,5s.8,3.7,2.1,5c1.3,1.3,3,2.1,5,2.1s3.7-.8,5-2.1c1.3-1.3,2.1-3,2.1-5,0-2-.8-3.7-2.1-5s-3-2.1-5-2.1-3.7.8-5,2.1Z"/>
              <path class="st7" d="M379.3,352.1c-.8-3.5-4-6.2-7.8-6.2h-9.5c-3.8,0-6.9,2.6-7.8,6.2h-15.2c-3,0-5.4,2.4-5.4,5.4v28.3c0,3,2.4,5.4,5.4,5.4h55.5c3,0,5.4-2.4,5.4-5.4v-28.3c0-3-2.4-5.4-5.4-5.4h-15.2,0ZM366.8,383.8c-6.7,0-12.2-5.5-12.2-12.2s5.5-12.2,12.2-12.2,12.2,5.5,12.2,12.2-5.5,12.2-12.2,12.2ZM391.9,357.7h-5.7c-.6,0-1-.5-1-1s.5-1,1-1h5.7c.6,0,1,.5,1,1s-.5,1-1,1Z"/>
            </g>
          </g>
        </g>
        <g>
          <path class="st9" d="M423.5,307.5c-.5.2-1,.2-1.5,0-.9-.4-1.3-1.5-1-2.4.5-1.2,1-2.4,1.5-3.6.4-.9,1.4-1.4,2.4-1,.9.4,1.4,1.4,1,2.4-.5,1.2-1,2.5-1.6,3.7-.2.4-.5.7-.9.9h0ZM430,290.3c-.4.2-.9.2-1.4,0-.9-.3-1.5-1.3-1.1-2.3,1.5-4.5,2.9-9.1,4.1-13.7.2-1,1.2-1.5,2.2-1.3,1,.2,1.5,1.2,1.3,2.2-1.2,4.6-2.6,9.3-4.1,13.9-.2.5-.5.9-.9,1h0ZM437.3,262.5c-.3.2-.7.2-1.1.1-1-.2-1.6-1.1-1.4-2.1.9-4.7,1.6-9.4,2.2-14.1.1-1,1-1.7,2-1.6,1,.1,1.7,1,1.6,2-.6,4.8-1.4,9.6-2.3,14.3-.1.6-.5,1-1,1.3h0ZM440.8,233.9c-.3.1-.6.2-.9.2-1,0-1.8-.9-1.7-1.9.3-4.7.4-9.5.4-14.3,0-1,.8-1.8,1.8-1.8s1.8.8,1.8,1.8c0,4.8,0,9.7-.4,14.5,0,.7-.5,1.2-1,1.5h0ZM440.6,205.2c-.2.1-.4.2-.6.2-1,0-1.9-.7-1.9-1.7-.4-4.7-.9-9.5-1.5-14.2-.1-1,.5-1.9,1.5-2s1.9.5,2,1.5c.7,4.8,1.2,9.6,1.6,14.4,0,.8-.4,1.4-1,1.8h0Z"/>
          <path class="st8" d="M317.7,417.8c-4.4,2.1-8.8,4.1-13.3,5.9-.9.4-2,0-2.3-1-.4-.9.1-1.9,1-2.3,4.4-1.8,8.8-3.7,13-5.8.9-.4,2,0,2.4.8s0,2-.8,2.4h0ZM291.1,428.5c0,0-.1,0-.2,0-4.6,1.5-9.3,2.9-13.9,4.1-1,.2-1.9-.3-2.2-1.3-.2-1,.3-2,1.3-2.2,4.6-1.2,9.2-2.5,13.7-4,.9-.3,2,.2,2.3,1.1.3.9-.1,1.8-.9,2.2h0ZM263.2,435.7c-.1,0-.3.1-.5.1-4.7.9-9.6,1.6-14.3,2.2-1,.1-1.9-.6-2-1.6-.1-1,.6-1.9,1.6-2,4.7-.6,9.5-1.3,14.1-2.2,1-.2,1.9.5,2.1,1.4.1.8-.3,1.6-1,2h0ZM234.7,439.1c-.2.1-.4.2-.7.2-4.8.2-9.7.3-14.5.3-1,0-1.8-.8-1.8-1.8,0-1,.8-1.8,1.8-1.8,4.8,0,9.6,0,14.3-.3,1,0,1.8.7,1.9,1.7,0,.8-.4,1.4-1,1.7h0ZM205.9,438.7c-.3.1-.6.2-.9.2-4.8-.4-9.6-.9-14.4-1.6-1-.1-1.7-1.1-1.5-2,.1-1,1.1-1.7,2-1.5,4.7.7,9.5,1.2,14.2,1.6,1,0,1.7,1,1.6,1.9,0,.7-.5,1.2-1,1.5h0ZM177.4,434.5c-.4.2-.8.2-1.2.1-4.7-1-9.4-2.2-14.1-3.5-1-.3-1.5-1.3-1.2-2.2.3-1,1.3-1.5,2.2-1.2,4.6,1.3,9.2,2.5,13.9,3.5,1,.2,1.6,1.2,1.4,2.1-.1.6-.5,1-1,1.2h0ZM149.8,426.6c-.4.2-.9.2-1.4,0-4.5-1.6-9.1-3.4-13.5-5.3-.9-.4-1.3-1.5-.9-2.4.4-.9,1.4-1.3,2.4-.9,4.3,1.9,8.8,3.6,13.3,5.2.9.3,1.4,1.4,1.1,2.3-.2.5-.5.8-.9,1h0ZM123.4,415.2c-.5.2-1.1.2-1.6,0-4.3-2.2-8.5-4.6-12.7-7-.8-.5-1.1-1.6-.6-2.5.5-.9,1.6-1.1,2.5-.6,4.1,2.4,8.2,4.8,12.5,6.9.9.5,1.2,1.5.8,2.4-.2.4-.5.6-.8.8h0ZM98.8,400.4c-.6.3-1.3.2-1.8-.1-3.9-2.7-7.9-5.6-11.6-8.6-.8-.6-.9-1.8-.3-2.5s1.8-.9,2.5-.3c3.7,3,7.6,5.8,11.4,8.5.8.6,1,1.7.4,2.5-.2.3-.4.5-.7.6h0ZM76.3,382.5c-.6.3-1.4.2-2-.3-3.6-3.2-7.1-6.6-10.4-10.1-.7-.7-.7-1.9,0-2.5.7-.7,1.9-.7,2.5,0,3.3,3.4,6.7,6.8,10.2,10,.7.7.8,1.8.1,2.5-.2.2-.3.3-.6.4ZM56.4,361.7c-.7.4-1.6.2-2.2-.5-3.1-3.7-6.1-7.5-9-11.4-.6-.8-.4-1.9.4-2.5.8-.6,1.9-.4,2.5.4,2.8,3.8,5.8,7.6,8.8,11.2.6.8.5,1.9-.2,2.5-.1.1-.2.2-.4.2h0ZM39.4,338.5c-.8.4-1.8.1-2.3-.7-2.6-4.1-5.1-8.3-7.4-12.5-.5-.9-.2-2,.7-2.4.9-.5,2-.2,2.4.7,2.3,4.1,4.7,8.3,7.2,12.3.5.8.3,2-.5,2.5,0,0-.1,0-.2.1h0ZM25.6,313.3h0c-.9.4-2,0-2.4-.9-2-4.4-4-8.9-5.7-13.3-.4-.9.1-2,1-2.3.9-.4,2,.1,2.3,1,1.7,4.4,3.6,8.8,5.6,13.1.4.9,0,2-.9,2.4h0ZM417,121.8c-.9.4-1.9,0-2.4-.8-2.2-4.2-4.5-8.4-6.9-12.5-.5-.8-.2-2,.6-2.5.8-.5,2-.2,2.5.6,2.5,4.1,4.8,8.4,7,12.7.5.9.1,2-.8,2.4,0,0,0,0,0,0ZM15.2,286.5c0,0-.1,0-.2.1-.9.3-1.9-.2-2.2-1.2-1.4-4.6-2.8-9.3-3.9-14-.2-1,.4-1.9,1.3-2.2,1-.2,1.9.4,2.2,1.3,1.1,4.6,2.4,9.2,3.8,13.7.3.9-.1,1.8-.9,2.2ZM402.3,97.1c-.8.4-1.8.1-2.3-.6-2.7-3.9-5.6-7.8-8.5-11.4-.6-.8-.5-1.9.3-2.5.8-.6,1.9-.5,2.5.3,3,3.8,5.9,7.7,8.6,11.6.6.8.4,1.9-.5,2.5,0,0-.2,0-.2.1h0ZM8.4,258.6c-.1,0-.3.1-.5.1-1,.2-1.9-.5-2.1-1.5-.8-4.7-1.5-9.6-2-14.4-.1-1,.6-1.9,1.6-2,1-.1,1.9.6,2,1.6.5,4.7,1.2,9.5,2,14.1.1.8-.3,1.6-1,1.9h0ZM384.4,74.6c-.7.3-1.6.2-2.1-.4-3.2-3.5-6.5-6.9-10-10.2-.7-.7-.7-1.8,0-2.5.7-.7,1.8-.7,2.5,0,3.5,3.3,6.9,6.8,10.1,10.4.7.7.6,1.9-.1,2.5-.1.1-.3.2-.4.3ZM5.4,230c-.2.1-.4.2-.7.2-1,0-1.8-.7-1.9-1.7-.2-4.8-.2-9.7,0-14.5,0-1,.8-1.8,1.8-1.8,1,0,1.8.9,1.8,1.9-.1,4.8,0,9.6,0,14.3,0,.7-.4,1.4-1,1.7ZM363.7,54.7c-.6.3-1.4.2-1.9-.2-3.6-3-7.4-6-11.2-8.8-.8-.6-1-1.7-.4-2.5.6-.8,1.7-1,2.5-.4,3.9,2.8,7.7,5.9,11.4,9,.8.6.9,1.8.2,2.5-.2.2-.4.4-.6.5h0ZM6.2,201.2c-.3.1-.6.2-.9.2-1,0-1.7-1-1.6-2,.4-4.8,1.1-9.6,1.8-14.4.2-1,1.1-1.6,2.1-1.5,1,.2,1.7,1.1,1.5,2.1-.8,4.7-1.4,9.4-1.8,14.2,0,.6-.5,1.2-1,1.4h0ZM340.5,37.7c-.5.3-1.2.2-1.8,0-4-2.5-8.1-5-12.3-7.3-.9-.5-1.2-1.6-.7-2.4s1.6-1.2,2.4-.7c4.2,2.3,8.4,4.8,12.5,7.4.8.5,1.1,1.6.5,2.5-.2.3-.4.5-.7.7h0ZM10.7,172.8c-.4.2-.8.2-1.2.1-1-.2-1.6-1.2-1.4-2.2,1.1-4.7,2.3-9.4,3.7-14,.3-.9,1.3-1.5,2.2-1.2s1.5,1.3,1.2,2.2c-1.4,4.5-2.6,9.2-3.6,13.8-.1.6-.5,1-1,1.2h0ZM315.3,23.9c-.5.2-1,.2-1.5,0-4.3-2-8.7-3.9-13.1-5.6-.9-.4-1.4-1.4-1-2.3.4-.9,1.4-1.4,2.3-1,4.5,1.7,9,3.7,13.3,5.7.9.4,1.3,1.5.9,2.4-.2.4-.5.7-.9.9h0ZM19,145.2c-.4.2-.9.2-1.4,0-.9-.4-1.4-1.4-1-2.3,1.7-4.5,3.5-9,5.5-13.4.4-.9,1.5-1.3,2.4-.9s1.3,1.5.9,2.4c-1.9,4.3-3.8,8.8-5.4,13.2-.2.4-.5.8-.9,1h0ZM288.5,13.5c-.4.2-.9.2-1.3,0-4.5-1.4-9.1-2.7-13.8-3.8-1-.2-1.6-1.2-1.3-2.2.2-1,1.2-1.6,2.2-1.3,4.7,1.1,9.4,2.5,14,3.9,1,.3,1.5,1.3,1.2,2.2-.1.5-.5.9-.9,1.1h0ZM30.8,119c-.5.2-1.1.2-1.6,0-.9-.5-1.2-1.6-.7-2.4,2.3-4.3,4.7-8.5,7.2-12.6.5-.8,1.6-1.1,2.5-.6.8.5,1.1,1.6.6,2.5-2.5,4-4.9,8.2-7.1,12.4-.2.3-.5.6-.8.8h0ZM260.5,6.7c-.3.2-.7.2-1.1.2-4.7-.8-9.4-1.5-14.1-2-1,0-1.7-1-1.6-2,.1-1,1-1.7,2-1.6,4.8.5,9.6,1.2,14.4,2,1,.2,1.6,1.1,1.5,2.1-.1.6-.5,1.1-1,1.3ZM45.9,94.6c-.6.3-1.3.2-1.8-.2-.8-.6-1-1.7-.4-2.5,2.8-3.9,5.8-7.8,8.8-11.5.6-.8,1.8-.9,2.5-.2.8.6.9,1.8.2,2.5-3,3.7-5.9,7.5-8.7,11.3-.2.2-.4.4-.7.6h0ZM231.9,3.6c-.2.1-.6.2-.9.2-4.7-.2-9.5-.2-14.3-.1-1,0-1.8-.8-1.9-1.8,0-1,.8-1.8,1.8-1.8,4.8-.1,9.7,0,14.5.1,1,0,1.8.9,1.7,1.9,0,.7-.4,1.3-1,1.5h0ZM64.1,72.4c-.7.3-1.5.2-2-.3-.7-.7-.8-1.8,0-2.5,3.3-3.5,6.7-7,10.3-10.2.7-.7,1.9-.6,2.5,0s.6,1.9,0,2.5c-3.5,3.2-6.8,6.6-10.1,10.1-.2.2-.3.3-.5.4ZM203.2,4.3c-.2,0-.4.2-.6.2-4.7.4-9.5,1-14.2,1.8-1,.2-1.9-.5-2.1-1.5-.2-1,.5-1.9,1.5-2.1,4.8-.8,9.6-1.4,14.4-1.8,1,0,1.9.6,2,1.6,0,.8-.4,1.5-1,1.8h0ZM85.1,52.7c-.7.3-1.6.2-2.2-.5-.6-.8-.5-1.9.2-2.5,3.7-3,7.6-6,11.5-8.8.8-.6,1.9-.4,2.5.4.6.8.4,1.9-.4,2.5-3.9,2.8-7.7,5.7-11.3,8.7-.1,0-.2.2-.4.2h0ZM174.8,8.9c-.1,0-.2.1-.4.1-4.6,1.1-9.3,2.3-13.8,3.6-.9.3-1.9-.2-2.2-1.2-.3-.9.2-2,1.2-2.2,4.6-1.4,9.3-2.6,14-3.7,1-.2,1.9.4,2.1,1.3.2.8-.2,1.7-1,2h0ZM108.5,36.1c-.8.4-1.8.1-2.3-.7-.5-.8-.3-2,.6-2.5,4.1-2.5,8.3-5,12.6-7.2.8-.5,2-.1,2.4.8s.1,2-.8,2.4c-4.2,2.2-8.3,4.6-12.4,7.1,0,0-.1,0-.2,0h0ZM147.2,17.1c0,0-.1,0-.1,0-4.4,1.6-8.9,3.5-13.2,5.4-.9.4-2,0-2.4-.9-.4-.9,0-1.9.9-2.4h0c4.4-2,8.9-3.9,13.4-5.5.9-.4,2,.1,2.3,1.1.3.9,0,1.9-.9,2.2h0Z"/>
          <path class="st3" d="M28,318.4c-2.2,1.1-4.9.1-6-2.1C-31.2,205.7,15.4,72.6,125.9,19.4c2.2-1.1,4.9-.1,6,2.1,1.1,2.2.1,4.9-2.1,6C23.8,78.5-21,206.3,30.1,312.4c1.1,2.2.1,4.9-2.1,6Z"/>
          <path class="st3" d="M420.8,318.3c-1.2.6-2.6.6-3.9,0-2.2-1.1-3.2-3.8-2.1-6,28.3-58.9,28.3-126.4,0-185.1-1.1-2.2-.1-4.9,2.1-6,2.2-1.1,4.9-.1,6,2.1,29.5,61.3,29.5,131.6,0,192.9-.5,1-1.2,1.7-2.1,2.1h0Z"/>
        </g>
      </g>
    </g>
  </g>
</svg>