<?xml version="1.0" encoding="UTF-8"?><svg xmlns="http://www.w3.org/2000/svg" xmlns:xlink="http://www.w3.org/1999/xlink" viewBox="0 0 12 6.9"><defs><style>.f{fill:#fff;}.g{filter:url(#d);}</style><filter id="d" filterUnits="userSpaceOnUse"><feOffset dx="0" dy="0"/><feGaussianBlur result="e" stdDeviation="1"/><feFlood flood-color="#000" flood-opacity=".5"/><feComposite in2="e" operator="in"/><feComposite in="SourceGraphic"/></filter></defs><g id="a"/><g id="b"><g id="c"><g class="g"><path class="f" d="M0,3.45C1.4,1.91,2.9,.6,4.95,.12c.81-.19,1.62-.15,2.41,.08,1.89,.56,3.31,1.79,4.64,3.28-.55,.52-1.07,1.05-1.62,1.53-.8,.69-1.69,1.24-2.7,1.59-1.01,.35-2.04,.4-3.07,.1-1.89-.56-3.31-1.79-4.61-3.25ZM5.98,.62c-1.51,0-2.75,1.24-2.75,2.75,0,1.52,1.22,2.75,2.74,2.75,1.52,0,2.76-1.22,2.76-2.73,0-1.53-1.22-2.77-2.75-2.77Z"/><path class="f" d="M5.97,1.7c-.95,0-1.74,.8-1.74,1.76,0,.95,.8,1.74,1.75,1.74,.95,0,1.75-.79,1.75-1.75,0-.97-.8-1.76-1.76-1.75Zm.03,2.58c-.46,0-.83-.37-.83-.83s.37-.83,.83-.83,.83,.37,.83,.83-.37,.83-.83,.83Z"/></g></g></g></svg>