<?xml version="1.0" encoding="UTF-8"?><svg xmlns="http://www.w3.org/2000/svg" xmlns:xlink="http://www.w3.org/1999/xlink" viewBox="0 0 25.14 25.14"><defs><style>.j{fill:url(#g);}.k{fill:url(#f);}.l{fill:url(#i);}.m{fill:url(#h);}.n{fill:#000014;}.o{filter:url(#d);}</style><filter id="d" filterUnits="userSpaceOnUse"><feOffset dx=".91" dy=".91"/><feGaussianBlur result="e" stdDeviation=".57"/><feFlood flood-color="#000" flood-opacity=".75"/><feComposite in2="e" operator="in"/><feComposite in="SourceGraphic"/></filter><linearGradient id="f" x1="0" y1="12.57" x2="25.14" y2="12.57" gradientTransform="matrix(1, 0, 0, 1, 0, 0)" gradientUnits="userSpaceOnUse"><stop offset="0" stop-color="#f0cc7e"/><stop offset=".19" stop-color="#f4db8c"/><stop offset=".41" stop-color="#f9f3e5"/><stop offset=".73" stop-color="#c78a03"/><stop offset=".89" stop-color="#e3b75e"/><stop offset=".95" stop-color="#efca84"/></linearGradient><linearGradient id="g" x1="4.78" y1="13.23" x2="21.29" y2="13.23" xlink:href="#f"/><linearGradient id="h" x1="4.78" y1="13.23" x2="21.29" y2="13.23" xlink:href="#f"/><linearGradient id="i" x1="4.78" y1="13.23" x2="21.29" y2="13.23" xlink:href="#f"/></defs><g id="a"/><g id="b"><g id="c"><g class="o"><g><circle class="n" cx="12.57" cy="12.57" r="12"/><path class="k" d="M12.57,.57c6.63,0,12,5.37,12,12s-5.37,12-12,12S.57,19.2,.57,12.57,5.94,.57,12.57,.57m0-.57C5.64,0,0,5.64,0,12.57s5.64,12.57,12.57,12.57,12.57-5.64,12.57-12.57S19.5,0,12.57,0h0Z"/></g><g><path class="j" d="M9.32,9.93l-1.6,6.87c-.08,.31-.3,.46-.66,.46s-.57-.15-.65-.46l-1.61-6.87c-.01-.07-.02-.12-.02-.16,0-.17,.06-.3,.18-.41,.12-.09,.26-.14,.43-.14,.27,0,.44,.15,.51,.45l1.15,4.83,1.16-4.83c.07-.3,.26-.45,.55-.45,.17,0,.3,.05,.41,.15,.11,.1,.16,.23,.16,.39,0,.05,0,.1-.02,.17Z"/><path class="m" d="M13.03,17.26c-.38,0-.56-.17-.56-.51v-7.04c0-.33,.19-.49,.56-.49s.54,.16,.54,.48v7.06c0,.33-.18,.5-.54,.5Z"/><path class="l" d="M18.97,14.18h-1.15v2.51c0,.37-.2,.55-.59,.55-.36,0-.54-.19-.54-.56v-6.53c0-.5,.25-.75,.76-.75h1.52c.76,0,1.33,.21,1.73,.64,.4,.42,.59,1.01,.59,1.77s-.2,1.33-.6,1.75c-.4,.42-.97,.62-1.72,.62Zm-.22-3.73h-.92v2.68h1.15c.36,0,.64-.13,.83-.4,.17-.24,.25-.55,.25-.92,0-.47-.1-.81-.3-1.02-.2-.22-.54-.33-1-.33Z"/></g></g></g></g></svg>