<?xml version="1.0" encoding="UTF-8"?><svg xmlns="http://www.w3.org/2000/svg" viewBox="0 0 36 36"><defs><style>.d{fill:#00d98c;}.e,.f{fill:#fff;}.f{fill-rule:evenodd;}</style></defs><g id="a"/><g id="b"><g id="c"><g><rect class="d" x="0" width="36" height="36" rx="9.11" ry="9.11"/><g><path class="e" d="M8.39,28.37l1.48-5.53c-.84-1.51-1.28-3.21-1.28-4.93,0-5.63,4.58-10.21,10.21-10.21s10.21,4.58,10.21,10.21-4.58,10.21-10.21,10.21c-1.69,0-3.36-.43-4.85-1.24l-5.56,1.49Zm5.84-3.56l.35,.21c1.29,.77,2.75,1.17,4.23,1.17,4.57,0,8.28-3.72,8.28-8.28s-3.72-8.28-8.28-8.28-8.28,3.72-8.28,8.28c0,1.51,.42,2.99,1.21,4.29l.21,.35-.83,3.09,3.11-.83Z"/><path class="f" d="M22.61,19.32c-.42-.25-.97-.53-1.46-.33-.38,.16-.62,.75-.87,1.05-.13,.16-.28,.18-.47,.1-1.43-.57-2.52-1.52-3.31-2.83-.13-.2-.11-.36,.05-.55,.24-.28,.54-.6,.6-.98,.06-.38-.11-.82-.27-1.15-.2-.43-.42-1.04-.85-1.28-.4-.22-.92-.1-1.27,.19-.61,.49-.9,1.27-.89,2.04,0,.22,.03,.44,.08,.65,.12,.51,.36,.98,.62,1.43,.2,.34,.42,.67,.65,.99,.76,1.04,1.71,1.94,2.81,2.61,.55,.34,1.14,.63,1.75,.83,.69,.23,1.3,.46,2.04,.32,.78-.15,1.54-.63,1.85-1.38,.09-.22,.14-.47,.09-.7-.11-.48-.76-.77-1.15-1.01Z"/></g></g></g></g></svg>