<?xml version="1.0" encoding="UTF-8"?>
<svg xmlns="http://www.w3.org/2000/svg" width="36" height="36" viewBox="0 0 36 36">
  <defs>
    <style>
      .cls-1 {
        fill: #fff;
      }
    </style>
  </defs>
  <g id="Layer_1" data-name="Layer 1"/>
  <g id="Layer_2" data-name="Layer 2">
    <g id="_層_1" data-name="圖層 1">
      <g>
        <rect y="0" width="36" height="36" rx="7" ry="7"/>
        <g>
          <path class="cls-1" d="M26.08,25.69l-6.33-9.19-.72-1.04-4.52-6.57-.37-.54h-5.56l1.36,1.97,6.02,8.74,.72,1.04,4.83,7.02,.37,.54h5.56l-1.36-1.97Zm-3.54,.71l-5.02-7.3-.72-1.04-5.83-8.47h2.51l4.71,6.85,.72,1.04,6.14,8.92h-2.51Z"/>
          <polygon class="cls-1" points="16.8 18.07 17.52 19.1 16.67 20.09 10.17 27.66 8.56 27.66 15.95 19.05 16.8 18.07"/>
          <polygon class="cls-1" points="26.77 8.34 19.76 16.5 18.91 17.48 18.19 16.45 19.04 15.46 23.79 9.93 25.17 8.34 26.77 8.34"/>
        </g>
      </g>
    </g>
  </g>
</svg>